G75*
%MOIN*%
%OFA0B0*%
%FSLAX25Y25*%
%IPPOS*%
%LPD*%
%AMOC8*
5,1,8,0,0,1.08239X$1,22.5*
%
%ADD10C,0.00600*%
D10*
X0089883Y0074135D02*
X0089883Y0544607D01*
X0089882Y0544607D02*
X0089884Y0544759D01*
X0089890Y0544911D01*
X0089900Y0545063D01*
X0089913Y0545214D01*
X0089931Y0545365D01*
X0089952Y0545516D01*
X0089978Y0545666D01*
X0090007Y0545815D01*
X0090040Y0545964D01*
X0090077Y0546111D01*
X0090117Y0546258D01*
X0090162Y0546403D01*
X0090210Y0546547D01*
X0090262Y0546690D01*
X0090317Y0546832D01*
X0090376Y0546972D01*
X0090439Y0547111D01*
X0090505Y0547248D01*
X0090575Y0547383D01*
X0090648Y0547516D01*
X0090725Y0547647D01*
X0090805Y0547777D01*
X0090888Y0547904D01*
X0090974Y0548029D01*
X0091064Y0548152D01*
X0091157Y0548272D01*
X0091253Y0548390D01*
X0091352Y0548506D01*
X0091454Y0548619D01*
X0091558Y0548729D01*
X0091666Y0548837D01*
X0091776Y0548941D01*
X0091889Y0549043D01*
X0092005Y0549142D01*
X0092123Y0549238D01*
X0092243Y0549331D01*
X0092366Y0549421D01*
X0092491Y0549507D01*
X0092618Y0549590D01*
X0092748Y0549670D01*
X0092879Y0549747D01*
X0093012Y0549820D01*
X0093147Y0549890D01*
X0093284Y0549956D01*
X0093423Y0550019D01*
X0093563Y0550078D01*
X0093705Y0550133D01*
X0093848Y0550185D01*
X0093992Y0550233D01*
X0094137Y0550278D01*
X0094284Y0550318D01*
X0094431Y0550355D01*
X0094580Y0550388D01*
X0094729Y0550417D01*
X0094879Y0550443D01*
X0095030Y0550464D01*
X0095181Y0550482D01*
X0095332Y0550495D01*
X0095484Y0550505D01*
X0095636Y0550511D01*
X0095788Y0550513D01*
X0163702Y0550513D01*
X0163764Y0550515D01*
X0163825Y0550521D01*
X0163886Y0550530D01*
X0163947Y0550544D01*
X0164006Y0550561D01*
X0164064Y0550582D01*
X0164121Y0550607D01*
X0164176Y0550635D01*
X0164229Y0550666D01*
X0164280Y0550701D01*
X0164329Y0550739D01*
X0164376Y0550780D01*
X0164419Y0550823D01*
X0164460Y0550870D01*
X0164498Y0550919D01*
X0164533Y0550970D01*
X0164564Y0551023D01*
X0164592Y0551078D01*
X0164617Y0551135D01*
X0164638Y0551193D01*
X0164655Y0551252D01*
X0164669Y0551313D01*
X0164678Y0551374D01*
X0164684Y0551435D01*
X0164686Y0551497D01*
X0164686Y0563308D01*
X0164685Y0563308D02*
X0164687Y0563460D01*
X0164693Y0563612D01*
X0164703Y0563764D01*
X0164716Y0563915D01*
X0164734Y0564066D01*
X0164755Y0564217D01*
X0164781Y0564367D01*
X0164810Y0564516D01*
X0164843Y0564665D01*
X0164880Y0564812D01*
X0164920Y0564959D01*
X0164965Y0565104D01*
X0165013Y0565248D01*
X0165065Y0565391D01*
X0165120Y0565533D01*
X0165179Y0565673D01*
X0165242Y0565812D01*
X0165308Y0565949D01*
X0165378Y0566084D01*
X0165451Y0566217D01*
X0165528Y0566348D01*
X0165608Y0566478D01*
X0165691Y0566605D01*
X0165777Y0566730D01*
X0165867Y0566853D01*
X0165960Y0566973D01*
X0166056Y0567091D01*
X0166155Y0567207D01*
X0166257Y0567320D01*
X0166361Y0567430D01*
X0166469Y0567538D01*
X0166579Y0567642D01*
X0166692Y0567744D01*
X0166808Y0567843D01*
X0166926Y0567939D01*
X0167046Y0568032D01*
X0167169Y0568122D01*
X0167294Y0568208D01*
X0167421Y0568291D01*
X0167551Y0568371D01*
X0167682Y0568448D01*
X0167815Y0568521D01*
X0167950Y0568591D01*
X0168087Y0568657D01*
X0168226Y0568720D01*
X0168366Y0568779D01*
X0168508Y0568834D01*
X0168651Y0568886D01*
X0168795Y0568934D01*
X0168940Y0568979D01*
X0169087Y0569019D01*
X0169234Y0569056D01*
X0169383Y0569089D01*
X0169532Y0569118D01*
X0169682Y0569144D01*
X0169833Y0569165D01*
X0169984Y0569183D01*
X0170135Y0569196D01*
X0170287Y0569206D01*
X0170439Y0569212D01*
X0170591Y0569214D01*
X0170591Y0569213D02*
X0238505Y0569213D01*
X0238505Y0569214D02*
X0238567Y0569216D01*
X0238628Y0569222D01*
X0238689Y0569231D01*
X0238750Y0569245D01*
X0238809Y0569262D01*
X0238867Y0569283D01*
X0238924Y0569308D01*
X0238979Y0569336D01*
X0239032Y0569367D01*
X0239083Y0569402D01*
X0239132Y0569440D01*
X0239179Y0569481D01*
X0239222Y0569524D01*
X0239263Y0569571D01*
X0239301Y0569620D01*
X0239336Y0569671D01*
X0239367Y0569724D01*
X0239395Y0569779D01*
X0239420Y0569836D01*
X0239441Y0569894D01*
X0239458Y0569953D01*
X0239472Y0570014D01*
X0239481Y0570075D01*
X0239487Y0570136D01*
X0239489Y0570198D01*
X0239489Y0582009D01*
X0239488Y0582009D02*
X0239490Y0582161D01*
X0239496Y0582313D01*
X0239506Y0582465D01*
X0239519Y0582616D01*
X0239537Y0582767D01*
X0239558Y0582918D01*
X0239584Y0583068D01*
X0239613Y0583217D01*
X0239646Y0583366D01*
X0239683Y0583513D01*
X0239723Y0583660D01*
X0239768Y0583805D01*
X0239816Y0583949D01*
X0239868Y0584092D01*
X0239923Y0584234D01*
X0239982Y0584374D01*
X0240045Y0584513D01*
X0240111Y0584650D01*
X0240181Y0584785D01*
X0240254Y0584918D01*
X0240331Y0585049D01*
X0240411Y0585179D01*
X0240494Y0585306D01*
X0240580Y0585431D01*
X0240670Y0585554D01*
X0240763Y0585674D01*
X0240859Y0585792D01*
X0240958Y0585908D01*
X0241060Y0586021D01*
X0241164Y0586131D01*
X0241272Y0586239D01*
X0241382Y0586343D01*
X0241495Y0586445D01*
X0241611Y0586544D01*
X0241729Y0586640D01*
X0241849Y0586733D01*
X0241972Y0586823D01*
X0242097Y0586909D01*
X0242224Y0586992D01*
X0242354Y0587072D01*
X0242485Y0587149D01*
X0242618Y0587222D01*
X0242753Y0587292D01*
X0242890Y0587358D01*
X0243029Y0587421D01*
X0243169Y0587480D01*
X0243311Y0587535D01*
X0243454Y0587587D01*
X0243598Y0587635D01*
X0243743Y0587680D01*
X0243890Y0587720D01*
X0244037Y0587757D01*
X0244186Y0587790D01*
X0244335Y0587819D01*
X0244485Y0587845D01*
X0244636Y0587866D01*
X0244787Y0587884D01*
X0244938Y0587897D01*
X0245090Y0587907D01*
X0245242Y0587913D01*
X0245394Y0587915D01*
X0245394Y0587914D02*
X0308387Y0587914D01*
X0308387Y0587915D02*
X0308539Y0587913D01*
X0308691Y0587907D01*
X0308843Y0587897D01*
X0308994Y0587884D01*
X0309145Y0587866D01*
X0309296Y0587845D01*
X0309446Y0587819D01*
X0309595Y0587790D01*
X0309744Y0587757D01*
X0309891Y0587720D01*
X0310038Y0587680D01*
X0310183Y0587635D01*
X0310327Y0587587D01*
X0310470Y0587535D01*
X0310612Y0587480D01*
X0310752Y0587421D01*
X0310891Y0587358D01*
X0311028Y0587292D01*
X0311163Y0587222D01*
X0311296Y0587149D01*
X0311427Y0587072D01*
X0311557Y0586992D01*
X0311684Y0586909D01*
X0311809Y0586823D01*
X0311932Y0586733D01*
X0312052Y0586640D01*
X0312170Y0586544D01*
X0312286Y0586445D01*
X0312399Y0586343D01*
X0312509Y0586239D01*
X0312617Y0586131D01*
X0312721Y0586021D01*
X0312823Y0585908D01*
X0312922Y0585792D01*
X0313018Y0585674D01*
X0313111Y0585554D01*
X0313201Y0585431D01*
X0313287Y0585306D01*
X0313370Y0585179D01*
X0313450Y0585049D01*
X0313527Y0584918D01*
X0313600Y0584785D01*
X0313670Y0584650D01*
X0313736Y0584513D01*
X0313799Y0584374D01*
X0313858Y0584234D01*
X0313913Y0584092D01*
X0313965Y0583949D01*
X0314013Y0583805D01*
X0314058Y0583660D01*
X0314098Y0583513D01*
X0314135Y0583366D01*
X0314168Y0583217D01*
X0314197Y0583068D01*
X0314223Y0582918D01*
X0314244Y0582767D01*
X0314262Y0582616D01*
X0314275Y0582465D01*
X0314285Y0582313D01*
X0314291Y0582161D01*
X0314293Y0582009D01*
X0314292Y0582009D02*
X0314292Y0570198D01*
X0314294Y0570136D01*
X0314300Y0570075D01*
X0314309Y0570014D01*
X0314323Y0569953D01*
X0314340Y0569894D01*
X0314361Y0569836D01*
X0314386Y0569779D01*
X0314414Y0569724D01*
X0314445Y0569671D01*
X0314480Y0569620D01*
X0314518Y0569571D01*
X0314559Y0569524D01*
X0314602Y0569481D01*
X0314649Y0569440D01*
X0314698Y0569402D01*
X0314749Y0569367D01*
X0314802Y0569336D01*
X0314857Y0569308D01*
X0314914Y0569283D01*
X0314972Y0569262D01*
X0315031Y0569245D01*
X0315092Y0569231D01*
X0315153Y0569222D01*
X0315214Y0569216D01*
X0315276Y0569214D01*
X0315276Y0569213D02*
X0383190Y0569213D01*
X0383190Y0569214D02*
X0383342Y0569212D01*
X0383494Y0569206D01*
X0383646Y0569196D01*
X0383797Y0569183D01*
X0383948Y0569165D01*
X0384099Y0569144D01*
X0384249Y0569118D01*
X0384398Y0569089D01*
X0384547Y0569056D01*
X0384694Y0569019D01*
X0384841Y0568979D01*
X0384986Y0568934D01*
X0385130Y0568886D01*
X0385273Y0568834D01*
X0385415Y0568779D01*
X0385555Y0568720D01*
X0385694Y0568657D01*
X0385831Y0568591D01*
X0385966Y0568521D01*
X0386099Y0568448D01*
X0386230Y0568371D01*
X0386360Y0568291D01*
X0386487Y0568208D01*
X0386612Y0568122D01*
X0386735Y0568032D01*
X0386855Y0567939D01*
X0386973Y0567843D01*
X0387089Y0567744D01*
X0387202Y0567642D01*
X0387312Y0567538D01*
X0387420Y0567430D01*
X0387524Y0567320D01*
X0387626Y0567207D01*
X0387725Y0567091D01*
X0387821Y0566973D01*
X0387914Y0566853D01*
X0388004Y0566730D01*
X0388090Y0566605D01*
X0388173Y0566478D01*
X0388253Y0566348D01*
X0388330Y0566217D01*
X0388403Y0566084D01*
X0388473Y0565949D01*
X0388539Y0565812D01*
X0388602Y0565673D01*
X0388661Y0565533D01*
X0388716Y0565391D01*
X0388768Y0565248D01*
X0388816Y0565104D01*
X0388861Y0564959D01*
X0388901Y0564812D01*
X0388938Y0564665D01*
X0388971Y0564516D01*
X0389000Y0564367D01*
X0389026Y0564217D01*
X0389047Y0564066D01*
X0389065Y0563915D01*
X0389078Y0563764D01*
X0389088Y0563612D01*
X0389094Y0563460D01*
X0389096Y0563308D01*
X0389095Y0563308D02*
X0389095Y0551497D01*
X0389096Y0551497D02*
X0389098Y0551435D01*
X0389104Y0551374D01*
X0389113Y0551313D01*
X0389127Y0551252D01*
X0389144Y0551193D01*
X0389165Y0551135D01*
X0389190Y0551078D01*
X0389218Y0551023D01*
X0389249Y0550970D01*
X0389284Y0550919D01*
X0389322Y0550870D01*
X0389363Y0550823D01*
X0389406Y0550780D01*
X0389453Y0550739D01*
X0389502Y0550701D01*
X0389553Y0550666D01*
X0389606Y0550635D01*
X0389661Y0550607D01*
X0389718Y0550582D01*
X0389776Y0550561D01*
X0389835Y0550544D01*
X0389896Y0550530D01*
X0389957Y0550521D01*
X0390018Y0550515D01*
X0390080Y0550513D01*
X0457993Y0550513D01*
X0458145Y0550511D01*
X0458297Y0550505D01*
X0458449Y0550495D01*
X0458600Y0550482D01*
X0458751Y0550464D01*
X0458902Y0550443D01*
X0459052Y0550417D01*
X0459201Y0550388D01*
X0459350Y0550355D01*
X0459497Y0550318D01*
X0459644Y0550278D01*
X0459789Y0550233D01*
X0459933Y0550185D01*
X0460076Y0550133D01*
X0460218Y0550078D01*
X0460358Y0550019D01*
X0460497Y0549956D01*
X0460634Y0549890D01*
X0460769Y0549820D01*
X0460902Y0549747D01*
X0461033Y0549670D01*
X0461163Y0549590D01*
X0461290Y0549507D01*
X0461415Y0549421D01*
X0461538Y0549331D01*
X0461658Y0549238D01*
X0461776Y0549142D01*
X0461892Y0549043D01*
X0462005Y0548941D01*
X0462115Y0548837D01*
X0462223Y0548729D01*
X0462327Y0548619D01*
X0462429Y0548506D01*
X0462528Y0548390D01*
X0462624Y0548272D01*
X0462717Y0548152D01*
X0462807Y0548029D01*
X0462893Y0547904D01*
X0462976Y0547777D01*
X0463056Y0547647D01*
X0463133Y0547516D01*
X0463206Y0547383D01*
X0463276Y0547248D01*
X0463342Y0547111D01*
X0463405Y0546972D01*
X0463464Y0546832D01*
X0463519Y0546690D01*
X0463571Y0546547D01*
X0463619Y0546403D01*
X0463664Y0546258D01*
X0463704Y0546111D01*
X0463741Y0545964D01*
X0463774Y0545815D01*
X0463803Y0545666D01*
X0463829Y0545516D01*
X0463850Y0545365D01*
X0463868Y0545214D01*
X0463881Y0545063D01*
X0463891Y0544911D01*
X0463897Y0544759D01*
X0463899Y0544607D01*
X0463898Y0544607D02*
X0463898Y0415670D01*
X0463899Y0415670D02*
X0463901Y0415608D01*
X0463907Y0415547D01*
X0463916Y0415486D01*
X0463930Y0415425D01*
X0463947Y0415366D01*
X0463968Y0415308D01*
X0463993Y0415251D01*
X0464021Y0415196D01*
X0464052Y0415143D01*
X0464087Y0415092D01*
X0464125Y0415043D01*
X0464166Y0414996D01*
X0464209Y0414953D01*
X0464256Y0414912D01*
X0464305Y0414874D01*
X0464356Y0414839D01*
X0464409Y0414808D01*
X0464464Y0414780D01*
X0464521Y0414755D01*
X0464579Y0414734D01*
X0464638Y0414717D01*
X0464699Y0414703D01*
X0464760Y0414694D01*
X0464821Y0414688D01*
X0464883Y0414686D01*
X0501300Y0414686D01*
X0501300Y0414685D02*
X0501700Y0414680D01*
X0502099Y0414666D01*
X0502498Y0414642D01*
X0502896Y0414608D01*
X0503293Y0414564D01*
X0503689Y0414511D01*
X0504084Y0414449D01*
X0504477Y0414377D01*
X0504868Y0414295D01*
X0505257Y0414205D01*
X0505644Y0414104D01*
X0506028Y0413995D01*
X0506410Y0413876D01*
X0506788Y0413748D01*
X0507163Y0413610D01*
X0507535Y0413464D01*
X0507903Y0413309D01*
X0508268Y0413145D01*
X0508628Y0412972D01*
X0508984Y0412791D01*
X0509336Y0412601D01*
X0509683Y0412403D01*
X0510025Y0412196D01*
X0510361Y0411981D01*
X0510693Y0411758D01*
X0511019Y0411527D01*
X0511339Y0411288D01*
X0511654Y0411042D01*
X0511962Y0410788D01*
X0512265Y0410527D01*
X0512561Y0410258D01*
X0512850Y0409982D01*
X0513132Y0409700D01*
X0513408Y0409411D01*
X0513677Y0409115D01*
X0513938Y0408812D01*
X0514192Y0408504D01*
X0514438Y0408189D01*
X0514677Y0407869D01*
X0514908Y0407543D01*
X0515131Y0407211D01*
X0515346Y0406875D01*
X0515553Y0406533D01*
X0515751Y0406186D01*
X0515941Y0405834D01*
X0516122Y0405478D01*
X0516295Y0405118D01*
X0516459Y0404753D01*
X0516614Y0404385D01*
X0516760Y0404013D01*
X0516898Y0403638D01*
X0517026Y0403260D01*
X0517145Y0402878D01*
X0517254Y0402494D01*
X0517355Y0402107D01*
X0517445Y0401718D01*
X0517527Y0401327D01*
X0517599Y0400934D01*
X0517661Y0400539D01*
X0517714Y0400143D01*
X0517758Y0399746D01*
X0517792Y0399348D01*
X0517816Y0398949D01*
X0517830Y0398550D01*
X0517835Y0398150D01*
X0517835Y0383190D01*
X0517836Y0383190D02*
X0517838Y0383128D01*
X0517844Y0383067D01*
X0517853Y0383006D01*
X0517867Y0382945D01*
X0517884Y0382886D01*
X0517905Y0382828D01*
X0517930Y0382771D01*
X0517958Y0382716D01*
X0517989Y0382663D01*
X0518024Y0382612D01*
X0518062Y0382563D01*
X0518103Y0382516D01*
X0518146Y0382473D01*
X0518193Y0382432D01*
X0518242Y0382394D01*
X0518293Y0382359D01*
X0518346Y0382328D01*
X0518401Y0382300D01*
X0518458Y0382275D01*
X0518516Y0382254D01*
X0518575Y0382237D01*
X0518636Y0382223D01*
X0518697Y0382214D01*
X0518758Y0382208D01*
X0518820Y0382206D01*
X0532796Y0382206D01*
X0532948Y0382204D01*
X0533100Y0382198D01*
X0533252Y0382188D01*
X0533403Y0382175D01*
X0533554Y0382157D01*
X0533705Y0382136D01*
X0533855Y0382110D01*
X0534004Y0382081D01*
X0534153Y0382048D01*
X0534300Y0382011D01*
X0534447Y0381971D01*
X0534592Y0381926D01*
X0534736Y0381878D01*
X0534879Y0381826D01*
X0535021Y0381771D01*
X0535161Y0381712D01*
X0535300Y0381649D01*
X0535437Y0381583D01*
X0535572Y0381513D01*
X0535705Y0381440D01*
X0535836Y0381363D01*
X0535966Y0381283D01*
X0536093Y0381200D01*
X0536218Y0381114D01*
X0536341Y0381024D01*
X0536461Y0380931D01*
X0536579Y0380835D01*
X0536695Y0380736D01*
X0536808Y0380634D01*
X0536918Y0380530D01*
X0537026Y0380422D01*
X0537130Y0380312D01*
X0537232Y0380199D01*
X0537331Y0380083D01*
X0537427Y0379965D01*
X0537520Y0379845D01*
X0537610Y0379722D01*
X0537696Y0379597D01*
X0537779Y0379470D01*
X0537859Y0379340D01*
X0537936Y0379209D01*
X0538009Y0379076D01*
X0538079Y0378941D01*
X0538145Y0378804D01*
X0538208Y0378665D01*
X0538267Y0378525D01*
X0538322Y0378383D01*
X0538374Y0378240D01*
X0538422Y0378096D01*
X0538467Y0377951D01*
X0538507Y0377804D01*
X0538544Y0377657D01*
X0538577Y0377508D01*
X0538606Y0377359D01*
X0538632Y0377209D01*
X0538653Y0377058D01*
X0538671Y0376907D01*
X0538684Y0376756D01*
X0538694Y0376604D01*
X0538700Y0376452D01*
X0538702Y0376300D01*
X0538702Y0074135D01*
X0538700Y0073983D01*
X0538694Y0073831D01*
X0538684Y0073679D01*
X0538671Y0073528D01*
X0538653Y0073377D01*
X0538632Y0073226D01*
X0538606Y0073076D01*
X0538577Y0072927D01*
X0538544Y0072778D01*
X0538507Y0072631D01*
X0538467Y0072484D01*
X0538422Y0072339D01*
X0538374Y0072195D01*
X0538322Y0072052D01*
X0538267Y0071910D01*
X0538208Y0071770D01*
X0538145Y0071631D01*
X0538079Y0071494D01*
X0538009Y0071359D01*
X0537936Y0071226D01*
X0537859Y0071095D01*
X0537779Y0070965D01*
X0537696Y0070838D01*
X0537610Y0070713D01*
X0537520Y0070590D01*
X0537427Y0070470D01*
X0537331Y0070352D01*
X0537232Y0070236D01*
X0537130Y0070123D01*
X0537026Y0070013D01*
X0536918Y0069905D01*
X0536808Y0069801D01*
X0536695Y0069699D01*
X0536579Y0069600D01*
X0536461Y0069504D01*
X0536341Y0069411D01*
X0536218Y0069321D01*
X0536093Y0069235D01*
X0535966Y0069152D01*
X0535836Y0069072D01*
X0535705Y0068995D01*
X0535572Y0068922D01*
X0535437Y0068852D01*
X0535300Y0068786D01*
X0535161Y0068723D01*
X0535021Y0068664D01*
X0534879Y0068609D01*
X0534736Y0068557D01*
X0534592Y0068509D01*
X0534447Y0068464D01*
X0534300Y0068424D01*
X0534153Y0068387D01*
X0534004Y0068354D01*
X0533855Y0068325D01*
X0533705Y0068299D01*
X0533554Y0068278D01*
X0533403Y0068260D01*
X0533252Y0068247D01*
X0533100Y0068237D01*
X0532948Y0068231D01*
X0532796Y0068229D01*
X0095788Y0068229D01*
X0095636Y0068231D01*
X0095484Y0068237D01*
X0095332Y0068247D01*
X0095181Y0068260D01*
X0095030Y0068278D01*
X0094879Y0068299D01*
X0094729Y0068325D01*
X0094580Y0068354D01*
X0094431Y0068387D01*
X0094284Y0068424D01*
X0094137Y0068464D01*
X0093992Y0068509D01*
X0093848Y0068557D01*
X0093705Y0068609D01*
X0093563Y0068664D01*
X0093423Y0068723D01*
X0093284Y0068786D01*
X0093147Y0068852D01*
X0093012Y0068922D01*
X0092879Y0068995D01*
X0092748Y0069072D01*
X0092618Y0069152D01*
X0092491Y0069235D01*
X0092366Y0069321D01*
X0092243Y0069411D01*
X0092123Y0069504D01*
X0092005Y0069600D01*
X0091889Y0069699D01*
X0091776Y0069801D01*
X0091666Y0069905D01*
X0091558Y0070013D01*
X0091454Y0070123D01*
X0091352Y0070236D01*
X0091253Y0070352D01*
X0091157Y0070470D01*
X0091064Y0070590D01*
X0090974Y0070713D01*
X0090888Y0070838D01*
X0090805Y0070965D01*
X0090725Y0071095D01*
X0090648Y0071226D01*
X0090575Y0071359D01*
X0090505Y0071494D01*
X0090439Y0071631D01*
X0090376Y0071770D01*
X0090317Y0071910D01*
X0090262Y0072052D01*
X0090210Y0072195D01*
X0090162Y0072339D01*
X0090117Y0072484D01*
X0090077Y0072631D01*
X0090040Y0072778D01*
X0090007Y0072927D01*
X0089978Y0073076D01*
X0089952Y0073226D01*
X0089931Y0073377D01*
X0089913Y0073528D01*
X0089900Y0073679D01*
X0089890Y0073831D01*
X0089884Y0073983D01*
X0089882Y0074135D01*
X0176497Y0077087D02*
X0176497Y0100119D01*
X0176497Y0077087D02*
X0176499Y0077025D01*
X0176505Y0076964D01*
X0176514Y0076903D01*
X0176528Y0076842D01*
X0176545Y0076783D01*
X0176566Y0076725D01*
X0176591Y0076668D01*
X0176619Y0076613D01*
X0176650Y0076560D01*
X0176685Y0076509D01*
X0176723Y0076460D01*
X0176764Y0076413D01*
X0176807Y0076370D01*
X0176854Y0076329D01*
X0176903Y0076291D01*
X0176954Y0076256D01*
X0177007Y0076225D01*
X0177062Y0076197D01*
X0177119Y0076172D01*
X0177177Y0076151D01*
X0177236Y0076134D01*
X0177297Y0076120D01*
X0177358Y0076111D01*
X0177419Y0076105D01*
X0177481Y0076103D01*
X0258190Y0076103D01*
X0258252Y0076105D01*
X0258313Y0076111D01*
X0258374Y0076120D01*
X0258435Y0076134D01*
X0258494Y0076151D01*
X0258552Y0076172D01*
X0258609Y0076197D01*
X0258664Y0076225D01*
X0258717Y0076256D01*
X0258768Y0076291D01*
X0258817Y0076329D01*
X0258864Y0076370D01*
X0258907Y0076413D01*
X0258948Y0076460D01*
X0258986Y0076509D01*
X0259021Y0076560D01*
X0259052Y0076613D01*
X0259080Y0076668D01*
X0259105Y0076725D01*
X0259126Y0076783D01*
X0259143Y0076842D01*
X0259157Y0076903D01*
X0259166Y0076964D01*
X0259172Y0077025D01*
X0259174Y0077087D01*
X0259174Y0100119D01*
X0259173Y0100119D02*
X0260256Y0101143D01*
X0261313Y0102193D01*
X0262344Y0103269D01*
X0263349Y0104369D01*
X0264326Y0105494D01*
X0265276Y0106642D01*
X0266197Y0107814D01*
X0267089Y0109007D01*
X0267952Y0110222D01*
X0268785Y0111458D01*
X0269587Y0112713D01*
X0270359Y0113988D01*
X0271099Y0115282D01*
X0271807Y0116593D01*
X0272483Y0117921D01*
X0273127Y0119265D01*
X0273737Y0120624D01*
X0274314Y0121998D01*
X0274857Y0123386D01*
X0275366Y0124786D01*
X0275840Y0126199D01*
X0276280Y0127623D01*
X0276685Y0129057D01*
X0277055Y0130500D01*
X0277389Y0131952D01*
X0277688Y0133412D01*
X0277951Y0134879D01*
X0278178Y0136352D01*
X0278369Y0137830D01*
X0278524Y0139312D01*
X0278643Y0140797D01*
X0278725Y0142285D01*
X0278771Y0143774D01*
X0278780Y0145264D01*
X0278753Y0146754D01*
X0278689Y0148243D01*
X0278589Y0149730D01*
X0278453Y0151214D01*
X0278281Y0152694D01*
X0278072Y0154169D01*
X0277828Y0155639D01*
X0277547Y0157103D01*
X0277231Y0158559D01*
X0276879Y0160007D01*
X0276493Y0161446D01*
X0276071Y0162875D01*
X0275614Y0164294D01*
X0275122Y0165701D01*
X0274597Y0167095D01*
X0274037Y0168476D01*
X0273444Y0169843D01*
X0272818Y0171195D01*
X0272158Y0172531D01*
X0271467Y0173851D01*
X0270743Y0175154D01*
X0269987Y0176438D01*
X0269201Y0177704D01*
X0268384Y0178950D01*
X0267536Y0180176D01*
X0266659Y0181380D01*
X0265752Y0182563D01*
X0264817Y0183723D01*
X0263854Y0184860D01*
X0262863Y0185973D01*
X0261846Y0187062D01*
X0260802Y0188125D01*
X0259732Y0189163D01*
X0258638Y0190174D01*
X0257519Y0191158D01*
X0256376Y0192114D01*
X0255210Y0193042D01*
X0254022Y0193942D01*
X0252812Y0194812D01*
X0251582Y0195652D01*
X0250331Y0196462D01*
X0249061Y0197241D01*
X0247772Y0197989D01*
X0246465Y0198705D01*
X0245141Y0199389D01*
X0243801Y0200040D01*
X0242445Y0200658D01*
X0241074Y0201243D01*
X0239690Y0201795D01*
X0238292Y0202312D01*
X0236883Y0202795D01*
X0235462Y0203243D01*
X0234030Y0203657D01*
X0232589Y0204035D01*
X0231139Y0204378D01*
X0229681Y0204686D01*
X0228215Y0204957D01*
X0226744Y0205193D01*
X0225267Y0205393D01*
X0223786Y0205557D01*
X0222302Y0205684D01*
X0220814Y0205775D01*
X0219325Y0205830D01*
X0217835Y0205848D01*
X0216345Y0205830D01*
X0214856Y0205775D01*
X0213368Y0205684D01*
X0211884Y0205557D01*
X0210403Y0205393D01*
X0208926Y0205193D01*
X0207455Y0204957D01*
X0205989Y0204686D01*
X0204531Y0204378D01*
X0203081Y0204035D01*
X0201640Y0203657D01*
X0200208Y0203243D01*
X0198787Y0202795D01*
X0197378Y0202312D01*
X0195980Y0201795D01*
X0194596Y0201243D01*
X0193225Y0200658D01*
X0191869Y0200040D01*
X0190529Y0199389D01*
X0189205Y0198705D01*
X0187898Y0197989D01*
X0186609Y0197241D01*
X0185339Y0196462D01*
X0184088Y0195652D01*
X0182858Y0194812D01*
X0181648Y0193942D01*
X0180460Y0193042D01*
X0179294Y0192114D01*
X0178151Y0191158D01*
X0177032Y0190174D01*
X0175938Y0189163D01*
X0174868Y0188125D01*
X0173824Y0187062D01*
X0172807Y0185973D01*
X0171816Y0184860D01*
X0170853Y0183723D01*
X0169918Y0182563D01*
X0169011Y0181380D01*
X0168134Y0180176D01*
X0167286Y0178950D01*
X0166469Y0177704D01*
X0165683Y0176438D01*
X0164927Y0175154D01*
X0164203Y0173851D01*
X0163512Y0172531D01*
X0162852Y0171195D01*
X0162226Y0169843D01*
X0161633Y0168476D01*
X0161073Y0167095D01*
X0160548Y0165701D01*
X0160056Y0164294D01*
X0159599Y0162875D01*
X0159177Y0161446D01*
X0158791Y0160007D01*
X0158439Y0158559D01*
X0158123Y0157103D01*
X0157842Y0155639D01*
X0157598Y0154169D01*
X0157389Y0152694D01*
X0157217Y0151214D01*
X0157081Y0149730D01*
X0156981Y0148243D01*
X0156917Y0146754D01*
X0156890Y0145264D01*
X0156899Y0143774D01*
X0156945Y0142285D01*
X0157027Y0140797D01*
X0157146Y0139312D01*
X0157301Y0137830D01*
X0157492Y0136352D01*
X0157719Y0134879D01*
X0157982Y0133412D01*
X0158281Y0131952D01*
X0158615Y0130500D01*
X0158985Y0129057D01*
X0159390Y0127623D01*
X0159830Y0126199D01*
X0160304Y0124786D01*
X0160813Y0123386D01*
X0161356Y0121998D01*
X0161933Y0120624D01*
X0162543Y0119265D01*
X0163187Y0117921D01*
X0163863Y0116593D01*
X0164571Y0115282D01*
X0165311Y0113988D01*
X0166083Y0112713D01*
X0166885Y0111458D01*
X0167718Y0110222D01*
X0168581Y0109007D01*
X0169473Y0107814D01*
X0170394Y0106642D01*
X0171344Y0105494D01*
X0172321Y0104369D01*
X0173326Y0103269D01*
X0174357Y0102193D01*
X0175414Y0101143D01*
X0176497Y0100119D01*
M02*
