%
M48
M72
T01C0.01200
T02C0.01378
T03C0.01969
T04C0.03346
T05C0.03937
T06C0.05900
T07C0.06700
T08C0.15700
%
T01
X501300Y395001
X228564Y275119
X249036Y224528
X279942Y224036
X279745Y219902
X295296Y273052
X302087Y275119
X336438Y170099
X327284Y142639
X327284Y135946
X369410Y135158
X475316Y386733
X474528Y393032
X475316Y404450
X501300Y401300
T02
X251831Y278091
X256162Y278091
X260493Y278091
X264824Y278091
X269154Y278091
X273485Y278091
X277816Y278091
X282146Y278091
X286477Y278091
X290808Y278091
X295139Y278091
X299469Y278091
X302717Y263367
X302717Y259036
X302717Y254706
X302717Y250375
X302717Y241713
X302717Y237383
X302717Y233052
X302717Y228721
X302717Y224391
X249115Y228859
X249115Y233170
X249115Y237520
X249017Y250513
X249017Y259253
X249017Y263583
X302481Y142639
X315473Y123741
X315473Y115867
X315473Y107993
X315473Y100119
X315473Y92245
X323347Y92245
X323347Y100119
X323347Y107993
X331221Y107993
X331221Y100119
X331221Y92245
X339095Y92245
X339095Y100119
X339095Y107993
X339095Y115867
X331221Y115867
X323347Y115867
X323347Y123741
X331221Y123741
X339095Y123741
X504056Y208190
T03
X249331Y270985
X290670Y217835
X299725Y122560
T04
X299331Y103150
X299331Y93150
X493032Y201654
X493032Y211654
T05
X514528Y181654
X514528Y191654
X514528Y201654
X514528Y211654
T06
X511300Y364804
X516300Y354804
X491300Y364804
X486300Y354804
X117284Y533111
X112284Y523111
X137284Y533111
X142284Y523111
X187087Y541812
X192087Y551812
X212087Y551812
X217087Y541812
X261891Y560513
X266891Y570513
X286891Y570513
X291891Y560513
X336694Y541812
X341694Y551812
X361694Y551812
X366694Y541812
X411497Y523111
X416497Y533111
X436497Y533111
X441497Y523111
X436497Y458308
X441497Y448308
X416497Y458308
X411497Y448308
X366694Y467009
X361694Y477009
X341694Y477009
X336694Y467009
X291891Y485709
X286891Y495709
X266891Y495709
X261891Y485709
X217087Y467009
X212087Y477009
X192087Y477009
X187087Y467009
X142284Y448308
X137284Y458308
X117284Y458308
X112284Y448308
X117284Y383505
X112284Y373505
X137284Y383505
X142284Y373505
X187087Y392206
X192087Y402206
X212087Y402206
X217087Y392206
X261891Y410906
X266891Y420906
X286891Y420906
X291891Y410906
X336694Y392206
X341694Y402206
X361694Y402206
X366694Y392206
X411497Y373505
X416497Y383505
X436497Y383505
X441497Y373505
X436497Y308702
X441497Y298702
X416497Y308702
X411497Y298702
X366694Y317402
X361694Y327402
X341694Y327402
X336694Y317402
X291891Y336103
X286891Y346103
X266891Y346103
X261891Y336103
X217087Y317402
X212087Y327402
X192087Y327402
X187087Y317402
X142284Y298702
X137284Y308702
X117284Y308702
X112284Y298702
X117284Y200434
X112284Y190434
X137284Y200434
X142284Y190434
X137284Y125631
X142284Y115631
X117284Y125631
X112284Y115631
X330868Y197883
X338987Y205570
X357780Y198730
X359059Y187623
X396486Y144840
X388368Y137153
X415280Y138000
X416559Y126893
X471452Y146715
X479570Y154402
X498364Y147561
X499643Y136454
X442143Y197185
X440864Y208292
X422071Y215132
X413952Y207445
X486300Y280001
X491300Y290001
X511300Y290001
X516300Y280001
T07
X107284Y513111
X147284Y513111
X182087Y531812
X222087Y531812
X256891Y550513
X296891Y550513
X331694Y531812
X371694Y531812
X406497Y513111
X446497Y513111
X371694Y457009
X406497Y438308
X446497Y438308
X446497Y363505
X481300Y344804
X521300Y344804
X521300Y270001
X481300Y270001
X446497Y288702
X406497Y288702
X371694Y307402
X331694Y307402
X296891Y326103
X256891Y326103
X222087Y307402
X182087Y307402
X147284Y288702
X107284Y288702
X107284Y363505
X147284Y363505
X182087Y382206
X222087Y382206
X256891Y400906
X296891Y400906
X331694Y382206
X371694Y382206
X406497Y363505
X331694Y457009
X296891Y475709
X256891Y475709
X222087Y457009
X182087Y457009
X147284Y438308
X107284Y438308
X322749Y190197
X360337Y176516
X405833Y199758
X443421Y186078
X463333Y139028
X500921Y125347
X417837Y115786
X380249Y129466
X147284Y105631
X107284Y105631
X107284Y180434
X147284Y180434
T08
X127284Y513111
X202087Y531812
X202087Y457009
X127284Y438308
X127284Y363505
X127284Y288702
X202087Y307402
X202087Y382206
X276891Y400906
X276891Y326103
X351694Y307402
X351694Y382206
X351694Y457009
X351694Y531812
X276891Y550513
X276891Y475709
X426497Y438308
X426497Y363505
X426497Y288702
X501300Y270001
X501300Y344804
X424627Y192918
X482127Y132188
X399043Y122626
X341543Y183356
X127284Y105631
X127284Y180434
X426497Y513111
M30
