G75*
%MOIN*%
%OFA0B0*%
%FSLAX25Y25*%
%IPPOS*%
%LPD*%
%AMOC8*
5,1,8,0,0,1.08239X$1,22.5*
%
%ADD10C,0.00600*%
%ADD11R,0.02500X0.05000*%
%ADD12R,0.05000X0.02500*%
%ADD13R,0.05512X0.04331*%
%ADD14R,0.02362X0.04331*%
%ADD15R,0.10630X0.06299*%
%ADD16R,0.06299X0.10630*%
%ADD17R,0.09055X0.04331*%
D10*
X0089883Y0074135D02*
X0089883Y0544607D01*
X0089882Y0544607D02*
X0089884Y0544759D01*
X0089890Y0544911D01*
X0089900Y0545063D01*
X0089913Y0545214D01*
X0089931Y0545365D01*
X0089952Y0545516D01*
X0089978Y0545666D01*
X0090007Y0545815D01*
X0090040Y0545964D01*
X0090077Y0546111D01*
X0090117Y0546258D01*
X0090162Y0546403D01*
X0090210Y0546547D01*
X0090262Y0546690D01*
X0090317Y0546832D01*
X0090376Y0546972D01*
X0090439Y0547111D01*
X0090505Y0547248D01*
X0090575Y0547383D01*
X0090648Y0547516D01*
X0090725Y0547647D01*
X0090805Y0547777D01*
X0090888Y0547904D01*
X0090974Y0548029D01*
X0091064Y0548152D01*
X0091157Y0548272D01*
X0091253Y0548390D01*
X0091352Y0548506D01*
X0091454Y0548619D01*
X0091558Y0548729D01*
X0091666Y0548837D01*
X0091776Y0548941D01*
X0091889Y0549043D01*
X0092005Y0549142D01*
X0092123Y0549238D01*
X0092243Y0549331D01*
X0092366Y0549421D01*
X0092491Y0549507D01*
X0092618Y0549590D01*
X0092748Y0549670D01*
X0092879Y0549747D01*
X0093012Y0549820D01*
X0093147Y0549890D01*
X0093284Y0549956D01*
X0093423Y0550019D01*
X0093563Y0550078D01*
X0093705Y0550133D01*
X0093848Y0550185D01*
X0093992Y0550233D01*
X0094137Y0550278D01*
X0094284Y0550318D01*
X0094431Y0550355D01*
X0094580Y0550388D01*
X0094729Y0550417D01*
X0094879Y0550443D01*
X0095030Y0550464D01*
X0095181Y0550482D01*
X0095332Y0550495D01*
X0095484Y0550505D01*
X0095636Y0550511D01*
X0095788Y0550513D01*
X0163702Y0550513D01*
X0163764Y0550515D01*
X0163825Y0550521D01*
X0163886Y0550530D01*
X0163947Y0550544D01*
X0164006Y0550561D01*
X0164064Y0550582D01*
X0164121Y0550607D01*
X0164176Y0550635D01*
X0164229Y0550666D01*
X0164280Y0550701D01*
X0164329Y0550739D01*
X0164376Y0550780D01*
X0164419Y0550823D01*
X0164460Y0550870D01*
X0164498Y0550919D01*
X0164533Y0550970D01*
X0164564Y0551023D01*
X0164592Y0551078D01*
X0164617Y0551135D01*
X0164638Y0551193D01*
X0164655Y0551252D01*
X0164669Y0551313D01*
X0164678Y0551374D01*
X0164684Y0551435D01*
X0164686Y0551497D01*
X0164686Y0563308D01*
X0164685Y0563308D02*
X0164687Y0563460D01*
X0164693Y0563612D01*
X0164703Y0563764D01*
X0164716Y0563915D01*
X0164734Y0564066D01*
X0164755Y0564217D01*
X0164781Y0564367D01*
X0164810Y0564516D01*
X0164843Y0564665D01*
X0164880Y0564812D01*
X0164920Y0564959D01*
X0164965Y0565104D01*
X0165013Y0565248D01*
X0165065Y0565391D01*
X0165120Y0565533D01*
X0165179Y0565673D01*
X0165242Y0565812D01*
X0165308Y0565949D01*
X0165378Y0566084D01*
X0165451Y0566217D01*
X0165528Y0566348D01*
X0165608Y0566478D01*
X0165691Y0566605D01*
X0165777Y0566730D01*
X0165867Y0566853D01*
X0165960Y0566973D01*
X0166056Y0567091D01*
X0166155Y0567207D01*
X0166257Y0567320D01*
X0166361Y0567430D01*
X0166469Y0567538D01*
X0166579Y0567642D01*
X0166692Y0567744D01*
X0166808Y0567843D01*
X0166926Y0567939D01*
X0167046Y0568032D01*
X0167169Y0568122D01*
X0167294Y0568208D01*
X0167421Y0568291D01*
X0167551Y0568371D01*
X0167682Y0568448D01*
X0167815Y0568521D01*
X0167950Y0568591D01*
X0168087Y0568657D01*
X0168226Y0568720D01*
X0168366Y0568779D01*
X0168508Y0568834D01*
X0168651Y0568886D01*
X0168795Y0568934D01*
X0168940Y0568979D01*
X0169087Y0569019D01*
X0169234Y0569056D01*
X0169383Y0569089D01*
X0169532Y0569118D01*
X0169682Y0569144D01*
X0169833Y0569165D01*
X0169984Y0569183D01*
X0170135Y0569196D01*
X0170287Y0569206D01*
X0170439Y0569212D01*
X0170591Y0569214D01*
X0170591Y0569213D02*
X0238505Y0569213D01*
X0238505Y0569214D02*
X0238567Y0569216D01*
X0238628Y0569222D01*
X0238689Y0569231D01*
X0238750Y0569245D01*
X0238809Y0569262D01*
X0238867Y0569283D01*
X0238924Y0569308D01*
X0238979Y0569336D01*
X0239032Y0569367D01*
X0239083Y0569402D01*
X0239132Y0569440D01*
X0239179Y0569481D01*
X0239222Y0569524D01*
X0239263Y0569571D01*
X0239301Y0569620D01*
X0239336Y0569671D01*
X0239367Y0569724D01*
X0239395Y0569779D01*
X0239420Y0569836D01*
X0239441Y0569894D01*
X0239458Y0569953D01*
X0239472Y0570014D01*
X0239481Y0570075D01*
X0239487Y0570136D01*
X0239489Y0570198D01*
X0239489Y0582009D01*
X0239488Y0582009D02*
X0239490Y0582161D01*
X0239496Y0582313D01*
X0239506Y0582465D01*
X0239519Y0582616D01*
X0239537Y0582767D01*
X0239558Y0582918D01*
X0239584Y0583068D01*
X0239613Y0583217D01*
X0239646Y0583366D01*
X0239683Y0583513D01*
X0239723Y0583660D01*
X0239768Y0583805D01*
X0239816Y0583949D01*
X0239868Y0584092D01*
X0239923Y0584234D01*
X0239982Y0584374D01*
X0240045Y0584513D01*
X0240111Y0584650D01*
X0240181Y0584785D01*
X0240254Y0584918D01*
X0240331Y0585049D01*
X0240411Y0585179D01*
X0240494Y0585306D01*
X0240580Y0585431D01*
X0240670Y0585554D01*
X0240763Y0585674D01*
X0240859Y0585792D01*
X0240958Y0585908D01*
X0241060Y0586021D01*
X0241164Y0586131D01*
X0241272Y0586239D01*
X0241382Y0586343D01*
X0241495Y0586445D01*
X0241611Y0586544D01*
X0241729Y0586640D01*
X0241849Y0586733D01*
X0241972Y0586823D01*
X0242097Y0586909D01*
X0242224Y0586992D01*
X0242354Y0587072D01*
X0242485Y0587149D01*
X0242618Y0587222D01*
X0242753Y0587292D01*
X0242890Y0587358D01*
X0243029Y0587421D01*
X0243169Y0587480D01*
X0243311Y0587535D01*
X0243454Y0587587D01*
X0243598Y0587635D01*
X0243743Y0587680D01*
X0243890Y0587720D01*
X0244037Y0587757D01*
X0244186Y0587790D01*
X0244335Y0587819D01*
X0244485Y0587845D01*
X0244636Y0587866D01*
X0244787Y0587884D01*
X0244938Y0587897D01*
X0245090Y0587907D01*
X0245242Y0587913D01*
X0245394Y0587915D01*
X0245394Y0587914D02*
X0308387Y0587914D01*
X0308387Y0587915D02*
X0308539Y0587913D01*
X0308691Y0587907D01*
X0308843Y0587897D01*
X0308994Y0587884D01*
X0309145Y0587866D01*
X0309296Y0587845D01*
X0309446Y0587819D01*
X0309595Y0587790D01*
X0309744Y0587757D01*
X0309891Y0587720D01*
X0310038Y0587680D01*
X0310183Y0587635D01*
X0310327Y0587587D01*
X0310470Y0587535D01*
X0310612Y0587480D01*
X0310752Y0587421D01*
X0310891Y0587358D01*
X0311028Y0587292D01*
X0311163Y0587222D01*
X0311296Y0587149D01*
X0311427Y0587072D01*
X0311557Y0586992D01*
X0311684Y0586909D01*
X0311809Y0586823D01*
X0311932Y0586733D01*
X0312052Y0586640D01*
X0312170Y0586544D01*
X0312286Y0586445D01*
X0312399Y0586343D01*
X0312509Y0586239D01*
X0312617Y0586131D01*
X0312721Y0586021D01*
X0312823Y0585908D01*
X0312922Y0585792D01*
X0313018Y0585674D01*
X0313111Y0585554D01*
X0313201Y0585431D01*
X0313287Y0585306D01*
X0313370Y0585179D01*
X0313450Y0585049D01*
X0313527Y0584918D01*
X0313600Y0584785D01*
X0313670Y0584650D01*
X0313736Y0584513D01*
X0313799Y0584374D01*
X0313858Y0584234D01*
X0313913Y0584092D01*
X0313965Y0583949D01*
X0314013Y0583805D01*
X0314058Y0583660D01*
X0314098Y0583513D01*
X0314135Y0583366D01*
X0314168Y0583217D01*
X0314197Y0583068D01*
X0314223Y0582918D01*
X0314244Y0582767D01*
X0314262Y0582616D01*
X0314275Y0582465D01*
X0314285Y0582313D01*
X0314291Y0582161D01*
X0314293Y0582009D01*
X0314292Y0582009D02*
X0314292Y0570198D01*
X0314294Y0570136D01*
X0314300Y0570075D01*
X0314309Y0570014D01*
X0314323Y0569953D01*
X0314340Y0569894D01*
X0314361Y0569836D01*
X0314386Y0569779D01*
X0314414Y0569724D01*
X0314445Y0569671D01*
X0314480Y0569620D01*
X0314518Y0569571D01*
X0314559Y0569524D01*
X0314602Y0569481D01*
X0314649Y0569440D01*
X0314698Y0569402D01*
X0314749Y0569367D01*
X0314802Y0569336D01*
X0314857Y0569308D01*
X0314914Y0569283D01*
X0314972Y0569262D01*
X0315031Y0569245D01*
X0315092Y0569231D01*
X0315153Y0569222D01*
X0315214Y0569216D01*
X0315276Y0569214D01*
X0315276Y0569213D02*
X0383190Y0569213D01*
X0383190Y0569214D02*
X0383342Y0569212D01*
X0383494Y0569206D01*
X0383646Y0569196D01*
X0383797Y0569183D01*
X0383948Y0569165D01*
X0384099Y0569144D01*
X0384249Y0569118D01*
X0384398Y0569089D01*
X0384547Y0569056D01*
X0384694Y0569019D01*
X0384841Y0568979D01*
X0384986Y0568934D01*
X0385130Y0568886D01*
X0385273Y0568834D01*
X0385415Y0568779D01*
X0385555Y0568720D01*
X0385694Y0568657D01*
X0385831Y0568591D01*
X0385966Y0568521D01*
X0386099Y0568448D01*
X0386230Y0568371D01*
X0386360Y0568291D01*
X0386487Y0568208D01*
X0386612Y0568122D01*
X0386735Y0568032D01*
X0386855Y0567939D01*
X0386973Y0567843D01*
X0387089Y0567744D01*
X0387202Y0567642D01*
X0387312Y0567538D01*
X0387420Y0567430D01*
X0387524Y0567320D01*
X0387626Y0567207D01*
X0387725Y0567091D01*
X0387821Y0566973D01*
X0387914Y0566853D01*
X0388004Y0566730D01*
X0388090Y0566605D01*
X0388173Y0566478D01*
X0388253Y0566348D01*
X0388330Y0566217D01*
X0388403Y0566084D01*
X0388473Y0565949D01*
X0388539Y0565812D01*
X0388602Y0565673D01*
X0388661Y0565533D01*
X0388716Y0565391D01*
X0388768Y0565248D01*
X0388816Y0565104D01*
X0388861Y0564959D01*
X0388901Y0564812D01*
X0388938Y0564665D01*
X0388971Y0564516D01*
X0389000Y0564367D01*
X0389026Y0564217D01*
X0389047Y0564066D01*
X0389065Y0563915D01*
X0389078Y0563764D01*
X0389088Y0563612D01*
X0389094Y0563460D01*
X0389096Y0563308D01*
X0389095Y0563308D02*
X0389095Y0551497D01*
X0389096Y0551497D02*
X0389098Y0551435D01*
X0389104Y0551374D01*
X0389113Y0551313D01*
X0389127Y0551252D01*
X0389144Y0551193D01*
X0389165Y0551135D01*
X0389190Y0551078D01*
X0389218Y0551023D01*
X0389249Y0550970D01*
X0389284Y0550919D01*
X0389322Y0550870D01*
X0389363Y0550823D01*
X0389406Y0550780D01*
X0389453Y0550739D01*
X0389502Y0550701D01*
X0389553Y0550666D01*
X0389606Y0550635D01*
X0389661Y0550607D01*
X0389718Y0550582D01*
X0389776Y0550561D01*
X0389835Y0550544D01*
X0389896Y0550530D01*
X0389957Y0550521D01*
X0390018Y0550515D01*
X0390080Y0550513D01*
X0457993Y0550513D01*
X0458145Y0550511D01*
X0458297Y0550505D01*
X0458449Y0550495D01*
X0458600Y0550482D01*
X0458751Y0550464D01*
X0458902Y0550443D01*
X0459052Y0550417D01*
X0459201Y0550388D01*
X0459350Y0550355D01*
X0459497Y0550318D01*
X0459644Y0550278D01*
X0459789Y0550233D01*
X0459933Y0550185D01*
X0460076Y0550133D01*
X0460218Y0550078D01*
X0460358Y0550019D01*
X0460497Y0549956D01*
X0460634Y0549890D01*
X0460769Y0549820D01*
X0460902Y0549747D01*
X0461033Y0549670D01*
X0461163Y0549590D01*
X0461290Y0549507D01*
X0461415Y0549421D01*
X0461538Y0549331D01*
X0461658Y0549238D01*
X0461776Y0549142D01*
X0461892Y0549043D01*
X0462005Y0548941D01*
X0462115Y0548837D01*
X0462223Y0548729D01*
X0462327Y0548619D01*
X0462429Y0548506D01*
X0462528Y0548390D01*
X0462624Y0548272D01*
X0462717Y0548152D01*
X0462807Y0548029D01*
X0462893Y0547904D01*
X0462976Y0547777D01*
X0463056Y0547647D01*
X0463133Y0547516D01*
X0463206Y0547383D01*
X0463276Y0547248D01*
X0463342Y0547111D01*
X0463405Y0546972D01*
X0463464Y0546832D01*
X0463519Y0546690D01*
X0463571Y0546547D01*
X0463619Y0546403D01*
X0463664Y0546258D01*
X0463704Y0546111D01*
X0463741Y0545964D01*
X0463774Y0545815D01*
X0463803Y0545666D01*
X0463829Y0545516D01*
X0463850Y0545365D01*
X0463868Y0545214D01*
X0463881Y0545063D01*
X0463891Y0544911D01*
X0463897Y0544759D01*
X0463899Y0544607D01*
X0463898Y0544607D02*
X0463898Y0415670D01*
X0463899Y0415670D02*
X0463901Y0415608D01*
X0463907Y0415547D01*
X0463916Y0415486D01*
X0463930Y0415425D01*
X0463947Y0415366D01*
X0463968Y0415308D01*
X0463993Y0415251D01*
X0464021Y0415196D01*
X0464052Y0415143D01*
X0464087Y0415092D01*
X0464125Y0415043D01*
X0464166Y0414996D01*
X0464209Y0414953D01*
X0464256Y0414912D01*
X0464305Y0414874D01*
X0464356Y0414839D01*
X0464409Y0414808D01*
X0464464Y0414780D01*
X0464521Y0414755D01*
X0464579Y0414734D01*
X0464638Y0414717D01*
X0464699Y0414703D01*
X0464760Y0414694D01*
X0464821Y0414688D01*
X0464883Y0414686D01*
X0501300Y0414686D01*
X0501300Y0414685D02*
X0501700Y0414680D01*
X0502099Y0414666D01*
X0502498Y0414642D01*
X0502896Y0414608D01*
X0503293Y0414564D01*
X0503689Y0414511D01*
X0504084Y0414449D01*
X0504477Y0414377D01*
X0504868Y0414295D01*
X0505257Y0414205D01*
X0505644Y0414104D01*
X0506028Y0413995D01*
X0506410Y0413876D01*
X0506788Y0413748D01*
X0507163Y0413610D01*
X0507535Y0413464D01*
X0507903Y0413309D01*
X0508268Y0413145D01*
X0508628Y0412972D01*
X0508984Y0412791D01*
X0509336Y0412601D01*
X0509683Y0412403D01*
X0510025Y0412196D01*
X0510361Y0411981D01*
X0510693Y0411758D01*
X0511019Y0411527D01*
X0511339Y0411288D01*
X0511654Y0411042D01*
X0511962Y0410788D01*
X0512265Y0410527D01*
X0512561Y0410258D01*
X0512850Y0409982D01*
X0513132Y0409700D01*
X0513408Y0409411D01*
X0513677Y0409115D01*
X0513938Y0408812D01*
X0514192Y0408504D01*
X0514438Y0408189D01*
X0514677Y0407869D01*
X0514908Y0407543D01*
X0515131Y0407211D01*
X0515346Y0406875D01*
X0515553Y0406533D01*
X0515751Y0406186D01*
X0515941Y0405834D01*
X0516122Y0405478D01*
X0516295Y0405118D01*
X0516459Y0404753D01*
X0516614Y0404385D01*
X0516760Y0404013D01*
X0516898Y0403638D01*
X0517026Y0403260D01*
X0517145Y0402878D01*
X0517254Y0402494D01*
X0517355Y0402107D01*
X0517445Y0401718D01*
X0517527Y0401327D01*
X0517599Y0400934D01*
X0517661Y0400539D01*
X0517714Y0400143D01*
X0517758Y0399746D01*
X0517792Y0399348D01*
X0517816Y0398949D01*
X0517830Y0398550D01*
X0517835Y0398150D01*
X0517835Y0383190D01*
X0517836Y0383190D02*
X0517838Y0383128D01*
X0517844Y0383067D01*
X0517853Y0383006D01*
X0517867Y0382945D01*
X0517884Y0382886D01*
X0517905Y0382828D01*
X0517930Y0382771D01*
X0517958Y0382716D01*
X0517989Y0382663D01*
X0518024Y0382612D01*
X0518062Y0382563D01*
X0518103Y0382516D01*
X0518146Y0382473D01*
X0518193Y0382432D01*
X0518242Y0382394D01*
X0518293Y0382359D01*
X0518346Y0382328D01*
X0518401Y0382300D01*
X0518458Y0382275D01*
X0518516Y0382254D01*
X0518575Y0382237D01*
X0518636Y0382223D01*
X0518697Y0382214D01*
X0518758Y0382208D01*
X0518820Y0382206D01*
X0532796Y0382206D01*
X0532948Y0382204D01*
X0533100Y0382198D01*
X0533252Y0382188D01*
X0533403Y0382175D01*
X0533554Y0382157D01*
X0533705Y0382136D01*
X0533855Y0382110D01*
X0534004Y0382081D01*
X0534153Y0382048D01*
X0534300Y0382011D01*
X0534447Y0381971D01*
X0534592Y0381926D01*
X0534736Y0381878D01*
X0534879Y0381826D01*
X0535021Y0381771D01*
X0535161Y0381712D01*
X0535300Y0381649D01*
X0535437Y0381583D01*
X0535572Y0381513D01*
X0535705Y0381440D01*
X0535836Y0381363D01*
X0535966Y0381283D01*
X0536093Y0381200D01*
X0536218Y0381114D01*
X0536341Y0381024D01*
X0536461Y0380931D01*
X0536579Y0380835D01*
X0536695Y0380736D01*
X0536808Y0380634D01*
X0536918Y0380530D01*
X0537026Y0380422D01*
X0537130Y0380312D01*
X0537232Y0380199D01*
X0537331Y0380083D01*
X0537427Y0379965D01*
X0537520Y0379845D01*
X0537610Y0379722D01*
X0537696Y0379597D01*
X0537779Y0379470D01*
X0537859Y0379340D01*
X0537936Y0379209D01*
X0538009Y0379076D01*
X0538079Y0378941D01*
X0538145Y0378804D01*
X0538208Y0378665D01*
X0538267Y0378525D01*
X0538322Y0378383D01*
X0538374Y0378240D01*
X0538422Y0378096D01*
X0538467Y0377951D01*
X0538507Y0377804D01*
X0538544Y0377657D01*
X0538577Y0377508D01*
X0538606Y0377359D01*
X0538632Y0377209D01*
X0538653Y0377058D01*
X0538671Y0376907D01*
X0538684Y0376756D01*
X0538694Y0376604D01*
X0538700Y0376452D01*
X0538702Y0376300D01*
X0538702Y0074135D01*
X0538700Y0073983D01*
X0538694Y0073831D01*
X0538684Y0073679D01*
X0538671Y0073528D01*
X0538653Y0073377D01*
X0538632Y0073226D01*
X0538606Y0073076D01*
X0538577Y0072927D01*
X0538544Y0072778D01*
X0538507Y0072631D01*
X0538467Y0072484D01*
X0538422Y0072339D01*
X0538374Y0072195D01*
X0538322Y0072052D01*
X0538267Y0071910D01*
X0538208Y0071770D01*
X0538145Y0071631D01*
X0538079Y0071494D01*
X0538009Y0071359D01*
X0537936Y0071226D01*
X0537859Y0071095D01*
X0537779Y0070965D01*
X0537696Y0070838D01*
X0537610Y0070713D01*
X0537520Y0070590D01*
X0537427Y0070470D01*
X0537331Y0070352D01*
X0537232Y0070236D01*
X0537130Y0070123D01*
X0537026Y0070013D01*
X0536918Y0069905D01*
X0536808Y0069801D01*
X0536695Y0069699D01*
X0536579Y0069600D01*
X0536461Y0069504D01*
X0536341Y0069411D01*
X0536218Y0069321D01*
X0536093Y0069235D01*
X0535966Y0069152D01*
X0535836Y0069072D01*
X0535705Y0068995D01*
X0535572Y0068922D01*
X0535437Y0068852D01*
X0535300Y0068786D01*
X0535161Y0068723D01*
X0535021Y0068664D01*
X0534879Y0068609D01*
X0534736Y0068557D01*
X0534592Y0068509D01*
X0534447Y0068464D01*
X0534300Y0068424D01*
X0534153Y0068387D01*
X0534004Y0068354D01*
X0533855Y0068325D01*
X0533705Y0068299D01*
X0533554Y0068278D01*
X0533403Y0068260D01*
X0533252Y0068247D01*
X0533100Y0068237D01*
X0532948Y0068231D01*
X0532796Y0068229D01*
X0095788Y0068229D01*
X0095636Y0068231D01*
X0095484Y0068237D01*
X0095332Y0068247D01*
X0095181Y0068260D01*
X0095030Y0068278D01*
X0094879Y0068299D01*
X0094729Y0068325D01*
X0094580Y0068354D01*
X0094431Y0068387D01*
X0094284Y0068424D01*
X0094137Y0068464D01*
X0093992Y0068509D01*
X0093848Y0068557D01*
X0093705Y0068609D01*
X0093563Y0068664D01*
X0093423Y0068723D01*
X0093284Y0068786D01*
X0093147Y0068852D01*
X0093012Y0068922D01*
X0092879Y0068995D01*
X0092748Y0069072D01*
X0092618Y0069152D01*
X0092491Y0069235D01*
X0092366Y0069321D01*
X0092243Y0069411D01*
X0092123Y0069504D01*
X0092005Y0069600D01*
X0091889Y0069699D01*
X0091776Y0069801D01*
X0091666Y0069905D01*
X0091558Y0070013D01*
X0091454Y0070123D01*
X0091352Y0070236D01*
X0091253Y0070352D01*
X0091157Y0070470D01*
X0091064Y0070590D01*
X0090974Y0070713D01*
X0090888Y0070838D01*
X0090805Y0070965D01*
X0090725Y0071095D01*
X0090648Y0071226D01*
X0090575Y0071359D01*
X0090505Y0071494D01*
X0090439Y0071631D01*
X0090376Y0071770D01*
X0090317Y0071910D01*
X0090262Y0072052D01*
X0090210Y0072195D01*
X0090162Y0072339D01*
X0090117Y0072484D01*
X0090077Y0072631D01*
X0090040Y0072778D01*
X0090007Y0072927D01*
X0089978Y0073076D01*
X0089952Y0073226D01*
X0089931Y0073377D01*
X0089913Y0073528D01*
X0089900Y0073679D01*
X0089890Y0073831D01*
X0089884Y0073983D01*
X0089882Y0074135D01*
X0182402Y0081024D02*
X0182402Y0103072D01*
X0182403Y0081024D02*
X0182405Y0080962D01*
X0182411Y0080901D01*
X0182420Y0080840D01*
X0182434Y0080779D01*
X0182451Y0080720D01*
X0182472Y0080662D01*
X0182497Y0080605D01*
X0182525Y0080550D01*
X0182556Y0080497D01*
X0182591Y0080446D01*
X0182629Y0080397D01*
X0182670Y0080350D01*
X0182713Y0080307D01*
X0182760Y0080266D01*
X0182809Y0080228D01*
X0182860Y0080193D01*
X0182913Y0080162D01*
X0182968Y0080134D01*
X0183025Y0080109D01*
X0183083Y0080088D01*
X0183142Y0080071D01*
X0183203Y0080057D01*
X0183264Y0080048D01*
X0183325Y0080042D01*
X0183387Y0080040D01*
X0264095Y0080040D01*
X0264157Y0080042D01*
X0264218Y0080048D01*
X0264279Y0080057D01*
X0264340Y0080071D01*
X0264399Y0080088D01*
X0264457Y0080109D01*
X0264514Y0080134D01*
X0264569Y0080162D01*
X0264622Y0080193D01*
X0264673Y0080228D01*
X0264722Y0080266D01*
X0264769Y0080307D01*
X0264812Y0080350D01*
X0264853Y0080397D01*
X0264891Y0080446D01*
X0264926Y0080497D01*
X0264957Y0080550D01*
X0264985Y0080605D01*
X0265010Y0080662D01*
X0265031Y0080720D01*
X0265048Y0080779D01*
X0265062Y0080840D01*
X0265071Y0080901D01*
X0265077Y0080962D01*
X0265079Y0081024D01*
X0265080Y0081024D02*
X0265080Y0103072D01*
X0265079Y0103072D02*
X0266162Y0104096D01*
X0267219Y0105146D01*
X0268250Y0106222D01*
X0269255Y0107322D01*
X0270232Y0108447D01*
X0271182Y0109595D01*
X0272103Y0110767D01*
X0272995Y0111960D01*
X0273858Y0113175D01*
X0274691Y0114411D01*
X0275493Y0115666D01*
X0276265Y0116941D01*
X0277005Y0118235D01*
X0277713Y0119546D01*
X0278389Y0120874D01*
X0279033Y0122218D01*
X0279643Y0123577D01*
X0280220Y0124951D01*
X0280763Y0126339D01*
X0281272Y0127739D01*
X0281746Y0129152D01*
X0282186Y0130576D01*
X0282591Y0132010D01*
X0282961Y0133453D01*
X0283295Y0134905D01*
X0283594Y0136365D01*
X0283857Y0137832D01*
X0284084Y0139305D01*
X0284275Y0140783D01*
X0284430Y0142265D01*
X0284549Y0143750D01*
X0284631Y0145238D01*
X0284677Y0146727D01*
X0284686Y0148217D01*
X0284659Y0149707D01*
X0284595Y0151196D01*
X0284495Y0152683D01*
X0284359Y0154167D01*
X0284187Y0155647D01*
X0283978Y0157122D01*
X0283734Y0158592D01*
X0283453Y0160056D01*
X0283137Y0161512D01*
X0282785Y0162960D01*
X0282399Y0164399D01*
X0281977Y0165828D01*
X0281520Y0167247D01*
X0281028Y0168654D01*
X0280503Y0170048D01*
X0279943Y0171429D01*
X0279350Y0172796D01*
X0278724Y0174148D01*
X0278064Y0175484D01*
X0277373Y0176804D01*
X0276649Y0178107D01*
X0275893Y0179391D01*
X0275107Y0180657D01*
X0274290Y0181903D01*
X0273442Y0183129D01*
X0272565Y0184333D01*
X0271658Y0185516D01*
X0270723Y0186676D01*
X0269760Y0187813D01*
X0268769Y0188926D01*
X0267752Y0190015D01*
X0266708Y0191078D01*
X0265638Y0192116D01*
X0264544Y0193127D01*
X0263425Y0194111D01*
X0262282Y0195067D01*
X0261116Y0195995D01*
X0259928Y0196895D01*
X0258718Y0197765D01*
X0257488Y0198605D01*
X0256237Y0199415D01*
X0254967Y0200194D01*
X0253678Y0200942D01*
X0252371Y0201658D01*
X0251047Y0202342D01*
X0249707Y0202993D01*
X0248351Y0203611D01*
X0246980Y0204196D01*
X0245596Y0204748D01*
X0244198Y0205265D01*
X0242789Y0205748D01*
X0241368Y0206196D01*
X0239936Y0206610D01*
X0238495Y0206988D01*
X0237045Y0207331D01*
X0235587Y0207639D01*
X0234121Y0207910D01*
X0232650Y0208146D01*
X0231173Y0208346D01*
X0229692Y0208510D01*
X0228208Y0208637D01*
X0226720Y0208728D01*
X0225231Y0208783D01*
X0223741Y0208801D01*
X0222251Y0208783D01*
X0220762Y0208728D01*
X0219274Y0208637D01*
X0217790Y0208510D01*
X0216309Y0208346D01*
X0214832Y0208146D01*
X0213361Y0207910D01*
X0211895Y0207639D01*
X0210437Y0207331D01*
X0208987Y0206988D01*
X0207546Y0206610D01*
X0206114Y0206196D01*
X0204693Y0205748D01*
X0203284Y0205265D01*
X0201886Y0204748D01*
X0200502Y0204196D01*
X0199131Y0203611D01*
X0197775Y0202993D01*
X0196435Y0202342D01*
X0195111Y0201658D01*
X0193804Y0200942D01*
X0192515Y0200194D01*
X0191245Y0199415D01*
X0189994Y0198605D01*
X0188764Y0197765D01*
X0187554Y0196895D01*
X0186366Y0195995D01*
X0185200Y0195067D01*
X0184057Y0194111D01*
X0182938Y0193127D01*
X0181844Y0192116D01*
X0180774Y0191078D01*
X0179730Y0190015D01*
X0178713Y0188926D01*
X0177722Y0187813D01*
X0176759Y0186676D01*
X0175824Y0185516D01*
X0174917Y0184333D01*
X0174040Y0183129D01*
X0173192Y0181903D01*
X0172375Y0180657D01*
X0171589Y0179391D01*
X0170833Y0178107D01*
X0170109Y0176804D01*
X0169418Y0175484D01*
X0168758Y0174148D01*
X0168132Y0172796D01*
X0167539Y0171429D01*
X0166979Y0170048D01*
X0166454Y0168654D01*
X0165962Y0167247D01*
X0165505Y0165828D01*
X0165083Y0164399D01*
X0164697Y0162960D01*
X0164345Y0161512D01*
X0164029Y0160056D01*
X0163748Y0158592D01*
X0163504Y0157122D01*
X0163295Y0155647D01*
X0163123Y0154167D01*
X0162987Y0152683D01*
X0162887Y0151196D01*
X0162823Y0149707D01*
X0162796Y0148217D01*
X0162805Y0146727D01*
X0162851Y0145238D01*
X0162933Y0143750D01*
X0163052Y0142265D01*
X0163207Y0140783D01*
X0163398Y0139305D01*
X0163625Y0137832D01*
X0163888Y0136365D01*
X0164187Y0134905D01*
X0164521Y0133453D01*
X0164891Y0132010D01*
X0165296Y0130576D01*
X0165736Y0129152D01*
X0166210Y0127739D01*
X0166719Y0126339D01*
X0167262Y0124951D01*
X0167839Y0123577D01*
X0168449Y0122218D01*
X0169093Y0120874D01*
X0169769Y0119546D01*
X0170477Y0118235D01*
X0171217Y0116941D01*
X0171989Y0115666D01*
X0172791Y0114411D01*
X0173624Y0113175D01*
X0174487Y0111960D01*
X0175379Y0110767D01*
X0176300Y0109595D01*
X0177250Y0108447D01*
X0178227Y0107322D01*
X0179232Y0106222D01*
X0180263Y0105146D01*
X0181320Y0104096D01*
X0182403Y0103072D01*
D11*
X0253859Y0291457D03*
X0258190Y0291457D03*
X0262520Y0291457D03*
X0266851Y0291457D03*
X0271182Y0291457D03*
X0275513Y0291457D03*
X0279843Y0291457D03*
X0284174Y0291457D03*
X0288505Y0291457D03*
X0292835Y0291457D03*
X0297166Y0291457D03*
X0301497Y0291457D03*
D12*
X0311143Y0279056D03*
X0311143Y0274725D03*
X0311143Y0270394D03*
X0311143Y0266064D03*
X0311143Y0261733D03*
X0311143Y0257402D03*
X0311143Y0253072D03*
X0311143Y0248741D03*
X0311143Y0244410D03*
X0311143Y0240080D03*
X0311143Y0235749D03*
X0311143Y0231418D03*
X0244213Y0231418D03*
X0244213Y0235749D03*
X0244213Y0240080D03*
X0244213Y0244410D03*
X0244213Y0248741D03*
X0244213Y0253072D03*
X0244213Y0257402D03*
X0244213Y0261733D03*
X0244213Y0266064D03*
X0244213Y0270394D03*
X0244213Y0274725D03*
X0244213Y0279056D03*
D13*
X0495394Y0395001D03*
X0495394Y0401300D03*
X0507206Y0401300D03*
X0507206Y0395001D03*
D14*
X0331024Y0142639D03*
X0323544Y0142639D03*
X0323544Y0131615D03*
X0327284Y0131615D03*
X0331024Y0131615D03*
D15*
X0299725Y0137520D03*
X0299725Y0148544D03*
D16*
X0469410Y0389883D03*
X0480434Y0389883D03*
X0480434Y0404450D03*
X0469410Y0404450D03*
D17*
X0504056Y0213111D03*
X0504056Y0200119D03*
X0299725Y0127087D03*
X0299725Y0114095D03*
M02*
