G75*
%MOIN*%
%OFA0B0*%
%FSLAX25Y25*%
%IPPOS*%
%LPD*%
%AMOC8*
5,1,8,0,0,1.08239X$1,22.5*
%
%ADD10C,0.00600*%
%ADD11C,0.00400*%
%ADD12C,0.00300*%
%ADD13C,0.00200*%
%ADD14C,0.00500*%
%ADD15C,0.00787*%
D10*
X0089883Y0074135D02*
X0089883Y0544607D01*
X0089882Y0544607D02*
X0089884Y0544759D01*
X0089890Y0544911D01*
X0089900Y0545063D01*
X0089913Y0545214D01*
X0089931Y0545365D01*
X0089952Y0545516D01*
X0089978Y0545666D01*
X0090007Y0545815D01*
X0090040Y0545964D01*
X0090077Y0546111D01*
X0090117Y0546258D01*
X0090162Y0546403D01*
X0090210Y0546547D01*
X0090262Y0546690D01*
X0090317Y0546832D01*
X0090376Y0546972D01*
X0090439Y0547111D01*
X0090505Y0547248D01*
X0090575Y0547383D01*
X0090648Y0547516D01*
X0090725Y0547647D01*
X0090805Y0547777D01*
X0090888Y0547904D01*
X0090974Y0548029D01*
X0091064Y0548152D01*
X0091157Y0548272D01*
X0091253Y0548390D01*
X0091352Y0548506D01*
X0091454Y0548619D01*
X0091558Y0548729D01*
X0091666Y0548837D01*
X0091776Y0548941D01*
X0091889Y0549043D01*
X0092005Y0549142D01*
X0092123Y0549238D01*
X0092243Y0549331D01*
X0092366Y0549421D01*
X0092491Y0549507D01*
X0092618Y0549590D01*
X0092748Y0549670D01*
X0092879Y0549747D01*
X0093012Y0549820D01*
X0093147Y0549890D01*
X0093284Y0549956D01*
X0093423Y0550019D01*
X0093563Y0550078D01*
X0093705Y0550133D01*
X0093848Y0550185D01*
X0093992Y0550233D01*
X0094137Y0550278D01*
X0094284Y0550318D01*
X0094431Y0550355D01*
X0094580Y0550388D01*
X0094729Y0550417D01*
X0094879Y0550443D01*
X0095030Y0550464D01*
X0095181Y0550482D01*
X0095332Y0550495D01*
X0095484Y0550505D01*
X0095636Y0550511D01*
X0095788Y0550513D01*
X0163702Y0550513D01*
X0163764Y0550515D01*
X0163825Y0550521D01*
X0163886Y0550530D01*
X0163947Y0550544D01*
X0164006Y0550561D01*
X0164064Y0550582D01*
X0164121Y0550607D01*
X0164176Y0550635D01*
X0164229Y0550666D01*
X0164280Y0550701D01*
X0164329Y0550739D01*
X0164376Y0550780D01*
X0164419Y0550823D01*
X0164460Y0550870D01*
X0164498Y0550919D01*
X0164533Y0550970D01*
X0164564Y0551023D01*
X0164592Y0551078D01*
X0164617Y0551135D01*
X0164638Y0551193D01*
X0164655Y0551252D01*
X0164669Y0551313D01*
X0164678Y0551374D01*
X0164684Y0551435D01*
X0164686Y0551497D01*
X0164686Y0563308D01*
X0164685Y0563308D02*
X0164687Y0563460D01*
X0164693Y0563612D01*
X0164703Y0563764D01*
X0164716Y0563915D01*
X0164734Y0564066D01*
X0164755Y0564217D01*
X0164781Y0564367D01*
X0164810Y0564516D01*
X0164843Y0564665D01*
X0164880Y0564812D01*
X0164920Y0564959D01*
X0164965Y0565104D01*
X0165013Y0565248D01*
X0165065Y0565391D01*
X0165120Y0565533D01*
X0165179Y0565673D01*
X0165242Y0565812D01*
X0165308Y0565949D01*
X0165378Y0566084D01*
X0165451Y0566217D01*
X0165528Y0566348D01*
X0165608Y0566478D01*
X0165691Y0566605D01*
X0165777Y0566730D01*
X0165867Y0566853D01*
X0165960Y0566973D01*
X0166056Y0567091D01*
X0166155Y0567207D01*
X0166257Y0567320D01*
X0166361Y0567430D01*
X0166469Y0567538D01*
X0166579Y0567642D01*
X0166692Y0567744D01*
X0166808Y0567843D01*
X0166926Y0567939D01*
X0167046Y0568032D01*
X0167169Y0568122D01*
X0167294Y0568208D01*
X0167421Y0568291D01*
X0167551Y0568371D01*
X0167682Y0568448D01*
X0167815Y0568521D01*
X0167950Y0568591D01*
X0168087Y0568657D01*
X0168226Y0568720D01*
X0168366Y0568779D01*
X0168508Y0568834D01*
X0168651Y0568886D01*
X0168795Y0568934D01*
X0168940Y0568979D01*
X0169087Y0569019D01*
X0169234Y0569056D01*
X0169383Y0569089D01*
X0169532Y0569118D01*
X0169682Y0569144D01*
X0169833Y0569165D01*
X0169984Y0569183D01*
X0170135Y0569196D01*
X0170287Y0569206D01*
X0170439Y0569212D01*
X0170591Y0569214D01*
X0170591Y0569213D02*
X0238505Y0569213D01*
X0238505Y0569214D02*
X0238567Y0569216D01*
X0238628Y0569222D01*
X0238689Y0569231D01*
X0238750Y0569245D01*
X0238809Y0569262D01*
X0238867Y0569283D01*
X0238924Y0569308D01*
X0238979Y0569336D01*
X0239032Y0569367D01*
X0239083Y0569402D01*
X0239132Y0569440D01*
X0239179Y0569481D01*
X0239222Y0569524D01*
X0239263Y0569571D01*
X0239301Y0569620D01*
X0239336Y0569671D01*
X0239367Y0569724D01*
X0239395Y0569779D01*
X0239420Y0569836D01*
X0239441Y0569894D01*
X0239458Y0569953D01*
X0239472Y0570014D01*
X0239481Y0570075D01*
X0239487Y0570136D01*
X0239489Y0570198D01*
X0239489Y0582009D01*
X0239488Y0582009D02*
X0239490Y0582161D01*
X0239496Y0582313D01*
X0239506Y0582465D01*
X0239519Y0582616D01*
X0239537Y0582767D01*
X0239558Y0582918D01*
X0239584Y0583068D01*
X0239613Y0583217D01*
X0239646Y0583366D01*
X0239683Y0583513D01*
X0239723Y0583660D01*
X0239768Y0583805D01*
X0239816Y0583949D01*
X0239868Y0584092D01*
X0239923Y0584234D01*
X0239982Y0584374D01*
X0240045Y0584513D01*
X0240111Y0584650D01*
X0240181Y0584785D01*
X0240254Y0584918D01*
X0240331Y0585049D01*
X0240411Y0585179D01*
X0240494Y0585306D01*
X0240580Y0585431D01*
X0240670Y0585554D01*
X0240763Y0585674D01*
X0240859Y0585792D01*
X0240958Y0585908D01*
X0241060Y0586021D01*
X0241164Y0586131D01*
X0241272Y0586239D01*
X0241382Y0586343D01*
X0241495Y0586445D01*
X0241611Y0586544D01*
X0241729Y0586640D01*
X0241849Y0586733D01*
X0241972Y0586823D01*
X0242097Y0586909D01*
X0242224Y0586992D01*
X0242354Y0587072D01*
X0242485Y0587149D01*
X0242618Y0587222D01*
X0242753Y0587292D01*
X0242890Y0587358D01*
X0243029Y0587421D01*
X0243169Y0587480D01*
X0243311Y0587535D01*
X0243454Y0587587D01*
X0243598Y0587635D01*
X0243743Y0587680D01*
X0243890Y0587720D01*
X0244037Y0587757D01*
X0244186Y0587790D01*
X0244335Y0587819D01*
X0244485Y0587845D01*
X0244636Y0587866D01*
X0244787Y0587884D01*
X0244938Y0587897D01*
X0245090Y0587907D01*
X0245242Y0587913D01*
X0245394Y0587915D01*
X0245394Y0587914D02*
X0308387Y0587914D01*
X0308387Y0587915D02*
X0308539Y0587913D01*
X0308691Y0587907D01*
X0308843Y0587897D01*
X0308994Y0587884D01*
X0309145Y0587866D01*
X0309296Y0587845D01*
X0309446Y0587819D01*
X0309595Y0587790D01*
X0309744Y0587757D01*
X0309891Y0587720D01*
X0310038Y0587680D01*
X0310183Y0587635D01*
X0310327Y0587587D01*
X0310470Y0587535D01*
X0310612Y0587480D01*
X0310752Y0587421D01*
X0310891Y0587358D01*
X0311028Y0587292D01*
X0311163Y0587222D01*
X0311296Y0587149D01*
X0311427Y0587072D01*
X0311557Y0586992D01*
X0311684Y0586909D01*
X0311809Y0586823D01*
X0311932Y0586733D01*
X0312052Y0586640D01*
X0312170Y0586544D01*
X0312286Y0586445D01*
X0312399Y0586343D01*
X0312509Y0586239D01*
X0312617Y0586131D01*
X0312721Y0586021D01*
X0312823Y0585908D01*
X0312922Y0585792D01*
X0313018Y0585674D01*
X0313111Y0585554D01*
X0313201Y0585431D01*
X0313287Y0585306D01*
X0313370Y0585179D01*
X0313450Y0585049D01*
X0313527Y0584918D01*
X0313600Y0584785D01*
X0313670Y0584650D01*
X0313736Y0584513D01*
X0313799Y0584374D01*
X0313858Y0584234D01*
X0313913Y0584092D01*
X0313965Y0583949D01*
X0314013Y0583805D01*
X0314058Y0583660D01*
X0314098Y0583513D01*
X0314135Y0583366D01*
X0314168Y0583217D01*
X0314197Y0583068D01*
X0314223Y0582918D01*
X0314244Y0582767D01*
X0314262Y0582616D01*
X0314275Y0582465D01*
X0314285Y0582313D01*
X0314291Y0582161D01*
X0314293Y0582009D01*
X0314292Y0582009D02*
X0314292Y0570198D01*
X0314294Y0570136D01*
X0314300Y0570075D01*
X0314309Y0570014D01*
X0314323Y0569953D01*
X0314340Y0569894D01*
X0314361Y0569836D01*
X0314386Y0569779D01*
X0314414Y0569724D01*
X0314445Y0569671D01*
X0314480Y0569620D01*
X0314518Y0569571D01*
X0314559Y0569524D01*
X0314602Y0569481D01*
X0314649Y0569440D01*
X0314698Y0569402D01*
X0314749Y0569367D01*
X0314802Y0569336D01*
X0314857Y0569308D01*
X0314914Y0569283D01*
X0314972Y0569262D01*
X0315031Y0569245D01*
X0315092Y0569231D01*
X0315153Y0569222D01*
X0315214Y0569216D01*
X0315276Y0569214D01*
X0315276Y0569213D02*
X0383190Y0569213D01*
X0383190Y0569214D02*
X0383342Y0569212D01*
X0383494Y0569206D01*
X0383646Y0569196D01*
X0383797Y0569183D01*
X0383948Y0569165D01*
X0384099Y0569144D01*
X0384249Y0569118D01*
X0384398Y0569089D01*
X0384547Y0569056D01*
X0384694Y0569019D01*
X0384841Y0568979D01*
X0384986Y0568934D01*
X0385130Y0568886D01*
X0385273Y0568834D01*
X0385415Y0568779D01*
X0385555Y0568720D01*
X0385694Y0568657D01*
X0385831Y0568591D01*
X0385966Y0568521D01*
X0386099Y0568448D01*
X0386230Y0568371D01*
X0386360Y0568291D01*
X0386487Y0568208D01*
X0386612Y0568122D01*
X0386735Y0568032D01*
X0386855Y0567939D01*
X0386973Y0567843D01*
X0387089Y0567744D01*
X0387202Y0567642D01*
X0387312Y0567538D01*
X0387420Y0567430D01*
X0387524Y0567320D01*
X0387626Y0567207D01*
X0387725Y0567091D01*
X0387821Y0566973D01*
X0387914Y0566853D01*
X0388004Y0566730D01*
X0388090Y0566605D01*
X0388173Y0566478D01*
X0388253Y0566348D01*
X0388330Y0566217D01*
X0388403Y0566084D01*
X0388473Y0565949D01*
X0388539Y0565812D01*
X0388602Y0565673D01*
X0388661Y0565533D01*
X0388716Y0565391D01*
X0388768Y0565248D01*
X0388816Y0565104D01*
X0388861Y0564959D01*
X0388901Y0564812D01*
X0388938Y0564665D01*
X0388971Y0564516D01*
X0389000Y0564367D01*
X0389026Y0564217D01*
X0389047Y0564066D01*
X0389065Y0563915D01*
X0389078Y0563764D01*
X0389088Y0563612D01*
X0389094Y0563460D01*
X0389096Y0563308D01*
X0389095Y0563308D02*
X0389095Y0551497D01*
X0389096Y0551497D02*
X0389098Y0551435D01*
X0389104Y0551374D01*
X0389113Y0551313D01*
X0389127Y0551252D01*
X0389144Y0551193D01*
X0389165Y0551135D01*
X0389190Y0551078D01*
X0389218Y0551023D01*
X0389249Y0550970D01*
X0389284Y0550919D01*
X0389322Y0550870D01*
X0389363Y0550823D01*
X0389406Y0550780D01*
X0389453Y0550739D01*
X0389502Y0550701D01*
X0389553Y0550666D01*
X0389606Y0550635D01*
X0389661Y0550607D01*
X0389718Y0550582D01*
X0389776Y0550561D01*
X0389835Y0550544D01*
X0389896Y0550530D01*
X0389957Y0550521D01*
X0390018Y0550515D01*
X0390080Y0550513D01*
X0457993Y0550513D01*
X0458145Y0550511D01*
X0458297Y0550505D01*
X0458449Y0550495D01*
X0458600Y0550482D01*
X0458751Y0550464D01*
X0458902Y0550443D01*
X0459052Y0550417D01*
X0459201Y0550388D01*
X0459350Y0550355D01*
X0459497Y0550318D01*
X0459644Y0550278D01*
X0459789Y0550233D01*
X0459933Y0550185D01*
X0460076Y0550133D01*
X0460218Y0550078D01*
X0460358Y0550019D01*
X0460497Y0549956D01*
X0460634Y0549890D01*
X0460769Y0549820D01*
X0460902Y0549747D01*
X0461033Y0549670D01*
X0461163Y0549590D01*
X0461290Y0549507D01*
X0461415Y0549421D01*
X0461538Y0549331D01*
X0461658Y0549238D01*
X0461776Y0549142D01*
X0461892Y0549043D01*
X0462005Y0548941D01*
X0462115Y0548837D01*
X0462223Y0548729D01*
X0462327Y0548619D01*
X0462429Y0548506D01*
X0462528Y0548390D01*
X0462624Y0548272D01*
X0462717Y0548152D01*
X0462807Y0548029D01*
X0462893Y0547904D01*
X0462976Y0547777D01*
X0463056Y0547647D01*
X0463133Y0547516D01*
X0463206Y0547383D01*
X0463276Y0547248D01*
X0463342Y0547111D01*
X0463405Y0546972D01*
X0463464Y0546832D01*
X0463519Y0546690D01*
X0463571Y0546547D01*
X0463619Y0546403D01*
X0463664Y0546258D01*
X0463704Y0546111D01*
X0463741Y0545964D01*
X0463774Y0545815D01*
X0463803Y0545666D01*
X0463829Y0545516D01*
X0463850Y0545365D01*
X0463868Y0545214D01*
X0463881Y0545063D01*
X0463891Y0544911D01*
X0463897Y0544759D01*
X0463899Y0544607D01*
X0463898Y0544607D02*
X0463898Y0415670D01*
X0463899Y0415670D02*
X0463901Y0415608D01*
X0463907Y0415547D01*
X0463916Y0415486D01*
X0463930Y0415425D01*
X0463947Y0415366D01*
X0463968Y0415308D01*
X0463993Y0415251D01*
X0464021Y0415196D01*
X0464052Y0415143D01*
X0464087Y0415092D01*
X0464125Y0415043D01*
X0464166Y0414996D01*
X0464209Y0414953D01*
X0464256Y0414912D01*
X0464305Y0414874D01*
X0464356Y0414839D01*
X0464409Y0414808D01*
X0464464Y0414780D01*
X0464521Y0414755D01*
X0464579Y0414734D01*
X0464638Y0414717D01*
X0464699Y0414703D01*
X0464760Y0414694D01*
X0464821Y0414688D01*
X0464883Y0414686D01*
X0501300Y0414686D01*
X0501300Y0414685D02*
X0501700Y0414680D01*
X0502099Y0414666D01*
X0502498Y0414642D01*
X0502896Y0414608D01*
X0503293Y0414564D01*
X0503689Y0414511D01*
X0504084Y0414449D01*
X0504477Y0414377D01*
X0504868Y0414295D01*
X0505257Y0414205D01*
X0505644Y0414104D01*
X0506028Y0413995D01*
X0506410Y0413876D01*
X0506788Y0413748D01*
X0507163Y0413610D01*
X0507535Y0413464D01*
X0507903Y0413309D01*
X0508268Y0413145D01*
X0508628Y0412972D01*
X0508984Y0412791D01*
X0509336Y0412601D01*
X0509683Y0412403D01*
X0510025Y0412196D01*
X0510361Y0411981D01*
X0510693Y0411758D01*
X0511019Y0411527D01*
X0511339Y0411288D01*
X0511654Y0411042D01*
X0511962Y0410788D01*
X0512265Y0410527D01*
X0512561Y0410258D01*
X0512850Y0409982D01*
X0513132Y0409700D01*
X0513408Y0409411D01*
X0513677Y0409115D01*
X0513938Y0408812D01*
X0514192Y0408504D01*
X0514438Y0408189D01*
X0514677Y0407869D01*
X0514908Y0407543D01*
X0515131Y0407211D01*
X0515346Y0406875D01*
X0515553Y0406533D01*
X0515751Y0406186D01*
X0515941Y0405834D01*
X0516122Y0405478D01*
X0516295Y0405118D01*
X0516459Y0404753D01*
X0516614Y0404385D01*
X0516760Y0404013D01*
X0516898Y0403638D01*
X0517026Y0403260D01*
X0517145Y0402878D01*
X0517254Y0402494D01*
X0517355Y0402107D01*
X0517445Y0401718D01*
X0517527Y0401327D01*
X0517599Y0400934D01*
X0517661Y0400539D01*
X0517714Y0400143D01*
X0517758Y0399746D01*
X0517792Y0399348D01*
X0517816Y0398949D01*
X0517830Y0398550D01*
X0517835Y0398150D01*
X0517835Y0383190D01*
X0517836Y0383190D02*
X0517838Y0383128D01*
X0517844Y0383067D01*
X0517853Y0383006D01*
X0517867Y0382945D01*
X0517884Y0382886D01*
X0517905Y0382828D01*
X0517930Y0382771D01*
X0517958Y0382716D01*
X0517989Y0382663D01*
X0518024Y0382612D01*
X0518062Y0382563D01*
X0518103Y0382516D01*
X0518146Y0382473D01*
X0518193Y0382432D01*
X0518242Y0382394D01*
X0518293Y0382359D01*
X0518346Y0382328D01*
X0518401Y0382300D01*
X0518458Y0382275D01*
X0518516Y0382254D01*
X0518575Y0382237D01*
X0518636Y0382223D01*
X0518697Y0382214D01*
X0518758Y0382208D01*
X0518820Y0382206D01*
X0532796Y0382206D01*
X0532948Y0382204D01*
X0533100Y0382198D01*
X0533252Y0382188D01*
X0533403Y0382175D01*
X0533554Y0382157D01*
X0533705Y0382136D01*
X0533855Y0382110D01*
X0534004Y0382081D01*
X0534153Y0382048D01*
X0534300Y0382011D01*
X0534447Y0381971D01*
X0534592Y0381926D01*
X0534736Y0381878D01*
X0534879Y0381826D01*
X0535021Y0381771D01*
X0535161Y0381712D01*
X0535300Y0381649D01*
X0535437Y0381583D01*
X0535572Y0381513D01*
X0535705Y0381440D01*
X0535836Y0381363D01*
X0535966Y0381283D01*
X0536093Y0381200D01*
X0536218Y0381114D01*
X0536341Y0381024D01*
X0536461Y0380931D01*
X0536579Y0380835D01*
X0536695Y0380736D01*
X0536808Y0380634D01*
X0536918Y0380530D01*
X0537026Y0380422D01*
X0537130Y0380312D01*
X0537232Y0380199D01*
X0537331Y0380083D01*
X0537427Y0379965D01*
X0537520Y0379845D01*
X0537610Y0379722D01*
X0537696Y0379597D01*
X0537779Y0379470D01*
X0537859Y0379340D01*
X0537936Y0379209D01*
X0538009Y0379076D01*
X0538079Y0378941D01*
X0538145Y0378804D01*
X0538208Y0378665D01*
X0538267Y0378525D01*
X0538322Y0378383D01*
X0538374Y0378240D01*
X0538422Y0378096D01*
X0538467Y0377951D01*
X0538507Y0377804D01*
X0538544Y0377657D01*
X0538577Y0377508D01*
X0538606Y0377359D01*
X0538632Y0377209D01*
X0538653Y0377058D01*
X0538671Y0376907D01*
X0538684Y0376756D01*
X0538694Y0376604D01*
X0538700Y0376452D01*
X0538702Y0376300D01*
X0538702Y0074135D01*
X0538700Y0073983D01*
X0538694Y0073831D01*
X0538684Y0073679D01*
X0538671Y0073528D01*
X0538653Y0073377D01*
X0538632Y0073226D01*
X0538606Y0073076D01*
X0538577Y0072927D01*
X0538544Y0072778D01*
X0538507Y0072631D01*
X0538467Y0072484D01*
X0538422Y0072339D01*
X0538374Y0072195D01*
X0538322Y0072052D01*
X0538267Y0071910D01*
X0538208Y0071770D01*
X0538145Y0071631D01*
X0538079Y0071494D01*
X0538009Y0071359D01*
X0537936Y0071226D01*
X0537859Y0071095D01*
X0537779Y0070965D01*
X0537696Y0070838D01*
X0537610Y0070713D01*
X0537520Y0070590D01*
X0537427Y0070470D01*
X0537331Y0070352D01*
X0537232Y0070236D01*
X0537130Y0070123D01*
X0537026Y0070013D01*
X0536918Y0069905D01*
X0536808Y0069801D01*
X0536695Y0069699D01*
X0536579Y0069600D01*
X0536461Y0069504D01*
X0536341Y0069411D01*
X0536218Y0069321D01*
X0536093Y0069235D01*
X0535966Y0069152D01*
X0535836Y0069072D01*
X0535705Y0068995D01*
X0535572Y0068922D01*
X0535437Y0068852D01*
X0535300Y0068786D01*
X0535161Y0068723D01*
X0535021Y0068664D01*
X0534879Y0068609D01*
X0534736Y0068557D01*
X0534592Y0068509D01*
X0534447Y0068464D01*
X0534300Y0068424D01*
X0534153Y0068387D01*
X0534004Y0068354D01*
X0533855Y0068325D01*
X0533705Y0068299D01*
X0533554Y0068278D01*
X0533403Y0068260D01*
X0533252Y0068247D01*
X0533100Y0068237D01*
X0532948Y0068231D01*
X0532796Y0068229D01*
X0095788Y0068229D01*
X0095636Y0068231D01*
X0095484Y0068237D01*
X0095332Y0068247D01*
X0095181Y0068260D01*
X0095030Y0068278D01*
X0094879Y0068299D01*
X0094729Y0068325D01*
X0094580Y0068354D01*
X0094431Y0068387D01*
X0094284Y0068424D01*
X0094137Y0068464D01*
X0093992Y0068509D01*
X0093848Y0068557D01*
X0093705Y0068609D01*
X0093563Y0068664D01*
X0093423Y0068723D01*
X0093284Y0068786D01*
X0093147Y0068852D01*
X0093012Y0068922D01*
X0092879Y0068995D01*
X0092748Y0069072D01*
X0092618Y0069152D01*
X0092491Y0069235D01*
X0092366Y0069321D01*
X0092243Y0069411D01*
X0092123Y0069504D01*
X0092005Y0069600D01*
X0091889Y0069699D01*
X0091776Y0069801D01*
X0091666Y0069905D01*
X0091558Y0070013D01*
X0091454Y0070123D01*
X0091352Y0070236D01*
X0091253Y0070352D01*
X0091157Y0070470D01*
X0091064Y0070590D01*
X0090974Y0070713D01*
X0090888Y0070838D01*
X0090805Y0070965D01*
X0090725Y0071095D01*
X0090648Y0071226D01*
X0090575Y0071359D01*
X0090505Y0071494D01*
X0090439Y0071631D01*
X0090376Y0071770D01*
X0090317Y0071910D01*
X0090262Y0072052D01*
X0090210Y0072195D01*
X0090162Y0072339D01*
X0090117Y0072484D01*
X0090077Y0072631D01*
X0090040Y0072778D01*
X0090007Y0072927D01*
X0089978Y0073076D01*
X0089952Y0073226D01*
X0089931Y0073377D01*
X0089913Y0073528D01*
X0089900Y0073679D01*
X0089890Y0073831D01*
X0089884Y0073983D01*
X0089882Y0074135D01*
X0182402Y0081024D02*
X0182402Y0103072D01*
X0182403Y0081024D02*
X0182405Y0080962D01*
X0182411Y0080901D01*
X0182420Y0080840D01*
X0182434Y0080779D01*
X0182451Y0080720D01*
X0182472Y0080662D01*
X0182497Y0080605D01*
X0182525Y0080550D01*
X0182556Y0080497D01*
X0182591Y0080446D01*
X0182629Y0080397D01*
X0182670Y0080350D01*
X0182713Y0080307D01*
X0182760Y0080266D01*
X0182809Y0080228D01*
X0182860Y0080193D01*
X0182913Y0080162D01*
X0182968Y0080134D01*
X0183025Y0080109D01*
X0183083Y0080088D01*
X0183142Y0080071D01*
X0183203Y0080057D01*
X0183264Y0080048D01*
X0183325Y0080042D01*
X0183387Y0080040D01*
X0264095Y0080040D01*
X0264157Y0080042D01*
X0264218Y0080048D01*
X0264279Y0080057D01*
X0264340Y0080071D01*
X0264399Y0080088D01*
X0264457Y0080109D01*
X0264514Y0080134D01*
X0264569Y0080162D01*
X0264622Y0080193D01*
X0264673Y0080228D01*
X0264722Y0080266D01*
X0264769Y0080307D01*
X0264812Y0080350D01*
X0264853Y0080397D01*
X0264891Y0080446D01*
X0264926Y0080497D01*
X0264957Y0080550D01*
X0264985Y0080605D01*
X0265010Y0080662D01*
X0265031Y0080720D01*
X0265048Y0080779D01*
X0265062Y0080840D01*
X0265071Y0080901D01*
X0265077Y0080962D01*
X0265079Y0081024D01*
X0265080Y0081024D02*
X0265080Y0103072D01*
X0265079Y0103072D02*
X0266162Y0104096D01*
X0267219Y0105146D01*
X0268250Y0106222D01*
X0269255Y0107322D01*
X0270232Y0108447D01*
X0271182Y0109595D01*
X0272103Y0110767D01*
X0272995Y0111960D01*
X0273858Y0113175D01*
X0274691Y0114411D01*
X0275493Y0115666D01*
X0276265Y0116941D01*
X0277005Y0118235D01*
X0277713Y0119546D01*
X0278389Y0120874D01*
X0279033Y0122218D01*
X0279643Y0123577D01*
X0280220Y0124951D01*
X0280763Y0126339D01*
X0281272Y0127739D01*
X0281746Y0129152D01*
X0282186Y0130576D01*
X0282591Y0132010D01*
X0282961Y0133453D01*
X0283295Y0134905D01*
X0283594Y0136365D01*
X0283857Y0137832D01*
X0284084Y0139305D01*
X0284275Y0140783D01*
X0284430Y0142265D01*
X0284549Y0143750D01*
X0284631Y0145238D01*
X0284677Y0146727D01*
X0284686Y0148217D01*
X0284659Y0149707D01*
X0284595Y0151196D01*
X0284495Y0152683D01*
X0284359Y0154167D01*
X0284187Y0155647D01*
X0283978Y0157122D01*
X0283734Y0158592D01*
X0283453Y0160056D01*
X0283137Y0161512D01*
X0282785Y0162960D01*
X0282399Y0164399D01*
X0281977Y0165828D01*
X0281520Y0167247D01*
X0281028Y0168654D01*
X0280503Y0170048D01*
X0279943Y0171429D01*
X0279350Y0172796D01*
X0278724Y0174148D01*
X0278064Y0175484D01*
X0277373Y0176804D01*
X0276649Y0178107D01*
X0275893Y0179391D01*
X0275107Y0180657D01*
X0274290Y0181903D01*
X0273442Y0183129D01*
X0272565Y0184333D01*
X0271658Y0185516D01*
X0270723Y0186676D01*
X0269760Y0187813D01*
X0268769Y0188926D01*
X0267752Y0190015D01*
X0266708Y0191078D01*
X0265638Y0192116D01*
X0264544Y0193127D01*
X0263425Y0194111D01*
X0262282Y0195067D01*
X0261116Y0195995D01*
X0259928Y0196895D01*
X0258718Y0197765D01*
X0257488Y0198605D01*
X0256237Y0199415D01*
X0254967Y0200194D01*
X0253678Y0200942D01*
X0252371Y0201658D01*
X0251047Y0202342D01*
X0249707Y0202993D01*
X0248351Y0203611D01*
X0246980Y0204196D01*
X0245596Y0204748D01*
X0244198Y0205265D01*
X0242789Y0205748D01*
X0241368Y0206196D01*
X0239936Y0206610D01*
X0238495Y0206988D01*
X0237045Y0207331D01*
X0235587Y0207639D01*
X0234121Y0207910D01*
X0232650Y0208146D01*
X0231173Y0208346D01*
X0229692Y0208510D01*
X0228208Y0208637D01*
X0226720Y0208728D01*
X0225231Y0208783D01*
X0223741Y0208801D01*
X0222251Y0208783D01*
X0220762Y0208728D01*
X0219274Y0208637D01*
X0217790Y0208510D01*
X0216309Y0208346D01*
X0214832Y0208146D01*
X0213361Y0207910D01*
X0211895Y0207639D01*
X0210437Y0207331D01*
X0208987Y0206988D01*
X0207546Y0206610D01*
X0206114Y0206196D01*
X0204693Y0205748D01*
X0203284Y0205265D01*
X0201886Y0204748D01*
X0200502Y0204196D01*
X0199131Y0203611D01*
X0197775Y0202993D01*
X0196435Y0202342D01*
X0195111Y0201658D01*
X0193804Y0200942D01*
X0192515Y0200194D01*
X0191245Y0199415D01*
X0189994Y0198605D01*
X0188764Y0197765D01*
X0187554Y0196895D01*
X0186366Y0195995D01*
X0185200Y0195067D01*
X0184057Y0194111D01*
X0182938Y0193127D01*
X0181844Y0192116D01*
X0180774Y0191078D01*
X0179730Y0190015D01*
X0178713Y0188926D01*
X0177722Y0187813D01*
X0176759Y0186676D01*
X0175824Y0185516D01*
X0174917Y0184333D01*
X0174040Y0183129D01*
X0173192Y0181903D01*
X0172375Y0180657D01*
X0171589Y0179391D01*
X0170833Y0178107D01*
X0170109Y0176804D01*
X0169418Y0175484D01*
X0168758Y0174148D01*
X0168132Y0172796D01*
X0167539Y0171429D01*
X0166979Y0170048D01*
X0166454Y0168654D01*
X0165962Y0167247D01*
X0165505Y0165828D01*
X0165083Y0164399D01*
X0164697Y0162960D01*
X0164345Y0161512D01*
X0164029Y0160056D01*
X0163748Y0158592D01*
X0163504Y0157122D01*
X0163295Y0155647D01*
X0163123Y0154167D01*
X0162987Y0152683D01*
X0162887Y0151196D01*
X0162823Y0149707D01*
X0162796Y0148217D01*
X0162805Y0146727D01*
X0162851Y0145238D01*
X0162933Y0143750D01*
X0163052Y0142265D01*
X0163207Y0140783D01*
X0163398Y0139305D01*
X0163625Y0137832D01*
X0163888Y0136365D01*
X0164187Y0134905D01*
X0164521Y0133453D01*
X0164891Y0132010D01*
X0165296Y0130576D01*
X0165736Y0129152D01*
X0166210Y0127739D01*
X0166719Y0126339D01*
X0167262Y0124951D01*
X0167839Y0123577D01*
X0168449Y0122218D01*
X0169093Y0120874D01*
X0169769Y0119546D01*
X0170477Y0118235D01*
X0171217Y0116941D01*
X0171989Y0115666D01*
X0172791Y0114411D01*
X0173624Y0113175D01*
X0174487Y0111960D01*
X0175379Y0110767D01*
X0176300Y0109595D01*
X0177250Y0108447D01*
X0178227Y0107322D01*
X0179232Y0106222D01*
X0180263Y0105146D01*
X0181320Y0104096D01*
X0182403Y0103072D01*
D11*
X0290118Y0102692D02*
X0293585Y0102692D01*
X0291851Y0100959D02*
X0291851Y0104426D01*
X0290118Y0092892D02*
X0293585Y0092892D01*
X0484409Y0201947D02*
X0487876Y0201947D01*
X0486143Y0210014D02*
X0486143Y0213481D01*
X0487876Y0211747D02*
X0484409Y0211747D01*
D12*
X0523891Y0211235D02*
X0526358Y0211235D01*
X0525124Y0210002D02*
X0525124Y0212469D01*
X0527731Y0213496D02*
X0528964Y0209796D01*
X0530198Y0213496D01*
X0531536Y0213496D02*
X0533592Y0213496D01*
X0533592Y0211852D01*
X0532359Y0211852D01*
X0532303Y0211850D01*
X0532247Y0211844D01*
X0532192Y0211835D01*
X0532137Y0211822D01*
X0532084Y0211805D01*
X0532032Y0211784D01*
X0531981Y0211760D01*
X0531932Y0211732D01*
X0531885Y0211702D01*
X0531840Y0211668D01*
X0531798Y0211631D01*
X0531758Y0211591D01*
X0531721Y0211549D01*
X0531687Y0211504D01*
X0531657Y0211457D01*
X0531629Y0211408D01*
X0531605Y0211357D01*
X0531584Y0211305D01*
X0531567Y0211252D01*
X0531554Y0211197D01*
X0531545Y0211142D01*
X0531539Y0211086D01*
X0531537Y0211030D01*
X0531536Y0211030D02*
X0531536Y0210619D01*
X0531537Y0210619D02*
X0531539Y0210563D01*
X0531545Y0210507D01*
X0531554Y0210452D01*
X0531567Y0210397D01*
X0531584Y0210344D01*
X0531605Y0210292D01*
X0531629Y0210241D01*
X0531657Y0210192D01*
X0531687Y0210145D01*
X0531721Y0210100D01*
X0531758Y0210058D01*
X0531798Y0210018D01*
X0531840Y0209981D01*
X0531885Y0209947D01*
X0531932Y0209917D01*
X0531981Y0209889D01*
X0532032Y0209865D01*
X0532084Y0209844D01*
X0532137Y0209827D01*
X0532192Y0209814D01*
X0532247Y0209805D01*
X0532303Y0209799D01*
X0532359Y0209797D01*
X0532359Y0209796D02*
X0533592Y0209796D01*
X0532804Y0203496D02*
X0531571Y0203496D01*
X0532804Y0203496D02*
X0532860Y0203494D01*
X0532916Y0203488D01*
X0532971Y0203479D01*
X0533026Y0203466D01*
X0533079Y0203449D01*
X0533131Y0203428D01*
X0533182Y0203404D01*
X0533231Y0203376D01*
X0533278Y0203346D01*
X0533323Y0203312D01*
X0533365Y0203275D01*
X0533405Y0203235D01*
X0533442Y0203193D01*
X0533476Y0203148D01*
X0533506Y0203101D01*
X0533534Y0203052D01*
X0533558Y0203001D01*
X0533579Y0202949D01*
X0533596Y0202896D01*
X0533609Y0202841D01*
X0533618Y0202786D01*
X0533624Y0202730D01*
X0533626Y0202674D01*
X0533626Y0200619D01*
X0533624Y0200563D01*
X0533618Y0200507D01*
X0533609Y0200452D01*
X0533596Y0200397D01*
X0533579Y0200344D01*
X0533558Y0200292D01*
X0533534Y0200241D01*
X0533506Y0200192D01*
X0533476Y0200145D01*
X0533442Y0200100D01*
X0533405Y0200058D01*
X0533365Y0200018D01*
X0533323Y0199981D01*
X0533278Y0199947D01*
X0533231Y0199917D01*
X0533182Y0199889D01*
X0533131Y0199865D01*
X0533079Y0199844D01*
X0533026Y0199827D01*
X0532971Y0199814D01*
X0532916Y0199805D01*
X0532860Y0199799D01*
X0532804Y0199797D01*
X0532804Y0199796D02*
X0531571Y0199796D01*
X0531571Y0201852D01*
X0532188Y0201852D01*
X0529786Y0203496D02*
X0527731Y0199796D01*
X0527731Y0203496D01*
X0525946Y0203496D02*
X0524919Y0203496D01*
X0524919Y0203497D02*
X0524857Y0203495D01*
X0524795Y0203490D01*
X0524734Y0203480D01*
X0524673Y0203467D01*
X0524613Y0203450D01*
X0524554Y0203430D01*
X0524497Y0203406D01*
X0524441Y0203379D01*
X0524387Y0203349D01*
X0524335Y0203315D01*
X0524285Y0203278D01*
X0524237Y0203238D01*
X0524192Y0203196D01*
X0524150Y0203151D01*
X0524110Y0203103D01*
X0524073Y0203053D01*
X0524039Y0203001D01*
X0524009Y0202947D01*
X0523982Y0202891D01*
X0523958Y0202834D01*
X0523938Y0202775D01*
X0523921Y0202715D01*
X0523908Y0202654D01*
X0523898Y0202593D01*
X0523893Y0202531D01*
X0523891Y0202469D01*
X0523891Y0200824D01*
X0523893Y0200762D01*
X0523898Y0200700D01*
X0523908Y0200639D01*
X0523921Y0200578D01*
X0523938Y0200518D01*
X0523958Y0200459D01*
X0523982Y0200402D01*
X0524009Y0200346D01*
X0524039Y0200292D01*
X0524073Y0200240D01*
X0524110Y0200190D01*
X0524150Y0200142D01*
X0524192Y0200097D01*
X0524237Y0200055D01*
X0524285Y0200015D01*
X0524335Y0199978D01*
X0524387Y0199944D01*
X0524441Y0199914D01*
X0524497Y0199887D01*
X0524554Y0199863D01*
X0524613Y0199843D01*
X0524673Y0199826D01*
X0524734Y0199813D01*
X0524795Y0199803D01*
X0524857Y0199798D01*
X0524919Y0199796D01*
X0525946Y0199796D01*
X0525946Y0203496D01*
X0529786Y0203496D02*
X0529786Y0199796D01*
X0530799Y0193496D02*
X0531826Y0193496D01*
X0531826Y0189796D01*
X0530799Y0189796D01*
X0530737Y0189798D01*
X0530675Y0189803D01*
X0530614Y0189813D01*
X0530553Y0189826D01*
X0530493Y0189843D01*
X0530434Y0189863D01*
X0530377Y0189887D01*
X0530321Y0189914D01*
X0530267Y0189944D01*
X0530215Y0189978D01*
X0530165Y0190015D01*
X0530117Y0190055D01*
X0530072Y0190097D01*
X0530030Y0190142D01*
X0529990Y0190190D01*
X0529953Y0190240D01*
X0529919Y0190292D01*
X0529889Y0190346D01*
X0529862Y0190402D01*
X0529838Y0190459D01*
X0529818Y0190518D01*
X0529801Y0190578D01*
X0529788Y0190639D01*
X0529778Y0190700D01*
X0529773Y0190762D01*
X0529771Y0190824D01*
X0529771Y0192469D01*
X0529773Y0192531D01*
X0529778Y0192593D01*
X0529788Y0192654D01*
X0529801Y0192715D01*
X0529818Y0192775D01*
X0529838Y0192834D01*
X0529862Y0192891D01*
X0529889Y0192947D01*
X0529919Y0193001D01*
X0529953Y0193053D01*
X0529990Y0193103D01*
X0530030Y0193151D01*
X0530072Y0193196D01*
X0530117Y0193238D01*
X0530165Y0193278D01*
X0530215Y0193315D01*
X0530267Y0193349D01*
X0530321Y0193379D01*
X0530377Y0193406D01*
X0530434Y0193430D01*
X0530493Y0193450D01*
X0530553Y0193467D01*
X0530614Y0193480D01*
X0530675Y0193490D01*
X0530737Y0193495D01*
X0530799Y0193497D01*
X0528210Y0193496D02*
X0527388Y0193496D01*
X0527799Y0193496D02*
X0527799Y0189796D01*
X0528210Y0189796D02*
X0527388Y0189796D01*
X0525946Y0190824D02*
X0525946Y0192469D01*
X0525947Y0192469D02*
X0525945Y0192532D01*
X0525939Y0192595D01*
X0525929Y0192658D01*
X0525916Y0192720D01*
X0525899Y0192781D01*
X0525878Y0192840D01*
X0525853Y0192899D01*
X0525825Y0192955D01*
X0525793Y0193010D01*
X0525758Y0193063D01*
X0525720Y0193113D01*
X0525679Y0193162D01*
X0525635Y0193207D01*
X0525588Y0193250D01*
X0525539Y0193289D01*
X0525487Y0193326D01*
X0525433Y0193359D01*
X0525377Y0193389D01*
X0525320Y0193416D01*
X0525261Y0193439D01*
X0525200Y0193458D01*
X0525139Y0193473D01*
X0525077Y0193485D01*
X0525014Y0193493D01*
X0524951Y0193497D01*
X0524887Y0193497D01*
X0524824Y0193493D01*
X0524761Y0193485D01*
X0524699Y0193473D01*
X0524638Y0193458D01*
X0524577Y0193439D01*
X0524518Y0193416D01*
X0524461Y0193389D01*
X0524405Y0193359D01*
X0524351Y0193326D01*
X0524299Y0193289D01*
X0524250Y0193250D01*
X0524203Y0193207D01*
X0524159Y0193162D01*
X0524118Y0193113D01*
X0524080Y0193063D01*
X0524045Y0193010D01*
X0524013Y0192955D01*
X0523985Y0192899D01*
X0523960Y0192840D01*
X0523939Y0192781D01*
X0523922Y0192720D01*
X0523909Y0192658D01*
X0523899Y0192595D01*
X0523893Y0192532D01*
X0523891Y0192469D01*
X0523891Y0190824D01*
X0523893Y0190761D01*
X0523899Y0190698D01*
X0523909Y0190635D01*
X0523922Y0190573D01*
X0523939Y0190512D01*
X0523960Y0190453D01*
X0523985Y0190394D01*
X0524013Y0190338D01*
X0524045Y0190283D01*
X0524080Y0190230D01*
X0524118Y0190180D01*
X0524159Y0190131D01*
X0524203Y0190086D01*
X0524250Y0190043D01*
X0524299Y0190004D01*
X0524351Y0189967D01*
X0524405Y0189934D01*
X0524461Y0189904D01*
X0524518Y0189877D01*
X0524577Y0189854D01*
X0524638Y0189835D01*
X0524699Y0189820D01*
X0524761Y0189808D01*
X0524824Y0189800D01*
X0524887Y0189796D01*
X0524951Y0189796D01*
X0525014Y0189800D01*
X0525077Y0189808D01*
X0525139Y0189820D01*
X0525200Y0189835D01*
X0525261Y0189854D01*
X0525320Y0189877D01*
X0525377Y0189904D01*
X0525433Y0189934D01*
X0525487Y0189967D01*
X0525539Y0190004D01*
X0525588Y0190043D01*
X0525635Y0190086D01*
X0525679Y0190131D01*
X0525720Y0190180D01*
X0525758Y0190230D01*
X0525793Y0190283D01*
X0525825Y0190338D01*
X0525853Y0190394D01*
X0525878Y0190453D01*
X0525899Y0190512D01*
X0525916Y0190573D01*
X0525929Y0190635D01*
X0525939Y0190698D01*
X0525945Y0190761D01*
X0525947Y0190824D01*
X0525946Y0183496D02*
X0525946Y0179796D01*
X0525946Y0181235D02*
X0523891Y0183496D01*
X0525124Y0182058D02*
X0523891Y0179796D01*
X0527467Y0179796D02*
X0529111Y0179796D01*
X0529111Y0183496D01*
X0530604Y0183496D02*
X0531426Y0183496D01*
X0531482Y0183494D01*
X0531538Y0183488D01*
X0531593Y0183479D01*
X0531648Y0183466D01*
X0531701Y0183449D01*
X0531753Y0183428D01*
X0531804Y0183404D01*
X0531853Y0183376D01*
X0531900Y0183346D01*
X0531945Y0183312D01*
X0531987Y0183275D01*
X0532027Y0183235D01*
X0532064Y0183193D01*
X0532098Y0183148D01*
X0532128Y0183101D01*
X0532156Y0183052D01*
X0532180Y0183001D01*
X0532201Y0182949D01*
X0532218Y0182896D01*
X0532231Y0182841D01*
X0532240Y0182786D01*
X0532246Y0182730D01*
X0532248Y0182674D01*
X0532248Y0180619D01*
X0532246Y0180563D01*
X0532240Y0180507D01*
X0532231Y0180452D01*
X0532218Y0180397D01*
X0532201Y0180344D01*
X0532180Y0180292D01*
X0532156Y0180241D01*
X0532128Y0180192D01*
X0532098Y0180145D01*
X0532064Y0180100D01*
X0532027Y0180058D01*
X0531987Y0180018D01*
X0531945Y0179981D01*
X0531900Y0179947D01*
X0531853Y0179917D01*
X0531804Y0179889D01*
X0531753Y0179865D01*
X0531701Y0179844D01*
X0531648Y0179827D01*
X0531593Y0179814D01*
X0531538Y0179805D01*
X0531482Y0179799D01*
X0531426Y0179797D01*
X0531426Y0179796D02*
X0530604Y0179796D01*
D13*
X0483324Y0202086D02*
X0483324Y0202575D01*
X0483325Y0202086D02*
X0483323Y0202043D01*
X0483318Y0202001D01*
X0483308Y0201959D01*
X0483296Y0201919D01*
X0483279Y0201879D01*
X0483259Y0201841D01*
X0483237Y0201806D01*
X0483211Y0201772D01*
X0483182Y0201740D01*
X0483150Y0201711D01*
X0483116Y0201685D01*
X0483080Y0201663D01*
X0483043Y0201643D01*
X0483003Y0201626D01*
X0482963Y0201614D01*
X0482921Y0201604D01*
X0482879Y0201599D01*
X0482836Y0201597D01*
X0481613Y0201597D01*
X0481570Y0201599D01*
X0481528Y0201604D01*
X0481486Y0201614D01*
X0481446Y0201626D01*
X0481406Y0201643D01*
X0481369Y0201663D01*
X0481333Y0201685D01*
X0481299Y0201711D01*
X0481267Y0201740D01*
X0481238Y0201772D01*
X0481212Y0201806D01*
X0481190Y0201842D01*
X0481170Y0201879D01*
X0481153Y0201919D01*
X0481141Y0201959D01*
X0481131Y0202001D01*
X0481126Y0202043D01*
X0481124Y0202086D01*
X0481124Y0202575D01*
X0481124Y0203475D02*
X0483324Y0203475D01*
X0482347Y0203475D02*
X0482347Y0204697D01*
X0483324Y0204697D02*
X0481124Y0204697D01*
X0481124Y0205793D02*
X0483324Y0205793D01*
X0483324Y0206405D01*
X0483322Y0206453D01*
X0483316Y0206501D01*
X0483307Y0206548D01*
X0483294Y0206594D01*
X0483277Y0206639D01*
X0483257Y0206682D01*
X0483234Y0206724D01*
X0483207Y0206764D01*
X0483178Y0206802D01*
X0483145Y0206837D01*
X0483110Y0206870D01*
X0483072Y0206899D01*
X0483032Y0206926D01*
X0482990Y0206949D01*
X0482947Y0206969D01*
X0482902Y0206986D01*
X0482856Y0206999D01*
X0482809Y0207008D01*
X0482761Y0207014D01*
X0482713Y0207016D01*
X0482665Y0207014D01*
X0482617Y0207008D01*
X0482570Y0206999D01*
X0482524Y0206986D01*
X0482479Y0206969D01*
X0482436Y0206949D01*
X0482394Y0206926D01*
X0482354Y0206899D01*
X0482316Y0206870D01*
X0482281Y0206837D01*
X0482248Y0206802D01*
X0482219Y0206764D01*
X0482192Y0206724D01*
X0482169Y0206682D01*
X0482149Y0206639D01*
X0482132Y0206594D01*
X0482119Y0206548D01*
X0482110Y0206501D01*
X0482104Y0206453D01*
X0482102Y0206405D01*
X0482102Y0205793D01*
X0482102Y0206527D02*
X0481124Y0207016D01*
X0481613Y0208011D02*
X0482836Y0208011D01*
X0482879Y0208013D01*
X0482921Y0208018D01*
X0482963Y0208028D01*
X0483003Y0208040D01*
X0483043Y0208057D01*
X0483080Y0208077D01*
X0483116Y0208099D01*
X0483150Y0208125D01*
X0483182Y0208154D01*
X0483211Y0208186D01*
X0483237Y0208220D01*
X0483259Y0208255D01*
X0483279Y0208293D01*
X0483296Y0208333D01*
X0483308Y0208373D01*
X0483318Y0208415D01*
X0483323Y0208457D01*
X0483325Y0208500D01*
X0483324Y0208500D02*
X0483324Y0209233D01*
X0482347Y0209233D02*
X0481124Y0209233D01*
X0481124Y0208500D01*
X0481126Y0208457D01*
X0481131Y0208415D01*
X0481141Y0208373D01*
X0481153Y0208333D01*
X0481170Y0208293D01*
X0481190Y0208256D01*
X0481212Y0208220D01*
X0481238Y0208186D01*
X0481267Y0208154D01*
X0481299Y0208125D01*
X0481333Y0208099D01*
X0481369Y0208077D01*
X0481406Y0208057D01*
X0481446Y0208040D01*
X0481486Y0208028D01*
X0481528Y0208018D01*
X0481570Y0208013D01*
X0481613Y0208011D01*
X0482347Y0208867D02*
X0482347Y0209233D01*
X0288405Y0101987D02*
X0288405Y0100765D01*
X0288405Y0101376D02*
X0286205Y0101376D01*
X0286205Y0099504D02*
X0288405Y0099504D01*
X0288405Y0098893D02*
X0288405Y0100115D01*
X0288405Y0097488D02*
X0286205Y0098222D01*
X0286755Y0098038D02*
X0286755Y0096938D01*
X0286205Y0096755D02*
X0288405Y0097488D01*
X0288405Y0095433D02*
X0288405Y0094822D01*
X0286205Y0094822D01*
X0286205Y0095433D01*
X0286207Y0095481D01*
X0286213Y0095529D01*
X0286222Y0095576D01*
X0286235Y0095622D01*
X0286252Y0095667D01*
X0286272Y0095710D01*
X0286295Y0095752D01*
X0286322Y0095792D01*
X0286351Y0095830D01*
X0286384Y0095865D01*
X0286419Y0095898D01*
X0286457Y0095927D01*
X0286497Y0095954D01*
X0286539Y0095977D01*
X0286582Y0095997D01*
X0286627Y0096014D01*
X0286673Y0096027D01*
X0286720Y0096036D01*
X0286768Y0096042D01*
X0286816Y0096044D01*
X0286864Y0096042D01*
X0286912Y0096036D01*
X0286959Y0096027D01*
X0287005Y0096014D01*
X0287050Y0095997D01*
X0287093Y0095977D01*
X0287135Y0095954D01*
X0287175Y0095927D01*
X0287213Y0095898D01*
X0287248Y0095865D01*
X0287281Y0095830D01*
X0287310Y0095792D01*
X0287337Y0095752D01*
X0287360Y0095710D01*
X0287380Y0095667D01*
X0287397Y0095622D01*
X0287410Y0095576D01*
X0287419Y0095529D01*
X0287425Y0095481D01*
X0287427Y0095433D01*
X0287427Y0094822D01*
X0287427Y0095433D02*
X0287429Y0095476D01*
X0287434Y0095518D01*
X0287444Y0095560D01*
X0287456Y0095600D01*
X0287473Y0095640D01*
X0287493Y0095678D01*
X0287515Y0095713D01*
X0287541Y0095747D01*
X0287570Y0095779D01*
X0287602Y0095808D01*
X0287636Y0095834D01*
X0287672Y0095856D01*
X0287709Y0095876D01*
X0287749Y0095893D01*
X0287789Y0095905D01*
X0287831Y0095915D01*
X0287873Y0095920D01*
X0287916Y0095922D01*
X0287959Y0095920D01*
X0288001Y0095915D01*
X0288043Y0095905D01*
X0288083Y0095893D01*
X0288123Y0095876D01*
X0288161Y0095856D01*
X0288196Y0095834D01*
X0288230Y0095808D01*
X0288262Y0095779D01*
X0288291Y0095747D01*
X0288317Y0095713D01*
X0288339Y0095678D01*
X0288359Y0095640D01*
X0288376Y0095600D01*
X0288388Y0095560D01*
X0288398Y0095518D01*
X0288403Y0095476D01*
X0288405Y0095433D01*
D14*
X0295198Y0116654D02*
X0295198Y0124528D01*
X0304253Y0124528D02*
X0304253Y0116654D01*
X0322166Y0134371D02*
X0332402Y0134371D01*
X0332402Y0139883D01*
X0322166Y0139883D01*
X0322166Y0134371D01*
X0307172Y0166548D02*
X0357069Y0148387D01*
X0357126Y0148368D01*
X0357185Y0148353D01*
X0357244Y0148341D01*
X0357304Y0148333D01*
X0357364Y0148328D01*
X0357424Y0148327D01*
X0357485Y0148330D01*
X0357545Y0148336D01*
X0357604Y0148346D01*
X0357663Y0148359D01*
X0357721Y0148376D01*
X0357778Y0148397D01*
X0357834Y0148421D01*
X0357888Y0148448D01*
X0357940Y0148478D01*
X0357990Y0148512D01*
X0358038Y0148548D01*
X0358084Y0148587D01*
X0358128Y0148629D01*
X0358168Y0148674D01*
X0358206Y0148721D01*
X0358242Y0148770D01*
X0358274Y0148821D01*
X0358303Y0148874D01*
X0358328Y0148929D01*
X0358351Y0148985D01*
X0376512Y0198882D01*
X0376513Y0198882D02*
X0376532Y0198939D01*
X0376547Y0198998D01*
X0376559Y0199057D01*
X0376567Y0199117D01*
X0376572Y0199177D01*
X0376573Y0199237D01*
X0376570Y0199298D01*
X0376564Y0199358D01*
X0376554Y0199417D01*
X0376541Y0199476D01*
X0376524Y0199534D01*
X0376503Y0199591D01*
X0376479Y0199647D01*
X0376452Y0199701D01*
X0376422Y0199753D01*
X0376388Y0199803D01*
X0376352Y0199851D01*
X0376313Y0199897D01*
X0376271Y0199941D01*
X0376226Y0199981D01*
X0376179Y0200019D01*
X0376130Y0200055D01*
X0376079Y0200087D01*
X0376026Y0200116D01*
X0375971Y0200141D01*
X0375915Y0200164D01*
X0326017Y0218325D01*
X0326017Y0218326D02*
X0325960Y0218345D01*
X0325901Y0218360D01*
X0325842Y0218372D01*
X0325782Y0218380D01*
X0325722Y0218385D01*
X0325662Y0218386D01*
X0325601Y0218383D01*
X0325541Y0218377D01*
X0325482Y0218367D01*
X0325423Y0218354D01*
X0325365Y0218337D01*
X0325308Y0218316D01*
X0325252Y0218292D01*
X0325198Y0218265D01*
X0325146Y0218235D01*
X0325096Y0218201D01*
X0325048Y0218165D01*
X0325002Y0218126D01*
X0324958Y0218084D01*
X0324918Y0218039D01*
X0324880Y0217992D01*
X0324844Y0217943D01*
X0324812Y0217892D01*
X0324783Y0217839D01*
X0324758Y0217784D01*
X0324735Y0217728D01*
X0306574Y0167830D01*
X0306555Y0167773D01*
X0306540Y0167714D01*
X0306528Y0167655D01*
X0306520Y0167595D01*
X0306515Y0167535D01*
X0306514Y0167475D01*
X0306517Y0167414D01*
X0306523Y0167354D01*
X0306533Y0167295D01*
X0306546Y0167236D01*
X0306563Y0167178D01*
X0306584Y0167121D01*
X0306608Y0167065D01*
X0306635Y0167011D01*
X0306665Y0166959D01*
X0306699Y0166909D01*
X0306735Y0166861D01*
X0306774Y0166815D01*
X0306816Y0166771D01*
X0306861Y0166731D01*
X0306908Y0166693D01*
X0306957Y0166657D01*
X0307008Y0166625D01*
X0307061Y0166596D01*
X0307116Y0166571D01*
X0307172Y0166548D01*
X0311143Y0209371D02*
X0244213Y0209371D01*
X0244213Y0228662D01*
X0228637Y0279852D02*
X0175537Y0279852D01*
X0175477Y0279854D01*
X0175416Y0279859D01*
X0175357Y0279868D01*
X0175298Y0279881D01*
X0175239Y0279897D01*
X0175182Y0279917D01*
X0175127Y0279940D01*
X0175072Y0279967D01*
X0175020Y0279996D01*
X0174969Y0280029D01*
X0174920Y0280065D01*
X0174874Y0280103D01*
X0174830Y0280145D01*
X0174788Y0280189D01*
X0174750Y0280235D01*
X0174714Y0280284D01*
X0174681Y0280335D01*
X0174652Y0280387D01*
X0174625Y0280442D01*
X0174602Y0280497D01*
X0174582Y0280554D01*
X0174566Y0280613D01*
X0174553Y0280672D01*
X0174544Y0280731D01*
X0174539Y0280792D01*
X0174537Y0280852D01*
X0174537Y0333952D01*
X0174539Y0334012D01*
X0174544Y0334073D01*
X0174553Y0334132D01*
X0174566Y0334191D01*
X0174582Y0334250D01*
X0174602Y0334307D01*
X0174625Y0334362D01*
X0174652Y0334417D01*
X0174681Y0334469D01*
X0174714Y0334520D01*
X0174750Y0334569D01*
X0174788Y0334615D01*
X0174830Y0334659D01*
X0174874Y0334701D01*
X0174920Y0334739D01*
X0174969Y0334775D01*
X0175020Y0334808D01*
X0175072Y0334837D01*
X0175127Y0334864D01*
X0175182Y0334887D01*
X0175239Y0334907D01*
X0175298Y0334923D01*
X0175357Y0334936D01*
X0175416Y0334945D01*
X0175477Y0334950D01*
X0175537Y0334952D01*
X0228637Y0334952D01*
X0228697Y0334950D01*
X0228758Y0334945D01*
X0228817Y0334936D01*
X0228876Y0334923D01*
X0228935Y0334907D01*
X0228992Y0334887D01*
X0229047Y0334864D01*
X0229102Y0334837D01*
X0229154Y0334808D01*
X0229205Y0334775D01*
X0229254Y0334739D01*
X0229300Y0334701D01*
X0229344Y0334659D01*
X0229386Y0334615D01*
X0229424Y0334569D01*
X0229460Y0334520D01*
X0229493Y0334469D01*
X0229522Y0334417D01*
X0229549Y0334362D01*
X0229572Y0334307D01*
X0229592Y0334250D01*
X0229608Y0334191D01*
X0229621Y0334132D01*
X0229630Y0334073D01*
X0229635Y0334012D01*
X0229637Y0333952D01*
X0229637Y0280852D01*
X0229635Y0280792D01*
X0229630Y0280731D01*
X0229621Y0280672D01*
X0229608Y0280613D01*
X0229592Y0280554D01*
X0229572Y0280497D01*
X0229549Y0280442D01*
X0229522Y0280387D01*
X0229493Y0280335D01*
X0229460Y0280284D01*
X0229424Y0280235D01*
X0229386Y0280189D01*
X0229344Y0280145D01*
X0229300Y0280103D01*
X0229254Y0280065D01*
X0229205Y0280029D01*
X0229154Y0279996D01*
X0229102Y0279967D01*
X0229047Y0279940D01*
X0228992Y0279917D01*
X0228935Y0279897D01*
X0228876Y0279881D01*
X0228817Y0279868D01*
X0228758Y0279859D01*
X0228697Y0279854D01*
X0228637Y0279852D01*
X0244213Y0281812D02*
X0244213Y0291261D01*
X0250906Y0291261D01*
X0250341Y0298553D02*
X0303441Y0298553D01*
X0303501Y0298555D01*
X0303562Y0298560D01*
X0303621Y0298569D01*
X0303680Y0298582D01*
X0303739Y0298598D01*
X0303796Y0298618D01*
X0303851Y0298641D01*
X0303906Y0298668D01*
X0303958Y0298697D01*
X0304009Y0298730D01*
X0304058Y0298766D01*
X0304104Y0298804D01*
X0304148Y0298846D01*
X0304190Y0298890D01*
X0304228Y0298936D01*
X0304264Y0298985D01*
X0304297Y0299036D01*
X0304326Y0299088D01*
X0304353Y0299143D01*
X0304376Y0299198D01*
X0304396Y0299255D01*
X0304412Y0299314D01*
X0304425Y0299373D01*
X0304434Y0299432D01*
X0304439Y0299493D01*
X0304441Y0299553D01*
X0304441Y0352653D01*
X0304439Y0352713D01*
X0304434Y0352774D01*
X0304425Y0352833D01*
X0304412Y0352892D01*
X0304396Y0352951D01*
X0304376Y0353008D01*
X0304353Y0353063D01*
X0304326Y0353118D01*
X0304297Y0353170D01*
X0304264Y0353221D01*
X0304228Y0353270D01*
X0304190Y0353316D01*
X0304148Y0353360D01*
X0304104Y0353402D01*
X0304058Y0353440D01*
X0304009Y0353476D01*
X0303958Y0353509D01*
X0303906Y0353538D01*
X0303851Y0353565D01*
X0303796Y0353588D01*
X0303739Y0353608D01*
X0303680Y0353624D01*
X0303621Y0353637D01*
X0303562Y0353646D01*
X0303501Y0353651D01*
X0303441Y0353653D01*
X0250341Y0353653D01*
X0250281Y0353651D01*
X0250220Y0353646D01*
X0250161Y0353637D01*
X0250102Y0353624D01*
X0250043Y0353608D01*
X0249986Y0353588D01*
X0249931Y0353565D01*
X0249876Y0353538D01*
X0249824Y0353509D01*
X0249773Y0353476D01*
X0249724Y0353440D01*
X0249678Y0353402D01*
X0249634Y0353360D01*
X0249592Y0353316D01*
X0249554Y0353270D01*
X0249518Y0353221D01*
X0249485Y0353170D01*
X0249456Y0353118D01*
X0249429Y0353063D01*
X0249406Y0353008D01*
X0249386Y0352951D01*
X0249370Y0352892D01*
X0249357Y0352833D01*
X0249348Y0352774D01*
X0249343Y0352713D01*
X0249341Y0352653D01*
X0249341Y0299553D01*
X0249343Y0299493D01*
X0249348Y0299432D01*
X0249357Y0299373D01*
X0249370Y0299314D01*
X0249386Y0299255D01*
X0249406Y0299198D01*
X0249429Y0299143D01*
X0249456Y0299088D01*
X0249485Y0299036D01*
X0249518Y0298985D01*
X0249554Y0298936D01*
X0249592Y0298890D01*
X0249634Y0298846D01*
X0249678Y0298804D01*
X0249724Y0298766D01*
X0249773Y0298730D01*
X0249824Y0298697D01*
X0249876Y0298668D01*
X0249931Y0298641D01*
X0249986Y0298618D01*
X0250043Y0298598D01*
X0250102Y0298582D01*
X0250161Y0298569D01*
X0250220Y0298560D01*
X0250281Y0298555D01*
X0250341Y0298553D01*
X0304450Y0291261D02*
X0311143Y0291261D01*
X0311143Y0281812D01*
X0324144Y0280852D02*
X0324144Y0333952D01*
X0324146Y0334012D01*
X0324151Y0334073D01*
X0324160Y0334132D01*
X0324173Y0334191D01*
X0324189Y0334250D01*
X0324209Y0334307D01*
X0324232Y0334362D01*
X0324259Y0334417D01*
X0324288Y0334469D01*
X0324321Y0334520D01*
X0324357Y0334569D01*
X0324395Y0334615D01*
X0324437Y0334659D01*
X0324481Y0334701D01*
X0324527Y0334739D01*
X0324576Y0334775D01*
X0324627Y0334808D01*
X0324679Y0334837D01*
X0324734Y0334864D01*
X0324789Y0334887D01*
X0324846Y0334907D01*
X0324905Y0334923D01*
X0324964Y0334936D01*
X0325023Y0334945D01*
X0325084Y0334950D01*
X0325144Y0334952D01*
X0378244Y0334952D01*
X0378304Y0334950D01*
X0378365Y0334945D01*
X0378424Y0334936D01*
X0378483Y0334923D01*
X0378542Y0334907D01*
X0378599Y0334887D01*
X0378654Y0334864D01*
X0378709Y0334837D01*
X0378761Y0334808D01*
X0378812Y0334775D01*
X0378861Y0334739D01*
X0378907Y0334701D01*
X0378951Y0334659D01*
X0378993Y0334615D01*
X0379031Y0334569D01*
X0379067Y0334520D01*
X0379100Y0334469D01*
X0379129Y0334417D01*
X0379156Y0334362D01*
X0379179Y0334307D01*
X0379199Y0334250D01*
X0379215Y0334191D01*
X0379228Y0334132D01*
X0379237Y0334073D01*
X0379242Y0334012D01*
X0379244Y0333952D01*
X0379244Y0280852D01*
X0379242Y0280792D01*
X0379237Y0280731D01*
X0379228Y0280672D01*
X0379215Y0280613D01*
X0379199Y0280554D01*
X0379179Y0280497D01*
X0379156Y0280442D01*
X0379129Y0280387D01*
X0379100Y0280335D01*
X0379067Y0280284D01*
X0379031Y0280235D01*
X0378993Y0280189D01*
X0378951Y0280145D01*
X0378907Y0280103D01*
X0378861Y0280065D01*
X0378812Y0280029D01*
X0378761Y0279996D01*
X0378709Y0279967D01*
X0378654Y0279940D01*
X0378599Y0279917D01*
X0378542Y0279897D01*
X0378483Y0279881D01*
X0378424Y0279868D01*
X0378365Y0279859D01*
X0378304Y0279854D01*
X0378244Y0279852D01*
X0325144Y0279852D01*
X0325084Y0279854D01*
X0325023Y0279859D01*
X0324964Y0279868D01*
X0324905Y0279881D01*
X0324846Y0279897D01*
X0324789Y0279917D01*
X0324734Y0279940D01*
X0324679Y0279967D01*
X0324627Y0279996D01*
X0324576Y0280029D01*
X0324527Y0280065D01*
X0324481Y0280103D01*
X0324437Y0280145D01*
X0324395Y0280189D01*
X0324357Y0280235D01*
X0324321Y0280284D01*
X0324288Y0280335D01*
X0324259Y0280387D01*
X0324232Y0280442D01*
X0324209Y0280497D01*
X0324189Y0280554D01*
X0324173Y0280613D01*
X0324160Y0280672D01*
X0324151Y0280731D01*
X0324146Y0280792D01*
X0324144Y0280852D01*
X0311143Y0228662D02*
X0311143Y0209371D01*
X0382235Y0156997D02*
X0364074Y0107100D01*
X0364073Y0107100D02*
X0364054Y0107043D01*
X0364039Y0106984D01*
X0364027Y0106925D01*
X0364019Y0106865D01*
X0364014Y0106805D01*
X0364013Y0106745D01*
X0364016Y0106684D01*
X0364022Y0106624D01*
X0364032Y0106565D01*
X0364045Y0106506D01*
X0364062Y0106448D01*
X0364083Y0106391D01*
X0364107Y0106335D01*
X0364134Y0106281D01*
X0364164Y0106229D01*
X0364198Y0106179D01*
X0364234Y0106131D01*
X0364273Y0106085D01*
X0364315Y0106041D01*
X0364360Y0106001D01*
X0364407Y0105963D01*
X0364456Y0105927D01*
X0364507Y0105895D01*
X0364560Y0105866D01*
X0364615Y0105841D01*
X0364671Y0105818D01*
X0414569Y0087657D01*
X0414569Y0087656D02*
X0414626Y0087637D01*
X0414685Y0087622D01*
X0414744Y0087610D01*
X0414804Y0087602D01*
X0414864Y0087597D01*
X0414924Y0087596D01*
X0414985Y0087599D01*
X0415045Y0087605D01*
X0415104Y0087615D01*
X0415163Y0087628D01*
X0415221Y0087645D01*
X0415278Y0087666D01*
X0415334Y0087690D01*
X0415388Y0087717D01*
X0415440Y0087747D01*
X0415490Y0087781D01*
X0415538Y0087817D01*
X0415584Y0087856D01*
X0415628Y0087898D01*
X0415668Y0087943D01*
X0415706Y0087990D01*
X0415742Y0088039D01*
X0415774Y0088090D01*
X0415803Y0088143D01*
X0415828Y0088198D01*
X0415851Y0088254D01*
X0434012Y0138152D01*
X0434031Y0138209D01*
X0434046Y0138268D01*
X0434058Y0138327D01*
X0434066Y0138387D01*
X0434071Y0138447D01*
X0434072Y0138507D01*
X0434069Y0138568D01*
X0434063Y0138628D01*
X0434053Y0138687D01*
X0434040Y0138746D01*
X0434023Y0138804D01*
X0434002Y0138861D01*
X0433978Y0138917D01*
X0433951Y0138971D01*
X0433921Y0139023D01*
X0433887Y0139073D01*
X0433851Y0139121D01*
X0433812Y0139167D01*
X0433770Y0139211D01*
X0433725Y0139251D01*
X0433678Y0139289D01*
X0433629Y0139325D01*
X0433578Y0139357D01*
X0433525Y0139386D01*
X0433470Y0139411D01*
X0433414Y0139434D01*
X0383517Y0157595D01*
X0383460Y0157614D01*
X0383401Y0157629D01*
X0383342Y0157641D01*
X0383282Y0157649D01*
X0383222Y0157654D01*
X0383162Y0157655D01*
X0383101Y0157652D01*
X0383041Y0157646D01*
X0382982Y0157636D01*
X0382923Y0157623D01*
X0382865Y0157606D01*
X0382808Y0157585D01*
X0382752Y0157561D01*
X0382698Y0157534D01*
X0382646Y0157504D01*
X0382596Y0157470D01*
X0382548Y0157434D01*
X0382502Y0157395D01*
X0382458Y0157353D01*
X0382418Y0157308D01*
X0382380Y0157261D01*
X0382344Y0157212D01*
X0382312Y0157161D01*
X0382283Y0157108D01*
X0382258Y0157053D01*
X0382235Y0156997D01*
X0390256Y0176110D02*
X0440153Y0157949D01*
X0440153Y0157948D02*
X0440210Y0157929D01*
X0440269Y0157914D01*
X0440328Y0157902D01*
X0440388Y0157894D01*
X0440448Y0157889D01*
X0440508Y0157888D01*
X0440569Y0157891D01*
X0440629Y0157897D01*
X0440688Y0157907D01*
X0440747Y0157920D01*
X0440805Y0157937D01*
X0440862Y0157958D01*
X0440918Y0157982D01*
X0440972Y0158009D01*
X0441024Y0158039D01*
X0441074Y0158073D01*
X0441122Y0158109D01*
X0441168Y0158148D01*
X0441212Y0158190D01*
X0441252Y0158235D01*
X0441290Y0158282D01*
X0441326Y0158331D01*
X0441358Y0158382D01*
X0441387Y0158435D01*
X0441412Y0158490D01*
X0441435Y0158546D01*
X0459596Y0208444D01*
X0459597Y0208444D02*
X0459616Y0208501D01*
X0459631Y0208560D01*
X0459643Y0208619D01*
X0459651Y0208679D01*
X0459656Y0208739D01*
X0459657Y0208799D01*
X0459654Y0208860D01*
X0459648Y0208920D01*
X0459638Y0208979D01*
X0459625Y0209038D01*
X0459608Y0209096D01*
X0459587Y0209153D01*
X0459563Y0209209D01*
X0459536Y0209263D01*
X0459506Y0209315D01*
X0459472Y0209365D01*
X0459436Y0209413D01*
X0459397Y0209459D01*
X0459355Y0209503D01*
X0459310Y0209543D01*
X0459263Y0209581D01*
X0459214Y0209617D01*
X0459163Y0209649D01*
X0459110Y0209678D01*
X0459055Y0209703D01*
X0458999Y0209726D01*
X0409101Y0227887D01*
X0409044Y0227906D01*
X0408985Y0227921D01*
X0408926Y0227933D01*
X0408866Y0227941D01*
X0408806Y0227946D01*
X0408746Y0227947D01*
X0408685Y0227944D01*
X0408625Y0227938D01*
X0408566Y0227928D01*
X0408507Y0227915D01*
X0408449Y0227898D01*
X0408392Y0227877D01*
X0408336Y0227853D01*
X0408282Y0227826D01*
X0408230Y0227796D01*
X0408180Y0227762D01*
X0408132Y0227726D01*
X0408086Y0227687D01*
X0408042Y0227645D01*
X0408002Y0227600D01*
X0407964Y0227553D01*
X0407928Y0227504D01*
X0407896Y0227453D01*
X0407867Y0227400D01*
X0407842Y0227345D01*
X0407819Y0227289D01*
X0389658Y0177392D01*
X0389639Y0177335D01*
X0389624Y0177276D01*
X0389612Y0177217D01*
X0389604Y0177157D01*
X0389599Y0177097D01*
X0389598Y0177037D01*
X0389601Y0176976D01*
X0389607Y0176916D01*
X0389617Y0176857D01*
X0389630Y0176798D01*
X0389647Y0176740D01*
X0389668Y0176683D01*
X0389692Y0176627D01*
X0389719Y0176573D01*
X0389749Y0176521D01*
X0389783Y0176471D01*
X0389819Y0176423D01*
X0389858Y0176377D01*
X0389900Y0176333D01*
X0389945Y0176293D01*
X0389992Y0176255D01*
X0390041Y0176219D01*
X0390092Y0176187D01*
X0390145Y0176158D01*
X0390200Y0176133D01*
X0390256Y0176110D01*
X0465319Y0166559D02*
X0447158Y0116662D01*
X0447157Y0116662D02*
X0447138Y0116605D01*
X0447123Y0116546D01*
X0447111Y0116487D01*
X0447103Y0116427D01*
X0447098Y0116367D01*
X0447097Y0116307D01*
X0447100Y0116246D01*
X0447106Y0116186D01*
X0447116Y0116127D01*
X0447129Y0116068D01*
X0447146Y0116010D01*
X0447167Y0115953D01*
X0447191Y0115897D01*
X0447218Y0115843D01*
X0447248Y0115791D01*
X0447282Y0115741D01*
X0447318Y0115693D01*
X0447357Y0115647D01*
X0447399Y0115603D01*
X0447444Y0115563D01*
X0447491Y0115525D01*
X0447540Y0115489D01*
X0447591Y0115457D01*
X0447644Y0115428D01*
X0447699Y0115403D01*
X0447755Y0115380D01*
X0497653Y0097219D01*
X0497653Y0097218D02*
X0497710Y0097199D01*
X0497769Y0097184D01*
X0497828Y0097172D01*
X0497888Y0097164D01*
X0497948Y0097159D01*
X0498008Y0097158D01*
X0498069Y0097161D01*
X0498129Y0097167D01*
X0498188Y0097177D01*
X0498247Y0097190D01*
X0498305Y0097207D01*
X0498362Y0097228D01*
X0498418Y0097252D01*
X0498472Y0097279D01*
X0498524Y0097309D01*
X0498574Y0097343D01*
X0498622Y0097379D01*
X0498668Y0097418D01*
X0498712Y0097460D01*
X0498752Y0097505D01*
X0498790Y0097552D01*
X0498826Y0097601D01*
X0498858Y0097652D01*
X0498887Y0097705D01*
X0498912Y0097760D01*
X0498935Y0097816D01*
X0517096Y0147714D01*
X0517115Y0147771D01*
X0517130Y0147830D01*
X0517142Y0147889D01*
X0517150Y0147949D01*
X0517155Y0148009D01*
X0517156Y0148069D01*
X0517153Y0148130D01*
X0517147Y0148190D01*
X0517137Y0148249D01*
X0517124Y0148308D01*
X0517107Y0148366D01*
X0517086Y0148423D01*
X0517062Y0148479D01*
X0517035Y0148533D01*
X0517005Y0148585D01*
X0516971Y0148635D01*
X0516935Y0148683D01*
X0516896Y0148729D01*
X0516854Y0148773D01*
X0516809Y0148813D01*
X0516762Y0148851D01*
X0516713Y0148887D01*
X0516662Y0148919D01*
X0516609Y0148948D01*
X0516554Y0148973D01*
X0516498Y0148996D01*
X0466601Y0167157D01*
X0466544Y0167176D01*
X0466485Y0167191D01*
X0466426Y0167203D01*
X0466366Y0167211D01*
X0466306Y0167216D01*
X0466246Y0167217D01*
X0466185Y0167214D01*
X0466125Y0167208D01*
X0466066Y0167198D01*
X0466007Y0167185D01*
X0465949Y0167168D01*
X0465892Y0167147D01*
X0465836Y0167123D01*
X0465782Y0167096D01*
X0465730Y0167066D01*
X0465680Y0167032D01*
X0465632Y0166996D01*
X0465586Y0166957D01*
X0465542Y0166915D01*
X0465502Y0166870D01*
X0465464Y0166823D01*
X0465428Y0166774D01*
X0465396Y0166723D01*
X0465367Y0166670D01*
X0465342Y0166615D01*
X0465319Y0166559D01*
X0499528Y0202678D02*
X0499528Y0210552D01*
X0508583Y0210552D02*
X0508583Y0202678D01*
X0527850Y0242451D02*
X0474750Y0242451D01*
X0474690Y0242453D01*
X0474629Y0242458D01*
X0474570Y0242467D01*
X0474511Y0242480D01*
X0474452Y0242496D01*
X0474395Y0242516D01*
X0474340Y0242539D01*
X0474285Y0242566D01*
X0474233Y0242595D01*
X0474182Y0242628D01*
X0474133Y0242664D01*
X0474087Y0242702D01*
X0474043Y0242744D01*
X0474001Y0242788D01*
X0473963Y0242834D01*
X0473927Y0242883D01*
X0473894Y0242934D01*
X0473865Y0242986D01*
X0473838Y0243041D01*
X0473815Y0243096D01*
X0473795Y0243153D01*
X0473779Y0243212D01*
X0473766Y0243271D01*
X0473757Y0243330D01*
X0473752Y0243391D01*
X0473750Y0243451D01*
X0473750Y0296551D01*
X0473752Y0296611D01*
X0473757Y0296672D01*
X0473766Y0296731D01*
X0473779Y0296790D01*
X0473795Y0296849D01*
X0473815Y0296906D01*
X0473838Y0296961D01*
X0473865Y0297016D01*
X0473894Y0297068D01*
X0473927Y0297119D01*
X0473963Y0297168D01*
X0474001Y0297214D01*
X0474043Y0297258D01*
X0474087Y0297300D01*
X0474133Y0297338D01*
X0474182Y0297374D01*
X0474233Y0297407D01*
X0474285Y0297436D01*
X0474340Y0297463D01*
X0474395Y0297486D01*
X0474452Y0297506D01*
X0474511Y0297522D01*
X0474570Y0297535D01*
X0474629Y0297544D01*
X0474690Y0297549D01*
X0474750Y0297551D01*
X0527850Y0297551D01*
X0527910Y0297549D01*
X0527971Y0297544D01*
X0528030Y0297535D01*
X0528089Y0297522D01*
X0528148Y0297506D01*
X0528205Y0297486D01*
X0528260Y0297463D01*
X0528315Y0297436D01*
X0528367Y0297407D01*
X0528418Y0297374D01*
X0528467Y0297338D01*
X0528513Y0297300D01*
X0528557Y0297258D01*
X0528599Y0297214D01*
X0528637Y0297168D01*
X0528673Y0297119D01*
X0528706Y0297068D01*
X0528735Y0297016D01*
X0528762Y0296961D01*
X0528785Y0296906D01*
X0528805Y0296849D01*
X0528821Y0296790D01*
X0528834Y0296731D01*
X0528843Y0296672D01*
X0528848Y0296611D01*
X0528850Y0296551D01*
X0528850Y0243451D01*
X0528848Y0243391D01*
X0528843Y0243330D01*
X0528834Y0243271D01*
X0528821Y0243212D01*
X0528805Y0243153D01*
X0528785Y0243096D01*
X0528762Y0243041D01*
X0528735Y0242986D01*
X0528706Y0242934D01*
X0528673Y0242883D01*
X0528637Y0242834D01*
X0528599Y0242788D01*
X0528557Y0242744D01*
X0528513Y0242702D01*
X0528467Y0242664D01*
X0528418Y0242628D01*
X0528367Y0242595D01*
X0528315Y0242566D01*
X0528260Y0242539D01*
X0528205Y0242516D01*
X0528148Y0242496D01*
X0528089Y0242480D01*
X0528030Y0242467D01*
X0527971Y0242458D01*
X0527910Y0242453D01*
X0527850Y0242451D01*
X0454047Y0262152D02*
X0454047Y0315252D01*
X0454045Y0315312D01*
X0454040Y0315373D01*
X0454031Y0315432D01*
X0454018Y0315491D01*
X0454002Y0315550D01*
X0453982Y0315607D01*
X0453959Y0315662D01*
X0453932Y0315717D01*
X0453903Y0315769D01*
X0453870Y0315820D01*
X0453834Y0315869D01*
X0453796Y0315915D01*
X0453754Y0315959D01*
X0453710Y0316001D01*
X0453664Y0316039D01*
X0453615Y0316075D01*
X0453564Y0316108D01*
X0453512Y0316137D01*
X0453457Y0316164D01*
X0453402Y0316187D01*
X0453345Y0316207D01*
X0453286Y0316223D01*
X0453227Y0316236D01*
X0453168Y0316245D01*
X0453107Y0316250D01*
X0453047Y0316252D01*
X0399947Y0316252D01*
X0399887Y0316250D01*
X0399826Y0316245D01*
X0399767Y0316236D01*
X0399708Y0316223D01*
X0399649Y0316207D01*
X0399592Y0316187D01*
X0399537Y0316164D01*
X0399482Y0316137D01*
X0399430Y0316108D01*
X0399379Y0316075D01*
X0399330Y0316039D01*
X0399284Y0316001D01*
X0399240Y0315959D01*
X0399198Y0315915D01*
X0399160Y0315869D01*
X0399124Y0315820D01*
X0399091Y0315769D01*
X0399062Y0315717D01*
X0399035Y0315662D01*
X0399012Y0315607D01*
X0398992Y0315550D01*
X0398976Y0315491D01*
X0398963Y0315432D01*
X0398954Y0315373D01*
X0398949Y0315312D01*
X0398947Y0315252D01*
X0398947Y0262152D01*
X0398949Y0262092D01*
X0398954Y0262031D01*
X0398963Y0261972D01*
X0398976Y0261913D01*
X0398992Y0261854D01*
X0399012Y0261797D01*
X0399035Y0261742D01*
X0399062Y0261687D01*
X0399091Y0261635D01*
X0399124Y0261584D01*
X0399160Y0261535D01*
X0399198Y0261489D01*
X0399240Y0261445D01*
X0399284Y0261403D01*
X0399330Y0261365D01*
X0399379Y0261329D01*
X0399430Y0261296D01*
X0399482Y0261267D01*
X0399537Y0261240D01*
X0399592Y0261217D01*
X0399649Y0261197D01*
X0399708Y0261181D01*
X0399767Y0261168D01*
X0399826Y0261159D01*
X0399887Y0261154D01*
X0399947Y0261152D01*
X0453047Y0261152D01*
X0453107Y0261154D01*
X0453168Y0261159D01*
X0453227Y0261168D01*
X0453286Y0261181D01*
X0453345Y0261197D01*
X0453402Y0261217D01*
X0453457Y0261240D01*
X0453512Y0261267D01*
X0453564Y0261296D01*
X0453615Y0261329D01*
X0453664Y0261365D01*
X0453710Y0261403D01*
X0453754Y0261445D01*
X0453796Y0261489D01*
X0453834Y0261535D01*
X0453870Y0261584D01*
X0453903Y0261635D01*
X0453932Y0261687D01*
X0453959Y0261742D01*
X0453982Y0261797D01*
X0454002Y0261854D01*
X0454018Y0261913D01*
X0454031Y0261972D01*
X0454040Y0262031D01*
X0454045Y0262092D01*
X0454047Y0262152D01*
X0474750Y0317254D02*
X0527850Y0317254D01*
X0527910Y0317256D01*
X0527971Y0317261D01*
X0528030Y0317270D01*
X0528089Y0317283D01*
X0528148Y0317299D01*
X0528205Y0317319D01*
X0528260Y0317342D01*
X0528315Y0317369D01*
X0528367Y0317398D01*
X0528418Y0317431D01*
X0528467Y0317467D01*
X0528513Y0317505D01*
X0528557Y0317547D01*
X0528599Y0317591D01*
X0528637Y0317637D01*
X0528673Y0317686D01*
X0528706Y0317737D01*
X0528735Y0317789D01*
X0528762Y0317844D01*
X0528785Y0317899D01*
X0528805Y0317956D01*
X0528821Y0318015D01*
X0528834Y0318074D01*
X0528843Y0318133D01*
X0528848Y0318194D01*
X0528850Y0318254D01*
X0528850Y0371354D01*
X0528848Y0371414D01*
X0528843Y0371475D01*
X0528834Y0371534D01*
X0528821Y0371593D01*
X0528805Y0371652D01*
X0528785Y0371709D01*
X0528762Y0371764D01*
X0528735Y0371819D01*
X0528706Y0371871D01*
X0528673Y0371922D01*
X0528637Y0371971D01*
X0528599Y0372017D01*
X0528557Y0372061D01*
X0528513Y0372103D01*
X0528467Y0372141D01*
X0528418Y0372177D01*
X0528367Y0372210D01*
X0528315Y0372239D01*
X0528260Y0372266D01*
X0528205Y0372289D01*
X0528148Y0372309D01*
X0528089Y0372325D01*
X0528030Y0372338D01*
X0527971Y0372347D01*
X0527910Y0372352D01*
X0527850Y0372354D01*
X0474750Y0372354D01*
X0474690Y0372352D01*
X0474629Y0372347D01*
X0474570Y0372338D01*
X0474511Y0372325D01*
X0474452Y0372309D01*
X0474395Y0372289D01*
X0474340Y0372266D01*
X0474285Y0372239D01*
X0474233Y0372210D01*
X0474182Y0372177D01*
X0474133Y0372141D01*
X0474087Y0372103D01*
X0474043Y0372061D01*
X0474001Y0372017D01*
X0473963Y0371971D01*
X0473927Y0371922D01*
X0473894Y0371871D01*
X0473865Y0371819D01*
X0473838Y0371764D01*
X0473815Y0371709D01*
X0473795Y0371652D01*
X0473779Y0371593D01*
X0473766Y0371534D01*
X0473757Y0371475D01*
X0473752Y0371414D01*
X0473750Y0371354D01*
X0473750Y0318254D01*
X0473752Y0318194D01*
X0473757Y0318133D01*
X0473766Y0318074D01*
X0473779Y0318015D01*
X0473795Y0317956D01*
X0473815Y0317899D01*
X0473838Y0317844D01*
X0473865Y0317789D01*
X0473894Y0317737D01*
X0473927Y0317686D01*
X0473963Y0317637D01*
X0474001Y0317591D01*
X0474043Y0317547D01*
X0474087Y0317505D01*
X0474133Y0317467D01*
X0474182Y0317431D01*
X0474233Y0317398D01*
X0474285Y0317369D01*
X0474340Y0317342D01*
X0474395Y0317319D01*
X0474452Y0317299D01*
X0474511Y0317283D01*
X0474570Y0317270D01*
X0474629Y0317261D01*
X0474690Y0317256D01*
X0474750Y0317254D01*
X0454047Y0336955D02*
X0454047Y0390055D01*
X0454045Y0390115D01*
X0454040Y0390176D01*
X0454031Y0390235D01*
X0454018Y0390294D01*
X0454002Y0390353D01*
X0453982Y0390410D01*
X0453959Y0390465D01*
X0453932Y0390520D01*
X0453903Y0390572D01*
X0453870Y0390623D01*
X0453834Y0390672D01*
X0453796Y0390718D01*
X0453754Y0390762D01*
X0453710Y0390804D01*
X0453664Y0390842D01*
X0453615Y0390878D01*
X0453564Y0390911D01*
X0453512Y0390940D01*
X0453457Y0390967D01*
X0453402Y0390990D01*
X0453345Y0391010D01*
X0453286Y0391026D01*
X0453227Y0391039D01*
X0453168Y0391048D01*
X0453107Y0391053D01*
X0453047Y0391055D01*
X0399947Y0391055D01*
X0399887Y0391053D01*
X0399826Y0391048D01*
X0399767Y0391039D01*
X0399708Y0391026D01*
X0399649Y0391010D01*
X0399592Y0390990D01*
X0399537Y0390967D01*
X0399482Y0390940D01*
X0399430Y0390911D01*
X0399379Y0390878D01*
X0399330Y0390842D01*
X0399284Y0390804D01*
X0399240Y0390762D01*
X0399198Y0390718D01*
X0399160Y0390672D01*
X0399124Y0390623D01*
X0399091Y0390572D01*
X0399062Y0390520D01*
X0399035Y0390465D01*
X0399012Y0390410D01*
X0398992Y0390353D01*
X0398976Y0390294D01*
X0398963Y0390235D01*
X0398954Y0390176D01*
X0398949Y0390115D01*
X0398947Y0390055D01*
X0398947Y0336955D01*
X0398949Y0336895D01*
X0398954Y0336834D01*
X0398963Y0336775D01*
X0398976Y0336716D01*
X0398992Y0336657D01*
X0399012Y0336600D01*
X0399035Y0336545D01*
X0399062Y0336490D01*
X0399091Y0336438D01*
X0399124Y0336387D01*
X0399160Y0336338D01*
X0399198Y0336292D01*
X0399240Y0336248D01*
X0399284Y0336206D01*
X0399330Y0336168D01*
X0399379Y0336132D01*
X0399430Y0336099D01*
X0399482Y0336070D01*
X0399537Y0336043D01*
X0399592Y0336020D01*
X0399649Y0336000D01*
X0399708Y0335984D01*
X0399767Y0335971D01*
X0399826Y0335962D01*
X0399887Y0335957D01*
X0399947Y0335955D01*
X0453047Y0335955D01*
X0453107Y0335957D01*
X0453168Y0335962D01*
X0453227Y0335971D01*
X0453286Y0335984D01*
X0453345Y0336000D01*
X0453402Y0336020D01*
X0453457Y0336043D01*
X0453512Y0336070D01*
X0453564Y0336099D01*
X0453615Y0336132D01*
X0453664Y0336168D01*
X0453710Y0336206D01*
X0453754Y0336248D01*
X0453796Y0336292D01*
X0453834Y0336338D01*
X0453870Y0336387D01*
X0453903Y0336438D01*
X0453932Y0336490D01*
X0453959Y0336545D01*
X0453982Y0336600D01*
X0454002Y0336657D01*
X0454018Y0336716D01*
X0454031Y0336775D01*
X0454040Y0336834D01*
X0454045Y0336895D01*
X0454047Y0336955D01*
X0498800Y0392835D02*
X0503800Y0392835D01*
X0503820Y0400822D02*
X0503820Y0402735D01*
X0503820Y0402743D02*
X0501900Y0402743D01*
X0503820Y0400822D01*
X0503800Y0403465D02*
X0498800Y0403465D01*
X0454047Y0411758D02*
X0454047Y0464858D01*
X0454045Y0464918D01*
X0454040Y0464979D01*
X0454031Y0465038D01*
X0454018Y0465097D01*
X0454002Y0465156D01*
X0453982Y0465213D01*
X0453959Y0465268D01*
X0453932Y0465323D01*
X0453903Y0465375D01*
X0453870Y0465426D01*
X0453834Y0465475D01*
X0453796Y0465521D01*
X0453754Y0465565D01*
X0453710Y0465607D01*
X0453664Y0465645D01*
X0453615Y0465681D01*
X0453564Y0465714D01*
X0453512Y0465743D01*
X0453457Y0465770D01*
X0453402Y0465793D01*
X0453345Y0465813D01*
X0453286Y0465829D01*
X0453227Y0465842D01*
X0453168Y0465851D01*
X0453107Y0465856D01*
X0453047Y0465858D01*
X0399947Y0465858D01*
X0399887Y0465856D01*
X0399826Y0465851D01*
X0399767Y0465842D01*
X0399708Y0465829D01*
X0399649Y0465813D01*
X0399592Y0465793D01*
X0399537Y0465770D01*
X0399482Y0465743D01*
X0399430Y0465714D01*
X0399379Y0465681D01*
X0399330Y0465645D01*
X0399284Y0465607D01*
X0399240Y0465565D01*
X0399198Y0465521D01*
X0399160Y0465475D01*
X0399124Y0465426D01*
X0399091Y0465375D01*
X0399062Y0465323D01*
X0399035Y0465268D01*
X0399012Y0465213D01*
X0398992Y0465156D01*
X0398976Y0465097D01*
X0398963Y0465038D01*
X0398954Y0464979D01*
X0398949Y0464918D01*
X0398947Y0464858D01*
X0398947Y0411758D01*
X0398949Y0411698D01*
X0398954Y0411637D01*
X0398963Y0411578D01*
X0398976Y0411519D01*
X0398992Y0411460D01*
X0399012Y0411403D01*
X0399035Y0411348D01*
X0399062Y0411293D01*
X0399091Y0411241D01*
X0399124Y0411190D01*
X0399160Y0411141D01*
X0399198Y0411095D01*
X0399240Y0411051D01*
X0399284Y0411009D01*
X0399330Y0410971D01*
X0399379Y0410935D01*
X0399430Y0410902D01*
X0399482Y0410873D01*
X0399537Y0410846D01*
X0399592Y0410823D01*
X0399649Y0410803D01*
X0399708Y0410787D01*
X0399767Y0410774D01*
X0399826Y0410765D01*
X0399887Y0410760D01*
X0399947Y0410758D01*
X0453047Y0410758D01*
X0453107Y0410760D01*
X0453168Y0410765D01*
X0453227Y0410774D01*
X0453286Y0410787D01*
X0453345Y0410803D01*
X0453402Y0410823D01*
X0453457Y0410846D01*
X0453512Y0410873D01*
X0453564Y0410902D01*
X0453615Y0410935D01*
X0453664Y0410971D01*
X0453710Y0411009D01*
X0453754Y0411051D01*
X0453796Y0411095D01*
X0453834Y0411141D01*
X0453870Y0411190D01*
X0453903Y0411241D01*
X0453932Y0411293D01*
X0453959Y0411348D01*
X0453982Y0411403D01*
X0454002Y0411460D01*
X0454018Y0411519D01*
X0454031Y0411578D01*
X0454040Y0411637D01*
X0454045Y0411698D01*
X0454047Y0411758D01*
X0453047Y0485561D02*
X0399947Y0485561D01*
X0399887Y0485563D01*
X0399826Y0485568D01*
X0399767Y0485577D01*
X0399708Y0485590D01*
X0399649Y0485606D01*
X0399592Y0485626D01*
X0399537Y0485649D01*
X0399482Y0485676D01*
X0399430Y0485705D01*
X0399379Y0485738D01*
X0399330Y0485774D01*
X0399284Y0485812D01*
X0399240Y0485854D01*
X0399198Y0485898D01*
X0399160Y0485944D01*
X0399124Y0485993D01*
X0399091Y0486044D01*
X0399062Y0486096D01*
X0399035Y0486151D01*
X0399012Y0486206D01*
X0398992Y0486263D01*
X0398976Y0486322D01*
X0398963Y0486381D01*
X0398954Y0486440D01*
X0398949Y0486501D01*
X0398947Y0486561D01*
X0398947Y0539661D01*
X0398949Y0539721D01*
X0398954Y0539782D01*
X0398963Y0539841D01*
X0398976Y0539900D01*
X0398992Y0539959D01*
X0399012Y0540016D01*
X0399035Y0540071D01*
X0399062Y0540126D01*
X0399091Y0540178D01*
X0399124Y0540229D01*
X0399160Y0540278D01*
X0399198Y0540324D01*
X0399240Y0540368D01*
X0399284Y0540410D01*
X0399330Y0540448D01*
X0399379Y0540484D01*
X0399430Y0540517D01*
X0399482Y0540546D01*
X0399537Y0540573D01*
X0399592Y0540596D01*
X0399649Y0540616D01*
X0399708Y0540632D01*
X0399767Y0540645D01*
X0399826Y0540654D01*
X0399887Y0540659D01*
X0399947Y0540661D01*
X0453047Y0540661D01*
X0453107Y0540659D01*
X0453168Y0540654D01*
X0453227Y0540645D01*
X0453286Y0540632D01*
X0453345Y0540616D01*
X0453402Y0540596D01*
X0453457Y0540573D01*
X0453512Y0540546D01*
X0453564Y0540517D01*
X0453615Y0540484D01*
X0453664Y0540448D01*
X0453710Y0540410D01*
X0453754Y0540368D01*
X0453796Y0540324D01*
X0453834Y0540278D01*
X0453870Y0540229D01*
X0453903Y0540178D01*
X0453932Y0540126D01*
X0453959Y0540071D01*
X0453982Y0540016D01*
X0454002Y0539959D01*
X0454018Y0539900D01*
X0454031Y0539841D01*
X0454040Y0539782D01*
X0454045Y0539721D01*
X0454047Y0539661D01*
X0454047Y0486561D01*
X0454045Y0486501D01*
X0454040Y0486440D01*
X0454031Y0486381D01*
X0454018Y0486322D01*
X0454002Y0486263D01*
X0453982Y0486206D01*
X0453959Y0486151D01*
X0453932Y0486096D01*
X0453903Y0486044D01*
X0453870Y0485993D01*
X0453834Y0485944D01*
X0453796Y0485898D01*
X0453754Y0485854D01*
X0453710Y0485812D01*
X0453664Y0485774D01*
X0453615Y0485738D01*
X0453564Y0485705D01*
X0453512Y0485676D01*
X0453457Y0485649D01*
X0453402Y0485626D01*
X0453345Y0485606D01*
X0453286Y0485590D01*
X0453227Y0485577D01*
X0453168Y0485568D01*
X0453107Y0485563D01*
X0453047Y0485561D01*
X0379244Y0483559D02*
X0379244Y0430459D01*
X0379242Y0430399D01*
X0379237Y0430338D01*
X0379228Y0430279D01*
X0379215Y0430220D01*
X0379199Y0430161D01*
X0379179Y0430104D01*
X0379156Y0430049D01*
X0379129Y0429994D01*
X0379100Y0429942D01*
X0379067Y0429891D01*
X0379031Y0429842D01*
X0378993Y0429796D01*
X0378951Y0429752D01*
X0378907Y0429710D01*
X0378861Y0429672D01*
X0378812Y0429636D01*
X0378761Y0429603D01*
X0378709Y0429574D01*
X0378654Y0429547D01*
X0378599Y0429524D01*
X0378542Y0429504D01*
X0378483Y0429488D01*
X0378424Y0429475D01*
X0378365Y0429466D01*
X0378304Y0429461D01*
X0378244Y0429459D01*
X0325144Y0429459D01*
X0325084Y0429461D01*
X0325023Y0429466D01*
X0324964Y0429475D01*
X0324905Y0429488D01*
X0324846Y0429504D01*
X0324789Y0429524D01*
X0324734Y0429547D01*
X0324679Y0429574D01*
X0324627Y0429603D01*
X0324576Y0429636D01*
X0324527Y0429672D01*
X0324481Y0429710D01*
X0324437Y0429752D01*
X0324395Y0429796D01*
X0324357Y0429842D01*
X0324321Y0429891D01*
X0324288Y0429942D01*
X0324259Y0429994D01*
X0324232Y0430049D01*
X0324209Y0430104D01*
X0324189Y0430161D01*
X0324173Y0430220D01*
X0324160Y0430279D01*
X0324151Y0430338D01*
X0324146Y0430399D01*
X0324144Y0430459D01*
X0324144Y0483559D01*
X0324146Y0483619D01*
X0324151Y0483680D01*
X0324160Y0483739D01*
X0324173Y0483798D01*
X0324189Y0483857D01*
X0324209Y0483914D01*
X0324232Y0483969D01*
X0324259Y0484024D01*
X0324288Y0484076D01*
X0324321Y0484127D01*
X0324357Y0484176D01*
X0324395Y0484222D01*
X0324437Y0484266D01*
X0324481Y0484308D01*
X0324527Y0484346D01*
X0324576Y0484382D01*
X0324627Y0484415D01*
X0324679Y0484444D01*
X0324734Y0484471D01*
X0324789Y0484494D01*
X0324846Y0484514D01*
X0324905Y0484530D01*
X0324964Y0484543D01*
X0325023Y0484552D01*
X0325084Y0484557D01*
X0325144Y0484559D01*
X0378244Y0484559D01*
X0378304Y0484557D01*
X0378365Y0484552D01*
X0378424Y0484543D01*
X0378483Y0484530D01*
X0378542Y0484514D01*
X0378599Y0484494D01*
X0378654Y0484471D01*
X0378709Y0484444D01*
X0378761Y0484415D01*
X0378812Y0484382D01*
X0378861Y0484346D01*
X0378907Y0484308D01*
X0378951Y0484266D01*
X0378993Y0484222D01*
X0379031Y0484176D01*
X0379067Y0484127D01*
X0379100Y0484076D01*
X0379129Y0484024D01*
X0379156Y0483969D01*
X0379179Y0483914D01*
X0379199Y0483857D01*
X0379215Y0483798D01*
X0379228Y0483739D01*
X0379237Y0483680D01*
X0379242Y0483619D01*
X0379244Y0483559D01*
X0378244Y0504262D02*
X0325144Y0504262D01*
X0325084Y0504264D01*
X0325023Y0504269D01*
X0324964Y0504278D01*
X0324905Y0504291D01*
X0324846Y0504307D01*
X0324789Y0504327D01*
X0324734Y0504350D01*
X0324679Y0504377D01*
X0324627Y0504406D01*
X0324576Y0504439D01*
X0324527Y0504475D01*
X0324481Y0504513D01*
X0324437Y0504555D01*
X0324395Y0504599D01*
X0324357Y0504645D01*
X0324321Y0504694D01*
X0324288Y0504745D01*
X0324259Y0504797D01*
X0324232Y0504852D01*
X0324209Y0504907D01*
X0324189Y0504964D01*
X0324173Y0505023D01*
X0324160Y0505082D01*
X0324151Y0505141D01*
X0324146Y0505202D01*
X0324144Y0505262D01*
X0324144Y0558362D01*
X0324146Y0558422D01*
X0324151Y0558483D01*
X0324160Y0558542D01*
X0324173Y0558601D01*
X0324189Y0558660D01*
X0324209Y0558717D01*
X0324232Y0558772D01*
X0324259Y0558827D01*
X0324288Y0558879D01*
X0324321Y0558930D01*
X0324357Y0558979D01*
X0324395Y0559025D01*
X0324437Y0559069D01*
X0324481Y0559111D01*
X0324527Y0559149D01*
X0324576Y0559185D01*
X0324627Y0559218D01*
X0324679Y0559247D01*
X0324734Y0559274D01*
X0324789Y0559297D01*
X0324846Y0559317D01*
X0324905Y0559333D01*
X0324964Y0559346D01*
X0325023Y0559355D01*
X0325084Y0559360D01*
X0325144Y0559362D01*
X0378244Y0559362D01*
X0378304Y0559360D01*
X0378365Y0559355D01*
X0378424Y0559346D01*
X0378483Y0559333D01*
X0378542Y0559317D01*
X0378599Y0559297D01*
X0378654Y0559274D01*
X0378709Y0559247D01*
X0378761Y0559218D01*
X0378812Y0559185D01*
X0378861Y0559149D01*
X0378907Y0559111D01*
X0378951Y0559069D01*
X0378993Y0559025D01*
X0379031Y0558979D01*
X0379067Y0558930D01*
X0379100Y0558879D01*
X0379129Y0558827D01*
X0379156Y0558772D01*
X0379179Y0558717D01*
X0379199Y0558660D01*
X0379215Y0558601D01*
X0379228Y0558542D01*
X0379237Y0558483D01*
X0379242Y0558422D01*
X0379244Y0558362D01*
X0379244Y0505262D01*
X0379242Y0505202D01*
X0379237Y0505141D01*
X0379228Y0505082D01*
X0379215Y0505023D01*
X0379199Y0504964D01*
X0379179Y0504907D01*
X0379156Y0504852D01*
X0379129Y0504797D01*
X0379100Y0504745D01*
X0379067Y0504694D01*
X0379031Y0504645D01*
X0378993Y0504599D01*
X0378951Y0504555D01*
X0378907Y0504513D01*
X0378861Y0504475D01*
X0378812Y0504439D01*
X0378761Y0504406D01*
X0378709Y0504377D01*
X0378654Y0504350D01*
X0378599Y0504327D01*
X0378542Y0504307D01*
X0378483Y0504291D01*
X0378424Y0504278D01*
X0378365Y0504269D01*
X0378304Y0504264D01*
X0378244Y0504262D01*
X0304441Y0502259D02*
X0304441Y0449159D01*
X0304439Y0449099D01*
X0304434Y0449038D01*
X0304425Y0448979D01*
X0304412Y0448920D01*
X0304396Y0448861D01*
X0304376Y0448804D01*
X0304353Y0448749D01*
X0304326Y0448694D01*
X0304297Y0448642D01*
X0304264Y0448591D01*
X0304228Y0448542D01*
X0304190Y0448496D01*
X0304148Y0448452D01*
X0304104Y0448410D01*
X0304058Y0448372D01*
X0304009Y0448336D01*
X0303958Y0448303D01*
X0303906Y0448274D01*
X0303851Y0448247D01*
X0303796Y0448224D01*
X0303739Y0448204D01*
X0303680Y0448188D01*
X0303621Y0448175D01*
X0303562Y0448166D01*
X0303501Y0448161D01*
X0303441Y0448159D01*
X0250341Y0448159D01*
X0250281Y0448161D01*
X0250220Y0448166D01*
X0250161Y0448175D01*
X0250102Y0448188D01*
X0250043Y0448204D01*
X0249986Y0448224D01*
X0249931Y0448247D01*
X0249876Y0448274D01*
X0249824Y0448303D01*
X0249773Y0448336D01*
X0249724Y0448372D01*
X0249678Y0448410D01*
X0249634Y0448452D01*
X0249592Y0448496D01*
X0249554Y0448542D01*
X0249518Y0448591D01*
X0249485Y0448642D01*
X0249456Y0448694D01*
X0249429Y0448749D01*
X0249406Y0448804D01*
X0249386Y0448861D01*
X0249370Y0448920D01*
X0249357Y0448979D01*
X0249348Y0449038D01*
X0249343Y0449099D01*
X0249341Y0449159D01*
X0249341Y0502259D01*
X0249343Y0502319D01*
X0249348Y0502380D01*
X0249357Y0502439D01*
X0249370Y0502498D01*
X0249386Y0502557D01*
X0249406Y0502614D01*
X0249429Y0502669D01*
X0249456Y0502724D01*
X0249485Y0502776D01*
X0249518Y0502827D01*
X0249554Y0502876D01*
X0249592Y0502922D01*
X0249634Y0502966D01*
X0249678Y0503008D01*
X0249724Y0503046D01*
X0249773Y0503082D01*
X0249824Y0503115D01*
X0249876Y0503144D01*
X0249931Y0503171D01*
X0249986Y0503194D01*
X0250043Y0503214D01*
X0250102Y0503230D01*
X0250161Y0503243D01*
X0250220Y0503252D01*
X0250281Y0503257D01*
X0250341Y0503259D01*
X0303441Y0503259D01*
X0303501Y0503257D01*
X0303562Y0503252D01*
X0303621Y0503243D01*
X0303680Y0503230D01*
X0303739Y0503214D01*
X0303796Y0503194D01*
X0303851Y0503171D01*
X0303906Y0503144D01*
X0303958Y0503115D01*
X0304009Y0503082D01*
X0304058Y0503046D01*
X0304104Y0503008D01*
X0304148Y0502966D01*
X0304190Y0502922D01*
X0304228Y0502876D01*
X0304264Y0502827D01*
X0304297Y0502776D01*
X0304326Y0502724D01*
X0304353Y0502669D01*
X0304376Y0502614D01*
X0304396Y0502557D01*
X0304412Y0502498D01*
X0304425Y0502439D01*
X0304434Y0502380D01*
X0304439Y0502319D01*
X0304441Y0502259D01*
X0303441Y0522963D02*
X0250341Y0522963D01*
X0250281Y0522965D01*
X0250220Y0522970D01*
X0250161Y0522979D01*
X0250102Y0522992D01*
X0250043Y0523008D01*
X0249986Y0523028D01*
X0249931Y0523051D01*
X0249876Y0523078D01*
X0249824Y0523107D01*
X0249773Y0523140D01*
X0249724Y0523176D01*
X0249678Y0523214D01*
X0249634Y0523256D01*
X0249592Y0523300D01*
X0249554Y0523346D01*
X0249518Y0523395D01*
X0249485Y0523446D01*
X0249456Y0523498D01*
X0249429Y0523553D01*
X0249406Y0523608D01*
X0249386Y0523665D01*
X0249370Y0523724D01*
X0249357Y0523783D01*
X0249348Y0523842D01*
X0249343Y0523903D01*
X0249341Y0523963D01*
X0249341Y0577063D01*
X0249343Y0577123D01*
X0249348Y0577184D01*
X0249357Y0577243D01*
X0249370Y0577302D01*
X0249386Y0577361D01*
X0249406Y0577418D01*
X0249429Y0577473D01*
X0249456Y0577528D01*
X0249485Y0577580D01*
X0249518Y0577631D01*
X0249554Y0577680D01*
X0249592Y0577726D01*
X0249634Y0577770D01*
X0249678Y0577812D01*
X0249724Y0577850D01*
X0249773Y0577886D01*
X0249824Y0577919D01*
X0249876Y0577948D01*
X0249931Y0577975D01*
X0249986Y0577998D01*
X0250043Y0578018D01*
X0250102Y0578034D01*
X0250161Y0578047D01*
X0250220Y0578056D01*
X0250281Y0578061D01*
X0250341Y0578063D01*
X0303441Y0578063D01*
X0303501Y0578061D01*
X0303562Y0578056D01*
X0303621Y0578047D01*
X0303680Y0578034D01*
X0303739Y0578018D01*
X0303796Y0577998D01*
X0303851Y0577975D01*
X0303906Y0577948D01*
X0303958Y0577919D01*
X0304009Y0577886D01*
X0304058Y0577850D01*
X0304104Y0577812D01*
X0304148Y0577770D01*
X0304190Y0577726D01*
X0304228Y0577680D01*
X0304264Y0577631D01*
X0304297Y0577580D01*
X0304326Y0577528D01*
X0304353Y0577473D01*
X0304376Y0577418D01*
X0304396Y0577361D01*
X0304412Y0577302D01*
X0304425Y0577243D01*
X0304434Y0577184D01*
X0304439Y0577123D01*
X0304441Y0577063D01*
X0304441Y0523963D01*
X0304439Y0523903D01*
X0304434Y0523842D01*
X0304425Y0523783D01*
X0304412Y0523724D01*
X0304396Y0523665D01*
X0304376Y0523608D01*
X0304353Y0523553D01*
X0304326Y0523498D01*
X0304297Y0523446D01*
X0304264Y0523395D01*
X0304228Y0523346D01*
X0304190Y0523300D01*
X0304148Y0523256D01*
X0304104Y0523214D01*
X0304058Y0523176D01*
X0304009Y0523140D01*
X0303958Y0523107D01*
X0303906Y0523078D01*
X0303851Y0523051D01*
X0303796Y0523028D01*
X0303739Y0523008D01*
X0303680Y0522992D01*
X0303621Y0522979D01*
X0303562Y0522970D01*
X0303501Y0522965D01*
X0303441Y0522963D01*
X0229637Y0505262D02*
X0229637Y0558362D01*
X0229635Y0558422D01*
X0229630Y0558483D01*
X0229621Y0558542D01*
X0229608Y0558601D01*
X0229592Y0558660D01*
X0229572Y0558717D01*
X0229549Y0558772D01*
X0229522Y0558827D01*
X0229493Y0558879D01*
X0229460Y0558930D01*
X0229424Y0558979D01*
X0229386Y0559025D01*
X0229344Y0559069D01*
X0229300Y0559111D01*
X0229254Y0559149D01*
X0229205Y0559185D01*
X0229154Y0559218D01*
X0229102Y0559247D01*
X0229047Y0559274D01*
X0228992Y0559297D01*
X0228935Y0559317D01*
X0228876Y0559333D01*
X0228817Y0559346D01*
X0228758Y0559355D01*
X0228697Y0559360D01*
X0228637Y0559362D01*
X0175537Y0559362D01*
X0175477Y0559360D01*
X0175416Y0559355D01*
X0175357Y0559346D01*
X0175298Y0559333D01*
X0175239Y0559317D01*
X0175182Y0559297D01*
X0175127Y0559274D01*
X0175072Y0559247D01*
X0175020Y0559218D01*
X0174969Y0559185D01*
X0174920Y0559149D01*
X0174874Y0559111D01*
X0174830Y0559069D01*
X0174788Y0559025D01*
X0174750Y0558979D01*
X0174714Y0558930D01*
X0174681Y0558879D01*
X0174652Y0558827D01*
X0174625Y0558772D01*
X0174602Y0558717D01*
X0174582Y0558660D01*
X0174566Y0558601D01*
X0174553Y0558542D01*
X0174544Y0558483D01*
X0174539Y0558422D01*
X0174537Y0558362D01*
X0174537Y0505262D01*
X0174539Y0505202D01*
X0174544Y0505141D01*
X0174553Y0505082D01*
X0174566Y0505023D01*
X0174582Y0504964D01*
X0174602Y0504907D01*
X0174625Y0504852D01*
X0174652Y0504797D01*
X0174681Y0504745D01*
X0174714Y0504694D01*
X0174750Y0504645D01*
X0174788Y0504599D01*
X0174830Y0504555D01*
X0174874Y0504513D01*
X0174920Y0504475D01*
X0174969Y0504439D01*
X0175020Y0504406D01*
X0175072Y0504377D01*
X0175127Y0504350D01*
X0175182Y0504327D01*
X0175239Y0504307D01*
X0175298Y0504291D01*
X0175357Y0504278D01*
X0175416Y0504269D01*
X0175477Y0504264D01*
X0175537Y0504262D01*
X0228637Y0504262D01*
X0228697Y0504264D01*
X0228758Y0504269D01*
X0228817Y0504278D01*
X0228876Y0504291D01*
X0228935Y0504307D01*
X0228992Y0504327D01*
X0229047Y0504350D01*
X0229102Y0504377D01*
X0229154Y0504406D01*
X0229205Y0504439D01*
X0229254Y0504475D01*
X0229300Y0504513D01*
X0229344Y0504555D01*
X0229386Y0504599D01*
X0229424Y0504645D01*
X0229460Y0504694D01*
X0229493Y0504745D01*
X0229522Y0504797D01*
X0229549Y0504852D01*
X0229572Y0504907D01*
X0229592Y0504964D01*
X0229608Y0505023D01*
X0229621Y0505082D01*
X0229630Y0505141D01*
X0229635Y0505202D01*
X0229637Y0505262D01*
X0228637Y0484559D02*
X0175537Y0484559D01*
X0175477Y0484557D01*
X0175416Y0484552D01*
X0175357Y0484543D01*
X0175298Y0484530D01*
X0175239Y0484514D01*
X0175182Y0484494D01*
X0175127Y0484471D01*
X0175072Y0484444D01*
X0175020Y0484415D01*
X0174969Y0484382D01*
X0174920Y0484346D01*
X0174874Y0484308D01*
X0174830Y0484266D01*
X0174788Y0484222D01*
X0174750Y0484176D01*
X0174714Y0484127D01*
X0174681Y0484076D01*
X0174652Y0484024D01*
X0174625Y0483969D01*
X0174602Y0483914D01*
X0174582Y0483857D01*
X0174566Y0483798D01*
X0174553Y0483739D01*
X0174544Y0483680D01*
X0174539Y0483619D01*
X0174537Y0483559D01*
X0174537Y0430459D01*
X0174539Y0430399D01*
X0174544Y0430338D01*
X0174553Y0430279D01*
X0174566Y0430220D01*
X0174582Y0430161D01*
X0174602Y0430104D01*
X0174625Y0430049D01*
X0174652Y0429994D01*
X0174681Y0429942D01*
X0174714Y0429891D01*
X0174750Y0429842D01*
X0174788Y0429796D01*
X0174830Y0429752D01*
X0174874Y0429710D01*
X0174920Y0429672D01*
X0174969Y0429636D01*
X0175020Y0429603D01*
X0175072Y0429574D01*
X0175127Y0429547D01*
X0175182Y0429524D01*
X0175239Y0429504D01*
X0175298Y0429488D01*
X0175357Y0429475D01*
X0175416Y0429466D01*
X0175477Y0429461D01*
X0175537Y0429459D01*
X0228637Y0429459D01*
X0228697Y0429461D01*
X0228758Y0429466D01*
X0228817Y0429475D01*
X0228876Y0429488D01*
X0228935Y0429504D01*
X0228992Y0429524D01*
X0229047Y0429547D01*
X0229102Y0429574D01*
X0229154Y0429603D01*
X0229205Y0429636D01*
X0229254Y0429672D01*
X0229300Y0429710D01*
X0229344Y0429752D01*
X0229386Y0429796D01*
X0229424Y0429842D01*
X0229460Y0429891D01*
X0229493Y0429942D01*
X0229522Y0429994D01*
X0229549Y0430049D01*
X0229572Y0430104D01*
X0229592Y0430161D01*
X0229608Y0430220D01*
X0229621Y0430279D01*
X0229630Y0430338D01*
X0229635Y0430399D01*
X0229637Y0430459D01*
X0229637Y0483559D01*
X0229635Y0483619D01*
X0229630Y0483680D01*
X0229621Y0483739D01*
X0229608Y0483798D01*
X0229592Y0483857D01*
X0229572Y0483914D01*
X0229549Y0483969D01*
X0229522Y0484024D01*
X0229493Y0484076D01*
X0229460Y0484127D01*
X0229424Y0484176D01*
X0229386Y0484222D01*
X0229344Y0484266D01*
X0229300Y0484308D01*
X0229254Y0484346D01*
X0229205Y0484382D01*
X0229154Y0484415D01*
X0229102Y0484444D01*
X0229047Y0484471D01*
X0228992Y0484494D01*
X0228935Y0484514D01*
X0228876Y0484530D01*
X0228817Y0484543D01*
X0228758Y0484552D01*
X0228697Y0484557D01*
X0228637Y0484559D01*
X0250341Y0428456D02*
X0303441Y0428456D01*
X0303501Y0428454D01*
X0303562Y0428449D01*
X0303621Y0428440D01*
X0303680Y0428427D01*
X0303739Y0428411D01*
X0303796Y0428391D01*
X0303851Y0428368D01*
X0303906Y0428341D01*
X0303958Y0428312D01*
X0304009Y0428279D01*
X0304058Y0428243D01*
X0304104Y0428205D01*
X0304148Y0428163D01*
X0304190Y0428119D01*
X0304228Y0428073D01*
X0304264Y0428024D01*
X0304297Y0427973D01*
X0304326Y0427921D01*
X0304353Y0427866D01*
X0304376Y0427811D01*
X0304396Y0427754D01*
X0304412Y0427695D01*
X0304425Y0427636D01*
X0304434Y0427577D01*
X0304439Y0427516D01*
X0304441Y0427456D01*
X0304441Y0374356D01*
X0304439Y0374296D01*
X0304434Y0374235D01*
X0304425Y0374176D01*
X0304412Y0374117D01*
X0304396Y0374058D01*
X0304376Y0374001D01*
X0304353Y0373946D01*
X0304326Y0373891D01*
X0304297Y0373839D01*
X0304264Y0373788D01*
X0304228Y0373739D01*
X0304190Y0373693D01*
X0304148Y0373649D01*
X0304104Y0373607D01*
X0304058Y0373569D01*
X0304009Y0373533D01*
X0303958Y0373500D01*
X0303906Y0373471D01*
X0303851Y0373444D01*
X0303796Y0373421D01*
X0303739Y0373401D01*
X0303680Y0373385D01*
X0303621Y0373372D01*
X0303562Y0373363D01*
X0303501Y0373358D01*
X0303441Y0373356D01*
X0250341Y0373356D01*
X0250281Y0373358D01*
X0250220Y0373363D01*
X0250161Y0373372D01*
X0250102Y0373385D01*
X0250043Y0373401D01*
X0249986Y0373421D01*
X0249931Y0373444D01*
X0249876Y0373471D01*
X0249824Y0373500D01*
X0249773Y0373533D01*
X0249724Y0373569D01*
X0249678Y0373607D01*
X0249634Y0373649D01*
X0249592Y0373693D01*
X0249554Y0373739D01*
X0249518Y0373788D01*
X0249485Y0373839D01*
X0249456Y0373891D01*
X0249429Y0373946D01*
X0249406Y0374001D01*
X0249386Y0374058D01*
X0249370Y0374117D01*
X0249357Y0374176D01*
X0249348Y0374235D01*
X0249343Y0374296D01*
X0249341Y0374356D01*
X0249341Y0427456D01*
X0249343Y0427516D01*
X0249348Y0427577D01*
X0249357Y0427636D01*
X0249370Y0427695D01*
X0249386Y0427754D01*
X0249406Y0427811D01*
X0249429Y0427866D01*
X0249456Y0427921D01*
X0249485Y0427973D01*
X0249518Y0428024D01*
X0249554Y0428073D01*
X0249592Y0428119D01*
X0249634Y0428163D01*
X0249678Y0428205D01*
X0249724Y0428243D01*
X0249773Y0428279D01*
X0249824Y0428312D01*
X0249876Y0428341D01*
X0249931Y0428368D01*
X0249986Y0428391D01*
X0250043Y0428411D01*
X0250102Y0428427D01*
X0250161Y0428440D01*
X0250220Y0428449D01*
X0250281Y0428454D01*
X0250341Y0428456D01*
X0229637Y0408756D02*
X0229637Y0355656D01*
X0229635Y0355596D01*
X0229630Y0355535D01*
X0229621Y0355476D01*
X0229608Y0355417D01*
X0229592Y0355358D01*
X0229572Y0355301D01*
X0229549Y0355246D01*
X0229522Y0355191D01*
X0229493Y0355139D01*
X0229460Y0355088D01*
X0229424Y0355039D01*
X0229386Y0354993D01*
X0229344Y0354949D01*
X0229300Y0354907D01*
X0229254Y0354869D01*
X0229205Y0354833D01*
X0229154Y0354800D01*
X0229102Y0354771D01*
X0229047Y0354744D01*
X0228992Y0354721D01*
X0228935Y0354701D01*
X0228876Y0354685D01*
X0228817Y0354672D01*
X0228758Y0354663D01*
X0228697Y0354658D01*
X0228637Y0354656D01*
X0175537Y0354656D01*
X0175477Y0354658D01*
X0175416Y0354663D01*
X0175357Y0354672D01*
X0175298Y0354685D01*
X0175239Y0354701D01*
X0175182Y0354721D01*
X0175127Y0354744D01*
X0175072Y0354771D01*
X0175020Y0354800D01*
X0174969Y0354833D01*
X0174920Y0354869D01*
X0174874Y0354907D01*
X0174830Y0354949D01*
X0174788Y0354993D01*
X0174750Y0355039D01*
X0174714Y0355088D01*
X0174681Y0355139D01*
X0174652Y0355191D01*
X0174625Y0355246D01*
X0174602Y0355301D01*
X0174582Y0355358D01*
X0174566Y0355417D01*
X0174553Y0355476D01*
X0174544Y0355535D01*
X0174539Y0355596D01*
X0174537Y0355656D01*
X0174537Y0408756D01*
X0174539Y0408816D01*
X0174544Y0408877D01*
X0174553Y0408936D01*
X0174566Y0408995D01*
X0174582Y0409054D01*
X0174602Y0409111D01*
X0174625Y0409166D01*
X0174652Y0409221D01*
X0174681Y0409273D01*
X0174714Y0409324D01*
X0174750Y0409373D01*
X0174788Y0409419D01*
X0174830Y0409463D01*
X0174874Y0409505D01*
X0174920Y0409543D01*
X0174969Y0409579D01*
X0175020Y0409612D01*
X0175072Y0409641D01*
X0175127Y0409668D01*
X0175182Y0409691D01*
X0175239Y0409711D01*
X0175298Y0409727D01*
X0175357Y0409740D01*
X0175416Y0409749D01*
X0175477Y0409754D01*
X0175537Y0409756D01*
X0228637Y0409756D01*
X0228697Y0409754D01*
X0228758Y0409749D01*
X0228817Y0409740D01*
X0228876Y0409727D01*
X0228935Y0409711D01*
X0228992Y0409691D01*
X0229047Y0409668D01*
X0229102Y0409641D01*
X0229154Y0409612D01*
X0229205Y0409579D01*
X0229254Y0409543D01*
X0229300Y0409505D01*
X0229344Y0409463D01*
X0229386Y0409419D01*
X0229424Y0409373D01*
X0229460Y0409324D01*
X0229493Y0409273D01*
X0229522Y0409221D01*
X0229549Y0409166D01*
X0229572Y0409111D01*
X0229592Y0409054D01*
X0229608Y0408995D01*
X0229621Y0408936D01*
X0229630Y0408877D01*
X0229635Y0408816D01*
X0229637Y0408756D01*
X0154834Y0411758D02*
X0154834Y0464858D01*
X0154832Y0464918D01*
X0154827Y0464979D01*
X0154818Y0465038D01*
X0154805Y0465097D01*
X0154789Y0465156D01*
X0154769Y0465213D01*
X0154746Y0465268D01*
X0154719Y0465323D01*
X0154690Y0465375D01*
X0154657Y0465426D01*
X0154621Y0465475D01*
X0154583Y0465521D01*
X0154541Y0465565D01*
X0154497Y0465607D01*
X0154451Y0465645D01*
X0154402Y0465681D01*
X0154351Y0465714D01*
X0154299Y0465743D01*
X0154244Y0465770D01*
X0154189Y0465793D01*
X0154132Y0465813D01*
X0154073Y0465829D01*
X0154014Y0465842D01*
X0153955Y0465851D01*
X0153894Y0465856D01*
X0153834Y0465858D01*
X0100734Y0465858D01*
X0100674Y0465856D01*
X0100613Y0465851D01*
X0100554Y0465842D01*
X0100495Y0465829D01*
X0100436Y0465813D01*
X0100379Y0465793D01*
X0100324Y0465770D01*
X0100269Y0465743D01*
X0100217Y0465714D01*
X0100166Y0465681D01*
X0100117Y0465645D01*
X0100071Y0465607D01*
X0100027Y0465565D01*
X0099985Y0465521D01*
X0099947Y0465475D01*
X0099911Y0465426D01*
X0099878Y0465375D01*
X0099849Y0465323D01*
X0099822Y0465268D01*
X0099799Y0465213D01*
X0099779Y0465156D01*
X0099763Y0465097D01*
X0099750Y0465038D01*
X0099741Y0464979D01*
X0099736Y0464918D01*
X0099734Y0464858D01*
X0099734Y0411758D01*
X0099736Y0411698D01*
X0099741Y0411637D01*
X0099750Y0411578D01*
X0099763Y0411519D01*
X0099779Y0411460D01*
X0099799Y0411403D01*
X0099822Y0411348D01*
X0099849Y0411293D01*
X0099878Y0411241D01*
X0099911Y0411190D01*
X0099947Y0411141D01*
X0099985Y0411095D01*
X0100027Y0411051D01*
X0100071Y0411009D01*
X0100117Y0410971D01*
X0100166Y0410935D01*
X0100217Y0410902D01*
X0100269Y0410873D01*
X0100324Y0410846D01*
X0100379Y0410823D01*
X0100436Y0410803D01*
X0100495Y0410787D01*
X0100554Y0410774D01*
X0100613Y0410765D01*
X0100674Y0410760D01*
X0100734Y0410758D01*
X0153834Y0410758D01*
X0153894Y0410760D01*
X0153955Y0410765D01*
X0154014Y0410774D01*
X0154073Y0410787D01*
X0154132Y0410803D01*
X0154189Y0410823D01*
X0154244Y0410846D01*
X0154299Y0410873D01*
X0154351Y0410902D01*
X0154402Y0410935D01*
X0154451Y0410971D01*
X0154497Y0411009D01*
X0154541Y0411051D01*
X0154583Y0411095D01*
X0154621Y0411141D01*
X0154657Y0411190D01*
X0154690Y0411241D01*
X0154719Y0411293D01*
X0154746Y0411348D01*
X0154769Y0411403D01*
X0154789Y0411460D01*
X0154805Y0411519D01*
X0154818Y0411578D01*
X0154827Y0411637D01*
X0154832Y0411698D01*
X0154834Y0411758D01*
X0153834Y0391055D02*
X0100734Y0391055D01*
X0100674Y0391053D01*
X0100613Y0391048D01*
X0100554Y0391039D01*
X0100495Y0391026D01*
X0100436Y0391010D01*
X0100379Y0390990D01*
X0100324Y0390967D01*
X0100269Y0390940D01*
X0100217Y0390911D01*
X0100166Y0390878D01*
X0100117Y0390842D01*
X0100071Y0390804D01*
X0100027Y0390762D01*
X0099985Y0390718D01*
X0099947Y0390672D01*
X0099911Y0390623D01*
X0099878Y0390572D01*
X0099849Y0390520D01*
X0099822Y0390465D01*
X0099799Y0390410D01*
X0099779Y0390353D01*
X0099763Y0390294D01*
X0099750Y0390235D01*
X0099741Y0390176D01*
X0099736Y0390115D01*
X0099734Y0390055D01*
X0099734Y0336955D01*
X0099736Y0336895D01*
X0099741Y0336834D01*
X0099750Y0336775D01*
X0099763Y0336716D01*
X0099779Y0336657D01*
X0099799Y0336600D01*
X0099822Y0336545D01*
X0099849Y0336490D01*
X0099878Y0336438D01*
X0099911Y0336387D01*
X0099947Y0336338D01*
X0099985Y0336292D01*
X0100027Y0336248D01*
X0100071Y0336206D01*
X0100117Y0336168D01*
X0100166Y0336132D01*
X0100217Y0336099D01*
X0100269Y0336070D01*
X0100324Y0336043D01*
X0100379Y0336020D01*
X0100436Y0336000D01*
X0100495Y0335984D01*
X0100554Y0335971D01*
X0100613Y0335962D01*
X0100674Y0335957D01*
X0100734Y0335955D01*
X0153834Y0335955D01*
X0153894Y0335957D01*
X0153955Y0335962D01*
X0154014Y0335971D01*
X0154073Y0335984D01*
X0154132Y0336000D01*
X0154189Y0336020D01*
X0154244Y0336043D01*
X0154299Y0336070D01*
X0154351Y0336099D01*
X0154402Y0336132D01*
X0154451Y0336168D01*
X0154497Y0336206D01*
X0154541Y0336248D01*
X0154583Y0336292D01*
X0154621Y0336338D01*
X0154657Y0336387D01*
X0154690Y0336438D01*
X0154719Y0336490D01*
X0154746Y0336545D01*
X0154769Y0336600D01*
X0154789Y0336657D01*
X0154805Y0336716D01*
X0154818Y0336775D01*
X0154827Y0336834D01*
X0154832Y0336895D01*
X0154834Y0336955D01*
X0154834Y0390055D01*
X0154832Y0390115D01*
X0154827Y0390176D01*
X0154818Y0390235D01*
X0154805Y0390294D01*
X0154789Y0390353D01*
X0154769Y0390410D01*
X0154746Y0390465D01*
X0154719Y0390520D01*
X0154690Y0390572D01*
X0154657Y0390623D01*
X0154621Y0390672D01*
X0154583Y0390718D01*
X0154541Y0390762D01*
X0154497Y0390804D01*
X0154451Y0390842D01*
X0154402Y0390878D01*
X0154351Y0390911D01*
X0154299Y0390940D01*
X0154244Y0390967D01*
X0154189Y0390990D01*
X0154132Y0391010D01*
X0154073Y0391026D01*
X0154014Y0391039D01*
X0153955Y0391048D01*
X0153894Y0391053D01*
X0153834Y0391055D01*
X0153834Y0316252D02*
X0100734Y0316252D01*
X0100674Y0316250D01*
X0100613Y0316245D01*
X0100554Y0316236D01*
X0100495Y0316223D01*
X0100436Y0316207D01*
X0100379Y0316187D01*
X0100324Y0316164D01*
X0100269Y0316137D01*
X0100217Y0316108D01*
X0100166Y0316075D01*
X0100117Y0316039D01*
X0100071Y0316001D01*
X0100027Y0315959D01*
X0099985Y0315915D01*
X0099947Y0315869D01*
X0099911Y0315820D01*
X0099878Y0315769D01*
X0099849Y0315717D01*
X0099822Y0315662D01*
X0099799Y0315607D01*
X0099779Y0315550D01*
X0099763Y0315491D01*
X0099750Y0315432D01*
X0099741Y0315373D01*
X0099736Y0315312D01*
X0099734Y0315252D01*
X0099734Y0262152D01*
X0099736Y0262092D01*
X0099741Y0262031D01*
X0099750Y0261972D01*
X0099763Y0261913D01*
X0099779Y0261854D01*
X0099799Y0261797D01*
X0099822Y0261742D01*
X0099849Y0261687D01*
X0099878Y0261635D01*
X0099911Y0261584D01*
X0099947Y0261535D01*
X0099985Y0261489D01*
X0100027Y0261445D01*
X0100071Y0261403D01*
X0100117Y0261365D01*
X0100166Y0261329D01*
X0100217Y0261296D01*
X0100269Y0261267D01*
X0100324Y0261240D01*
X0100379Y0261217D01*
X0100436Y0261197D01*
X0100495Y0261181D01*
X0100554Y0261168D01*
X0100613Y0261159D01*
X0100674Y0261154D01*
X0100734Y0261152D01*
X0153834Y0261152D01*
X0153894Y0261154D01*
X0153955Y0261159D01*
X0154014Y0261168D01*
X0154073Y0261181D01*
X0154132Y0261197D01*
X0154189Y0261217D01*
X0154244Y0261240D01*
X0154299Y0261267D01*
X0154351Y0261296D01*
X0154402Y0261329D01*
X0154451Y0261365D01*
X0154497Y0261403D01*
X0154541Y0261445D01*
X0154583Y0261489D01*
X0154621Y0261535D01*
X0154657Y0261584D01*
X0154690Y0261635D01*
X0154719Y0261687D01*
X0154746Y0261742D01*
X0154769Y0261797D01*
X0154789Y0261854D01*
X0154805Y0261913D01*
X0154818Y0261972D01*
X0154827Y0262031D01*
X0154832Y0262092D01*
X0154834Y0262152D01*
X0154834Y0315252D01*
X0154832Y0315312D01*
X0154827Y0315373D01*
X0154818Y0315432D01*
X0154805Y0315491D01*
X0154789Y0315550D01*
X0154769Y0315607D01*
X0154746Y0315662D01*
X0154719Y0315717D01*
X0154690Y0315769D01*
X0154657Y0315820D01*
X0154621Y0315869D01*
X0154583Y0315915D01*
X0154541Y0315959D01*
X0154497Y0316001D01*
X0154451Y0316039D01*
X0154402Y0316075D01*
X0154351Y0316108D01*
X0154299Y0316137D01*
X0154244Y0316164D01*
X0154189Y0316187D01*
X0154132Y0316207D01*
X0154073Y0316223D01*
X0154014Y0316236D01*
X0153955Y0316245D01*
X0153894Y0316250D01*
X0153834Y0316252D01*
X0153834Y0207984D02*
X0100734Y0207984D01*
X0100674Y0207982D01*
X0100613Y0207977D01*
X0100554Y0207968D01*
X0100495Y0207955D01*
X0100436Y0207939D01*
X0100379Y0207919D01*
X0100324Y0207896D01*
X0100269Y0207869D01*
X0100217Y0207840D01*
X0100166Y0207807D01*
X0100117Y0207771D01*
X0100071Y0207733D01*
X0100027Y0207691D01*
X0099985Y0207647D01*
X0099947Y0207601D01*
X0099911Y0207552D01*
X0099878Y0207501D01*
X0099849Y0207449D01*
X0099822Y0207394D01*
X0099799Y0207339D01*
X0099779Y0207282D01*
X0099763Y0207223D01*
X0099750Y0207164D01*
X0099741Y0207105D01*
X0099736Y0207044D01*
X0099734Y0206984D01*
X0099734Y0153884D01*
X0099736Y0153824D01*
X0099741Y0153763D01*
X0099750Y0153704D01*
X0099763Y0153645D01*
X0099779Y0153586D01*
X0099799Y0153529D01*
X0099822Y0153474D01*
X0099849Y0153419D01*
X0099878Y0153367D01*
X0099911Y0153316D01*
X0099947Y0153267D01*
X0099985Y0153221D01*
X0100027Y0153177D01*
X0100071Y0153135D01*
X0100117Y0153097D01*
X0100166Y0153061D01*
X0100217Y0153028D01*
X0100269Y0152999D01*
X0100324Y0152972D01*
X0100379Y0152949D01*
X0100436Y0152929D01*
X0100495Y0152913D01*
X0100554Y0152900D01*
X0100613Y0152891D01*
X0100674Y0152886D01*
X0100734Y0152884D01*
X0153834Y0152884D01*
X0153894Y0152886D01*
X0153955Y0152891D01*
X0154014Y0152900D01*
X0154073Y0152913D01*
X0154132Y0152929D01*
X0154189Y0152949D01*
X0154244Y0152972D01*
X0154299Y0152999D01*
X0154351Y0153028D01*
X0154402Y0153061D01*
X0154451Y0153097D01*
X0154497Y0153135D01*
X0154541Y0153177D01*
X0154583Y0153221D01*
X0154621Y0153267D01*
X0154657Y0153316D01*
X0154690Y0153367D01*
X0154719Y0153419D01*
X0154746Y0153474D01*
X0154769Y0153529D01*
X0154789Y0153586D01*
X0154805Y0153645D01*
X0154818Y0153704D01*
X0154827Y0153763D01*
X0154832Y0153824D01*
X0154834Y0153884D01*
X0154834Y0206984D01*
X0154832Y0207044D01*
X0154827Y0207105D01*
X0154818Y0207164D01*
X0154805Y0207223D01*
X0154789Y0207282D01*
X0154769Y0207339D01*
X0154746Y0207394D01*
X0154719Y0207449D01*
X0154690Y0207501D01*
X0154657Y0207552D01*
X0154621Y0207601D01*
X0154583Y0207647D01*
X0154541Y0207691D01*
X0154497Y0207733D01*
X0154451Y0207771D01*
X0154402Y0207807D01*
X0154351Y0207840D01*
X0154299Y0207869D01*
X0154244Y0207896D01*
X0154189Y0207919D01*
X0154132Y0207939D01*
X0154073Y0207955D01*
X0154014Y0207968D01*
X0153955Y0207977D01*
X0153894Y0207982D01*
X0153834Y0207984D01*
X0153834Y0133181D02*
X0100734Y0133181D01*
X0100674Y0133179D01*
X0100613Y0133174D01*
X0100554Y0133165D01*
X0100495Y0133152D01*
X0100436Y0133136D01*
X0100379Y0133116D01*
X0100324Y0133093D01*
X0100269Y0133066D01*
X0100217Y0133037D01*
X0100166Y0133004D01*
X0100117Y0132968D01*
X0100071Y0132930D01*
X0100027Y0132888D01*
X0099985Y0132844D01*
X0099947Y0132798D01*
X0099911Y0132749D01*
X0099878Y0132698D01*
X0099849Y0132646D01*
X0099822Y0132591D01*
X0099799Y0132536D01*
X0099779Y0132479D01*
X0099763Y0132420D01*
X0099750Y0132361D01*
X0099741Y0132302D01*
X0099736Y0132241D01*
X0099734Y0132181D01*
X0099734Y0079081D01*
X0099736Y0079021D01*
X0099741Y0078960D01*
X0099750Y0078901D01*
X0099763Y0078842D01*
X0099779Y0078783D01*
X0099799Y0078726D01*
X0099822Y0078671D01*
X0099849Y0078616D01*
X0099878Y0078564D01*
X0099911Y0078513D01*
X0099947Y0078464D01*
X0099985Y0078418D01*
X0100027Y0078374D01*
X0100071Y0078332D01*
X0100117Y0078294D01*
X0100166Y0078258D01*
X0100217Y0078225D01*
X0100269Y0078196D01*
X0100324Y0078169D01*
X0100379Y0078146D01*
X0100436Y0078126D01*
X0100495Y0078110D01*
X0100554Y0078097D01*
X0100613Y0078088D01*
X0100674Y0078083D01*
X0100734Y0078081D01*
X0153834Y0078081D01*
X0153894Y0078083D01*
X0153955Y0078088D01*
X0154014Y0078097D01*
X0154073Y0078110D01*
X0154132Y0078126D01*
X0154189Y0078146D01*
X0154244Y0078169D01*
X0154299Y0078196D01*
X0154351Y0078225D01*
X0154402Y0078258D01*
X0154451Y0078294D01*
X0154497Y0078332D01*
X0154541Y0078374D01*
X0154583Y0078418D01*
X0154621Y0078464D01*
X0154657Y0078513D01*
X0154690Y0078564D01*
X0154719Y0078616D01*
X0154746Y0078671D01*
X0154769Y0078726D01*
X0154789Y0078783D01*
X0154805Y0078842D01*
X0154818Y0078901D01*
X0154827Y0078960D01*
X0154832Y0079021D01*
X0154834Y0079081D01*
X0154834Y0132181D01*
X0154832Y0132241D01*
X0154827Y0132302D01*
X0154818Y0132361D01*
X0154805Y0132420D01*
X0154789Y0132479D01*
X0154769Y0132536D01*
X0154746Y0132591D01*
X0154719Y0132646D01*
X0154690Y0132698D01*
X0154657Y0132749D01*
X0154621Y0132798D01*
X0154583Y0132844D01*
X0154541Y0132888D01*
X0154497Y0132930D01*
X0154451Y0132968D01*
X0154402Y0133004D01*
X0154351Y0133037D01*
X0154299Y0133066D01*
X0154244Y0133093D01*
X0154189Y0133116D01*
X0154132Y0133136D01*
X0154073Y0133152D01*
X0154014Y0133165D01*
X0153955Y0133174D01*
X0153894Y0133179D01*
X0153834Y0133181D01*
X0325144Y0354656D02*
X0378244Y0354656D01*
X0378304Y0354658D01*
X0378365Y0354663D01*
X0378424Y0354672D01*
X0378483Y0354685D01*
X0378542Y0354701D01*
X0378599Y0354721D01*
X0378654Y0354744D01*
X0378709Y0354771D01*
X0378761Y0354800D01*
X0378812Y0354833D01*
X0378861Y0354869D01*
X0378907Y0354907D01*
X0378951Y0354949D01*
X0378993Y0354993D01*
X0379031Y0355039D01*
X0379067Y0355088D01*
X0379100Y0355139D01*
X0379129Y0355191D01*
X0379156Y0355246D01*
X0379179Y0355301D01*
X0379199Y0355358D01*
X0379215Y0355417D01*
X0379228Y0355476D01*
X0379237Y0355535D01*
X0379242Y0355596D01*
X0379244Y0355656D01*
X0379244Y0408756D01*
X0379242Y0408816D01*
X0379237Y0408877D01*
X0379228Y0408936D01*
X0379215Y0408995D01*
X0379199Y0409054D01*
X0379179Y0409111D01*
X0379156Y0409166D01*
X0379129Y0409221D01*
X0379100Y0409273D01*
X0379067Y0409324D01*
X0379031Y0409373D01*
X0378993Y0409419D01*
X0378951Y0409463D01*
X0378907Y0409505D01*
X0378861Y0409543D01*
X0378812Y0409579D01*
X0378761Y0409612D01*
X0378709Y0409641D01*
X0378654Y0409668D01*
X0378599Y0409691D01*
X0378542Y0409711D01*
X0378483Y0409727D01*
X0378424Y0409740D01*
X0378365Y0409749D01*
X0378304Y0409754D01*
X0378244Y0409756D01*
X0325144Y0409756D01*
X0325084Y0409754D01*
X0325023Y0409749D01*
X0324964Y0409740D01*
X0324905Y0409727D01*
X0324846Y0409711D01*
X0324789Y0409691D01*
X0324734Y0409668D01*
X0324679Y0409641D01*
X0324627Y0409612D01*
X0324576Y0409579D01*
X0324527Y0409543D01*
X0324481Y0409505D01*
X0324437Y0409463D01*
X0324395Y0409419D01*
X0324357Y0409373D01*
X0324321Y0409324D01*
X0324288Y0409273D01*
X0324259Y0409221D01*
X0324232Y0409166D01*
X0324209Y0409111D01*
X0324189Y0409054D01*
X0324173Y0408995D01*
X0324160Y0408936D01*
X0324151Y0408877D01*
X0324146Y0408816D01*
X0324144Y0408756D01*
X0324144Y0355656D01*
X0324146Y0355596D01*
X0324151Y0355535D01*
X0324160Y0355476D01*
X0324173Y0355417D01*
X0324189Y0355358D01*
X0324209Y0355301D01*
X0324232Y0355246D01*
X0324259Y0355191D01*
X0324288Y0355139D01*
X0324321Y0355088D01*
X0324357Y0355039D01*
X0324395Y0354993D01*
X0324437Y0354949D01*
X0324481Y0354907D01*
X0324527Y0354869D01*
X0324576Y0354833D01*
X0324627Y0354800D01*
X0324679Y0354771D01*
X0324734Y0354744D01*
X0324789Y0354721D01*
X0324846Y0354701D01*
X0324905Y0354685D01*
X0324964Y0354672D01*
X0325023Y0354663D01*
X0325084Y0354658D01*
X0325144Y0354656D01*
X0154834Y0486561D02*
X0154834Y0539661D01*
X0154832Y0539721D01*
X0154827Y0539782D01*
X0154818Y0539841D01*
X0154805Y0539900D01*
X0154789Y0539959D01*
X0154769Y0540016D01*
X0154746Y0540071D01*
X0154719Y0540126D01*
X0154690Y0540178D01*
X0154657Y0540229D01*
X0154621Y0540278D01*
X0154583Y0540324D01*
X0154541Y0540368D01*
X0154497Y0540410D01*
X0154451Y0540448D01*
X0154402Y0540484D01*
X0154351Y0540517D01*
X0154299Y0540546D01*
X0154244Y0540573D01*
X0154189Y0540596D01*
X0154132Y0540616D01*
X0154073Y0540632D01*
X0154014Y0540645D01*
X0153955Y0540654D01*
X0153894Y0540659D01*
X0153834Y0540661D01*
X0100734Y0540661D01*
X0100674Y0540659D01*
X0100613Y0540654D01*
X0100554Y0540645D01*
X0100495Y0540632D01*
X0100436Y0540616D01*
X0100379Y0540596D01*
X0100324Y0540573D01*
X0100269Y0540546D01*
X0100217Y0540517D01*
X0100166Y0540484D01*
X0100117Y0540448D01*
X0100071Y0540410D01*
X0100027Y0540368D01*
X0099985Y0540324D01*
X0099947Y0540278D01*
X0099911Y0540229D01*
X0099878Y0540178D01*
X0099849Y0540126D01*
X0099822Y0540071D01*
X0099799Y0540016D01*
X0099779Y0539959D01*
X0099763Y0539900D01*
X0099750Y0539841D01*
X0099741Y0539782D01*
X0099736Y0539721D01*
X0099734Y0539661D01*
X0099734Y0486561D01*
X0099736Y0486501D01*
X0099741Y0486440D01*
X0099750Y0486381D01*
X0099763Y0486322D01*
X0099779Y0486263D01*
X0099799Y0486206D01*
X0099822Y0486151D01*
X0099849Y0486096D01*
X0099878Y0486044D01*
X0099911Y0485993D01*
X0099947Y0485944D01*
X0099985Y0485898D01*
X0100027Y0485854D01*
X0100071Y0485812D01*
X0100117Y0485774D01*
X0100166Y0485738D01*
X0100217Y0485705D01*
X0100269Y0485676D01*
X0100324Y0485649D01*
X0100379Y0485626D01*
X0100436Y0485606D01*
X0100495Y0485590D01*
X0100554Y0485577D01*
X0100613Y0485568D01*
X0100674Y0485563D01*
X0100734Y0485561D01*
X0153834Y0485561D01*
X0153894Y0485563D01*
X0153955Y0485568D01*
X0154014Y0485577D01*
X0154073Y0485590D01*
X0154132Y0485606D01*
X0154189Y0485626D01*
X0154244Y0485649D01*
X0154299Y0485676D01*
X0154351Y0485705D01*
X0154402Y0485738D01*
X0154451Y0485774D01*
X0154497Y0485812D01*
X0154541Y0485854D01*
X0154583Y0485898D01*
X0154621Y0485944D01*
X0154657Y0485993D01*
X0154690Y0486044D01*
X0154719Y0486096D01*
X0154746Y0486151D01*
X0154769Y0486206D01*
X0154789Y0486263D01*
X0154805Y0486322D01*
X0154818Y0486381D01*
X0154827Y0486440D01*
X0154832Y0486501D01*
X0154834Y0486561D01*
D15*
X0333977Y0130434D02*
X0333979Y0130473D01*
X0333985Y0130512D01*
X0333995Y0130550D01*
X0334008Y0130587D01*
X0334025Y0130622D01*
X0334045Y0130656D01*
X0334069Y0130687D01*
X0334096Y0130716D01*
X0334125Y0130742D01*
X0334157Y0130765D01*
X0334191Y0130785D01*
X0334227Y0130801D01*
X0334264Y0130813D01*
X0334303Y0130822D01*
X0334342Y0130827D01*
X0334381Y0130828D01*
X0334420Y0130825D01*
X0334459Y0130818D01*
X0334496Y0130807D01*
X0334533Y0130793D01*
X0334568Y0130775D01*
X0334601Y0130754D01*
X0334632Y0130729D01*
X0334660Y0130702D01*
X0334685Y0130672D01*
X0334707Y0130639D01*
X0334726Y0130605D01*
X0334741Y0130569D01*
X0334753Y0130531D01*
X0334761Y0130493D01*
X0334765Y0130454D01*
X0334765Y0130414D01*
X0334761Y0130375D01*
X0334753Y0130337D01*
X0334741Y0130299D01*
X0334726Y0130263D01*
X0334707Y0130229D01*
X0334685Y0130196D01*
X0334660Y0130166D01*
X0334632Y0130139D01*
X0334601Y0130114D01*
X0334568Y0130093D01*
X0334533Y0130075D01*
X0334496Y0130061D01*
X0334459Y0130050D01*
X0334420Y0130043D01*
X0334381Y0130040D01*
X0334342Y0130041D01*
X0334303Y0130046D01*
X0334264Y0130055D01*
X0334227Y0130067D01*
X0334191Y0130083D01*
X0334157Y0130103D01*
X0334125Y0130126D01*
X0334096Y0130152D01*
X0334069Y0130181D01*
X0334045Y0130212D01*
X0334025Y0130246D01*
X0334008Y0130281D01*
X0333995Y0130318D01*
X0333985Y0130356D01*
X0333979Y0130395D01*
X0333977Y0130434D01*
M02*
