G75*
%MOIN*%
%OFA0B0*%
%FSLAX25Y25*%
%IPPOS*%
%LPD*%
%AMOC8*
5,1,8,0,0,1.08239X$1,22.5*
%
%ADD10C,0.00600*%
%ADD11R,0.02500X0.05000*%
%ADD12R,0.05000X0.02500*%
%ADD13R,0.05512X0.04331*%
%ADD14R,0.02362X0.04331*%
%ADD15R,0.31496X0.31496*%
%ADD16R,0.10630X0.06299*%
%ADD17R,0.06299X0.10630*%
%ADD18R,0.09055X0.04331*%
D10*
X0089883Y0072166D02*
X0089883Y0546576D01*
X0089885Y0546700D01*
X0089891Y0546823D01*
X0089900Y0546947D01*
X0089914Y0547069D01*
X0089931Y0547192D01*
X0089953Y0547314D01*
X0089978Y0547435D01*
X0090007Y0547555D01*
X0090039Y0547674D01*
X0090076Y0547793D01*
X0090116Y0547910D01*
X0090159Y0548025D01*
X0090207Y0548140D01*
X0090258Y0548252D01*
X0090312Y0548363D01*
X0090370Y0548473D01*
X0090431Y0548580D01*
X0090496Y0548686D01*
X0090564Y0548789D01*
X0090635Y0548890D01*
X0090709Y0548989D01*
X0090786Y0549086D01*
X0090867Y0549180D01*
X0090950Y0549271D01*
X0091036Y0549360D01*
X0091125Y0549446D01*
X0091216Y0549529D01*
X0091310Y0549610D01*
X0091407Y0549687D01*
X0091506Y0549761D01*
X0091607Y0549832D01*
X0091710Y0549900D01*
X0091816Y0549965D01*
X0091923Y0550026D01*
X0092033Y0550084D01*
X0092144Y0550138D01*
X0092256Y0550189D01*
X0092371Y0550237D01*
X0092486Y0550280D01*
X0092603Y0550320D01*
X0092722Y0550357D01*
X0092841Y0550389D01*
X0092961Y0550418D01*
X0093082Y0550443D01*
X0093204Y0550465D01*
X0093327Y0550482D01*
X0093449Y0550496D01*
X0093573Y0550505D01*
X0093696Y0550511D01*
X0093820Y0550513D01*
X0164686Y0550513D01*
X0164686Y0565276D01*
X0164688Y0565400D01*
X0164694Y0565523D01*
X0164703Y0565647D01*
X0164717Y0565769D01*
X0164734Y0565892D01*
X0164756Y0566014D01*
X0164781Y0566135D01*
X0164810Y0566255D01*
X0164842Y0566374D01*
X0164879Y0566493D01*
X0164919Y0566610D01*
X0164962Y0566725D01*
X0165010Y0566840D01*
X0165061Y0566952D01*
X0165115Y0567063D01*
X0165173Y0567173D01*
X0165234Y0567280D01*
X0165299Y0567386D01*
X0165367Y0567489D01*
X0165438Y0567590D01*
X0165512Y0567689D01*
X0165589Y0567786D01*
X0165670Y0567880D01*
X0165753Y0567971D01*
X0165839Y0568060D01*
X0165928Y0568146D01*
X0166019Y0568229D01*
X0166113Y0568310D01*
X0166210Y0568387D01*
X0166309Y0568461D01*
X0166410Y0568532D01*
X0166513Y0568600D01*
X0166619Y0568665D01*
X0166726Y0568726D01*
X0166836Y0568784D01*
X0166947Y0568838D01*
X0167059Y0568889D01*
X0167174Y0568937D01*
X0167289Y0568980D01*
X0167406Y0569020D01*
X0167525Y0569057D01*
X0167644Y0569089D01*
X0167764Y0569118D01*
X0167885Y0569143D01*
X0168007Y0569165D01*
X0168130Y0569182D01*
X0168252Y0569196D01*
X0168376Y0569205D01*
X0168499Y0569211D01*
X0168623Y0569213D01*
X0239489Y0569213D01*
X0239489Y0583977D01*
X0239491Y0584101D01*
X0239497Y0584224D01*
X0239506Y0584348D01*
X0239520Y0584470D01*
X0239537Y0584593D01*
X0239559Y0584715D01*
X0239584Y0584836D01*
X0239613Y0584956D01*
X0239645Y0585075D01*
X0239682Y0585194D01*
X0239722Y0585311D01*
X0239765Y0585426D01*
X0239813Y0585541D01*
X0239864Y0585653D01*
X0239918Y0585764D01*
X0239976Y0585874D01*
X0240037Y0585981D01*
X0240102Y0586087D01*
X0240170Y0586190D01*
X0240241Y0586291D01*
X0240315Y0586390D01*
X0240392Y0586487D01*
X0240473Y0586581D01*
X0240556Y0586672D01*
X0240642Y0586761D01*
X0240731Y0586847D01*
X0240822Y0586930D01*
X0240916Y0587011D01*
X0241013Y0587088D01*
X0241112Y0587162D01*
X0241213Y0587233D01*
X0241316Y0587301D01*
X0241422Y0587366D01*
X0241529Y0587427D01*
X0241639Y0587485D01*
X0241750Y0587539D01*
X0241862Y0587590D01*
X0241977Y0587638D01*
X0242092Y0587681D01*
X0242209Y0587721D01*
X0242328Y0587758D01*
X0242447Y0587790D01*
X0242567Y0587819D01*
X0242688Y0587844D01*
X0242810Y0587866D01*
X0242933Y0587883D01*
X0243055Y0587897D01*
X0243179Y0587906D01*
X0243302Y0587912D01*
X0243426Y0587914D01*
X0310355Y0587914D01*
X0310479Y0587912D01*
X0310602Y0587906D01*
X0310726Y0587897D01*
X0310848Y0587883D01*
X0310971Y0587866D01*
X0311093Y0587844D01*
X0311214Y0587819D01*
X0311334Y0587790D01*
X0311453Y0587758D01*
X0311572Y0587721D01*
X0311689Y0587681D01*
X0311804Y0587638D01*
X0311919Y0587590D01*
X0312031Y0587539D01*
X0312142Y0587485D01*
X0312252Y0587427D01*
X0312359Y0587366D01*
X0312465Y0587301D01*
X0312568Y0587233D01*
X0312669Y0587162D01*
X0312768Y0587088D01*
X0312865Y0587011D01*
X0312959Y0586930D01*
X0313050Y0586847D01*
X0313139Y0586761D01*
X0313225Y0586672D01*
X0313308Y0586581D01*
X0313389Y0586487D01*
X0313466Y0586390D01*
X0313540Y0586291D01*
X0313611Y0586190D01*
X0313679Y0586087D01*
X0313744Y0585981D01*
X0313805Y0585874D01*
X0313863Y0585764D01*
X0313917Y0585653D01*
X0313968Y0585541D01*
X0314016Y0585426D01*
X0314059Y0585311D01*
X0314099Y0585194D01*
X0314136Y0585075D01*
X0314168Y0584956D01*
X0314197Y0584836D01*
X0314222Y0584715D01*
X0314244Y0584593D01*
X0314261Y0584470D01*
X0314275Y0584348D01*
X0314284Y0584224D01*
X0314290Y0584101D01*
X0314292Y0583977D01*
X0314292Y0569213D01*
X0385158Y0569213D01*
X0385282Y0569211D01*
X0385405Y0569205D01*
X0385529Y0569196D01*
X0385651Y0569182D01*
X0385774Y0569165D01*
X0385896Y0569143D01*
X0386017Y0569118D01*
X0386137Y0569089D01*
X0386256Y0569057D01*
X0386375Y0569020D01*
X0386492Y0568980D01*
X0386607Y0568937D01*
X0386722Y0568889D01*
X0386834Y0568838D01*
X0386945Y0568784D01*
X0387055Y0568726D01*
X0387162Y0568665D01*
X0387268Y0568600D01*
X0387371Y0568532D01*
X0387472Y0568461D01*
X0387571Y0568387D01*
X0387668Y0568310D01*
X0387762Y0568229D01*
X0387853Y0568146D01*
X0387942Y0568060D01*
X0388028Y0567971D01*
X0388111Y0567880D01*
X0388192Y0567786D01*
X0388269Y0567689D01*
X0388343Y0567590D01*
X0388414Y0567489D01*
X0388482Y0567386D01*
X0388547Y0567280D01*
X0388608Y0567173D01*
X0388666Y0567063D01*
X0388720Y0566952D01*
X0388771Y0566840D01*
X0388819Y0566725D01*
X0388862Y0566610D01*
X0388902Y0566493D01*
X0388939Y0566374D01*
X0388971Y0566255D01*
X0389000Y0566135D01*
X0389025Y0566014D01*
X0389047Y0565892D01*
X0389064Y0565769D01*
X0389078Y0565647D01*
X0389087Y0565523D01*
X0389093Y0565400D01*
X0389095Y0565276D01*
X0389095Y0550513D01*
X0459961Y0550513D01*
X0460085Y0550511D01*
X0460208Y0550505D01*
X0460332Y0550496D01*
X0460454Y0550482D01*
X0460577Y0550465D01*
X0460699Y0550443D01*
X0460820Y0550418D01*
X0460940Y0550389D01*
X0461059Y0550357D01*
X0461178Y0550320D01*
X0461295Y0550280D01*
X0461410Y0550237D01*
X0461525Y0550189D01*
X0461637Y0550138D01*
X0461748Y0550084D01*
X0461858Y0550026D01*
X0461965Y0549965D01*
X0462071Y0549900D01*
X0462174Y0549832D01*
X0462275Y0549761D01*
X0462374Y0549687D01*
X0462471Y0549610D01*
X0462565Y0549529D01*
X0462656Y0549446D01*
X0462745Y0549360D01*
X0462831Y0549271D01*
X0462914Y0549180D01*
X0462995Y0549086D01*
X0463072Y0548989D01*
X0463146Y0548890D01*
X0463217Y0548789D01*
X0463285Y0548686D01*
X0463350Y0548580D01*
X0463411Y0548473D01*
X0463469Y0548363D01*
X0463523Y0548252D01*
X0463574Y0548140D01*
X0463622Y0548025D01*
X0463665Y0547910D01*
X0463705Y0547793D01*
X0463742Y0547674D01*
X0463774Y0547555D01*
X0463803Y0547435D01*
X0463828Y0547314D01*
X0463850Y0547192D01*
X0463867Y0547069D01*
X0463881Y0546947D01*
X0463890Y0546823D01*
X0463896Y0546700D01*
X0463898Y0546576D01*
X0463898Y0414686D01*
X0501300Y0414686D01*
X0501300Y0414685D02*
X0501700Y0414680D01*
X0502099Y0414666D01*
X0502498Y0414642D01*
X0502896Y0414608D01*
X0503293Y0414564D01*
X0503689Y0414511D01*
X0504084Y0414449D01*
X0504477Y0414377D01*
X0504868Y0414295D01*
X0505257Y0414205D01*
X0505644Y0414104D01*
X0506028Y0413995D01*
X0506410Y0413876D01*
X0506788Y0413748D01*
X0507163Y0413610D01*
X0507535Y0413464D01*
X0507903Y0413309D01*
X0508268Y0413145D01*
X0508628Y0412972D01*
X0508984Y0412791D01*
X0509336Y0412601D01*
X0509683Y0412403D01*
X0510025Y0412196D01*
X0510361Y0411981D01*
X0510693Y0411758D01*
X0511019Y0411527D01*
X0511339Y0411288D01*
X0511654Y0411042D01*
X0511962Y0410788D01*
X0512265Y0410527D01*
X0512561Y0410258D01*
X0512850Y0409982D01*
X0513132Y0409700D01*
X0513408Y0409411D01*
X0513677Y0409115D01*
X0513938Y0408812D01*
X0514192Y0408504D01*
X0514438Y0408189D01*
X0514677Y0407869D01*
X0514908Y0407543D01*
X0515131Y0407211D01*
X0515346Y0406875D01*
X0515553Y0406533D01*
X0515751Y0406186D01*
X0515941Y0405834D01*
X0516122Y0405478D01*
X0516295Y0405118D01*
X0516459Y0404753D01*
X0516614Y0404385D01*
X0516760Y0404013D01*
X0516898Y0403638D01*
X0517026Y0403260D01*
X0517145Y0402878D01*
X0517254Y0402494D01*
X0517355Y0402107D01*
X0517445Y0401718D01*
X0517527Y0401327D01*
X0517599Y0400934D01*
X0517661Y0400539D01*
X0517714Y0400143D01*
X0517758Y0399746D01*
X0517792Y0399348D01*
X0517816Y0398949D01*
X0517830Y0398550D01*
X0517835Y0398150D01*
X0517835Y0382206D01*
X0534765Y0382206D01*
X0534889Y0382204D01*
X0535012Y0382198D01*
X0535136Y0382189D01*
X0535258Y0382175D01*
X0535381Y0382158D01*
X0535503Y0382136D01*
X0535624Y0382111D01*
X0535744Y0382082D01*
X0535863Y0382050D01*
X0535982Y0382013D01*
X0536099Y0381973D01*
X0536214Y0381930D01*
X0536329Y0381882D01*
X0536441Y0381831D01*
X0536552Y0381777D01*
X0536662Y0381719D01*
X0536769Y0381658D01*
X0536875Y0381593D01*
X0536978Y0381525D01*
X0537079Y0381454D01*
X0537178Y0381380D01*
X0537275Y0381303D01*
X0537369Y0381222D01*
X0537460Y0381139D01*
X0537549Y0381053D01*
X0537635Y0380964D01*
X0537718Y0380873D01*
X0537799Y0380779D01*
X0537876Y0380682D01*
X0537950Y0380583D01*
X0538021Y0380482D01*
X0538089Y0380379D01*
X0538154Y0380273D01*
X0538215Y0380166D01*
X0538273Y0380056D01*
X0538327Y0379945D01*
X0538378Y0379833D01*
X0538426Y0379718D01*
X0538469Y0379603D01*
X0538509Y0379486D01*
X0538546Y0379367D01*
X0538578Y0379248D01*
X0538607Y0379128D01*
X0538632Y0379007D01*
X0538654Y0378885D01*
X0538671Y0378762D01*
X0538685Y0378640D01*
X0538694Y0378516D01*
X0538700Y0378393D01*
X0538702Y0378269D01*
X0538702Y0072166D01*
X0538700Y0072042D01*
X0538694Y0071919D01*
X0538685Y0071795D01*
X0538671Y0071673D01*
X0538654Y0071550D01*
X0538632Y0071428D01*
X0538607Y0071307D01*
X0538578Y0071187D01*
X0538546Y0071068D01*
X0538509Y0070949D01*
X0538469Y0070832D01*
X0538426Y0070717D01*
X0538378Y0070602D01*
X0538327Y0070490D01*
X0538273Y0070379D01*
X0538215Y0070269D01*
X0538154Y0070162D01*
X0538089Y0070056D01*
X0538021Y0069953D01*
X0537950Y0069852D01*
X0537876Y0069753D01*
X0537799Y0069656D01*
X0537718Y0069562D01*
X0537635Y0069471D01*
X0537549Y0069382D01*
X0537460Y0069296D01*
X0537369Y0069213D01*
X0537275Y0069132D01*
X0537178Y0069055D01*
X0537079Y0068981D01*
X0536978Y0068910D01*
X0536875Y0068842D01*
X0536769Y0068777D01*
X0536662Y0068716D01*
X0536552Y0068658D01*
X0536441Y0068604D01*
X0536329Y0068553D01*
X0536214Y0068505D01*
X0536099Y0068462D01*
X0535982Y0068422D01*
X0535863Y0068385D01*
X0535744Y0068353D01*
X0535624Y0068324D01*
X0535503Y0068299D01*
X0535381Y0068277D01*
X0535258Y0068260D01*
X0535136Y0068246D01*
X0535012Y0068237D01*
X0534889Y0068231D01*
X0534765Y0068229D01*
X0093820Y0068229D01*
X0093696Y0068231D01*
X0093573Y0068237D01*
X0093449Y0068246D01*
X0093327Y0068260D01*
X0093204Y0068277D01*
X0093082Y0068299D01*
X0092961Y0068324D01*
X0092841Y0068353D01*
X0092722Y0068385D01*
X0092603Y0068422D01*
X0092486Y0068462D01*
X0092371Y0068505D01*
X0092256Y0068553D01*
X0092144Y0068604D01*
X0092033Y0068658D01*
X0091923Y0068716D01*
X0091816Y0068777D01*
X0091710Y0068842D01*
X0091607Y0068910D01*
X0091506Y0068981D01*
X0091407Y0069055D01*
X0091310Y0069132D01*
X0091216Y0069213D01*
X0091125Y0069296D01*
X0091036Y0069382D01*
X0090950Y0069471D01*
X0090867Y0069562D01*
X0090786Y0069656D01*
X0090709Y0069753D01*
X0090635Y0069852D01*
X0090564Y0069953D01*
X0090496Y0070056D01*
X0090431Y0070162D01*
X0090370Y0070269D01*
X0090312Y0070379D01*
X0090258Y0070490D01*
X0090207Y0070602D01*
X0090159Y0070717D01*
X0090116Y0070832D01*
X0090076Y0070949D01*
X0090039Y0071068D01*
X0090007Y0071187D01*
X0089978Y0071307D01*
X0089953Y0071428D01*
X0089931Y0071550D01*
X0089914Y0071673D01*
X0089900Y0071795D01*
X0089891Y0071919D01*
X0089885Y0072042D01*
X0089883Y0072166D01*
X0162323Y0140276D02*
X0162341Y0141774D01*
X0162397Y0143270D01*
X0162488Y0144765D01*
X0162617Y0146257D01*
X0162782Y0147746D01*
X0162983Y0149230D01*
X0163221Y0150709D01*
X0163496Y0152181D01*
X0163806Y0153646D01*
X0164152Y0155104D01*
X0164534Y0156552D01*
X0164951Y0157990D01*
X0165403Y0159418D01*
X0165890Y0160834D01*
X0166412Y0162238D01*
X0166968Y0163629D01*
X0167558Y0165005D01*
X0168182Y0166367D01*
X0168839Y0167713D01*
X0169529Y0169043D01*
X0170251Y0170355D01*
X0171005Y0171649D01*
X0171791Y0172924D01*
X0172607Y0174179D01*
X0173455Y0175414D01*
X0174332Y0176628D01*
X0175239Y0177820D01*
X0176175Y0178989D01*
X0177139Y0180135D01*
X0178131Y0181257D01*
X0179151Y0182355D01*
X0180197Y0183426D01*
X0181268Y0184472D01*
X0182366Y0185492D01*
X0183488Y0186484D01*
X0184634Y0187448D01*
X0185803Y0188384D01*
X0186995Y0189291D01*
X0188209Y0190168D01*
X0189444Y0191016D01*
X0190699Y0191832D01*
X0191974Y0192618D01*
X0193268Y0193372D01*
X0194580Y0194094D01*
X0195910Y0194784D01*
X0197256Y0195441D01*
X0198618Y0196065D01*
X0199994Y0196655D01*
X0201385Y0197211D01*
X0202789Y0197733D01*
X0204205Y0198220D01*
X0205633Y0198672D01*
X0207071Y0199089D01*
X0208519Y0199471D01*
X0209977Y0199817D01*
X0211442Y0200127D01*
X0212914Y0200402D01*
X0214393Y0200640D01*
X0215877Y0200841D01*
X0217366Y0201006D01*
X0218858Y0201135D01*
X0220353Y0201226D01*
X0221849Y0201282D01*
X0223347Y0201300D01*
X0224845Y0201282D01*
X0226341Y0201226D01*
X0227836Y0201135D01*
X0229328Y0201006D01*
X0230817Y0200841D01*
X0232301Y0200640D01*
X0233780Y0200402D01*
X0235252Y0200127D01*
X0236717Y0199817D01*
X0238175Y0199471D01*
X0239623Y0199089D01*
X0241061Y0198672D01*
X0242489Y0198220D01*
X0243905Y0197733D01*
X0245309Y0197211D01*
X0246700Y0196655D01*
X0248076Y0196065D01*
X0249438Y0195441D01*
X0250784Y0194784D01*
X0252114Y0194094D01*
X0253426Y0193372D01*
X0254720Y0192618D01*
X0255995Y0191832D01*
X0257250Y0191016D01*
X0258485Y0190168D01*
X0259699Y0189291D01*
X0260891Y0188384D01*
X0262060Y0187448D01*
X0263206Y0186484D01*
X0264328Y0185492D01*
X0265426Y0184472D01*
X0266497Y0183426D01*
X0267543Y0182355D01*
X0268563Y0181257D01*
X0269555Y0180135D01*
X0270519Y0178989D01*
X0271455Y0177820D01*
X0272362Y0176628D01*
X0273239Y0175414D01*
X0274087Y0174179D01*
X0274903Y0172924D01*
X0275689Y0171649D01*
X0276443Y0170355D01*
X0277165Y0169043D01*
X0277855Y0167713D01*
X0278512Y0166367D01*
X0279136Y0165005D01*
X0279726Y0163629D01*
X0280282Y0162238D01*
X0280804Y0160834D01*
X0281291Y0159418D01*
X0281743Y0157990D01*
X0282160Y0156552D01*
X0282542Y0155104D01*
X0282888Y0153646D01*
X0283198Y0152181D01*
X0283473Y0150709D01*
X0283711Y0149230D01*
X0283912Y0147746D01*
X0284077Y0146257D01*
X0284206Y0144765D01*
X0284297Y0143270D01*
X0284353Y0141774D01*
X0284371Y0140276D01*
X0284353Y0138778D01*
X0284297Y0137282D01*
X0284206Y0135787D01*
X0284077Y0134295D01*
X0283912Y0132806D01*
X0283711Y0131322D01*
X0283473Y0129843D01*
X0283198Y0128371D01*
X0282888Y0126906D01*
X0282542Y0125448D01*
X0282160Y0124000D01*
X0281743Y0122562D01*
X0281291Y0121134D01*
X0280804Y0119718D01*
X0280282Y0118314D01*
X0279726Y0116923D01*
X0279136Y0115547D01*
X0278512Y0114185D01*
X0277855Y0112839D01*
X0277165Y0111509D01*
X0276443Y0110197D01*
X0275689Y0108903D01*
X0274903Y0107628D01*
X0274087Y0106373D01*
X0273239Y0105138D01*
X0272362Y0103924D01*
X0271455Y0102732D01*
X0270519Y0101563D01*
X0269555Y0100417D01*
X0268563Y0099295D01*
X0267543Y0098197D01*
X0266497Y0097126D01*
X0265426Y0096080D01*
X0264328Y0095060D01*
X0263206Y0094068D01*
X0262060Y0093104D01*
X0260891Y0092168D01*
X0259699Y0091261D01*
X0258485Y0090384D01*
X0257250Y0089536D01*
X0255995Y0088720D01*
X0254720Y0087934D01*
X0253426Y0087180D01*
X0252114Y0086458D01*
X0250784Y0085768D01*
X0249438Y0085111D01*
X0248076Y0084487D01*
X0246700Y0083897D01*
X0245309Y0083341D01*
X0243905Y0082819D01*
X0242489Y0082332D01*
X0241061Y0081880D01*
X0239623Y0081463D01*
X0238175Y0081081D01*
X0236717Y0080735D01*
X0235252Y0080425D01*
X0233780Y0080150D01*
X0232301Y0079912D01*
X0230817Y0079711D01*
X0229328Y0079546D01*
X0227836Y0079417D01*
X0226341Y0079326D01*
X0224845Y0079270D01*
X0223347Y0079252D01*
X0221849Y0079270D01*
X0220353Y0079326D01*
X0218858Y0079417D01*
X0217366Y0079546D01*
X0215877Y0079711D01*
X0214393Y0079912D01*
X0212914Y0080150D01*
X0211442Y0080425D01*
X0209977Y0080735D01*
X0208519Y0081081D01*
X0207071Y0081463D01*
X0205633Y0081880D01*
X0204205Y0082332D01*
X0202789Y0082819D01*
X0201385Y0083341D01*
X0199994Y0083897D01*
X0198618Y0084487D01*
X0197256Y0085111D01*
X0195910Y0085768D01*
X0194580Y0086458D01*
X0193268Y0087180D01*
X0191974Y0087934D01*
X0190699Y0088720D01*
X0189444Y0089536D01*
X0188209Y0090384D01*
X0186995Y0091261D01*
X0185803Y0092168D01*
X0184634Y0093104D01*
X0183488Y0094068D01*
X0182366Y0095060D01*
X0181268Y0096080D01*
X0180197Y0097126D01*
X0179151Y0098197D01*
X0178131Y0099295D01*
X0177139Y0100417D01*
X0176175Y0101563D01*
X0175239Y0102732D01*
X0174332Y0103924D01*
X0173455Y0105138D01*
X0172607Y0106373D01*
X0171791Y0107628D01*
X0171005Y0108903D01*
X0170251Y0110197D01*
X0169529Y0111509D01*
X0168839Y0112839D01*
X0168182Y0114185D01*
X0167558Y0115547D01*
X0166968Y0116923D01*
X0166412Y0118314D01*
X0165890Y0119718D01*
X0165403Y0121134D01*
X0164951Y0122562D01*
X0164534Y0124000D01*
X0164152Y0125448D01*
X0163806Y0126906D01*
X0163496Y0128371D01*
X0163221Y0129843D01*
X0162983Y0131322D01*
X0162782Y0132806D01*
X0162617Y0134295D01*
X0162488Y0135787D01*
X0162397Y0137282D01*
X0162341Y0138778D01*
X0162323Y0140276D01*
D11*
X0251891Y0284568D03*
X0256221Y0284568D03*
X0260552Y0284568D03*
X0264883Y0284568D03*
X0269213Y0284568D03*
X0273544Y0284568D03*
X0277875Y0284568D03*
X0282206Y0284568D03*
X0286536Y0284568D03*
X0290867Y0284568D03*
X0295198Y0284568D03*
X0299528Y0284568D03*
D12*
X0309174Y0272166D03*
X0309174Y0267835D03*
X0309174Y0263505D03*
X0309174Y0259174D03*
X0309174Y0254843D03*
X0309174Y0250513D03*
X0309174Y0246182D03*
X0309174Y0241851D03*
X0309174Y0237520D03*
X0309174Y0233190D03*
X0309174Y0228859D03*
X0309174Y0224528D03*
X0242245Y0224528D03*
X0242245Y0228859D03*
X0242245Y0233190D03*
X0242245Y0237520D03*
X0242245Y0241851D03*
X0242245Y0246182D03*
X0242245Y0250513D03*
X0242245Y0254843D03*
X0242245Y0259174D03*
X0242245Y0263505D03*
X0242245Y0267835D03*
X0242245Y0272166D03*
D13*
X0495394Y0395001D03*
X0495394Y0401300D03*
X0507206Y0401300D03*
X0507206Y0395001D03*
D14*
X0331024Y0142639D03*
X0323544Y0142639D03*
X0323544Y0131615D03*
X0327284Y0131615D03*
X0331024Y0131615D03*
D15*
X0327284Y0112127D03*
D16*
X0299725Y0137520D03*
X0299725Y0148544D03*
D17*
X0469410Y0389883D03*
X0480434Y0389883D03*
X0480434Y0404450D03*
X0469410Y0404450D03*
D18*
X0493032Y0212914D03*
X0493032Y0199922D03*
X0299725Y0127087D03*
X0299725Y0114095D03*
M02*
