G75*
%MOIN*%
%OFA0B0*%
%FSLAX25Y25*%
%IPPOS*%
%LPD*%
%AMOC8*
5,1,8,0,0,1.08239X$1,22.5*
%
%ADD10C,0.00600*%
%ADD11C,0.00800*%
%ADD12R,0.02756X0.01772*%
%ADD13C,0.02000*%
%ADD14C,0.09250*%
%ADD15C,0.10450*%
%ADD16C,0.20100*%
%ADD17R,0.06337X0.06337*%
%ADD18C,0.06337*%
%ADD19R,0.02900X0.05400*%
%ADD20R,0.05400X0.02900*%
%ADD21R,0.05912X0.04731*%
%ADD22R,0.02762X0.04731*%
%ADD23R,0.11030X0.06699*%
%ADD24R,0.06699X0.11030*%
%ADD25R,0.09455X0.04731*%
%ADD26R,0.06400X0.06400*%
%ADD27C,0.06400*%
%ADD28C,0.09775*%
D10*
X0089883Y0074135D02*
X0089883Y0544607D01*
X0089882Y0544607D02*
X0089884Y0544759D01*
X0089890Y0544911D01*
X0089900Y0545063D01*
X0089913Y0545214D01*
X0089931Y0545365D01*
X0089952Y0545516D01*
X0089978Y0545666D01*
X0090007Y0545815D01*
X0090040Y0545964D01*
X0090077Y0546111D01*
X0090117Y0546258D01*
X0090162Y0546403D01*
X0090210Y0546547D01*
X0090262Y0546690D01*
X0090317Y0546832D01*
X0090376Y0546972D01*
X0090439Y0547111D01*
X0090505Y0547248D01*
X0090575Y0547383D01*
X0090648Y0547516D01*
X0090725Y0547647D01*
X0090805Y0547777D01*
X0090888Y0547904D01*
X0090974Y0548029D01*
X0091064Y0548152D01*
X0091157Y0548272D01*
X0091253Y0548390D01*
X0091352Y0548506D01*
X0091454Y0548619D01*
X0091558Y0548729D01*
X0091666Y0548837D01*
X0091776Y0548941D01*
X0091889Y0549043D01*
X0092005Y0549142D01*
X0092123Y0549238D01*
X0092243Y0549331D01*
X0092366Y0549421D01*
X0092491Y0549507D01*
X0092618Y0549590D01*
X0092748Y0549670D01*
X0092879Y0549747D01*
X0093012Y0549820D01*
X0093147Y0549890D01*
X0093284Y0549956D01*
X0093423Y0550019D01*
X0093563Y0550078D01*
X0093705Y0550133D01*
X0093848Y0550185D01*
X0093992Y0550233D01*
X0094137Y0550278D01*
X0094284Y0550318D01*
X0094431Y0550355D01*
X0094580Y0550388D01*
X0094729Y0550417D01*
X0094879Y0550443D01*
X0095030Y0550464D01*
X0095181Y0550482D01*
X0095332Y0550495D01*
X0095484Y0550505D01*
X0095636Y0550511D01*
X0095788Y0550513D01*
X0163702Y0550513D01*
X0163764Y0550515D01*
X0163825Y0550521D01*
X0163886Y0550530D01*
X0163947Y0550544D01*
X0164006Y0550561D01*
X0164064Y0550582D01*
X0164121Y0550607D01*
X0164176Y0550635D01*
X0164229Y0550666D01*
X0164280Y0550701D01*
X0164329Y0550739D01*
X0164376Y0550780D01*
X0164419Y0550823D01*
X0164460Y0550870D01*
X0164498Y0550919D01*
X0164533Y0550970D01*
X0164564Y0551023D01*
X0164592Y0551078D01*
X0164617Y0551135D01*
X0164638Y0551193D01*
X0164655Y0551252D01*
X0164669Y0551313D01*
X0164678Y0551374D01*
X0164684Y0551435D01*
X0164686Y0551497D01*
X0164686Y0563308D01*
X0164685Y0563308D02*
X0164687Y0563460D01*
X0164693Y0563612D01*
X0164703Y0563764D01*
X0164716Y0563915D01*
X0164734Y0564066D01*
X0164755Y0564217D01*
X0164781Y0564367D01*
X0164810Y0564516D01*
X0164843Y0564665D01*
X0164880Y0564812D01*
X0164920Y0564959D01*
X0164965Y0565104D01*
X0165013Y0565248D01*
X0165065Y0565391D01*
X0165120Y0565533D01*
X0165179Y0565673D01*
X0165242Y0565812D01*
X0165308Y0565949D01*
X0165378Y0566084D01*
X0165451Y0566217D01*
X0165528Y0566348D01*
X0165608Y0566478D01*
X0165691Y0566605D01*
X0165777Y0566730D01*
X0165867Y0566853D01*
X0165960Y0566973D01*
X0166056Y0567091D01*
X0166155Y0567207D01*
X0166257Y0567320D01*
X0166361Y0567430D01*
X0166469Y0567538D01*
X0166579Y0567642D01*
X0166692Y0567744D01*
X0166808Y0567843D01*
X0166926Y0567939D01*
X0167046Y0568032D01*
X0167169Y0568122D01*
X0167294Y0568208D01*
X0167421Y0568291D01*
X0167551Y0568371D01*
X0167682Y0568448D01*
X0167815Y0568521D01*
X0167950Y0568591D01*
X0168087Y0568657D01*
X0168226Y0568720D01*
X0168366Y0568779D01*
X0168508Y0568834D01*
X0168651Y0568886D01*
X0168795Y0568934D01*
X0168940Y0568979D01*
X0169087Y0569019D01*
X0169234Y0569056D01*
X0169383Y0569089D01*
X0169532Y0569118D01*
X0169682Y0569144D01*
X0169833Y0569165D01*
X0169984Y0569183D01*
X0170135Y0569196D01*
X0170287Y0569206D01*
X0170439Y0569212D01*
X0170591Y0569214D01*
X0170591Y0569213D02*
X0238505Y0569213D01*
X0238505Y0569214D02*
X0238567Y0569216D01*
X0238628Y0569222D01*
X0238689Y0569231D01*
X0238750Y0569245D01*
X0238809Y0569262D01*
X0238867Y0569283D01*
X0238924Y0569308D01*
X0238979Y0569336D01*
X0239032Y0569367D01*
X0239083Y0569402D01*
X0239132Y0569440D01*
X0239179Y0569481D01*
X0239222Y0569524D01*
X0239263Y0569571D01*
X0239301Y0569620D01*
X0239336Y0569671D01*
X0239367Y0569724D01*
X0239395Y0569779D01*
X0239420Y0569836D01*
X0239441Y0569894D01*
X0239458Y0569953D01*
X0239472Y0570014D01*
X0239481Y0570075D01*
X0239487Y0570136D01*
X0239489Y0570198D01*
X0239489Y0582009D01*
X0239488Y0582009D02*
X0239490Y0582161D01*
X0239496Y0582313D01*
X0239506Y0582465D01*
X0239519Y0582616D01*
X0239537Y0582767D01*
X0239558Y0582918D01*
X0239584Y0583068D01*
X0239613Y0583217D01*
X0239646Y0583366D01*
X0239683Y0583513D01*
X0239723Y0583660D01*
X0239768Y0583805D01*
X0239816Y0583949D01*
X0239868Y0584092D01*
X0239923Y0584234D01*
X0239982Y0584374D01*
X0240045Y0584513D01*
X0240111Y0584650D01*
X0240181Y0584785D01*
X0240254Y0584918D01*
X0240331Y0585049D01*
X0240411Y0585179D01*
X0240494Y0585306D01*
X0240580Y0585431D01*
X0240670Y0585554D01*
X0240763Y0585674D01*
X0240859Y0585792D01*
X0240958Y0585908D01*
X0241060Y0586021D01*
X0241164Y0586131D01*
X0241272Y0586239D01*
X0241382Y0586343D01*
X0241495Y0586445D01*
X0241611Y0586544D01*
X0241729Y0586640D01*
X0241849Y0586733D01*
X0241972Y0586823D01*
X0242097Y0586909D01*
X0242224Y0586992D01*
X0242354Y0587072D01*
X0242485Y0587149D01*
X0242618Y0587222D01*
X0242753Y0587292D01*
X0242890Y0587358D01*
X0243029Y0587421D01*
X0243169Y0587480D01*
X0243311Y0587535D01*
X0243454Y0587587D01*
X0243598Y0587635D01*
X0243743Y0587680D01*
X0243890Y0587720D01*
X0244037Y0587757D01*
X0244186Y0587790D01*
X0244335Y0587819D01*
X0244485Y0587845D01*
X0244636Y0587866D01*
X0244787Y0587884D01*
X0244938Y0587897D01*
X0245090Y0587907D01*
X0245242Y0587913D01*
X0245394Y0587915D01*
X0245394Y0587914D02*
X0308387Y0587914D01*
X0308387Y0587915D02*
X0308539Y0587913D01*
X0308691Y0587907D01*
X0308843Y0587897D01*
X0308994Y0587884D01*
X0309145Y0587866D01*
X0309296Y0587845D01*
X0309446Y0587819D01*
X0309595Y0587790D01*
X0309744Y0587757D01*
X0309891Y0587720D01*
X0310038Y0587680D01*
X0310183Y0587635D01*
X0310327Y0587587D01*
X0310470Y0587535D01*
X0310612Y0587480D01*
X0310752Y0587421D01*
X0310891Y0587358D01*
X0311028Y0587292D01*
X0311163Y0587222D01*
X0311296Y0587149D01*
X0311427Y0587072D01*
X0311557Y0586992D01*
X0311684Y0586909D01*
X0311809Y0586823D01*
X0311932Y0586733D01*
X0312052Y0586640D01*
X0312170Y0586544D01*
X0312286Y0586445D01*
X0312399Y0586343D01*
X0312509Y0586239D01*
X0312617Y0586131D01*
X0312721Y0586021D01*
X0312823Y0585908D01*
X0312922Y0585792D01*
X0313018Y0585674D01*
X0313111Y0585554D01*
X0313201Y0585431D01*
X0313287Y0585306D01*
X0313370Y0585179D01*
X0313450Y0585049D01*
X0313527Y0584918D01*
X0313600Y0584785D01*
X0313670Y0584650D01*
X0313736Y0584513D01*
X0313799Y0584374D01*
X0313858Y0584234D01*
X0313913Y0584092D01*
X0313965Y0583949D01*
X0314013Y0583805D01*
X0314058Y0583660D01*
X0314098Y0583513D01*
X0314135Y0583366D01*
X0314168Y0583217D01*
X0314197Y0583068D01*
X0314223Y0582918D01*
X0314244Y0582767D01*
X0314262Y0582616D01*
X0314275Y0582465D01*
X0314285Y0582313D01*
X0314291Y0582161D01*
X0314293Y0582009D01*
X0314292Y0582009D02*
X0314292Y0570198D01*
X0314294Y0570136D01*
X0314300Y0570075D01*
X0314309Y0570014D01*
X0314323Y0569953D01*
X0314340Y0569894D01*
X0314361Y0569836D01*
X0314386Y0569779D01*
X0314414Y0569724D01*
X0314445Y0569671D01*
X0314480Y0569620D01*
X0314518Y0569571D01*
X0314559Y0569524D01*
X0314602Y0569481D01*
X0314649Y0569440D01*
X0314698Y0569402D01*
X0314749Y0569367D01*
X0314802Y0569336D01*
X0314857Y0569308D01*
X0314914Y0569283D01*
X0314972Y0569262D01*
X0315031Y0569245D01*
X0315092Y0569231D01*
X0315153Y0569222D01*
X0315214Y0569216D01*
X0315276Y0569214D01*
X0315276Y0569213D02*
X0383190Y0569213D01*
X0383190Y0569214D02*
X0383342Y0569212D01*
X0383494Y0569206D01*
X0383646Y0569196D01*
X0383797Y0569183D01*
X0383948Y0569165D01*
X0384099Y0569144D01*
X0384249Y0569118D01*
X0384398Y0569089D01*
X0384547Y0569056D01*
X0384694Y0569019D01*
X0384841Y0568979D01*
X0384986Y0568934D01*
X0385130Y0568886D01*
X0385273Y0568834D01*
X0385415Y0568779D01*
X0385555Y0568720D01*
X0385694Y0568657D01*
X0385831Y0568591D01*
X0385966Y0568521D01*
X0386099Y0568448D01*
X0386230Y0568371D01*
X0386360Y0568291D01*
X0386487Y0568208D01*
X0386612Y0568122D01*
X0386735Y0568032D01*
X0386855Y0567939D01*
X0386973Y0567843D01*
X0387089Y0567744D01*
X0387202Y0567642D01*
X0387312Y0567538D01*
X0387420Y0567430D01*
X0387524Y0567320D01*
X0387626Y0567207D01*
X0387725Y0567091D01*
X0387821Y0566973D01*
X0387914Y0566853D01*
X0388004Y0566730D01*
X0388090Y0566605D01*
X0388173Y0566478D01*
X0388253Y0566348D01*
X0388330Y0566217D01*
X0388403Y0566084D01*
X0388473Y0565949D01*
X0388539Y0565812D01*
X0388602Y0565673D01*
X0388661Y0565533D01*
X0388716Y0565391D01*
X0388768Y0565248D01*
X0388816Y0565104D01*
X0388861Y0564959D01*
X0388901Y0564812D01*
X0388938Y0564665D01*
X0388971Y0564516D01*
X0389000Y0564367D01*
X0389026Y0564217D01*
X0389047Y0564066D01*
X0389065Y0563915D01*
X0389078Y0563764D01*
X0389088Y0563612D01*
X0389094Y0563460D01*
X0389096Y0563308D01*
X0389095Y0563308D02*
X0389095Y0551497D01*
X0389096Y0551497D02*
X0389098Y0551435D01*
X0389104Y0551374D01*
X0389113Y0551313D01*
X0389127Y0551252D01*
X0389144Y0551193D01*
X0389165Y0551135D01*
X0389190Y0551078D01*
X0389218Y0551023D01*
X0389249Y0550970D01*
X0389284Y0550919D01*
X0389322Y0550870D01*
X0389363Y0550823D01*
X0389406Y0550780D01*
X0389453Y0550739D01*
X0389502Y0550701D01*
X0389553Y0550666D01*
X0389606Y0550635D01*
X0389661Y0550607D01*
X0389718Y0550582D01*
X0389776Y0550561D01*
X0389835Y0550544D01*
X0389896Y0550530D01*
X0389957Y0550521D01*
X0390018Y0550515D01*
X0390080Y0550513D01*
X0457993Y0550513D01*
X0458145Y0550511D01*
X0458297Y0550505D01*
X0458449Y0550495D01*
X0458600Y0550482D01*
X0458751Y0550464D01*
X0458902Y0550443D01*
X0459052Y0550417D01*
X0459201Y0550388D01*
X0459350Y0550355D01*
X0459497Y0550318D01*
X0459644Y0550278D01*
X0459789Y0550233D01*
X0459933Y0550185D01*
X0460076Y0550133D01*
X0460218Y0550078D01*
X0460358Y0550019D01*
X0460497Y0549956D01*
X0460634Y0549890D01*
X0460769Y0549820D01*
X0460902Y0549747D01*
X0461033Y0549670D01*
X0461163Y0549590D01*
X0461290Y0549507D01*
X0461415Y0549421D01*
X0461538Y0549331D01*
X0461658Y0549238D01*
X0461776Y0549142D01*
X0461892Y0549043D01*
X0462005Y0548941D01*
X0462115Y0548837D01*
X0462223Y0548729D01*
X0462327Y0548619D01*
X0462429Y0548506D01*
X0462528Y0548390D01*
X0462624Y0548272D01*
X0462717Y0548152D01*
X0462807Y0548029D01*
X0462893Y0547904D01*
X0462976Y0547777D01*
X0463056Y0547647D01*
X0463133Y0547516D01*
X0463206Y0547383D01*
X0463276Y0547248D01*
X0463342Y0547111D01*
X0463405Y0546972D01*
X0463464Y0546832D01*
X0463519Y0546690D01*
X0463571Y0546547D01*
X0463619Y0546403D01*
X0463664Y0546258D01*
X0463704Y0546111D01*
X0463741Y0545964D01*
X0463774Y0545815D01*
X0463803Y0545666D01*
X0463829Y0545516D01*
X0463850Y0545365D01*
X0463868Y0545214D01*
X0463881Y0545063D01*
X0463891Y0544911D01*
X0463897Y0544759D01*
X0463899Y0544607D01*
X0463898Y0544607D02*
X0463898Y0415670D01*
X0463899Y0415670D02*
X0463901Y0415608D01*
X0463907Y0415547D01*
X0463916Y0415486D01*
X0463930Y0415425D01*
X0463947Y0415366D01*
X0463968Y0415308D01*
X0463993Y0415251D01*
X0464021Y0415196D01*
X0464052Y0415143D01*
X0464087Y0415092D01*
X0464125Y0415043D01*
X0464166Y0414996D01*
X0464209Y0414953D01*
X0464256Y0414912D01*
X0464305Y0414874D01*
X0464356Y0414839D01*
X0464409Y0414808D01*
X0464464Y0414780D01*
X0464521Y0414755D01*
X0464579Y0414734D01*
X0464638Y0414717D01*
X0464699Y0414703D01*
X0464760Y0414694D01*
X0464821Y0414688D01*
X0464883Y0414686D01*
X0501300Y0414686D01*
X0501300Y0414685D02*
X0501700Y0414680D01*
X0502099Y0414666D01*
X0502498Y0414642D01*
X0502896Y0414608D01*
X0503293Y0414564D01*
X0503689Y0414511D01*
X0504084Y0414449D01*
X0504477Y0414377D01*
X0504868Y0414295D01*
X0505257Y0414205D01*
X0505644Y0414104D01*
X0506028Y0413995D01*
X0506410Y0413876D01*
X0506788Y0413748D01*
X0507163Y0413610D01*
X0507535Y0413464D01*
X0507903Y0413309D01*
X0508268Y0413145D01*
X0508628Y0412972D01*
X0508984Y0412791D01*
X0509336Y0412601D01*
X0509683Y0412403D01*
X0510025Y0412196D01*
X0510361Y0411981D01*
X0510693Y0411758D01*
X0511019Y0411527D01*
X0511339Y0411288D01*
X0511654Y0411042D01*
X0511962Y0410788D01*
X0512265Y0410527D01*
X0512561Y0410258D01*
X0512850Y0409982D01*
X0513132Y0409700D01*
X0513408Y0409411D01*
X0513677Y0409115D01*
X0513938Y0408812D01*
X0514192Y0408504D01*
X0514438Y0408189D01*
X0514677Y0407869D01*
X0514908Y0407543D01*
X0515131Y0407211D01*
X0515346Y0406875D01*
X0515553Y0406533D01*
X0515751Y0406186D01*
X0515941Y0405834D01*
X0516122Y0405478D01*
X0516295Y0405118D01*
X0516459Y0404753D01*
X0516614Y0404385D01*
X0516760Y0404013D01*
X0516898Y0403638D01*
X0517026Y0403260D01*
X0517145Y0402878D01*
X0517254Y0402494D01*
X0517355Y0402107D01*
X0517445Y0401718D01*
X0517527Y0401327D01*
X0517599Y0400934D01*
X0517661Y0400539D01*
X0517714Y0400143D01*
X0517758Y0399746D01*
X0517792Y0399348D01*
X0517816Y0398949D01*
X0517830Y0398550D01*
X0517835Y0398150D01*
X0517835Y0383190D01*
X0517836Y0383190D02*
X0517838Y0383128D01*
X0517844Y0383067D01*
X0517853Y0383006D01*
X0517867Y0382945D01*
X0517884Y0382886D01*
X0517905Y0382828D01*
X0517930Y0382771D01*
X0517958Y0382716D01*
X0517989Y0382663D01*
X0518024Y0382612D01*
X0518062Y0382563D01*
X0518103Y0382516D01*
X0518146Y0382473D01*
X0518193Y0382432D01*
X0518242Y0382394D01*
X0518293Y0382359D01*
X0518346Y0382328D01*
X0518401Y0382300D01*
X0518458Y0382275D01*
X0518516Y0382254D01*
X0518575Y0382237D01*
X0518636Y0382223D01*
X0518697Y0382214D01*
X0518758Y0382208D01*
X0518820Y0382206D01*
X0532796Y0382206D01*
X0532948Y0382204D01*
X0533100Y0382198D01*
X0533252Y0382188D01*
X0533403Y0382175D01*
X0533554Y0382157D01*
X0533705Y0382136D01*
X0533855Y0382110D01*
X0534004Y0382081D01*
X0534153Y0382048D01*
X0534300Y0382011D01*
X0534447Y0381971D01*
X0534592Y0381926D01*
X0534736Y0381878D01*
X0534879Y0381826D01*
X0535021Y0381771D01*
X0535161Y0381712D01*
X0535300Y0381649D01*
X0535437Y0381583D01*
X0535572Y0381513D01*
X0535705Y0381440D01*
X0535836Y0381363D01*
X0535966Y0381283D01*
X0536093Y0381200D01*
X0536218Y0381114D01*
X0536341Y0381024D01*
X0536461Y0380931D01*
X0536579Y0380835D01*
X0536695Y0380736D01*
X0536808Y0380634D01*
X0536918Y0380530D01*
X0537026Y0380422D01*
X0537130Y0380312D01*
X0537232Y0380199D01*
X0537331Y0380083D01*
X0537427Y0379965D01*
X0537520Y0379845D01*
X0537610Y0379722D01*
X0537696Y0379597D01*
X0537779Y0379470D01*
X0537859Y0379340D01*
X0537936Y0379209D01*
X0538009Y0379076D01*
X0538079Y0378941D01*
X0538145Y0378804D01*
X0538208Y0378665D01*
X0538267Y0378525D01*
X0538322Y0378383D01*
X0538374Y0378240D01*
X0538422Y0378096D01*
X0538467Y0377951D01*
X0538507Y0377804D01*
X0538544Y0377657D01*
X0538577Y0377508D01*
X0538606Y0377359D01*
X0538632Y0377209D01*
X0538653Y0377058D01*
X0538671Y0376907D01*
X0538684Y0376756D01*
X0538694Y0376604D01*
X0538700Y0376452D01*
X0538702Y0376300D01*
X0538702Y0074135D01*
X0538700Y0073983D01*
X0538694Y0073831D01*
X0538684Y0073679D01*
X0538671Y0073528D01*
X0538653Y0073377D01*
X0538632Y0073226D01*
X0538606Y0073076D01*
X0538577Y0072927D01*
X0538544Y0072778D01*
X0538507Y0072631D01*
X0538467Y0072484D01*
X0538422Y0072339D01*
X0538374Y0072195D01*
X0538322Y0072052D01*
X0538267Y0071910D01*
X0538208Y0071770D01*
X0538145Y0071631D01*
X0538079Y0071494D01*
X0538009Y0071359D01*
X0537936Y0071226D01*
X0537859Y0071095D01*
X0537779Y0070965D01*
X0537696Y0070838D01*
X0537610Y0070713D01*
X0537520Y0070590D01*
X0537427Y0070470D01*
X0537331Y0070352D01*
X0537232Y0070236D01*
X0537130Y0070123D01*
X0537026Y0070013D01*
X0536918Y0069905D01*
X0536808Y0069801D01*
X0536695Y0069699D01*
X0536579Y0069600D01*
X0536461Y0069504D01*
X0536341Y0069411D01*
X0536218Y0069321D01*
X0536093Y0069235D01*
X0535966Y0069152D01*
X0535836Y0069072D01*
X0535705Y0068995D01*
X0535572Y0068922D01*
X0535437Y0068852D01*
X0535300Y0068786D01*
X0535161Y0068723D01*
X0535021Y0068664D01*
X0534879Y0068609D01*
X0534736Y0068557D01*
X0534592Y0068509D01*
X0534447Y0068464D01*
X0534300Y0068424D01*
X0534153Y0068387D01*
X0534004Y0068354D01*
X0533855Y0068325D01*
X0533705Y0068299D01*
X0533554Y0068278D01*
X0533403Y0068260D01*
X0533252Y0068247D01*
X0533100Y0068237D01*
X0532948Y0068231D01*
X0532796Y0068229D01*
X0095788Y0068229D01*
X0095636Y0068231D01*
X0095484Y0068237D01*
X0095332Y0068247D01*
X0095181Y0068260D01*
X0095030Y0068278D01*
X0094879Y0068299D01*
X0094729Y0068325D01*
X0094580Y0068354D01*
X0094431Y0068387D01*
X0094284Y0068424D01*
X0094137Y0068464D01*
X0093992Y0068509D01*
X0093848Y0068557D01*
X0093705Y0068609D01*
X0093563Y0068664D01*
X0093423Y0068723D01*
X0093284Y0068786D01*
X0093147Y0068852D01*
X0093012Y0068922D01*
X0092879Y0068995D01*
X0092748Y0069072D01*
X0092618Y0069152D01*
X0092491Y0069235D01*
X0092366Y0069321D01*
X0092243Y0069411D01*
X0092123Y0069504D01*
X0092005Y0069600D01*
X0091889Y0069699D01*
X0091776Y0069801D01*
X0091666Y0069905D01*
X0091558Y0070013D01*
X0091454Y0070123D01*
X0091352Y0070236D01*
X0091253Y0070352D01*
X0091157Y0070470D01*
X0091064Y0070590D01*
X0090974Y0070713D01*
X0090888Y0070838D01*
X0090805Y0070965D01*
X0090725Y0071095D01*
X0090648Y0071226D01*
X0090575Y0071359D01*
X0090505Y0071494D01*
X0090439Y0071631D01*
X0090376Y0071770D01*
X0090317Y0071910D01*
X0090262Y0072052D01*
X0090210Y0072195D01*
X0090162Y0072339D01*
X0090117Y0072484D01*
X0090077Y0072631D01*
X0090040Y0072778D01*
X0090007Y0072927D01*
X0089978Y0073076D01*
X0089952Y0073226D01*
X0089931Y0073377D01*
X0089913Y0073528D01*
X0089900Y0073679D01*
X0089890Y0073831D01*
X0089884Y0073983D01*
X0089882Y0074135D01*
X0182402Y0081024D02*
X0182402Y0103072D01*
X0182403Y0081024D02*
X0182405Y0080962D01*
X0182411Y0080901D01*
X0182420Y0080840D01*
X0182434Y0080779D01*
X0182451Y0080720D01*
X0182472Y0080662D01*
X0182497Y0080605D01*
X0182525Y0080550D01*
X0182556Y0080497D01*
X0182591Y0080446D01*
X0182629Y0080397D01*
X0182670Y0080350D01*
X0182713Y0080307D01*
X0182760Y0080266D01*
X0182809Y0080228D01*
X0182860Y0080193D01*
X0182913Y0080162D01*
X0182968Y0080134D01*
X0183025Y0080109D01*
X0183083Y0080088D01*
X0183142Y0080071D01*
X0183203Y0080057D01*
X0183264Y0080048D01*
X0183325Y0080042D01*
X0183387Y0080040D01*
X0264095Y0080040D01*
X0264157Y0080042D01*
X0264218Y0080048D01*
X0264279Y0080057D01*
X0264340Y0080071D01*
X0264399Y0080088D01*
X0264457Y0080109D01*
X0264514Y0080134D01*
X0264569Y0080162D01*
X0264622Y0080193D01*
X0264673Y0080228D01*
X0264722Y0080266D01*
X0264769Y0080307D01*
X0264812Y0080350D01*
X0264853Y0080397D01*
X0264891Y0080446D01*
X0264926Y0080497D01*
X0264957Y0080550D01*
X0264985Y0080605D01*
X0265010Y0080662D01*
X0265031Y0080720D01*
X0265048Y0080779D01*
X0265062Y0080840D01*
X0265071Y0080901D01*
X0265077Y0080962D01*
X0265079Y0081024D01*
X0265080Y0081024D02*
X0265080Y0103072D01*
X0265079Y0103072D02*
X0266162Y0104096D01*
X0267219Y0105146D01*
X0268250Y0106222D01*
X0269255Y0107322D01*
X0270232Y0108447D01*
X0271182Y0109595D01*
X0272103Y0110767D01*
X0272995Y0111960D01*
X0273858Y0113175D01*
X0274691Y0114411D01*
X0275493Y0115666D01*
X0276265Y0116941D01*
X0277005Y0118235D01*
X0277713Y0119546D01*
X0278389Y0120874D01*
X0279033Y0122218D01*
X0279643Y0123577D01*
X0280220Y0124951D01*
X0280763Y0126339D01*
X0281272Y0127739D01*
X0281746Y0129152D01*
X0282186Y0130576D01*
X0282591Y0132010D01*
X0282961Y0133453D01*
X0283295Y0134905D01*
X0283594Y0136365D01*
X0283857Y0137832D01*
X0284084Y0139305D01*
X0284275Y0140783D01*
X0284430Y0142265D01*
X0284549Y0143750D01*
X0284631Y0145238D01*
X0284677Y0146727D01*
X0284686Y0148217D01*
X0284659Y0149707D01*
X0284595Y0151196D01*
X0284495Y0152683D01*
X0284359Y0154167D01*
X0284187Y0155647D01*
X0283978Y0157122D01*
X0283734Y0158592D01*
X0283453Y0160056D01*
X0283137Y0161512D01*
X0282785Y0162960D01*
X0282399Y0164399D01*
X0281977Y0165828D01*
X0281520Y0167247D01*
X0281028Y0168654D01*
X0280503Y0170048D01*
X0279943Y0171429D01*
X0279350Y0172796D01*
X0278724Y0174148D01*
X0278064Y0175484D01*
X0277373Y0176804D01*
X0276649Y0178107D01*
X0275893Y0179391D01*
X0275107Y0180657D01*
X0274290Y0181903D01*
X0273442Y0183129D01*
X0272565Y0184333D01*
X0271658Y0185516D01*
X0270723Y0186676D01*
X0269760Y0187813D01*
X0268769Y0188926D01*
X0267752Y0190015D01*
X0266708Y0191078D01*
X0265638Y0192116D01*
X0264544Y0193127D01*
X0263425Y0194111D01*
X0262282Y0195067D01*
X0261116Y0195995D01*
X0259928Y0196895D01*
X0258718Y0197765D01*
X0257488Y0198605D01*
X0256237Y0199415D01*
X0254967Y0200194D01*
X0253678Y0200942D01*
X0252371Y0201658D01*
X0251047Y0202342D01*
X0249707Y0202993D01*
X0248351Y0203611D01*
X0246980Y0204196D01*
X0245596Y0204748D01*
X0244198Y0205265D01*
X0242789Y0205748D01*
X0241368Y0206196D01*
X0239936Y0206610D01*
X0238495Y0206988D01*
X0237045Y0207331D01*
X0235587Y0207639D01*
X0234121Y0207910D01*
X0232650Y0208146D01*
X0231173Y0208346D01*
X0229692Y0208510D01*
X0228208Y0208637D01*
X0226720Y0208728D01*
X0225231Y0208783D01*
X0223741Y0208801D01*
X0222251Y0208783D01*
X0220762Y0208728D01*
X0219274Y0208637D01*
X0217790Y0208510D01*
X0216309Y0208346D01*
X0214832Y0208146D01*
X0213361Y0207910D01*
X0211895Y0207639D01*
X0210437Y0207331D01*
X0208987Y0206988D01*
X0207546Y0206610D01*
X0206114Y0206196D01*
X0204693Y0205748D01*
X0203284Y0205265D01*
X0201886Y0204748D01*
X0200502Y0204196D01*
X0199131Y0203611D01*
X0197775Y0202993D01*
X0196435Y0202342D01*
X0195111Y0201658D01*
X0193804Y0200942D01*
X0192515Y0200194D01*
X0191245Y0199415D01*
X0189994Y0198605D01*
X0188764Y0197765D01*
X0187554Y0196895D01*
X0186366Y0195995D01*
X0185200Y0195067D01*
X0184057Y0194111D01*
X0182938Y0193127D01*
X0181844Y0192116D01*
X0180774Y0191078D01*
X0179730Y0190015D01*
X0178713Y0188926D01*
X0177722Y0187813D01*
X0176759Y0186676D01*
X0175824Y0185516D01*
X0174917Y0184333D01*
X0174040Y0183129D01*
X0173192Y0181903D01*
X0172375Y0180657D01*
X0171589Y0179391D01*
X0170833Y0178107D01*
X0170109Y0176804D01*
X0169418Y0175484D01*
X0168758Y0174148D01*
X0168132Y0172796D01*
X0167539Y0171429D01*
X0166979Y0170048D01*
X0166454Y0168654D01*
X0165962Y0167247D01*
X0165505Y0165828D01*
X0165083Y0164399D01*
X0164697Y0162960D01*
X0164345Y0161512D01*
X0164029Y0160056D01*
X0163748Y0158592D01*
X0163504Y0157122D01*
X0163295Y0155647D01*
X0163123Y0154167D01*
X0162987Y0152683D01*
X0162887Y0151196D01*
X0162823Y0149707D01*
X0162796Y0148217D01*
X0162805Y0146727D01*
X0162851Y0145238D01*
X0162933Y0143750D01*
X0163052Y0142265D01*
X0163207Y0140783D01*
X0163398Y0139305D01*
X0163625Y0137832D01*
X0163888Y0136365D01*
X0164187Y0134905D01*
X0164521Y0133453D01*
X0164891Y0132010D01*
X0165296Y0130576D01*
X0165736Y0129152D01*
X0166210Y0127739D01*
X0166719Y0126339D01*
X0167262Y0124951D01*
X0167839Y0123577D01*
X0168449Y0122218D01*
X0169093Y0120874D01*
X0169769Y0119546D01*
X0170477Y0118235D01*
X0171217Y0116941D01*
X0171989Y0115666D01*
X0172791Y0114411D01*
X0173624Y0113175D01*
X0174487Y0111960D01*
X0175379Y0110767D01*
X0176300Y0109595D01*
X0177250Y0108447D01*
X0178227Y0107322D01*
X0179232Y0106222D01*
X0180263Y0105146D01*
X0181320Y0104096D01*
X0182403Y0103072D01*
D11*
X0424565Y0081497D02*
X0424565Y0076897D01*
X0428654Y0076897D02*
X0428654Y0083030D01*
X0426099Y0083030D01*
X0426021Y0083028D01*
X0425944Y0083022D01*
X0425867Y0083012D01*
X0425790Y0082999D01*
X0425715Y0082981D01*
X0425640Y0082960D01*
X0425567Y0082935D01*
X0425494Y0082906D01*
X0425424Y0082873D01*
X0425355Y0082837D01*
X0425288Y0082798D01*
X0425223Y0082755D01*
X0425161Y0082709D01*
X0425100Y0082660D01*
X0425043Y0082608D01*
X0424988Y0082553D01*
X0424936Y0082496D01*
X0424887Y0082435D01*
X0424841Y0082373D01*
X0424798Y0082308D01*
X0424759Y0082241D01*
X0424723Y0082172D01*
X0424690Y0082102D01*
X0424661Y0082029D01*
X0424636Y0081956D01*
X0424615Y0081881D01*
X0424597Y0081806D01*
X0424584Y0081729D01*
X0424574Y0081652D01*
X0424568Y0081575D01*
X0424566Y0081497D01*
X0432090Y0083030D02*
X0432090Y0076897D01*
X0434973Y0076897D02*
X0435485Y0076897D01*
X0435484Y0076897D02*
X0435562Y0076899D01*
X0435639Y0076905D01*
X0435716Y0076915D01*
X0435793Y0076928D01*
X0435868Y0076946D01*
X0435943Y0076967D01*
X0436016Y0076992D01*
X0436089Y0077021D01*
X0436159Y0077054D01*
X0436228Y0077090D01*
X0436295Y0077129D01*
X0436360Y0077172D01*
X0436422Y0077218D01*
X0436483Y0077267D01*
X0436540Y0077319D01*
X0436595Y0077374D01*
X0436647Y0077431D01*
X0436696Y0077492D01*
X0436742Y0077554D01*
X0436785Y0077619D01*
X0436824Y0077686D01*
X0436860Y0077755D01*
X0436893Y0077825D01*
X0436922Y0077898D01*
X0436947Y0077971D01*
X0436968Y0078046D01*
X0436986Y0078121D01*
X0436999Y0078198D01*
X0437009Y0078275D01*
X0437015Y0078352D01*
X0437017Y0078430D01*
X0437018Y0078430D02*
X0437018Y0086097D01*
X0438040Y0083030D02*
X0434973Y0083030D01*
X0432345Y0085586D02*
X0431834Y0085586D01*
X0431834Y0086097D01*
X0432345Y0086097D01*
X0432345Y0085586D01*
X0439810Y0083030D02*
X0439810Y0082008D01*
X0439810Y0083030D02*
X0442877Y0083030D01*
X0442877Y0076897D01*
X0446505Y0076897D02*
X0446505Y0081497D01*
X0446505Y0080475D02*
X0448805Y0080475D01*
X0446506Y0081497D02*
X0446508Y0081572D01*
X0446513Y0081647D01*
X0446523Y0081722D01*
X0446535Y0081796D01*
X0446552Y0081869D01*
X0446572Y0081942D01*
X0446596Y0082013D01*
X0446623Y0082084D01*
X0446653Y0082152D01*
X0446687Y0082220D01*
X0446724Y0082285D01*
X0446764Y0082349D01*
X0446808Y0082410D01*
X0446854Y0082470D01*
X0446903Y0082527D01*
X0446955Y0082581D01*
X0447010Y0082633D01*
X0447066Y0082682D01*
X0447126Y0082728D01*
X0447187Y0082772D01*
X0447251Y0082812D01*
X0447316Y0082849D01*
X0447384Y0082883D01*
X0447452Y0082913D01*
X0447523Y0082940D01*
X0447594Y0082964D01*
X0447667Y0082984D01*
X0447740Y0083001D01*
X0447814Y0083013D01*
X0447889Y0083023D01*
X0447964Y0083028D01*
X0448039Y0083030D01*
X0450083Y0083030D01*
X0448805Y0080475D02*
X0448889Y0080473D01*
X0448973Y0080467D01*
X0449056Y0080457D01*
X0449139Y0080444D01*
X0449221Y0080426D01*
X0449302Y0080405D01*
X0449382Y0080379D01*
X0449460Y0080351D01*
X0449538Y0080318D01*
X0449613Y0080282D01*
X0449687Y0080242D01*
X0449759Y0080199D01*
X0449829Y0080153D01*
X0449897Y0080103D01*
X0449962Y0080050D01*
X0450025Y0079995D01*
X0450085Y0079936D01*
X0450142Y0079875D01*
X0450196Y0079811D01*
X0450247Y0079744D01*
X0450295Y0079676D01*
X0450340Y0079605D01*
X0450382Y0079532D01*
X0450419Y0079457D01*
X0450454Y0079380D01*
X0450485Y0079302D01*
X0450512Y0079223D01*
X0450535Y0079142D01*
X0450554Y0079061D01*
X0450570Y0078978D01*
X0450582Y0078895D01*
X0450590Y0078812D01*
X0450594Y0078728D01*
X0450594Y0078644D01*
X0450590Y0078560D01*
X0450582Y0078477D01*
X0450570Y0078394D01*
X0450554Y0078311D01*
X0450535Y0078230D01*
X0450512Y0078149D01*
X0450485Y0078070D01*
X0450454Y0077992D01*
X0450419Y0077915D01*
X0450382Y0077840D01*
X0450340Y0077767D01*
X0450295Y0077696D01*
X0450247Y0077628D01*
X0450196Y0077561D01*
X0450142Y0077497D01*
X0450085Y0077436D01*
X0450025Y0077377D01*
X0449962Y0077322D01*
X0449897Y0077269D01*
X0449829Y0077219D01*
X0449759Y0077173D01*
X0449687Y0077130D01*
X0449613Y0077090D01*
X0449538Y0077054D01*
X0449460Y0077021D01*
X0449382Y0076993D01*
X0449302Y0076967D01*
X0449221Y0076946D01*
X0449139Y0076928D01*
X0449056Y0076915D01*
X0448973Y0076905D01*
X0448889Y0076899D01*
X0448805Y0076897D01*
X0446505Y0076897D01*
X0453957Y0076897D02*
X0453957Y0086097D01*
X0457024Y0080986D01*
X0460090Y0086097D01*
X0460090Y0076897D01*
X0467857Y0076897D02*
X0470413Y0076897D01*
X0470488Y0076899D01*
X0470563Y0076904D01*
X0470638Y0076914D01*
X0470712Y0076926D01*
X0470785Y0076943D01*
X0470858Y0076963D01*
X0470929Y0076987D01*
X0471000Y0077014D01*
X0471068Y0077044D01*
X0471136Y0077078D01*
X0471201Y0077115D01*
X0471265Y0077155D01*
X0471326Y0077199D01*
X0471386Y0077245D01*
X0471443Y0077294D01*
X0471497Y0077346D01*
X0471549Y0077401D01*
X0471598Y0077457D01*
X0471644Y0077517D01*
X0471688Y0077578D01*
X0471728Y0077642D01*
X0471765Y0077707D01*
X0471799Y0077775D01*
X0471829Y0077843D01*
X0471856Y0077914D01*
X0471880Y0077985D01*
X0471900Y0078058D01*
X0471917Y0078131D01*
X0471929Y0078205D01*
X0471939Y0078280D01*
X0471944Y0078355D01*
X0471946Y0078430D01*
X0471946Y0080986D01*
X0471946Y0079964D02*
X0467857Y0079964D01*
X0467857Y0080986D01*
X0467858Y0080986D02*
X0467860Y0081075D01*
X0467866Y0081164D01*
X0467875Y0081253D01*
X0467889Y0081341D01*
X0467906Y0081428D01*
X0467928Y0081515D01*
X0467953Y0081601D01*
X0467981Y0081685D01*
X0468014Y0081768D01*
X0468050Y0081850D01*
X0468089Y0081930D01*
X0468132Y0082008D01*
X0468178Y0082084D01*
X0468228Y0082158D01*
X0468280Y0082230D01*
X0468336Y0082300D01*
X0468395Y0082367D01*
X0468457Y0082431D01*
X0468521Y0082493D01*
X0468588Y0082552D01*
X0468658Y0082608D01*
X0468730Y0082660D01*
X0468804Y0082710D01*
X0468880Y0082756D01*
X0468958Y0082799D01*
X0469038Y0082838D01*
X0469120Y0082874D01*
X0469203Y0082907D01*
X0469287Y0082935D01*
X0469373Y0082960D01*
X0469460Y0082982D01*
X0469547Y0082999D01*
X0469635Y0083013D01*
X0469724Y0083022D01*
X0469813Y0083028D01*
X0469902Y0083030D01*
X0469991Y0083028D01*
X0470080Y0083022D01*
X0470169Y0083013D01*
X0470257Y0082999D01*
X0470344Y0082982D01*
X0470431Y0082960D01*
X0470517Y0082935D01*
X0470601Y0082907D01*
X0470684Y0082874D01*
X0470766Y0082838D01*
X0470846Y0082799D01*
X0470924Y0082756D01*
X0471000Y0082710D01*
X0471074Y0082660D01*
X0471146Y0082608D01*
X0471216Y0082552D01*
X0471283Y0082493D01*
X0471347Y0082431D01*
X0471409Y0082367D01*
X0471468Y0082300D01*
X0471524Y0082230D01*
X0471576Y0082158D01*
X0471626Y0082084D01*
X0471672Y0082008D01*
X0471715Y0081930D01*
X0471754Y0081850D01*
X0471790Y0081768D01*
X0471823Y0081685D01*
X0471851Y0081601D01*
X0471876Y0081515D01*
X0471898Y0081428D01*
X0471915Y0081341D01*
X0471929Y0081253D01*
X0471938Y0081164D01*
X0471944Y0081075D01*
X0471946Y0080986D01*
X0475748Y0079452D02*
X0478303Y0080475D01*
X0478369Y0080503D01*
X0478434Y0080536D01*
X0478497Y0080571D01*
X0478557Y0080610D01*
X0478616Y0080652D01*
X0478672Y0080698D01*
X0478725Y0080746D01*
X0478776Y0080797D01*
X0478824Y0080851D01*
X0478869Y0080907D01*
X0478911Y0080966D01*
X0478949Y0081027D01*
X0478985Y0081090D01*
X0479016Y0081155D01*
X0479044Y0081221D01*
X0479069Y0081289D01*
X0479090Y0081358D01*
X0479107Y0081428D01*
X0479120Y0081499D01*
X0479129Y0081570D01*
X0479135Y0081642D01*
X0479136Y0081714D01*
X0479134Y0081786D01*
X0479127Y0081858D01*
X0479117Y0081929D01*
X0479103Y0082000D01*
X0479085Y0082070D01*
X0479063Y0082139D01*
X0479038Y0082206D01*
X0479009Y0082272D01*
X0478976Y0082336D01*
X0478940Y0082399D01*
X0478900Y0082459D01*
X0478858Y0082517D01*
X0478812Y0082573D01*
X0478763Y0082626D01*
X0478712Y0082677D01*
X0478658Y0082724D01*
X0478601Y0082769D01*
X0478542Y0082810D01*
X0478481Y0082848D01*
X0478418Y0082883D01*
X0478353Y0082914D01*
X0478286Y0082942D01*
X0478218Y0082966D01*
X0478149Y0082986D01*
X0478079Y0083003D01*
X0478008Y0083015D01*
X0477936Y0083024D01*
X0477864Y0083029D01*
X0477792Y0083030D01*
X0479070Y0077408D02*
X0478876Y0077341D01*
X0478681Y0077278D01*
X0478484Y0077220D01*
X0478286Y0077167D01*
X0478087Y0077119D01*
X0477887Y0077075D01*
X0477686Y0077036D01*
X0477483Y0077002D01*
X0477281Y0076972D01*
X0477077Y0076947D01*
X0476873Y0076927D01*
X0476668Y0076912D01*
X0476464Y0076902D01*
X0476259Y0076897D01*
X0476187Y0076898D01*
X0476115Y0076903D01*
X0476043Y0076912D01*
X0475972Y0076924D01*
X0475902Y0076941D01*
X0475833Y0076961D01*
X0475765Y0076985D01*
X0475698Y0077013D01*
X0475633Y0077044D01*
X0475570Y0077079D01*
X0475509Y0077117D01*
X0475450Y0077158D01*
X0475393Y0077203D01*
X0475339Y0077250D01*
X0475288Y0077301D01*
X0475239Y0077354D01*
X0475193Y0077410D01*
X0475151Y0077468D01*
X0475111Y0077528D01*
X0475075Y0077591D01*
X0475042Y0077655D01*
X0475013Y0077721D01*
X0474988Y0077788D01*
X0474966Y0077857D01*
X0474948Y0077927D01*
X0474934Y0077998D01*
X0474924Y0078069D01*
X0474917Y0078141D01*
X0474915Y0078213D01*
X0474916Y0078285D01*
X0474922Y0078357D01*
X0474931Y0078428D01*
X0474944Y0078499D01*
X0474961Y0078569D01*
X0474982Y0078638D01*
X0475007Y0078706D01*
X0475035Y0078772D01*
X0475066Y0078837D01*
X0475102Y0078900D01*
X0475140Y0078961D01*
X0475182Y0079020D01*
X0475227Y0079076D01*
X0475275Y0079130D01*
X0475326Y0079181D01*
X0475379Y0079229D01*
X0475435Y0079275D01*
X0475494Y0079317D01*
X0475554Y0079356D01*
X0475617Y0079391D01*
X0475682Y0079424D01*
X0475748Y0079452D01*
X0475492Y0082519D02*
X0475628Y0082578D01*
X0475766Y0082634D01*
X0475904Y0082686D01*
X0476045Y0082735D01*
X0476186Y0082780D01*
X0476328Y0082821D01*
X0476472Y0082859D01*
X0476616Y0082893D01*
X0476761Y0082923D01*
X0476907Y0082950D01*
X0477053Y0082973D01*
X0477201Y0082992D01*
X0477348Y0083007D01*
X0477496Y0083019D01*
X0477644Y0083026D01*
X0477792Y0083030D01*
X0483383Y0076897D02*
X0483588Y0076902D01*
X0483792Y0076912D01*
X0483997Y0076927D01*
X0484201Y0076947D01*
X0484405Y0076972D01*
X0484607Y0077002D01*
X0484810Y0077036D01*
X0485011Y0077075D01*
X0485211Y0077119D01*
X0485410Y0077167D01*
X0485608Y0077220D01*
X0485805Y0077278D01*
X0486000Y0077341D01*
X0486194Y0077408D01*
X0484916Y0083030D02*
X0484768Y0083026D01*
X0484620Y0083019D01*
X0484472Y0083007D01*
X0484325Y0082992D01*
X0484177Y0082973D01*
X0484031Y0082950D01*
X0483885Y0082923D01*
X0483740Y0082893D01*
X0483596Y0082859D01*
X0483452Y0082821D01*
X0483310Y0082780D01*
X0483169Y0082735D01*
X0483028Y0082686D01*
X0482890Y0082634D01*
X0482752Y0082578D01*
X0482616Y0082519D01*
X0484916Y0083030D02*
X0484988Y0083029D01*
X0485060Y0083024D01*
X0485132Y0083015D01*
X0485203Y0083003D01*
X0485273Y0082986D01*
X0485342Y0082966D01*
X0485410Y0082942D01*
X0485477Y0082914D01*
X0485542Y0082883D01*
X0485605Y0082848D01*
X0485666Y0082810D01*
X0485725Y0082769D01*
X0485782Y0082724D01*
X0485836Y0082677D01*
X0485887Y0082626D01*
X0485936Y0082573D01*
X0485982Y0082517D01*
X0486024Y0082459D01*
X0486064Y0082399D01*
X0486100Y0082336D01*
X0486133Y0082272D01*
X0486162Y0082206D01*
X0486187Y0082139D01*
X0486209Y0082070D01*
X0486227Y0082000D01*
X0486241Y0081929D01*
X0486251Y0081858D01*
X0486258Y0081786D01*
X0486260Y0081714D01*
X0486259Y0081642D01*
X0486253Y0081570D01*
X0486244Y0081499D01*
X0486231Y0081428D01*
X0486214Y0081358D01*
X0486193Y0081289D01*
X0486168Y0081221D01*
X0486140Y0081155D01*
X0486109Y0081090D01*
X0486073Y0081027D01*
X0486035Y0080966D01*
X0485993Y0080907D01*
X0485948Y0080851D01*
X0485900Y0080797D01*
X0485849Y0080746D01*
X0485796Y0080698D01*
X0485740Y0080652D01*
X0485681Y0080610D01*
X0485621Y0080571D01*
X0485558Y0080536D01*
X0485493Y0080503D01*
X0485427Y0080475D01*
X0482872Y0079452D01*
X0482806Y0079424D01*
X0482741Y0079391D01*
X0482678Y0079356D01*
X0482618Y0079317D01*
X0482559Y0079275D01*
X0482503Y0079229D01*
X0482450Y0079181D01*
X0482399Y0079130D01*
X0482351Y0079076D01*
X0482306Y0079020D01*
X0482264Y0078961D01*
X0482226Y0078900D01*
X0482190Y0078837D01*
X0482159Y0078772D01*
X0482131Y0078706D01*
X0482106Y0078638D01*
X0482085Y0078569D01*
X0482068Y0078499D01*
X0482055Y0078428D01*
X0482046Y0078357D01*
X0482040Y0078285D01*
X0482039Y0078213D01*
X0482041Y0078141D01*
X0482048Y0078069D01*
X0482058Y0077998D01*
X0482072Y0077927D01*
X0482090Y0077857D01*
X0482112Y0077788D01*
X0482137Y0077721D01*
X0482166Y0077655D01*
X0482199Y0077591D01*
X0482235Y0077528D01*
X0482275Y0077468D01*
X0482317Y0077410D01*
X0482363Y0077354D01*
X0482412Y0077301D01*
X0482463Y0077250D01*
X0482517Y0077203D01*
X0482574Y0077158D01*
X0482633Y0077117D01*
X0482694Y0077079D01*
X0482757Y0077044D01*
X0482822Y0077013D01*
X0482889Y0076985D01*
X0482957Y0076961D01*
X0483026Y0076941D01*
X0483096Y0076924D01*
X0483167Y0076912D01*
X0483239Y0076903D01*
X0483311Y0076898D01*
X0483383Y0076897D01*
X0489229Y0076897D02*
X0491785Y0076897D01*
X0491860Y0076899D01*
X0491935Y0076904D01*
X0492010Y0076914D01*
X0492084Y0076926D01*
X0492157Y0076943D01*
X0492230Y0076963D01*
X0492301Y0076987D01*
X0492372Y0077014D01*
X0492440Y0077044D01*
X0492508Y0077078D01*
X0492573Y0077115D01*
X0492637Y0077155D01*
X0492698Y0077199D01*
X0492758Y0077245D01*
X0492815Y0077294D01*
X0492869Y0077346D01*
X0492921Y0077401D01*
X0492970Y0077457D01*
X0493016Y0077517D01*
X0493060Y0077578D01*
X0493100Y0077642D01*
X0493137Y0077707D01*
X0493171Y0077775D01*
X0493201Y0077843D01*
X0493228Y0077914D01*
X0493252Y0077985D01*
X0493272Y0078058D01*
X0493289Y0078131D01*
X0493301Y0078205D01*
X0493311Y0078280D01*
X0493316Y0078355D01*
X0493318Y0078430D01*
X0493318Y0080986D01*
X0493318Y0079964D02*
X0489229Y0079964D01*
X0489229Y0080986D01*
X0489230Y0080986D02*
X0489232Y0081075D01*
X0489238Y0081164D01*
X0489247Y0081253D01*
X0489261Y0081341D01*
X0489278Y0081428D01*
X0489300Y0081515D01*
X0489325Y0081601D01*
X0489353Y0081685D01*
X0489386Y0081768D01*
X0489422Y0081850D01*
X0489461Y0081930D01*
X0489504Y0082008D01*
X0489550Y0082084D01*
X0489600Y0082158D01*
X0489652Y0082230D01*
X0489708Y0082300D01*
X0489767Y0082367D01*
X0489829Y0082431D01*
X0489893Y0082493D01*
X0489960Y0082552D01*
X0490030Y0082608D01*
X0490102Y0082660D01*
X0490176Y0082710D01*
X0490252Y0082756D01*
X0490330Y0082799D01*
X0490410Y0082838D01*
X0490492Y0082874D01*
X0490575Y0082907D01*
X0490659Y0082935D01*
X0490745Y0082960D01*
X0490832Y0082982D01*
X0490919Y0082999D01*
X0491007Y0083013D01*
X0491096Y0083022D01*
X0491185Y0083028D01*
X0491274Y0083030D01*
X0491363Y0083028D01*
X0491452Y0083022D01*
X0491541Y0083013D01*
X0491629Y0082999D01*
X0491716Y0082982D01*
X0491803Y0082960D01*
X0491889Y0082935D01*
X0491973Y0082907D01*
X0492056Y0082874D01*
X0492138Y0082838D01*
X0492218Y0082799D01*
X0492296Y0082756D01*
X0492372Y0082710D01*
X0492446Y0082660D01*
X0492518Y0082608D01*
X0492588Y0082552D01*
X0492655Y0082493D01*
X0492719Y0082431D01*
X0492781Y0082367D01*
X0492840Y0082300D01*
X0492896Y0082230D01*
X0492948Y0082158D01*
X0492998Y0082084D01*
X0493044Y0082008D01*
X0493087Y0081930D01*
X0493126Y0081850D01*
X0493162Y0081768D01*
X0493195Y0081685D01*
X0493223Y0081601D01*
X0493248Y0081515D01*
X0493270Y0081428D01*
X0493287Y0081341D01*
X0493301Y0081253D01*
X0493310Y0081164D01*
X0493316Y0081075D01*
X0493318Y0080986D01*
X0496652Y0078941D02*
X0496652Y0086097D01*
X0496653Y0078941D02*
X0496655Y0078852D01*
X0496661Y0078763D01*
X0496670Y0078674D01*
X0496684Y0078586D01*
X0496701Y0078499D01*
X0496723Y0078412D01*
X0496748Y0078326D01*
X0496776Y0078242D01*
X0496809Y0078159D01*
X0496845Y0078077D01*
X0496884Y0077997D01*
X0496927Y0077919D01*
X0496973Y0077843D01*
X0497023Y0077769D01*
X0497075Y0077697D01*
X0497131Y0077627D01*
X0497190Y0077560D01*
X0497252Y0077496D01*
X0497316Y0077434D01*
X0497383Y0077375D01*
X0497453Y0077319D01*
X0497525Y0077267D01*
X0497599Y0077217D01*
X0497675Y0077171D01*
X0497753Y0077128D01*
X0497833Y0077089D01*
X0497915Y0077053D01*
X0497998Y0077020D01*
X0498082Y0076992D01*
X0498168Y0076967D01*
X0498255Y0076945D01*
X0498342Y0076928D01*
X0498430Y0076914D01*
X0498519Y0076905D01*
X0498608Y0076899D01*
X0498697Y0076897D01*
X0499719Y0076897D01*
D12*
X0327284Y0128367D03*
D13*
X0312324Y0126891D02*
X0312324Y0089095D01*
X0342245Y0089095D01*
X0342245Y0126891D01*
X0312324Y0126891D01*
X0312324Y0126186D02*
X0342245Y0126186D01*
X0342245Y0124187D02*
X0312324Y0124187D01*
X0312324Y0122189D02*
X0342245Y0122189D01*
X0342245Y0120190D02*
X0312324Y0120190D01*
X0312324Y0118192D02*
X0342245Y0118192D01*
X0342245Y0116193D02*
X0312324Y0116193D01*
X0312324Y0114195D02*
X0342245Y0114195D01*
X0342245Y0112196D02*
X0312324Y0112196D01*
X0312324Y0110198D02*
X0342245Y0110198D01*
X0342245Y0108199D02*
X0312324Y0108199D01*
X0312324Y0106201D02*
X0342245Y0106201D01*
X0342245Y0104202D02*
X0312324Y0104202D01*
X0312324Y0102204D02*
X0342245Y0102204D01*
X0342245Y0100205D02*
X0312324Y0100205D01*
X0312324Y0098207D02*
X0342245Y0098207D01*
X0342245Y0096208D02*
X0312324Y0096208D01*
X0312324Y0094210D02*
X0342245Y0094210D01*
X0342245Y0092211D02*
X0312324Y0092211D01*
X0312324Y0090213D02*
X0342245Y0090213D01*
D14*
X0388368Y0137153D03*
X0396486Y0144840D03*
X0415280Y0138000D03*
X0416559Y0126893D03*
X0471452Y0146715D03*
X0479570Y0154402D03*
X0498364Y0147561D03*
X0499643Y0136454D03*
X0442143Y0197185D03*
X0440864Y0208292D03*
X0422071Y0215132D03*
X0413952Y0207445D03*
X0359059Y0187623D03*
X0357780Y0198730D03*
X0338987Y0205570D03*
X0330868Y0197883D03*
X0411497Y0298702D03*
X0416497Y0308702D03*
X0436497Y0308702D03*
X0441497Y0298702D03*
X0486300Y0280001D03*
X0491300Y0290001D03*
X0511300Y0290001D03*
X0516300Y0280001D03*
X0516300Y0354804D03*
X0511300Y0364804D03*
X0491300Y0364804D03*
X0486300Y0354804D03*
X0441497Y0373505D03*
X0436497Y0383505D03*
X0416497Y0383505D03*
X0411497Y0373505D03*
X0366694Y0392206D03*
X0361694Y0402206D03*
X0341694Y0402206D03*
X0336694Y0392206D03*
X0291891Y0410906D03*
X0286891Y0420906D03*
X0266891Y0420906D03*
X0261891Y0410906D03*
X0217087Y0392206D03*
X0212087Y0402206D03*
X0192087Y0402206D03*
X0187087Y0392206D03*
X0142284Y0373505D03*
X0137284Y0383505D03*
X0117284Y0383505D03*
X0112284Y0373505D03*
X0117284Y0308702D03*
X0112284Y0298702D03*
X0137284Y0308702D03*
X0142284Y0298702D03*
X0187087Y0317402D03*
X0192087Y0327402D03*
X0212087Y0327402D03*
X0217087Y0317402D03*
X0261891Y0336103D03*
X0266891Y0346103D03*
X0286891Y0346103D03*
X0291891Y0336103D03*
X0336694Y0317402D03*
X0341694Y0327402D03*
X0361694Y0327402D03*
X0366694Y0317402D03*
X0411497Y0448308D03*
X0416497Y0458308D03*
X0436497Y0458308D03*
X0441497Y0448308D03*
X0441497Y0523111D03*
X0436497Y0533111D03*
X0416497Y0533111D03*
X0411497Y0523111D03*
X0366694Y0541812D03*
X0361694Y0551812D03*
X0341694Y0551812D03*
X0336694Y0541812D03*
X0291891Y0560513D03*
X0286891Y0570513D03*
X0266891Y0570513D03*
X0261891Y0560513D03*
X0217087Y0541812D03*
X0212087Y0551812D03*
X0192087Y0551812D03*
X0187087Y0541812D03*
X0142284Y0523111D03*
X0137284Y0533111D03*
X0117284Y0533111D03*
X0112284Y0523111D03*
X0117284Y0458308D03*
X0112284Y0448308D03*
X0137284Y0458308D03*
X0142284Y0448308D03*
X0187087Y0467009D03*
X0192087Y0477009D03*
X0212087Y0477009D03*
X0217087Y0467009D03*
X0261891Y0485709D03*
X0266891Y0495709D03*
X0286891Y0495709D03*
X0291891Y0485709D03*
X0336694Y0467009D03*
X0341694Y0477009D03*
X0361694Y0477009D03*
X0366694Y0467009D03*
X0137284Y0200434D03*
X0142284Y0190434D03*
X0117284Y0200434D03*
X0112284Y0190434D03*
X0117284Y0125631D03*
X0112284Y0115631D03*
X0137284Y0125631D03*
X0142284Y0115631D03*
D15*
X0147284Y0105631D03*
X0107284Y0105631D03*
X0107284Y0180434D03*
X0147284Y0180434D03*
X0147284Y0288702D03*
X0182087Y0307402D03*
X0222087Y0307402D03*
X0256891Y0326103D03*
X0296891Y0326103D03*
X0331694Y0307402D03*
X0371694Y0307402D03*
X0406497Y0288702D03*
X0446497Y0288702D03*
X0481300Y0270001D03*
X0521300Y0270001D03*
X0521300Y0344804D03*
X0481300Y0344804D03*
X0446497Y0363505D03*
X0406497Y0363505D03*
X0371694Y0382206D03*
X0331694Y0382206D03*
X0296891Y0400906D03*
X0256891Y0400906D03*
X0222087Y0382206D03*
X0182087Y0382206D03*
X0147284Y0363505D03*
X0107284Y0363505D03*
X0107284Y0438308D03*
X0147284Y0438308D03*
X0182087Y0457009D03*
X0222087Y0457009D03*
X0256891Y0475709D03*
X0296891Y0475709D03*
X0331694Y0457009D03*
X0371694Y0457009D03*
X0406497Y0438308D03*
X0446497Y0438308D03*
X0446497Y0513111D03*
X0406497Y0513111D03*
X0371694Y0531812D03*
X0331694Y0531812D03*
X0296891Y0550513D03*
X0256891Y0550513D03*
X0222087Y0531812D03*
X0182087Y0531812D03*
X0147284Y0513111D03*
X0107284Y0513111D03*
X0107284Y0288702D03*
X0322749Y0190197D03*
X0360337Y0176516D03*
X0405833Y0199758D03*
X0443421Y0186078D03*
X0463333Y0139028D03*
X0500921Y0125347D03*
X0417837Y0115786D03*
X0380249Y0129466D03*
D16*
X0399043Y0122626D03*
X0341543Y0183356D03*
X0424627Y0192918D03*
X0482127Y0132188D03*
X0501300Y0270001D03*
X0501300Y0344804D03*
X0426497Y0363505D03*
X0426497Y0438308D03*
X0426497Y0513111D03*
X0351694Y0531812D03*
X0351694Y0457009D03*
X0276891Y0475709D03*
X0276891Y0550513D03*
X0202087Y0531812D03*
X0202087Y0457009D03*
X0127284Y0438308D03*
X0127284Y0363505D03*
X0127284Y0288702D03*
X0202087Y0307402D03*
X0202087Y0382206D03*
X0276891Y0400906D03*
X0276891Y0326103D03*
X0351694Y0307402D03*
X0351694Y0382206D03*
X0426497Y0288702D03*
X0127284Y0180434D03*
X0127284Y0105631D03*
X0127284Y0513111D03*
D17*
X0514528Y0211654D03*
D18*
X0514528Y0201654D03*
X0514528Y0191654D03*
X0514528Y0181654D03*
D19*
X0301497Y0291457D03*
X0297166Y0291457D03*
X0292835Y0291457D03*
X0288505Y0291457D03*
X0284174Y0291457D03*
X0279843Y0291457D03*
X0275513Y0291457D03*
X0271182Y0291457D03*
X0266851Y0291457D03*
X0262520Y0291457D03*
X0258190Y0291457D03*
X0253859Y0291457D03*
D20*
X0244213Y0279056D03*
X0244213Y0274725D03*
X0244213Y0270394D03*
X0244213Y0266064D03*
X0244213Y0261733D03*
X0244213Y0257402D03*
X0244213Y0253072D03*
X0244213Y0248741D03*
X0244213Y0244410D03*
X0244213Y0240080D03*
X0244213Y0235749D03*
X0244213Y0231418D03*
X0311143Y0231418D03*
X0311143Y0235749D03*
X0311143Y0240080D03*
X0311143Y0244410D03*
X0311143Y0248741D03*
X0311143Y0253072D03*
X0311143Y0257402D03*
X0311143Y0261733D03*
X0311143Y0266064D03*
X0311143Y0270394D03*
X0311143Y0274725D03*
X0311143Y0279056D03*
D21*
X0495394Y0395001D03*
X0495394Y0401300D03*
X0507206Y0401300D03*
X0507206Y0395001D03*
D22*
X0331024Y0142639D03*
X0323544Y0142639D03*
X0323544Y0131615D03*
X0327284Y0131615D03*
X0331024Y0131615D03*
D23*
X0299725Y0137520D03*
X0299725Y0148544D03*
D24*
X0469410Y0389883D03*
X0480434Y0389883D03*
X0480434Y0404450D03*
X0469410Y0404450D03*
D25*
X0504056Y0213111D03*
X0504056Y0200119D03*
X0299725Y0127087D03*
X0299725Y0114095D03*
D26*
X0299331Y0103150D03*
X0493032Y0211654D03*
D27*
X0493032Y0201654D03*
X0299331Y0093150D03*
D28*
X0274922Y0100709D03*
X0172560Y0100709D03*
X0127284Y0143032D03*
X0127284Y0234568D03*
X0223741Y0218820D03*
X0444213Y0146969D03*
X0456024Y0234568D03*
X0426497Y0475709D03*
X0276891Y0513111D03*
X0127284Y0475709D03*
M02*
