%
M48
M72
T01C0.01378
T02C0.03937
%
T01
X21802Y23126
X54073Y47288
X66624Y43959
X74232Y50926
X77551Y70919
X35118Y52484
X101331Y27768
X94732Y12111
T02
X21757Y16533
X31757Y16533
X41757Y16533
X51757Y16533
X61757Y16533
X71757Y16533
X168634Y35275
X168634Y45275
X168634Y55275
X168634Y65275
X71757Y76572
X61757Y76572
X51757Y76572
X41757Y76572
X31757Y76572
X21757Y76572
M30
