G75*
%MOIN*%
%OFA0B0*%
%FSLAX25Y25*%
%IPPOS*%
%LPD*%
%AMOC8*
5,1,8,0,0,1.08239X$1,22.5*
%
%ADD10C,0.00000*%
%ADD11C,0.00600*%
%ADD12C,0.00400*%
%ADD13C,0.00500*%
D10*
X0001757Y0001179D02*
X0001757Y0092320D01*
X0179750Y0092320D01*
X0179750Y0001179D01*
X0001757Y0001179D01*
D11*
X0097975Y0074091D02*
X0098686Y0074091D01*
X0098760Y0074093D01*
X0098835Y0074099D01*
X0098908Y0074109D01*
X0098982Y0074122D01*
X0099054Y0074139D01*
X0099125Y0074161D01*
X0099196Y0074185D01*
X0099264Y0074214D01*
X0099332Y0074246D01*
X0099397Y0074282D01*
X0099460Y0074320D01*
X0099522Y0074363D01*
X0099581Y0074408D01*
X0099638Y0074456D01*
X0099692Y0074507D01*
X0099743Y0074561D01*
X0099791Y0074618D01*
X0099836Y0074677D01*
X0099879Y0074739D01*
X0099917Y0074802D01*
X0099953Y0074867D01*
X0099985Y0074935D01*
X0100014Y0075003D01*
X0100038Y0075074D01*
X0100060Y0075145D01*
X0100077Y0075217D01*
X0100090Y0075291D01*
X0100100Y0075364D01*
X0100106Y0075439D01*
X0100108Y0075513D01*
X0100109Y0075513D02*
X0100109Y0080491D01*
X0102836Y0076936D02*
X0102836Y0075158D01*
X0102836Y0076225D02*
X0105681Y0076225D01*
X0105681Y0076936D01*
X0105680Y0076936D02*
X0105678Y0077010D01*
X0105672Y0077085D01*
X0105662Y0077158D01*
X0105649Y0077232D01*
X0105632Y0077304D01*
X0105610Y0077375D01*
X0105586Y0077446D01*
X0105557Y0077514D01*
X0105525Y0077582D01*
X0105489Y0077647D01*
X0105451Y0077710D01*
X0105408Y0077772D01*
X0105363Y0077831D01*
X0105315Y0077888D01*
X0105264Y0077942D01*
X0105210Y0077993D01*
X0105153Y0078041D01*
X0105094Y0078086D01*
X0105032Y0078129D01*
X0104969Y0078167D01*
X0104904Y0078203D01*
X0104836Y0078235D01*
X0104768Y0078264D01*
X0104697Y0078288D01*
X0104626Y0078310D01*
X0104554Y0078327D01*
X0104480Y0078340D01*
X0104407Y0078350D01*
X0104332Y0078356D01*
X0104258Y0078358D01*
X0104184Y0078356D01*
X0104109Y0078350D01*
X0104036Y0078340D01*
X0103962Y0078327D01*
X0103890Y0078310D01*
X0103819Y0078288D01*
X0103748Y0078264D01*
X0103680Y0078235D01*
X0103612Y0078203D01*
X0103547Y0078167D01*
X0103484Y0078129D01*
X0103422Y0078086D01*
X0103363Y0078041D01*
X0103306Y0077993D01*
X0103252Y0077942D01*
X0103201Y0077888D01*
X0103153Y0077831D01*
X0103108Y0077772D01*
X0103065Y0077710D01*
X0103027Y0077647D01*
X0102991Y0077582D01*
X0102959Y0077514D01*
X0102930Y0077446D01*
X0102906Y0077375D01*
X0102884Y0077304D01*
X0102867Y0077232D01*
X0102854Y0077158D01*
X0102844Y0077085D01*
X0102838Y0077010D01*
X0102836Y0076936D01*
X0102836Y0075158D02*
X0102838Y0075094D01*
X0102844Y0075029D01*
X0102853Y0074966D01*
X0102867Y0074903D01*
X0102884Y0074841D01*
X0102905Y0074780D01*
X0102930Y0074720D01*
X0102958Y0074662D01*
X0102990Y0074606D01*
X0103025Y0074552D01*
X0103063Y0074500D01*
X0103104Y0074450D01*
X0103149Y0074404D01*
X0103195Y0074359D01*
X0103245Y0074318D01*
X0103297Y0074280D01*
X0103351Y0074245D01*
X0103407Y0074213D01*
X0103465Y0074185D01*
X0103525Y0074160D01*
X0103586Y0074139D01*
X0103648Y0074122D01*
X0103711Y0074108D01*
X0103774Y0074099D01*
X0103839Y0074093D01*
X0103903Y0074091D01*
X0105681Y0074091D01*
X0109059Y0078359D02*
X0109177Y0078355D01*
X0109294Y0078348D01*
X0109412Y0078338D01*
X0109529Y0078324D01*
X0109645Y0078307D01*
X0109761Y0078287D01*
X0109877Y0078263D01*
X0109992Y0078236D01*
X0110106Y0078205D01*
X0110218Y0078171D01*
X0110330Y0078134D01*
X0110441Y0078093D01*
X0110551Y0078050D01*
X0110659Y0078003D01*
X0109058Y0078358D02*
X0108999Y0078357D01*
X0108939Y0078352D01*
X0108881Y0078343D01*
X0108822Y0078331D01*
X0108765Y0078314D01*
X0108709Y0078295D01*
X0108654Y0078271D01*
X0108601Y0078244D01*
X0108550Y0078214D01*
X0108501Y0078180D01*
X0108454Y0078144D01*
X0108410Y0078104D01*
X0108368Y0078062D01*
X0108329Y0078017D01*
X0108293Y0077969D01*
X0108260Y0077920D01*
X0108231Y0077868D01*
X0108204Y0077815D01*
X0108182Y0077760D01*
X0108163Y0077703D01*
X0108147Y0077646D01*
X0108136Y0077588D01*
X0108128Y0077529D01*
X0108124Y0077469D01*
X0108123Y0077410D01*
X0108127Y0077350D01*
X0108134Y0077291D01*
X0108146Y0077233D01*
X0108161Y0077175D01*
X0108179Y0077119D01*
X0108202Y0077064D01*
X0108227Y0077010D01*
X0108257Y0076958D01*
X0108289Y0076908D01*
X0108325Y0076861D01*
X0108363Y0076815D01*
X0108405Y0076773D01*
X0108449Y0076733D01*
X0108495Y0076696D01*
X0108544Y0076662D01*
X0108595Y0076631D01*
X0108648Y0076604D01*
X0108703Y0076580D01*
X0110481Y0075869D01*
X0110480Y0075869D02*
X0110535Y0075845D01*
X0110588Y0075818D01*
X0110639Y0075787D01*
X0110688Y0075753D01*
X0110734Y0075716D01*
X0110778Y0075676D01*
X0110820Y0075634D01*
X0110858Y0075588D01*
X0110894Y0075541D01*
X0110926Y0075491D01*
X0110956Y0075439D01*
X0110981Y0075385D01*
X0111004Y0075330D01*
X0111022Y0075274D01*
X0111037Y0075216D01*
X0111049Y0075158D01*
X0111056Y0075099D01*
X0111060Y0075039D01*
X0111059Y0074980D01*
X0111055Y0074920D01*
X0111047Y0074861D01*
X0111036Y0074803D01*
X0111020Y0074746D01*
X0111001Y0074689D01*
X0110979Y0074634D01*
X0110952Y0074581D01*
X0110923Y0074529D01*
X0110890Y0074480D01*
X0110854Y0074432D01*
X0110815Y0074387D01*
X0110773Y0074345D01*
X0110729Y0074305D01*
X0110682Y0074269D01*
X0110633Y0074235D01*
X0110582Y0074205D01*
X0110529Y0074178D01*
X0110474Y0074154D01*
X0110418Y0074135D01*
X0110361Y0074118D01*
X0110302Y0074106D01*
X0110244Y0074097D01*
X0110184Y0074092D01*
X0110125Y0074091D01*
X0114392Y0078359D02*
X0114510Y0078355D01*
X0114627Y0078348D01*
X0114745Y0078338D01*
X0114862Y0078324D01*
X0114978Y0078307D01*
X0115094Y0078287D01*
X0115210Y0078263D01*
X0115325Y0078236D01*
X0115439Y0078205D01*
X0115551Y0078171D01*
X0115663Y0078134D01*
X0115774Y0078093D01*
X0115884Y0078050D01*
X0115992Y0078003D01*
X0114392Y0078358D02*
X0114333Y0078357D01*
X0114273Y0078352D01*
X0114215Y0078343D01*
X0114156Y0078331D01*
X0114099Y0078314D01*
X0114043Y0078295D01*
X0113988Y0078271D01*
X0113935Y0078244D01*
X0113884Y0078214D01*
X0113835Y0078180D01*
X0113788Y0078144D01*
X0113744Y0078104D01*
X0113702Y0078062D01*
X0113663Y0078017D01*
X0113627Y0077969D01*
X0113594Y0077920D01*
X0113565Y0077868D01*
X0113538Y0077815D01*
X0113516Y0077760D01*
X0113497Y0077703D01*
X0113481Y0077646D01*
X0113470Y0077588D01*
X0113462Y0077529D01*
X0113458Y0077469D01*
X0113457Y0077410D01*
X0113461Y0077350D01*
X0113468Y0077291D01*
X0113480Y0077233D01*
X0113495Y0077175D01*
X0113513Y0077119D01*
X0113536Y0077064D01*
X0113561Y0077010D01*
X0113591Y0076958D01*
X0113623Y0076908D01*
X0113659Y0076861D01*
X0113697Y0076815D01*
X0113739Y0076773D01*
X0113783Y0076733D01*
X0113829Y0076696D01*
X0113878Y0076662D01*
X0113929Y0076631D01*
X0113982Y0076604D01*
X0114037Y0076580D01*
X0115814Y0075869D01*
X0115869Y0075845D01*
X0115922Y0075818D01*
X0115973Y0075787D01*
X0116022Y0075753D01*
X0116068Y0075716D01*
X0116112Y0075676D01*
X0116154Y0075634D01*
X0116192Y0075588D01*
X0116228Y0075541D01*
X0116260Y0075491D01*
X0116290Y0075439D01*
X0116315Y0075385D01*
X0116338Y0075330D01*
X0116356Y0075274D01*
X0116371Y0075216D01*
X0116383Y0075158D01*
X0116390Y0075099D01*
X0116394Y0075039D01*
X0116393Y0074980D01*
X0116389Y0074920D01*
X0116381Y0074861D01*
X0116370Y0074803D01*
X0116354Y0074746D01*
X0116335Y0074689D01*
X0116313Y0074634D01*
X0116286Y0074581D01*
X0116257Y0074529D01*
X0116224Y0074480D01*
X0116188Y0074432D01*
X0116149Y0074387D01*
X0116107Y0074345D01*
X0116063Y0074305D01*
X0116016Y0074269D01*
X0115967Y0074235D01*
X0115916Y0074205D01*
X0115863Y0074178D01*
X0115808Y0074154D01*
X0115752Y0074135D01*
X0115695Y0074118D01*
X0115636Y0074106D01*
X0115578Y0074097D01*
X0115518Y0074092D01*
X0115459Y0074091D01*
X0118837Y0075158D02*
X0118837Y0076936D01*
X0118837Y0076225D02*
X0121681Y0076225D01*
X0121681Y0076936D01*
X0121679Y0077010D01*
X0121673Y0077085D01*
X0121663Y0077158D01*
X0121650Y0077232D01*
X0121633Y0077304D01*
X0121611Y0077375D01*
X0121587Y0077446D01*
X0121558Y0077514D01*
X0121526Y0077582D01*
X0121490Y0077647D01*
X0121452Y0077710D01*
X0121409Y0077772D01*
X0121364Y0077831D01*
X0121316Y0077888D01*
X0121265Y0077942D01*
X0121211Y0077993D01*
X0121154Y0078041D01*
X0121095Y0078086D01*
X0121033Y0078129D01*
X0120970Y0078167D01*
X0120905Y0078203D01*
X0120837Y0078235D01*
X0120769Y0078264D01*
X0120698Y0078288D01*
X0120627Y0078310D01*
X0120555Y0078327D01*
X0120481Y0078340D01*
X0120408Y0078350D01*
X0120333Y0078356D01*
X0120259Y0078358D01*
X0120185Y0078356D01*
X0120110Y0078350D01*
X0120037Y0078340D01*
X0119963Y0078327D01*
X0119891Y0078310D01*
X0119820Y0078288D01*
X0119749Y0078264D01*
X0119681Y0078235D01*
X0119613Y0078203D01*
X0119548Y0078167D01*
X0119485Y0078129D01*
X0119423Y0078086D01*
X0119364Y0078041D01*
X0119307Y0077993D01*
X0119253Y0077942D01*
X0119202Y0077888D01*
X0119154Y0077831D01*
X0119109Y0077772D01*
X0119066Y0077710D01*
X0119028Y0077647D01*
X0118992Y0077582D01*
X0118960Y0077514D01*
X0118931Y0077446D01*
X0118907Y0077375D01*
X0118885Y0077304D01*
X0118868Y0077232D01*
X0118855Y0077158D01*
X0118845Y0077085D01*
X0118839Y0077010D01*
X0118837Y0076936D01*
X0118836Y0075158D02*
X0118838Y0075094D01*
X0118844Y0075029D01*
X0118853Y0074966D01*
X0118867Y0074903D01*
X0118884Y0074841D01*
X0118905Y0074780D01*
X0118930Y0074720D01*
X0118958Y0074662D01*
X0118990Y0074606D01*
X0119025Y0074552D01*
X0119063Y0074500D01*
X0119104Y0074450D01*
X0119149Y0074404D01*
X0119195Y0074359D01*
X0119245Y0074318D01*
X0119297Y0074280D01*
X0119351Y0074245D01*
X0119407Y0074213D01*
X0119465Y0074185D01*
X0119525Y0074160D01*
X0119586Y0074139D01*
X0119648Y0074122D01*
X0119711Y0074108D01*
X0119774Y0074099D01*
X0119839Y0074093D01*
X0119903Y0074091D01*
X0121681Y0074091D01*
X0127767Y0074091D02*
X0127767Y0080491D01*
X0129900Y0076936D01*
X0132034Y0080491D01*
X0132034Y0074091D01*
X0136053Y0074091D02*
X0137653Y0074091D01*
X0137653Y0077291D01*
X0137653Y0076580D02*
X0136053Y0076580D01*
X0137653Y0077291D02*
X0137651Y0077355D01*
X0137645Y0077420D01*
X0137636Y0077483D01*
X0137622Y0077546D01*
X0137605Y0077608D01*
X0137584Y0077669D01*
X0137559Y0077729D01*
X0137531Y0077787D01*
X0137499Y0077843D01*
X0137464Y0077897D01*
X0137426Y0077949D01*
X0137385Y0077999D01*
X0137340Y0078045D01*
X0137294Y0078090D01*
X0137244Y0078131D01*
X0137192Y0078169D01*
X0137138Y0078204D01*
X0137082Y0078236D01*
X0137024Y0078264D01*
X0136964Y0078289D01*
X0136903Y0078310D01*
X0136841Y0078327D01*
X0136778Y0078341D01*
X0136715Y0078350D01*
X0136650Y0078356D01*
X0136586Y0078358D01*
X0135164Y0078358D01*
X0136053Y0076580D02*
X0135983Y0076578D01*
X0135914Y0076572D01*
X0135845Y0076562D01*
X0135776Y0076549D01*
X0135709Y0076531D01*
X0135642Y0076510D01*
X0135577Y0076485D01*
X0135513Y0076457D01*
X0135451Y0076425D01*
X0135391Y0076389D01*
X0135333Y0076351D01*
X0135277Y0076309D01*
X0135224Y0076264D01*
X0135173Y0076216D01*
X0135125Y0076165D01*
X0135080Y0076112D01*
X0135038Y0076056D01*
X0135000Y0075998D01*
X0134964Y0075938D01*
X0134932Y0075876D01*
X0134904Y0075812D01*
X0134879Y0075747D01*
X0134858Y0075680D01*
X0134840Y0075613D01*
X0134827Y0075544D01*
X0134817Y0075475D01*
X0134811Y0075406D01*
X0134809Y0075336D01*
X0134811Y0075266D01*
X0134817Y0075197D01*
X0134827Y0075128D01*
X0134840Y0075059D01*
X0134858Y0074992D01*
X0134879Y0074925D01*
X0134904Y0074860D01*
X0134932Y0074796D01*
X0134964Y0074734D01*
X0135000Y0074674D01*
X0135038Y0074616D01*
X0135080Y0074560D01*
X0135125Y0074507D01*
X0135173Y0074456D01*
X0135224Y0074408D01*
X0135277Y0074363D01*
X0135333Y0074321D01*
X0135391Y0074283D01*
X0135451Y0074247D01*
X0135513Y0074215D01*
X0135577Y0074187D01*
X0135642Y0074162D01*
X0135709Y0074141D01*
X0135776Y0074123D01*
X0135845Y0074110D01*
X0135914Y0074100D01*
X0135983Y0074094D01*
X0136053Y0074092D01*
X0140614Y0074091D02*
X0140614Y0078358D01*
X0142748Y0078358D01*
X0142748Y0077647D01*
X0144173Y0078358D02*
X0146306Y0078358D01*
X0148567Y0078358D02*
X0148567Y0074091D01*
X0151248Y0074091D02*
X0151248Y0078358D01*
X0153026Y0078358D01*
X0153090Y0078356D01*
X0153155Y0078350D01*
X0153218Y0078341D01*
X0153281Y0078327D01*
X0153343Y0078310D01*
X0153404Y0078289D01*
X0153464Y0078264D01*
X0153522Y0078236D01*
X0153578Y0078204D01*
X0153632Y0078169D01*
X0153684Y0078131D01*
X0153734Y0078090D01*
X0153780Y0078045D01*
X0153825Y0077999D01*
X0153866Y0077949D01*
X0153904Y0077897D01*
X0153939Y0077843D01*
X0153971Y0077787D01*
X0153999Y0077729D01*
X0154024Y0077669D01*
X0154045Y0077608D01*
X0154062Y0077546D01*
X0154076Y0077483D01*
X0154085Y0077420D01*
X0154091Y0077355D01*
X0154093Y0077291D01*
X0154092Y0077291D02*
X0154092Y0074091D01*
X0146306Y0074091D02*
X0145951Y0074091D01*
X0145887Y0074093D01*
X0145822Y0074099D01*
X0145759Y0074108D01*
X0145696Y0074122D01*
X0145634Y0074139D01*
X0145573Y0074160D01*
X0145513Y0074185D01*
X0145455Y0074213D01*
X0145399Y0074245D01*
X0145345Y0074280D01*
X0145293Y0074318D01*
X0145243Y0074359D01*
X0145197Y0074404D01*
X0145152Y0074450D01*
X0145111Y0074500D01*
X0145073Y0074552D01*
X0145038Y0074606D01*
X0145006Y0074662D01*
X0144978Y0074720D01*
X0144953Y0074780D01*
X0144932Y0074841D01*
X0144915Y0074903D01*
X0144901Y0074966D01*
X0144892Y0075029D01*
X0144886Y0075094D01*
X0144884Y0075158D01*
X0144884Y0080491D01*
X0148390Y0080491D02*
X0148745Y0080491D01*
X0148745Y0080136D01*
X0148390Y0080136D01*
X0148390Y0080491D01*
X0115459Y0074092D02*
X0115305Y0074096D01*
X0115152Y0074104D01*
X0114999Y0074116D01*
X0114846Y0074132D01*
X0114694Y0074151D01*
X0114542Y0074175D01*
X0114391Y0074202D01*
X0114241Y0074234D01*
X0114091Y0074269D01*
X0113942Y0074308D01*
X0113795Y0074351D01*
X0113648Y0074397D01*
X0113503Y0074447D01*
X0110125Y0074092D02*
X0109971Y0074096D01*
X0109818Y0074104D01*
X0109665Y0074116D01*
X0109512Y0074132D01*
X0109360Y0074151D01*
X0109208Y0074175D01*
X0109057Y0074202D01*
X0108907Y0074234D01*
X0108757Y0074269D01*
X0108608Y0074308D01*
X0108461Y0074351D01*
X0108314Y0074397D01*
X0108169Y0074447D01*
D12*
X0107758Y0056750D02*
X0105202Y0053939D01*
X0106225Y0054962D02*
X0107758Y0052150D01*
X0109614Y0052150D02*
X0110892Y0052150D01*
X0110947Y0052152D01*
X0111001Y0052158D01*
X0111055Y0052168D01*
X0111108Y0052181D01*
X0111160Y0052198D01*
X0111211Y0052219D01*
X0111260Y0052244D01*
X0111307Y0052272D01*
X0111352Y0052303D01*
X0111394Y0052337D01*
X0111434Y0052375D01*
X0111472Y0052415D01*
X0111506Y0052457D01*
X0111537Y0052502D01*
X0111565Y0052549D01*
X0111590Y0052598D01*
X0111611Y0052649D01*
X0111628Y0052701D01*
X0111641Y0052754D01*
X0111651Y0052808D01*
X0111657Y0052862D01*
X0111659Y0052917D01*
X0111659Y0054450D01*
X0111657Y0054505D01*
X0111651Y0054559D01*
X0111641Y0054613D01*
X0111628Y0054666D01*
X0111611Y0054718D01*
X0111590Y0054769D01*
X0111565Y0054818D01*
X0111537Y0054865D01*
X0111506Y0054910D01*
X0111472Y0054952D01*
X0111434Y0054992D01*
X0111394Y0055030D01*
X0111352Y0055064D01*
X0111307Y0055095D01*
X0111260Y0055123D01*
X0111211Y0055148D01*
X0111160Y0055169D01*
X0111108Y0055186D01*
X0111055Y0055199D01*
X0111001Y0055209D01*
X0110947Y0055215D01*
X0110892Y0055217D01*
X0109614Y0055217D01*
X0109614Y0056750D02*
X0109614Y0052150D01*
X0113468Y0052917D02*
X0113468Y0054450D01*
X0113470Y0054505D01*
X0113476Y0054559D01*
X0113486Y0054613D01*
X0113499Y0054666D01*
X0113516Y0054718D01*
X0113537Y0054769D01*
X0113562Y0054818D01*
X0113590Y0054865D01*
X0113621Y0054910D01*
X0113655Y0054952D01*
X0113693Y0054992D01*
X0113733Y0055030D01*
X0113775Y0055064D01*
X0113820Y0055095D01*
X0113867Y0055123D01*
X0113916Y0055148D01*
X0113967Y0055169D01*
X0114019Y0055186D01*
X0114072Y0055199D01*
X0114126Y0055209D01*
X0114180Y0055215D01*
X0114235Y0055217D01*
X0115513Y0055217D01*
X0115513Y0056750D02*
X0115513Y0052150D01*
X0114235Y0052150D01*
X0114180Y0052152D01*
X0114126Y0052158D01*
X0114072Y0052168D01*
X0114019Y0052181D01*
X0113967Y0052198D01*
X0113916Y0052219D01*
X0113867Y0052244D01*
X0113820Y0052272D01*
X0113775Y0052303D01*
X0113733Y0052337D01*
X0113693Y0052375D01*
X0113655Y0052415D01*
X0113621Y0052457D01*
X0113590Y0052502D01*
X0113562Y0052549D01*
X0113537Y0052598D01*
X0113516Y0052649D01*
X0113499Y0052701D01*
X0113486Y0052754D01*
X0113476Y0052808D01*
X0113470Y0052862D01*
X0113468Y0052917D01*
X0117563Y0049250D02*
X0118841Y0049250D01*
X0117563Y0049250D02*
X0117563Y0044650D01*
X0120119Y0044650D02*
X0119097Y0046695D01*
X0118841Y0046695D02*
X0117563Y0046695D01*
X0118841Y0046695D02*
X0118911Y0046697D01*
X0118982Y0046703D01*
X0119051Y0046712D01*
X0119120Y0046726D01*
X0119189Y0046743D01*
X0119256Y0046764D01*
X0119322Y0046789D01*
X0119386Y0046817D01*
X0119449Y0046849D01*
X0119510Y0046884D01*
X0119569Y0046923D01*
X0119626Y0046964D01*
X0119680Y0047009D01*
X0119732Y0047057D01*
X0119781Y0047107D01*
X0119828Y0047161D01*
X0119871Y0047216D01*
X0119911Y0047274D01*
X0119948Y0047334D01*
X0119981Y0047396D01*
X0120011Y0047460D01*
X0120038Y0047525D01*
X0120061Y0047591D01*
X0120080Y0047659D01*
X0120095Y0047728D01*
X0120107Y0047797D01*
X0120115Y0047867D01*
X0120119Y0047938D01*
X0120119Y0048008D01*
X0120115Y0048079D01*
X0120107Y0048149D01*
X0120095Y0048218D01*
X0120080Y0048287D01*
X0120061Y0048355D01*
X0120038Y0048421D01*
X0120011Y0048486D01*
X0119981Y0048550D01*
X0119948Y0048612D01*
X0119911Y0048672D01*
X0119871Y0048730D01*
X0119828Y0048785D01*
X0119781Y0048839D01*
X0119732Y0048889D01*
X0119680Y0048937D01*
X0119626Y0048982D01*
X0119569Y0049023D01*
X0119510Y0049062D01*
X0119449Y0049097D01*
X0119386Y0049129D01*
X0119322Y0049157D01*
X0119256Y0049182D01*
X0119189Y0049203D01*
X0119120Y0049220D01*
X0119051Y0049234D01*
X0118982Y0049243D01*
X0118911Y0049249D01*
X0118841Y0049251D01*
X0120165Y0052150D02*
X0120165Y0056750D01*
X0121442Y0056750D01*
X0121442Y0056751D02*
X0121512Y0056749D01*
X0121583Y0056743D01*
X0121652Y0056734D01*
X0121721Y0056720D01*
X0121790Y0056703D01*
X0121857Y0056682D01*
X0121923Y0056657D01*
X0121987Y0056629D01*
X0122050Y0056597D01*
X0122111Y0056562D01*
X0122170Y0056523D01*
X0122227Y0056482D01*
X0122281Y0056437D01*
X0122333Y0056389D01*
X0122382Y0056339D01*
X0122429Y0056285D01*
X0122472Y0056230D01*
X0122512Y0056172D01*
X0122549Y0056112D01*
X0122582Y0056050D01*
X0122612Y0055986D01*
X0122639Y0055921D01*
X0122662Y0055855D01*
X0122681Y0055787D01*
X0122696Y0055718D01*
X0122708Y0055649D01*
X0122716Y0055579D01*
X0122720Y0055508D01*
X0122720Y0055438D01*
X0122716Y0055367D01*
X0122708Y0055297D01*
X0122696Y0055228D01*
X0122681Y0055159D01*
X0122662Y0055091D01*
X0122639Y0055025D01*
X0122612Y0054960D01*
X0122582Y0054896D01*
X0122549Y0054834D01*
X0122512Y0054774D01*
X0122472Y0054716D01*
X0122429Y0054661D01*
X0122382Y0054607D01*
X0122333Y0054557D01*
X0122281Y0054509D01*
X0122227Y0054464D01*
X0122170Y0054423D01*
X0122111Y0054384D01*
X0122050Y0054349D01*
X0121987Y0054317D01*
X0121923Y0054289D01*
X0121857Y0054264D01*
X0121790Y0054243D01*
X0121721Y0054226D01*
X0121652Y0054212D01*
X0121583Y0054203D01*
X0121512Y0054197D01*
X0121442Y0054195D01*
X0120165Y0054195D01*
X0121698Y0054195D02*
X0122720Y0052150D01*
X0124591Y0052917D02*
X0124591Y0054195D01*
X0124591Y0053684D02*
X0126636Y0053684D01*
X0126636Y0054195D01*
X0126635Y0054195D02*
X0126633Y0054258D01*
X0126627Y0054321D01*
X0126618Y0054383D01*
X0126604Y0054444D01*
X0126587Y0054505D01*
X0126566Y0054564D01*
X0126541Y0054622D01*
X0126513Y0054679D01*
X0126482Y0054733D01*
X0126447Y0054785D01*
X0126409Y0054836D01*
X0126368Y0054884D01*
X0126324Y0054929D01*
X0126278Y0054971D01*
X0126229Y0055011D01*
X0126178Y0055047D01*
X0126124Y0055080D01*
X0126069Y0055110D01*
X0126011Y0055136D01*
X0125953Y0055159D01*
X0125893Y0055178D01*
X0125832Y0055193D01*
X0125770Y0055205D01*
X0125707Y0055213D01*
X0125644Y0055217D01*
X0125582Y0055217D01*
X0125519Y0055213D01*
X0125456Y0055205D01*
X0125394Y0055193D01*
X0125333Y0055178D01*
X0125273Y0055159D01*
X0125215Y0055136D01*
X0125157Y0055110D01*
X0125102Y0055080D01*
X0125048Y0055047D01*
X0124997Y0055011D01*
X0124948Y0054971D01*
X0124902Y0054929D01*
X0124858Y0054884D01*
X0124817Y0054836D01*
X0124779Y0054785D01*
X0124744Y0054733D01*
X0124713Y0054679D01*
X0124685Y0054622D01*
X0124660Y0054564D01*
X0124639Y0054505D01*
X0124622Y0054444D01*
X0124608Y0054383D01*
X0124599Y0054321D01*
X0124593Y0054258D01*
X0124591Y0054195D01*
X0124591Y0052917D02*
X0124593Y0052862D01*
X0124599Y0052808D01*
X0124609Y0052754D01*
X0124622Y0052701D01*
X0124639Y0052649D01*
X0124660Y0052598D01*
X0124685Y0052549D01*
X0124713Y0052502D01*
X0124744Y0052457D01*
X0124778Y0052415D01*
X0124816Y0052375D01*
X0124856Y0052337D01*
X0124898Y0052303D01*
X0124943Y0052272D01*
X0124990Y0052244D01*
X0125039Y0052219D01*
X0125090Y0052198D01*
X0125142Y0052181D01*
X0125195Y0052168D01*
X0125249Y0052158D01*
X0125303Y0052152D01*
X0125358Y0052150D01*
X0126636Y0052150D01*
X0128497Y0052917D02*
X0128497Y0054450D01*
X0128496Y0054450D02*
X0128498Y0054505D01*
X0128504Y0054559D01*
X0128514Y0054613D01*
X0128527Y0054666D01*
X0128544Y0054718D01*
X0128565Y0054769D01*
X0128590Y0054818D01*
X0128618Y0054865D01*
X0128649Y0054910D01*
X0128683Y0054952D01*
X0128721Y0054992D01*
X0128761Y0055030D01*
X0128803Y0055064D01*
X0128848Y0055095D01*
X0128895Y0055123D01*
X0128944Y0055148D01*
X0128995Y0055169D01*
X0129047Y0055186D01*
X0129100Y0055199D01*
X0129154Y0055209D01*
X0129208Y0055215D01*
X0129263Y0055217D01*
X0130285Y0055217D01*
X0131941Y0054195D02*
X0131941Y0052917D01*
X0131941Y0053684D02*
X0133986Y0053684D01*
X0133986Y0054195D01*
X0133985Y0054195D02*
X0133983Y0054258D01*
X0133977Y0054321D01*
X0133968Y0054383D01*
X0133954Y0054444D01*
X0133937Y0054505D01*
X0133916Y0054564D01*
X0133891Y0054622D01*
X0133863Y0054679D01*
X0133832Y0054733D01*
X0133797Y0054785D01*
X0133759Y0054836D01*
X0133718Y0054884D01*
X0133674Y0054929D01*
X0133628Y0054971D01*
X0133579Y0055011D01*
X0133528Y0055047D01*
X0133474Y0055080D01*
X0133419Y0055110D01*
X0133361Y0055136D01*
X0133303Y0055159D01*
X0133243Y0055178D01*
X0133182Y0055193D01*
X0133120Y0055205D01*
X0133057Y0055213D01*
X0132994Y0055217D01*
X0132932Y0055217D01*
X0132869Y0055213D01*
X0132806Y0055205D01*
X0132744Y0055193D01*
X0132683Y0055178D01*
X0132623Y0055159D01*
X0132565Y0055136D01*
X0132507Y0055110D01*
X0132452Y0055080D01*
X0132398Y0055047D01*
X0132347Y0055011D01*
X0132298Y0054971D01*
X0132252Y0054929D01*
X0132208Y0054884D01*
X0132167Y0054836D01*
X0132129Y0054785D01*
X0132094Y0054733D01*
X0132063Y0054679D01*
X0132035Y0054622D01*
X0132010Y0054564D01*
X0131989Y0054505D01*
X0131972Y0054444D01*
X0131958Y0054383D01*
X0131949Y0054321D01*
X0131943Y0054258D01*
X0131941Y0054195D01*
X0131941Y0052917D02*
X0131943Y0052862D01*
X0131949Y0052808D01*
X0131959Y0052754D01*
X0131972Y0052701D01*
X0131989Y0052649D01*
X0132010Y0052598D01*
X0132035Y0052549D01*
X0132063Y0052502D01*
X0132094Y0052457D01*
X0132128Y0052415D01*
X0132166Y0052375D01*
X0132206Y0052337D01*
X0132248Y0052303D01*
X0132293Y0052272D01*
X0132340Y0052244D01*
X0132389Y0052219D01*
X0132440Y0052198D01*
X0132492Y0052181D01*
X0132545Y0052168D01*
X0132599Y0052158D01*
X0132653Y0052152D01*
X0132708Y0052150D01*
X0133986Y0052150D01*
X0135813Y0052150D02*
X0135813Y0055217D01*
X0135941Y0056495D02*
X0135686Y0056495D01*
X0135686Y0056750D01*
X0135941Y0056750D01*
X0135941Y0056495D01*
X0137491Y0055217D02*
X0138513Y0052150D01*
X0139536Y0055217D01*
X0141241Y0054195D02*
X0141241Y0052917D01*
X0141241Y0053684D02*
X0143286Y0053684D01*
X0143286Y0054195D01*
X0143285Y0054195D02*
X0143283Y0054258D01*
X0143277Y0054321D01*
X0143268Y0054383D01*
X0143254Y0054444D01*
X0143237Y0054505D01*
X0143216Y0054564D01*
X0143191Y0054622D01*
X0143163Y0054679D01*
X0143132Y0054733D01*
X0143097Y0054785D01*
X0143059Y0054836D01*
X0143018Y0054884D01*
X0142974Y0054929D01*
X0142928Y0054971D01*
X0142879Y0055011D01*
X0142828Y0055047D01*
X0142774Y0055080D01*
X0142719Y0055110D01*
X0142661Y0055136D01*
X0142603Y0055159D01*
X0142543Y0055178D01*
X0142482Y0055193D01*
X0142420Y0055205D01*
X0142357Y0055213D01*
X0142294Y0055217D01*
X0142232Y0055217D01*
X0142169Y0055213D01*
X0142106Y0055205D01*
X0142044Y0055193D01*
X0141983Y0055178D01*
X0141923Y0055159D01*
X0141865Y0055136D01*
X0141807Y0055110D01*
X0141752Y0055080D01*
X0141698Y0055047D01*
X0141647Y0055011D01*
X0141598Y0054971D01*
X0141552Y0054929D01*
X0141508Y0054884D01*
X0141467Y0054836D01*
X0141429Y0054785D01*
X0141394Y0054733D01*
X0141363Y0054679D01*
X0141335Y0054622D01*
X0141310Y0054564D01*
X0141289Y0054505D01*
X0141272Y0054444D01*
X0141258Y0054383D01*
X0141249Y0054321D01*
X0141243Y0054258D01*
X0141241Y0054195D01*
X0141241Y0052917D02*
X0141243Y0052862D01*
X0141249Y0052808D01*
X0141259Y0052754D01*
X0141272Y0052701D01*
X0141289Y0052649D01*
X0141310Y0052598D01*
X0141335Y0052549D01*
X0141363Y0052502D01*
X0141394Y0052457D01*
X0141428Y0052415D01*
X0141466Y0052375D01*
X0141506Y0052337D01*
X0141548Y0052303D01*
X0141593Y0052272D01*
X0141640Y0052244D01*
X0141689Y0052219D01*
X0141740Y0052198D01*
X0141792Y0052181D01*
X0141845Y0052168D01*
X0141899Y0052158D01*
X0141953Y0052152D01*
X0142008Y0052150D01*
X0143286Y0052150D01*
X0145317Y0052150D02*
X0145317Y0055217D01*
X0146851Y0055217D01*
X0146851Y0054706D01*
X0133212Y0049250D02*
X0133212Y0044650D01*
X0131934Y0044650D02*
X0134490Y0044650D01*
X0131934Y0048228D02*
X0133212Y0049250D01*
X0130285Y0052150D02*
X0129263Y0052150D01*
X0129208Y0052152D01*
X0129154Y0052158D01*
X0129100Y0052168D01*
X0129047Y0052181D01*
X0128995Y0052198D01*
X0128944Y0052219D01*
X0128895Y0052244D01*
X0128848Y0052272D01*
X0128803Y0052303D01*
X0128761Y0052337D01*
X0128721Y0052375D01*
X0128683Y0052415D01*
X0128649Y0052457D01*
X0128618Y0052502D01*
X0128590Y0052549D01*
X0128565Y0052598D01*
X0128544Y0052649D01*
X0128527Y0052701D01*
X0128514Y0052754D01*
X0128504Y0052808D01*
X0128498Y0052862D01*
X0128496Y0052917D01*
X0127784Y0047717D02*
X0126762Y0044650D01*
X0125740Y0047717D01*
X0124034Y0046695D02*
X0124034Y0046184D01*
X0121990Y0046184D01*
X0121990Y0046695D02*
X0121990Y0045417D01*
X0121992Y0045362D01*
X0121998Y0045308D01*
X0122008Y0045254D01*
X0122021Y0045201D01*
X0122038Y0045149D01*
X0122059Y0045098D01*
X0122084Y0045049D01*
X0122112Y0045002D01*
X0122143Y0044957D01*
X0122177Y0044915D01*
X0122215Y0044875D01*
X0122255Y0044837D01*
X0122297Y0044803D01*
X0122342Y0044772D01*
X0122389Y0044744D01*
X0122438Y0044719D01*
X0122489Y0044698D01*
X0122541Y0044681D01*
X0122594Y0044668D01*
X0122648Y0044658D01*
X0122702Y0044652D01*
X0122757Y0044650D01*
X0124034Y0044650D01*
X0124034Y0046695D02*
X0124032Y0046758D01*
X0124026Y0046821D01*
X0124017Y0046883D01*
X0124003Y0046944D01*
X0123986Y0047005D01*
X0123965Y0047064D01*
X0123940Y0047122D01*
X0123912Y0047179D01*
X0123881Y0047233D01*
X0123846Y0047285D01*
X0123808Y0047336D01*
X0123767Y0047384D01*
X0123723Y0047429D01*
X0123677Y0047471D01*
X0123628Y0047511D01*
X0123577Y0047547D01*
X0123523Y0047580D01*
X0123468Y0047610D01*
X0123410Y0047636D01*
X0123352Y0047659D01*
X0123292Y0047678D01*
X0123231Y0047693D01*
X0123169Y0047705D01*
X0123106Y0047713D01*
X0123043Y0047717D01*
X0122981Y0047717D01*
X0122918Y0047713D01*
X0122855Y0047705D01*
X0122793Y0047693D01*
X0122732Y0047678D01*
X0122672Y0047659D01*
X0122614Y0047636D01*
X0122556Y0047610D01*
X0122501Y0047580D01*
X0122447Y0047547D01*
X0122396Y0047511D01*
X0122347Y0047471D01*
X0122301Y0047429D01*
X0122257Y0047384D01*
X0122216Y0047336D01*
X0122178Y0047285D01*
X0122143Y0047233D01*
X0122112Y0047179D01*
X0122084Y0047122D01*
X0122059Y0047064D01*
X0122038Y0047005D01*
X0122021Y0046944D01*
X0122007Y0046883D01*
X0121998Y0046821D01*
X0121992Y0046758D01*
X0121990Y0046695D01*
X0105202Y0052150D02*
X0105202Y0056750D01*
D13*
X0083867Y0055830D02*
X0077568Y0055830D01*
X0069932Y0055775D02*
X0063633Y0055775D01*
X0049806Y0051014D02*
X0032877Y0051014D01*
X0032877Y0069518D01*
X0049806Y0069518D01*
X0049806Y0051014D01*
X0048004Y0048125D02*
X0036193Y0048125D01*
X0036193Y0024503D01*
X0048004Y0024503D01*
X0048004Y0048125D01*
X0065079Y0046293D02*
X0065079Y0029364D01*
X0083583Y0029364D01*
X0083583Y0046293D01*
X0065079Y0046293D01*
X0063633Y0068374D02*
X0069932Y0068374D01*
X0077568Y0068429D02*
X0083867Y0068429D01*
X0092293Y0072333D02*
X0092293Y0091624D01*
X0159222Y0091624D01*
X0159222Y0072333D01*
X0159222Y0019184D02*
X0159222Y0009735D01*
X0152529Y0009735D01*
X0098986Y0009735D02*
X0092293Y0009735D01*
X0092293Y0019184D01*
X0021395Y0044662D02*
X0021395Y0049662D01*
X0020673Y0049682D02*
X0020673Y0047762D01*
X0018752Y0049682D01*
X0020665Y0049682D01*
X0010766Y0049662D02*
X0010766Y0044662D01*
M02*
