%
M48
M72
T01C0.01378
T02C0.03937
%
T01
X61505Y27303
X67835Y37681
X61492Y38914
X45813Y46200
X40626Y58085
X14950Y74675
X8582Y81081
X33190Y82563
X98150Y71539
X86339Y34531
X80040Y16421
T02
X21457Y16618
X31457Y16618
X41457Y16618
X51457Y16618
X61457Y16618
X71457Y16618
X168484Y35958
X168484Y45958
X168484Y55958
X168484Y65958
X71457Y76657
X61457Y76657
X51457Y76657
X41457Y76657
X31457Y76657
X21457Y76657
M30
