G75*
%MOIN*%
%OFA0B0*%
%FSLAX25Y25*%
%IPPOS*%
%LPD*%
%AMOC8*
5,1,8,0,0,1.08239X$1,22.5*
%
%ADD10C,0.00000*%
%ADD11R,0.04000X0.02000*%
%ADD12R,0.04331X0.05512*%
%ADD13R,0.02500X0.05000*%
%ADD14R,0.05000X0.02500*%
%ADD15R,0.06299X0.03937*%
%ADD16R,0.05937X0.05937*%
%ADD17C,0.05937*%
%ADD18R,0.08661X0.13780*%
%ADD19R,0.08661X0.04724*%
%ADD20C,0.01200*%
%ADD21C,0.00600*%
%ADD22C,0.02978*%
D10*
X0001457Y0001000D02*
X0001457Y0096461D01*
X0180658Y0096461D01*
X0180658Y0001000D01*
X0001457Y0001000D01*
D11*
X0031308Y0045276D03*
X0031308Y0048425D03*
X0031308Y0051575D03*
X0031308Y0054724D03*
X0037607Y0054724D03*
X0037607Y0051575D03*
X0037607Y0048425D03*
X0037607Y0045276D03*
X0037607Y0061420D03*
X0037607Y0064570D03*
X0037607Y0067719D03*
X0031308Y0067719D03*
X0031308Y0064570D03*
X0031308Y0061420D03*
X0031308Y0070869D03*
X0037607Y0070869D03*
D12*
X0019107Y0064406D03*
X0012808Y0064406D03*
X0012808Y0052594D03*
X0019107Y0052594D03*
D13*
X0101639Y0016358D03*
X0105969Y0016358D03*
X0110300Y0016358D03*
X0114631Y0016358D03*
X0118961Y0016358D03*
X0123292Y0016358D03*
X0127623Y0016358D03*
X0131954Y0016358D03*
X0136284Y0016358D03*
X0140615Y0016358D03*
X0144946Y0016358D03*
X0149276Y0016358D03*
D14*
X0158922Y0028760D03*
X0158922Y0033091D03*
X0158922Y0037421D03*
X0158922Y0041752D03*
X0158922Y0046083D03*
X0158922Y0050413D03*
X0158922Y0054744D03*
X0158922Y0059075D03*
X0158922Y0063406D03*
X0158922Y0067736D03*
X0158922Y0072067D03*
X0158922Y0076398D03*
X0091993Y0076398D03*
X0091993Y0072067D03*
X0091993Y0067736D03*
X0091993Y0063406D03*
X0091993Y0059075D03*
X0091993Y0054744D03*
X0091993Y0050413D03*
X0091993Y0046083D03*
X0091993Y0041752D03*
X0091993Y0037421D03*
X0091993Y0033091D03*
X0091993Y0028760D03*
D15*
X0074056Y0024520D03*
X0048859Y0024520D03*
X0039556Y0024520D03*
X0014359Y0024520D03*
X0014359Y0039480D03*
X0039556Y0039480D03*
X0048859Y0039480D03*
X0074056Y0039480D03*
D16*
X0021457Y0016618D03*
X0021457Y0076657D03*
X0168484Y0035958D03*
D17*
X0168484Y0045958D03*
X0168484Y0055958D03*
X0168484Y0065958D03*
X0071457Y0076657D03*
X0061457Y0076657D03*
X0051457Y0076657D03*
X0041457Y0076657D03*
X0031457Y0076657D03*
X0031457Y0016618D03*
X0041457Y0016618D03*
X0051457Y0016618D03*
X0061457Y0016618D03*
X0071457Y0016618D03*
D18*
X0050292Y0055961D03*
D19*
X0074702Y0055961D03*
X0074702Y0065016D03*
X0074702Y0046906D03*
D20*
X0082357Y0054300D02*
X0082357Y0078500D01*
X0087857Y0084000D01*
X0096657Y0084000D01*
X0154957Y0025700D01*
X0162657Y0025700D01*
X0168157Y0031200D01*
X0168157Y0035600D01*
X0168484Y0035958D01*
X0158922Y0054744D02*
X0159357Y0055400D01*
X0168157Y0055400D01*
X0168484Y0055958D01*
X0162657Y0059800D02*
X0168157Y0065300D01*
X0168484Y0065958D01*
X0162657Y0059800D02*
X0159357Y0059800D01*
X0158922Y0059075D01*
X0114282Y0037149D02*
X0114257Y0036700D01*
X0098857Y0026800D02*
X0095557Y0023500D01*
X0085657Y0023500D01*
X0075757Y0033400D01*
X0035057Y0033400D01*
X0032857Y0035600D01*
X0032857Y0040000D01*
X0033957Y0041100D01*
X0033957Y0042200D01*
X0036157Y0044400D01*
X0036157Y0045500D01*
X0037257Y0045500D01*
X0037607Y0045276D01*
X0038357Y0045500D01*
X0038357Y0047700D01*
X0037607Y0048425D01*
X0038357Y0048800D01*
X0038357Y0051000D01*
X0037607Y0051575D01*
X0038357Y0052100D01*
X0038357Y0054300D01*
X0037607Y0054724D01*
X0041657Y0054300D02*
X0043857Y0056500D01*
X0043857Y0063100D01*
X0046057Y0065300D01*
X0065857Y0065300D01*
X0072457Y0071900D01*
X0073557Y0071900D01*
X0076857Y0075200D01*
X0076857Y0078500D01*
X0073557Y0081800D01*
X0042757Y0081800D01*
X0040557Y0079600D01*
X0041457Y0076657D01*
X0040557Y0079600D02*
X0033957Y0086200D01*
X0018557Y0086200D01*
X0006457Y0074100D01*
X0006457Y0051000D01*
X0014157Y0043300D01*
X0014157Y0040000D01*
X0014359Y0039480D01*
X0022957Y0033400D02*
X0022957Y0018000D01*
X0021857Y0016900D01*
X0021457Y0016618D01*
X0026257Y0014700D02*
X0026257Y0020200D01*
X0026257Y0021300D01*
X0036157Y0031200D01*
X0066957Y0031200D01*
X0073557Y0024600D01*
X0074056Y0024520D01*
X0074657Y0023500D01*
X0074657Y0022400D01*
X0071357Y0019100D01*
X0071357Y0016900D01*
X0071457Y0016618D01*
X0061457Y0016618D02*
X0061457Y0027256D01*
X0061505Y0027303D01*
X0048859Y0024520D02*
X0048257Y0024600D01*
X0043857Y0029000D01*
X0035057Y0029000D01*
X0026257Y0020200D01*
X0031457Y0016618D02*
X0031757Y0015800D01*
X0037257Y0010300D01*
X0085657Y0010300D01*
X0101057Y0025700D01*
X0101057Y0054300D01*
X0096657Y0058700D01*
X0092257Y0058700D01*
X0091993Y0059075D01*
X0091993Y0054744D02*
X0092257Y0054300D01*
X0096657Y0054300D01*
X0098857Y0052100D01*
X0098857Y0026800D01*
X0103257Y0024600D02*
X0086757Y0008100D01*
X0032857Y0008100D01*
X0026257Y0014700D01*
X0022957Y0033400D02*
X0031757Y0042200D01*
X0031757Y0044400D01*
X0031308Y0045276D01*
X0031757Y0045500D01*
X0031757Y0047700D01*
X0031308Y0048425D01*
X0040557Y0042200D02*
X0041657Y0043300D01*
X0041657Y0054300D01*
X0040626Y0058085D02*
X0034643Y0058085D01*
X0031308Y0061420D01*
X0030657Y0064200D02*
X0028457Y0064200D01*
X0022957Y0058700D01*
X0020757Y0058700D01*
X0019144Y0057029D01*
X0019107Y0052594D01*
X0012808Y0052594D02*
X0012829Y0057071D01*
X0008657Y0060900D01*
X0008657Y0073000D01*
X0018557Y0082900D01*
X0024057Y0082900D01*
X0026257Y0080700D01*
X0026257Y0075200D01*
X0030657Y0070800D01*
X0031308Y0070869D01*
X0037607Y0070869D02*
X0038357Y0070800D01*
X0055957Y0070800D01*
X0061457Y0076300D01*
X0061457Y0076657D01*
X0062557Y0067500D02*
X0071357Y0076300D01*
X0071457Y0076657D01*
X0074702Y0069933D02*
X0079057Y0074289D01*
X0079057Y0079411D01*
X0070069Y0088400D01*
X0015901Y0088400D01*
X0008582Y0081081D01*
X0015257Y0075200D02*
X0014950Y0074675D01*
X0012832Y0072317D01*
X0012808Y0064406D01*
X0019107Y0064406D02*
X0022289Y0067693D01*
X0031308Y0067719D01*
X0030657Y0067500D01*
X0031308Y0064570D02*
X0030657Y0064200D01*
X0037607Y0064570D02*
X0038357Y0064200D01*
X0038357Y0062000D01*
X0037607Y0061420D01*
X0038357Y0067500D02*
X0037607Y0067719D01*
X0038357Y0067500D02*
X0062557Y0067500D01*
X0074702Y0069933D02*
X0074702Y0065016D01*
X0074657Y0056500D02*
X0074702Y0055961D01*
X0075757Y0055400D01*
X0081257Y0055400D01*
X0082357Y0054300D01*
X0082357Y0033400D01*
X0086757Y0029000D01*
X0091157Y0029000D01*
X0091993Y0028760D01*
X0103257Y0024600D02*
X0103257Y0074100D01*
X0095557Y0081800D01*
X0088957Y0081800D01*
X0085657Y0078500D01*
X0085657Y0038900D01*
X0086757Y0037800D01*
X0091157Y0037800D01*
X0091993Y0037421D01*
X0061492Y0038914D02*
X0056806Y0038914D01*
X0052671Y0043049D01*
X0048965Y0043049D01*
X0045813Y0046200D01*
X0040557Y0042200D02*
X0040557Y0040000D01*
X0039556Y0039480D01*
X0050292Y0055961D02*
X0050457Y0056500D01*
X0074657Y0056500D01*
X0021457Y0076657D02*
X0020757Y0076300D01*
X0019657Y0075200D01*
X0015257Y0075200D01*
D21*
X0007981Y0078311D02*
X0005757Y0076087D01*
X0005757Y0092161D01*
X0176358Y0092161D01*
X0176358Y0005300D01*
X0005757Y0005300D01*
X0005757Y0049013D01*
X0012022Y0042749D01*
X0010671Y0042749D01*
X0009909Y0041987D01*
X0009909Y0036973D01*
X0010671Y0036212D01*
X0018047Y0036212D01*
X0018809Y0036973D01*
X0018809Y0041987D01*
X0018047Y0042749D01*
X0016057Y0042749D01*
X0016057Y0044087D01*
X0011606Y0048539D01*
X0015512Y0048539D01*
X0015957Y0048984D01*
X0016403Y0048539D01*
X0021811Y0048539D01*
X0022572Y0049300D01*
X0022572Y0055889D01*
X0021811Y0056650D01*
X0021419Y0056650D01*
X0021564Y0056800D01*
X0023744Y0056800D01*
X0024857Y0057913D01*
X0028008Y0061063D01*
X0028008Y0059881D01*
X0028769Y0059120D01*
X0030921Y0059120D01*
X0032743Y0057298D01*
X0033016Y0057024D01*
X0031508Y0057024D01*
X0031508Y0054924D01*
X0031108Y0054924D01*
X0031108Y0054524D01*
X0028008Y0054524D01*
X0028008Y0053553D01*
X0028096Y0053223D01*
X0028104Y0053209D01*
X0028008Y0053113D01*
X0028008Y0050036D01*
X0028044Y0050000D01*
X0028008Y0049964D01*
X0028008Y0046887D01*
X0028044Y0046850D01*
X0028008Y0046814D01*
X0028008Y0043737D01*
X0028769Y0042976D01*
X0029846Y0042976D01*
X0022170Y0035300D01*
X0021057Y0034187D01*
X0021057Y0020887D01*
X0017950Y0020887D01*
X0017189Y0020125D01*
X0017189Y0013111D01*
X0017950Y0012350D01*
X0024964Y0012350D01*
X0025443Y0012828D01*
X0025470Y0012800D01*
X0032070Y0006200D01*
X0087544Y0006200D01*
X0088657Y0007313D01*
X0099089Y0017744D01*
X0099089Y0013320D01*
X0099850Y0012558D01*
X0103427Y0012558D01*
X0103804Y0012935D01*
X0104181Y0012558D01*
X0107758Y0012558D01*
X0108135Y0012935D01*
X0108512Y0012558D01*
X0112088Y0012558D01*
X0112465Y0012935D01*
X0112842Y0012558D01*
X0116419Y0012558D01*
X0116796Y0012935D01*
X0117173Y0012558D01*
X0120750Y0012558D01*
X0121127Y0012935D01*
X0121504Y0012558D01*
X0125081Y0012558D01*
X0125457Y0012935D01*
X0125834Y0012558D01*
X0129411Y0012558D01*
X0129788Y0012935D01*
X0130165Y0012558D01*
X0133742Y0012558D01*
X0134119Y0012935D01*
X0134496Y0012558D01*
X0138073Y0012558D01*
X0138450Y0012935D01*
X0138826Y0012558D01*
X0142403Y0012558D01*
X0142780Y0012935D01*
X0143157Y0012558D01*
X0146734Y0012558D01*
X0147111Y0012935D01*
X0147488Y0012558D01*
X0151065Y0012558D01*
X0151826Y0013320D01*
X0151826Y0019397D01*
X0151065Y0020158D01*
X0147488Y0020158D01*
X0147111Y0019781D01*
X0146734Y0020158D01*
X0143157Y0020158D01*
X0142780Y0019781D01*
X0142403Y0020158D01*
X0138826Y0020158D01*
X0138450Y0019781D01*
X0138073Y0020158D01*
X0134496Y0020158D01*
X0134119Y0019781D01*
X0133742Y0020158D01*
X0130165Y0020158D01*
X0129788Y0019781D01*
X0129411Y0020158D01*
X0125834Y0020158D01*
X0125457Y0019781D01*
X0125081Y0020158D01*
X0121504Y0020158D01*
X0121127Y0019781D01*
X0120750Y0020158D01*
X0117173Y0020158D01*
X0116796Y0019781D01*
X0116419Y0020158D01*
X0112842Y0020158D01*
X0112465Y0019781D01*
X0112088Y0020158D01*
X0108512Y0020158D01*
X0108135Y0019781D01*
X0107758Y0020158D01*
X0104181Y0020158D01*
X0103804Y0019781D01*
X0103427Y0020158D01*
X0101503Y0020158D01*
X0105157Y0023813D01*
X0105157Y0072813D01*
X0153057Y0024913D01*
X0154170Y0023800D01*
X0163444Y0023800D01*
X0164557Y0024913D01*
X0170057Y0030413D01*
X0170057Y0031690D01*
X0171991Y0031690D01*
X0172753Y0032452D01*
X0172753Y0039465D01*
X0171991Y0040227D01*
X0164977Y0040227D01*
X0164216Y0039465D01*
X0164216Y0032452D01*
X0164977Y0031690D01*
X0165960Y0031690D01*
X0162722Y0028452D01*
X0162722Y0030548D01*
X0162345Y0030925D01*
X0162722Y0031302D01*
X0162722Y0034879D01*
X0162345Y0035256D01*
X0162722Y0035633D01*
X0162722Y0039210D01*
X0162345Y0039587D01*
X0162722Y0039963D01*
X0162722Y0043540D01*
X0162345Y0043917D01*
X0162722Y0044294D01*
X0162722Y0047871D01*
X0162345Y0048248D01*
X0162722Y0048625D01*
X0162722Y0052202D01*
X0162345Y0052579D01*
X0162722Y0052956D01*
X0162722Y0053500D01*
X0164906Y0053500D01*
X0166066Y0052340D01*
X0167635Y0051690D01*
X0169333Y0051690D01*
X0170902Y0052340D01*
X0172103Y0053541D01*
X0172753Y0055109D01*
X0172753Y0056808D01*
X0172103Y0058376D01*
X0170902Y0059577D01*
X0169333Y0060227D01*
X0167635Y0060227D01*
X0166066Y0059577D01*
X0164865Y0058376D01*
X0164420Y0057300D01*
X0162722Y0057300D01*
X0162722Y0057900D01*
X0163444Y0057900D01*
X0167352Y0061807D01*
X0167635Y0061690D01*
X0169333Y0061690D01*
X0170902Y0062340D01*
X0172103Y0063541D01*
X0172753Y0065109D01*
X0172753Y0066808D01*
X0172103Y0068376D01*
X0170902Y0069577D01*
X0169333Y0070227D01*
X0167635Y0070227D01*
X0166066Y0069577D01*
X0164865Y0068376D01*
X0164216Y0066808D01*
X0164216Y0065109D01*
X0164527Y0064357D01*
X0162722Y0062552D01*
X0162722Y0065194D01*
X0162345Y0065571D01*
X0162722Y0065948D01*
X0162722Y0069525D01*
X0162345Y0069902D01*
X0162722Y0070278D01*
X0162722Y0073855D01*
X0162345Y0074232D01*
X0162722Y0074609D01*
X0162722Y0078186D01*
X0161961Y0078948D01*
X0155884Y0078948D01*
X0155122Y0078186D01*
X0155122Y0074609D01*
X0155499Y0074232D01*
X0155122Y0073855D01*
X0155122Y0070278D01*
X0155499Y0069902D01*
X0155122Y0069525D01*
X0155122Y0065948D01*
X0155499Y0065571D01*
X0155122Y0065194D01*
X0155122Y0061617D01*
X0155499Y0061240D01*
X0155122Y0060863D01*
X0155122Y0057286D01*
X0155499Y0056909D01*
X0155122Y0056533D01*
X0155122Y0052956D01*
X0155499Y0052579D01*
X0155122Y0052202D01*
X0155122Y0048625D01*
X0155499Y0048248D01*
X0155122Y0047871D01*
X0155122Y0044294D01*
X0155499Y0043917D01*
X0155122Y0043540D01*
X0155122Y0039963D01*
X0155499Y0039587D01*
X0155122Y0039210D01*
X0155122Y0035633D01*
X0155499Y0035256D01*
X0155122Y0034879D01*
X0155122Y0031302D01*
X0155499Y0030925D01*
X0155122Y0030548D01*
X0155122Y0028222D01*
X0098557Y0084787D01*
X0097444Y0085900D01*
X0087070Y0085900D01*
X0081570Y0080400D01*
X0080957Y0079787D01*
X0080957Y0080198D01*
X0071969Y0089187D01*
X0070856Y0090300D01*
X0015114Y0090300D01*
X0014001Y0089187D01*
X0008684Y0083870D01*
X0008027Y0083870D01*
X0007002Y0083445D01*
X0006218Y0082661D01*
X0005793Y0081636D01*
X0005793Y0080526D01*
X0006218Y0079501D01*
X0007002Y0078717D01*
X0007981Y0078311D01*
X0007969Y0078299D02*
X0005757Y0078299D01*
X0005757Y0078897D02*
X0006822Y0078897D01*
X0006223Y0079496D02*
X0005757Y0079496D01*
X0005757Y0080094D02*
X0005972Y0080094D01*
X0005793Y0080693D02*
X0005757Y0080693D01*
X0005757Y0081291D02*
X0005793Y0081291D01*
X0005757Y0081890D02*
X0005898Y0081890D01*
X0005757Y0082488D02*
X0006146Y0082488D01*
X0005757Y0083087D02*
X0006643Y0083087D01*
X0005757Y0083685D02*
X0007581Y0083685D01*
X0009098Y0084284D02*
X0005757Y0084284D01*
X0005757Y0084882D02*
X0009696Y0084882D01*
X0010295Y0085481D02*
X0005757Y0085481D01*
X0005757Y0086079D02*
X0010893Y0086079D01*
X0011492Y0086678D02*
X0005757Y0086678D01*
X0005757Y0087276D02*
X0012090Y0087276D01*
X0012689Y0087875D02*
X0005757Y0087875D01*
X0005757Y0088473D02*
X0013287Y0088473D01*
X0013886Y0089072D02*
X0005757Y0089072D01*
X0005757Y0089670D02*
X0014484Y0089670D01*
X0015083Y0090269D02*
X0005757Y0090269D01*
X0005757Y0090867D02*
X0176358Y0090867D01*
X0176358Y0090269D02*
X0070887Y0090269D01*
X0071485Y0089670D02*
X0176358Y0089670D01*
X0176358Y0089072D02*
X0072084Y0089072D01*
X0072682Y0088473D02*
X0176358Y0088473D01*
X0176358Y0087875D02*
X0073281Y0087875D01*
X0073880Y0087276D02*
X0176358Y0087276D01*
X0176358Y0086678D02*
X0074478Y0086678D01*
X0075077Y0086079D02*
X0176358Y0086079D01*
X0176358Y0085481D02*
X0097864Y0085481D01*
X0098462Y0084882D02*
X0176358Y0084882D01*
X0176358Y0084284D02*
X0099061Y0084284D01*
X0098557Y0084787D02*
X0098557Y0084787D01*
X0099659Y0083685D02*
X0176358Y0083685D01*
X0176358Y0083087D02*
X0100258Y0083087D01*
X0100856Y0082488D02*
X0176358Y0082488D01*
X0176358Y0081890D02*
X0101455Y0081890D01*
X0102053Y0081291D02*
X0176358Y0081291D01*
X0176358Y0080693D02*
X0102652Y0080693D01*
X0103250Y0080094D02*
X0176358Y0080094D01*
X0176358Y0079496D02*
X0103849Y0079496D01*
X0104447Y0078897D02*
X0155833Y0078897D01*
X0155235Y0078299D02*
X0105046Y0078299D01*
X0105644Y0077700D02*
X0155122Y0077700D01*
X0155122Y0077102D02*
X0106243Y0077102D01*
X0106841Y0076503D02*
X0155122Y0076503D01*
X0155122Y0075905D02*
X0107440Y0075905D01*
X0108038Y0075306D02*
X0155122Y0075306D01*
X0155122Y0074708D02*
X0108637Y0074708D01*
X0109235Y0074109D02*
X0155376Y0074109D01*
X0155122Y0073510D02*
X0109834Y0073510D01*
X0110432Y0072912D02*
X0155122Y0072912D01*
X0155122Y0072313D02*
X0111031Y0072313D01*
X0111630Y0071715D02*
X0155122Y0071715D01*
X0155122Y0071116D02*
X0112228Y0071116D01*
X0112827Y0070518D02*
X0155122Y0070518D01*
X0155481Y0069919D02*
X0113425Y0069919D01*
X0114024Y0069321D02*
X0155122Y0069321D01*
X0155122Y0068722D02*
X0114622Y0068722D01*
X0115221Y0068124D02*
X0155122Y0068124D01*
X0155122Y0067525D02*
X0115819Y0067525D01*
X0116418Y0066927D02*
X0155122Y0066927D01*
X0155122Y0066328D02*
X0117016Y0066328D01*
X0117615Y0065730D02*
X0155340Y0065730D01*
X0155122Y0065131D02*
X0118213Y0065131D01*
X0118812Y0064533D02*
X0155122Y0064533D01*
X0155122Y0063934D02*
X0119410Y0063934D01*
X0120009Y0063336D02*
X0155122Y0063336D01*
X0155122Y0062737D02*
X0120607Y0062737D01*
X0121206Y0062139D02*
X0155122Y0062139D01*
X0155199Y0061540D02*
X0121804Y0061540D01*
X0122403Y0060942D02*
X0155201Y0060942D01*
X0155122Y0060343D02*
X0123001Y0060343D01*
X0123600Y0059745D02*
X0155122Y0059745D01*
X0155122Y0059146D02*
X0124198Y0059146D01*
X0124797Y0058548D02*
X0155122Y0058548D01*
X0155122Y0057949D02*
X0125395Y0057949D01*
X0125994Y0057351D02*
X0155122Y0057351D01*
X0155342Y0056752D02*
X0126592Y0056752D01*
X0127191Y0056154D02*
X0155122Y0056154D01*
X0155122Y0055555D02*
X0127789Y0055555D01*
X0128388Y0054957D02*
X0155122Y0054957D01*
X0155122Y0054358D02*
X0128986Y0054358D01*
X0129585Y0053760D02*
X0155122Y0053760D01*
X0155122Y0053161D02*
X0130183Y0053161D01*
X0130782Y0052563D02*
X0155483Y0052563D01*
X0155122Y0051964D02*
X0131380Y0051964D01*
X0131979Y0051366D02*
X0155122Y0051366D01*
X0155122Y0050767D02*
X0132577Y0050767D01*
X0133176Y0050169D02*
X0155122Y0050169D01*
X0155122Y0049570D02*
X0133774Y0049570D01*
X0134373Y0048972D02*
X0155122Y0048972D01*
X0155374Y0048373D02*
X0134971Y0048373D01*
X0135570Y0047774D02*
X0155122Y0047774D01*
X0155122Y0047176D02*
X0136168Y0047176D01*
X0136767Y0046577D02*
X0155122Y0046577D01*
X0155122Y0045979D02*
X0137365Y0045979D01*
X0137964Y0045380D02*
X0155122Y0045380D01*
X0155122Y0044782D02*
X0138563Y0044782D01*
X0139161Y0044183D02*
X0155233Y0044183D01*
X0155167Y0043585D02*
X0139760Y0043585D01*
X0140358Y0042986D02*
X0155122Y0042986D01*
X0155122Y0042388D02*
X0140957Y0042388D01*
X0141555Y0041789D02*
X0155122Y0041789D01*
X0155122Y0041191D02*
X0142154Y0041191D01*
X0142752Y0040592D02*
X0155122Y0040592D01*
X0155122Y0039994D02*
X0143351Y0039994D01*
X0143949Y0039395D02*
X0155308Y0039395D01*
X0155122Y0038797D02*
X0144548Y0038797D01*
X0145146Y0038198D02*
X0155122Y0038198D01*
X0155122Y0037600D02*
X0145745Y0037600D01*
X0146343Y0037001D02*
X0155122Y0037001D01*
X0155122Y0036403D02*
X0146942Y0036403D01*
X0147540Y0035804D02*
X0155122Y0035804D01*
X0155449Y0035206D02*
X0148139Y0035206D01*
X0148737Y0034607D02*
X0155122Y0034607D01*
X0155122Y0034009D02*
X0149336Y0034009D01*
X0149934Y0033410D02*
X0155122Y0033410D01*
X0155122Y0032812D02*
X0150533Y0032812D01*
X0151131Y0032213D02*
X0155122Y0032213D01*
X0155122Y0031615D02*
X0151730Y0031615D01*
X0152328Y0031016D02*
X0155408Y0031016D01*
X0155122Y0030418D02*
X0152927Y0030418D01*
X0153525Y0029819D02*
X0155122Y0029819D01*
X0155122Y0029221D02*
X0154124Y0029221D01*
X0154722Y0028622D02*
X0155122Y0028622D01*
X0151742Y0026228D02*
X0105157Y0026228D01*
X0105157Y0025630D02*
X0152341Y0025630D01*
X0152939Y0025031D02*
X0105157Y0025031D01*
X0105157Y0024433D02*
X0153538Y0024433D01*
X0153057Y0024913D02*
X0153057Y0024913D01*
X0154136Y0023834D02*
X0105157Y0023834D01*
X0104580Y0023236D02*
X0176358Y0023236D01*
X0176358Y0023834D02*
X0163479Y0023834D01*
X0164077Y0024433D02*
X0176358Y0024433D01*
X0176358Y0025031D02*
X0164676Y0025031D01*
X0165274Y0025630D02*
X0176358Y0025630D01*
X0176358Y0026228D02*
X0165873Y0026228D01*
X0166471Y0026827D02*
X0176358Y0026827D01*
X0176358Y0027425D02*
X0167070Y0027425D01*
X0167668Y0028024D02*
X0176358Y0028024D01*
X0176358Y0028622D02*
X0168267Y0028622D01*
X0168865Y0029221D02*
X0176358Y0029221D01*
X0176358Y0029819D02*
X0169464Y0029819D01*
X0170057Y0030418D02*
X0176358Y0030418D01*
X0176358Y0031016D02*
X0170057Y0031016D01*
X0170057Y0031615D02*
X0176358Y0031615D01*
X0176358Y0032213D02*
X0172514Y0032213D01*
X0172753Y0032812D02*
X0176358Y0032812D01*
X0176358Y0033410D02*
X0172753Y0033410D01*
X0172753Y0034009D02*
X0176358Y0034009D01*
X0176358Y0034607D02*
X0172753Y0034607D01*
X0172753Y0035206D02*
X0176358Y0035206D01*
X0176358Y0035804D02*
X0172753Y0035804D01*
X0172753Y0036403D02*
X0176358Y0036403D01*
X0176358Y0037001D02*
X0172753Y0037001D01*
X0172753Y0037600D02*
X0176358Y0037600D01*
X0176358Y0038198D02*
X0172753Y0038198D01*
X0172753Y0038797D02*
X0176358Y0038797D01*
X0176358Y0039395D02*
X0172753Y0039395D01*
X0172224Y0039994D02*
X0176358Y0039994D01*
X0176358Y0040592D02*
X0162722Y0040592D01*
X0162722Y0039994D02*
X0164744Y0039994D01*
X0164216Y0039395D02*
X0162536Y0039395D01*
X0162722Y0038797D02*
X0164216Y0038797D01*
X0164216Y0038198D02*
X0162722Y0038198D01*
X0162722Y0037600D02*
X0164216Y0037600D01*
X0164216Y0037001D02*
X0162722Y0037001D01*
X0162722Y0036403D02*
X0164216Y0036403D01*
X0164216Y0035804D02*
X0162722Y0035804D01*
X0162395Y0035206D02*
X0164216Y0035206D01*
X0164216Y0034607D02*
X0162722Y0034607D01*
X0162722Y0034009D02*
X0164216Y0034009D01*
X0164216Y0033410D02*
X0162722Y0033410D01*
X0162722Y0032812D02*
X0164216Y0032812D01*
X0164454Y0032213D02*
X0162722Y0032213D01*
X0162722Y0031615D02*
X0165885Y0031615D01*
X0165287Y0031016D02*
X0162436Y0031016D01*
X0162722Y0030418D02*
X0164688Y0030418D01*
X0164090Y0029819D02*
X0162722Y0029819D01*
X0162722Y0029221D02*
X0163491Y0029221D01*
X0162893Y0028622D02*
X0162722Y0028622D01*
X0151144Y0026827D02*
X0105157Y0026827D01*
X0105157Y0027425D02*
X0150545Y0027425D01*
X0149947Y0028024D02*
X0105157Y0028024D01*
X0105157Y0028622D02*
X0149348Y0028622D01*
X0148750Y0029221D02*
X0105157Y0029221D01*
X0105157Y0029819D02*
X0148151Y0029819D01*
X0147553Y0030418D02*
X0105157Y0030418D01*
X0105157Y0031016D02*
X0146954Y0031016D01*
X0146356Y0031615D02*
X0105157Y0031615D01*
X0105157Y0032213D02*
X0145757Y0032213D01*
X0145159Y0032812D02*
X0105157Y0032812D01*
X0105157Y0033410D02*
X0144560Y0033410D01*
X0143962Y0034009D02*
X0105157Y0034009D01*
X0105157Y0034607D02*
X0143363Y0034607D01*
X0142765Y0035206D02*
X0105157Y0035206D01*
X0105157Y0035804D02*
X0142166Y0035804D01*
X0141568Y0036403D02*
X0105157Y0036403D01*
X0105157Y0037001D02*
X0140969Y0037001D01*
X0140371Y0037600D02*
X0105157Y0037600D01*
X0105157Y0038198D02*
X0139772Y0038198D01*
X0139174Y0038797D02*
X0105157Y0038797D01*
X0105157Y0039395D02*
X0138575Y0039395D01*
X0137977Y0039994D02*
X0105157Y0039994D01*
X0105157Y0040592D02*
X0137378Y0040592D01*
X0136780Y0041191D02*
X0105157Y0041191D01*
X0105157Y0041789D02*
X0136181Y0041789D01*
X0135583Y0042388D02*
X0105157Y0042388D01*
X0105157Y0042986D02*
X0134984Y0042986D01*
X0134386Y0043585D02*
X0105157Y0043585D01*
X0105157Y0044183D02*
X0133787Y0044183D01*
X0133189Y0044782D02*
X0105157Y0044782D01*
X0105157Y0045380D02*
X0132590Y0045380D01*
X0131992Y0045979D02*
X0105157Y0045979D01*
X0105157Y0046577D02*
X0131393Y0046577D01*
X0130795Y0047176D02*
X0105157Y0047176D01*
X0105157Y0047774D02*
X0130196Y0047774D01*
X0129597Y0048373D02*
X0105157Y0048373D01*
X0105157Y0048972D02*
X0128999Y0048972D01*
X0128400Y0049570D02*
X0105157Y0049570D01*
X0105157Y0050169D02*
X0127802Y0050169D01*
X0127203Y0050767D02*
X0105157Y0050767D01*
X0105157Y0051366D02*
X0126605Y0051366D01*
X0126006Y0051964D02*
X0105157Y0051964D01*
X0105157Y0052563D02*
X0125408Y0052563D01*
X0124809Y0053161D02*
X0105157Y0053161D01*
X0105157Y0053760D02*
X0124211Y0053760D01*
X0123612Y0054358D02*
X0105157Y0054358D01*
X0105157Y0054957D02*
X0123014Y0054957D01*
X0122415Y0055555D02*
X0105157Y0055555D01*
X0105157Y0056154D02*
X0121817Y0056154D01*
X0121218Y0056752D02*
X0105157Y0056752D01*
X0105157Y0057351D02*
X0120620Y0057351D01*
X0120021Y0057949D02*
X0105157Y0057949D01*
X0105157Y0058548D02*
X0119423Y0058548D01*
X0118824Y0059146D02*
X0105157Y0059146D01*
X0105157Y0059745D02*
X0118226Y0059745D01*
X0117627Y0060343D02*
X0105157Y0060343D01*
X0105157Y0060942D02*
X0117029Y0060942D01*
X0116430Y0061540D02*
X0105157Y0061540D01*
X0105157Y0062139D02*
X0115832Y0062139D01*
X0115233Y0062737D02*
X0105157Y0062737D01*
X0105157Y0063336D02*
X0114635Y0063336D01*
X0114036Y0063934D02*
X0105157Y0063934D01*
X0105157Y0064533D02*
X0113438Y0064533D01*
X0112839Y0065131D02*
X0105157Y0065131D01*
X0105157Y0065730D02*
X0112241Y0065730D01*
X0111642Y0066328D02*
X0105157Y0066328D01*
X0105157Y0066927D02*
X0111044Y0066927D01*
X0110445Y0067525D02*
X0105157Y0067525D01*
X0105157Y0068124D02*
X0109847Y0068124D01*
X0109248Y0068722D02*
X0105157Y0068722D01*
X0105157Y0069321D02*
X0108650Y0069321D01*
X0108051Y0069919D02*
X0105157Y0069919D01*
X0105157Y0070518D02*
X0107453Y0070518D01*
X0106854Y0071116D02*
X0105157Y0071116D01*
X0105157Y0071715D02*
X0106256Y0071715D01*
X0105657Y0072313D02*
X0105157Y0072313D01*
X0101357Y0072313D02*
X0095793Y0072313D01*
X0095793Y0071715D02*
X0101357Y0071715D01*
X0101357Y0071116D02*
X0095793Y0071116D01*
X0095793Y0070518D02*
X0101357Y0070518D01*
X0101357Y0069919D02*
X0095434Y0069919D01*
X0095416Y0069902D02*
X0095793Y0070278D01*
X0095793Y0073855D01*
X0095416Y0074232D01*
X0095533Y0074349D01*
X0095704Y0074646D01*
X0095793Y0074976D01*
X0095793Y0076098D01*
X0092293Y0076098D01*
X0092293Y0076698D01*
X0091693Y0076698D01*
X0091693Y0078948D01*
X0089322Y0078948D01*
X0088991Y0078859D01*
X0088695Y0078688D01*
X0088453Y0078446D01*
X0088282Y0078149D01*
X0088193Y0077819D01*
X0088193Y0076698D01*
X0091693Y0076698D01*
X0091693Y0076098D01*
X0088193Y0076098D01*
X0088193Y0074976D01*
X0088282Y0074646D01*
X0088453Y0074349D01*
X0088570Y0074232D01*
X0088193Y0073855D01*
X0088193Y0070278D01*
X0088570Y0069902D01*
X0088193Y0069525D01*
X0088193Y0065948D01*
X0088570Y0065571D01*
X0088193Y0065194D01*
X0088193Y0061617D01*
X0088570Y0061240D01*
X0088193Y0060863D01*
X0088193Y0057286D01*
X0088570Y0056909D01*
X0088193Y0056533D01*
X0088193Y0052956D01*
X0088570Y0052579D01*
X0088193Y0052202D01*
X0088193Y0048625D01*
X0088570Y0048248D01*
X0088193Y0047871D01*
X0088193Y0044294D01*
X0088570Y0043917D01*
X0088193Y0043540D01*
X0088193Y0039963D01*
X0088456Y0039700D01*
X0087557Y0039700D01*
X0087557Y0077713D01*
X0089744Y0079900D01*
X0094770Y0079900D01*
X0101357Y0073313D01*
X0101357Y0056687D01*
X0097444Y0060600D01*
X0095870Y0060600D01*
X0095793Y0060600D01*
X0095793Y0060863D01*
X0095416Y0061240D01*
X0095793Y0061617D01*
X0095793Y0065194D01*
X0095416Y0065571D01*
X0095793Y0065948D01*
X0095793Y0069525D01*
X0095416Y0069902D01*
X0095793Y0069321D02*
X0101357Y0069321D01*
X0101357Y0068722D02*
X0095793Y0068722D01*
X0095793Y0068124D02*
X0101357Y0068124D01*
X0101357Y0067525D02*
X0095793Y0067525D01*
X0095793Y0066927D02*
X0101357Y0066927D01*
X0101357Y0066328D02*
X0095793Y0066328D01*
X0095575Y0065730D02*
X0101357Y0065730D01*
X0101357Y0065131D02*
X0095793Y0065131D01*
X0095793Y0064533D02*
X0101357Y0064533D01*
X0101357Y0063934D02*
X0095793Y0063934D01*
X0095793Y0063336D02*
X0101357Y0063336D01*
X0101357Y0062737D02*
X0095793Y0062737D01*
X0095793Y0062139D02*
X0101357Y0062139D01*
X0101357Y0061540D02*
X0095716Y0061540D01*
X0095714Y0060942D02*
X0101357Y0060942D01*
X0101357Y0060343D02*
X0097701Y0060343D01*
X0098300Y0059745D02*
X0101357Y0059745D01*
X0101357Y0059146D02*
X0098898Y0059146D01*
X0099497Y0058548D02*
X0101357Y0058548D01*
X0101357Y0057949D02*
X0100095Y0057949D01*
X0100694Y0057351D02*
X0101357Y0057351D01*
X0101357Y0056752D02*
X0101292Y0056752D01*
X0096306Y0051964D02*
X0095793Y0051964D01*
X0095793Y0052202D02*
X0095595Y0052400D01*
X0095870Y0052400D01*
X0096957Y0051313D01*
X0096957Y0027587D01*
X0094770Y0025400D01*
X0086444Y0025400D01*
X0077657Y0034187D01*
X0076544Y0035300D01*
X0035844Y0035300D01*
X0034757Y0036387D01*
X0034757Y0039213D01*
X0035106Y0039562D01*
X0035106Y0036973D01*
X0035868Y0036212D01*
X0043244Y0036212D01*
X0044005Y0036973D01*
X0044005Y0041987D01*
X0043519Y0042474D01*
X0043557Y0042513D01*
X0043557Y0044512D01*
X0044233Y0043836D01*
X0045258Y0043411D01*
X0045915Y0043411D01*
X0046578Y0042749D01*
X0045538Y0042749D01*
X0045208Y0042660D01*
X0044911Y0042489D01*
X0044669Y0042247D01*
X0044498Y0041951D01*
X0044409Y0041620D01*
X0044409Y0039780D01*
X0048559Y0039780D01*
X0048559Y0039180D01*
X0049159Y0039180D01*
X0049159Y0036212D01*
X0052180Y0036212D01*
X0052510Y0036300D01*
X0052807Y0036472D01*
X0053049Y0036714D01*
X0053220Y0037010D01*
X0053309Y0037341D01*
X0053309Y0039180D01*
X0049159Y0039180D01*
X0049159Y0039780D01*
X0053253Y0039780D01*
X0056019Y0037014D01*
X0059448Y0037014D01*
X0059913Y0036550D01*
X0060938Y0036125D01*
X0062047Y0036125D01*
X0063072Y0036550D01*
X0063857Y0037334D01*
X0064281Y0038359D01*
X0064281Y0039469D01*
X0063857Y0040494D01*
X0063072Y0041278D01*
X0062047Y0041703D01*
X0060938Y0041703D01*
X0059913Y0041278D01*
X0059448Y0040814D01*
X0057593Y0040814D01*
X0053458Y0044949D01*
X0049752Y0044949D01*
X0048602Y0046098D01*
X0048602Y0046755D01*
X0048181Y0047771D01*
X0055161Y0047771D01*
X0055923Y0048532D01*
X0055923Y0054600D01*
X0069071Y0054600D01*
X0069071Y0053060D01*
X0069832Y0052298D01*
X0079571Y0052298D01*
X0080332Y0053060D01*
X0080332Y0053500D01*
X0080457Y0053500D01*
X0080457Y0032613D01*
X0081570Y0031500D01*
X0085970Y0027100D01*
X0088193Y0027100D01*
X0088193Y0026971D01*
X0088954Y0026210D01*
X0095031Y0026210D01*
X0095793Y0026971D01*
X0095793Y0030548D01*
X0095416Y0030925D01*
X0095533Y0031042D01*
X0095704Y0031339D01*
X0095793Y0031669D01*
X0095793Y0032791D01*
X0092293Y0032791D01*
X0092293Y0033391D01*
X0095793Y0033391D01*
X0095793Y0034512D01*
X0095704Y0034842D01*
X0095533Y0035139D01*
X0095416Y0035256D01*
X0095793Y0035633D01*
X0095793Y0039210D01*
X0095416Y0039587D01*
X0095793Y0039963D01*
X0095793Y0043540D01*
X0095416Y0043917D01*
X0095793Y0044294D01*
X0095793Y0047871D01*
X0095416Y0048248D01*
X0095793Y0048625D01*
X0095793Y0052202D01*
X0095793Y0051366D02*
X0096905Y0051366D01*
X0096957Y0050767D02*
X0095793Y0050767D01*
X0095793Y0050169D02*
X0096957Y0050169D01*
X0096957Y0049570D02*
X0095793Y0049570D01*
X0095793Y0048972D02*
X0096957Y0048972D01*
X0096957Y0048373D02*
X0095541Y0048373D01*
X0095793Y0047774D02*
X0096957Y0047774D01*
X0096957Y0047176D02*
X0095793Y0047176D01*
X0095793Y0046577D02*
X0096957Y0046577D01*
X0096957Y0045979D02*
X0095793Y0045979D01*
X0095793Y0045380D02*
X0096957Y0045380D01*
X0096957Y0044782D02*
X0095793Y0044782D01*
X0095682Y0044183D02*
X0096957Y0044183D01*
X0096957Y0043585D02*
X0095748Y0043585D01*
X0095793Y0042986D02*
X0096957Y0042986D01*
X0096957Y0042388D02*
X0095793Y0042388D01*
X0095793Y0041789D02*
X0096957Y0041789D01*
X0096957Y0041191D02*
X0095793Y0041191D01*
X0095793Y0040592D02*
X0096957Y0040592D01*
X0096957Y0039994D02*
X0095793Y0039994D01*
X0095607Y0039395D02*
X0096957Y0039395D01*
X0096957Y0038797D02*
X0095793Y0038797D01*
X0095793Y0038198D02*
X0096957Y0038198D01*
X0096957Y0037600D02*
X0095793Y0037600D01*
X0095793Y0037001D02*
X0096957Y0037001D01*
X0096957Y0036403D02*
X0095793Y0036403D01*
X0095793Y0035804D02*
X0096957Y0035804D01*
X0096957Y0035206D02*
X0095466Y0035206D01*
X0095767Y0034607D02*
X0096957Y0034607D01*
X0096957Y0034009D02*
X0095793Y0034009D01*
X0095793Y0033410D02*
X0096957Y0033410D01*
X0096957Y0032812D02*
X0092293Y0032812D01*
X0091693Y0032812D02*
X0085633Y0032812D01*
X0085034Y0033410D02*
X0088193Y0033410D01*
X0088193Y0033391D02*
X0091693Y0033391D01*
X0091693Y0032791D01*
X0088193Y0032791D01*
X0088193Y0031669D01*
X0088282Y0031339D01*
X0088453Y0031042D01*
X0088570Y0030925D01*
X0088545Y0030900D01*
X0087544Y0030900D01*
X0084257Y0034187D01*
X0084257Y0037613D01*
X0084870Y0037000D01*
X0085970Y0035900D01*
X0087544Y0035900D01*
X0088193Y0035900D01*
X0088193Y0035633D01*
X0088570Y0035256D01*
X0088453Y0035139D01*
X0088282Y0034842D01*
X0088193Y0034512D01*
X0088193Y0033391D01*
X0088193Y0034009D02*
X0084436Y0034009D01*
X0084257Y0034607D02*
X0088219Y0034607D01*
X0088520Y0035206D02*
X0084257Y0035206D01*
X0084257Y0035804D02*
X0088193Y0035804D01*
X0085468Y0036403D02*
X0084257Y0036403D01*
X0084257Y0037001D02*
X0084869Y0037001D01*
X0084271Y0037600D02*
X0084257Y0037600D01*
X0080457Y0037600D02*
X0078505Y0037600D01*
X0078505Y0037341D02*
X0078505Y0039180D01*
X0074356Y0039180D01*
X0074356Y0036212D01*
X0077377Y0036212D01*
X0077707Y0036300D01*
X0078004Y0036472D01*
X0078246Y0036714D01*
X0078417Y0037010D01*
X0078505Y0037341D01*
X0078412Y0037001D02*
X0080457Y0037001D01*
X0080457Y0036403D02*
X0077885Y0036403D01*
X0076639Y0035206D02*
X0080457Y0035206D01*
X0080457Y0035804D02*
X0035340Y0035804D01*
X0035677Y0036403D02*
X0034757Y0036403D01*
X0034757Y0037001D02*
X0035106Y0037001D01*
X0035106Y0037600D02*
X0034757Y0037600D01*
X0034757Y0038198D02*
X0035106Y0038198D01*
X0035106Y0038797D02*
X0034757Y0038797D01*
X0034940Y0039395D02*
X0035106Y0039395D01*
X0029258Y0042388D02*
X0018408Y0042388D01*
X0018809Y0041789D02*
X0028660Y0041789D01*
X0028061Y0041191D02*
X0018809Y0041191D01*
X0018809Y0040592D02*
X0027463Y0040592D01*
X0026864Y0039994D02*
X0018809Y0039994D01*
X0018809Y0039395D02*
X0026266Y0039395D01*
X0025667Y0038797D02*
X0018809Y0038797D01*
X0018809Y0038198D02*
X0025069Y0038198D01*
X0024470Y0037600D02*
X0018809Y0037600D01*
X0018809Y0037001D02*
X0023872Y0037001D01*
X0023273Y0036403D02*
X0018238Y0036403D01*
X0021057Y0034009D02*
X0005757Y0034009D01*
X0005757Y0034607D02*
X0021478Y0034607D01*
X0022076Y0035206D02*
X0005757Y0035206D01*
X0005757Y0035804D02*
X0022675Y0035804D01*
X0021057Y0033410D02*
X0005757Y0033410D01*
X0005757Y0032812D02*
X0021057Y0032812D01*
X0021057Y0032213D02*
X0005757Y0032213D01*
X0005757Y0031615D02*
X0021057Y0031615D01*
X0021057Y0031016D02*
X0005757Y0031016D01*
X0005757Y0030418D02*
X0021057Y0030418D01*
X0021057Y0029819D02*
X0005757Y0029819D01*
X0005757Y0029221D02*
X0021057Y0029221D01*
X0021057Y0028622D02*
X0005757Y0028622D01*
X0005757Y0028024D02*
X0021057Y0028024D01*
X0021057Y0027425D02*
X0018410Y0027425D01*
X0018307Y0027528D02*
X0018010Y0027700D01*
X0017680Y0027788D01*
X0014659Y0027788D01*
X0014659Y0024820D01*
X0014059Y0024820D01*
X0014059Y0027788D01*
X0011038Y0027788D01*
X0010708Y0027700D01*
X0010411Y0027528D01*
X0010169Y0027286D01*
X0009998Y0026990D01*
X0009909Y0026659D01*
X0009909Y0024820D01*
X0014059Y0024820D01*
X0014059Y0024220D01*
X0009909Y0024220D01*
X0009909Y0022380D01*
X0009998Y0022049D01*
X0010169Y0021753D01*
X0010411Y0021511D01*
X0010708Y0021340D01*
X0011038Y0021251D01*
X0014059Y0021251D01*
X0014059Y0024220D01*
X0014659Y0024220D01*
X0014659Y0024820D01*
X0018809Y0024820D01*
X0018809Y0026659D01*
X0018720Y0026990D01*
X0018549Y0027286D01*
X0018307Y0027528D01*
X0018764Y0026827D02*
X0021057Y0026827D01*
X0021057Y0026228D02*
X0018809Y0026228D01*
X0018809Y0025630D02*
X0021057Y0025630D01*
X0021057Y0025031D02*
X0018809Y0025031D01*
X0018809Y0024220D02*
X0014659Y0024220D01*
X0014659Y0021251D01*
X0017680Y0021251D01*
X0018010Y0021340D01*
X0018307Y0021511D01*
X0018549Y0021753D01*
X0018720Y0022049D01*
X0018809Y0022380D01*
X0018809Y0024220D01*
X0018809Y0023834D02*
X0021057Y0023834D01*
X0021057Y0023236D02*
X0018809Y0023236D01*
X0018809Y0022637D02*
X0021057Y0022637D01*
X0021057Y0022039D02*
X0018714Y0022039D01*
X0018184Y0021440D02*
X0021057Y0021440D01*
X0017905Y0020841D02*
X0005757Y0020841D01*
X0005757Y0020243D02*
X0017307Y0020243D01*
X0017189Y0019644D02*
X0005757Y0019644D01*
X0005757Y0019046D02*
X0017189Y0019046D01*
X0017189Y0018447D02*
X0005757Y0018447D01*
X0005757Y0017849D02*
X0017189Y0017849D01*
X0017189Y0017250D02*
X0005757Y0017250D01*
X0005757Y0016652D02*
X0017189Y0016652D01*
X0017189Y0016053D02*
X0005757Y0016053D01*
X0005757Y0015455D02*
X0017189Y0015455D01*
X0017189Y0014856D02*
X0005757Y0014856D01*
X0005757Y0014258D02*
X0017189Y0014258D01*
X0017189Y0013659D02*
X0005757Y0013659D01*
X0005757Y0013061D02*
X0017239Y0013061D01*
X0017838Y0012462D02*
X0005757Y0012462D01*
X0005757Y0011864D02*
X0026407Y0011864D01*
X0027005Y0011265D02*
X0005757Y0011265D01*
X0005757Y0010667D02*
X0027604Y0010667D01*
X0028202Y0010068D02*
X0005757Y0010068D01*
X0005757Y0009470D02*
X0028801Y0009470D01*
X0029399Y0008871D02*
X0005757Y0008871D01*
X0005757Y0008273D02*
X0029998Y0008273D01*
X0030596Y0007674D02*
X0005757Y0007674D01*
X0005757Y0007076D02*
X0031195Y0007076D01*
X0031793Y0006477D02*
X0005757Y0006477D01*
X0005757Y0005879D02*
X0176358Y0005879D01*
X0176358Y0006477D02*
X0087822Y0006477D01*
X0088420Y0007076D02*
X0176358Y0007076D01*
X0176358Y0007674D02*
X0089019Y0007674D01*
X0089617Y0008273D02*
X0176358Y0008273D01*
X0176358Y0008871D02*
X0090216Y0008871D01*
X0090814Y0009470D02*
X0176358Y0009470D01*
X0176358Y0010068D02*
X0091413Y0010068D01*
X0092011Y0010667D02*
X0176358Y0010667D01*
X0176358Y0011265D02*
X0092610Y0011265D01*
X0093208Y0011864D02*
X0176358Y0011864D01*
X0176358Y0012462D02*
X0093807Y0012462D01*
X0094405Y0013061D02*
X0099348Y0013061D01*
X0099089Y0013659D02*
X0095004Y0013659D01*
X0095602Y0014258D02*
X0099089Y0014258D01*
X0099089Y0014856D02*
X0096201Y0014856D01*
X0096799Y0015455D02*
X0099089Y0015455D01*
X0099089Y0016053D02*
X0097398Y0016053D01*
X0097996Y0016652D02*
X0099089Y0016652D01*
X0099089Y0017250D02*
X0098595Y0017250D01*
X0101587Y0020243D02*
X0176358Y0020243D01*
X0176358Y0020841D02*
X0102186Y0020841D01*
X0102784Y0021440D02*
X0176358Y0021440D01*
X0176358Y0022039D02*
X0103383Y0022039D01*
X0103981Y0022637D02*
X0176358Y0022637D01*
X0176358Y0019644D02*
X0151579Y0019644D01*
X0151826Y0019046D02*
X0176358Y0019046D01*
X0176358Y0018447D02*
X0151826Y0018447D01*
X0151826Y0017849D02*
X0176358Y0017849D01*
X0176358Y0017250D02*
X0151826Y0017250D01*
X0151826Y0016652D02*
X0176358Y0016652D01*
X0176358Y0016053D02*
X0151826Y0016053D01*
X0151826Y0015455D02*
X0176358Y0015455D01*
X0176358Y0014856D02*
X0151826Y0014856D01*
X0151826Y0014258D02*
X0176358Y0014258D01*
X0176358Y0013659D02*
X0151826Y0013659D01*
X0151567Y0013061D02*
X0176358Y0013061D01*
X0176358Y0041191D02*
X0162722Y0041191D01*
X0162722Y0041789D02*
X0167520Y0041789D01*
X0167484Y0041795D02*
X0168148Y0041690D01*
X0168184Y0041690D01*
X0168184Y0045658D01*
X0168784Y0045658D01*
X0168784Y0041690D01*
X0168820Y0041690D01*
X0169484Y0041795D01*
X0170123Y0042003D01*
X0170721Y0042308D01*
X0171265Y0042703D01*
X0171740Y0043178D01*
X0172135Y0043721D01*
X0172440Y0044320D01*
X0172647Y0044959D01*
X0172753Y0045623D01*
X0172753Y0045658D01*
X0168784Y0045658D01*
X0168784Y0046258D01*
X0172753Y0046258D01*
X0172753Y0046294D01*
X0172647Y0046958D01*
X0172440Y0047597D01*
X0172135Y0048196D01*
X0171740Y0048739D01*
X0171265Y0049214D01*
X0170721Y0049609D01*
X0170123Y0049914D01*
X0169484Y0050122D01*
X0168820Y0050227D01*
X0168784Y0050227D01*
X0168784Y0046259D01*
X0168184Y0046259D01*
X0168184Y0050227D01*
X0168148Y0050227D01*
X0167484Y0050122D01*
X0166845Y0049914D01*
X0166247Y0049609D01*
X0165703Y0049214D01*
X0165228Y0048739D01*
X0164833Y0048196D01*
X0164528Y0047597D01*
X0164321Y0046958D01*
X0164216Y0046294D01*
X0164216Y0046258D01*
X0168184Y0046258D01*
X0168184Y0045658D01*
X0164216Y0045658D01*
X0164216Y0045623D01*
X0164321Y0044959D01*
X0164528Y0044320D01*
X0164833Y0043721D01*
X0165228Y0043178D01*
X0165703Y0042703D01*
X0166247Y0042308D01*
X0166845Y0042003D01*
X0167484Y0041795D01*
X0168184Y0041789D02*
X0168784Y0041789D01*
X0168784Y0042388D02*
X0168184Y0042388D01*
X0168184Y0042986D02*
X0168784Y0042986D01*
X0168784Y0043585D02*
X0168184Y0043585D01*
X0168184Y0044183D02*
X0168784Y0044183D01*
X0168784Y0044782D02*
X0168184Y0044782D01*
X0168184Y0045380D02*
X0168784Y0045380D01*
X0168784Y0045979D02*
X0176358Y0045979D01*
X0176358Y0046577D02*
X0172708Y0046577D01*
X0172577Y0047176D02*
X0176358Y0047176D01*
X0176358Y0047774D02*
X0172349Y0047774D01*
X0172006Y0048373D02*
X0176358Y0048373D01*
X0176358Y0048972D02*
X0171508Y0048972D01*
X0170775Y0049570D02*
X0176358Y0049570D01*
X0176358Y0050169D02*
X0169189Y0050169D01*
X0168784Y0050169D02*
X0168184Y0050169D01*
X0167779Y0050169D02*
X0162722Y0050169D01*
X0162722Y0050767D02*
X0176358Y0050767D01*
X0176358Y0051366D02*
X0162722Y0051366D01*
X0162722Y0051964D02*
X0166973Y0051964D01*
X0165843Y0052563D02*
X0162361Y0052563D01*
X0162722Y0053161D02*
X0165245Y0053161D01*
X0169995Y0051964D02*
X0176358Y0051964D01*
X0176358Y0052563D02*
X0171125Y0052563D01*
X0171723Y0053161D02*
X0176358Y0053161D01*
X0176358Y0053760D02*
X0172193Y0053760D01*
X0172441Y0054358D02*
X0176358Y0054358D01*
X0176358Y0054957D02*
X0172689Y0054957D01*
X0172753Y0055555D02*
X0176358Y0055555D01*
X0176358Y0056154D02*
X0172753Y0056154D01*
X0172753Y0056752D02*
X0176358Y0056752D01*
X0176358Y0057351D02*
X0172528Y0057351D01*
X0172280Y0057949D02*
X0176358Y0057949D01*
X0176358Y0058548D02*
X0171931Y0058548D01*
X0171333Y0059146D02*
X0176358Y0059146D01*
X0176358Y0059745D02*
X0170497Y0059745D01*
X0167085Y0061540D02*
X0176358Y0061540D01*
X0176358Y0060942D02*
X0166486Y0060942D01*
X0165888Y0060343D02*
X0176358Y0060343D01*
X0176358Y0062139D02*
X0170417Y0062139D01*
X0171299Y0062737D02*
X0176358Y0062737D01*
X0176358Y0063336D02*
X0171898Y0063336D01*
X0172266Y0063934D02*
X0176358Y0063934D01*
X0176358Y0064533D02*
X0172514Y0064533D01*
X0172753Y0065131D02*
X0176358Y0065131D01*
X0176358Y0065730D02*
X0172753Y0065730D01*
X0172753Y0066328D02*
X0176358Y0066328D01*
X0176358Y0066927D02*
X0172703Y0066927D01*
X0172455Y0067525D02*
X0176358Y0067525D01*
X0176358Y0068124D02*
X0172207Y0068124D01*
X0171757Y0068722D02*
X0176358Y0068722D01*
X0176358Y0069321D02*
X0171158Y0069321D01*
X0170076Y0069919D02*
X0176358Y0069919D01*
X0176358Y0070518D02*
X0162722Y0070518D01*
X0162722Y0071116D02*
X0176358Y0071116D01*
X0176358Y0071715D02*
X0162722Y0071715D01*
X0162722Y0072313D02*
X0176358Y0072313D01*
X0176358Y0072912D02*
X0162722Y0072912D01*
X0162722Y0073510D02*
X0176358Y0073510D01*
X0176358Y0074109D02*
X0162468Y0074109D01*
X0162722Y0074708D02*
X0176358Y0074708D01*
X0176358Y0075306D02*
X0162722Y0075306D01*
X0162722Y0075905D02*
X0176358Y0075905D01*
X0176358Y0076503D02*
X0162722Y0076503D01*
X0162722Y0077102D02*
X0176358Y0077102D01*
X0176358Y0077700D02*
X0162722Y0077700D01*
X0162610Y0078299D02*
X0176358Y0078299D01*
X0176358Y0078897D02*
X0162011Y0078897D01*
X0162363Y0069919D02*
X0166892Y0069919D01*
X0165810Y0069321D02*
X0162722Y0069321D01*
X0162722Y0068722D02*
X0165211Y0068722D01*
X0164761Y0068124D02*
X0162722Y0068124D01*
X0162722Y0067525D02*
X0164513Y0067525D01*
X0164265Y0066927D02*
X0162722Y0066927D01*
X0162722Y0066328D02*
X0164216Y0066328D01*
X0164216Y0065730D02*
X0162504Y0065730D01*
X0162722Y0065131D02*
X0164216Y0065131D01*
X0164454Y0064533D02*
X0162722Y0064533D01*
X0162722Y0063934D02*
X0164105Y0063934D01*
X0163506Y0063336D02*
X0162722Y0063336D01*
X0162722Y0062737D02*
X0162908Y0062737D01*
X0165289Y0059745D02*
X0166471Y0059745D01*
X0165635Y0059146D02*
X0164691Y0059146D01*
X0165037Y0058548D02*
X0164092Y0058548D01*
X0164688Y0057949D02*
X0163494Y0057949D01*
X0162722Y0057351D02*
X0164441Y0057351D01*
X0162722Y0049570D02*
X0166193Y0049570D01*
X0165460Y0048972D02*
X0162722Y0048972D01*
X0162470Y0048373D02*
X0164962Y0048373D01*
X0164619Y0047774D02*
X0162722Y0047774D01*
X0162722Y0047176D02*
X0164391Y0047176D01*
X0164260Y0046577D02*
X0162722Y0046577D01*
X0162722Y0045979D02*
X0168184Y0045979D01*
X0168184Y0046577D02*
X0168784Y0046577D01*
X0168784Y0047176D02*
X0168184Y0047176D01*
X0168184Y0047774D02*
X0168784Y0047774D01*
X0168784Y0048373D02*
X0168184Y0048373D01*
X0168184Y0048972D02*
X0168784Y0048972D01*
X0168784Y0049570D02*
X0168184Y0049570D01*
X0164254Y0045380D02*
X0162722Y0045380D01*
X0162722Y0044782D02*
X0164378Y0044782D01*
X0164598Y0044183D02*
X0162611Y0044183D01*
X0162678Y0043585D02*
X0164932Y0043585D01*
X0165420Y0042986D02*
X0162722Y0042986D01*
X0162722Y0042388D02*
X0166136Y0042388D01*
X0169448Y0041789D02*
X0176358Y0041789D01*
X0176358Y0042388D02*
X0170832Y0042388D01*
X0171548Y0042986D02*
X0176358Y0042986D01*
X0176358Y0043585D02*
X0172036Y0043585D01*
X0172370Y0044183D02*
X0176358Y0044183D01*
X0176358Y0044782D02*
X0172590Y0044782D01*
X0172714Y0045380D02*
X0176358Y0045380D01*
X0101357Y0072912D02*
X0095793Y0072912D01*
X0095793Y0073510D02*
X0101160Y0073510D01*
X0100561Y0074109D02*
X0095539Y0074109D01*
X0095721Y0074708D02*
X0099963Y0074708D01*
X0099364Y0075306D02*
X0095793Y0075306D01*
X0095793Y0075905D02*
X0098766Y0075905D01*
X0098167Y0076503D02*
X0092293Y0076503D01*
X0092293Y0076698D02*
X0095793Y0076698D01*
X0095793Y0077819D01*
X0095704Y0078149D01*
X0095533Y0078446D01*
X0095291Y0078688D01*
X0094995Y0078859D01*
X0094664Y0078948D01*
X0092293Y0078948D01*
X0092293Y0076698D01*
X0092293Y0077102D02*
X0091693Y0077102D01*
X0091693Y0077700D02*
X0092293Y0077700D01*
X0092293Y0078299D02*
X0091693Y0078299D01*
X0091693Y0078897D02*
X0092293Y0078897D01*
X0094853Y0078897D02*
X0095773Y0078897D01*
X0095618Y0078299D02*
X0096372Y0078299D01*
X0095793Y0077700D02*
X0096970Y0077700D01*
X0097569Y0077102D02*
X0095793Y0077102D01*
X0095175Y0079496D02*
X0089340Y0079496D01*
X0089133Y0078897D02*
X0088742Y0078897D01*
X0088368Y0078299D02*
X0088143Y0078299D01*
X0088193Y0077700D02*
X0087557Y0077700D01*
X0087557Y0077102D02*
X0088193Y0077102D01*
X0087557Y0076503D02*
X0091693Y0076503D01*
X0088193Y0075905D02*
X0087557Y0075905D01*
X0087557Y0075306D02*
X0088193Y0075306D01*
X0088265Y0074708D02*
X0087557Y0074708D01*
X0087557Y0074109D02*
X0088447Y0074109D01*
X0088193Y0073510D02*
X0087557Y0073510D01*
X0087557Y0072912D02*
X0088193Y0072912D01*
X0088193Y0072313D02*
X0087557Y0072313D01*
X0087557Y0071715D02*
X0088193Y0071715D01*
X0088193Y0071116D02*
X0087557Y0071116D01*
X0087557Y0070518D02*
X0088193Y0070518D01*
X0088552Y0069919D02*
X0087557Y0069919D01*
X0087557Y0069321D02*
X0088193Y0069321D01*
X0088193Y0068722D02*
X0087557Y0068722D01*
X0087557Y0068124D02*
X0088193Y0068124D01*
X0088193Y0067525D02*
X0087557Y0067525D01*
X0087557Y0066927D02*
X0088193Y0066927D01*
X0088193Y0066328D02*
X0087557Y0066328D01*
X0087557Y0065730D02*
X0088411Y0065730D01*
X0088193Y0065131D02*
X0087557Y0065131D01*
X0087557Y0064533D02*
X0088193Y0064533D01*
X0088193Y0063934D02*
X0087557Y0063934D01*
X0087557Y0063336D02*
X0088193Y0063336D01*
X0088193Y0062737D02*
X0087557Y0062737D01*
X0087557Y0062139D02*
X0088193Y0062139D01*
X0088270Y0061540D02*
X0087557Y0061540D01*
X0087557Y0060942D02*
X0088271Y0060942D01*
X0088193Y0060343D02*
X0087557Y0060343D01*
X0087557Y0059745D02*
X0088193Y0059745D01*
X0088193Y0059146D02*
X0087557Y0059146D01*
X0087557Y0058548D02*
X0088193Y0058548D01*
X0088193Y0057949D02*
X0087557Y0057949D01*
X0087557Y0057351D02*
X0088193Y0057351D01*
X0088413Y0056752D02*
X0087557Y0056752D01*
X0087557Y0056154D02*
X0088193Y0056154D01*
X0088193Y0055555D02*
X0087557Y0055555D01*
X0087557Y0054957D02*
X0088193Y0054957D01*
X0088193Y0054358D02*
X0087557Y0054358D01*
X0087557Y0053760D02*
X0088193Y0053760D01*
X0088193Y0053161D02*
X0087557Y0053161D01*
X0087557Y0052563D02*
X0088554Y0052563D01*
X0088193Y0051964D02*
X0087557Y0051964D01*
X0087557Y0051366D02*
X0088193Y0051366D01*
X0088193Y0050767D02*
X0087557Y0050767D01*
X0087557Y0050169D02*
X0088193Y0050169D01*
X0088193Y0049570D02*
X0087557Y0049570D01*
X0087557Y0048972D02*
X0088193Y0048972D01*
X0088445Y0048373D02*
X0087557Y0048373D01*
X0087557Y0047774D02*
X0088193Y0047774D01*
X0088193Y0047176D02*
X0087557Y0047176D01*
X0087557Y0046577D02*
X0088193Y0046577D01*
X0088193Y0045979D02*
X0087557Y0045979D01*
X0087557Y0045380D02*
X0088193Y0045380D01*
X0088193Y0044782D02*
X0087557Y0044782D01*
X0087557Y0044183D02*
X0088304Y0044183D01*
X0088237Y0043585D02*
X0087557Y0043585D01*
X0087557Y0042986D02*
X0088193Y0042986D01*
X0088193Y0042388D02*
X0087557Y0042388D01*
X0087557Y0041789D02*
X0088193Y0041789D01*
X0088193Y0041191D02*
X0087557Y0041191D01*
X0087557Y0040592D02*
X0088193Y0040592D01*
X0088193Y0039994D02*
X0087557Y0039994D01*
X0080457Y0039994D02*
X0078505Y0039994D01*
X0078505Y0039780D02*
X0078505Y0041620D01*
X0078417Y0041951D01*
X0078246Y0042247D01*
X0078004Y0042489D01*
X0077707Y0042660D01*
X0077377Y0042749D01*
X0074356Y0042749D01*
X0074356Y0039780D01*
X0078505Y0039780D01*
X0078505Y0040592D02*
X0080457Y0040592D01*
X0080457Y0041191D02*
X0078505Y0041191D01*
X0078460Y0041789D02*
X0080457Y0041789D01*
X0080457Y0042388D02*
X0078105Y0042388D01*
X0079203Y0043243D02*
X0075002Y0043243D01*
X0075002Y0046605D01*
X0075002Y0046606D02*
X0075002Y0047205D01*
X0080332Y0047205D01*
X0080332Y0049439D01*
X0080244Y0049769D01*
X0080073Y0050066D01*
X0079830Y0050308D01*
X0079534Y0050479D01*
X0079203Y0050568D01*
X0075002Y0050568D01*
X0075002Y0047206D01*
X0074402Y0047206D01*
X0074402Y0050568D01*
X0070200Y0050568D01*
X0069869Y0050479D01*
X0069573Y0050308D01*
X0069331Y0050066D01*
X0069159Y0049769D01*
X0069071Y0049439D01*
X0069071Y0047205D01*
X0074402Y0047205D01*
X0074402Y0046606D01*
X0074402Y0046605D02*
X0075002Y0046605D01*
X0075002Y0046606D02*
X0080332Y0046606D01*
X0080332Y0044372D01*
X0080244Y0044042D01*
X0080073Y0043745D01*
X0079830Y0043503D01*
X0079534Y0043332D01*
X0079203Y0043243D01*
X0079912Y0043585D02*
X0080457Y0043585D01*
X0080457Y0044183D02*
X0080282Y0044183D01*
X0080332Y0044782D02*
X0080457Y0044782D01*
X0080457Y0045380D02*
X0080332Y0045380D01*
X0080332Y0045979D02*
X0080457Y0045979D01*
X0080457Y0046577D02*
X0080332Y0046577D01*
X0080457Y0047176D02*
X0075002Y0047176D01*
X0075002Y0047774D02*
X0074402Y0047774D01*
X0074402Y0047176D02*
X0048428Y0047176D01*
X0048602Y0046577D02*
X0069071Y0046577D01*
X0069071Y0046606D02*
X0069071Y0044372D01*
X0069159Y0044042D01*
X0069331Y0043745D01*
X0069573Y0043503D01*
X0069869Y0043332D01*
X0070200Y0043243D01*
X0074402Y0043243D01*
X0074402Y0046605D01*
X0074402Y0046606D02*
X0069071Y0046606D01*
X0069071Y0045979D02*
X0048721Y0045979D01*
X0049320Y0045380D02*
X0069071Y0045380D01*
X0069071Y0044782D02*
X0053625Y0044782D01*
X0054224Y0044183D02*
X0069121Y0044183D01*
X0069491Y0043585D02*
X0054822Y0043585D01*
X0055421Y0042986D02*
X0080457Y0042986D01*
X0075002Y0043585D02*
X0074402Y0043585D01*
X0074402Y0044183D02*
X0075002Y0044183D01*
X0075002Y0044782D02*
X0074402Y0044782D01*
X0074402Y0045380D02*
X0075002Y0045380D01*
X0075002Y0045979D02*
X0074402Y0045979D01*
X0074402Y0046577D02*
X0075002Y0046577D01*
X0075002Y0048373D02*
X0074402Y0048373D01*
X0074402Y0048972D02*
X0075002Y0048972D01*
X0075002Y0049570D02*
X0074402Y0049570D01*
X0074402Y0050169D02*
X0075002Y0050169D01*
X0079970Y0050169D02*
X0080457Y0050169D01*
X0080457Y0050767D02*
X0055923Y0050767D01*
X0055923Y0050169D02*
X0069433Y0050169D01*
X0069106Y0049570D02*
X0055923Y0049570D01*
X0055923Y0048972D02*
X0069071Y0048972D01*
X0069071Y0048373D02*
X0055763Y0048373D01*
X0055165Y0047774D02*
X0069071Y0047774D01*
X0069568Y0052563D02*
X0055923Y0052563D01*
X0055923Y0053161D02*
X0069071Y0053161D01*
X0069071Y0053760D02*
X0055923Y0053760D01*
X0055923Y0054358D02*
X0069071Y0054358D01*
X0079835Y0052563D02*
X0080457Y0052563D01*
X0080457Y0053161D02*
X0080332Y0053161D01*
X0080457Y0051964D02*
X0055923Y0051964D01*
X0055923Y0051366D02*
X0080457Y0051366D01*
X0080457Y0049570D02*
X0080297Y0049570D01*
X0080332Y0048972D02*
X0080457Y0048972D01*
X0080457Y0048373D02*
X0080332Y0048373D01*
X0080332Y0047774D02*
X0080457Y0047774D01*
X0074356Y0042388D02*
X0073756Y0042388D01*
X0073756Y0042749D02*
X0070735Y0042749D01*
X0070405Y0042660D01*
X0070108Y0042489D01*
X0069866Y0042247D01*
X0069695Y0041951D01*
X0069606Y0041620D01*
X0069606Y0039780D01*
X0073756Y0039780D01*
X0073756Y0039180D01*
X0074356Y0039180D01*
X0074356Y0039780D01*
X0073756Y0039780D01*
X0073756Y0042749D01*
X0073756Y0041789D02*
X0074356Y0041789D01*
X0074356Y0041191D02*
X0073756Y0041191D01*
X0073756Y0040592D02*
X0074356Y0040592D01*
X0074356Y0039994D02*
X0073756Y0039994D01*
X0073756Y0039395D02*
X0064281Y0039395D01*
X0064281Y0038797D02*
X0069606Y0038797D01*
X0069606Y0039180D02*
X0069606Y0037341D01*
X0069695Y0037010D01*
X0069866Y0036714D01*
X0070108Y0036472D01*
X0070405Y0036300D01*
X0070735Y0036212D01*
X0073756Y0036212D01*
X0073756Y0039180D01*
X0069606Y0039180D01*
X0069606Y0039994D02*
X0064064Y0039994D01*
X0063758Y0040592D02*
X0069606Y0040592D01*
X0069606Y0041191D02*
X0063160Y0041191D01*
X0059825Y0041191D02*
X0057216Y0041191D01*
X0056618Y0041789D02*
X0069652Y0041789D01*
X0070007Y0042388D02*
X0056019Y0042388D01*
X0053638Y0039395D02*
X0049159Y0039395D01*
X0049159Y0038797D02*
X0048559Y0038797D01*
X0048559Y0039180D02*
X0048559Y0036212D01*
X0045538Y0036212D01*
X0045208Y0036300D01*
X0044911Y0036472D01*
X0044669Y0036714D01*
X0044498Y0037010D01*
X0044409Y0037341D01*
X0044409Y0039180D01*
X0048559Y0039180D01*
X0048559Y0039395D02*
X0044005Y0039395D01*
X0044005Y0038797D02*
X0044409Y0038797D01*
X0044409Y0038198D02*
X0044005Y0038198D01*
X0044005Y0037600D02*
X0044409Y0037600D01*
X0044503Y0037001D02*
X0044005Y0037001D01*
X0043435Y0036403D02*
X0045030Y0036403D01*
X0048559Y0036403D02*
X0049159Y0036403D01*
X0049159Y0037001D02*
X0048559Y0037001D01*
X0048559Y0037600D02*
X0049159Y0037600D01*
X0049159Y0038198D02*
X0048559Y0038198D01*
X0052688Y0036403D02*
X0060267Y0036403D01*
X0059461Y0037001D02*
X0053215Y0037001D01*
X0053309Y0037600D02*
X0055433Y0037600D01*
X0054835Y0038198D02*
X0053309Y0038198D01*
X0053309Y0038797D02*
X0054236Y0038797D01*
X0062718Y0036403D02*
X0070227Y0036403D01*
X0069700Y0037001D02*
X0063524Y0037001D01*
X0063967Y0037600D02*
X0069606Y0037600D01*
X0069606Y0038198D02*
X0064215Y0038198D01*
X0073756Y0038198D02*
X0074356Y0038198D01*
X0074356Y0037600D02*
X0073756Y0037600D01*
X0073756Y0037001D02*
X0074356Y0037001D01*
X0074356Y0036403D02*
X0073756Y0036403D01*
X0073756Y0038797D02*
X0074356Y0038797D01*
X0074356Y0039395D02*
X0080457Y0039395D01*
X0080457Y0038797D02*
X0078505Y0038797D01*
X0078505Y0038198D02*
X0080457Y0038198D01*
X0080457Y0034607D02*
X0077237Y0034607D01*
X0077836Y0034009D02*
X0080457Y0034009D01*
X0080457Y0033410D02*
X0078434Y0033410D01*
X0079033Y0032812D02*
X0080457Y0032812D01*
X0080857Y0032213D02*
X0079631Y0032213D01*
X0080230Y0031615D02*
X0081456Y0031615D01*
X0082054Y0031016D02*
X0080828Y0031016D01*
X0081427Y0030418D02*
X0082653Y0030418D01*
X0083251Y0029819D02*
X0082025Y0029819D01*
X0082624Y0029221D02*
X0083850Y0029221D01*
X0084448Y0028622D02*
X0083222Y0028622D01*
X0083821Y0028024D02*
X0085047Y0028024D01*
X0085645Y0027425D02*
X0084419Y0027425D01*
X0085018Y0026827D02*
X0088338Y0026827D01*
X0088936Y0026228D02*
X0085616Y0026228D01*
X0086215Y0025630D02*
X0095000Y0025630D01*
X0095050Y0026228D02*
X0095599Y0026228D01*
X0095648Y0026827D02*
X0096197Y0026827D01*
X0095793Y0027425D02*
X0096796Y0027425D01*
X0096957Y0028024D02*
X0095793Y0028024D01*
X0095793Y0028622D02*
X0096957Y0028622D01*
X0096957Y0029221D02*
X0095793Y0029221D01*
X0095793Y0029819D02*
X0096957Y0029819D01*
X0096957Y0030418D02*
X0095793Y0030418D01*
X0095507Y0031016D02*
X0096957Y0031016D01*
X0096957Y0031615D02*
X0095778Y0031615D01*
X0095793Y0032213D02*
X0096957Y0032213D01*
X0088479Y0031016D02*
X0087428Y0031016D01*
X0086830Y0031615D02*
X0088208Y0031615D01*
X0088193Y0032213D02*
X0086231Y0032213D01*
X0079045Y0027425D02*
X0078107Y0027425D01*
X0077744Y0027788D02*
X0073056Y0027788D01*
X0069344Y0031500D01*
X0074970Y0031500D01*
X0084870Y0021600D01*
X0094270Y0021600D01*
X0084870Y0012200D01*
X0038044Y0012200D01*
X0035360Y0014885D01*
X0035726Y0015769D01*
X0035726Y0017467D01*
X0035076Y0019036D01*
X0033875Y0020237D01*
X0032307Y0020887D01*
X0030608Y0020887D01*
X0029040Y0020237D01*
X0028157Y0019355D01*
X0028157Y0019413D01*
X0035106Y0026362D01*
X0035106Y0024820D01*
X0039256Y0024820D01*
X0039256Y0024220D01*
X0035106Y0024220D01*
X0035106Y0022380D01*
X0035195Y0022049D01*
X0035366Y0021753D01*
X0035608Y0021511D01*
X0035905Y0021340D01*
X0036235Y0021251D01*
X0039256Y0021251D01*
X0039256Y0024220D01*
X0039856Y0024220D01*
X0039856Y0024820D01*
X0044005Y0024820D01*
X0044005Y0026165D01*
X0044409Y0025761D01*
X0044409Y0022013D01*
X0045171Y0021251D01*
X0052547Y0021251D01*
X0053309Y0022013D01*
X0053309Y0027027D01*
X0052547Y0027788D01*
X0047756Y0027788D01*
X0046244Y0029300D01*
X0059557Y0029300D01*
X0059141Y0028883D01*
X0058716Y0027858D01*
X0058716Y0026749D01*
X0059141Y0025724D01*
X0059557Y0025307D01*
X0059557Y0020451D01*
X0059040Y0020237D01*
X0057839Y0019036D01*
X0057189Y0017467D01*
X0057189Y0015769D01*
X0057839Y0014200D01*
X0059040Y0012999D01*
X0060608Y0012350D01*
X0062307Y0012350D01*
X0063875Y0012999D01*
X0065076Y0014200D01*
X0065726Y0015769D01*
X0065726Y0017467D01*
X0065076Y0019036D01*
X0063875Y0020237D01*
X0063357Y0020451D01*
X0063357Y0025212D01*
X0063869Y0025724D01*
X0064294Y0026749D01*
X0064294Y0027858D01*
X0063869Y0028883D01*
X0063453Y0029300D01*
X0066170Y0029300D01*
X0069606Y0025864D01*
X0069606Y0022013D01*
X0070368Y0021251D01*
X0070822Y0021251D01*
X0070570Y0021000D01*
X0070350Y0020780D01*
X0069040Y0020237D01*
X0067839Y0019036D01*
X0067189Y0017467D01*
X0067189Y0015769D01*
X0067839Y0014200D01*
X0069040Y0012999D01*
X0070608Y0012350D01*
X0072307Y0012350D01*
X0073875Y0012999D01*
X0075076Y0014200D01*
X0075726Y0015769D01*
X0075726Y0017467D01*
X0075076Y0019036D01*
X0074528Y0019584D01*
X0076196Y0021251D01*
X0077744Y0021251D01*
X0078505Y0022013D01*
X0078505Y0027027D01*
X0077744Y0027788D01*
X0078447Y0028024D02*
X0072821Y0028024D01*
X0072222Y0028622D02*
X0077848Y0028622D01*
X0077250Y0029221D02*
X0071624Y0029221D01*
X0071025Y0029819D02*
X0076651Y0029819D01*
X0076053Y0030418D02*
X0070427Y0030418D01*
X0069828Y0031016D02*
X0075454Y0031016D01*
X0068045Y0027425D02*
X0064294Y0027425D01*
X0064294Y0026827D02*
X0068644Y0026827D01*
X0069242Y0026228D02*
X0064078Y0026228D01*
X0063775Y0025630D02*
X0069606Y0025630D01*
X0069606Y0025031D02*
X0063357Y0025031D01*
X0063357Y0024433D02*
X0069606Y0024433D01*
X0069606Y0023834D02*
X0063357Y0023834D01*
X0063357Y0023236D02*
X0069606Y0023236D01*
X0069606Y0022637D02*
X0063357Y0022637D01*
X0063357Y0022039D02*
X0069606Y0022039D01*
X0070179Y0021440D02*
X0063357Y0021440D01*
X0063357Y0020841D02*
X0070412Y0020841D01*
X0069055Y0020243D02*
X0063860Y0020243D01*
X0064468Y0019644D02*
X0068447Y0019644D01*
X0067849Y0019046D02*
X0065066Y0019046D01*
X0065320Y0018447D02*
X0067595Y0018447D01*
X0067347Y0017849D02*
X0065568Y0017849D01*
X0065726Y0017250D02*
X0067189Y0017250D01*
X0067189Y0016652D02*
X0065726Y0016652D01*
X0065726Y0016053D02*
X0067189Y0016053D01*
X0067319Y0015455D02*
X0065596Y0015455D01*
X0065348Y0014856D02*
X0067567Y0014856D01*
X0067815Y0014258D02*
X0065100Y0014258D01*
X0064535Y0013659D02*
X0068380Y0013659D01*
X0068978Y0013061D02*
X0063937Y0013061D01*
X0062579Y0012462D02*
X0070336Y0012462D01*
X0072579Y0012462D02*
X0085133Y0012462D01*
X0085731Y0013061D02*
X0073937Y0013061D01*
X0074535Y0013659D02*
X0086330Y0013659D01*
X0086928Y0014258D02*
X0075100Y0014258D01*
X0075348Y0014856D02*
X0087527Y0014856D01*
X0088125Y0015455D02*
X0075596Y0015455D01*
X0075726Y0016053D02*
X0088724Y0016053D01*
X0089322Y0016652D02*
X0075726Y0016652D01*
X0075726Y0017250D02*
X0089921Y0017250D01*
X0090519Y0017849D02*
X0075568Y0017849D01*
X0075320Y0018447D02*
X0091118Y0018447D01*
X0091716Y0019046D02*
X0075066Y0019046D01*
X0074589Y0019644D02*
X0092315Y0019644D01*
X0092913Y0020243D02*
X0075187Y0020243D01*
X0075786Y0020841D02*
X0093512Y0020841D01*
X0094110Y0021440D02*
X0077933Y0021440D01*
X0078505Y0022039D02*
X0084432Y0022039D01*
X0083833Y0022637D02*
X0078505Y0022637D01*
X0078505Y0023236D02*
X0083235Y0023236D01*
X0082636Y0023834D02*
X0078505Y0023834D01*
X0078505Y0024433D02*
X0082038Y0024433D01*
X0081439Y0025031D02*
X0078505Y0025031D01*
X0078505Y0025630D02*
X0080841Y0025630D01*
X0080242Y0026228D02*
X0078505Y0026228D01*
X0078505Y0026827D02*
X0079644Y0026827D01*
X0067447Y0028024D02*
X0064225Y0028024D01*
X0063977Y0028622D02*
X0066848Y0028622D01*
X0066250Y0029221D02*
X0063532Y0029221D01*
X0059478Y0029221D02*
X0046324Y0029221D01*
X0046922Y0028622D02*
X0059032Y0028622D01*
X0058784Y0028024D02*
X0047521Y0028024D01*
X0052910Y0027425D02*
X0058716Y0027425D01*
X0058716Y0026827D02*
X0053309Y0026827D01*
X0053309Y0026228D02*
X0058932Y0026228D01*
X0059235Y0025630D02*
X0053309Y0025630D01*
X0053309Y0025031D02*
X0059557Y0025031D01*
X0059557Y0024433D02*
X0053309Y0024433D01*
X0053309Y0023834D02*
X0059557Y0023834D01*
X0059557Y0023236D02*
X0053309Y0023236D01*
X0053309Y0022637D02*
X0059557Y0022637D01*
X0059557Y0022039D02*
X0053309Y0022039D01*
X0052736Y0021440D02*
X0059557Y0021440D01*
X0059557Y0020841D02*
X0052078Y0020841D01*
X0051793Y0020887D02*
X0051757Y0020887D01*
X0051757Y0016918D01*
X0051157Y0016918D01*
X0051157Y0016318D01*
X0047189Y0016318D01*
X0047189Y0016282D01*
X0047294Y0015619D01*
X0047502Y0014980D01*
X0047807Y0014381D01*
X0048202Y0013837D01*
X0048677Y0013362D01*
X0049220Y0012967D01*
X0049819Y0012662D01*
X0050458Y0012455D01*
X0051122Y0012350D01*
X0051157Y0012350D01*
X0051157Y0016318D01*
X0051757Y0016318D01*
X0051757Y0012350D01*
X0051793Y0012350D01*
X0052457Y0012455D01*
X0053096Y0012662D01*
X0053695Y0012967D01*
X0054238Y0013362D01*
X0054713Y0013837D01*
X0055108Y0014381D01*
X0055413Y0014980D01*
X0055621Y0015619D01*
X0055726Y0016282D01*
X0055726Y0016318D01*
X0051758Y0016318D01*
X0051758Y0016918D01*
X0055726Y0016918D01*
X0055726Y0016954D01*
X0055621Y0017618D01*
X0055413Y0018257D01*
X0055108Y0018855D01*
X0054713Y0019399D01*
X0054238Y0019874D01*
X0053695Y0020269D01*
X0053096Y0020574D01*
X0052457Y0020781D01*
X0051793Y0020887D01*
X0051757Y0020841D02*
X0051157Y0020841D01*
X0051157Y0020887D02*
X0051122Y0020887D01*
X0050458Y0020781D01*
X0049819Y0020574D01*
X0049220Y0020269D01*
X0048677Y0019874D01*
X0048202Y0019399D01*
X0047807Y0018855D01*
X0047502Y0018257D01*
X0047294Y0017618D01*
X0047189Y0016954D01*
X0047189Y0016918D01*
X0051157Y0016918D01*
X0051157Y0020887D01*
X0050837Y0020841D02*
X0042078Y0020841D01*
X0041793Y0020887D02*
X0042457Y0020781D01*
X0043096Y0020574D01*
X0043695Y0020269D01*
X0044238Y0019874D01*
X0044713Y0019399D01*
X0045108Y0018855D01*
X0045413Y0018257D01*
X0045621Y0017618D01*
X0045726Y0016954D01*
X0045726Y0016918D01*
X0041758Y0016918D01*
X0041758Y0016318D01*
X0045726Y0016318D01*
X0045726Y0016282D01*
X0045621Y0015619D01*
X0045413Y0014980D01*
X0045108Y0014381D01*
X0044713Y0013837D01*
X0044238Y0013362D01*
X0043695Y0012967D01*
X0043096Y0012662D01*
X0042457Y0012455D01*
X0041793Y0012350D01*
X0041757Y0012350D01*
X0041757Y0016318D01*
X0041157Y0016318D01*
X0037189Y0016318D01*
X0037189Y0016282D01*
X0037294Y0015619D01*
X0037502Y0014980D01*
X0037807Y0014381D01*
X0038202Y0013837D01*
X0038677Y0013362D01*
X0039220Y0012967D01*
X0039819Y0012662D01*
X0040458Y0012455D01*
X0041122Y0012350D01*
X0041157Y0012350D01*
X0041157Y0016318D01*
X0041157Y0016918D01*
X0037189Y0016918D01*
X0037189Y0016954D01*
X0037294Y0017618D01*
X0037502Y0018257D01*
X0037807Y0018855D01*
X0038202Y0019399D01*
X0038677Y0019874D01*
X0039220Y0020269D01*
X0039819Y0020574D01*
X0040458Y0020781D01*
X0041122Y0020887D01*
X0041157Y0020887D01*
X0041157Y0016918D01*
X0041757Y0016918D01*
X0041757Y0020887D01*
X0041793Y0020887D01*
X0041757Y0020841D02*
X0041157Y0020841D01*
X0040837Y0020841D02*
X0032415Y0020841D01*
X0033860Y0020243D02*
X0039185Y0020243D01*
X0038447Y0019644D02*
X0034468Y0019644D01*
X0035066Y0019046D02*
X0037945Y0019046D01*
X0037599Y0018447D02*
X0035320Y0018447D01*
X0035568Y0017849D02*
X0037369Y0017849D01*
X0037236Y0017250D02*
X0035726Y0017250D01*
X0035726Y0016652D02*
X0041157Y0016652D01*
X0041157Y0017250D02*
X0041757Y0017250D01*
X0041758Y0016652D02*
X0051157Y0016652D01*
X0051157Y0017250D02*
X0051757Y0017250D01*
X0051758Y0016652D02*
X0057189Y0016652D01*
X0057189Y0017250D02*
X0055679Y0017250D01*
X0055546Y0017849D02*
X0057347Y0017849D01*
X0057595Y0018447D02*
X0055316Y0018447D01*
X0054970Y0019046D02*
X0057849Y0019046D01*
X0058447Y0019644D02*
X0054468Y0019644D01*
X0053730Y0020243D02*
X0059055Y0020243D01*
X0057189Y0016053D02*
X0055690Y0016053D01*
X0055568Y0015455D02*
X0057319Y0015455D01*
X0057567Y0014856D02*
X0055350Y0014856D01*
X0055019Y0014258D02*
X0057815Y0014258D01*
X0058380Y0013659D02*
X0054535Y0013659D01*
X0053823Y0013061D02*
X0058978Y0013061D01*
X0060336Y0012462D02*
X0052480Y0012462D01*
X0051757Y0012462D02*
X0051157Y0012462D01*
X0051157Y0013061D02*
X0051757Y0013061D01*
X0051757Y0013659D02*
X0051157Y0013659D01*
X0051157Y0014258D02*
X0051757Y0014258D01*
X0051757Y0014856D02*
X0051157Y0014856D01*
X0051157Y0015455D02*
X0051757Y0015455D01*
X0051757Y0016053D02*
X0051157Y0016053D01*
X0051157Y0017849D02*
X0051757Y0017849D01*
X0051757Y0018447D02*
X0051157Y0018447D01*
X0051157Y0019046D02*
X0051757Y0019046D01*
X0051757Y0019644D02*
X0051157Y0019644D01*
X0051157Y0020243D02*
X0051757Y0020243D01*
X0049185Y0020243D02*
X0043730Y0020243D01*
X0044468Y0019644D02*
X0048447Y0019644D01*
X0047945Y0019046D02*
X0044970Y0019046D01*
X0045316Y0018447D02*
X0047599Y0018447D01*
X0047369Y0017849D02*
X0045546Y0017849D01*
X0045679Y0017250D02*
X0047236Y0017250D01*
X0047225Y0016053D02*
X0045690Y0016053D01*
X0045568Y0015455D02*
X0047347Y0015455D01*
X0047564Y0014856D02*
X0045350Y0014856D01*
X0045019Y0014258D02*
X0047896Y0014258D01*
X0048380Y0013659D02*
X0044535Y0013659D01*
X0043823Y0013061D02*
X0049092Y0013061D01*
X0050434Y0012462D02*
X0042480Y0012462D01*
X0041757Y0012462D02*
X0041157Y0012462D01*
X0041157Y0013061D02*
X0041757Y0013061D01*
X0041757Y0013659D02*
X0041157Y0013659D01*
X0041157Y0014258D02*
X0041757Y0014258D01*
X0041757Y0014856D02*
X0041157Y0014856D01*
X0041157Y0015455D02*
X0041757Y0015455D01*
X0041757Y0016053D02*
X0041157Y0016053D01*
X0041157Y0017849D02*
X0041757Y0017849D01*
X0041757Y0018447D02*
X0041157Y0018447D01*
X0041157Y0019046D02*
X0041757Y0019046D01*
X0041757Y0019644D02*
X0041157Y0019644D01*
X0041157Y0020243D02*
X0041757Y0020243D01*
X0042877Y0021251D02*
X0039856Y0021251D01*
X0039856Y0024220D01*
X0044005Y0024220D01*
X0044005Y0022380D01*
X0043917Y0022049D01*
X0043746Y0021753D01*
X0043504Y0021511D01*
X0043207Y0021340D01*
X0042877Y0021251D01*
X0043381Y0021440D02*
X0044982Y0021440D01*
X0044409Y0022039D02*
X0043911Y0022039D01*
X0044005Y0022637D02*
X0044409Y0022637D01*
X0044409Y0023236D02*
X0044005Y0023236D01*
X0044005Y0023834D02*
X0044409Y0023834D01*
X0044409Y0024433D02*
X0039856Y0024433D01*
X0039856Y0023834D02*
X0039256Y0023834D01*
X0039256Y0023236D02*
X0039856Y0023236D01*
X0039856Y0022637D02*
X0039256Y0022637D01*
X0039256Y0022039D02*
X0039856Y0022039D01*
X0039856Y0021440D02*
X0039256Y0021440D01*
X0035731Y0021440D02*
X0030184Y0021440D01*
X0030500Y0020841D02*
X0029586Y0020841D01*
X0029055Y0020243D02*
X0028987Y0020243D01*
X0028447Y0019644D02*
X0028389Y0019644D01*
X0030783Y0022039D02*
X0035201Y0022039D01*
X0035106Y0022637D02*
X0031381Y0022637D01*
X0031980Y0023236D02*
X0035106Y0023236D01*
X0035106Y0023834D02*
X0032579Y0023834D01*
X0033177Y0024433D02*
X0039256Y0024433D01*
X0035106Y0025031D02*
X0033776Y0025031D01*
X0034374Y0025630D02*
X0035106Y0025630D01*
X0035106Y0026228D02*
X0034973Y0026228D01*
X0044005Y0025630D02*
X0044409Y0025630D01*
X0044409Y0025031D02*
X0044005Y0025031D01*
X0037225Y0016053D02*
X0035726Y0016053D01*
X0035596Y0015455D02*
X0037347Y0015455D01*
X0037564Y0014856D02*
X0035388Y0014856D01*
X0035987Y0014258D02*
X0037896Y0014258D01*
X0038380Y0013659D02*
X0036585Y0013659D01*
X0037184Y0013061D02*
X0039092Y0013061D01*
X0037782Y0012462D02*
X0040434Y0012462D01*
X0025808Y0012462D02*
X0025077Y0012462D01*
X0014659Y0021440D02*
X0014059Y0021440D01*
X0014059Y0022039D02*
X0014659Y0022039D01*
X0014659Y0022637D02*
X0014059Y0022637D01*
X0014059Y0023236D02*
X0014659Y0023236D01*
X0014659Y0023834D02*
X0014059Y0023834D01*
X0014059Y0024433D02*
X0005757Y0024433D01*
X0005757Y0025031D02*
X0009909Y0025031D01*
X0009909Y0025630D02*
X0005757Y0025630D01*
X0005757Y0026228D02*
X0009909Y0026228D01*
X0009954Y0026827D02*
X0005757Y0026827D01*
X0005757Y0027425D02*
X0010308Y0027425D01*
X0014059Y0027425D02*
X0014659Y0027425D01*
X0014659Y0026827D02*
X0014059Y0026827D01*
X0014059Y0026228D02*
X0014659Y0026228D01*
X0014659Y0025630D02*
X0014059Y0025630D01*
X0014059Y0025031D02*
X0014659Y0025031D01*
X0014659Y0024433D02*
X0021057Y0024433D01*
X0010534Y0021440D02*
X0005757Y0021440D01*
X0005757Y0022039D02*
X0010004Y0022039D01*
X0009909Y0022637D02*
X0005757Y0022637D01*
X0005757Y0023236D02*
X0009909Y0023236D01*
X0009909Y0023834D02*
X0005757Y0023834D01*
X0005757Y0036403D02*
X0010480Y0036403D01*
X0009909Y0037001D02*
X0005757Y0037001D01*
X0005757Y0037600D02*
X0009909Y0037600D01*
X0009909Y0038198D02*
X0005757Y0038198D01*
X0005757Y0038797D02*
X0009909Y0038797D01*
X0009909Y0039395D02*
X0005757Y0039395D01*
X0005757Y0039994D02*
X0009909Y0039994D01*
X0009909Y0040592D02*
X0005757Y0040592D01*
X0005757Y0041191D02*
X0009909Y0041191D01*
X0009909Y0041789D02*
X0005757Y0041789D01*
X0005757Y0042388D02*
X0010310Y0042388D01*
X0011186Y0043585D02*
X0005757Y0043585D01*
X0005757Y0044183D02*
X0010587Y0044183D01*
X0009989Y0044782D02*
X0005757Y0044782D01*
X0005757Y0045380D02*
X0009390Y0045380D01*
X0008792Y0045979D02*
X0005757Y0045979D01*
X0005757Y0046577D02*
X0008193Y0046577D01*
X0007595Y0047176D02*
X0005757Y0047176D01*
X0005757Y0047774D02*
X0006996Y0047774D01*
X0006397Y0048373D02*
X0005757Y0048373D01*
X0005757Y0048972D02*
X0005799Y0048972D01*
X0011771Y0048373D02*
X0028008Y0048373D01*
X0028008Y0047774D02*
X0012370Y0047774D01*
X0012968Y0047176D02*
X0028008Y0047176D01*
X0028008Y0046577D02*
X0013567Y0046577D01*
X0014166Y0045979D02*
X0028008Y0045979D01*
X0028008Y0045380D02*
X0014764Y0045380D01*
X0015363Y0044782D02*
X0028008Y0044782D01*
X0028008Y0044183D02*
X0015961Y0044183D01*
X0016057Y0043585D02*
X0028160Y0043585D01*
X0028759Y0042986D02*
X0016057Y0042986D01*
X0011784Y0042986D02*
X0005757Y0042986D01*
X0015945Y0048972D02*
X0015970Y0048972D01*
X0022244Y0048972D02*
X0028008Y0048972D01*
X0028008Y0049570D02*
X0022572Y0049570D01*
X0022572Y0050169D02*
X0028008Y0050169D01*
X0028008Y0050767D02*
X0022572Y0050767D01*
X0022572Y0051366D02*
X0028008Y0051366D01*
X0028008Y0051964D02*
X0022572Y0051964D01*
X0022572Y0052563D02*
X0028008Y0052563D01*
X0028056Y0053161D02*
X0022572Y0053161D01*
X0022572Y0053760D02*
X0028008Y0053760D01*
X0028008Y0054358D02*
X0022572Y0054358D01*
X0022572Y0054957D02*
X0028008Y0054957D01*
X0028008Y0054924D02*
X0031108Y0054924D01*
X0031108Y0057024D01*
X0029137Y0057024D01*
X0028806Y0056936D01*
X0028510Y0056765D01*
X0028268Y0056523D01*
X0028096Y0056226D01*
X0028008Y0055896D01*
X0028008Y0054924D01*
X0028008Y0055555D02*
X0022572Y0055555D01*
X0022308Y0056154D02*
X0028077Y0056154D01*
X0028497Y0056752D02*
X0021518Y0056752D01*
X0024295Y0057351D02*
X0032690Y0057351D01*
X0032092Y0057949D02*
X0024894Y0057949D01*
X0025492Y0058548D02*
X0031493Y0058548D01*
X0031508Y0056752D02*
X0031108Y0056752D01*
X0031108Y0056154D02*
X0031508Y0056154D01*
X0031508Y0055555D02*
X0031108Y0055555D01*
X0031108Y0054957D02*
X0031508Y0054957D01*
X0028743Y0059146D02*
X0026091Y0059146D01*
X0026689Y0059745D02*
X0028145Y0059745D01*
X0028008Y0060343D02*
X0027288Y0060343D01*
X0027886Y0060942D02*
X0028008Y0060942D01*
X0034457Y0072558D02*
X0033876Y0073139D01*
X0034238Y0073402D01*
X0034713Y0073877D01*
X0035108Y0074420D01*
X0035413Y0075019D01*
X0035621Y0075658D01*
X0035726Y0076322D01*
X0035726Y0076357D01*
X0031758Y0076357D01*
X0031758Y0076957D01*
X0035726Y0076957D01*
X0035726Y0076993D01*
X0035621Y0077657D01*
X0035413Y0078296D01*
X0035108Y0078895D01*
X0034713Y0079438D01*
X0034238Y0079913D01*
X0033695Y0080308D01*
X0033096Y0080613D01*
X0032457Y0080821D01*
X0031793Y0080926D01*
X0031757Y0080926D01*
X0031757Y0076958D01*
X0031157Y0076958D01*
X0031157Y0080926D01*
X0031122Y0080926D01*
X0030458Y0080821D01*
X0029819Y0080613D01*
X0029220Y0080308D01*
X0028677Y0079913D01*
X0028202Y0079438D01*
X0028157Y0079377D01*
X0028157Y0081487D01*
X0025957Y0083687D01*
X0025344Y0084300D01*
X0033170Y0084300D01*
X0038117Y0079354D01*
X0037839Y0079075D01*
X0037189Y0077507D01*
X0037189Y0075808D01*
X0037839Y0074240D01*
X0038910Y0073169D01*
X0035069Y0073169D01*
X0034457Y0072558D01*
X0034103Y0072912D02*
X0034812Y0072912D01*
X0034347Y0073510D02*
X0038568Y0073510D01*
X0037969Y0074109D02*
X0034882Y0074109D01*
X0035255Y0074708D02*
X0037645Y0074708D01*
X0037397Y0075306D02*
X0035507Y0075306D01*
X0035660Y0075905D02*
X0037189Y0075905D01*
X0037189Y0076503D02*
X0031758Y0076503D01*
X0031757Y0077102D02*
X0031157Y0077102D01*
X0031157Y0077700D02*
X0031757Y0077700D01*
X0031757Y0078299D02*
X0031157Y0078299D01*
X0031157Y0078897D02*
X0031757Y0078897D01*
X0031757Y0079496D02*
X0031157Y0079496D01*
X0031157Y0080094D02*
X0031757Y0080094D01*
X0031757Y0080693D02*
X0031157Y0080693D01*
X0030063Y0080693D02*
X0028157Y0080693D01*
X0028157Y0081291D02*
X0036179Y0081291D01*
X0035581Y0081890D02*
X0027755Y0081890D01*
X0027156Y0082488D02*
X0034982Y0082488D01*
X0034384Y0083087D02*
X0026558Y0083087D01*
X0025959Y0083685D02*
X0033785Y0083685D01*
X0033187Y0084284D02*
X0025361Y0084284D01*
X0028157Y0080094D02*
X0028926Y0080094D01*
X0028259Y0079496D02*
X0028157Y0079496D01*
X0032852Y0080693D02*
X0036778Y0080693D01*
X0037376Y0080094D02*
X0033989Y0080094D01*
X0034656Y0079496D02*
X0037975Y0079496D01*
X0037765Y0078897D02*
X0035106Y0078897D01*
X0035412Y0078299D02*
X0037517Y0078299D01*
X0037269Y0077700D02*
X0035607Y0077700D01*
X0035709Y0077102D02*
X0037189Y0077102D01*
X0007371Y0077700D02*
X0005757Y0077700D01*
X0005757Y0077102D02*
X0006772Y0077102D01*
X0006174Y0076503D02*
X0005757Y0076503D01*
X0005757Y0091466D02*
X0176358Y0091466D01*
X0176358Y0092064D02*
X0005757Y0092064D01*
X0075675Y0085481D02*
X0086651Y0085481D01*
X0086053Y0084882D02*
X0076274Y0084882D01*
X0076872Y0084284D02*
X0085454Y0084284D01*
X0084856Y0083685D02*
X0077471Y0083685D01*
X0078069Y0083087D02*
X0084257Y0083087D01*
X0083659Y0082488D02*
X0078668Y0082488D01*
X0079266Y0081890D02*
X0083060Y0081890D01*
X0082462Y0081291D02*
X0079865Y0081291D01*
X0080463Y0080693D02*
X0081863Y0080693D01*
X0081265Y0080094D02*
X0080957Y0080094D01*
X0043886Y0044183D02*
X0043557Y0044183D01*
X0043557Y0043585D02*
X0044839Y0043585D01*
X0044810Y0042388D02*
X0043605Y0042388D01*
X0043557Y0042986D02*
X0046340Y0042986D01*
X0044455Y0041789D02*
X0044005Y0041789D01*
X0044005Y0041191D02*
X0044409Y0041191D01*
X0044409Y0040592D02*
X0044005Y0040592D01*
X0044005Y0039994D02*
X0044409Y0039994D01*
D22*
X0045813Y0046200D03*
X0061492Y0038914D03*
X0067835Y0037681D03*
X0061505Y0027303D03*
X0080040Y0016421D03*
X0086339Y0034531D03*
X0040626Y0058085D03*
X0014950Y0074675D03*
X0008582Y0081081D03*
X0033190Y0082563D03*
X0098150Y0071539D03*
M02*
