  0
SECTION
  2
HEADER
  9
$ACADVER
  1
AC1009
  9
$FILLMODE
 70
1
  9
$EXTMIN
 10
-23.0762
 20
-18.2504
 30
0.0000
  9
$EXTMAX
 10
131.1972
 20
147.5190
 30
0.0000
  0
ENDSEC
  0
SECTION
  2
TABLES
  0
TABLE
  2
LTYPE
 70
1
  0
LTYPE
  2
CONTINUOUS
 70
64
  3
Solid line
 72
65
 73
0
 40
0
  0
ENDTAB
  0
TABLE
  2
LAYER
 70
255
  0
LAYER
  2
20
 70
64
 62
30
  6
CONTINUOUS
  0
LAYER
  2
114
 70
64
 62
2
  6
CONTINUOUS
  0
ENDTAB
  0
ENDSEC
  0
SECTION
  2
BLOCKS
  0
BLOCK
  8
0
  2
RECT
 70
64
 10
0.0000
 20
0.0000
 30
0.0000
  3
RECT
  0
SOLID
  8
0
 10
-0.5000
 20
-0.5000
 30
0.0000
 11
0.5000
 21
-0.5000
 31
0.0000
 12
-0.5000
 22
0.5000
 32
0.0000
 13
0.5000
 23
0.5000
 33
0.0000
  0
ENDBLK
  8
0
  0
BLOCK
  8
0
  2
PIE
 70
64
 10
0.0000
 20
0.0000
 30
0.0000
  3
PIE
  0
POLYLINE
  8
0
 66
1
 10
0.0000
 20
0.0000
 30
0.0000
 40
0.5000
 41
0.5000
 70
0
  0
VERTEX
  8
0
 10
0.0000
 20
-0.2500
 30
0.0000
 42
1.0000
  0
VERTEX
  8
0
 10
0.0000
 20
0.2500
 30
0.0000
 42
1.0000
  0
VERTEX
  8
0
 10
0.0000
 20
-0.2500
 30
0.0000
  0
SEQEND
  8
0
  0
ENDBLK
  8
0
  0
BLOCK
  8
0
  2
OCTAGONP
 70
64
 10
0.0000
 20
0.0000
 30
0.0000
  3
OCTAGONP
  0
POLYLINE
  8
0
 66
1
 10
0.0000
 20
0.0000
 30
0.0000
 40
0.5000
 41
0.5000
 70
0
  0
VERTEX
  8
0
 10
-0.2500
 20
-0.1036
 30
0.0000
  0
VERTEX
  8
0
 10
-0.2500
 20
0.1036
 30
0.0000
  0
VERTEX
  8
0
 10
-0.1036
 20
0.2500
 30
0.0000
  0
VERTEX
  8
0
 10
0.1036
 20
0.2500
 30
0.0000
  0
VERTEX
  8
0
 10
0.2500
 20
0.1036
 30
0.0000
  0
VERTEX
  8
0
 10
0.2500
 20
-0.1036
 30
0.0000
  0
VERTEX
  8
0
 10
0.1036
 20
-0.2500
 30
0.0000
  0
VERTEX
  8
0
 10
-0.1036
 20
-0.2500
 30
0.0000
  0
VERTEX
  8
0
 10
-0.2500
 20
-0.1036
 30
0.0000
  0
VERTEX
  8
0
 10
-0.2500
 20
0.1036
 30
0.0000
  0
SEQEND
  8
0
  0
ENDBLK
  8
0
  0
BLOCK
  8
0
  2
SQUAREP
 70
64
 10
0.0000
 20
0.0000
 30
0.0000
  3
SQUAREP
  0
SOLID
  8
0
 10
-0.5000
 20
-0.5000
 30
0.0000
 11
0.5000
 21
-0.5000
 31
0.0000
 12
-0.5000
 22
0.5000
 32
0.0000
 13
0.5000
 23
0.5000
 33
0.0000
  0
ENDBLK
  8
0
  0
BLOCK
  8
0
  2
ROUNDP
 70
64
 10
0.0000
 20
0.0000
 30
0.0000
  3
ROUNDP
  0
POLYLINE
  8
0
 66
1
 10
0.0000
 20
0.0000
 30
0.0000
 40
0.5000
 41
0.5000
 70
0
  0
VERTEX
  8
0
 10
0.0000
 20
-0.2500
 30
0.0000
 42
1.0000
  0
VERTEX
  8
0
 10
0.0000
 20
0.2500
 30
0.0000
 42
1.0000
  0
VERTEX
  8
0
 10
0.0000
 20
-0.2500
 30
0.0000
  0
SEQEND
  8
0
  0
ENDBLK
  8
0
  0
BLOCK
  8
0
  2
ANNULUSP
 70
64
 10
0.0000
 20
0.0000
 30
0.0000
  3
ANNULUSP
  0
POLYLINE
  8
0
 66
1
 10
0.0000
 20
0.0000
 30
0.0000
 40
0.5000
 41
0.5000
 70
0
  0
VERTEX
  8
0
 10
0.0000
 20
-0.2500
 30
0.0000
 42
1.0000
  0
VERTEX
  8
0
 10
0.0000
 20
0.2500
 30
0.0000
 42
1.0000
  0
VERTEX
  8
0
 10
0.0000
 20
-0.2500
 30
0.0000
  0
SEQEND
  8
0
  0
ENDBLK
  8
0
  0
BLOCK
  8
0
  2
THERMALP
 70
64
 10
0.0000
 20
0.0000
 30
0.0000
  3
THERMALP
  0
POLYLINE
  8
0
 66
1
 10
0.0000
 20
0.0000
 30
0.0000
 40
0.1000
 41
0.1000
 70
0
  0
VERTEX
  8
0
 10
-0.2379
 20
0.4500
 30
0.0000
  0
VERTEX
  8
0
 10
0.2379
 20
0.4500
 30
0.0000
  0
SEQEND
  8
0
  0
POLYLINE
  8
0
 66
1
 10
0.0000
 20
0.0000
 30
0.0000
 40
0.0500
 41
0.0500
 70
0
  0
VERTEX
  8
0
 10
0.2379
 20
0.4250
 30
0.0000
 42
1.0000
  0
VERTEX
  8
0
 10
0.2379
 20
0.4750
 30
0.0000
  0
SEQEND
  8
0
  0
POLYLINE
  8
0
 66
1
 10
0.0000
 20
0.0000
 30
0.0000
 40
0.0500
 41
0.0500
 70
0
  0
VERTEX
  8
0
 10
-0.2379
 20
0.4750
 30
0.0000
 42
1.0000
  0
VERTEX
  8
0
 10
-0.2379
 20
0.4250
 30
0.0000
  0
SEQEND
  8
0
  0
POLYLINE
  8
0
 66
1
 10
0.0000
 20
0.0000
 30
0.0000
 40
0.1000
 41
0.1000
 70
0
  0
VERTEX
  8
0
 10
0.4500
 20
0.2379
 30
0.0000
  0
VERTEX
  8
0
 10
0.4500
 20
-0.2379
 30
0.0000
  0
SEQEND
  8
0
  0
POLYLINE
  8
0
 66
1
 10
0.0000
 20
0.0000
 30
0.0000
 40
0.0500
 41
0.0500
 70
0
  0
VERTEX
  8
0
 10
0.4250
 20
-0.2379
 30
0.0000
 42
1.0000
  0
VERTEX
  8
0
 10
0.4750
 20
-0.2379
 30
0.0000
  0
SEQEND
  8
0
  0
POLYLINE
  8
0
 66
1
 10
0.0000
 20
0.0000
 30
0.0000
 40
0.0500
 41
0.0500
 70
0
  0
VERTEX
  8
0
 10
0.4750
 20
0.2379
 30
0.0000
 42
1.0000
  0
VERTEX
  8
0
 10
0.4250
 20
0.2379
 30
0.0000
  0
SEQEND
  8
0
  0
POLYLINE
  8
0
 66
1
 10
0.0000
 20
0.0000
 30
0.0000
 40
0.1000
 41
0.1000
 70
0
  0
VERTEX
  8
0
 10
0.2379
 20
-0.4500
 30
0.0000
  0
VERTEX
  8
0
 10
-0.2379
 20
-0.4500
 30
0.0000
  0
SEQEND
  8
0
  0
POLYLINE
  8
0
 66
1
 10
0.0000
 20
0.0000
 30
0.0000
 40
0.0500
 41
0.0500
 70
0
  0
VERTEX
  8
0
 10
-0.2379
 20
-0.4250
 30
0.0000
 42
1.0000
  0
VERTEX
  8
0
 10
-0.2379
 20
-0.4750
 30
0.0000
  0
SEQEND
  8
0
  0
POLYLINE
  8
0
 66
1
 10
0.0000
 20
0.0000
 30
0.0000
 40
0.0500
 41
0.0500
 70
0
  0
VERTEX
  8
0
 10
0.2379
 20
-0.4750
 30
0.0000
 42
1.0000
  0
VERTEX
  8
0
 10
0.2379
 20
-0.4250
 30
0.0000
  0
SEQEND
  8
0
  0
POLYLINE
  8
0
 66
1
 10
0.0000
 20
0.0000
 30
0.0000
 40
0.1000
 41
0.1000
 70
0
  0
VERTEX
  8
0
 10
-0.4500
 20
-0.2379
 30
0.0000
  0
VERTEX
  8
0
 10
-0.4500
 20
0.2379
 30
0.0000
  0
SEQEND
  8
0
  0
POLYLINE
  8
0
 66
1
 10
0.0000
 20
0.0000
 30
0.0000
 40
0.0500
 41
0.0500
 70
0
  0
VERTEX
  8
0
 10
-0.4250
 20
0.2379
 30
0.0000
 42
1.0000
  0
VERTEX
  8
0
 10
-0.4750
 20
0.2379
 30
0.0000
  0
SEQEND
  8
0
  0
POLYLINE
  8
0
 66
1
 10
0.0000
 20
0.0000
 30
0.0000
 40
0.0500
 41
0.0500
 70
0
  0
VERTEX
  8
0
 10
-0.4750
 20
-0.2379
 30
0.0000
 42
1.0000
  0
VERTEX
  8
0
 10
-0.4250
 20
-0.2379
 30
0.0000
  0
SEQEND
  8
0
  0
ENDBLK
  8
0
  0
BLOCK
  8
0
  2
OCTAGONV
 70
64
 10
0.0000
 20
0.0000
 30
0.0000
  3
OCTAGONV
  0
POLYLINE
  8
0
 66
1
 10
0.0000
 20
0.0000
 30
0.0000
 40
0.5000
 41
0.5000
 70
0
  0
VERTEX
  8
0
 10
-0.2500
 20
-0.1036
 30
0.0000
  0
VERTEX
  8
0
 10
-0.2500
 20
0.1036
 30
0.0000
  0
VERTEX
  8
0
 10
-0.1036
 20
0.2500
 30
0.0000
  0
VERTEX
  8
0
 10
0.1036
 20
0.2500
 30
0.0000
  0
VERTEX
  8
0
 10
0.2500
 20
0.1036
 30
0.0000
  0
VERTEX
  8
0
 10
0.2500
 20
-0.1036
 30
0.0000
  0
VERTEX
  8
0
 10
0.1036
 20
-0.2500
 30
0.0000
  0
VERTEX
  8
0
 10
-0.1036
 20
-0.2500
 30
0.0000
  0
VERTEX
  8
0
 10
-0.2500
 20
-0.1036
 30
0.0000
  0
VERTEX
  8
0
 10
-0.2500
 20
0.1036
 30
0.0000
  0
SEQEND
  8
0
  0
ENDBLK
  8
0
  0
BLOCK
  8
0
  2
SQUAREV
 70
64
 10
0.0000
 20
0.0000
 30
0.0000
  3
SQUAREV
  0
SOLID
  8
0
 10
-0.5000
 20
-0.5000
 30
0.0000
 11
0.5000
 21
-0.5000
 31
0.0000
 12
-0.5000
 22
0.5000
 32
0.0000
 13
0.5000
 23
0.5000
 33
0.0000
  0
ENDBLK
  8
0
  0
BLOCK
  8
0
  2
ROUNDV
 70
64
 10
0.0000
 20
0.0000
 30
0.0000
  3
ROUNDV
  0
POLYLINE
  8
0
 66
1
 10
0.0000
 20
0.0000
 30
0.0000
 40
0.5000
 41
0.5000
 70
0
  0
VERTEX
  8
0
 10
0.0000
 20
-0.2500
 30
0.0000
 42
1.0000
  0
VERTEX
  8
0
 10
0.0000
 20
0.2500
 30
0.0000
 42
1.0000
  0
VERTEX
  8
0
 10
0.0000
 20
-0.2500
 30
0.0000
  0
SEQEND
  8
0
  0
ENDBLK
  8
0
  0
BLOCK
  8
0
  2
ANNULUSV
 70
64
 10
0.0000
 20
0.0000
 30
0.0000
  3
ANNULUSV
  0
POLYLINE
  8
0
 66
1
 10
0.0000
 20
0.0000
 30
0.0000
 40
0.5000
 41
0.5000
 70
0
  0
VERTEX
  8
0
 10
0.0000
 20
-0.2500
 30
0.0000
 42
1.0000
  0
VERTEX
  8
0
 10
0.0000
 20
0.2500
 30
0.0000
 42
1.0000
  0
VERTEX
  8
0
 10
0.0000
 20
-0.2500
 30
0.0000
  0
SEQEND
  8
0
  0
ENDBLK
  8
0
  0
BLOCK
  8
0
  2
THERMALV
 70
64
 10
0.0000
 20
0.0000
 30
0.0000
  3
THERMALV
  0
POLYLINE
  8
0
 66
1
 10
0.0000
 20
0.0000
 30
0.0000
 40
0.1000
 41
0.1000
 70
0
  0
VERTEX
  8
0
 10
-0.2379
 20
0.4500
 30
0.0000
  0
VERTEX
  8
0
 10
0.2379
 20
0.4500
 30
0.0000
  0
SEQEND
  8
0
  0
POLYLINE
  8
0
 66
1
 10
0.0000
 20
0.0000
 30
0.0000
 40
0.0500
 41
0.0500
 70
0
  0
VERTEX
  8
0
 10
0.2379
 20
0.4250
 30
0.0000
 42
1.0000
  0
VERTEX
  8
0
 10
0.2379
 20
0.4750
 30
0.0000
  0
SEQEND
  8
0
  0
POLYLINE
  8
0
 66
1
 10
0.0000
 20
0.0000
 30
0.0000
 40
0.0500
 41
0.0500
 70
0
  0
VERTEX
  8
0
 10
-0.2379
 20
0.4750
 30
0.0000
 42
1.0000
  0
VERTEX
  8
0
 10
-0.2379
 20
0.4250
 30
0.0000
  0
SEQEND
  8
0
  0
POLYLINE
  8
0
 66
1
 10
0.0000
 20
0.0000
 30
0.0000
 40
0.1000
 41
0.1000
 70
0
  0
VERTEX
  8
0
 10
0.4500
 20
0.2379
 30
0.0000
  0
VERTEX
  8
0
 10
0.4500
 20
-0.2379
 30
0.0000
  0
SEQEND
  8
0
  0
POLYLINE
  8
0
 66
1
 10
0.0000
 20
0.0000
 30
0.0000
 40
0.0500
 41
0.0500
 70
0
  0
VERTEX
  8
0
 10
0.4250
 20
-0.2379
 30
0.0000
 42
1.0000
  0
VERTEX
  8
0
 10
0.4750
 20
-0.2379
 30
0.0000
  0
SEQEND
  8
0
  0
POLYLINE
  8
0
 66
1
 10
0.0000
 20
0.0000
 30
0.0000
 40
0.0500
 41
0.0500
 70
0
  0
VERTEX
  8
0
 10
0.4750
 20
0.2379
 30
0.0000
 42
1.0000
  0
VERTEX
  8
0
 10
0.4250
 20
0.2379
 30
0.0000
  0
SEQEND
  8
0
  0
POLYLINE
  8
0
 66
1
 10
0.0000
 20
0.0000
 30
0.0000
 40
0.1000
 41
0.1000
 70
0
  0
VERTEX
  8
0
 10
0.2379
 20
-0.4500
 30
0.0000
  0
VERTEX
  8
0
 10
-0.2379
 20
-0.4500
 30
0.0000
  0
SEQEND
  8
0
  0
POLYLINE
  8
0
 66
1
 10
0.0000
 20
0.0000
 30
0.0000
 40
0.0500
 41
0.0500
 70
0
  0
VERTEX
  8
0
 10
-0.2379
 20
-0.4250
 30
0.0000
 42
1.0000
  0
VERTEX
  8
0
 10
-0.2379
 20
-0.4750
 30
0.0000
  0
SEQEND
  8
0
  0
POLYLINE
  8
0
 66
1
 10
0.0000
 20
0.0000
 30
0.0000
 40
0.0500
 41
0.0500
 70
0
  0
VERTEX
  8
0
 10
0.2379
 20
-0.4750
 30
0.0000
 42
1.0000
  0
VERTEX
  8
0
 10
0.2379
 20
-0.4250
 30
0.0000
  0
SEQEND
  8
0
  0
POLYLINE
  8
0
 66
1
 10
0.0000
 20
0.0000
 30
0.0000
 40
0.1000
 41
0.1000
 70
0
  0
VERTEX
  8
0
 10
-0.4500
 20
-0.2379
 30
0.0000
  0
VERTEX
  8
0
 10
-0.4500
 20
0.2379
 30
0.0000
  0
SEQEND
  8
0
  0
POLYLINE
  8
0
 66
1
 10
0.0000
 20
0.0000
 30
0.0000
 40
0.0500
 41
0.0500
 70
0
  0
VERTEX
  8
0
 10
-0.4250
 20
0.2379
 30
0.0000
 42
1.0000
  0
VERTEX
  8
0
 10
-0.4750
 20
0.2379
 30
0.0000
  0
SEQEND
  8
0
  0
POLYLINE
  8
0
 66
1
 10
0.0000
 20
0.0000
 30
0.0000
 40
0.0500
 41
0.0500
 70
0
  0
VERTEX
  8
0
 10
-0.4750
 20
-0.2379
 30
0.0000
 42
1.0000
  0
VERTEX
  8
0
 10
-0.4250
 20
-0.2379
 30
0.0000
  0
SEQEND
  8
0
  0
ENDBLK
  8
0
  0
ENDSEC
  0
SECTION
  2
ENTITIES
  0
LINE
  8
20
 10
113.0000
 20
121.0000
 30
0.0000
 11
113.0000
 21
1.0000
 31
0.0000
  0
ARC
  8
20
 10
112.0000
 20
1.0000
 30
0.0000
 40
1.0000
 50
270.0000
 51
0.0000
  0
LINE
  8
20
 10
112.0000
 20
0.0000
 30
0.0000
 11
1.0000
 21
0.0000
 31
0.0000
  0
ARC
  8
20
 10
1.0000
 20
1.0000
 30
0.0000
 40
1.0000
 50
180.0000
 51
270.0000
  0
LINE
  8
20
 10
0.0000
 20
1.0000
 30
0.0000
 11
0.0000
 21
121.0000
 31
0.0000
  0
LINE
  8
20
 10
75.0000
 20
122.0000
 30
0.0000
 11
112.0000
 21
122.0000
 31
0.0000
  0
ARC
  8
20
 10
112.0000
 20
121.0000
 30
0.0000
 40
1.0000
 50
0.0000
 51
90.0000
  0
ARC
  8
20
 10
1.0000
 20
121.0000
 30
0.0000
 40
1.0000
 50
90.0000
 51
180.0000
  0
LINE
  8
20
 10
1.0000
 20
122.0000
 30
0.0000
 11
19.0000
 21
122.0000
 31
0.0000
  0
LINE
  8
20
 10
19.0000
 20
122.0000
 30
0.0000
 11
19.0000
 21
126.0000
 31
0.0000
  0
ARC
  8
20
 10
20.0000
 20
126.0000
 30
0.0000
 40
1.0000
 50
90.0000
 51
180.0000
  0
LINE
  8
20
 10
20.0000
 20
127.0000
 30
0.0000
 11
38.0000
 21
127.0000
 31
0.0000
  0
LINE
  8
20
 10
38.0000
 20
127.0000
 30
0.0000
 11
38.0000
 21
130.5000
 31
0.0000
  0
ARC
  8
20
 10
39.0000
 20
130.5000
 30
0.0000
 40
1.0000
 50
90.0000
 51
180.0000
  0
LINE
  8
20
 10
39.0000
 20
131.5000
 30
0.0000
 11
55.0000
 21
131.5000
 31
0.0000
  0
ARC
  8
20
 10
55.0000
 20
130.5000
 30
0.0000
 40
1.0000
 50
0.0000
 51
90.0000
  0
LINE
  8
20
 10
56.0000
 20
130.5000
 30
0.0000
 11
56.0000
 21
126.7500
 31
0.0000
  0
LINE
  8
20
 10
56.0000
 20
126.7500
 30
0.0000
 11
74.0000
 21
126.7500
 31
0.0000
  0
ARC
  8
20
 10
74.0000
 20
125.7500
 30
0.0000
 40
1.0000
 50
0.0000
 51
90.0000
  0
LINE
  8
20
 10
75.0000
 20
125.7500
 30
0.0000
 11
75.0000
 21
122.0000
 31
0.0000
  0
POLYLINE
  8
114
 66
1
 10
0.0000
 20
0.0000
 30
0.0000
 40
0.1500
 41
0.1500
 70
0
  0
VERTEX
  8
114
 10
106.1000
 20
114.4250
 30
0.0000
 42
1.0000
  0
VERTEX
  8
114
 10
106.1000
 20
118.3750
 30
0.0000
 42
1.0000
  0
VERTEX
  8
114
 10
106.1000
 20
114.4250
 30
0.0000
  0
SEQEND
  8
0
  0
POLYLINE
  8
114
 66
1
 10
0.0000
 20
0.0000
 30
0.0000
 40
0.1500
 41
0.1500
 70
0
  0
VERTEX
  8
114
 10
15.7500
 20
106.0000
 30
0.0000
  0
VERTEX
  8
114
 10
2.2500
 20
106.0000
 30
0.0000
  0
SEQEND
  8
0
  0
POLYLINE
  8
114
 66
1
 10
0.0000
 20
0.0000
 30
0.0000
 40
0.0750
 41
0.0750
 70
0
  0
VERTEX
  8
114
 10
2.2500
 20
106.0375
 30
0.0000
 42
1.0000
  0
VERTEX
  8
114
 10
2.2500
 20
105.9625
 30
0.0000
  0
SEQEND
  8
0
  0
POLYLINE
  8
114
 66
1
 10
0.0000
 20
0.0000
 30
0.0000
 40
0.0750
 41
0.0750
 70
0
  0
VERTEX
  8
114
 10
15.7500
 20
105.9625
 30
0.0000
 42
1.0000
  0
VERTEX
  8
114
 10
15.7500
 20
106.0375
 30
0.0000
  0
SEQEND
  8
0
  0
POLYLINE
  8
114
 66
1
 10
0.0000
 20
0.0000
 30
0.0000
 40
0.1500
 41
0.1500
 70
0
  0
VERTEX
  8
114
 10
2.0000
 20
106.2500
 30
0.0000
 42
0.4142
  0
VERTEX
  8
114
 10
2.2500
 20
106.0000
 30
0.0000
  0
SEQEND
  8
0
  0
POLYLINE
  8
114
 66
1
 10
0.0000
 20
0.0000
 30
0.0000
 40
0.0750
 41
0.0750
 70
0
  0
VERTEX
  8
114
 10
2.0375
 20
106.2500
 30
0.0000
 42
1.0000
  0
VERTEX
  8
114
 10
1.9625
 20
106.2500
 30
0.0000
  0
SEQEND
  8
0
  0
POLYLINE
  8
114
 66
1
 10
0.0000
 20
0.0000
 30
0.0000
 40
0.0750
 41
0.0750
 70
0
  0
VERTEX
  8
114
 10
2.2500
 20
105.9625
 30
0.0000
 42
1.0000
  0
VERTEX
  8
114
 10
2.2500
 20
106.0375
 30
0.0000
  0
SEQEND
  8
0
  0
POLYLINE
  8
114
 66
1
 10
0.0000
 20
0.0000
 30
0.0000
 40
0.1500
 41
0.1500
 70
0
  0
VERTEX
  8
114
 10
2.0000
 20
106.2500
 30
0.0000
  0
VERTEX
  8
114
 10
2.0000
 20
119.7500
 30
0.0000
  0
SEQEND
  8
0
  0
POLYLINE
  8
114
 66
1
 10
0.0000
 20
0.0000
 30
0.0000
 40
0.0750
 41
0.0750
 70
0
  0
VERTEX
  8
114
 10
2.0375
 20
119.7500
 30
0.0000
 42
1.0000
  0
VERTEX
  8
114
 10
1.9625
 20
119.7500
 30
0.0000
  0
SEQEND
  8
0
  0
POLYLINE
  8
114
 66
1
 10
0.0000
 20
0.0000
 30
0.0000
 40
0.0750
 41
0.0750
 70
0
  0
VERTEX
  8
114
 10
1.9625
 20
106.2500
 30
0.0000
 42
1.0000
  0
VERTEX
  8
114
 10
2.0375
 20
106.2500
 30
0.0000
  0
SEQEND
  8
0
  0
POLYLINE
  8
114
 66
1
 10
0.0000
 20
0.0000
 30
0.0000
 40
0.1500
 41
0.1500
 70
0
  0
VERTEX
  8
114
 10
2.2500
 20
120.0000
 30
0.0000
 42
0.4142
  0
VERTEX
  8
114
 10
2.0000
 20
119.7500
 30
0.0000
  0
SEQEND
  8
0
  0
POLYLINE
  8
114
 66
1
 10
0.0000
 20
0.0000
 30
0.0000
 40
0.0750
 41
0.0750
 70
0
  0
VERTEX
  8
114
 10
2.2500
 20
119.9625
 30
0.0000
 42
1.0000
  0
VERTEX
  8
114
 10
2.2500
 20
120.0375
 30
0.0000
  0
SEQEND
  8
0
  0
POLYLINE
  8
114
 66
1
 10
0.0000
 20
0.0000
 30
0.0000
 40
0.0750
 41
0.0750
 70
0
  0
VERTEX
  8
114
 10
1.9625
 20
119.7500
 30
0.0000
 42
1.0000
  0
VERTEX
  8
114
 10
2.0375
 20
119.7500
 30
0.0000
  0
SEQEND
  8
0
  0
POLYLINE
  8
114
 66
1
 10
0.0000
 20
0.0000
 30
0.0000
 40
0.1500
 41
0.1500
 70
0
  0
VERTEX
  8
114
 10
2.2500
 20
120.0000
 30
0.0000
  0
VERTEX
  8
114
 10
15.7500
 20
120.0000
 30
0.0000
  0
SEQEND
  8
0
  0
POLYLINE
  8
114
 66
1
 10
0.0000
 20
0.0000
 30
0.0000
 40
0.0750
 41
0.0750
 70
0
  0
VERTEX
  8
114
 10
15.7500
 20
119.9625
 30
0.0000
 42
1.0000
  0
VERTEX
  8
114
 10
15.7500
 20
120.0375
 30
0.0000
  0
SEQEND
  8
0
  0
POLYLINE
  8
114
 66
1
 10
0.0000
 20
0.0000
 30
0.0000
 40
0.0750
 41
0.0750
 70
0
  0
VERTEX
  8
114
 10
2.2500
 20
120.0375
 30
0.0000
 42
1.0000
  0
VERTEX
  8
114
 10
2.2500
 20
119.9625
 30
0.0000
  0
SEQEND
  8
0
  0
POLYLINE
  8
114
 66
1
 10
0.0000
 20
0.0000
 30
0.0000
 40
0.1500
 41
0.1500
 70
0
  0
VERTEX
  8
114
 10
16.0000
 20
119.7500
 30
0.0000
 42
0.4142
  0
VERTEX
  8
114
 10
15.7500
 20
120.0000
 30
0.0000
  0
SEQEND
  8
0
  0
POLYLINE
  8
114
 66
1
 10
0.0000
 20
0.0000
 30
0.0000
 40
0.0750
 41
0.0750
 70
0
  0
VERTEX
  8
114
 10
15.9625
 20
119.7500
 30
0.0000
 42
1.0000
  0
VERTEX
  8
114
 10
16.0375
 20
119.7500
 30
0.0000
  0
SEQEND
  8
0
  0
POLYLINE
  8
114
 66
1
 10
0.0000
 20
0.0000
 30
0.0000
 40
0.0750
 41
0.0750
 70
0
  0
VERTEX
  8
114
 10
15.7500
 20
120.0375
 30
0.0000
 42
1.0000
  0
VERTEX
  8
114
 10
15.7500
 20
119.9625
 30
0.0000
  0
SEQEND
  8
0
  0
POLYLINE
  8
114
 66
1
 10
0.0000
 20
0.0000
 30
0.0000
 40
0.1500
 41
0.1500
 70
0
  0
VERTEX
  8
114
 10
16.0000
 20
119.7500
 30
0.0000
  0
VERTEX
  8
114
 10
16.0000
 20
106.2500
 30
0.0000
  0
SEQEND
  8
0
  0
POLYLINE
  8
114
 66
1
 10
0.0000
 20
0.0000
 30
0.0000
 40
0.0750
 41
0.0750
 70
0
  0
VERTEX
  8
114
 10
15.9625
 20
106.2500
 30
0.0000
 42
1.0000
  0
VERTEX
  8
114
 10
16.0375
 20
106.2500
 30
0.0000
  0
SEQEND
  8
0
  0
POLYLINE
  8
114
 66
1
 10
0.0000
 20
0.0000
 30
0.0000
 40
0.0750
 41
0.0750
 70
0
  0
VERTEX
  8
114
 10
16.0375
 20
119.7500
 30
0.0000
 42
1.0000
  0
VERTEX
  8
114
 10
15.9625
 20
119.7500
 30
0.0000
  0
SEQEND
  8
0
  0
POLYLINE
  8
114
 66
1
 10
0.0000
 20
0.0000
 30
0.0000
 40
0.1500
 41
0.1500
 70
0
  0
VERTEX
  8
114
 10
15.7500
 20
106.0000
 30
0.0000
 42
0.4142
  0
VERTEX
  8
114
 10
16.0000
 20
106.2500
 30
0.0000
  0
SEQEND
  8
0
  0
POLYLINE
  8
114
 66
1
 10
0.0000
 20
0.0000
 30
0.0000
 40
0.0750
 41
0.0750
 70
0
  0
VERTEX
  8
114
 10
15.7500
 20
106.0375
 30
0.0000
 42
1.0000
  0
VERTEX
  8
114
 10
15.7500
 20
105.9625
 30
0.0000
  0
SEQEND
  8
0
  0
POLYLINE
  8
114
 66
1
 10
0.0000
 20
0.0000
 30
0.0000
 40
0.0750
 41
0.0750
 70
0
  0
VERTEX
  8
114
 10
16.0375
 20
106.2500
 30
0.0000
 42
1.0000
  0
VERTEX
  8
114
 10
15.9625
 20
106.2500
 30
0.0000
  0
SEQEND
  8
0
  0
POLYLINE
  8
114
 66
1
 10
0.0000
 20
0.0000
 30
0.0000
 40
0.1500
 41
0.1500
 70
0
  0
VERTEX
  8
114
 10
34.7500
 20
110.7500
 30
0.0000
  0
VERTEX
  8
114
 10
21.2500
 20
110.7500
 30
0.0000
  0
SEQEND
  8
0
  0
POLYLINE
  8
114
 66
1
 10
0.0000
 20
0.0000
 30
0.0000
 40
0.0750
 41
0.0750
 70
0
  0
VERTEX
  8
114
 10
21.2500
 20
110.7875
 30
0.0000
 42
1.0000
  0
VERTEX
  8
114
 10
21.2500
 20
110.7125
 30
0.0000
  0
SEQEND
  8
0
  0
POLYLINE
  8
114
 66
1
 10
0.0000
 20
0.0000
 30
0.0000
 40
0.0750
 41
0.0750
 70
0
  0
VERTEX
  8
114
 10
34.7500
 20
110.7125
 30
0.0000
 42
1.0000
  0
VERTEX
  8
114
 10
34.7500
 20
110.7875
 30
0.0000
  0
SEQEND
  8
0
  0
POLYLINE
  8
114
 66
1
 10
0.0000
 20
0.0000
 30
0.0000
 40
0.1500
 41
0.1500
 70
0
  0
VERTEX
  8
114
 10
21.0000
 20
111.0000
 30
0.0000
 42
0.4142
  0
VERTEX
  8
114
 10
21.2500
 20
110.7500
 30
0.0000
  0
SEQEND
  8
0
  0
POLYLINE
  8
114
 66
1
 10
0.0000
 20
0.0000
 30
0.0000
 40
0.0750
 41
0.0750
 70
0
  0
VERTEX
  8
114
 10
21.0375
 20
111.0000
 30
0.0000
 42
1.0000
  0
VERTEX
  8
114
 10
20.9625
 20
111.0000
 30
0.0000
  0
SEQEND
  8
0
  0
POLYLINE
  8
114
 66
1
 10
0.0000
 20
0.0000
 30
0.0000
 40
0.0750
 41
0.0750
 70
0
  0
VERTEX
  8
114
 10
21.2500
 20
110.7125
 30
0.0000
 42
1.0000
  0
VERTEX
  8
114
 10
21.2500
 20
110.7875
 30
0.0000
  0
SEQEND
  8
0
  0
POLYLINE
  8
114
 66
1
 10
0.0000
 20
0.0000
 30
0.0000
 40
0.1500
 41
0.1500
 70
0
  0
VERTEX
  8
114
 10
21.0000
 20
111.0000
 30
0.0000
  0
VERTEX
  8
114
 10
21.0000
 20
124.5000
 30
0.0000
  0
SEQEND
  8
0
  0
POLYLINE
  8
114
 66
1
 10
0.0000
 20
0.0000
 30
0.0000
 40
0.0750
 41
0.0750
 70
0
  0
VERTEX
  8
114
 10
21.0375
 20
124.5000
 30
0.0000
 42
1.0000
  0
VERTEX
  8
114
 10
20.9625
 20
124.5000
 30
0.0000
  0
SEQEND
  8
0
  0
POLYLINE
  8
114
 66
1
 10
0.0000
 20
0.0000
 30
0.0000
 40
0.0750
 41
0.0750
 70
0
  0
VERTEX
  8
114
 10
20.9625
 20
111.0000
 30
0.0000
 42
1.0000
  0
VERTEX
  8
114
 10
21.0375
 20
111.0000
 30
0.0000
  0
SEQEND
  8
0
  0
POLYLINE
  8
114
 66
1
 10
0.0000
 20
0.0000
 30
0.0000
 40
0.1500
 41
0.1500
 70
0
  0
VERTEX
  8
114
 10
21.2500
 20
124.7500
 30
0.0000
 42
0.4142
  0
VERTEX
  8
114
 10
21.0000
 20
124.5000
 30
0.0000
  0
SEQEND
  8
0
  0
POLYLINE
  8
114
 66
1
 10
0.0000
 20
0.0000
 30
0.0000
 40
0.0750
 41
0.0750
 70
0
  0
VERTEX
  8
114
 10
21.2500
 20
124.7125
 30
0.0000
 42
1.0000
  0
VERTEX
  8
114
 10
21.2500
 20
124.7875
 30
0.0000
  0
SEQEND
  8
0
  0
POLYLINE
  8
114
 66
1
 10
0.0000
 20
0.0000
 30
0.0000
 40
0.0750
 41
0.0750
 70
0
  0
VERTEX
  8
114
 10
20.9625
 20
124.5000
 30
0.0000
 42
1.0000
  0
VERTEX
  8
114
 10
21.0375
 20
124.5000
 30
0.0000
  0
SEQEND
  8
0
  0
POLYLINE
  8
114
 66
1
 10
0.0000
 20
0.0000
 30
0.0000
 40
0.1500
 41
0.1500
 70
0
  0
VERTEX
  8
114
 10
21.2500
 20
124.7500
 30
0.0000
  0
VERTEX
  8
114
 10
34.7500
 20
124.7500
 30
0.0000
  0
SEQEND
  8
0
  0
POLYLINE
  8
114
 66
1
 10
0.0000
 20
0.0000
 30
0.0000
 40
0.0750
 41
0.0750
 70
0
  0
VERTEX
  8
114
 10
34.7500
 20
124.7125
 30
0.0000
 42
1.0000
  0
VERTEX
  8
114
 10
34.7500
 20
124.7875
 30
0.0000
  0
SEQEND
  8
0
  0
POLYLINE
  8
114
 66
1
 10
0.0000
 20
0.0000
 30
0.0000
 40
0.0750
 41
0.0750
 70
0
  0
VERTEX
  8
114
 10
21.2500
 20
124.7875
 30
0.0000
 42
1.0000
  0
VERTEX
  8
114
 10
21.2500
 20
124.7125
 30
0.0000
  0
SEQEND
  8
0
  0
POLYLINE
  8
114
 66
1
 10
0.0000
 20
0.0000
 30
0.0000
 40
0.1500
 41
0.1500
 70
0
  0
VERTEX
  8
114
 10
35.0000
 20
124.5000
 30
0.0000
 42
0.4142
  0
VERTEX
  8
114
 10
34.7500
 20
124.7500
 30
0.0000
  0
SEQEND
  8
0
  0
POLYLINE
  8
114
 66
1
 10
0.0000
 20
0.0000
 30
0.0000
 40
0.0750
 41
0.0750
 70
0
  0
VERTEX
  8
114
 10
34.9625
 20
124.5000
 30
0.0000
 42
1.0000
  0
VERTEX
  8
114
 10
35.0375
 20
124.5000
 30
0.0000
  0
SEQEND
  8
0
  0
POLYLINE
  8
114
 66
1
 10
0.0000
 20
0.0000
 30
0.0000
 40
0.0750
 41
0.0750
 70
0
  0
VERTEX
  8
114
 10
34.7500
 20
124.7875
 30
0.0000
 42
1.0000
  0
VERTEX
  8
114
 10
34.7500
 20
124.7125
 30
0.0000
  0
SEQEND
  8
0
  0
POLYLINE
  8
114
 66
1
 10
0.0000
 20
0.0000
 30
0.0000
 40
0.1500
 41
0.1500
 70
0
  0
VERTEX
  8
114
 10
35.0000
 20
124.5000
 30
0.0000
  0
VERTEX
  8
114
 10
35.0000
 20
111.0000
 30
0.0000
  0
SEQEND
  8
0
  0
POLYLINE
  8
114
 66
1
 10
0.0000
 20
0.0000
 30
0.0000
 40
0.0750
 41
0.0750
 70
0
  0
VERTEX
  8
114
 10
34.9625
 20
111.0000
 30
0.0000
 42
1.0000
  0
VERTEX
  8
114
 10
35.0375
 20
111.0000
 30
0.0000
  0
SEQEND
  8
0
  0
POLYLINE
  8
114
 66
1
 10
0.0000
 20
0.0000
 30
0.0000
 40
0.0750
 41
0.0750
 70
0
  0
VERTEX
  8
114
 10
35.0375
 20
124.5000
 30
0.0000
 42
1.0000
  0
VERTEX
  8
114
 10
34.9625
 20
124.5000
 30
0.0000
  0
SEQEND
  8
0
  0
POLYLINE
  8
114
 66
1
 10
0.0000
 20
0.0000
 30
0.0000
 40
0.1500
 41
0.1500
 70
0
  0
VERTEX
  8
114
 10
34.7500
 20
110.7500
 30
0.0000
 42
0.4142
  0
VERTEX
  8
114
 10
35.0000
 20
111.0000
 30
0.0000
  0
SEQEND
  8
0
  0
POLYLINE
  8
114
 66
1
 10
0.0000
 20
0.0000
 30
0.0000
 40
0.0750
 41
0.0750
 70
0
  0
VERTEX
  8
114
 10
34.7500
 20
110.7875
 30
0.0000
 42
1.0000
  0
VERTEX
  8
114
 10
34.7500
 20
110.7125
 30
0.0000
  0
SEQEND
  8
0
  0
POLYLINE
  8
114
 66
1
 10
0.0000
 20
0.0000
 30
0.0000
 40
0.0750
 41
0.0750
 70
0
  0
VERTEX
  8
114
 10
35.0375
 20
111.0000
 30
0.0000
 42
1.0000
  0
VERTEX
  8
114
 10
34.9625
 20
111.0000
 30
0.0000
  0
SEQEND
  8
0
  0
POLYLINE
  8
114
 66
1
 10
0.0000
 20
0.0000
 30
0.0000
 40
0.1500
 41
0.1500
 70
0
  0
VERTEX
  8
114
 10
53.7500
 20
115.5000
 30
0.0000
  0
VERTEX
  8
114
 10
40.2500
 20
115.5000
 30
0.0000
  0
SEQEND
  8
0
  0
POLYLINE
  8
114
 66
1
 10
0.0000
 20
0.0000
 30
0.0000
 40
0.0750
 41
0.0750
 70
0
  0
VERTEX
  8
114
 10
40.2500
 20
115.5375
 30
0.0000
 42
1.0000
  0
VERTEX
  8
114
 10
40.2500
 20
115.4625
 30
0.0000
  0
SEQEND
  8
0
  0
POLYLINE
  8
114
 66
1
 10
0.0000
 20
0.0000
 30
0.0000
 40
0.0750
 41
0.0750
 70
0
  0
VERTEX
  8
114
 10
53.7500
 20
115.4625
 30
0.0000
 42
1.0000
  0
VERTEX
  8
114
 10
53.7500
 20
115.5375
 30
0.0000
  0
SEQEND
  8
0
  0
POLYLINE
  8
114
 66
1
 10
0.0000
 20
0.0000
 30
0.0000
 40
0.1500
 41
0.1500
 70
0
  0
VERTEX
  8
114
 10
40.0000
 20
115.7500
 30
0.0000
 42
0.4142
  0
VERTEX
  8
114
 10
40.2500
 20
115.5000
 30
0.0000
  0
SEQEND
  8
0
  0
POLYLINE
  8
114
 66
1
 10
0.0000
 20
0.0000
 30
0.0000
 40
0.0750
 41
0.0750
 70
0
  0
VERTEX
  8
114
 10
40.0375
 20
115.7500
 30
0.0000
 42
1.0000
  0
VERTEX
  8
114
 10
39.9625
 20
115.7500
 30
0.0000
  0
SEQEND
  8
0
  0
POLYLINE
  8
114
 66
1
 10
0.0000
 20
0.0000
 30
0.0000
 40
0.0750
 41
0.0750
 70
0
  0
VERTEX
  8
114
 10
40.2500
 20
115.4625
 30
0.0000
 42
1.0000
  0
VERTEX
  8
114
 10
40.2500
 20
115.5375
 30
0.0000
  0
SEQEND
  8
0
  0
POLYLINE
  8
114
 66
1
 10
0.0000
 20
0.0000
 30
0.0000
 40
0.1500
 41
0.1500
 70
0
  0
VERTEX
  8
114
 10
40.0000
 20
115.7500
 30
0.0000
  0
VERTEX
  8
114
 10
40.0000
 20
129.2500
 30
0.0000
  0
SEQEND
  8
0
  0
POLYLINE
  8
114
 66
1
 10
0.0000
 20
0.0000
 30
0.0000
 40
0.0750
 41
0.0750
 70
0
  0
VERTEX
  8
114
 10
40.0375
 20
129.2500
 30
0.0000
 42
1.0000
  0
VERTEX
  8
114
 10
39.9625
 20
129.2500
 30
0.0000
  0
SEQEND
  8
0
  0
POLYLINE
  8
114
 66
1
 10
0.0000
 20
0.0000
 30
0.0000
 40
0.0750
 41
0.0750
 70
0
  0
VERTEX
  8
114
 10
39.9625
 20
115.7500
 30
0.0000
 42
1.0000
  0
VERTEX
  8
114
 10
40.0375
 20
115.7500
 30
0.0000
  0
SEQEND
  8
0
  0
POLYLINE
  8
114
 66
1
 10
0.0000
 20
0.0000
 30
0.0000
 40
0.1500
 41
0.1500
 70
0
  0
VERTEX
  8
114
 10
40.2500
 20
129.5000
 30
0.0000
 42
0.4142
  0
VERTEX
  8
114
 10
40.0000
 20
129.2500
 30
0.0000
  0
SEQEND
  8
0
  0
POLYLINE
  8
114
 66
1
 10
0.0000
 20
0.0000
 30
0.0000
 40
0.0750
 41
0.0750
 70
0
  0
VERTEX
  8
114
 10
40.2500
 20
129.4625
 30
0.0000
 42
1.0000
  0
VERTEX
  8
114
 10
40.2500
 20
129.5375
 30
0.0000
  0
SEQEND
  8
0
  0
POLYLINE
  8
114
 66
1
 10
0.0000
 20
0.0000
 30
0.0000
 40
0.0750
 41
0.0750
 70
0
  0
VERTEX
  8
114
 10
39.9625
 20
129.2500
 30
0.0000
 42
1.0000
  0
VERTEX
  8
114
 10
40.0375
 20
129.2500
 30
0.0000
  0
SEQEND
  8
0
  0
POLYLINE
  8
114
 66
1
 10
0.0000
 20
0.0000
 30
0.0000
 40
0.1500
 41
0.1500
 70
0
  0
VERTEX
  8
114
 10
40.2500
 20
129.5000
 30
0.0000
  0
VERTEX
  8
114
 10
53.7500
 20
129.5000
 30
0.0000
  0
SEQEND
  8
0
  0
POLYLINE
  8
114
 66
1
 10
0.0000
 20
0.0000
 30
0.0000
 40
0.0750
 41
0.0750
 70
0
  0
VERTEX
  8
114
 10
53.7500
 20
129.4625
 30
0.0000
 42
1.0000
  0
VERTEX
  8
114
 10
53.7500
 20
129.5375
 30
0.0000
  0
SEQEND
  8
0
  0
POLYLINE
  8
114
 66
1
 10
0.0000
 20
0.0000
 30
0.0000
 40
0.0750
 41
0.0750
 70
0
  0
VERTEX
  8
114
 10
40.2500
 20
129.5375
 30
0.0000
 42
1.0000
  0
VERTEX
  8
114
 10
40.2500
 20
129.4625
 30
0.0000
  0
SEQEND
  8
0
  0
POLYLINE
  8
114
 66
1
 10
0.0000
 20
0.0000
 30
0.0000
 40
0.1500
 41
0.1500
 70
0
  0
VERTEX
  8
114
 10
54.0000
 20
129.2500
 30
0.0000
 42
0.4142
  0
VERTEX
  8
114
 10
53.7500
 20
129.5000
 30
0.0000
  0
SEQEND
  8
0
  0
POLYLINE
  8
114
 66
1
 10
0.0000
 20
0.0000
 30
0.0000
 40
0.0750
 41
0.0750
 70
0
  0
VERTEX
  8
114
 10
53.9625
 20
129.2500
 30
0.0000
 42
1.0000
  0
VERTEX
  8
114
 10
54.0375
 20
129.2500
 30
0.0000
  0
SEQEND
  8
0
  0
POLYLINE
  8
114
 66
1
 10
0.0000
 20
0.0000
 30
0.0000
 40
0.0750
 41
0.0750
 70
0
  0
VERTEX
  8
114
 10
53.7500
 20
129.5375
 30
0.0000
 42
1.0000
  0
VERTEX
  8
114
 10
53.7500
 20
129.4625
 30
0.0000
  0
SEQEND
  8
0
  0
POLYLINE
  8
114
 66
1
 10
0.0000
 20
0.0000
 30
0.0000
 40
0.1500
 41
0.1500
 70
0
  0
VERTEX
  8
114
 10
54.0000
 20
129.2500
 30
0.0000
  0
VERTEX
  8
114
 10
54.0000
 20
115.7500
 30
0.0000
  0
SEQEND
  8
0
  0
POLYLINE
  8
114
 66
1
 10
0.0000
 20
0.0000
 30
0.0000
 40
0.0750
 41
0.0750
 70
0
  0
VERTEX
  8
114
 10
53.9625
 20
115.7500
 30
0.0000
 42
1.0000
  0
VERTEX
  8
114
 10
54.0375
 20
115.7500
 30
0.0000
  0
SEQEND
  8
0
  0
POLYLINE
  8
114
 66
1
 10
0.0000
 20
0.0000
 30
0.0000
 40
0.0750
 41
0.0750
 70
0
  0
VERTEX
  8
114
 10
54.0375
 20
129.2500
 30
0.0000
 42
1.0000
  0
VERTEX
  8
114
 10
53.9625
 20
129.2500
 30
0.0000
  0
SEQEND
  8
0
  0
POLYLINE
  8
114
 66
1
 10
0.0000
 20
0.0000
 30
0.0000
 40
0.1500
 41
0.1500
 70
0
  0
VERTEX
  8
114
 10
53.7500
 20
115.5000
 30
0.0000
 42
0.4142
  0
VERTEX
  8
114
 10
54.0000
 20
115.7500
 30
0.0000
  0
SEQEND
  8
0
  0
POLYLINE
  8
114
 66
1
 10
0.0000
 20
0.0000
 30
0.0000
 40
0.0750
 41
0.0750
 70
0
  0
VERTEX
  8
114
 10
53.7500
 20
115.5375
 30
0.0000
 42
1.0000
  0
VERTEX
  8
114
 10
53.7500
 20
115.4625
 30
0.0000
  0
SEQEND
  8
0
  0
POLYLINE
  8
114
 66
1
 10
0.0000
 20
0.0000
 30
0.0000
 40
0.0750
 41
0.0750
 70
0
  0
VERTEX
  8
114
 10
54.0375
 20
115.7500
 30
0.0000
 42
1.0000
  0
VERTEX
  8
114
 10
53.9625
 20
115.7500
 30
0.0000
  0
SEQEND
  8
0
  0
POLYLINE
  8
114
 66
1
 10
0.0000
 20
0.0000
 30
0.0000
 40
0.1500
 41
0.1500
 70
0
  0
VERTEX
  8
114
 10
72.7500
 20
110.7500
 30
0.0000
  0
VERTEX
  8
114
 10
59.2500
 20
110.7500
 30
0.0000
  0
SEQEND
  8
0
  0
POLYLINE
  8
114
 66
1
 10
0.0000
 20
0.0000
 30
0.0000
 40
0.0750
 41
0.0750
 70
0
  0
VERTEX
  8
114
 10
59.2500
 20
110.7875
 30
0.0000
 42
1.0000
  0
VERTEX
  8
114
 10
59.2500
 20
110.7125
 30
0.0000
  0
SEQEND
  8
0
  0
POLYLINE
  8
114
 66
1
 10
0.0000
 20
0.0000
 30
0.0000
 40
0.0750
 41
0.0750
 70
0
  0
VERTEX
  8
114
 10
72.7500
 20
110.7125
 30
0.0000
 42
1.0000
  0
VERTEX
  8
114
 10
72.7500
 20
110.7875
 30
0.0000
  0
SEQEND
  8
0
  0
POLYLINE
  8
114
 66
1
 10
0.0000
 20
0.0000
 30
0.0000
 40
0.1500
 41
0.1500
 70
0
  0
VERTEX
  8
114
 10
59.0000
 20
111.0000
 30
0.0000
 42
0.4142
  0
VERTEX
  8
114
 10
59.2500
 20
110.7500
 30
0.0000
  0
SEQEND
  8
0
  0
POLYLINE
  8
114
 66
1
 10
0.0000
 20
0.0000
 30
0.0000
 40
0.0750
 41
0.0750
 70
0
  0
VERTEX
  8
114
 10
59.0375
 20
111.0000
 30
0.0000
 42
1.0000
  0
VERTEX
  8
114
 10
58.9625
 20
111.0000
 30
0.0000
  0
SEQEND
  8
0
  0
POLYLINE
  8
114
 66
1
 10
0.0000
 20
0.0000
 30
0.0000
 40
0.0750
 41
0.0750
 70
0
  0
VERTEX
  8
114
 10
59.2500
 20
110.7125
 30
0.0000
 42
1.0000
  0
VERTEX
  8
114
 10
59.2500
 20
110.7875
 30
0.0000
  0
SEQEND
  8
0
  0
POLYLINE
  8
114
 66
1
 10
0.0000
 20
0.0000
 30
0.0000
 40
0.1500
 41
0.1500
 70
0
  0
VERTEX
  8
114
 10
59.0000
 20
111.0000
 30
0.0000
  0
VERTEX
  8
114
 10
59.0000
 20
124.5000
 30
0.0000
  0
SEQEND
  8
0
  0
POLYLINE
  8
114
 66
1
 10
0.0000
 20
0.0000
 30
0.0000
 40
0.0750
 41
0.0750
 70
0
  0
VERTEX
  8
114
 10
59.0375
 20
124.5000
 30
0.0000
 42
1.0000
  0
VERTEX
  8
114
 10
58.9625
 20
124.5000
 30
0.0000
  0
SEQEND
  8
0
  0
POLYLINE
  8
114
 66
1
 10
0.0000
 20
0.0000
 30
0.0000
 40
0.0750
 41
0.0750
 70
0
  0
VERTEX
  8
114
 10
58.9625
 20
111.0000
 30
0.0000
 42
1.0000
  0
VERTEX
  8
114
 10
59.0375
 20
111.0000
 30
0.0000
  0
SEQEND
  8
0
  0
POLYLINE
  8
114
 66
1
 10
0.0000
 20
0.0000
 30
0.0000
 40
0.1500
 41
0.1500
 70
0
  0
VERTEX
  8
114
 10
59.2500
 20
124.7500
 30
0.0000
 42
0.4142
  0
VERTEX
  8
114
 10
59.0000
 20
124.5000
 30
0.0000
  0
SEQEND
  8
0
  0
POLYLINE
  8
114
 66
1
 10
0.0000
 20
0.0000
 30
0.0000
 40
0.0750
 41
0.0750
 70
0
  0
VERTEX
  8
114
 10
59.2500
 20
124.7125
 30
0.0000
 42
1.0000
  0
VERTEX
  8
114
 10
59.2500
 20
124.7875
 30
0.0000
  0
SEQEND
  8
0
  0
POLYLINE
  8
114
 66
1
 10
0.0000
 20
0.0000
 30
0.0000
 40
0.0750
 41
0.0750
 70
0
  0
VERTEX
  8
114
 10
58.9625
 20
124.5000
 30
0.0000
 42
1.0000
  0
VERTEX
  8
114
 10
59.0375
 20
124.5000
 30
0.0000
  0
SEQEND
  8
0
  0
POLYLINE
  8
114
 66
1
 10
0.0000
 20
0.0000
 30
0.0000
 40
0.1500
 41
0.1500
 70
0
  0
VERTEX
  8
114
 10
59.2500
 20
124.7500
 30
0.0000
  0
VERTEX
  8
114
 10
72.7500
 20
124.7500
 30
0.0000
  0
SEQEND
  8
0
  0
POLYLINE
  8
114
 66
1
 10
0.0000
 20
0.0000
 30
0.0000
 40
0.0750
 41
0.0750
 70
0
  0
VERTEX
  8
114
 10
72.7500
 20
124.7125
 30
0.0000
 42
1.0000
  0
VERTEX
  8
114
 10
72.7500
 20
124.7875
 30
0.0000
  0
SEQEND
  8
0
  0
POLYLINE
  8
114
 66
1
 10
0.0000
 20
0.0000
 30
0.0000
 40
0.0750
 41
0.0750
 70
0
  0
VERTEX
  8
114
 10
59.2500
 20
124.7875
 30
0.0000
 42
1.0000
  0
VERTEX
  8
114
 10
59.2500
 20
124.7125
 30
0.0000
  0
SEQEND
  8
0
  0
POLYLINE
  8
114
 66
1
 10
0.0000
 20
0.0000
 30
0.0000
 40
0.1500
 41
0.1500
 70
0
  0
VERTEX
  8
114
 10
73.0000
 20
124.5000
 30
0.0000
 42
0.4142
  0
VERTEX
  8
114
 10
72.7500
 20
124.7500
 30
0.0000
  0
SEQEND
  8
0
  0
POLYLINE
  8
114
 66
1
 10
0.0000
 20
0.0000
 30
0.0000
 40
0.0750
 41
0.0750
 70
0
  0
VERTEX
  8
114
 10
72.9625
 20
124.5000
 30
0.0000
 42
1.0000
  0
VERTEX
  8
114
 10
73.0375
 20
124.5000
 30
0.0000
  0
SEQEND
  8
0
  0
POLYLINE
  8
114
 66
1
 10
0.0000
 20
0.0000
 30
0.0000
 40
0.0750
 41
0.0750
 70
0
  0
VERTEX
  8
114
 10
72.7500
 20
124.7875
 30
0.0000
 42
1.0000
  0
VERTEX
  8
114
 10
72.7500
 20
124.7125
 30
0.0000
  0
SEQEND
  8
0
  0
POLYLINE
  8
114
 66
1
 10
0.0000
 20
0.0000
 30
0.0000
 40
0.1500
 41
0.1500
 70
0
  0
VERTEX
  8
114
 10
73.0000
 20
124.5000
 30
0.0000
  0
VERTEX
  8
114
 10
73.0000
 20
111.0000
 30
0.0000
  0
SEQEND
  8
0
  0
POLYLINE
  8
114
 66
1
 10
0.0000
 20
0.0000
 30
0.0000
 40
0.0750
 41
0.0750
 70
0
  0
VERTEX
  8
114
 10
72.9625
 20
111.0000
 30
0.0000
 42
1.0000
  0
VERTEX
  8
114
 10
73.0375
 20
111.0000
 30
0.0000
  0
SEQEND
  8
0
  0
POLYLINE
  8
114
 66
1
 10
0.0000
 20
0.0000
 30
0.0000
 40
0.0750
 41
0.0750
 70
0
  0
VERTEX
  8
114
 10
73.0375
 20
124.5000
 30
0.0000
 42
1.0000
  0
VERTEX
  8
114
 10
72.9625
 20
124.5000
 30
0.0000
  0
SEQEND
  8
0
  0
POLYLINE
  8
114
 66
1
 10
0.0000
 20
0.0000
 30
0.0000
 40
0.1500
 41
0.1500
 70
0
  0
VERTEX
  8
114
 10
72.7500
 20
110.7500
 30
0.0000
 42
0.4142
  0
VERTEX
  8
114
 10
73.0000
 20
111.0000
 30
0.0000
  0
SEQEND
  8
0
  0
POLYLINE
  8
114
 66
1
 10
0.0000
 20
0.0000
 30
0.0000
 40
0.0750
 41
0.0750
 70
0
  0
VERTEX
  8
114
 10
72.7500
 20
110.7875
 30
0.0000
 42
1.0000
  0
VERTEX
  8
114
 10
72.7500
 20
110.7125
 30
0.0000
  0
SEQEND
  8
0
  0
POLYLINE
  8
114
 66
1
 10
0.0000
 20
0.0000
 30
0.0000
 40
0.0750
 41
0.0750
 70
0
  0
VERTEX
  8
114
 10
73.0375
 20
111.0000
 30
0.0000
 42
1.0000
  0
VERTEX
  8
114
 10
72.9625
 20
111.0000
 30
0.0000
  0
SEQEND
  8
0
  0
POLYLINE
  8
114
 66
1
 10
0.0000
 20
0.0000
 30
0.0000
 40
0.1500
 41
0.1500
 70
0
  0
VERTEX
  8
114
 10
91.7500
 20
106.0000
 30
0.0000
  0
VERTEX
  8
114
 10
78.2500
 20
106.0000
 30
0.0000
  0
SEQEND
  8
0
  0
POLYLINE
  8
114
 66
1
 10
0.0000
 20
0.0000
 30
0.0000
 40
0.0750
 41
0.0750
 70
0
  0
VERTEX
  8
114
 10
78.2500
 20
106.0375
 30
0.0000
 42
1.0000
  0
VERTEX
  8
114
 10
78.2500
 20
105.9625
 30
0.0000
  0
SEQEND
  8
0
  0
POLYLINE
  8
114
 66
1
 10
0.0000
 20
0.0000
 30
0.0000
 40
0.0750
 41
0.0750
 70
0
  0
VERTEX
  8
114
 10
91.7500
 20
105.9625
 30
0.0000
 42
1.0000
  0
VERTEX
  8
114
 10
91.7500
 20
106.0375
 30
0.0000
  0
SEQEND
  8
0
  0
POLYLINE
  8
114
 66
1
 10
0.0000
 20
0.0000
 30
0.0000
 40
0.1500
 41
0.1500
 70
0
  0
VERTEX
  8
114
 10
78.0000
 20
106.2500
 30
0.0000
 42
0.4142
  0
VERTEX
  8
114
 10
78.2500
 20
106.0000
 30
0.0000
  0
SEQEND
  8
0
  0
POLYLINE
  8
114
 66
1
 10
0.0000
 20
0.0000
 30
0.0000
 40
0.0750
 41
0.0750
 70
0
  0
VERTEX
  8
114
 10
78.0375
 20
106.2500
 30
0.0000
 42
1.0000
  0
VERTEX
  8
114
 10
77.9625
 20
106.2500
 30
0.0000
  0
SEQEND
  8
0
  0
POLYLINE
  8
114
 66
1
 10
0.0000
 20
0.0000
 30
0.0000
 40
0.0750
 41
0.0750
 70
0
  0
VERTEX
  8
114
 10
78.2500
 20
105.9625
 30
0.0000
 42
1.0000
  0
VERTEX
  8
114
 10
78.2500
 20
106.0375
 30
0.0000
  0
SEQEND
  8
0
  0
POLYLINE
  8
114
 66
1
 10
0.0000
 20
0.0000
 30
0.0000
 40
0.1500
 41
0.1500
 70
0
  0
VERTEX
  8
114
 10
78.0000
 20
106.2500
 30
0.0000
  0
VERTEX
  8
114
 10
78.0000
 20
119.7500
 30
0.0000
  0
SEQEND
  8
0
  0
POLYLINE
  8
114
 66
1
 10
0.0000
 20
0.0000
 30
0.0000
 40
0.0750
 41
0.0750
 70
0
  0
VERTEX
  8
114
 10
78.0375
 20
119.7500
 30
0.0000
 42
1.0000
  0
VERTEX
  8
114
 10
77.9625
 20
119.7500
 30
0.0000
  0
SEQEND
  8
0
  0
POLYLINE
  8
114
 66
1
 10
0.0000
 20
0.0000
 30
0.0000
 40
0.0750
 41
0.0750
 70
0
  0
VERTEX
  8
114
 10
77.9625
 20
106.2500
 30
0.0000
 42
1.0000
  0
VERTEX
  8
114
 10
78.0375
 20
106.2500
 30
0.0000
  0
SEQEND
  8
0
  0
POLYLINE
  8
114
 66
1
 10
0.0000
 20
0.0000
 30
0.0000
 40
0.1500
 41
0.1500
 70
0
  0
VERTEX
  8
114
 10
78.2500
 20
120.0000
 30
0.0000
 42
0.4142
  0
VERTEX
  8
114
 10
78.0000
 20
119.7500
 30
0.0000
  0
SEQEND
  8
0
  0
POLYLINE
  8
114
 66
1
 10
0.0000
 20
0.0000
 30
0.0000
 40
0.0750
 41
0.0750
 70
0
  0
VERTEX
  8
114
 10
78.2500
 20
119.9625
 30
0.0000
 42
1.0000
  0
VERTEX
  8
114
 10
78.2500
 20
120.0375
 30
0.0000
  0
SEQEND
  8
0
  0
POLYLINE
  8
114
 66
1
 10
0.0000
 20
0.0000
 30
0.0000
 40
0.0750
 41
0.0750
 70
0
  0
VERTEX
  8
114
 10
77.9625
 20
119.7500
 30
0.0000
 42
1.0000
  0
VERTEX
  8
114
 10
78.0375
 20
119.7500
 30
0.0000
  0
SEQEND
  8
0
  0
POLYLINE
  8
114
 66
1
 10
0.0000
 20
0.0000
 30
0.0000
 40
0.1500
 41
0.1500
 70
0
  0
VERTEX
  8
114
 10
78.2500
 20
120.0000
 30
0.0000
  0
VERTEX
  8
114
 10
91.7500
 20
120.0000
 30
0.0000
  0
SEQEND
  8
0
  0
POLYLINE
  8
114
 66
1
 10
0.0000
 20
0.0000
 30
0.0000
 40
0.0750
 41
0.0750
 70
0
  0
VERTEX
  8
114
 10
91.7500
 20
119.9625
 30
0.0000
 42
1.0000
  0
VERTEX
  8
114
 10
91.7500
 20
120.0375
 30
0.0000
  0
SEQEND
  8
0
  0
POLYLINE
  8
114
 66
1
 10
0.0000
 20
0.0000
 30
0.0000
 40
0.0750
 41
0.0750
 70
0
  0
VERTEX
  8
114
 10
78.2500
 20
120.0375
 30
0.0000
 42
1.0000
  0
VERTEX
  8
114
 10
78.2500
 20
119.9625
 30
0.0000
  0
SEQEND
  8
0
  0
POLYLINE
  8
114
 66
1
 10
0.0000
 20
0.0000
 30
0.0000
 40
0.1500
 41
0.1500
 70
0
  0
VERTEX
  8
114
 10
92.0000
 20
119.7500
 30
0.0000
 42
0.4142
  0
VERTEX
  8
114
 10
91.7500
 20
120.0000
 30
0.0000
  0
SEQEND
  8
0
  0
POLYLINE
  8
114
 66
1
 10
0.0000
 20
0.0000
 30
0.0000
 40
0.0750
 41
0.0750
 70
0
  0
VERTEX
  8
114
 10
91.9625
 20
119.7500
 30
0.0000
 42
1.0000
  0
VERTEX
  8
114
 10
92.0375
 20
119.7500
 30
0.0000
  0
SEQEND
  8
0
  0
POLYLINE
  8
114
 66
1
 10
0.0000
 20
0.0000
 30
0.0000
 40
0.0750
 41
0.0750
 70
0
  0
VERTEX
  8
114
 10
91.7500
 20
120.0375
 30
0.0000
 42
1.0000
  0
VERTEX
  8
114
 10
91.7500
 20
119.9625
 30
0.0000
  0
SEQEND
  8
0
  0
POLYLINE
  8
114
 66
1
 10
0.0000
 20
0.0000
 30
0.0000
 40
0.1500
 41
0.1500
 70
0
  0
VERTEX
  8
114
 10
92.0000
 20
119.7500
 30
0.0000
  0
VERTEX
  8
114
 10
92.0000
 20
106.2500
 30
0.0000
  0
SEQEND
  8
0
  0
POLYLINE
  8
114
 66
1
 10
0.0000
 20
0.0000
 30
0.0000
 40
0.0750
 41
0.0750
 70
0
  0
VERTEX
  8
114
 10
91.9625
 20
106.2500
 30
0.0000
 42
1.0000
  0
VERTEX
  8
114
 10
92.0375
 20
106.2500
 30
0.0000
  0
SEQEND
  8
0
  0
POLYLINE
  8
114
 66
1
 10
0.0000
 20
0.0000
 30
0.0000
 40
0.0750
 41
0.0750
 70
0
  0
VERTEX
  8
114
 10
92.0375
 20
119.7500
 30
0.0000
 42
1.0000
  0
VERTEX
  8
114
 10
91.9625
 20
119.7500
 30
0.0000
  0
SEQEND
  8
0
  0
POLYLINE
  8
114
 66
1
 10
0.0000
 20
0.0000
 30
0.0000
 40
0.1500
 41
0.1500
 70
0
  0
VERTEX
  8
114
 10
91.7500
 20
106.0000
 30
0.0000
 42
0.4142
  0
VERTEX
  8
114
 10
92.0000
 20
106.2500
 30
0.0000
  0
SEQEND
  8
0
  0
POLYLINE
  8
114
 66
1
 10
0.0000
 20
0.0000
 30
0.0000
 40
0.0750
 41
0.0750
 70
0
  0
VERTEX
  8
114
 10
91.7500
 20
106.0375
 30
0.0000
 42
1.0000
  0
VERTEX
  8
114
 10
91.7500
 20
105.9625
 30
0.0000
  0
SEQEND
  8
0
  0
POLYLINE
  8
114
 66
1
 10
0.0000
 20
0.0000
 30
0.0000
 40
0.0750
 41
0.0750
 70
0
  0
VERTEX
  8
114
 10
92.0375
 20
106.2500
 30
0.0000
 42
1.0000
  0
VERTEX
  8
114
 10
91.9625
 20
106.2500
 30
0.0000
  0
SEQEND
  8
0
  0
POLYLINE
  8
114
 66
1
 10
0.0000
 20
0.0000
 30
0.0000
 40
0.1500
 41
0.1500
 70
0
  0
VERTEX
  8
114
 10
15.7500
 20
87.0000
 30
0.0000
  0
VERTEX
  8
114
 10
2.2500
 20
87.0000
 30
0.0000
  0
SEQEND
  8
0
  0
POLYLINE
  8
114
 66
1
 10
0.0000
 20
0.0000
 30
0.0000
 40
0.0750
 41
0.0750
 70
0
  0
VERTEX
  8
114
 10
2.2500
 20
87.0375
 30
0.0000
 42
1.0000
  0
VERTEX
  8
114
 10
2.2500
 20
86.9625
 30
0.0000
  0
SEQEND
  8
0
  0
POLYLINE
  8
114
 66
1
 10
0.0000
 20
0.0000
 30
0.0000
 40
0.0750
 41
0.0750
 70
0
  0
VERTEX
  8
114
 10
15.7500
 20
86.9625
 30
0.0000
 42
1.0000
  0
VERTEX
  8
114
 10
15.7500
 20
87.0375
 30
0.0000
  0
SEQEND
  8
0
  0
POLYLINE
  8
114
 66
1
 10
0.0000
 20
0.0000
 30
0.0000
 40
0.1500
 41
0.1500
 70
0
  0
VERTEX
  8
114
 10
2.0000
 20
87.2500
 30
0.0000
 42
0.4142
  0
VERTEX
  8
114
 10
2.2500
 20
87.0000
 30
0.0000
  0
SEQEND
  8
0
  0
POLYLINE
  8
114
 66
1
 10
0.0000
 20
0.0000
 30
0.0000
 40
0.0750
 41
0.0750
 70
0
  0
VERTEX
  8
114
 10
2.0375
 20
87.2500
 30
0.0000
 42
1.0000
  0
VERTEX
  8
114
 10
1.9625
 20
87.2500
 30
0.0000
  0
SEQEND
  8
0
  0
POLYLINE
  8
114
 66
1
 10
0.0000
 20
0.0000
 30
0.0000
 40
0.0750
 41
0.0750
 70
0
  0
VERTEX
  8
114
 10
2.2500
 20
86.9625
 30
0.0000
 42
1.0000
  0
VERTEX
  8
114
 10
2.2500
 20
87.0375
 30
0.0000
  0
SEQEND
  8
0
  0
POLYLINE
  8
114
 66
1
 10
0.0000
 20
0.0000
 30
0.0000
 40
0.1500
 41
0.1500
 70
0
  0
VERTEX
  8
114
 10
2.0000
 20
87.2500
 30
0.0000
  0
VERTEX
  8
114
 10
2.0000
 20
100.7500
 30
0.0000
  0
SEQEND
  8
0
  0
POLYLINE
  8
114
 66
1
 10
0.0000
 20
0.0000
 30
0.0000
 40
0.0750
 41
0.0750
 70
0
  0
VERTEX
  8
114
 10
2.0375
 20
100.7500
 30
0.0000
 42
1.0000
  0
VERTEX
  8
114
 10
1.9625
 20
100.7500
 30
0.0000
  0
SEQEND
  8
0
  0
POLYLINE
  8
114
 66
1
 10
0.0000
 20
0.0000
 30
0.0000
 40
0.0750
 41
0.0750
 70
0
  0
VERTEX
  8
114
 10
1.9625
 20
87.2500
 30
0.0000
 42
1.0000
  0
VERTEX
  8
114
 10
2.0375
 20
87.2500
 30
0.0000
  0
SEQEND
  8
0
  0
POLYLINE
  8
114
 66
1
 10
0.0000
 20
0.0000
 30
0.0000
 40
0.1500
 41
0.1500
 70
0
  0
VERTEX
  8
114
 10
2.2500
 20
101.0000
 30
0.0000
 42
0.4142
  0
VERTEX
  8
114
 10
2.0000
 20
100.7500
 30
0.0000
  0
SEQEND
  8
0
  0
POLYLINE
  8
114
 66
1
 10
0.0000
 20
0.0000
 30
0.0000
 40
0.0750
 41
0.0750
 70
0
  0
VERTEX
  8
114
 10
2.2500
 20
100.9625
 30
0.0000
 42
1.0000
  0
VERTEX
  8
114
 10
2.2500
 20
101.0375
 30
0.0000
  0
SEQEND
  8
0
  0
POLYLINE
  8
114
 66
1
 10
0.0000
 20
0.0000
 30
0.0000
 40
0.0750
 41
0.0750
 70
0
  0
VERTEX
  8
114
 10
1.9625
 20
100.7500
 30
0.0000
 42
1.0000
  0
VERTEX
  8
114
 10
2.0375
 20
100.7500
 30
0.0000
  0
SEQEND
  8
0
  0
POLYLINE
  8
114
 66
1
 10
0.0000
 20
0.0000
 30
0.0000
 40
0.1500
 41
0.1500
 70
0
  0
VERTEX
  8
114
 10
2.2500
 20
101.0000
 30
0.0000
  0
VERTEX
  8
114
 10
15.7500
 20
101.0000
 30
0.0000
  0
SEQEND
  8
0
  0
POLYLINE
  8
114
 66
1
 10
0.0000
 20
0.0000
 30
0.0000
 40
0.0750
 41
0.0750
 70
0
  0
VERTEX
  8
114
 10
15.7500
 20
100.9625
 30
0.0000
 42
1.0000
  0
VERTEX
  8
114
 10
15.7500
 20
101.0375
 30
0.0000
  0
SEQEND
  8
0
  0
POLYLINE
  8
114
 66
1
 10
0.0000
 20
0.0000
 30
0.0000
 40
0.0750
 41
0.0750
 70
0
  0
VERTEX
  8
114
 10
2.2500
 20
101.0375
 30
0.0000
 42
1.0000
  0
VERTEX
  8
114
 10
2.2500
 20
100.9625
 30
0.0000
  0
SEQEND
  8
0
  0
POLYLINE
  8
114
 66
1
 10
0.0000
 20
0.0000
 30
0.0000
 40
0.1500
 41
0.1500
 70
0
  0
VERTEX
  8
114
 10
16.0000
 20
100.7500
 30
0.0000
 42
0.4142
  0
VERTEX
  8
114
 10
15.7500
 20
101.0000
 30
0.0000
  0
SEQEND
  8
0
  0
POLYLINE
  8
114
 66
1
 10
0.0000
 20
0.0000
 30
0.0000
 40
0.0750
 41
0.0750
 70
0
  0
VERTEX
  8
114
 10
15.9625
 20
100.7500
 30
0.0000
 42
1.0000
  0
VERTEX
  8
114
 10
16.0375
 20
100.7500
 30
0.0000
  0
SEQEND
  8
0
  0
POLYLINE
  8
114
 66
1
 10
0.0000
 20
0.0000
 30
0.0000
 40
0.0750
 41
0.0750
 70
0
  0
VERTEX
  8
114
 10
15.7500
 20
101.0375
 30
0.0000
 42
1.0000
  0
VERTEX
  8
114
 10
15.7500
 20
100.9625
 30
0.0000
  0
SEQEND
  8
0
  0
POLYLINE
  8
114
 66
1
 10
0.0000
 20
0.0000
 30
0.0000
 40
0.1500
 41
0.1500
 70
0
  0
VERTEX
  8
114
 10
16.0000
 20
100.7500
 30
0.0000
  0
VERTEX
  8
114
 10
16.0000
 20
87.2500
 30
0.0000
  0
SEQEND
  8
0
  0
POLYLINE
  8
114
 66
1
 10
0.0000
 20
0.0000
 30
0.0000
 40
0.0750
 41
0.0750
 70
0
  0
VERTEX
  8
114
 10
15.9625
 20
87.2500
 30
0.0000
 42
1.0000
  0
VERTEX
  8
114
 10
16.0375
 20
87.2500
 30
0.0000
  0
SEQEND
  8
0
  0
POLYLINE
  8
114
 66
1
 10
0.0000
 20
0.0000
 30
0.0000
 40
0.0750
 41
0.0750
 70
0
  0
VERTEX
  8
114
 10
16.0375
 20
100.7500
 30
0.0000
 42
1.0000
  0
VERTEX
  8
114
 10
15.9625
 20
100.7500
 30
0.0000
  0
SEQEND
  8
0
  0
POLYLINE
  8
114
 66
1
 10
0.0000
 20
0.0000
 30
0.0000
 40
0.1500
 41
0.1500
 70
0
  0
VERTEX
  8
114
 10
15.7500
 20
87.0000
 30
0.0000
 42
0.4142
  0
VERTEX
  8
114
 10
16.0000
 20
87.2500
 30
0.0000
  0
SEQEND
  8
0
  0
POLYLINE
  8
114
 66
1
 10
0.0000
 20
0.0000
 30
0.0000
 40
0.0750
 41
0.0750
 70
0
  0
VERTEX
  8
114
 10
15.7500
 20
87.0375
 30
0.0000
 42
1.0000
  0
VERTEX
  8
114
 10
15.7500
 20
86.9625
 30
0.0000
  0
SEQEND
  8
0
  0
POLYLINE
  8
114
 66
1
 10
0.0000
 20
0.0000
 30
0.0000
 40
0.0750
 41
0.0750
 70
0
  0
VERTEX
  8
114
 10
16.0375
 20
87.2500
 30
0.0000
 42
1.0000
  0
VERTEX
  8
114
 10
15.9625
 20
87.2500
 30
0.0000
  0
SEQEND
  8
0
  0
POLYLINE
  8
114
 66
1
 10
0.0000
 20
0.0000
 30
0.0000
 40
0.1500
 41
0.1500
 70
0
  0
VERTEX
  8
114
 10
34.7500
 20
91.7500
 30
0.0000
  0
VERTEX
  8
114
 10
21.2500
 20
91.7500
 30
0.0000
  0
SEQEND
  8
0
  0
POLYLINE
  8
114
 66
1
 10
0.0000
 20
0.0000
 30
0.0000
 40
0.0750
 41
0.0750
 70
0
  0
VERTEX
  8
114
 10
21.2500
 20
91.7875
 30
0.0000
 42
1.0000
  0
VERTEX
  8
114
 10
21.2500
 20
91.7125
 30
0.0000
  0
SEQEND
  8
0
  0
POLYLINE
  8
114
 66
1
 10
0.0000
 20
0.0000
 30
0.0000
 40
0.0750
 41
0.0750
 70
0
  0
VERTEX
  8
114
 10
34.7500
 20
91.7125
 30
0.0000
 42
1.0000
  0
VERTEX
  8
114
 10
34.7500
 20
91.7875
 30
0.0000
  0
SEQEND
  8
0
  0
POLYLINE
  8
114
 66
1
 10
0.0000
 20
0.0000
 30
0.0000
 40
0.1500
 41
0.1500
 70
0
  0
VERTEX
  8
114
 10
21.0000
 20
92.0000
 30
0.0000
 42
0.4142
  0
VERTEX
  8
114
 10
21.2500
 20
91.7500
 30
0.0000
  0
SEQEND
  8
0
  0
POLYLINE
  8
114
 66
1
 10
0.0000
 20
0.0000
 30
0.0000
 40
0.0750
 41
0.0750
 70
0
  0
VERTEX
  8
114
 10
21.0375
 20
92.0000
 30
0.0000
 42
1.0000
  0
VERTEX
  8
114
 10
20.9625
 20
92.0000
 30
0.0000
  0
SEQEND
  8
0
  0
POLYLINE
  8
114
 66
1
 10
0.0000
 20
0.0000
 30
0.0000
 40
0.0750
 41
0.0750
 70
0
  0
VERTEX
  8
114
 10
21.2500
 20
91.7125
 30
0.0000
 42
1.0000
  0
VERTEX
  8
114
 10
21.2500
 20
91.7875
 30
0.0000
  0
SEQEND
  8
0
  0
POLYLINE
  8
114
 66
1
 10
0.0000
 20
0.0000
 30
0.0000
 40
0.1500
 41
0.1500
 70
0
  0
VERTEX
  8
114
 10
21.0000
 20
92.0000
 30
0.0000
  0
VERTEX
  8
114
 10
21.0000
 20
105.5000
 30
0.0000
  0
SEQEND
  8
0
  0
POLYLINE
  8
114
 66
1
 10
0.0000
 20
0.0000
 30
0.0000
 40
0.0750
 41
0.0750
 70
0
  0
VERTEX
  8
114
 10
21.0375
 20
105.5000
 30
0.0000
 42
1.0000
  0
VERTEX
  8
114
 10
20.9625
 20
105.5000
 30
0.0000
  0
SEQEND
  8
0
  0
POLYLINE
  8
114
 66
1
 10
0.0000
 20
0.0000
 30
0.0000
 40
0.0750
 41
0.0750
 70
0
  0
VERTEX
  8
114
 10
20.9625
 20
92.0000
 30
0.0000
 42
1.0000
  0
VERTEX
  8
114
 10
21.0375
 20
92.0000
 30
0.0000
  0
SEQEND
  8
0
  0
POLYLINE
  8
114
 66
1
 10
0.0000
 20
0.0000
 30
0.0000
 40
0.1500
 41
0.1500
 70
0
  0
VERTEX
  8
114
 10
21.2500
 20
105.7500
 30
0.0000
 42
0.4142
  0
VERTEX
  8
114
 10
21.0000
 20
105.5000
 30
0.0000
  0
SEQEND
  8
0
  0
POLYLINE
  8
114
 66
1
 10
0.0000
 20
0.0000
 30
0.0000
 40
0.0750
 41
0.0750
 70
0
  0
VERTEX
  8
114
 10
21.2500
 20
105.7125
 30
0.0000
 42
1.0000
  0
VERTEX
  8
114
 10
21.2500
 20
105.7875
 30
0.0000
  0
SEQEND
  8
0
  0
POLYLINE
  8
114
 66
1
 10
0.0000
 20
0.0000
 30
0.0000
 40
0.0750
 41
0.0750
 70
0
  0
VERTEX
  8
114
 10
20.9625
 20
105.5000
 30
0.0000
 42
1.0000
  0
VERTEX
  8
114
 10
21.0375
 20
105.5000
 30
0.0000
  0
SEQEND
  8
0
  0
POLYLINE
  8
114
 66
1
 10
0.0000
 20
0.0000
 30
0.0000
 40
0.1500
 41
0.1500
 70
0
  0
VERTEX
  8
114
 10
21.2500
 20
105.7500
 30
0.0000
  0
VERTEX
  8
114
 10
34.7500
 20
105.7500
 30
0.0000
  0
SEQEND
  8
0
  0
POLYLINE
  8
114
 66
1
 10
0.0000
 20
0.0000
 30
0.0000
 40
0.0750
 41
0.0750
 70
0
  0
VERTEX
  8
114
 10
34.7500
 20
105.7125
 30
0.0000
 42
1.0000
  0
VERTEX
  8
114
 10
34.7500
 20
105.7875
 30
0.0000
  0
SEQEND
  8
0
  0
POLYLINE
  8
114
 66
1
 10
0.0000
 20
0.0000
 30
0.0000
 40
0.0750
 41
0.0750
 70
0
  0
VERTEX
  8
114
 10
21.2500
 20
105.7875
 30
0.0000
 42
1.0000
  0
VERTEX
  8
114
 10
21.2500
 20
105.7125
 30
0.0000
  0
SEQEND
  8
0
  0
POLYLINE
  8
114
 66
1
 10
0.0000
 20
0.0000
 30
0.0000
 40
0.1500
 41
0.1500
 70
0
  0
VERTEX
  8
114
 10
35.0000
 20
105.5000
 30
0.0000
 42
0.4142
  0
VERTEX
  8
114
 10
34.7500
 20
105.7500
 30
0.0000
  0
SEQEND
  8
0
  0
POLYLINE
  8
114
 66
1
 10
0.0000
 20
0.0000
 30
0.0000
 40
0.0750
 41
0.0750
 70
0
  0
VERTEX
  8
114
 10
34.9625
 20
105.5000
 30
0.0000
 42
1.0000
  0
VERTEX
  8
114
 10
35.0375
 20
105.5000
 30
0.0000
  0
SEQEND
  8
0
  0
POLYLINE
  8
114
 66
1
 10
0.0000
 20
0.0000
 30
0.0000
 40
0.0750
 41
0.0750
 70
0
  0
VERTEX
  8
114
 10
34.7500
 20
105.7875
 30
0.0000
 42
1.0000
  0
VERTEX
  8
114
 10
34.7500
 20
105.7125
 30
0.0000
  0
SEQEND
  8
0
  0
POLYLINE
  8
114
 66
1
 10
0.0000
 20
0.0000
 30
0.0000
 40
0.1500
 41
0.1500
 70
0
  0
VERTEX
  8
114
 10
35.0000
 20
105.5000
 30
0.0000
  0
VERTEX
  8
114
 10
35.0000
 20
92.0000
 30
0.0000
  0
SEQEND
  8
0
  0
POLYLINE
  8
114
 66
1
 10
0.0000
 20
0.0000
 30
0.0000
 40
0.0750
 41
0.0750
 70
0
  0
VERTEX
  8
114
 10
34.9625
 20
92.0000
 30
0.0000
 42
1.0000
  0
VERTEX
  8
114
 10
35.0375
 20
92.0000
 30
0.0000
  0
SEQEND
  8
0
  0
POLYLINE
  8
114
 66
1
 10
0.0000
 20
0.0000
 30
0.0000
 40
0.0750
 41
0.0750
 70
0
  0
VERTEX
  8
114
 10
35.0375
 20
105.5000
 30
0.0000
 42
1.0000
  0
VERTEX
  8
114
 10
34.9625
 20
105.5000
 30
0.0000
  0
SEQEND
  8
0
  0
POLYLINE
  8
114
 66
1
 10
0.0000
 20
0.0000
 30
0.0000
 40
0.1500
 41
0.1500
 70
0
  0
VERTEX
  8
114
 10
34.7500
 20
91.7500
 30
0.0000
 42
0.4142
  0
VERTEX
  8
114
 10
35.0000
 20
92.0000
 30
0.0000
  0
SEQEND
  8
0
  0
POLYLINE
  8
114
 66
1
 10
0.0000
 20
0.0000
 30
0.0000
 40
0.0750
 41
0.0750
 70
0
  0
VERTEX
  8
114
 10
34.7500
 20
91.7875
 30
0.0000
 42
1.0000
  0
VERTEX
  8
114
 10
34.7500
 20
91.7125
 30
0.0000
  0
SEQEND
  8
0
  0
POLYLINE
  8
114
 66
1
 10
0.0000
 20
0.0000
 30
0.0000
 40
0.0750
 41
0.0750
 70
0
  0
VERTEX
  8
114
 10
35.0375
 20
92.0000
 30
0.0000
 42
1.0000
  0
VERTEX
  8
114
 10
34.9625
 20
92.0000
 30
0.0000
  0
SEQEND
  8
0
  0
POLYLINE
  8
114
 66
1
 10
0.0000
 20
0.0000
 30
0.0000
 40
0.1500
 41
0.1500
 70
0
  0
VERTEX
  8
114
 10
53.7500
 20
96.5000
 30
0.0000
  0
VERTEX
  8
114
 10
40.2500
 20
96.5000
 30
0.0000
  0
SEQEND
  8
0
  0
POLYLINE
  8
114
 66
1
 10
0.0000
 20
0.0000
 30
0.0000
 40
0.0750
 41
0.0750
 70
0
  0
VERTEX
  8
114
 10
40.2500
 20
96.5375
 30
0.0000
 42
1.0000
  0
VERTEX
  8
114
 10
40.2500
 20
96.4625
 30
0.0000
  0
SEQEND
  8
0
  0
POLYLINE
  8
114
 66
1
 10
0.0000
 20
0.0000
 30
0.0000
 40
0.0750
 41
0.0750
 70
0
  0
VERTEX
  8
114
 10
53.7500
 20
96.4625
 30
0.0000
 42
1.0000
  0
VERTEX
  8
114
 10
53.7500
 20
96.5375
 30
0.0000
  0
SEQEND
  8
0
  0
POLYLINE
  8
114
 66
1
 10
0.0000
 20
0.0000
 30
0.0000
 40
0.1500
 41
0.1500
 70
0
  0
VERTEX
  8
114
 10
40.0000
 20
96.7500
 30
0.0000
 42
0.4142
  0
VERTEX
  8
114
 10
40.2500
 20
96.5000
 30
0.0000
  0
SEQEND
  8
0
  0
POLYLINE
  8
114
 66
1
 10
0.0000
 20
0.0000
 30
0.0000
 40
0.0750
 41
0.0750
 70
0
  0
VERTEX
  8
114
 10
40.0375
 20
96.7500
 30
0.0000
 42
1.0000
  0
VERTEX
  8
114
 10
39.9625
 20
96.7500
 30
0.0000
  0
SEQEND
  8
0
  0
POLYLINE
  8
114
 66
1
 10
0.0000
 20
0.0000
 30
0.0000
 40
0.0750
 41
0.0750
 70
0
  0
VERTEX
  8
114
 10
40.2500
 20
96.4625
 30
0.0000
 42
1.0000
  0
VERTEX
  8
114
 10
40.2500
 20
96.5375
 30
0.0000
  0
SEQEND
  8
0
  0
POLYLINE
  8
114
 66
1
 10
0.0000
 20
0.0000
 30
0.0000
 40
0.1500
 41
0.1500
 70
0
  0
VERTEX
  8
114
 10
40.0000
 20
96.7500
 30
0.0000
  0
VERTEX
  8
114
 10
40.0000
 20
110.2500
 30
0.0000
  0
SEQEND
  8
0
  0
POLYLINE
  8
114
 66
1
 10
0.0000
 20
0.0000
 30
0.0000
 40
0.0750
 41
0.0750
 70
0
  0
VERTEX
  8
114
 10
40.0375
 20
110.2500
 30
0.0000
 42
1.0000
  0
VERTEX
  8
114
 10
39.9625
 20
110.2500
 30
0.0000
  0
SEQEND
  8
0
  0
POLYLINE
  8
114
 66
1
 10
0.0000
 20
0.0000
 30
0.0000
 40
0.0750
 41
0.0750
 70
0
  0
VERTEX
  8
114
 10
39.9625
 20
96.7500
 30
0.0000
 42
1.0000
  0
VERTEX
  8
114
 10
40.0375
 20
96.7500
 30
0.0000
  0
SEQEND
  8
0
  0
POLYLINE
  8
114
 66
1
 10
0.0000
 20
0.0000
 30
0.0000
 40
0.1500
 41
0.1500
 70
0
  0
VERTEX
  8
114
 10
40.2500
 20
110.5000
 30
0.0000
 42
0.4142
  0
VERTEX
  8
114
 10
40.0000
 20
110.2500
 30
0.0000
  0
SEQEND
  8
0
  0
POLYLINE
  8
114
 66
1
 10
0.0000
 20
0.0000
 30
0.0000
 40
0.0750
 41
0.0750
 70
0
  0
VERTEX
  8
114
 10
40.2500
 20
110.4625
 30
0.0000
 42
1.0000
  0
VERTEX
  8
114
 10
40.2500
 20
110.5375
 30
0.0000
  0
SEQEND
  8
0
  0
POLYLINE
  8
114
 66
1
 10
0.0000
 20
0.0000
 30
0.0000
 40
0.0750
 41
0.0750
 70
0
  0
VERTEX
  8
114
 10
39.9625
 20
110.2500
 30
0.0000
 42
1.0000
  0
VERTEX
  8
114
 10
40.0375
 20
110.2500
 30
0.0000
  0
SEQEND
  8
0
  0
POLYLINE
  8
114
 66
1
 10
0.0000
 20
0.0000
 30
0.0000
 40
0.1500
 41
0.1500
 70
0
  0
VERTEX
  8
114
 10
40.2500
 20
110.5000
 30
0.0000
  0
VERTEX
  8
114
 10
53.7500
 20
110.5000
 30
0.0000
  0
SEQEND
  8
0
  0
POLYLINE
  8
114
 66
1
 10
0.0000
 20
0.0000
 30
0.0000
 40
0.0750
 41
0.0750
 70
0
  0
VERTEX
  8
114
 10
53.7500
 20
110.4625
 30
0.0000
 42
1.0000
  0
VERTEX
  8
114
 10
53.7500
 20
110.5375
 30
0.0000
  0
SEQEND
  8
0
  0
POLYLINE
  8
114
 66
1
 10
0.0000
 20
0.0000
 30
0.0000
 40
0.0750
 41
0.0750
 70
0
  0
VERTEX
  8
114
 10
40.2500
 20
110.5375
 30
0.0000
 42
1.0000
  0
VERTEX
  8
114
 10
40.2500
 20
110.4625
 30
0.0000
  0
SEQEND
  8
0
  0
POLYLINE
  8
114
 66
1
 10
0.0000
 20
0.0000
 30
0.0000
 40
0.1500
 41
0.1500
 70
0
  0
VERTEX
  8
114
 10
54.0000
 20
110.2500
 30
0.0000
 42
0.4142
  0
VERTEX
  8
114
 10
53.7500
 20
110.5000
 30
0.0000
  0
SEQEND
  8
0
  0
POLYLINE
  8
114
 66
1
 10
0.0000
 20
0.0000
 30
0.0000
 40
0.0750
 41
0.0750
 70
0
  0
VERTEX
  8
114
 10
53.9625
 20
110.2500
 30
0.0000
 42
1.0000
  0
VERTEX
  8
114
 10
54.0375
 20
110.2500
 30
0.0000
  0
SEQEND
  8
0
  0
POLYLINE
  8
114
 66
1
 10
0.0000
 20
0.0000
 30
0.0000
 40
0.0750
 41
0.0750
 70
0
  0
VERTEX
  8
114
 10
53.7500
 20
110.5375
 30
0.0000
 42
1.0000
  0
VERTEX
  8
114
 10
53.7500
 20
110.4625
 30
0.0000
  0
SEQEND
  8
0
  0
POLYLINE
  8
114
 66
1
 10
0.0000
 20
0.0000
 30
0.0000
 40
0.1500
 41
0.1500
 70
0
  0
VERTEX
  8
114
 10
54.0000
 20
110.2500
 30
0.0000
  0
VERTEX
  8
114
 10
54.0000
 20
96.7500
 30
0.0000
  0
SEQEND
  8
0
  0
POLYLINE
  8
114
 66
1
 10
0.0000
 20
0.0000
 30
0.0000
 40
0.0750
 41
0.0750
 70
0
  0
VERTEX
  8
114
 10
53.9625
 20
96.7500
 30
0.0000
 42
1.0000
  0
VERTEX
  8
114
 10
54.0375
 20
96.7500
 30
0.0000
  0
SEQEND
  8
0
  0
POLYLINE
  8
114
 66
1
 10
0.0000
 20
0.0000
 30
0.0000
 40
0.0750
 41
0.0750
 70
0
  0
VERTEX
  8
114
 10
54.0375
 20
110.2500
 30
0.0000
 42
1.0000
  0
VERTEX
  8
114
 10
53.9625
 20
110.2500
 30
0.0000
  0
SEQEND
  8
0
  0
POLYLINE
  8
114
 66
1
 10
0.0000
 20
0.0000
 30
0.0000
 40
0.1500
 41
0.1500
 70
0
  0
VERTEX
  8
114
 10
53.7500
 20
96.5000
 30
0.0000
 42
0.4142
  0
VERTEX
  8
114
 10
54.0000
 20
96.7500
 30
0.0000
  0
SEQEND
  8
0
  0
POLYLINE
  8
114
 66
1
 10
0.0000
 20
0.0000
 30
0.0000
 40
0.0750
 41
0.0750
 70
0
  0
VERTEX
  8
114
 10
53.7500
 20
96.5375
 30
0.0000
 42
1.0000
  0
VERTEX
  8
114
 10
53.7500
 20
96.4625
 30
0.0000
  0
SEQEND
  8
0
  0
POLYLINE
  8
114
 66
1
 10
0.0000
 20
0.0000
 30
0.0000
 40
0.0750
 41
0.0750
 70
0
  0
VERTEX
  8
114
 10
54.0375
 20
96.7500
 30
0.0000
 42
1.0000
  0
VERTEX
  8
114
 10
53.9625
 20
96.7500
 30
0.0000
  0
SEQEND
  8
0
  0
POLYLINE
  8
114
 66
1
 10
0.0000
 20
0.0000
 30
0.0000
 40
0.1500
 41
0.1500
 70
0
  0
VERTEX
  8
114
 10
72.7500
 20
91.7500
 30
0.0000
  0
VERTEX
  8
114
 10
59.2500
 20
91.7500
 30
0.0000
  0
SEQEND
  8
0
  0
POLYLINE
  8
114
 66
1
 10
0.0000
 20
0.0000
 30
0.0000
 40
0.0750
 41
0.0750
 70
0
  0
VERTEX
  8
114
 10
59.2500
 20
91.7875
 30
0.0000
 42
1.0000
  0
VERTEX
  8
114
 10
59.2500
 20
91.7125
 30
0.0000
  0
SEQEND
  8
0
  0
POLYLINE
  8
114
 66
1
 10
0.0000
 20
0.0000
 30
0.0000
 40
0.0750
 41
0.0750
 70
0
  0
VERTEX
  8
114
 10
72.7500
 20
91.7125
 30
0.0000
 42
1.0000
  0
VERTEX
  8
114
 10
72.7500
 20
91.7875
 30
0.0000
  0
SEQEND
  8
0
  0
POLYLINE
  8
114
 66
1
 10
0.0000
 20
0.0000
 30
0.0000
 40
0.1500
 41
0.1500
 70
0
  0
VERTEX
  8
114
 10
59.0000
 20
92.0000
 30
0.0000
 42
0.4142
  0
VERTEX
  8
114
 10
59.2500
 20
91.7500
 30
0.0000
  0
SEQEND
  8
0
  0
POLYLINE
  8
114
 66
1
 10
0.0000
 20
0.0000
 30
0.0000
 40
0.0750
 41
0.0750
 70
0
  0
VERTEX
  8
114
 10
59.0375
 20
92.0000
 30
0.0000
 42
1.0000
  0
VERTEX
  8
114
 10
58.9625
 20
92.0000
 30
0.0000
  0
SEQEND
  8
0
  0
POLYLINE
  8
114
 66
1
 10
0.0000
 20
0.0000
 30
0.0000
 40
0.0750
 41
0.0750
 70
0
  0
VERTEX
  8
114
 10
59.2500
 20
91.7125
 30
0.0000
 42
1.0000
  0
VERTEX
  8
114
 10
59.2500
 20
91.7875
 30
0.0000
  0
SEQEND
  8
0
  0
POLYLINE
  8
114
 66
1
 10
0.0000
 20
0.0000
 30
0.0000
 40
0.1500
 41
0.1500
 70
0
  0
VERTEX
  8
114
 10
59.0000
 20
92.0000
 30
0.0000
  0
VERTEX
  8
114
 10
59.0000
 20
105.5000
 30
0.0000
  0
SEQEND
  8
0
  0
POLYLINE
  8
114
 66
1
 10
0.0000
 20
0.0000
 30
0.0000
 40
0.0750
 41
0.0750
 70
0
  0
VERTEX
  8
114
 10
59.0375
 20
105.5000
 30
0.0000
 42
1.0000
  0
VERTEX
  8
114
 10
58.9625
 20
105.5000
 30
0.0000
  0
SEQEND
  8
0
  0
POLYLINE
  8
114
 66
1
 10
0.0000
 20
0.0000
 30
0.0000
 40
0.0750
 41
0.0750
 70
0
  0
VERTEX
  8
114
 10
58.9625
 20
92.0000
 30
0.0000
 42
1.0000
  0
VERTEX
  8
114
 10
59.0375
 20
92.0000
 30
0.0000
  0
SEQEND
  8
0
  0
POLYLINE
  8
114
 66
1
 10
0.0000
 20
0.0000
 30
0.0000
 40
0.1500
 41
0.1500
 70
0
  0
VERTEX
  8
114
 10
59.2500
 20
105.7500
 30
0.0000
 42
0.4142
  0
VERTEX
  8
114
 10
59.0000
 20
105.5000
 30
0.0000
  0
SEQEND
  8
0
  0
POLYLINE
  8
114
 66
1
 10
0.0000
 20
0.0000
 30
0.0000
 40
0.0750
 41
0.0750
 70
0
  0
VERTEX
  8
114
 10
59.2500
 20
105.7125
 30
0.0000
 42
1.0000
  0
VERTEX
  8
114
 10
59.2500
 20
105.7875
 30
0.0000
  0
SEQEND
  8
0
  0
POLYLINE
  8
114
 66
1
 10
0.0000
 20
0.0000
 30
0.0000
 40
0.0750
 41
0.0750
 70
0
  0
VERTEX
  8
114
 10
58.9625
 20
105.5000
 30
0.0000
 42
1.0000
  0
VERTEX
  8
114
 10
59.0375
 20
105.5000
 30
0.0000
  0
SEQEND
  8
0
  0
POLYLINE
  8
114
 66
1
 10
0.0000
 20
0.0000
 30
0.0000
 40
0.1500
 41
0.1500
 70
0
  0
VERTEX
  8
114
 10
59.2500
 20
105.7500
 30
0.0000
  0
VERTEX
  8
114
 10
72.7500
 20
105.7500
 30
0.0000
  0
SEQEND
  8
0
  0
POLYLINE
  8
114
 66
1
 10
0.0000
 20
0.0000
 30
0.0000
 40
0.0750
 41
0.0750
 70
0
  0
VERTEX
  8
114
 10
72.7500
 20
105.7125
 30
0.0000
 42
1.0000
  0
VERTEX
  8
114
 10
72.7500
 20
105.7875
 30
0.0000
  0
SEQEND
  8
0
  0
POLYLINE
  8
114
 66
1
 10
0.0000
 20
0.0000
 30
0.0000
 40
0.0750
 41
0.0750
 70
0
  0
VERTEX
  8
114
 10
59.2500
 20
105.7875
 30
0.0000
 42
1.0000
  0
VERTEX
  8
114
 10
59.2500
 20
105.7125
 30
0.0000
  0
SEQEND
  8
0
  0
POLYLINE
  8
114
 66
1
 10
0.0000
 20
0.0000
 30
0.0000
 40
0.1500
 41
0.1500
 70
0
  0
VERTEX
  8
114
 10
73.0000
 20
105.5000
 30
0.0000
 42
0.4142
  0
VERTEX
  8
114
 10
72.7500
 20
105.7500
 30
0.0000
  0
SEQEND
  8
0
  0
POLYLINE
  8
114
 66
1
 10
0.0000
 20
0.0000
 30
0.0000
 40
0.0750
 41
0.0750
 70
0
  0
VERTEX
  8
114
 10
72.9625
 20
105.5000
 30
0.0000
 42
1.0000
  0
VERTEX
  8
114
 10
73.0375
 20
105.5000
 30
0.0000
  0
SEQEND
  8
0
  0
POLYLINE
  8
114
 66
1
 10
0.0000
 20
0.0000
 30
0.0000
 40
0.0750
 41
0.0750
 70
0
  0
VERTEX
  8
114
 10
72.7500
 20
105.7875
 30
0.0000
 42
1.0000
  0
VERTEX
  8
114
 10
72.7500
 20
105.7125
 30
0.0000
  0
SEQEND
  8
0
  0
POLYLINE
  8
114
 66
1
 10
0.0000
 20
0.0000
 30
0.0000
 40
0.1500
 41
0.1500
 70
0
  0
VERTEX
  8
114
 10
73.0000
 20
105.5000
 30
0.0000
  0
VERTEX
  8
114
 10
73.0000
 20
92.0000
 30
0.0000
  0
SEQEND
  8
0
  0
POLYLINE
  8
114
 66
1
 10
0.0000
 20
0.0000
 30
0.0000
 40
0.0750
 41
0.0750
 70
0
  0
VERTEX
  8
114
 10
72.9625
 20
92.0000
 30
0.0000
 42
1.0000
  0
VERTEX
  8
114
 10
73.0375
 20
92.0000
 30
0.0000
  0
SEQEND
  8
0
  0
POLYLINE
  8
114
 66
1
 10
0.0000
 20
0.0000
 30
0.0000
 40
0.0750
 41
0.0750
 70
0
  0
VERTEX
  8
114
 10
73.0375
 20
105.5000
 30
0.0000
 42
1.0000
  0
VERTEX
  8
114
 10
72.9625
 20
105.5000
 30
0.0000
  0
SEQEND
  8
0
  0
POLYLINE
  8
114
 66
1
 10
0.0000
 20
0.0000
 30
0.0000
 40
0.1500
 41
0.1500
 70
0
  0
VERTEX
  8
114
 10
72.7500
 20
91.7500
 30
0.0000
 42
0.4142
  0
VERTEX
  8
114
 10
73.0000
 20
92.0000
 30
0.0000
  0
SEQEND
  8
0
  0
POLYLINE
  8
114
 66
1
 10
0.0000
 20
0.0000
 30
0.0000
 40
0.0750
 41
0.0750
 70
0
  0
VERTEX
  8
114
 10
72.7500
 20
91.7875
 30
0.0000
 42
1.0000
  0
VERTEX
  8
114
 10
72.7500
 20
91.7125
 30
0.0000
  0
SEQEND
  8
0
  0
POLYLINE
  8
114
 66
1
 10
0.0000
 20
0.0000
 30
0.0000
 40
0.0750
 41
0.0750
 70
0
  0
VERTEX
  8
114
 10
73.0375
 20
92.0000
 30
0.0000
 42
1.0000
  0
VERTEX
  8
114
 10
72.9625
 20
92.0000
 30
0.0000
  0
SEQEND
  8
0
  0
POLYLINE
  8
114
 66
1
 10
0.0000
 20
0.0000
 30
0.0000
 40
0.1500
 41
0.1500
 70
0
  0
VERTEX
  8
114
 10
91.7500
 20
87.0000
 30
0.0000
  0
VERTEX
  8
114
 10
78.2500
 20
87.0000
 30
0.0000
  0
SEQEND
  8
0
  0
POLYLINE
  8
114
 66
1
 10
0.0000
 20
0.0000
 30
0.0000
 40
0.0750
 41
0.0750
 70
0
  0
VERTEX
  8
114
 10
78.2500
 20
87.0375
 30
0.0000
 42
1.0000
  0
VERTEX
  8
114
 10
78.2500
 20
86.9625
 30
0.0000
  0
SEQEND
  8
0
  0
POLYLINE
  8
114
 66
1
 10
0.0000
 20
0.0000
 30
0.0000
 40
0.0750
 41
0.0750
 70
0
  0
VERTEX
  8
114
 10
91.7500
 20
86.9625
 30
0.0000
 42
1.0000
  0
VERTEX
  8
114
 10
91.7500
 20
87.0375
 30
0.0000
  0
SEQEND
  8
0
  0
POLYLINE
  8
114
 66
1
 10
0.0000
 20
0.0000
 30
0.0000
 40
0.1500
 41
0.1500
 70
0
  0
VERTEX
  8
114
 10
78.0000
 20
87.2500
 30
0.0000
 42
0.4142
  0
VERTEX
  8
114
 10
78.2500
 20
87.0000
 30
0.0000
  0
SEQEND
  8
0
  0
POLYLINE
  8
114
 66
1
 10
0.0000
 20
0.0000
 30
0.0000
 40
0.0750
 41
0.0750
 70
0
  0
VERTEX
  8
114
 10
78.0375
 20
87.2500
 30
0.0000
 42
1.0000
  0
VERTEX
  8
114
 10
77.9625
 20
87.2500
 30
0.0000
  0
SEQEND
  8
0
  0
POLYLINE
  8
114
 66
1
 10
0.0000
 20
0.0000
 30
0.0000
 40
0.0750
 41
0.0750
 70
0
  0
VERTEX
  8
114
 10
78.2500
 20
86.9625
 30
0.0000
 42
1.0000
  0
VERTEX
  8
114
 10
78.2500
 20
87.0375
 30
0.0000
  0
SEQEND
  8
0
  0
POLYLINE
  8
114
 66
1
 10
0.0000
 20
0.0000
 30
0.0000
 40
0.1500
 41
0.1500
 70
0
  0
VERTEX
  8
114
 10
78.0000
 20
87.2500
 30
0.0000
  0
VERTEX
  8
114
 10
78.0000
 20
100.7500
 30
0.0000
  0
SEQEND
  8
0
  0
POLYLINE
  8
114
 66
1
 10
0.0000
 20
0.0000
 30
0.0000
 40
0.0750
 41
0.0750
 70
0
  0
VERTEX
  8
114
 10
78.0375
 20
100.7500
 30
0.0000
 42
1.0000
  0
VERTEX
  8
114
 10
77.9625
 20
100.7500
 30
0.0000
  0
SEQEND
  8
0
  0
POLYLINE
  8
114
 66
1
 10
0.0000
 20
0.0000
 30
0.0000
 40
0.0750
 41
0.0750
 70
0
  0
VERTEX
  8
114
 10
77.9625
 20
87.2500
 30
0.0000
 42
1.0000
  0
VERTEX
  8
114
 10
78.0375
 20
87.2500
 30
0.0000
  0
SEQEND
  8
0
  0
POLYLINE
  8
114
 66
1
 10
0.0000
 20
0.0000
 30
0.0000
 40
0.1500
 41
0.1500
 70
0
  0
VERTEX
  8
114
 10
78.2500
 20
101.0000
 30
0.0000
 42
0.4142
  0
VERTEX
  8
114
 10
78.0000
 20
100.7500
 30
0.0000
  0
SEQEND
  8
0
  0
POLYLINE
  8
114
 66
1
 10
0.0000
 20
0.0000
 30
0.0000
 40
0.0750
 41
0.0750
 70
0
  0
VERTEX
  8
114
 10
78.2500
 20
100.9625
 30
0.0000
 42
1.0000
  0
VERTEX
  8
114
 10
78.2500
 20
101.0375
 30
0.0000
  0
SEQEND
  8
0
  0
POLYLINE
  8
114
 66
1
 10
0.0000
 20
0.0000
 30
0.0000
 40
0.0750
 41
0.0750
 70
0
  0
VERTEX
  8
114
 10
77.9625
 20
100.7500
 30
0.0000
 42
1.0000
  0
VERTEX
  8
114
 10
78.0375
 20
100.7500
 30
0.0000
  0
SEQEND
  8
0
  0
POLYLINE
  8
114
 66
1
 10
0.0000
 20
0.0000
 30
0.0000
 40
0.1500
 41
0.1500
 70
0
  0
VERTEX
  8
114
 10
78.2500
 20
101.0000
 30
0.0000
  0
VERTEX
  8
114
 10
91.7500
 20
101.0000
 30
0.0000
  0
SEQEND
  8
0
  0
POLYLINE
  8
114
 66
1
 10
0.0000
 20
0.0000
 30
0.0000
 40
0.0750
 41
0.0750
 70
0
  0
VERTEX
  8
114
 10
91.7500
 20
100.9625
 30
0.0000
 42
1.0000
  0
VERTEX
  8
114
 10
91.7500
 20
101.0375
 30
0.0000
  0
SEQEND
  8
0
  0
POLYLINE
  8
114
 66
1
 10
0.0000
 20
0.0000
 30
0.0000
 40
0.0750
 41
0.0750
 70
0
  0
VERTEX
  8
114
 10
78.2500
 20
101.0375
 30
0.0000
 42
1.0000
  0
VERTEX
  8
114
 10
78.2500
 20
100.9625
 30
0.0000
  0
SEQEND
  8
0
  0
POLYLINE
  8
114
 66
1
 10
0.0000
 20
0.0000
 30
0.0000
 40
0.1500
 41
0.1500
 70
0
  0
VERTEX
  8
114
 10
92.0000
 20
100.7500
 30
0.0000
 42
0.4142
  0
VERTEX
  8
114
 10
91.7500
 20
101.0000
 30
0.0000
  0
SEQEND
  8
0
  0
POLYLINE
  8
114
 66
1
 10
0.0000
 20
0.0000
 30
0.0000
 40
0.0750
 41
0.0750
 70
0
  0
VERTEX
  8
114
 10
91.9625
 20
100.7500
 30
0.0000
 42
1.0000
  0
VERTEX
  8
114
 10
92.0375
 20
100.7500
 30
0.0000
  0
SEQEND
  8
0
  0
POLYLINE
  8
114
 66
1
 10
0.0000
 20
0.0000
 30
0.0000
 40
0.0750
 41
0.0750
 70
0
  0
VERTEX
  8
114
 10
91.7500
 20
101.0375
 30
0.0000
 42
1.0000
  0
VERTEX
  8
114
 10
91.7500
 20
100.9625
 30
0.0000
  0
SEQEND
  8
0
  0
POLYLINE
  8
114
 66
1
 10
0.0000
 20
0.0000
 30
0.0000
 40
0.1500
 41
0.1500
 70
0
  0
VERTEX
  8
114
 10
92.0000
 20
100.7500
 30
0.0000
  0
VERTEX
  8
114
 10
92.0000
 20
87.2500
 30
0.0000
  0
SEQEND
  8
0
  0
POLYLINE
  8
114
 66
1
 10
0.0000
 20
0.0000
 30
0.0000
 40
0.0750
 41
0.0750
 70
0
  0
VERTEX
  8
114
 10
91.9625
 20
87.2500
 30
0.0000
 42
1.0000
  0
VERTEX
  8
114
 10
92.0375
 20
87.2500
 30
0.0000
  0
SEQEND
  8
0
  0
POLYLINE
  8
114
 66
1
 10
0.0000
 20
0.0000
 30
0.0000
 40
0.0750
 41
0.0750
 70
0
  0
VERTEX
  8
114
 10
92.0375
 20
100.7500
 30
0.0000
 42
1.0000
  0
VERTEX
  8
114
 10
91.9625
 20
100.7500
 30
0.0000
  0
SEQEND
  8
0
  0
POLYLINE
  8
114
 66
1
 10
0.0000
 20
0.0000
 30
0.0000
 40
0.1500
 41
0.1500
 70
0
  0
VERTEX
  8
114
 10
91.7500
 20
87.0000
 30
0.0000
 42
0.4142
  0
VERTEX
  8
114
 10
92.0000
 20
87.2500
 30
0.0000
  0
SEQEND
  8
0
  0
POLYLINE
  8
114
 66
1
 10
0.0000
 20
0.0000
 30
0.0000
 40
0.0750
 41
0.0750
 70
0
  0
VERTEX
  8
114
 10
91.7500
 20
87.0375
 30
0.0000
 42
1.0000
  0
VERTEX
  8
114
 10
91.7500
 20
86.9625
 30
0.0000
  0
SEQEND
  8
0
  0
POLYLINE
  8
114
 66
1
 10
0.0000
 20
0.0000
 30
0.0000
 40
0.0750
 41
0.0750
 70
0
  0
VERTEX
  8
114
 10
92.0375
 20
87.2500
 30
0.0000
 42
1.0000
  0
VERTEX
  8
114
 10
91.9625
 20
87.2500
 30
0.0000
  0
SEQEND
  8
0
  0
POLYLINE
  8
114
 66
1
 10
0.0000
 20
0.0000
 30
0.0000
 40
0.1500
 41
0.1500
 70
0
  0
VERTEX
  8
114
 10
15.7500
 20
68.0000
 30
0.0000
  0
VERTEX
  8
114
 10
2.2500
 20
68.0000
 30
0.0000
  0
SEQEND
  8
0
  0
POLYLINE
  8
114
 66
1
 10
0.0000
 20
0.0000
 30
0.0000
 40
0.0750
 41
0.0750
 70
0
  0
VERTEX
  8
114
 10
2.2500
 20
68.0375
 30
0.0000
 42
1.0000
  0
VERTEX
  8
114
 10
2.2500
 20
67.9625
 30
0.0000
  0
SEQEND
  8
0
  0
POLYLINE
  8
114
 66
1
 10
0.0000
 20
0.0000
 30
0.0000
 40
0.0750
 41
0.0750
 70
0
  0
VERTEX
  8
114
 10
15.7500
 20
67.9625
 30
0.0000
 42
1.0000
  0
VERTEX
  8
114
 10
15.7500
 20
68.0375
 30
0.0000
  0
SEQEND
  8
0
  0
POLYLINE
  8
114
 66
1
 10
0.0000
 20
0.0000
 30
0.0000
 40
0.1500
 41
0.1500
 70
0
  0
VERTEX
  8
114
 10
2.0000
 20
68.2500
 30
0.0000
 42
0.4142
  0
VERTEX
  8
114
 10
2.2500
 20
68.0000
 30
0.0000
  0
SEQEND
  8
0
  0
POLYLINE
  8
114
 66
1
 10
0.0000
 20
0.0000
 30
0.0000
 40
0.0750
 41
0.0750
 70
0
  0
VERTEX
  8
114
 10
2.0375
 20
68.2500
 30
0.0000
 42
1.0000
  0
VERTEX
  8
114
 10
1.9625
 20
68.2500
 30
0.0000
  0
SEQEND
  8
0
  0
POLYLINE
  8
114
 66
1
 10
0.0000
 20
0.0000
 30
0.0000
 40
0.0750
 41
0.0750
 70
0
  0
VERTEX
  8
114
 10
2.2500
 20
67.9625
 30
0.0000
 42
1.0000
  0
VERTEX
  8
114
 10
2.2500
 20
68.0375
 30
0.0000
  0
SEQEND
  8
0
  0
POLYLINE
  8
114
 66
1
 10
0.0000
 20
0.0000
 30
0.0000
 40
0.1500
 41
0.1500
 70
0
  0
VERTEX
  8
114
 10
2.0000
 20
68.2500
 30
0.0000
  0
VERTEX
  8
114
 10
2.0000
 20
81.7500
 30
0.0000
  0
SEQEND
  8
0
  0
POLYLINE
  8
114
 66
1
 10
0.0000
 20
0.0000
 30
0.0000
 40
0.0750
 41
0.0750
 70
0
  0
VERTEX
  8
114
 10
2.0375
 20
81.7500
 30
0.0000
 42
1.0000
  0
VERTEX
  8
114
 10
1.9625
 20
81.7500
 30
0.0000
  0
SEQEND
  8
0
  0
POLYLINE
  8
114
 66
1
 10
0.0000
 20
0.0000
 30
0.0000
 40
0.0750
 41
0.0750
 70
0
  0
VERTEX
  8
114
 10
1.9625
 20
68.2500
 30
0.0000
 42
1.0000
  0
VERTEX
  8
114
 10
2.0375
 20
68.2500
 30
0.0000
  0
SEQEND
  8
0
  0
POLYLINE
  8
114
 66
1
 10
0.0000
 20
0.0000
 30
0.0000
 40
0.1500
 41
0.1500
 70
0
  0
VERTEX
  8
114
 10
2.2500
 20
82.0000
 30
0.0000
 42
0.4142
  0
VERTEX
  8
114
 10
2.0000
 20
81.7500
 30
0.0000
  0
SEQEND
  8
0
  0
POLYLINE
  8
114
 66
1
 10
0.0000
 20
0.0000
 30
0.0000
 40
0.0750
 41
0.0750
 70
0
  0
VERTEX
  8
114
 10
2.2500
 20
81.9625
 30
0.0000
 42
1.0000
  0
VERTEX
  8
114
 10
2.2500
 20
82.0375
 30
0.0000
  0
SEQEND
  8
0
  0
POLYLINE
  8
114
 66
1
 10
0.0000
 20
0.0000
 30
0.0000
 40
0.0750
 41
0.0750
 70
0
  0
VERTEX
  8
114
 10
1.9625
 20
81.7500
 30
0.0000
 42
1.0000
  0
VERTEX
  8
114
 10
2.0375
 20
81.7500
 30
0.0000
  0
SEQEND
  8
0
  0
POLYLINE
  8
114
 66
1
 10
0.0000
 20
0.0000
 30
0.0000
 40
0.1500
 41
0.1500
 70
0
  0
VERTEX
  8
114
 10
2.2500
 20
82.0000
 30
0.0000
  0
VERTEX
  8
114
 10
15.7500
 20
82.0000
 30
0.0000
  0
SEQEND
  8
0
  0
POLYLINE
  8
114
 66
1
 10
0.0000
 20
0.0000
 30
0.0000
 40
0.0750
 41
0.0750
 70
0
  0
VERTEX
  8
114
 10
15.7500
 20
81.9625
 30
0.0000
 42
1.0000
  0
VERTEX
  8
114
 10
15.7500
 20
82.0375
 30
0.0000
  0
SEQEND
  8
0
  0
POLYLINE
  8
114
 66
1
 10
0.0000
 20
0.0000
 30
0.0000
 40
0.0750
 41
0.0750
 70
0
  0
VERTEX
  8
114
 10
2.2500
 20
82.0375
 30
0.0000
 42
1.0000
  0
VERTEX
  8
114
 10
2.2500
 20
81.9625
 30
0.0000
  0
SEQEND
  8
0
  0
POLYLINE
  8
114
 66
1
 10
0.0000
 20
0.0000
 30
0.0000
 40
0.1500
 41
0.1500
 70
0
  0
VERTEX
  8
114
 10
16.0000
 20
81.7500
 30
0.0000
 42
0.4142
  0
VERTEX
  8
114
 10
15.7500
 20
82.0000
 30
0.0000
  0
SEQEND
  8
0
  0
POLYLINE
  8
114
 66
1
 10
0.0000
 20
0.0000
 30
0.0000
 40
0.0750
 41
0.0750
 70
0
  0
VERTEX
  8
114
 10
15.9625
 20
81.7500
 30
0.0000
 42
1.0000
  0
VERTEX
  8
114
 10
16.0375
 20
81.7500
 30
0.0000
  0
SEQEND
  8
0
  0
POLYLINE
  8
114
 66
1
 10
0.0000
 20
0.0000
 30
0.0000
 40
0.0750
 41
0.0750
 70
0
  0
VERTEX
  8
114
 10
15.7500
 20
82.0375
 30
0.0000
 42
1.0000
  0
VERTEX
  8
114
 10
15.7500
 20
81.9625
 30
0.0000
  0
SEQEND
  8
0
  0
POLYLINE
  8
114
 66
1
 10
0.0000
 20
0.0000
 30
0.0000
 40
0.1500
 41
0.1500
 70
0
  0
VERTEX
  8
114
 10
16.0000
 20
81.7500
 30
0.0000
  0
VERTEX
  8
114
 10
16.0000
 20
68.2500
 30
0.0000
  0
SEQEND
  8
0
  0
POLYLINE
  8
114
 66
1
 10
0.0000
 20
0.0000
 30
0.0000
 40
0.0750
 41
0.0750
 70
0
  0
VERTEX
  8
114
 10
15.9625
 20
68.2500
 30
0.0000
 42
1.0000
  0
VERTEX
  8
114
 10
16.0375
 20
68.2500
 30
0.0000
  0
SEQEND
  8
0
  0
POLYLINE
  8
114
 66
1
 10
0.0000
 20
0.0000
 30
0.0000
 40
0.0750
 41
0.0750
 70
0
  0
VERTEX
  8
114
 10
16.0375
 20
81.7500
 30
0.0000
 42
1.0000
  0
VERTEX
  8
114
 10
15.9625
 20
81.7500
 30
0.0000
  0
SEQEND
  8
0
  0
POLYLINE
  8
114
 66
1
 10
0.0000
 20
0.0000
 30
0.0000
 40
0.1500
 41
0.1500
 70
0
  0
VERTEX
  8
114
 10
15.7500
 20
68.0000
 30
0.0000
 42
0.4142
  0
VERTEX
  8
114
 10
16.0000
 20
68.2500
 30
0.0000
  0
SEQEND
  8
0
  0
POLYLINE
  8
114
 66
1
 10
0.0000
 20
0.0000
 30
0.0000
 40
0.0750
 41
0.0750
 70
0
  0
VERTEX
  8
114
 10
15.7500
 20
68.0375
 30
0.0000
 42
1.0000
  0
VERTEX
  8
114
 10
15.7500
 20
67.9625
 30
0.0000
  0
SEQEND
  8
0
  0
POLYLINE
  8
114
 66
1
 10
0.0000
 20
0.0000
 30
0.0000
 40
0.0750
 41
0.0750
 70
0
  0
VERTEX
  8
114
 10
16.0375
 20
68.2500
 30
0.0000
 42
1.0000
  0
VERTEX
  8
114
 10
15.9625
 20
68.2500
 30
0.0000
  0
SEQEND
  8
0
  0
POLYLINE
  8
114
 66
1
 10
0.0000
 20
0.0000
 30
0.0000
 40
0.1500
 41
0.1500
 70
0
  0
VERTEX
  8
114
 10
34.7500
 20
72.7500
 30
0.0000
  0
VERTEX
  8
114
 10
21.2500
 20
72.7500
 30
0.0000
  0
SEQEND
  8
0
  0
POLYLINE
  8
114
 66
1
 10
0.0000
 20
0.0000
 30
0.0000
 40
0.0750
 41
0.0750
 70
0
  0
VERTEX
  8
114
 10
21.2500
 20
72.7875
 30
0.0000
 42
1.0000
  0
VERTEX
  8
114
 10
21.2500
 20
72.7125
 30
0.0000
  0
SEQEND
  8
0
  0
POLYLINE
  8
114
 66
1
 10
0.0000
 20
0.0000
 30
0.0000
 40
0.0750
 41
0.0750
 70
0
  0
VERTEX
  8
114
 10
34.7500
 20
72.7125
 30
0.0000
 42
1.0000
  0
VERTEX
  8
114
 10
34.7500
 20
72.7875
 30
0.0000
  0
SEQEND
  8
0
  0
POLYLINE
  8
114
 66
1
 10
0.0000
 20
0.0000
 30
0.0000
 40
0.1500
 41
0.1500
 70
0
  0
VERTEX
  8
114
 10
21.0000
 20
73.0000
 30
0.0000
 42
0.4142
  0
VERTEX
  8
114
 10
21.2500
 20
72.7500
 30
0.0000
  0
SEQEND
  8
0
  0
POLYLINE
  8
114
 66
1
 10
0.0000
 20
0.0000
 30
0.0000
 40
0.0750
 41
0.0750
 70
0
  0
VERTEX
  8
114
 10
21.0375
 20
73.0000
 30
0.0000
 42
1.0000
  0
VERTEX
  8
114
 10
20.9625
 20
73.0000
 30
0.0000
  0
SEQEND
  8
0
  0
POLYLINE
  8
114
 66
1
 10
0.0000
 20
0.0000
 30
0.0000
 40
0.0750
 41
0.0750
 70
0
  0
VERTEX
  8
114
 10
21.2500
 20
72.7125
 30
0.0000
 42
1.0000
  0
VERTEX
  8
114
 10
21.2500
 20
72.7875
 30
0.0000
  0
SEQEND
  8
0
  0
POLYLINE
  8
114
 66
1
 10
0.0000
 20
0.0000
 30
0.0000
 40
0.1500
 41
0.1500
 70
0
  0
VERTEX
  8
114
 10
21.0000
 20
73.0000
 30
0.0000
  0
VERTEX
  8
114
 10
21.0000
 20
86.5000
 30
0.0000
  0
SEQEND
  8
0
  0
POLYLINE
  8
114
 66
1
 10
0.0000
 20
0.0000
 30
0.0000
 40
0.0750
 41
0.0750
 70
0
  0
VERTEX
  8
114
 10
21.0375
 20
86.5000
 30
0.0000
 42
1.0000
  0
VERTEX
  8
114
 10
20.9625
 20
86.5000
 30
0.0000
  0
SEQEND
  8
0
  0
POLYLINE
  8
114
 66
1
 10
0.0000
 20
0.0000
 30
0.0000
 40
0.0750
 41
0.0750
 70
0
  0
VERTEX
  8
114
 10
20.9625
 20
73.0000
 30
0.0000
 42
1.0000
  0
VERTEX
  8
114
 10
21.0375
 20
73.0000
 30
0.0000
  0
SEQEND
  8
0
  0
POLYLINE
  8
114
 66
1
 10
0.0000
 20
0.0000
 30
0.0000
 40
0.1500
 41
0.1500
 70
0
  0
VERTEX
  8
114
 10
21.2500
 20
86.7500
 30
0.0000
 42
0.4142
  0
VERTEX
  8
114
 10
21.0000
 20
86.5000
 30
0.0000
  0
SEQEND
  8
0
  0
POLYLINE
  8
114
 66
1
 10
0.0000
 20
0.0000
 30
0.0000
 40
0.0750
 41
0.0750
 70
0
  0
VERTEX
  8
114
 10
21.2500
 20
86.7125
 30
0.0000
 42
1.0000
  0
VERTEX
  8
114
 10
21.2500
 20
86.7875
 30
0.0000
  0
SEQEND
  8
0
  0
POLYLINE
  8
114
 66
1
 10
0.0000
 20
0.0000
 30
0.0000
 40
0.0750
 41
0.0750
 70
0
  0
VERTEX
  8
114
 10
20.9625
 20
86.5000
 30
0.0000
 42
1.0000
  0
VERTEX
  8
114
 10
21.0375
 20
86.5000
 30
0.0000
  0
SEQEND
  8
0
  0
POLYLINE
  8
114
 66
1
 10
0.0000
 20
0.0000
 30
0.0000
 40
0.1500
 41
0.1500
 70
0
  0
VERTEX
  8
114
 10
21.2500
 20
86.7500
 30
0.0000
  0
VERTEX
  8
114
 10
34.7500
 20
86.7500
 30
0.0000
  0
SEQEND
  8
0
  0
POLYLINE
  8
114
 66
1
 10
0.0000
 20
0.0000
 30
0.0000
 40
0.0750
 41
0.0750
 70
0
  0
VERTEX
  8
114
 10
34.7500
 20
86.7125
 30
0.0000
 42
1.0000
  0
VERTEX
  8
114
 10
34.7500
 20
86.7875
 30
0.0000
  0
SEQEND
  8
0
  0
POLYLINE
  8
114
 66
1
 10
0.0000
 20
0.0000
 30
0.0000
 40
0.0750
 41
0.0750
 70
0
  0
VERTEX
  8
114
 10
21.2500
 20
86.7875
 30
0.0000
 42
1.0000
  0
VERTEX
  8
114
 10
21.2500
 20
86.7125
 30
0.0000
  0
SEQEND
  8
0
  0
POLYLINE
  8
114
 66
1
 10
0.0000
 20
0.0000
 30
0.0000
 40
0.1500
 41
0.1500
 70
0
  0
VERTEX
  8
114
 10
35.0000
 20
86.5000
 30
0.0000
 42
0.4142
  0
VERTEX
  8
114
 10
34.7500
 20
86.7500
 30
0.0000
  0
SEQEND
  8
0
  0
POLYLINE
  8
114
 66
1
 10
0.0000
 20
0.0000
 30
0.0000
 40
0.0750
 41
0.0750
 70
0
  0
VERTEX
  8
114
 10
34.9625
 20
86.5000
 30
0.0000
 42
1.0000
  0
VERTEX
  8
114
 10
35.0375
 20
86.5000
 30
0.0000
  0
SEQEND
  8
0
  0
POLYLINE
  8
114
 66
1
 10
0.0000
 20
0.0000
 30
0.0000
 40
0.0750
 41
0.0750
 70
0
  0
VERTEX
  8
114
 10
34.7500
 20
86.7875
 30
0.0000
 42
1.0000
  0
VERTEX
  8
114
 10
34.7500
 20
86.7125
 30
0.0000
  0
SEQEND
  8
0
  0
POLYLINE
  8
114
 66
1
 10
0.0000
 20
0.0000
 30
0.0000
 40
0.1500
 41
0.1500
 70
0
  0
VERTEX
  8
114
 10
35.0000
 20
86.5000
 30
0.0000
  0
VERTEX
  8
114
 10
35.0000
 20
73.0000
 30
0.0000
  0
SEQEND
  8
0
  0
POLYLINE
  8
114
 66
1
 10
0.0000
 20
0.0000
 30
0.0000
 40
0.0750
 41
0.0750
 70
0
  0
VERTEX
  8
114
 10
34.9625
 20
73.0000
 30
0.0000
 42
1.0000
  0
VERTEX
  8
114
 10
35.0375
 20
73.0000
 30
0.0000
  0
SEQEND
  8
0
  0
POLYLINE
  8
114
 66
1
 10
0.0000
 20
0.0000
 30
0.0000
 40
0.0750
 41
0.0750
 70
0
  0
VERTEX
  8
114
 10
35.0375
 20
86.5000
 30
0.0000
 42
1.0000
  0
VERTEX
  8
114
 10
34.9625
 20
86.5000
 30
0.0000
  0
SEQEND
  8
0
  0
POLYLINE
  8
114
 66
1
 10
0.0000
 20
0.0000
 30
0.0000
 40
0.1500
 41
0.1500
 70
0
  0
VERTEX
  8
114
 10
34.7500
 20
72.7500
 30
0.0000
 42
0.4142
  0
VERTEX
  8
114
 10
35.0000
 20
73.0000
 30
0.0000
  0
SEQEND
  8
0
  0
POLYLINE
  8
114
 66
1
 10
0.0000
 20
0.0000
 30
0.0000
 40
0.0750
 41
0.0750
 70
0
  0
VERTEX
  8
114
 10
34.7500
 20
72.7875
 30
0.0000
 42
1.0000
  0
VERTEX
  8
114
 10
34.7500
 20
72.7125
 30
0.0000
  0
SEQEND
  8
0
  0
POLYLINE
  8
114
 66
1
 10
0.0000
 20
0.0000
 30
0.0000
 40
0.0750
 41
0.0750
 70
0
  0
VERTEX
  8
114
 10
35.0375
 20
73.0000
 30
0.0000
 42
1.0000
  0
VERTEX
  8
114
 10
34.9625
 20
73.0000
 30
0.0000
  0
SEQEND
  8
0
  0
POLYLINE
  8
114
 66
1
 10
0.0000
 20
0.0000
 30
0.0000
 40
0.1500
 41
0.1500
 70
0
  0
VERTEX
  8
114
 10
53.7500
 20
77.5000
 30
0.0000
  0
VERTEX
  8
114
 10
40.2500
 20
77.5000
 30
0.0000
  0
SEQEND
  8
0
  0
POLYLINE
  8
114
 66
1
 10
0.0000
 20
0.0000
 30
0.0000
 40
0.0750
 41
0.0750
 70
0
  0
VERTEX
  8
114
 10
40.2500
 20
77.5375
 30
0.0000
 42
1.0000
  0
VERTEX
  8
114
 10
40.2500
 20
77.4625
 30
0.0000
  0
SEQEND
  8
0
  0
POLYLINE
  8
114
 66
1
 10
0.0000
 20
0.0000
 30
0.0000
 40
0.0750
 41
0.0750
 70
0
  0
VERTEX
  8
114
 10
53.7500
 20
77.4625
 30
0.0000
 42
1.0000
  0
VERTEX
  8
114
 10
53.7500
 20
77.5375
 30
0.0000
  0
SEQEND
  8
0
  0
POLYLINE
  8
114
 66
1
 10
0.0000
 20
0.0000
 30
0.0000
 40
0.1500
 41
0.1500
 70
0
  0
VERTEX
  8
114
 10
40.0000
 20
77.7500
 30
0.0000
 42
0.4142
  0
VERTEX
  8
114
 10
40.2500
 20
77.5000
 30
0.0000
  0
SEQEND
  8
0
  0
POLYLINE
  8
114
 66
1
 10
0.0000
 20
0.0000
 30
0.0000
 40
0.0750
 41
0.0750
 70
0
  0
VERTEX
  8
114
 10
40.0375
 20
77.7500
 30
0.0000
 42
1.0000
  0
VERTEX
  8
114
 10
39.9625
 20
77.7500
 30
0.0000
  0
SEQEND
  8
0
  0
POLYLINE
  8
114
 66
1
 10
0.0000
 20
0.0000
 30
0.0000
 40
0.0750
 41
0.0750
 70
0
  0
VERTEX
  8
114
 10
40.2500
 20
77.4625
 30
0.0000
 42
1.0000
  0
VERTEX
  8
114
 10
40.2500
 20
77.5375
 30
0.0000
  0
SEQEND
  8
0
  0
POLYLINE
  8
114
 66
1
 10
0.0000
 20
0.0000
 30
0.0000
 40
0.1500
 41
0.1500
 70
0
  0
VERTEX
  8
114
 10
40.0000
 20
77.7500
 30
0.0000
  0
VERTEX
  8
114
 10
40.0000
 20
91.2500
 30
0.0000
  0
SEQEND
  8
0
  0
POLYLINE
  8
114
 66
1
 10
0.0000
 20
0.0000
 30
0.0000
 40
0.0750
 41
0.0750
 70
0
  0
VERTEX
  8
114
 10
40.0375
 20
91.2500
 30
0.0000
 42
1.0000
  0
VERTEX
  8
114
 10
39.9625
 20
91.2500
 30
0.0000
  0
SEQEND
  8
0
  0
POLYLINE
  8
114
 66
1
 10
0.0000
 20
0.0000
 30
0.0000
 40
0.0750
 41
0.0750
 70
0
  0
VERTEX
  8
114
 10
39.9625
 20
77.7500
 30
0.0000
 42
1.0000
  0
VERTEX
  8
114
 10
40.0375
 20
77.7500
 30
0.0000
  0
SEQEND
  8
0
  0
POLYLINE
  8
114
 66
1
 10
0.0000
 20
0.0000
 30
0.0000
 40
0.1500
 41
0.1500
 70
0
  0
VERTEX
  8
114
 10
40.2500
 20
91.5000
 30
0.0000
 42
0.4142
  0
VERTEX
  8
114
 10
40.0000
 20
91.2500
 30
0.0000
  0
SEQEND
  8
0
  0
POLYLINE
  8
114
 66
1
 10
0.0000
 20
0.0000
 30
0.0000
 40
0.0750
 41
0.0750
 70
0
  0
VERTEX
  8
114
 10
40.2500
 20
91.4625
 30
0.0000
 42
1.0000
  0
VERTEX
  8
114
 10
40.2500
 20
91.5375
 30
0.0000
  0
SEQEND
  8
0
  0
POLYLINE
  8
114
 66
1
 10
0.0000
 20
0.0000
 30
0.0000
 40
0.0750
 41
0.0750
 70
0
  0
VERTEX
  8
114
 10
39.9625
 20
91.2500
 30
0.0000
 42
1.0000
  0
VERTEX
  8
114
 10
40.0375
 20
91.2500
 30
0.0000
  0
SEQEND
  8
0
  0
POLYLINE
  8
114
 66
1
 10
0.0000
 20
0.0000
 30
0.0000
 40
0.1500
 41
0.1500
 70
0
  0
VERTEX
  8
114
 10
40.2500
 20
91.5000
 30
0.0000
  0
VERTEX
  8
114
 10
53.7500
 20
91.5000
 30
0.0000
  0
SEQEND
  8
0
  0
POLYLINE
  8
114
 66
1
 10
0.0000
 20
0.0000
 30
0.0000
 40
0.0750
 41
0.0750
 70
0
  0
VERTEX
  8
114
 10
53.7500
 20
91.4625
 30
0.0000
 42
1.0000
  0
VERTEX
  8
114
 10
53.7500
 20
91.5375
 30
0.0000
  0
SEQEND
  8
0
  0
POLYLINE
  8
114
 66
1
 10
0.0000
 20
0.0000
 30
0.0000
 40
0.0750
 41
0.0750
 70
0
  0
VERTEX
  8
114
 10
40.2500
 20
91.5375
 30
0.0000
 42
1.0000
  0
VERTEX
  8
114
 10
40.2500
 20
91.4625
 30
0.0000
  0
SEQEND
  8
0
  0
POLYLINE
  8
114
 66
1
 10
0.0000
 20
0.0000
 30
0.0000
 40
0.1500
 41
0.1500
 70
0
  0
VERTEX
  8
114
 10
54.0000
 20
91.2500
 30
0.0000
 42
0.4142
  0
VERTEX
  8
114
 10
53.7500
 20
91.5000
 30
0.0000
  0
SEQEND
  8
0
  0
POLYLINE
  8
114
 66
1
 10
0.0000
 20
0.0000
 30
0.0000
 40
0.0750
 41
0.0750
 70
0
  0
VERTEX
  8
114
 10
53.9625
 20
91.2500
 30
0.0000
 42
1.0000
  0
VERTEX
  8
114
 10
54.0375
 20
91.2500
 30
0.0000
  0
SEQEND
  8
0
  0
POLYLINE
  8
114
 66
1
 10
0.0000
 20
0.0000
 30
0.0000
 40
0.0750
 41
0.0750
 70
0
  0
VERTEX
  8
114
 10
53.7500
 20
91.5375
 30
0.0000
 42
1.0000
  0
VERTEX
  8
114
 10
53.7500
 20
91.4625
 30
0.0000
  0
SEQEND
  8
0
  0
POLYLINE
  8
114
 66
1
 10
0.0000
 20
0.0000
 30
0.0000
 40
0.1500
 41
0.1500
 70
0
  0
VERTEX
  8
114
 10
54.0000
 20
91.2500
 30
0.0000
  0
VERTEX
  8
114
 10
54.0000
 20
77.7500
 30
0.0000
  0
SEQEND
  8
0
  0
POLYLINE
  8
114
 66
1
 10
0.0000
 20
0.0000
 30
0.0000
 40
0.0750
 41
0.0750
 70
0
  0
VERTEX
  8
114
 10
53.9625
 20
77.7500
 30
0.0000
 42
1.0000
  0
VERTEX
  8
114
 10
54.0375
 20
77.7500
 30
0.0000
  0
SEQEND
  8
0
  0
POLYLINE
  8
114
 66
1
 10
0.0000
 20
0.0000
 30
0.0000
 40
0.0750
 41
0.0750
 70
0
  0
VERTEX
  8
114
 10
54.0375
 20
91.2500
 30
0.0000
 42
1.0000
  0
VERTEX
  8
114
 10
53.9625
 20
91.2500
 30
0.0000
  0
SEQEND
  8
0
  0
POLYLINE
  8
114
 66
1
 10
0.0000
 20
0.0000
 30
0.0000
 40
0.1500
 41
0.1500
 70
0
  0
VERTEX
  8
114
 10
53.7500
 20
77.5000
 30
0.0000
 42
0.4142
  0
VERTEX
  8
114
 10
54.0000
 20
77.7500
 30
0.0000
  0
SEQEND
  8
0
  0
POLYLINE
  8
114
 66
1
 10
0.0000
 20
0.0000
 30
0.0000
 40
0.0750
 41
0.0750
 70
0
  0
VERTEX
  8
114
 10
53.7500
 20
77.5375
 30
0.0000
 42
1.0000
  0
VERTEX
  8
114
 10
53.7500
 20
77.4625
 30
0.0000
  0
SEQEND
  8
0
  0
POLYLINE
  8
114
 66
1
 10
0.0000
 20
0.0000
 30
0.0000
 40
0.0750
 41
0.0750
 70
0
  0
VERTEX
  8
114
 10
54.0375
 20
77.7500
 30
0.0000
 42
1.0000
  0
VERTEX
  8
114
 10
53.9625
 20
77.7500
 30
0.0000
  0
SEQEND
  8
0
  0
POLYLINE
  8
114
 66
1
 10
0.0000
 20
0.0000
 30
0.0000
 40
0.1500
 41
0.1500
 70
0
  0
VERTEX
  8
114
 10
72.7500
 20
72.7500
 30
0.0000
  0
VERTEX
  8
114
 10
59.2500
 20
72.7500
 30
0.0000
  0
SEQEND
  8
0
  0
POLYLINE
  8
114
 66
1
 10
0.0000
 20
0.0000
 30
0.0000
 40
0.0750
 41
0.0750
 70
0
  0
VERTEX
  8
114
 10
59.2500
 20
72.7875
 30
0.0000
 42
1.0000
  0
VERTEX
  8
114
 10
59.2500
 20
72.7125
 30
0.0000
  0
SEQEND
  8
0
  0
POLYLINE
  8
114
 66
1
 10
0.0000
 20
0.0000
 30
0.0000
 40
0.0750
 41
0.0750
 70
0
  0
VERTEX
  8
114
 10
72.7500
 20
72.7125
 30
0.0000
 42
1.0000
  0
VERTEX
  8
114
 10
72.7500
 20
72.7875
 30
0.0000
  0
SEQEND
  8
0
  0
POLYLINE
  8
114
 66
1
 10
0.0000
 20
0.0000
 30
0.0000
 40
0.1500
 41
0.1500
 70
0
  0
VERTEX
  8
114
 10
59.0000
 20
73.0000
 30
0.0000
 42
0.4142
  0
VERTEX
  8
114
 10
59.2500
 20
72.7500
 30
0.0000
  0
SEQEND
  8
0
  0
POLYLINE
  8
114
 66
1
 10
0.0000
 20
0.0000
 30
0.0000
 40
0.0750
 41
0.0750
 70
0
  0
VERTEX
  8
114
 10
59.0375
 20
73.0000
 30
0.0000
 42
1.0000
  0
VERTEX
  8
114
 10
58.9625
 20
73.0000
 30
0.0000
  0
SEQEND
  8
0
  0
POLYLINE
  8
114
 66
1
 10
0.0000
 20
0.0000
 30
0.0000
 40
0.0750
 41
0.0750
 70
0
  0
VERTEX
  8
114
 10
59.2500
 20
72.7125
 30
0.0000
 42
1.0000
  0
VERTEX
  8
114
 10
59.2500
 20
72.7875
 30
0.0000
  0
SEQEND
  8
0
  0
POLYLINE
  8
114
 66
1
 10
0.0000
 20
0.0000
 30
0.0000
 40
0.1500
 41
0.1500
 70
0
  0
VERTEX
  8
114
 10
59.0000
 20
73.0000
 30
0.0000
  0
VERTEX
  8
114
 10
59.0000
 20
86.5000
 30
0.0000
  0
SEQEND
  8
0
  0
POLYLINE
  8
114
 66
1
 10
0.0000
 20
0.0000
 30
0.0000
 40
0.0750
 41
0.0750
 70
0
  0
VERTEX
  8
114
 10
59.0375
 20
86.5000
 30
0.0000
 42
1.0000
  0
VERTEX
  8
114
 10
58.9625
 20
86.5000
 30
0.0000
  0
SEQEND
  8
0
  0
POLYLINE
  8
114
 66
1
 10
0.0000
 20
0.0000
 30
0.0000
 40
0.0750
 41
0.0750
 70
0
  0
VERTEX
  8
114
 10
58.9625
 20
73.0000
 30
0.0000
 42
1.0000
  0
VERTEX
  8
114
 10
59.0375
 20
73.0000
 30
0.0000
  0
SEQEND
  8
0
  0
POLYLINE
  8
114
 66
1
 10
0.0000
 20
0.0000
 30
0.0000
 40
0.1500
 41
0.1500
 70
0
  0
VERTEX
  8
114
 10
59.2500
 20
86.7500
 30
0.0000
 42
0.4142
  0
VERTEX
  8
114
 10
59.0000
 20
86.5000
 30
0.0000
  0
SEQEND
  8
0
  0
POLYLINE
  8
114
 66
1
 10
0.0000
 20
0.0000
 30
0.0000
 40
0.0750
 41
0.0750
 70
0
  0
VERTEX
  8
114
 10
59.2500
 20
86.7125
 30
0.0000
 42
1.0000
  0
VERTEX
  8
114
 10
59.2500
 20
86.7875
 30
0.0000
  0
SEQEND
  8
0
  0
POLYLINE
  8
114
 66
1
 10
0.0000
 20
0.0000
 30
0.0000
 40
0.0750
 41
0.0750
 70
0
  0
VERTEX
  8
114
 10
58.9625
 20
86.5000
 30
0.0000
 42
1.0000
  0
VERTEX
  8
114
 10
59.0375
 20
86.5000
 30
0.0000
  0
SEQEND
  8
0
  0
POLYLINE
  8
114
 66
1
 10
0.0000
 20
0.0000
 30
0.0000
 40
0.1500
 41
0.1500
 70
0
  0
VERTEX
  8
114
 10
59.2500
 20
86.7500
 30
0.0000
  0
VERTEX
  8
114
 10
72.7500
 20
86.7500
 30
0.0000
  0
SEQEND
  8
0
  0
POLYLINE
  8
114
 66
1
 10
0.0000
 20
0.0000
 30
0.0000
 40
0.0750
 41
0.0750
 70
0
  0
VERTEX
  8
114
 10
72.7500
 20
86.7125
 30
0.0000
 42
1.0000
  0
VERTEX
  8
114
 10
72.7500
 20
86.7875
 30
0.0000
  0
SEQEND
  8
0
  0
POLYLINE
  8
114
 66
1
 10
0.0000
 20
0.0000
 30
0.0000
 40
0.0750
 41
0.0750
 70
0
  0
VERTEX
  8
114
 10
59.2500
 20
86.7875
 30
0.0000
 42
1.0000
  0
VERTEX
  8
114
 10
59.2500
 20
86.7125
 30
0.0000
  0
SEQEND
  8
0
  0
POLYLINE
  8
114
 66
1
 10
0.0000
 20
0.0000
 30
0.0000
 40
0.1500
 41
0.1500
 70
0
  0
VERTEX
  8
114
 10
73.0000
 20
86.5000
 30
0.0000
 42
0.4142
  0
VERTEX
  8
114
 10
72.7500
 20
86.7500
 30
0.0000
  0
SEQEND
  8
0
  0
POLYLINE
  8
114
 66
1
 10
0.0000
 20
0.0000
 30
0.0000
 40
0.0750
 41
0.0750
 70
0
  0
VERTEX
  8
114
 10
72.9625
 20
86.5000
 30
0.0000
 42
1.0000
  0
VERTEX
  8
114
 10
73.0375
 20
86.5000
 30
0.0000
  0
SEQEND
  8
0
  0
POLYLINE
  8
114
 66
1
 10
0.0000
 20
0.0000
 30
0.0000
 40
0.0750
 41
0.0750
 70
0
  0
VERTEX
  8
114
 10
72.7500
 20
86.7875
 30
0.0000
 42
1.0000
  0
VERTEX
  8
114
 10
72.7500
 20
86.7125
 30
0.0000
  0
SEQEND
  8
0
  0
POLYLINE
  8
114
 66
1
 10
0.0000
 20
0.0000
 30
0.0000
 40
0.1500
 41
0.1500
 70
0
  0
VERTEX
  8
114
 10
73.0000
 20
86.5000
 30
0.0000
  0
VERTEX
  8
114
 10
73.0000
 20
73.0000
 30
0.0000
  0
SEQEND
  8
0
  0
POLYLINE
  8
114
 66
1
 10
0.0000
 20
0.0000
 30
0.0000
 40
0.0750
 41
0.0750
 70
0
  0
VERTEX
  8
114
 10
72.9625
 20
73.0000
 30
0.0000
 42
1.0000
  0
VERTEX
  8
114
 10
73.0375
 20
73.0000
 30
0.0000
  0
SEQEND
  8
0
  0
POLYLINE
  8
114
 66
1
 10
0.0000
 20
0.0000
 30
0.0000
 40
0.0750
 41
0.0750
 70
0
  0
VERTEX
  8
114
 10
73.0375
 20
86.5000
 30
0.0000
 42
1.0000
  0
VERTEX
  8
114
 10
72.9625
 20
86.5000
 30
0.0000
  0
SEQEND
  8
0
  0
POLYLINE
  8
114
 66
1
 10
0.0000
 20
0.0000
 30
0.0000
 40
0.1500
 41
0.1500
 70
0
  0
VERTEX
  8
114
 10
72.7500
 20
72.7500
 30
0.0000
 42
0.4142
  0
VERTEX
  8
114
 10
73.0000
 20
73.0000
 30
0.0000
  0
SEQEND
  8
0
  0
POLYLINE
  8
114
 66
1
 10
0.0000
 20
0.0000
 30
0.0000
 40
0.0750
 41
0.0750
 70
0
  0
VERTEX
  8
114
 10
72.7500
 20
72.7875
 30
0.0000
 42
1.0000
  0
VERTEX
  8
114
 10
72.7500
 20
72.7125
 30
0.0000
  0
SEQEND
  8
0
  0
POLYLINE
  8
114
 66
1
 10
0.0000
 20
0.0000
 30
0.0000
 40
0.0750
 41
0.0750
 70
0
  0
VERTEX
  8
114
 10
73.0375
 20
73.0000
 30
0.0000
 42
1.0000
  0
VERTEX
  8
114
 10
72.9625
 20
73.0000
 30
0.0000
  0
SEQEND
  8
0
  0
POLYLINE
  8
114
 66
1
 10
0.0000
 20
0.0000
 30
0.0000
 40
0.1500
 41
0.1500
 70
0
  0
VERTEX
  8
114
 10
91.7500
 20
68.0000
 30
0.0000
  0
VERTEX
  8
114
 10
78.2500
 20
68.0000
 30
0.0000
  0
SEQEND
  8
0
  0
POLYLINE
  8
114
 66
1
 10
0.0000
 20
0.0000
 30
0.0000
 40
0.0750
 41
0.0750
 70
0
  0
VERTEX
  8
114
 10
78.2500
 20
68.0375
 30
0.0000
 42
1.0000
  0
VERTEX
  8
114
 10
78.2500
 20
67.9625
 30
0.0000
  0
SEQEND
  8
0
  0
POLYLINE
  8
114
 66
1
 10
0.0000
 20
0.0000
 30
0.0000
 40
0.0750
 41
0.0750
 70
0
  0
VERTEX
  8
114
 10
91.7500
 20
67.9625
 30
0.0000
 42
1.0000
  0
VERTEX
  8
114
 10
91.7500
 20
68.0375
 30
0.0000
  0
SEQEND
  8
0
  0
POLYLINE
  8
114
 66
1
 10
0.0000
 20
0.0000
 30
0.0000
 40
0.1500
 41
0.1500
 70
0
  0
VERTEX
  8
114
 10
78.0000
 20
68.2500
 30
0.0000
 42
0.4142
  0
VERTEX
  8
114
 10
78.2500
 20
68.0000
 30
0.0000
  0
SEQEND
  8
0
  0
POLYLINE
  8
114
 66
1
 10
0.0000
 20
0.0000
 30
0.0000
 40
0.0750
 41
0.0750
 70
0
  0
VERTEX
  8
114
 10
78.0375
 20
68.2500
 30
0.0000
 42
1.0000
  0
VERTEX
  8
114
 10
77.9625
 20
68.2500
 30
0.0000
  0
SEQEND
  8
0
  0
POLYLINE
  8
114
 66
1
 10
0.0000
 20
0.0000
 30
0.0000
 40
0.0750
 41
0.0750
 70
0
  0
VERTEX
  8
114
 10
78.2500
 20
67.9625
 30
0.0000
 42
1.0000
  0
VERTEX
  8
114
 10
78.2500
 20
68.0375
 30
0.0000
  0
SEQEND
  8
0
  0
POLYLINE
  8
114
 66
1
 10
0.0000
 20
0.0000
 30
0.0000
 40
0.1500
 41
0.1500
 70
0
  0
VERTEX
  8
114
 10
78.0000
 20
68.2500
 30
0.0000
  0
VERTEX
  8
114
 10
78.0000
 20
81.7500
 30
0.0000
  0
SEQEND
  8
0
  0
POLYLINE
  8
114
 66
1
 10
0.0000
 20
0.0000
 30
0.0000
 40
0.0750
 41
0.0750
 70
0
  0
VERTEX
  8
114
 10
78.0375
 20
81.7500
 30
0.0000
 42
1.0000
  0
VERTEX
  8
114
 10
77.9625
 20
81.7500
 30
0.0000
  0
SEQEND
  8
0
  0
POLYLINE
  8
114
 66
1
 10
0.0000
 20
0.0000
 30
0.0000
 40
0.0750
 41
0.0750
 70
0
  0
VERTEX
  8
114
 10
77.9625
 20
68.2500
 30
0.0000
 42
1.0000
  0
VERTEX
  8
114
 10
78.0375
 20
68.2500
 30
0.0000
  0
SEQEND
  8
0
  0
POLYLINE
  8
114
 66
1
 10
0.0000
 20
0.0000
 30
0.0000
 40
0.1500
 41
0.1500
 70
0
  0
VERTEX
  8
114
 10
78.2500
 20
82.0000
 30
0.0000
 42
0.4142
  0
VERTEX
  8
114
 10
78.0000
 20
81.7500
 30
0.0000
  0
SEQEND
  8
0
  0
POLYLINE
  8
114
 66
1
 10
0.0000
 20
0.0000
 30
0.0000
 40
0.0750
 41
0.0750
 70
0
  0
VERTEX
  8
114
 10
78.2500
 20
81.9625
 30
0.0000
 42
1.0000
  0
VERTEX
  8
114
 10
78.2500
 20
82.0375
 30
0.0000
  0
SEQEND
  8
0
  0
POLYLINE
  8
114
 66
1
 10
0.0000
 20
0.0000
 30
0.0000
 40
0.0750
 41
0.0750
 70
0
  0
VERTEX
  8
114
 10
77.9625
 20
81.7500
 30
0.0000
 42
1.0000
  0
VERTEX
  8
114
 10
78.0375
 20
81.7500
 30
0.0000
  0
SEQEND
  8
0
  0
POLYLINE
  8
114
 66
1
 10
0.0000
 20
0.0000
 30
0.0000
 40
0.1500
 41
0.1500
 70
0
  0
VERTEX
  8
114
 10
78.2500
 20
82.0000
 30
0.0000
  0
VERTEX
  8
114
 10
91.7500
 20
82.0000
 30
0.0000
  0
SEQEND
  8
0
  0
POLYLINE
  8
114
 66
1
 10
0.0000
 20
0.0000
 30
0.0000
 40
0.0750
 41
0.0750
 70
0
  0
VERTEX
  8
114
 10
91.7500
 20
81.9625
 30
0.0000
 42
1.0000
  0
VERTEX
  8
114
 10
91.7500
 20
82.0375
 30
0.0000
  0
SEQEND
  8
0
  0
POLYLINE
  8
114
 66
1
 10
0.0000
 20
0.0000
 30
0.0000
 40
0.0750
 41
0.0750
 70
0
  0
VERTEX
  8
114
 10
78.2500
 20
82.0375
 30
0.0000
 42
1.0000
  0
VERTEX
  8
114
 10
78.2500
 20
81.9625
 30
0.0000
  0
SEQEND
  8
0
  0
POLYLINE
  8
114
 66
1
 10
0.0000
 20
0.0000
 30
0.0000
 40
0.1500
 41
0.1500
 70
0
  0
VERTEX
  8
114
 10
92.0000
 20
81.7500
 30
0.0000
 42
0.4142
  0
VERTEX
  8
114
 10
91.7500
 20
82.0000
 30
0.0000
  0
SEQEND
  8
0
  0
POLYLINE
  8
114
 66
1
 10
0.0000
 20
0.0000
 30
0.0000
 40
0.0750
 41
0.0750
 70
0
  0
VERTEX
  8
114
 10
91.9625
 20
81.7500
 30
0.0000
 42
1.0000
  0
VERTEX
  8
114
 10
92.0375
 20
81.7500
 30
0.0000
  0
SEQEND
  8
0
  0
POLYLINE
  8
114
 66
1
 10
0.0000
 20
0.0000
 30
0.0000
 40
0.0750
 41
0.0750
 70
0
  0
VERTEX
  8
114
 10
91.7500
 20
82.0375
 30
0.0000
 42
1.0000
  0
VERTEX
  8
114
 10
91.7500
 20
81.9625
 30
0.0000
  0
SEQEND
  8
0
  0
POLYLINE
  8
114
 66
1
 10
0.0000
 20
0.0000
 30
0.0000
 40
0.1500
 41
0.1500
 70
0
  0
VERTEX
  8
114
 10
92.0000
 20
81.7500
 30
0.0000
  0
VERTEX
  8
114
 10
92.0000
 20
68.2500
 30
0.0000
  0
SEQEND
  8
0
  0
POLYLINE
  8
114
 66
1
 10
0.0000
 20
0.0000
 30
0.0000
 40
0.0750
 41
0.0750
 70
0
  0
VERTEX
  8
114
 10
91.9625
 20
68.2500
 30
0.0000
 42
1.0000
  0
VERTEX
  8
114
 10
92.0375
 20
68.2500
 30
0.0000
  0
SEQEND
  8
0
  0
POLYLINE
  8
114
 66
1
 10
0.0000
 20
0.0000
 30
0.0000
 40
0.0750
 41
0.0750
 70
0
  0
VERTEX
  8
114
 10
92.0375
 20
81.7500
 30
0.0000
 42
1.0000
  0
VERTEX
  8
114
 10
91.9625
 20
81.7500
 30
0.0000
  0
SEQEND
  8
0
  0
POLYLINE
  8
114
 66
1
 10
0.0000
 20
0.0000
 30
0.0000
 40
0.1500
 41
0.1500
 70
0
  0
VERTEX
  8
114
 10
91.7500
 20
68.0000
 30
0.0000
 42
0.4142
  0
VERTEX
  8
114
 10
92.0000
 20
68.2500
 30
0.0000
  0
SEQEND
  8
0
  0
POLYLINE
  8
114
 66
1
 10
0.0000
 20
0.0000
 30
0.0000
 40
0.0750
 41
0.0750
 70
0
  0
VERTEX
  8
114
 10
91.7500
 20
68.0375
 30
0.0000
 42
1.0000
  0
VERTEX
  8
114
 10
91.7500
 20
67.9625
 30
0.0000
  0
SEQEND
  8
0
  0
POLYLINE
  8
114
 66
1
 10
0.0000
 20
0.0000
 30
0.0000
 40
0.0750
 41
0.0750
 70
0
  0
VERTEX
  8
114
 10
92.0375
 20
68.2500
 30
0.0000
 42
1.0000
  0
VERTEX
  8
114
 10
91.9625
 20
68.2500
 30
0.0000
  0
SEQEND
  8
0
  0
POLYLINE
  8
114
 66
1
 10
0.0000
 20
0.0000
 30
0.0000
 40
0.1500
 41
0.1500
 70
0
  0
VERTEX
  8
114
 10
15.7500
 20
49.0000
 30
0.0000
  0
VERTEX
  8
114
 10
2.2500
 20
49.0000
 30
0.0000
  0
SEQEND
  8
0
  0
POLYLINE
  8
114
 66
1
 10
0.0000
 20
0.0000
 30
0.0000
 40
0.0750
 41
0.0750
 70
0
  0
VERTEX
  8
114
 10
2.2500
 20
49.0375
 30
0.0000
 42
1.0000
  0
VERTEX
  8
114
 10
2.2500
 20
48.9625
 30
0.0000
  0
SEQEND
  8
0
  0
POLYLINE
  8
114
 66
1
 10
0.0000
 20
0.0000
 30
0.0000
 40
0.0750
 41
0.0750
 70
0
  0
VERTEX
  8
114
 10
15.7500
 20
48.9625
 30
0.0000
 42
1.0000
  0
VERTEX
  8
114
 10
15.7500
 20
49.0375
 30
0.0000
  0
SEQEND
  8
0
  0
POLYLINE
  8
114
 66
1
 10
0.0000
 20
0.0000
 30
0.0000
 40
0.1500
 41
0.1500
 70
0
  0
VERTEX
  8
114
 10
2.0000
 20
49.2500
 30
0.0000
 42
0.4142
  0
VERTEX
  8
114
 10
2.2500
 20
49.0000
 30
0.0000
  0
SEQEND
  8
0
  0
POLYLINE
  8
114
 66
1
 10
0.0000
 20
0.0000
 30
0.0000
 40
0.0750
 41
0.0750
 70
0
  0
VERTEX
  8
114
 10
2.0375
 20
49.2500
 30
0.0000
 42
1.0000
  0
VERTEX
  8
114
 10
1.9625
 20
49.2500
 30
0.0000
  0
SEQEND
  8
0
  0
POLYLINE
  8
114
 66
1
 10
0.0000
 20
0.0000
 30
0.0000
 40
0.0750
 41
0.0750
 70
0
  0
VERTEX
  8
114
 10
2.2500
 20
48.9625
 30
0.0000
 42
1.0000
  0
VERTEX
  8
114
 10
2.2500
 20
49.0375
 30
0.0000
  0
SEQEND
  8
0
  0
POLYLINE
  8
114
 66
1
 10
0.0000
 20
0.0000
 30
0.0000
 40
0.1500
 41
0.1500
 70
0
  0
VERTEX
  8
114
 10
2.0000
 20
49.2500
 30
0.0000
  0
VERTEX
  8
114
 10
2.0000
 20
62.7500
 30
0.0000
  0
SEQEND
  8
0
  0
POLYLINE
  8
114
 66
1
 10
0.0000
 20
0.0000
 30
0.0000
 40
0.0750
 41
0.0750
 70
0
  0
VERTEX
  8
114
 10
2.0375
 20
62.7500
 30
0.0000
 42
1.0000
  0
VERTEX
  8
114
 10
1.9625
 20
62.7500
 30
0.0000
  0
SEQEND
  8
0
  0
POLYLINE
  8
114
 66
1
 10
0.0000
 20
0.0000
 30
0.0000
 40
0.0750
 41
0.0750
 70
0
  0
VERTEX
  8
114
 10
1.9625
 20
49.2500
 30
0.0000
 42
1.0000
  0
VERTEX
  8
114
 10
2.0375
 20
49.2500
 30
0.0000
  0
SEQEND
  8
0
  0
POLYLINE
  8
114
 66
1
 10
0.0000
 20
0.0000
 30
0.0000
 40
0.1500
 41
0.1500
 70
0
  0
VERTEX
  8
114
 10
2.2500
 20
63.0000
 30
0.0000
 42
0.4142
  0
VERTEX
  8
114
 10
2.0000
 20
62.7500
 30
0.0000
  0
SEQEND
  8
0
  0
POLYLINE
  8
114
 66
1
 10
0.0000
 20
0.0000
 30
0.0000
 40
0.0750
 41
0.0750
 70
0
  0
VERTEX
  8
114
 10
2.2500
 20
62.9625
 30
0.0000
 42
1.0000
  0
VERTEX
  8
114
 10
2.2500
 20
63.0375
 30
0.0000
  0
SEQEND
  8
0
  0
POLYLINE
  8
114
 66
1
 10
0.0000
 20
0.0000
 30
0.0000
 40
0.0750
 41
0.0750
 70
0
  0
VERTEX
  8
114
 10
1.9625
 20
62.7500
 30
0.0000
 42
1.0000
  0
VERTEX
  8
114
 10
2.0375
 20
62.7500
 30
0.0000
  0
SEQEND
  8
0
  0
POLYLINE
  8
114
 66
1
 10
0.0000
 20
0.0000
 30
0.0000
 40
0.1500
 41
0.1500
 70
0
  0
VERTEX
  8
114
 10
2.2500
 20
63.0000
 30
0.0000
  0
VERTEX
  8
114
 10
15.7500
 20
63.0000
 30
0.0000
  0
SEQEND
  8
0
  0
POLYLINE
  8
114
 66
1
 10
0.0000
 20
0.0000
 30
0.0000
 40
0.0750
 41
0.0750
 70
0
  0
VERTEX
  8
114
 10
15.7500
 20
62.9625
 30
0.0000
 42
1.0000
  0
VERTEX
  8
114
 10
15.7500
 20
63.0375
 30
0.0000
  0
SEQEND
  8
0
  0
POLYLINE
  8
114
 66
1
 10
0.0000
 20
0.0000
 30
0.0000
 40
0.0750
 41
0.0750
 70
0
  0
VERTEX
  8
114
 10
2.2500
 20
63.0375
 30
0.0000
 42
1.0000
  0
VERTEX
  8
114
 10
2.2500
 20
62.9625
 30
0.0000
  0
SEQEND
  8
0
  0
POLYLINE
  8
114
 66
1
 10
0.0000
 20
0.0000
 30
0.0000
 40
0.1500
 41
0.1500
 70
0
  0
VERTEX
  8
114
 10
16.0000
 20
62.7500
 30
0.0000
 42
0.4142
  0
VERTEX
  8
114
 10
15.7500
 20
63.0000
 30
0.0000
  0
SEQEND
  8
0
  0
POLYLINE
  8
114
 66
1
 10
0.0000
 20
0.0000
 30
0.0000
 40
0.0750
 41
0.0750
 70
0
  0
VERTEX
  8
114
 10
15.9625
 20
62.7500
 30
0.0000
 42
1.0000
  0
VERTEX
  8
114
 10
16.0375
 20
62.7500
 30
0.0000
  0
SEQEND
  8
0
  0
POLYLINE
  8
114
 66
1
 10
0.0000
 20
0.0000
 30
0.0000
 40
0.0750
 41
0.0750
 70
0
  0
VERTEX
  8
114
 10
15.7500
 20
63.0375
 30
0.0000
 42
1.0000
  0
VERTEX
  8
114
 10
15.7500
 20
62.9625
 30
0.0000
  0
SEQEND
  8
0
  0
POLYLINE
  8
114
 66
1
 10
0.0000
 20
0.0000
 30
0.0000
 40
0.1500
 41
0.1500
 70
0
  0
VERTEX
  8
114
 10
16.0000
 20
62.7500
 30
0.0000
  0
VERTEX
  8
114
 10
16.0000
 20
49.2500
 30
0.0000
  0
SEQEND
  8
0
  0
POLYLINE
  8
114
 66
1
 10
0.0000
 20
0.0000
 30
0.0000
 40
0.0750
 41
0.0750
 70
0
  0
VERTEX
  8
114
 10
15.9625
 20
49.2500
 30
0.0000
 42
1.0000
  0
VERTEX
  8
114
 10
16.0375
 20
49.2500
 30
0.0000
  0
SEQEND
  8
0
  0
POLYLINE
  8
114
 66
1
 10
0.0000
 20
0.0000
 30
0.0000
 40
0.0750
 41
0.0750
 70
0
  0
VERTEX
  8
114
 10
16.0375
 20
62.7500
 30
0.0000
 42
1.0000
  0
VERTEX
  8
114
 10
15.9625
 20
62.7500
 30
0.0000
  0
SEQEND
  8
0
  0
POLYLINE
  8
114
 66
1
 10
0.0000
 20
0.0000
 30
0.0000
 40
0.1500
 41
0.1500
 70
0
  0
VERTEX
  8
114
 10
15.7500
 20
49.0000
 30
0.0000
 42
0.4142
  0
VERTEX
  8
114
 10
16.0000
 20
49.2500
 30
0.0000
  0
SEQEND
  8
0
  0
POLYLINE
  8
114
 66
1
 10
0.0000
 20
0.0000
 30
0.0000
 40
0.0750
 41
0.0750
 70
0
  0
VERTEX
  8
114
 10
15.7500
 20
49.0375
 30
0.0000
 42
1.0000
  0
VERTEX
  8
114
 10
15.7500
 20
48.9625
 30
0.0000
  0
SEQEND
  8
0
  0
POLYLINE
  8
114
 66
1
 10
0.0000
 20
0.0000
 30
0.0000
 40
0.0750
 41
0.0750
 70
0
  0
VERTEX
  8
114
 10
16.0375
 20
49.2500
 30
0.0000
 42
1.0000
  0
VERTEX
  8
114
 10
15.9625
 20
49.2500
 30
0.0000
  0
SEQEND
  8
0
  0
POLYLINE
  8
114
 66
1
 10
0.0000
 20
0.0000
 30
0.0000
 40
0.1500
 41
0.1500
 70
0
  0
VERTEX
  8
114
 10
34.7500
 20
53.7500
 30
0.0000
  0
VERTEX
  8
114
 10
21.2500
 20
53.7500
 30
0.0000
  0
SEQEND
  8
0
  0
POLYLINE
  8
114
 66
1
 10
0.0000
 20
0.0000
 30
0.0000
 40
0.0750
 41
0.0750
 70
0
  0
VERTEX
  8
114
 10
21.2500
 20
53.7875
 30
0.0000
 42
1.0000
  0
VERTEX
  8
114
 10
21.2500
 20
53.7125
 30
0.0000
  0
SEQEND
  8
0
  0
POLYLINE
  8
114
 66
1
 10
0.0000
 20
0.0000
 30
0.0000
 40
0.0750
 41
0.0750
 70
0
  0
VERTEX
  8
114
 10
34.7500
 20
53.7125
 30
0.0000
 42
1.0000
  0
VERTEX
  8
114
 10
34.7500
 20
53.7875
 30
0.0000
  0
SEQEND
  8
0
  0
POLYLINE
  8
114
 66
1
 10
0.0000
 20
0.0000
 30
0.0000
 40
0.1500
 41
0.1500
 70
0
  0
VERTEX
  8
114
 10
21.0000
 20
54.0000
 30
0.0000
 42
0.4142
  0
VERTEX
  8
114
 10
21.2500
 20
53.7500
 30
0.0000
  0
SEQEND
  8
0
  0
POLYLINE
  8
114
 66
1
 10
0.0000
 20
0.0000
 30
0.0000
 40
0.0750
 41
0.0750
 70
0
  0
VERTEX
  8
114
 10
21.0375
 20
54.0000
 30
0.0000
 42
1.0000
  0
VERTEX
  8
114
 10
20.9625
 20
54.0000
 30
0.0000
  0
SEQEND
  8
0
  0
POLYLINE
  8
114
 66
1
 10
0.0000
 20
0.0000
 30
0.0000
 40
0.0750
 41
0.0750
 70
0
  0
VERTEX
  8
114
 10
21.2500
 20
53.7125
 30
0.0000
 42
1.0000
  0
VERTEX
  8
114
 10
21.2500
 20
53.7875
 30
0.0000
  0
SEQEND
  8
0
  0
POLYLINE
  8
114
 66
1
 10
0.0000
 20
0.0000
 30
0.0000
 40
0.1500
 41
0.1500
 70
0
  0
VERTEX
  8
114
 10
21.0000
 20
54.0000
 30
0.0000
  0
VERTEX
  8
114
 10
21.0000
 20
67.5000
 30
0.0000
  0
SEQEND
  8
0
  0
POLYLINE
  8
114
 66
1
 10
0.0000
 20
0.0000
 30
0.0000
 40
0.0750
 41
0.0750
 70
0
  0
VERTEX
  8
114
 10
21.0375
 20
67.5000
 30
0.0000
 42
1.0000
  0
VERTEX
  8
114
 10
20.9625
 20
67.5000
 30
0.0000
  0
SEQEND
  8
0
  0
POLYLINE
  8
114
 66
1
 10
0.0000
 20
0.0000
 30
0.0000
 40
0.0750
 41
0.0750
 70
0
  0
VERTEX
  8
114
 10
20.9625
 20
54.0000
 30
0.0000
 42
1.0000
  0
VERTEX
  8
114
 10
21.0375
 20
54.0000
 30
0.0000
  0
SEQEND
  8
0
  0
POLYLINE
  8
114
 66
1
 10
0.0000
 20
0.0000
 30
0.0000
 40
0.1500
 41
0.1500
 70
0
  0
VERTEX
  8
114
 10
21.2500
 20
67.7500
 30
0.0000
 42
0.4142
  0
VERTEX
  8
114
 10
21.0000
 20
67.5000
 30
0.0000
  0
SEQEND
  8
0
  0
POLYLINE
  8
114
 66
1
 10
0.0000
 20
0.0000
 30
0.0000
 40
0.0750
 41
0.0750
 70
0
  0
VERTEX
  8
114
 10
21.2500
 20
67.7125
 30
0.0000
 42
1.0000
  0
VERTEX
  8
114
 10
21.2500
 20
67.7875
 30
0.0000
  0
SEQEND
  8
0
  0
POLYLINE
  8
114
 66
1
 10
0.0000
 20
0.0000
 30
0.0000
 40
0.0750
 41
0.0750
 70
0
  0
VERTEX
  8
114
 10
20.9625
 20
67.5000
 30
0.0000
 42
1.0000
  0
VERTEX
  8
114
 10
21.0375
 20
67.5000
 30
0.0000
  0
SEQEND
  8
0
  0
POLYLINE
  8
114
 66
1
 10
0.0000
 20
0.0000
 30
0.0000
 40
0.1500
 41
0.1500
 70
0
  0
VERTEX
  8
114
 10
21.2500
 20
67.7500
 30
0.0000
  0
VERTEX
  8
114
 10
34.7500
 20
67.7500
 30
0.0000
  0
SEQEND
  8
0
  0
POLYLINE
  8
114
 66
1
 10
0.0000
 20
0.0000
 30
0.0000
 40
0.0750
 41
0.0750
 70
0
  0
VERTEX
  8
114
 10
34.7500
 20
67.7125
 30
0.0000
 42
1.0000
  0
VERTEX
  8
114
 10
34.7500
 20
67.7875
 30
0.0000
  0
SEQEND
  8
0
  0
POLYLINE
  8
114
 66
1
 10
0.0000
 20
0.0000
 30
0.0000
 40
0.0750
 41
0.0750
 70
0
  0
VERTEX
  8
114
 10
21.2500
 20
67.7875
 30
0.0000
 42
1.0000
  0
VERTEX
  8
114
 10
21.2500
 20
67.7125
 30
0.0000
  0
SEQEND
  8
0
  0
POLYLINE
  8
114
 66
1
 10
0.0000
 20
0.0000
 30
0.0000
 40
0.1500
 41
0.1500
 70
0
  0
VERTEX
  8
114
 10
35.0000
 20
67.5000
 30
0.0000
 42
0.4142
  0
VERTEX
  8
114
 10
34.7500
 20
67.7500
 30
0.0000
  0
SEQEND
  8
0
  0
POLYLINE
  8
114
 66
1
 10
0.0000
 20
0.0000
 30
0.0000
 40
0.0750
 41
0.0750
 70
0
  0
VERTEX
  8
114
 10
34.9625
 20
67.5000
 30
0.0000
 42
1.0000
  0
VERTEX
  8
114
 10
35.0375
 20
67.5000
 30
0.0000
  0
SEQEND
  8
0
  0
POLYLINE
  8
114
 66
1
 10
0.0000
 20
0.0000
 30
0.0000
 40
0.0750
 41
0.0750
 70
0
  0
VERTEX
  8
114
 10
34.7500
 20
67.7875
 30
0.0000
 42
1.0000
  0
VERTEX
  8
114
 10
34.7500
 20
67.7125
 30
0.0000
  0
SEQEND
  8
0
  0
POLYLINE
  8
114
 66
1
 10
0.0000
 20
0.0000
 30
0.0000
 40
0.1500
 41
0.1500
 70
0
  0
VERTEX
  8
114
 10
35.0000
 20
67.5000
 30
0.0000
  0
VERTEX
  8
114
 10
35.0000
 20
54.0000
 30
0.0000
  0
SEQEND
  8
0
  0
POLYLINE
  8
114
 66
1
 10
0.0000
 20
0.0000
 30
0.0000
 40
0.0750
 41
0.0750
 70
0
  0
VERTEX
  8
114
 10
34.9625
 20
54.0000
 30
0.0000
 42
1.0000
  0
VERTEX
  8
114
 10
35.0375
 20
54.0000
 30
0.0000
  0
SEQEND
  8
0
  0
POLYLINE
  8
114
 66
1
 10
0.0000
 20
0.0000
 30
0.0000
 40
0.0750
 41
0.0750
 70
0
  0
VERTEX
  8
114
 10
35.0375
 20
67.5000
 30
0.0000
 42
1.0000
  0
VERTEX
  8
114
 10
34.9625
 20
67.5000
 30
0.0000
  0
SEQEND
  8
0
  0
POLYLINE
  8
114
 66
1
 10
0.0000
 20
0.0000
 30
0.0000
 40
0.1500
 41
0.1500
 70
0
  0
VERTEX
  8
114
 10
34.7500
 20
53.7500
 30
0.0000
 42
0.4142
  0
VERTEX
  8
114
 10
35.0000
 20
54.0000
 30
0.0000
  0
SEQEND
  8
0
  0
POLYLINE
  8
114
 66
1
 10
0.0000
 20
0.0000
 30
0.0000
 40
0.0750
 41
0.0750
 70
0
  0
VERTEX
  8
114
 10
34.7500
 20
53.7875
 30
0.0000
 42
1.0000
  0
VERTEX
  8
114
 10
34.7500
 20
53.7125
 30
0.0000
  0
SEQEND
  8
0
  0
POLYLINE
  8
114
 66
1
 10
0.0000
 20
0.0000
 30
0.0000
 40
0.0750
 41
0.0750
 70
0
  0
VERTEX
  8
114
 10
35.0375
 20
54.0000
 30
0.0000
 42
1.0000
  0
VERTEX
  8
114
 10
34.9625
 20
54.0000
 30
0.0000
  0
SEQEND
  8
0
  0
POLYLINE
  8
114
 66
1
 10
0.0000
 20
0.0000
 30
0.0000
 40
0.1500
 41
0.1500
 70
0
  0
VERTEX
  8
114
 10
53.7500
 20
58.5000
 30
0.0000
  0
VERTEX
  8
114
 10
40.2500
 20
58.5000
 30
0.0000
  0
SEQEND
  8
0
  0
POLYLINE
  8
114
 66
1
 10
0.0000
 20
0.0000
 30
0.0000
 40
0.0750
 41
0.0750
 70
0
  0
VERTEX
  8
114
 10
40.2500
 20
58.5375
 30
0.0000
 42
1.0000
  0
VERTEX
  8
114
 10
40.2500
 20
58.4625
 30
0.0000
  0
SEQEND
  8
0
  0
POLYLINE
  8
114
 66
1
 10
0.0000
 20
0.0000
 30
0.0000
 40
0.0750
 41
0.0750
 70
0
  0
VERTEX
  8
114
 10
53.7500
 20
58.4625
 30
0.0000
 42
1.0000
  0
VERTEX
  8
114
 10
53.7500
 20
58.5375
 30
0.0000
  0
SEQEND
  8
0
  0
POLYLINE
  8
114
 66
1
 10
0.0000
 20
0.0000
 30
0.0000
 40
0.1500
 41
0.1500
 70
0
  0
VERTEX
  8
114
 10
40.0000
 20
58.7500
 30
0.0000
 42
0.4142
  0
VERTEX
  8
114
 10
40.2500
 20
58.5000
 30
0.0000
  0
SEQEND
  8
0
  0
POLYLINE
  8
114
 66
1
 10
0.0000
 20
0.0000
 30
0.0000
 40
0.0750
 41
0.0750
 70
0
  0
VERTEX
  8
114
 10
40.0375
 20
58.7500
 30
0.0000
 42
1.0000
  0
VERTEX
  8
114
 10
39.9625
 20
58.7500
 30
0.0000
  0
SEQEND
  8
0
  0
POLYLINE
  8
114
 66
1
 10
0.0000
 20
0.0000
 30
0.0000
 40
0.0750
 41
0.0750
 70
0
  0
VERTEX
  8
114
 10
40.2500
 20
58.4625
 30
0.0000
 42
1.0000
  0
VERTEX
  8
114
 10
40.2500
 20
58.5375
 30
0.0000
  0
SEQEND
  8
0
  0
POLYLINE
  8
114
 66
1
 10
0.0000
 20
0.0000
 30
0.0000
 40
0.1500
 41
0.1500
 70
0
  0
VERTEX
  8
114
 10
40.0000
 20
58.7500
 30
0.0000
  0
VERTEX
  8
114
 10
40.0000
 20
72.2500
 30
0.0000
  0
SEQEND
  8
0
  0
POLYLINE
  8
114
 66
1
 10
0.0000
 20
0.0000
 30
0.0000
 40
0.0750
 41
0.0750
 70
0
  0
VERTEX
  8
114
 10
40.0375
 20
72.2500
 30
0.0000
 42
1.0000
  0
VERTEX
  8
114
 10
39.9625
 20
72.2500
 30
0.0000
  0
SEQEND
  8
0
  0
POLYLINE
  8
114
 66
1
 10
0.0000
 20
0.0000
 30
0.0000
 40
0.0750
 41
0.0750
 70
0
  0
VERTEX
  8
114
 10
39.9625
 20
58.7500
 30
0.0000
 42
1.0000
  0
VERTEX
  8
114
 10
40.0375
 20
58.7500
 30
0.0000
  0
SEQEND
  8
0
  0
POLYLINE
  8
114
 66
1
 10
0.0000
 20
0.0000
 30
0.0000
 40
0.1500
 41
0.1500
 70
0
  0
VERTEX
  8
114
 10
40.2500
 20
72.5000
 30
0.0000
 42
0.4142
  0
VERTEX
  8
114
 10
40.0000
 20
72.2500
 30
0.0000
  0
SEQEND
  8
0
  0
POLYLINE
  8
114
 66
1
 10
0.0000
 20
0.0000
 30
0.0000
 40
0.0750
 41
0.0750
 70
0
  0
VERTEX
  8
114
 10
40.2500
 20
72.4625
 30
0.0000
 42
1.0000
  0
VERTEX
  8
114
 10
40.2500
 20
72.5375
 30
0.0000
  0
SEQEND
  8
0
  0
POLYLINE
  8
114
 66
1
 10
0.0000
 20
0.0000
 30
0.0000
 40
0.0750
 41
0.0750
 70
0
  0
VERTEX
  8
114
 10
39.9625
 20
72.2500
 30
0.0000
 42
1.0000
  0
VERTEX
  8
114
 10
40.0375
 20
72.2500
 30
0.0000
  0
SEQEND
  8
0
  0
POLYLINE
  8
114
 66
1
 10
0.0000
 20
0.0000
 30
0.0000
 40
0.1500
 41
0.1500
 70
0
  0
VERTEX
  8
114
 10
40.2500
 20
72.5000
 30
0.0000
  0
VERTEX
  8
114
 10
53.7500
 20
72.5000
 30
0.0000
  0
SEQEND
  8
0
  0
POLYLINE
  8
114
 66
1
 10
0.0000
 20
0.0000
 30
0.0000
 40
0.0750
 41
0.0750
 70
0
  0
VERTEX
  8
114
 10
53.7500
 20
72.4625
 30
0.0000
 42
1.0000
  0
VERTEX
  8
114
 10
53.7500
 20
72.5375
 30
0.0000
  0
SEQEND
  8
0
  0
POLYLINE
  8
114
 66
1
 10
0.0000
 20
0.0000
 30
0.0000
 40
0.0750
 41
0.0750
 70
0
  0
VERTEX
  8
114
 10
40.2500
 20
72.5375
 30
0.0000
 42
1.0000
  0
VERTEX
  8
114
 10
40.2500
 20
72.4625
 30
0.0000
  0
SEQEND
  8
0
  0
POLYLINE
  8
114
 66
1
 10
0.0000
 20
0.0000
 30
0.0000
 40
0.1500
 41
0.1500
 70
0
  0
VERTEX
  8
114
 10
54.0000
 20
72.2500
 30
0.0000
 42
0.4142
  0
VERTEX
  8
114
 10
53.7500
 20
72.5000
 30
0.0000
  0
SEQEND
  8
0
  0
POLYLINE
  8
114
 66
1
 10
0.0000
 20
0.0000
 30
0.0000
 40
0.0750
 41
0.0750
 70
0
  0
VERTEX
  8
114
 10
53.9625
 20
72.2500
 30
0.0000
 42
1.0000
  0
VERTEX
  8
114
 10
54.0375
 20
72.2500
 30
0.0000
  0
SEQEND
  8
0
  0
POLYLINE
  8
114
 66
1
 10
0.0000
 20
0.0000
 30
0.0000
 40
0.0750
 41
0.0750
 70
0
  0
VERTEX
  8
114
 10
53.7500
 20
72.5375
 30
0.0000
 42
1.0000
  0
VERTEX
  8
114
 10
53.7500
 20
72.4625
 30
0.0000
  0
SEQEND
  8
0
  0
POLYLINE
  8
114
 66
1
 10
0.0000
 20
0.0000
 30
0.0000
 40
0.1500
 41
0.1500
 70
0
  0
VERTEX
  8
114
 10
54.0000
 20
72.2500
 30
0.0000
  0
VERTEX
  8
114
 10
54.0000
 20
58.7500
 30
0.0000
  0
SEQEND
  8
0
  0
POLYLINE
  8
114
 66
1
 10
0.0000
 20
0.0000
 30
0.0000
 40
0.0750
 41
0.0750
 70
0
  0
VERTEX
  8
114
 10
53.9625
 20
58.7500
 30
0.0000
 42
1.0000
  0
VERTEX
  8
114
 10
54.0375
 20
58.7500
 30
0.0000
  0
SEQEND
  8
0
  0
POLYLINE
  8
114
 66
1
 10
0.0000
 20
0.0000
 30
0.0000
 40
0.0750
 41
0.0750
 70
0
  0
VERTEX
  8
114
 10
54.0375
 20
72.2500
 30
0.0000
 42
1.0000
  0
VERTEX
  8
114
 10
53.9625
 20
72.2500
 30
0.0000
  0
SEQEND
  8
0
  0
POLYLINE
  8
114
 66
1
 10
0.0000
 20
0.0000
 30
0.0000
 40
0.1500
 41
0.1500
 70
0
  0
VERTEX
  8
114
 10
53.7500
 20
58.5000
 30
0.0000
 42
0.4142
  0
VERTEX
  8
114
 10
54.0000
 20
58.7500
 30
0.0000
  0
SEQEND
  8
0
  0
POLYLINE
  8
114
 66
1
 10
0.0000
 20
0.0000
 30
0.0000
 40
0.0750
 41
0.0750
 70
0
  0
VERTEX
  8
114
 10
53.7500
 20
58.5375
 30
0.0000
 42
1.0000
  0
VERTEX
  8
114
 10
53.7500
 20
58.4625
 30
0.0000
  0
SEQEND
  8
0
  0
POLYLINE
  8
114
 66
1
 10
0.0000
 20
0.0000
 30
0.0000
 40
0.0750
 41
0.0750
 70
0
  0
VERTEX
  8
114
 10
54.0375
 20
58.7500
 30
0.0000
 42
1.0000
  0
VERTEX
  8
114
 10
53.9625
 20
58.7500
 30
0.0000
  0
SEQEND
  8
0
  0
POLYLINE
  8
114
 66
1
 10
0.0000
 20
0.0000
 30
0.0000
 40
0.1500
 41
0.1500
 70
0
  0
VERTEX
  8
114
 10
72.7500
 20
53.7500
 30
0.0000
  0
VERTEX
  8
114
 10
59.2500
 20
53.7500
 30
0.0000
  0
SEQEND
  8
0
  0
POLYLINE
  8
114
 66
1
 10
0.0000
 20
0.0000
 30
0.0000
 40
0.0750
 41
0.0750
 70
0
  0
VERTEX
  8
114
 10
59.2500
 20
53.7875
 30
0.0000
 42
1.0000
  0
VERTEX
  8
114
 10
59.2500
 20
53.7125
 30
0.0000
  0
SEQEND
  8
0
  0
POLYLINE
  8
114
 66
1
 10
0.0000
 20
0.0000
 30
0.0000
 40
0.0750
 41
0.0750
 70
0
  0
VERTEX
  8
114
 10
72.7500
 20
53.7125
 30
0.0000
 42
1.0000
  0
VERTEX
  8
114
 10
72.7500
 20
53.7875
 30
0.0000
  0
SEQEND
  8
0
  0
POLYLINE
  8
114
 66
1
 10
0.0000
 20
0.0000
 30
0.0000
 40
0.1500
 41
0.1500
 70
0
  0
VERTEX
  8
114
 10
59.0000
 20
54.0000
 30
0.0000
 42
0.4142
  0
VERTEX
  8
114
 10
59.2500
 20
53.7500
 30
0.0000
  0
SEQEND
  8
0
  0
POLYLINE
  8
114
 66
1
 10
0.0000
 20
0.0000
 30
0.0000
 40
0.0750
 41
0.0750
 70
0
  0
VERTEX
  8
114
 10
59.0375
 20
54.0000
 30
0.0000
 42
1.0000
  0
VERTEX
  8
114
 10
58.9625
 20
54.0000
 30
0.0000
  0
SEQEND
  8
0
  0
POLYLINE
  8
114
 66
1
 10
0.0000
 20
0.0000
 30
0.0000
 40
0.0750
 41
0.0750
 70
0
  0
VERTEX
  8
114
 10
59.2500
 20
53.7125
 30
0.0000
 42
1.0000
  0
VERTEX
  8
114
 10
59.2500
 20
53.7875
 30
0.0000
  0
SEQEND
  8
0
  0
POLYLINE
  8
114
 66
1
 10
0.0000
 20
0.0000
 30
0.0000
 40
0.1500
 41
0.1500
 70
0
  0
VERTEX
  8
114
 10
59.0000
 20
54.0000
 30
0.0000
  0
VERTEX
  8
114
 10
59.0000
 20
67.5000
 30
0.0000
  0
SEQEND
  8
0
  0
POLYLINE
  8
114
 66
1
 10
0.0000
 20
0.0000
 30
0.0000
 40
0.0750
 41
0.0750
 70
0
  0
VERTEX
  8
114
 10
59.0375
 20
67.5000
 30
0.0000
 42
1.0000
  0
VERTEX
  8
114
 10
58.9625
 20
67.5000
 30
0.0000
  0
SEQEND
  8
0
  0
POLYLINE
  8
114
 66
1
 10
0.0000
 20
0.0000
 30
0.0000
 40
0.0750
 41
0.0750
 70
0
  0
VERTEX
  8
114
 10
58.9625
 20
54.0000
 30
0.0000
 42
1.0000
  0
VERTEX
  8
114
 10
59.0375
 20
54.0000
 30
0.0000
  0
SEQEND
  8
0
  0
POLYLINE
  8
114
 66
1
 10
0.0000
 20
0.0000
 30
0.0000
 40
0.1500
 41
0.1500
 70
0
  0
VERTEX
  8
114
 10
59.2500
 20
67.7500
 30
0.0000
 42
0.4142
  0
VERTEX
  8
114
 10
59.0000
 20
67.5000
 30
0.0000
  0
SEQEND
  8
0
  0
POLYLINE
  8
114
 66
1
 10
0.0000
 20
0.0000
 30
0.0000
 40
0.0750
 41
0.0750
 70
0
  0
VERTEX
  8
114
 10
59.2500
 20
67.7125
 30
0.0000
 42
1.0000
  0
VERTEX
  8
114
 10
59.2500
 20
67.7875
 30
0.0000
  0
SEQEND
  8
0
  0
POLYLINE
  8
114
 66
1
 10
0.0000
 20
0.0000
 30
0.0000
 40
0.0750
 41
0.0750
 70
0
  0
VERTEX
  8
114
 10
58.9625
 20
67.5000
 30
0.0000
 42
1.0000
  0
VERTEX
  8
114
 10
59.0375
 20
67.5000
 30
0.0000
  0
SEQEND
  8
0
  0
POLYLINE
  8
114
 66
1
 10
0.0000
 20
0.0000
 30
0.0000
 40
0.1500
 41
0.1500
 70
0
  0
VERTEX
  8
114
 10
59.2500
 20
67.7500
 30
0.0000
  0
VERTEX
  8
114
 10
72.7500
 20
67.7500
 30
0.0000
  0
SEQEND
  8
0
  0
POLYLINE
  8
114
 66
1
 10
0.0000
 20
0.0000
 30
0.0000
 40
0.0750
 41
0.0750
 70
0
  0
VERTEX
  8
114
 10
72.7500
 20
67.7125
 30
0.0000
 42
1.0000
  0
VERTEX
  8
114
 10
72.7500
 20
67.7875
 30
0.0000
  0
SEQEND
  8
0
  0
POLYLINE
  8
114
 66
1
 10
0.0000
 20
0.0000
 30
0.0000
 40
0.0750
 41
0.0750
 70
0
  0
VERTEX
  8
114
 10
59.2500
 20
67.7875
 30
0.0000
 42
1.0000
  0
VERTEX
  8
114
 10
59.2500
 20
67.7125
 30
0.0000
  0
SEQEND
  8
0
  0
POLYLINE
  8
114
 66
1
 10
0.0000
 20
0.0000
 30
0.0000
 40
0.1500
 41
0.1500
 70
0
  0
VERTEX
  8
114
 10
73.0000
 20
67.5000
 30
0.0000
 42
0.4142
  0
VERTEX
  8
114
 10
72.7500
 20
67.7500
 30
0.0000
  0
SEQEND
  8
0
  0
POLYLINE
  8
114
 66
1
 10
0.0000
 20
0.0000
 30
0.0000
 40
0.0750
 41
0.0750
 70
0
  0
VERTEX
  8
114
 10
72.9625
 20
67.5000
 30
0.0000
 42
1.0000
  0
VERTEX
  8
114
 10
73.0375
 20
67.5000
 30
0.0000
  0
SEQEND
  8
0
  0
POLYLINE
  8
114
 66
1
 10
0.0000
 20
0.0000
 30
0.0000
 40
0.0750
 41
0.0750
 70
0
  0
VERTEX
  8
114
 10
72.7500
 20
67.7875
 30
0.0000
 42
1.0000
  0
VERTEX
  8
114
 10
72.7500
 20
67.7125
 30
0.0000
  0
SEQEND
  8
0
  0
POLYLINE
  8
114
 66
1
 10
0.0000
 20
0.0000
 30
0.0000
 40
0.1500
 41
0.1500
 70
0
  0
VERTEX
  8
114
 10
73.0000
 20
67.5000
 30
0.0000
  0
VERTEX
  8
114
 10
73.0000
 20
54.0000
 30
0.0000
  0
SEQEND
  8
0
  0
POLYLINE
  8
114
 66
1
 10
0.0000
 20
0.0000
 30
0.0000
 40
0.0750
 41
0.0750
 70
0
  0
VERTEX
  8
114
 10
72.9625
 20
54.0000
 30
0.0000
 42
1.0000
  0
VERTEX
  8
114
 10
73.0375
 20
54.0000
 30
0.0000
  0
SEQEND
  8
0
  0
POLYLINE
  8
114
 66
1
 10
0.0000
 20
0.0000
 30
0.0000
 40
0.0750
 41
0.0750
 70
0
  0
VERTEX
  8
114
 10
73.0375
 20
67.5000
 30
0.0000
 42
1.0000
  0
VERTEX
  8
114
 10
72.9625
 20
67.5000
 30
0.0000
  0
SEQEND
  8
0
  0
POLYLINE
  8
114
 66
1
 10
0.0000
 20
0.0000
 30
0.0000
 40
0.1500
 41
0.1500
 70
0
  0
VERTEX
  8
114
 10
72.7500
 20
53.7500
 30
0.0000
 42
0.4142
  0
VERTEX
  8
114
 10
73.0000
 20
54.0000
 30
0.0000
  0
SEQEND
  8
0
  0
POLYLINE
  8
114
 66
1
 10
0.0000
 20
0.0000
 30
0.0000
 40
0.0750
 41
0.0750
 70
0
  0
VERTEX
  8
114
 10
72.7500
 20
53.7875
 30
0.0000
 42
1.0000
  0
VERTEX
  8
114
 10
72.7500
 20
53.7125
 30
0.0000
  0
SEQEND
  8
0
  0
POLYLINE
  8
114
 66
1
 10
0.0000
 20
0.0000
 30
0.0000
 40
0.0750
 41
0.0750
 70
0
  0
VERTEX
  8
114
 10
73.0375
 20
54.0000
 30
0.0000
 42
1.0000
  0
VERTEX
  8
114
 10
72.9625
 20
54.0000
 30
0.0000
  0
SEQEND
  8
0
  0
POLYLINE
  8
114
 66
1
 10
0.0000
 20
0.0000
 30
0.0000
 40
0.1500
 41
0.1500
 70
0
  0
VERTEX
  8
114
 10
91.7500
 20
49.0000
 30
0.0000
  0
VERTEX
  8
114
 10
78.2500
 20
49.0000
 30
0.0000
  0
SEQEND
  8
0
  0
POLYLINE
  8
114
 66
1
 10
0.0000
 20
0.0000
 30
0.0000
 40
0.0750
 41
0.0750
 70
0
  0
VERTEX
  8
114
 10
78.2500
 20
49.0375
 30
0.0000
 42
1.0000
  0
VERTEX
  8
114
 10
78.2500
 20
48.9625
 30
0.0000
  0
SEQEND
  8
0
  0
POLYLINE
  8
114
 66
1
 10
0.0000
 20
0.0000
 30
0.0000
 40
0.0750
 41
0.0750
 70
0
  0
VERTEX
  8
114
 10
91.7500
 20
48.9625
 30
0.0000
 42
1.0000
  0
VERTEX
  8
114
 10
91.7500
 20
49.0375
 30
0.0000
  0
SEQEND
  8
0
  0
POLYLINE
  8
114
 66
1
 10
0.0000
 20
0.0000
 30
0.0000
 40
0.1500
 41
0.1500
 70
0
  0
VERTEX
  8
114
 10
78.0000
 20
49.2500
 30
0.0000
 42
0.4142
  0
VERTEX
  8
114
 10
78.2500
 20
49.0000
 30
0.0000
  0
SEQEND
  8
0
  0
POLYLINE
  8
114
 66
1
 10
0.0000
 20
0.0000
 30
0.0000
 40
0.0750
 41
0.0750
 70
0
  0
VERTEX
  8
114
 10
78.0375
 20
49.2500
 30
0.0000
 42
1.0000
  0
VERTEX
  8
114
 10
77.9625
 20
49.2500
 30
0.0000
  0
SEQEND
  8
0
  0
POLYLINE
  8
114
 66
1
 10
0.0000
 20
0.0000
 30
0.0000
 40
0.0750
 41
0.0750
 70
0
  0
VERTEX
  8
114
 10
78.2500
 20
48.9625
 30
0.0000
 42
1.0000
  0
VERTEX
  8
114
 10
78.2500
 20
49.0375
 30
0.0000
  0
SEQEND
  8
0
  0
POLYLINE
  8
114
 66
1
 10
0.0000
 20
0.0000
 30
0.0000
 40
0.1500
 41
0.1500
 70
0
  0
VERTEX
  8
114
 10
78.0000
 20
49.2500
 30
0.0000
  0
VERTEX
  8
114
 10
78.0000
 20
62.7500
 30
0.0000
  0
SEQEND
  8
0
  0
POLYLINE
  8
114
 66
1
 10
0.0000
 20
0.0000
 30
0.0000
 40
0.0750
 41
0.0750
 70
0
  0
VERTEX
  8
114
 10
78.0375
 20
62.7500
 30
0.0000
 42
1.0000
  0
VERTEX
  8
114
 10
77.9625
 20
62.7500
 30
0.0000
  0
SEQEND
  8
0
  0
POLYLINE
  8
114
 66
1
 10
0.0000
 20
0.0000
 30
0.0000
 40
0.0750
 41
0.0750
 70
0
  0
VERTEX
  8
114
 10
77.9625
 20
49.2500
 30
0.0000
 42
1.0000
  0
VERTEX
  8
114
 10
78.0375
 20
49.2500
 30
0.0000
  0
SEQEND
  8
0
  0
POLYLINE
  8
114
 66
1
 10
0.0000
 20
0.0000
 30
0.0000
 40
0.1500
 41
0.1500
 70
0
  0
VERTEX
  8
114
 10
78.2500
 20
63.0000
 30
0.0000
 42
0.4142
  0
VERTEX
  8
114
 10
78.0000
 20
62.7500
 30
0.0000
  0
SEQEND
  8
0
  0
POLYLINE
  8
114
 66
1
 10
0.0000
 20
0.0000
 30
0.0000
 40
0.0750
 41
0.0750
 70
0
  0
VERTEX
  8
114
 10
78.2500
 20
62.9625
 30
0.0000
 42
1.0000
  0
VERTEX
  8
114
 10
78.2500
 20
63.0375
 30
0.0000
  0
SEQEND
  8
0
  0
POLYLINE
  8
114
 66
1
 10
0.0000
 20
0.0000
 30
0.0000
 40
0.0750
 41
0.0750
 70
0
  0
VERTEX
  8
114
 10
77.9625
 20
62.7500
 30
0.0000
 42
1.0000
  0
VERTEX
  8
114
 10
78.0375
 20
62.7500
 30
0.0000
  0
SEQEND
  8
0
  0
POLYLINE
  8
114
 66
1
 10
0.0000
 20
0.0000
 30
0.0000
 40
0.1500
 41
0.1500
 70
0
  0
VERTEX
  8
114
 10
78.2500
 20
63.0000
 30
0.0000
  0
VERTEX
  8
114
 10
91.7500
 20
63.0000
 30
0.0000
  0
SEQEND
  8
0
  0
POLYLINE
  8
114
 66
1
 10
0.0000
 20
0.0000
 30
0.0000
 40
0.0750
 41
0.0750
 70
0
  0
VERTEX
  8
114
 10
91.7500
 20
62.9625
 30
0.0000
 42
1.0000
  0
VERTEX
  8
114
 10
91.7500
 20
63.0375
 30
0.0000
  0
SEQEND
  8
0
  0
POLYLINE
  8
114
 66
1
 10
0.0000
 20
0.0000
 30
0.0000
 40
0.0750
 41
0.0750
 70
0
  0
VERTEX
  8
114
 10
78.2500
 20
63.0375
 30
0.0000
 42
1.0000
  0
VERTEX
  8
114
 10
78.2500
 20
62.9625
 30
0.0000
  0
SEQEND
  8
0
  0
POLYLINE
  8
114
 66
1
 10
0.0000
 20
0.0000
 30
0.0000
 40
0.1500
 41
0.1500
 70
0
  0
VERTEX
  8
114
 10
92.0000
 20
62.7500
 30
0.0000
 42
0.4142
  0
VERTEX
  8
114
 10
91.7500
 20
63.0000
 30
0.0000
  0
SEQEND
  8
0
  0
POLYLINE
  8
114
 66
1
 10
0.0000
 20
0.0000
 30
0.0000
 40
0.0750
 41
0.0750
 70
0
  0
VERTEX
  8
114
 10
91.9625
 20
62.7500
 30
0.0000
 42
1.0000
  0
VERTEX
  8
114
 10
92.0375
 20
62.7500
 30
0.0000
  0
SEQEND
  8
0
  0
POLYLINE
  8
114
 66
1
 10
0.0000
 20
0.0000
 30
0.0000
 40
0.0750
 41
0.0750
 70
0
  0
VERTEX
  8
114
 10
91.7500
 20
63.0375
 30
0.0000
 42
1.0000
  0
VERTEX
  8
114
 10
91.7500
 20
62.9625
 30
0.0000
  0
SEQEND
  8
0
  0
POLYLINE
  8
114
 66
1
 10
0.0000
 20
0.0000
 30
0.0000
 40
0.1500
 41
0.1500
 70
0
  0
VERTEX
  8
114
 10
92.0000
 20
62.7500
 30
0.0000
  0
VERTEX
  8
114
 10
92.0000
 20
49.2500
 30
0.0000
  0
SEQEND
  8
0
  0
POLYLINE
  8
114
 66
1
 10
0.0000
 20
0.0000
 30
0.0000
 40
0.0750
 41
0.0750
 70
0
  0
VERTEX
  8
114
 10
91.9625
 20
49.2500
 30
0.0000
 42
1.0000
  0
VERTEX
  8
114
 10
92.0375
 20
49.2500
 30
0.0000
  0
SEQEND
  8
0
  0
POLYLINE
  8
114
 66
1
 10
0.0000
 20
0.0000
 30
0.0000
 40
0.0750
 41
0.0750
 70
0
  0
VERTEX
  8
114
 10
92.0375
 20
62.7500
 30
0.0000
 42
1.0000
  0
VERTEX
  8
114
 10
91.9625
 20
62.7500
 30
0.0000
  0
SEQEND
  8
0
  0
POLYLINE
  8
114
 66
1
 10
0.0000
 20
0.0000
 30
0.0000
 40
0.1500
 41
0.1500
 70
0
  0
VERTEX
  8
114
 10
91.7500
 20
49.0000
 30
0.0000
 42
0.4142
  0
VERTEX
  8
114
 10
92.0000
 20
49.2500
 30
0.0000
  0
SEQEND
  8
0
  0
POLYLINE
  8
114
 66
1
 10
0.0000
 20
0.0000
 30
0.0000
 40
0.0750
 41
0.0750
 70
0
  0
VERTEX
  8
114
 10
91.7500
 20
49.0375
 30
0.0000
 42
1.0000
  0
VERTEX
  8
114
 10
91.7500
 20
48.9625
 30
0.0000
  0
SEQEND
  8
0
  0
POLYLINE
  8
114
 66
1
 10
0.0000
 20
0.0000
 30
0.0000
 40
0.0750
 41
0.0750
 70
0
  0
VERTEX
  8
114
 10
92.0375
 20
49.2500
 30
0.0000
 42
1.0000
  0
VERTEX
  8
114
 10
91.9625
 20
49.2500
 30
0.0000
  0
SEQEND
  8
0
  0
POLYLINE
  8
114
 66
1
 10
0.0000
 20
0.0000
 30
0.0000
 40
0.1500
 41
0.1500
 70
0
  0
VERTEX
  8
114
 10
110.7500
 20
63.2500
 30
0.0000
  0
VERTEX
  8
114
 10
97.2500
 20
63.2500
 30
0.0000
  0
SEQEND
  8
0
  0
POLYLINE
  8
114
 66
1
 10
0.0000
 20
0.0000
 30
0.0000
 40
0.0750
 41
0.0750
 70
0
  0
VERTEX
  8
114
 10
97.2500
 20
63.2875
 30
0.0000
 42
1.0000
  0
VERTEX
  8
114
 10
97.2500
 20
63.2125
 30
0.0000
  0
SEQEND
  8
0
  0
POLYLINE
  8
114
 66
1
 10
0.0000
 20
0.0000
 30
0.0000
 40
0.0750
 41
0.0750
 70
0
  0
VERTEX
  8
114
 10
110.7500
 20
63.2125
 30
0.0000
 42
1.0000
  0
VERTEX
  8
114
 10
110.7500
 20
63.2875
 30
0.0000
  0
SEQEND
  8
0
  0
POLYLINE
  8
114
 66
1
 10
0.0000
 20
0.0000
 30
0.0000
 40
0.1500
 41
0.1500
 70
0
  0
VERTEX
  8
114
 10
97.0000
 20
63.5000
 30
0.0000
 42
0.4142
  0
VERTEX
  8
114
 10
97.2500
 20
63.2500
 30
0.0000
  0
SEQEND
  8
0
  0
POLYLINE
  8
114
 66
1
 10
0.0000
 20
0.0000
 30
0.0000
 40
0.0750
 41
0.0750
 70
0
  0
VERTEX
  8
114
 10
97.0375
 20
63.5000
 30
0.0000
 42
1.0000
  0
VERTEX
  8
114
 10
96.9625
 20
63.5000
 30
0.0000
  0
SEQEND
  8
0
  0
POLYLINE
  8
114
 66
1
 10
0.0000
 20
0.0000
 30
0.0000
 40
0.0750
 41
0.0750
 70
0
  0
VERTEX
  8
114
 10
97.2500
 20
63.2125
 30
0.0000
 42
1.0000
  0
VERTEX
  8
114
 10
97.2500
 20
63.2875
 30
0.0000
  0
SEQEND
  8
0
  0
POLYLINE
  8
114
 66
1
 10
0.0000
 20
0.0000
 30
0.0000
 40
0.1500
 41
0.1500
 70
0
  0
VERTEX
  8
114
 10
97.0000
 20
63.5000
 30
0.0000
  0
VERTEX
  8
114
 10
97.0000
 20
77.0000
 30
0.0000
  0
SEQEND
  8
0
  0
POLYLINE
  8
114
 66
1
 10
0.0000
 20
0.0000
 30
0.0000
 40
0.0750
 41
0.0750
 70
0
  0
VERTEX
  8
114
 10
97.0375
 20
77.0000
 30
0.0000
 42
1.0000
  0
VERTEX
  8
114
 10
96.9625
 20
77.0000
 30
0.0000
  0
SEQEND
  8
0
  0
POLYLINE
  8
114
 66
1
 10
0.0000
 20
0.0000
 30
0.0000
 40
0.0750
 41
0.0750
 70
0
  0
VERTEX
  8
114
 10
96.9625
 20
63.5000
 30
0.0000
 42
1.0000
  0
VERTEX
  8
114
 10
97.0375
 20
63.5000
 30
0.0000
  0
SEQEND
  8
0
  0
POLYLINE
  8
114
 66
1
 10
0.0000
 20
0.0000
 30
0.0000
 40
0.1500
 41
0.1500
 70
0
  0
VERTEX
  8
114
 10
97.2500
 20
77.2500
 30
0.0000
 42
0.4142
  0
VERTEX
  8
114
 10
97.0000
 20
77.0000
 30
0.0000
  0
SEQEND
  8
0
  0
POLYLINE
  8
114
 66
1
 10
0.0000
 20
0.0000
 30
0.0000
 40
0.0750
 41
0.0750
 70
0
  0
VERTEX
  8
114
 10
97.2500
 20
77.2125
 30
0.0000
 42
1.0000
  0
VERTEX
  8
114
 10
97.2500
 20
77.2875
 30
0.0000
  0
SEQEND
  8
0
  0
POLYLINE
  8
114
 66
1
 10
0.0000
 20
0.0000
 30
0.0000
 40
0.0750
 41
0.0750
 70
0
  0
VERTEX
  8
114
 10
96.9625
 20
77.0000
 30
0.0000
 42
1.0000
  0
VERTEX
  8
114
 10
97.0375
 20
77.0000
 30
0.0000
  0
SEQEND
  8
0
  0
POLYLINE
  8
114
 66
1
 10
0.0000
 20
0.0000
 30
0.0000
 40
0.1500
 41
0.1500
 70
0
  0
VERTEX
  8
114
 10
97.2500
 20
77.2500
 30
0.0000
  0
VERTEX
  8
114
 10
110.7500
 20
77.2500
 30
0.0000
  0
SEQEND
  8
0
  0
POLYLINE
  8
114
 66
1
 10
0.0000
 20
0.0000
 30
0.0000
 40
0.0750
 41
0.0750
 70
0
  0
VERTEX
  8
114
 10
110.7500
 20
77.2125
 30
0.0000
 42
1.0000
  0
VERTEX
  8
114
 10
110.7500
 20
77.2875
 30
0.0000
  0
SEQEND
  8
0
  0
POLYLINE
  8
114
 66
1
 10
0.0000
 20
0.0000
 30
0.0000
 40
0.0750
 41
0.0750
 70
0
  0
VERTEX
  8
114
 10
97.2500
 20
77.2875
 30
0.0000
 42
1.0000
  0
VERTEX
  8
114
 10
97.2500
 20
77.2125
 30
0.0000
  0
SEQEND
  8
0
  0
POLYLINE
  8
114
 66
1
 10
0.0000
 20
0.0000
 30
0.0000
 40
0.1500
 41
0.1500
 70
0
  0
VERTEX
  8
114
 10
111.0000
 20
77.0000
 30
0.0000
 42
0.4142
  0
VERTEX
  8
114
 10
110.7500
 20
77.2500
 30
0.0000
  0
SEQEND
  8
0
  0
POLYLINE
  8
114
 66
1
 10
0.0000
 20
0.0000
 30
0.0000
 40
0.0750
 41
0.0750
 70
0
  0
VERTEX
  8
114
 10
110.9625
 20
77.0000
 30
0.0000
 42
1.0000
  0
VERTEX
  8
114
 10
111.0375
 20
77.0000
 30
0.0000
  0
SEQEND
  8
0
  0
POLYLINE
  8
114
 66
1
 10
0.0000
 20
0.0000
 30
0.0000
 40
0.0750
 41
0.0750
 70
0
  0
VERTEX
  8
114
 10
110.7500
 20
77.2875
 30
0.0000
 42
1.0000
  0
VERTEX
  8
114
 10
110.7500
 20
77.2125
 30
0.0000
  0
SEQEND
  8
0
  0
POLYLINE
  8
114
 66
1
 10
0.0000
 20
0.0000
 30
0.0000
 40
0.1500
 41
0.1500
 70
0
  0
VERTEX
  8
114
 10
111.0000
 20
77.0000
 30
0.0000
  0
VERTEX
  8
114
 10
111.0000
 20
63.5000
 30
0.0000
  0
SEQEND
  8
0
  0
POLYLINE
  8
114
 66
1
 10
0.0000
 20
0.0000
 30
0.0000
 40
0.0750
 41
0.0750
 70
0
  0
VERTEX
  8
114
 10
110.9625
 20
63.5000
 30
0.0000
 42
1.0000
  0
VERTEX
  8
114
 10
111.0375
 20
63.5000
 30
0.0000
  0
SEQEND
  8
0
  0
POLYLINE
  8
114
 66
1
 10
0.0000
 20
0.0000
 30
0.0000
 40
0.0750
 41
0.0750
 70
0
  0
VERTEX
  8
114
 10
111.0375
 20
77.0000
 30
0.0000
 42
1.0000
  0
VERTEX
  8
114
 10
110.9625
 20
77.0000
 30
0.0000
  0
SEQEND
  8
0
  0
POLYLINE
  8
114
 66
1
 10
0.0000
 20
0.0000
 30
0.0000
 40
0.1500
 41
0.1500
 70
0
  0
VERTEX
  8
114
 10
110.7500
 20
63.2500
 30
0.0000
 42
0.4142
  0
VERTEX
  8
114
 10
111.0000
 20
63.5000
 30
0.0000
  0
SEQEND
  8
0
  0
POLYLINE
  8
114
 66
1
 10
0.0000
 20
0.0000
 30
0.0000
 40
0.0750
 41
0.0750
 70
0
  0
VERTEX
  8
114
 10
110.7500
 20
63.2875
 30
0.0000
 42
1.0000
  0
VERTEX
  8
114
 10
110.7500
 20
63.2125
 30
0.0000
  0
SEQEND
  8
0
  0
POLYLINE
  8
114
 66
1
 10
0.0000
 20
0.0000
 30
0.0000
 40
0.0750
 41
0.0750
 70
0
  0
VERTEX
  8
114
 10
111.0375
 20
63.5000
 30
0.0000
 42
1.0000
  0
VERTEX
  8
114
 10
110.9625
 20
63.5000
 30
0.0000
  0
SEQEND
  8
0
  0
POLYLINE
  8
114
 66
1
 10
0.0000
 20
0.0000
 30
0.0000
 40
0.1500
 41
0.1500
 70
0
  0
VERTEX
  8
114
 10
110.7500
 20
44.2500
 30
0.0000
  0
VERTEX
  8
114
 10
97.2500
 20
44.2500
 30
0.0000
  0
SEQEND
  8
0
  0
POLYLINE
  8
114
 66
1
 10
0.0000
 20
0.0000
 30
0.0000
 40
0.0750
 41
0.0750
 70
0
  0
VERTEX
  8
114
 10
97.2500
 20
44.2875
 30
0.0000
 42
1.0000
  0
VERTEX
  8
114
 10
97.2500
 20
44.2125
 30
0.0000
  0
SEQEND
  8
0
  0
POLYLINE
  8
114
 66
1
 10
0.0000
 20
0.0000
 30
0.0000
 40
0.0750
 41
0.0750
 70
0
  0
VERTEX
  8
114
 10
110.7500
 20
44.2125
 30
0.0000
 42
1.0000
  0
VERTEX
  8
114
 10
110.7500
 20
44.2875
 30
0.0000
  0
SEQEND
  8
0
  0
POLYLINE
  8
114
 66
1
 10
0.0000
 20
0.0000
 30
0.0000
 40
0.1500
 41
0.1500
 70
0
  0
VERTEX
  8
114
 10
97.0000
 20
44.5000
 30
0.0000
 42
0.4142
  0
VERTEX
  8
114
 10
97.2500
 20
44.2500
 30
0.0000
  0
SEQEND
  8
0
  0
POLYLINE
  8
114
 66
1
 10
0.0000
 20
0.0000
 30
0.0000
 40
0.0750
 41
0.0750
 70
0
  0
VERTEX
  8
114
 10
97.0375
 20
44.5000
 30
0.0000
 42
1.0000
  0
VERTEX
  8
114
 10
96.9625
 20
44.5000
 30
0.0000
  0
SEQEND
  8
0
  0
POLYLINE
  8
114
 66
1
 10
0.0000
 20
0.0000
 30
0.0000
 40
0.0750
 41
0.0750
 70
0
  0
VERTEX
  8
114
 10
97.2500
 20
44.2125
 30
0.0000
 42
1.0000
  0
VERTEX
  8
114
 10
97.2500
 20
44.2875
 30
0.0000
  0
SEQEND
  8
0
  0
POLYLINE
  8
114
 66
1
 10
0.0000
 20
0.0000
 30
0.0000
 40
0.1500
 41
0.1500
 70
0
  0
VERTEX
  8
114
 10
97.0000
 20
44.5000
 30
0.0000
  0
VERTEX
  8
114
 10
97.0000
 20
58.0000
 30
0.0000
  0
SEQEND
  8
0
  0
POLYLINE
  8
114
 66
1
 10
0.0000
 20
0.0000
 30
0.0000
 40
0.0750
 41
0.0750
 70
0
  0
VERTEX
  8
114
 10
97.0375
 20
58.0000
 30
0.0000
 42
1.0000
  0
VERTEX
  8
114
 10
96.9625
 20
58.0000
 30
0.0000
  0
SEQEND
  8
0
  0
POLYLINE
  8
114
 66
1
 10
0.0000
 20
0.0000
 30
0.0000
 40
0.0750
 41
0.0750
 70
0
  0
VERTEX
  8
114
 10
96.9625
 20
44.5000
 30
0.0000
 42
1.0000
  0
VERTEX
  8
114
 10
97.0375
 20
44.5000
 30
0.0000
  0
SEQEND
  8
0
  0
POLYLINE
  8
114
 66
1
 10
0.0000
 20
0.0000
 30
0.0000
 40
0.1500
 41
0.1500
 70
0
  0
VERTEX
  8
114
 10
97.2500
 20
58.2500
 30
0.0000
 42
0.4142
  0
VERTEX
  8
114
 10
97.0000
 20
58.0000
 30
0.0000
  0
SEQEND
  8
0
  0
POLYLINE
  8
114
 66
1
 10
0.0000
 20
0.0000
 30
0.0000
 40
0.0750
 41
0.0750
 70
0
  0
VERTEX
  8
114
 10
97.2500
 20
58.2125
 30
0.0000
 42
1.0000
  0
VERTEX
  8
114
 10
97.2500
 20
58.2875
 30
0.0000
  0
SEQEND
  8
0
  0
POLYLINE
  8
114
 66
1
 10
0.0000
 20
0.0000
 30
0.0000
 40
0.0750
 41
0.0750
 70
0
  0
VERTEX
  8
114
 10
96.9625
 20
58.0000
 30
0.0000
 42
1.0000
  0
VERTEX
  8
114
 10
97.0375
 20
58.0000
 30
0.0000
  0
SEQEND
  8
0
  0
POLYLINE
  8
114
 66
1
 10
0.0000
 20
0.0000
 30
0.0000
 40
0.1500
 41
0.1500
 70
0
  0
VERTEX
  8
114
 10
97.2500
 20
58.2500
 30
0.0000
  0
VERTEX
  8
114
 10
110.7500
 20
58.2500
 30
0.0000
  0
SEQEND
  8
0
  0
POLYLINE
  8
114
 66
1
 10
0.0000
 20
0.0000
 30
0.0000
 40
0.0750
 41
0.0750
 70
0
  0
VERTEX
  8
114
 10
110.7500
 20
58.2125
 30
0.0000
 42
1.0000
  0
VERTEX
  8
114
 10
110.7500
 20
58.2875
 30
0.0000
  0
SEQEND
  8
0
  0
POLYLINE
  8
114
 66
1
 10
0.0000
 20
0.0000
 30
0.0000
 40
0.0750
 41
0.0750
 70
0
  0
VERTEX
  8
114
 10
97.2500
 20
58.2875
 30
0.0000
 42
1.0000
  0
VERTEX
  8
114
 10
97.2500
 20
58.2125
 30
0.0000
  0
SEQEND
  8
0
  0
POLYLINE
  8
114
 66
1
 10
0.0000
 20
0.0000
 30
0.0000
 40
0.1500
 41
0.1500
 70
0
  0
VERTEX
  8
114
 10
111.0000
 20
58.0000
 30
0.0000
 42
0.4142
  0
VERTEX
  8
114
 10
110.7500
 20
58.2500
 30
0.0000
  0
SEQEND
  8
0
  0
POLYLINE
  8
114
 66
1
 10
0.0000
 20
0.0000
 30
0.0000
 40
0.0750
 41
0.0750
 70
0
  0
VERTEX
  8
114
 10
110.9625
 20
58.0000
 30
0.0000
 42
1.0000
  0
VERTEX
  8
114
 10
111.0375
 20
58.0000
 30
0.0000
  0
SEQEND
  8
0
  0
POLYLINE
  8
114
 66
1
 10
0.0000
 20
0.0000
 30
0.0000
 40
0.0750
 41
0.0750
 70
0
  0
VERTEX
  8
114
 10
110.7500
 20
58.2875
 30
0.0000
 42
1.0000
  0
VERTEX
  8
114
 10
110.7500
 20
58.2125
 30
0.0000
  0
SEQEND
  8
0
  0
POLYLINE
  8
114
 66
1
 10
0.0000
 20
0.0000
 30
0.0000
 40
0.1500
 41
0.1500
 70
0
  0
VERTEX
  8
114
 10
111.0000
 20
58.0000
 30
0.0000
  0
VERTEX
  8
114
 10
111.0000
 20
44.5000
 30
0.0000
  0
SEQEND
  8
0
  0
POLYLINE
  8
114
 66
1
 10
0.0000
 20
0.0000
 30
0.0000
 40
0.0750
 41
0.0750
 70
0
  0
VERTEX
  8
114
 10
110.9625
 20
44.5000
 30
0.0000
 42
1.0000
  0
VERTEX
  8
114
 10
111.0375
 20
44.5000
 30
0.0000
  0
SEQEND
  8
0
  0
POLYLINE
  8
114
 66
1
 10
0.0000
 20
0.0000
 30
0.0000
 40
0.0750
 41
0.0750
 70
0
  0
VERTEX
  8
114
 10
111.0375
 20
58.0000
 30
0.0000
 42
1.0000
  0
VERTEX
  8
114
 10
110.9625
 20
58.0000
 30
0.0000
  0
SEQEND
  8
0
  0
POLYLINE
  8
114
 66
1
 10
0.0000
 20
0.0000
 30
0.0000
 40
0.1500
 41
0.1500
 70
0
  0
VERTEX
  8
114
 10
110.7500
 20
44.2500
 30
0.0000
 42
0.4142
  0
VERTEX
  8
114
 10
111.0000
 20
44.5000
 30
0.0000
  0
SEQEND
  8
0
  0
POLYLINE
  8
114
 66
1
 10
0.0000
 20
0.0000
 30
0.0000
 40
0.0750
 41
0.0750
 70
0
  0
VERTEX
  8
114
 10
110.7500
 20
44.2875
 30
0.0000
 42
1.0000
  0
VERTEX
  8
114
 10
110.7500
 20
44.2125
 30
0.0000
  0
SEQEND
  8
0
  0
POLYLINE
  8
114
 66
1
 10
0.0000
 20
0.0000
 30
0.0000
 40
0.0750
 41
0.0750
 70
0
  0
VERTEX
  8
114
 10
111.0375
 20
44.5000
 30
0.0000
 42
1.0000
  0
VERTEX
  8
114
 10
110.9625
 20
44.5000
 30
0.0000
  0
SEQEND
  8
0
  0
POLYLINE
  8
114
 66
1
 10
0.0000
 20
0.0000
 30
0.0000
 40
0.1500
 41
0.1500
 70
0
  0
VERTEX
  8
114
 10
15.7500
 20
21.0000
 30
0.0000
  0
VERTEX
  8
114
 10
2.2500
 20
21.0000
 30
0.0000
  0
SEQEND
  8
0
  0
POLYLINE
  8
114
 66
1
 10
0.0000
 20
0.0000
 30
0.0000
 40
0.0750
 41
0.0750
 70
0
  0
VERTEX
  8
114
 10
2.2500
 20
21.0375
 30
0.0000
 42
1.0000
  0
VERTEX
  8
114
 10
2.2500
 20
20.9625
 30
0.0000
  0
SEQEND
  8
0
  0
POLYLINE
  8
114
 66
1
 10
0.0000
 20
0.0000
 30
0.0000
 40
0.0750
 41
0.0750
 70
0
  0
VERTEX
  8
114
 10
15.7500
 20
20.9625
 30
0.0000
 42
1.0000
  0
VERTEX
  8
114
 10
15.7500
 20
21.0375
 30
0.0000
  0
SEQEND
  8
0
  0
POLYLINE
  8
114
 66
1
 10
0.0000
 20
0.0000
 30
0.0000
 40
0.1500
 41
0.1500
 70
0
  0
VERTEX
  8
114
 10
2.0000
 20
21.2500
 30
0.0000
 42
0.4142
  0
VERTEX
  8
114
 10
2.2500
 20
21.0000
 30
0.0000
  0
SEQEND
  8
0
  0
POLYLINE
  8
114
 66
1
 10
0.0000
 20
0.0000
 30
0.0000
 40
0.0750
 41
0.0750
 70
0
  0
VERTEX
  8
114
 10
2.0375
 20
21.2500
 30
0.0000
 42
1.0000
  0
VERTEX
  8
114
 10
1.9625
 20
21.2500
 30
0.0000
  0
SEQEND
  8
0
  0
POLYLINE
  8
114
 66
1
 10
0.0000
 20
0.0000
 30
0.0000
 40
0.0750
 41
0.0750
 70
0
  0
VERTEX
  8
114
 10
2.2500
 20
20.9625
 30
0.0000
 42
1.0000
  0
VERTEX
  8
114
 10
2.2500
 20
21.0375
 30
0.0000
  0
SEQEND
  8
0
  0
POLYLINE
  8
114
 66
1
 10
0.0000
 20
0.0000
 30
0.0000
 40
0.1500
 41
0.1500
 70
0
  0
VERTEX
  8
114
 10
2.0000
 20
21.2500
 30
0.0000
  0
VERTEX
  8
114
 10
2.0000
 20
34.7500
 30
0.0000
  0
SEQEND
  8
0
  0
POLYLINE
  8
114
 66
1
 10
0.0000
 20
0.0000
 30
0.0000
 40
0.0750
 41
0.0750
 70
0
  0
VERTEX
  8
114
 10
2.0375
 20
34.7500
 30
0.0000
 42
1.0000
  0
VERTEX
  8
114
 10
1.9625
 20
34.7500
 30
0.0000
  0
SEQEND
  8
0
  0
POLYLINE
  8
114
 66
1
 10
0.0000
 20
0.0000
 30
0.0000
 40
0.0750
 41
0.0750
 70
0
  0
VERTEX
  8
114
 10
1.9625
 20
21.2500
 30
0.0000
 42
1.0000
  0
VERTEX
  8
114
 10
2.0375
 20
21.2500
 30
0.0000
  0
SEQEND
  8
0
  0
POLYLINE
  8
114
 66
1
 10
0.0000
 20
0.0000
 30
0.0000
 40
0.1500
 41
0.1500
 70
0
  0
VERTEX
  8
114
 10
2.2500
 20
35.0000
 30
0.0000
 42
0.4142
  0
VERTEX
  8
114
 10
2.0000
 20
34.7500
 30
0.0000
  0
SEQEND
  8
0
  0
POLYLINE
  8
114
 66
1
 10
0.0000
 20
0.0000
 30
0.0000
 40
0.0750
 41
0.0750
 70
0
  0
VERTEX
  8
114
 10
2.2500
 20
34.9625
 30
0.0000
 42
1.0000
  0
VERTEX
  8
114
 10
2.2500
 20
35.0375
 30
0.0000
  0
SEQEND
  8
0
  0
POLYLINE
  8
114
 66
1
 10
0.0000
 20
0.0000
 30
0.0000
 40
0.0750
 41
0.0750
 70
0
  0
VERTEX
  8
114
 10
1.9625
 20
34.7500
 30
0.0000
 42
1.0000
  0
VERTEX
  8
114
 10
2.0375
 20
34.7500
 30
0.0000
  0
SEQEND
  8
0
  0
POLYLINE
  8
114
 66
1
 10
0.0000
 20
0.0000
 30
0.0000
 40
0.1500
 41
0.1500
 70
0
  0
VERTEX
  8
114
 10
2.2500
 20
35.0000
 30
0.0000
  0
VERTEX
  8
114
 10
15.7500
 20
35.0000
 30
0.0000
  0
SEQEND
  8
0
  0
POLYLINE
  8
114
 66
1
 10
0.0000
 20
0.0000
 30
0.0000
 40
0.0750
 41
0.0750
 70
0
  0
VERTEX
  8
114
 10
15.7500
 20
34.9625
 30
0.0000
 42
1.0000
  0
VERTEX
  8
114
 10
15.7500
 20
35.0375
 30
0.0000
  0
SEQEND
  8
0
  0
POLYLINE
  8
114
 66
1
 10
0.0000
 20
0.0000
 30
0.0000
 40
0.0750
 41
0.0750
 70
0
  0
VERTEX
  8
114
 10
2.2500
 20
35.0375
 30
0.0000
 42
1.0000
  0
VERTEX
  8
114
 10
2.2500
 20
34.9625
 30
0.0000
  0
SEQEND
  8
0
  0
POLYLINE
  8
114
 66
1
 10
0.0000
 20
0.0000
 30
0.0000
 40
0.1500
 41
0.1500
 70
0
  0
VERTEX
  8
114
 10
16.0000
 20
34.7500
 30
0.0000
 42
0.4142
  0
VERTEX
  8
114
 10
15.7500
 20
35.0000
 30
0.0000
  0
SEQEND
  8
0
  0
POLYLINE
  8
114
 66
1
 10
0.0000
 20
0.0000
 30
0.0000
 40
0.0750
 41
0.0750
 70
0
  0
VERTEX
  8
114
 10
15.9625
 20
34.7500
 30
0.0000
 42
1.0000
  0
VERTEX
  8
114
 10
16.0375
 20
34.7500
 30
0.0000
  0
SEQEND
  8
0
  0
POLYLINE
  8
114
 66
1
 10
0.0000
 20
0.0000
 30
0.0000
 40
0.0750
 41
0.0750
 70
0
  0
VERTEX
  8
114
 10
15.7500
 20
35.0375
 30
0.0000
 42
1.0000
  0
VERTEX
  8
114
 10
15.7500
 20
34.9625
 30
0.0000
  0
SEQEND
  8
0
  0
POLYLINE
  8
114
 66
1
 10
0.0000
 20
0.0000
 30
0.0000
 40
0.1500
 41
0.1500
 70
0
  0
VERTEX
  8
114
 10
16.0000
 20
34.7500
 30
0.0000
  0
VERTEX
  8
114
 10
16.0000
 20
21.2500
 30
0.0000
  0
SEQEND
  8
0
  0
POLYLINE
  8
114
 66
1
 10
0.0000
 20
0.0000
 30
0.0000
 40
0.0750
 41
0.0750
 70
0
  0
VERTEX
  8
114
 10
15.9625
 20
21.2500
 30
0.0000
 42
1.0000
  0
VERTEX
  8
114
 10
16.0375
 20
21.2500
 30
0.0000
  0
SEQEND
  8
0
  0
POLYLINE
  8
114
 66
1
 10
0.0000
 20
0.0000
 30
0.0000
 40
0.0750
 41
0.0750
 70
0
  0
VERTEX
  8
114
 10
16.0375
 20
34.7500
 30
0.0000
 42
1.0000
  0
VERTEX
  8
114
 10
15.9625
 20
34.7500
 30
0.0000
  0
SEQEND
  8
0
  0
POLYLINE
  8
114
 66
1
 10
0.0000
 20
0.0000
 30
0.0000
 40
0.1500
 41
0.1500
 70
0
  0
VERTEX
  8
114
 10
15.7500
 20
21.0000
 30
0.0000
 42
0.4142
  0
VERTEX
  8
114
 10
16.0000
 20
21.2500
 30
0.0000
  0
SEQEND
  8
0
  0
POLYLINE
  8
114
 66
1
 10
0.0000
 20
0.0000
 30
0.0000
 40
0.0750
 41
0.0750
 70
0
  0
VERTEX
  8
114
 10
15.7500
 20
21.0375
 30
0.0000
 42
1.0000
  0
VERTEX
  8
114
 10
15.7500
 20
20.9625
 30
0.0000
  0
SEQEND
  8
0
  0
POLYLINE
  8
114
 66
1
 10
0.0000
 20
0.0000
 30
0.0000
 40
0.0750
 41
0.0750
 70
0
  0
VERTEX
  8
114
 10
16.0375
 20
21.2500
 30
0.0000
 42
1.0000
  0
VERTEX
  8
114
 10
15.9625
 20
21.2500
 30
0.0000
  0
SEQEND
  8
0
  0
POLYLINE
  8
114
 66
1
 10
0.0000
 20
0.0000
 30
0.0000
 40
0.1500
 41
0.1500
 70
0
  0
VERTEX
  8
114
 10
15.7500
 20
2.0000
 30
0.0000
  0
VERTEX
  8
114
 10
2.2500
 20
2.0000
 30
0.0000
  0
SEQEND
  8
0
  0
POLYLINE
  8
114
 66
1
 10
0.0000
 20
0.0000
 30
0.0000
 40
0.0750
 41
0.0750
 70
0
  0
VERTEX
  8
114
 10
2.2500
 20
2.0375
 30
0.0000
 42
1.0000
  0
VERTEX
  8
114
 10
2.2500
 20
1.9625
 30
0.0000
  0
SEQEND
  8
0
  0
POLYLINE
  8
114
 66
1
 10
0.0000
 20
0.0000
 30
0.0000
 40
0.0750
 41
0.0750
 70
0
  0
VERTEX
  8
114
 10
15.7500
 20
1.9625
 30
0.0000
 42
1.0000
  0
VERTEX
  8
114
 10
15.7500
 20
2.0375
 30
0.0000
  0
SEQEND
  8
0
  0
POLYLINE
  8
114
 66
1
 10
0.0000
 20
0.0000
 30
0.0000
 40
0.1500
 41
0.1500
 70
0
  0
VERTEX
  8
114
 10
2.0000
 20
2.2500
 30
0.0000
 42
0.4142
  0
VERTEX
  8
114
 10
2.2500
 20
2.0000
 30
0.0000
  0
SEQEND
  8
0
  0
POLYLINE
  8
114
 66
1
 10
0.0000
 20
0.0000
 30
0.0000
 40
0.0750
 41
0.0750
 70
0
  0
VERTEX
  8
114
 10
2.0375
 20
2.2500
 30
0.0000
 42
1.0000
  0
VERTEX
  8
114
 10
1.9625
 20
2.2500
 30
0.0000
  0
SEQEND
  8
0
  0
POLYLINE
  8
114
 66
1
 10
0.0000
 20
0.0000
 30
0.0000
 40
0.0750
 41
0.0750
 70
0
  0
VERTEX
  8
114
 10
2.2500
 20
1.9625
 30
0.0000
 42
1.0000
  0
VERTEX
  8
114
 10
2.2500
 20
2.0375
 30
0.0000
  0
SEQEND
  8
0
  0
POLYLINE
  8
114
 66
1
 10
0.0000
 20
0.0000
 30
0.0000
 40
0.1500
 41
0.1500
 70
0
  0
VERTEX
  8
114
 10
2.0000
 20
2.2500
 30
0.0000
  0
VERTEX
  8
114
 10
2.0000
 20
15.7500
 30
0.0000
  0
SEQEND
  8
0
  0
POLYLINE
  8
114
 66
1
 10
0.0000
 20
0.0000
 30
0.0000
 40
0.0750
 41
0.0750
 70
0
  0
VERTEX
  8
114
 10
2.0375
 20
15.7500
 30
0.0000
 42
1.0000
  0
VERTEX
  8
114
 10
1.9625
 20
15.7500
 30
0.0000
  0
SEQEND
  8
0
  0
POLYLINE
  8
114
 66
1
 10
0.0000
 20
0.0000
 30
0.0000
 40
0.0750
 41
0.0750
 70
0
  0
VERTEX
  8
114
 10
1.9625
 20
2.2500
 30
0.0000
 42
1.0000
  0
VERTEX
  8
114
 10
2.0375
 20
2.2500
 30
0.0000
  0
SEQEND
  8
0
  0
POLYLINE
  8
114
 66
1
 10
0.0000
 20
0.0000
 30
0.0000
 40
0.1500
 41
0.1500
 70
0
  0
VERTEX
  8
114
 10
2.2500
 20
16.0000
 30
0.0000
 42
0.4142
  0
VERTEX
  8
114
 10
2.0000
 20
15.7500
 30
0.0000
  0
SEQEND
  8
0
  0
POLYLINE
  8
114
 66
1
 10
0.0000
 20
0.0000
 30
0.0000
 40
0.0750
 41
0.0750
 70
0
  0
VERTEX
  8
114
 10
2.2500
 20
15.9625
 30
0.0000
 42
1.0000
  0
VERTEX
  8
114
 10
2.2500
 20
16.0375
 30
0.0000
  0
SEQEND
  8
0
  0
POLYLINE
  8
114
 66
1
 10
0.0000
 20
0.0000
 30
0.0000
 40
0.0750
 41
0.0750
 70
0
  0
VERTEX
  8
114
 10
1.9625
 20
15.7500
 30
0.0000
 42
1.0000
  0
VERTEX
  8
114
 10
2.0375
 20
15.7500
 30
0.0000
  0
SEQEND
  8
0
  0
POLYLINE
  8
114
 66
1
 10
0.0000
 20
0.0000
 30
0.0000
 40
0.1500
 41
0.1500
 70
0
  0
VERTEX
  8
114
 10
2.2500
 20
16.0000
 30
0.0000
  0
VERTEX
  8
114
 10
15.7500
 20
16.0000
 30
0.0000
  0
SEQEND
  8
0
  0
POLYLINE
  8
114
 66
1
 10
0.0000
 20
0.0000
 30
0.0000
 40
0.0750
 41
0.0750
 70
0
  0
VERTEX
  8
114
 10
15.7500
 20
15.9625
 30
0.0000
 42
1.0000
  0
VERTEX
  8
114
 10
15.7500
 20
16.0375
 30
0.0000
  0
SEQEND
  8
0
  0
POLYLINE
  8
114
 66
1
 10
0.0000
 20
0.0000
 30
0.0000
 40
0.0750
 41
0.0750
 70
0
  0
VERTEX
  8
114
 10
2.2500
 20
16.0375
 30
0.0000
 42
1.0000
  0
VERTEX
  8
114
 10
2.2500
 20
15.9625
 30
0.0000
  0
SEQEND
  8
0
  0
POLYLINE
  8
114
 66
1
 10
0.0000
 20
0.0000
 30
0.0000
 40
0.1500
 41
0.1500
 70
0
  0
VERTEX
  8
114
 10
16.0000
 20
15.7500
 30
0.0000
 42
0.4142
  0
VERTEX
  8
114
 10
15.7500
 20
16.0000
 30
0.0000
  0
SEQEND
  8
0
  0
POLYLINE
  8
114
 66
1
 10
0.0000
 20
0.0000
 30
0.0000
 40
0.0750
 41
0.0750
 70
0
  0
VERTEX
  8
114
 10
15.9625
 20
15.7500
 30
0.0000
 42
1.0000
  0
VERTEX
  8
114
 10
16.0375
 20
15.7500
 30
0.0000
  0
SEQEND
  8
0
  0
POLYLINE
  8
114
 66
1
 10
0.0000
 20
0.0000
 30
0.0000
 40
0.0750
 41
0.0750
 70
0
  0
VERTEX
  8
114
 10
15.7500
 20
16.0375
 30
0.0000
 42
1.0000
  0
VERTEX
  8
114
 10
15.7500
 20
15.9625
 30
0.0000
  0
SEQEND
  8
0
  0
POLYLINE
  8
114
 66
1
 10
0.0000
 20
0.0000
 30
0.0000
 40
0.1500
 41
0.1500
 70
0
  0
VERTEX
  8
114
 10
16.0000
 20
15.7500
 30
0.0000
  0
VERTEX
  8
114
 10
16.0000
 20
2.2500
 30
0.0000
  0
SEQEND
  8
0
  0
POLYLINE
  8
114
 66
1
 10
0.0000
 20
0.0000
 30
0.0000
 40
0.0750
 41
0.0750
 70
0
  0
VERTEX
  8
114
 10
15.9625
 20
2.2500
 30
0.0000
 42
1.0000
  0
VERTEX
  8
114
 10
16.0375
 20
2.2500
 30
0.0000
  0
SEQEND
  8
0
  0
POLYLINE
  8
114
 66
1
 10
0.0000
 20
0.0000
 30
0.0000
 40
0.0750
 41
0.0750
 70
0
  0
VERTEX
  8
114
 10
16.0375
 20
15.7500
 30
0.0000
 42
1.0000
  0
VERTEX
  8
114
 10
15.9625
 20
15.7500
 30
0.0000
  0
SEQEND
  8
0
  0
POLYLINE
  8
114
 66
1
 10
0.0000
 20
0.0000
 30
0.0000
 40
0.1500
 41
0.1500
 70
0
  0
VERTEX
  8
114
 10
15.7500
 20
2.0000
 30
0.0000
 42
0.4142
  0
VERTEX
  8
114
 10
16.0000
 20
2.2500
 30
0.0000
  0
SEQEND
  8
0
  0
POLYLINE
  8
114
 66
1
 10
0.0000
 20
0.0000
 30
0.0000
 40
0.0750
 41
0.0750
 70
0
  0
VERTEX
  8
114
 10
15.7500
 20
2.0375
 30
0.0000
 42
1.0000
  0
VERTEX
  8
114
 10
15.7500
 20
1.9625
 30
0.0000
  0
SEQEND
  8
0
  0
POLYLINE
  8
114
 66
1
 10
0.0000
 20
0.0000
 30
0.0000
 40
0.0750
 41
0.0750
 70
0
  0
VERTEX
  8
114
 10
16.0375
 20
2.2500
 30
0.0000
 42
1.0000
  0
VERTEX
  8
114
 10
15.9625
 20
2.2500
 30
0.0000
  0
SEQEND
  8
0
  0
POLYLINE
  8
114
 66
1
 10
0.0000
 20
0.0000
 30
0.0000
 40
0.1500
 41
0.1500
 70
0
  0
VERTEX
  8
114
 10
67.3705
 20
20.3558
 30
0.0000
  0
VERTEX
  8
114
 10
54.6847
 20
24.9730
 30
0.0000
  0
SEQEND
  8
0
  0
POLYLINE
  8
114
 66
1
 10
0.0000
 20
0.0000
 30
0.0000
 40
0.0750
 41
0.0750
 70
0
  0
VERTEX
  8
114
 10
54.6975
 20
25.0083
 30
0.0000
 42
1.0000
  0
VERTEX
  8
114
 10
54.6718
 20
24.9378
 30
0.0000
  0
SEQEND
  8
0
  0
POLYLINE
  8
114
 66
1
 10
0.0000
 20
0.0000
 30
0.0000
 40
0.0750
 41
0.0750
 70
0
  0
VERTEX
  8
114
 10
67.3577
 20
20.3205
 30
0.0000
 42
1.0000
  0
VERTEX
  8
114
 10
67.3833
 20
20.3910
 30
0.0000
  0
SEQEND
  8
0
  0
POLYLINE
  8
114
 66
1
 10
0.0000
 20
0.0000
 30
0.0000
 40
0.1500
 41
0.1500
 70
0
  0
VERTEX
  8
114
 10
54.5352
 20
25.2935
 30
0.0000
 42
0.4142
  0
VERTEX
  8
114
 10
54.6847
 20
24.9730
 30
0.0000
  0
SEQEND
  8
0
  0
POLYLINE
  8
114
 66
1
 10
0.0000
 20
0.0000
 30
0.0000
 40
0.0750
 41
0.0750
 70
0
  0
VERTEX
  8
114
 10
54.5705
 20
25.2806
 30
0.0000
 42
1.0000
  0
VERTEX
  8
114
 10
54.5000
 20
25.3063
 30
0.0000
  0
SEQEND
  8
0
  0
POLYLINE
  8
114
 66
1
 10
0.0000
 20
0.0000
 30
0.0000
 40
0.0750
 41
0.0750
 70
0
  0
VERTEX
  8
114
 10
54.6718
 20
24.9378
 30
0.0000
 42
1.0000
  0
VERTEX
  8
114
 10
54.6975
 20
25.0083
 30
0.0000
  0
SEQEND
  8
0
  0
POLYLINE
  8
114
 66
1
 10
0.0000
 20
0.0000
 30
0.0000
 40
0.1500
 41
0.1500
 70
0
  0
VERTEX
  8
114
 10
54.5352
 20
25.2935
 30
0.0000
  0
VERTEX
  8
114
 10
59.1525
 20
37.9793
 30
0.0000
  0
SEQEND
  8
0
  0
POLYLINE
  8
114
 66
1
 10
0.0000
 20
0.0000
 30
0.0000
 40
0.0750
 41
0.0750
 70
0
  0
VERTEX
  8
114
 10
59.1878
 20
37.9665
 30
0.0000
 42
1.0000
  0
VERTEX
  8
114
 10
59.1173
 20
37.9921
 30
0.0000
  0
SEQEND
  8
0
  0
POLYLINE
  8
114
 66
1
 10
0.0000
 20
0.0000
 30
0.0000
 40
0.0750
 41
0.0750
 70
0
  0
VERTEX
  8
114
 10
54.5000
 20
25.3063
 30
0.0000
 42
1.0000
  0
VERTEX
  8
114
 10
54.5705
 20
25.2806
 30
0.0000
  0
SEQEND
  8
0
  0
POLYLINE
  8
114
 66
1
 10
0.0000
 20
0.0000
 30
0.0000
 40
0.1500
 41
0.1500
 70
0
  0
VERTEX
  8
114
 10
59.4729
 20
38.1287
 30
0.0000
 42
0.4142
  0
VERTEX
  8
114
 10
59.1525
 20
37.9793
 30
0.0000
  0
SEQEND
  8
0
  0
POLYLINE
  8
114
 66
1
 10
0.0000
 20
0.0000
 30
0.0000
 40
0.0750
 41
0.0750
 70
0
  0
VERTEX
  8
114
 10
59.4601
 20
38.0935
 30
0.0000
 42
1.0000
  0
VERTEX
  8
114
 10
59.4858
 20
38.1640
 30
0.0000
  0
SEQEND
  8
0
  0
POLYLINE
  8
114
 66
1
 10
0.0000
 20
0.0000
 30
0.0000
 40
0.0750
 41
0.0750
 70
0
  0
VERTEX
  8
114
 10
59.1173
 20
37.9921
 30
0.0000
 42
1.0000
  0
VERTEX
  8
114
 10
59.1878
 20
37.9665
 30
0.0000
  0
SEQEND
  8
0
  0
POLYLINE
  8
114
 66
1
 10
0.0000
 20
0.0000
 30
0.0000
 40
0.1500
 41
0.1500
 70
0
  0
VERTEX
  8
114
 10
59.4729
 20
38.1287
 30
0.0000
  0
VERTEX
  8
114
 10
72.1588
 20
33.5115
 30
0.0000
  0
SEQEND
  8
0
  0
POLYLINE
  8
114
 66
1
 10
0.0000
 20
0.0000
 30
0.0000
 40
0.0750
 41
0.0750
 70
0
  0
VERTEX
  8
114
 10
72.1460
 20
33.4762
 30
0.0000
 42
1.0000
  0
VERTEX
  8
114
 10
72.1716
 20
33.5467
 30
0.0000
  0
SEQEND
  8
0
  0
POLYLINE
  8
114
 66
1
 10
0.0000
 20
0.0000
 30
0.0000
 40
0.0750
 41
0.0750
 70
0
  0
VERTEX
  8
114
 10
59.4858
 20
38.1640
 30
0.0000
 42
1.0000
  0
VERTEX
  8
114
 10
59.4601
 20
38.0935
 30
0.0000
  0
SEQEND
  8
0
  0
POLYLINE
  8
114
 66
1
 10
0.0000
 20
0.0000
 30
0.0000
 40
0.1500
 41
0.1500
 70
0
  0
VERTEX
  8
114
 10
72.3082
 20
33.1910
 30
0.0000
 42
0.4142
  0
VERTEX
  8
114
 10
72.1588
 20
33.5115
 30
0.0000
  0
SEQEND
  8
0
  0
POLYLINE
  8
114
 66
1
 10
0.0000
 20
0.0000
 30
0.0000
 40
0.0750
 41
0.0750
 70
0
  0
VERTEX
  8
114
 10
72.2730
 20
33.2039
 30
0.0000
 42
1.0000
  0
VERTEX
  8
114
 10
72.3435
 20
33.1782
 30
0.0000
  0
SEQEND
  8
0
  0
POLYLINE
  8
114
 66
1
 10
0.0000
 20
0.0000
 30
0.0000
 40
0.0750
 41
0.0750
 70
0
  0
VERTEX
  8
114
 10
72.1716
 20
33.5467
 30
0.0000
 42
1.0000
  0
VERTEX
  8
114
 10
72.1460
 20
33.4762
 30
0.0000
  0
SEQEND
  8
0
  0
POLYLINE
  8
114
 66
1
 10
0.0000
 20
0.0000
 30
0.0000
 40
0.1500
 41
0.1500
 70
0
  0
VERTEX
  8
114
 10
72.3082
 20
33.1910
 30
0.0000
  0
VERTEX
  8
114
 10
67.6909
 20
20.5052
 30
0.0000
  0
SEQEND
  8
0
  0
POLYLINE
  8
114
 66
1
 10
0.0000
 20
0.0000
 30
0.0000
 40
0.0750
 41
0.0750
 70
0
  0
VERTEX
  8
114
 10
67.6557
 20
20.5180
 30
0.0000
 42
1.0000
  0
VERTEX
  8
114
 10
67.7262
 20
20.4924
 30
0.0000
  0
SEQEND
  8
0
  0
POLYLINE
  8
114
 66
1
 10
0.0000
 20
0.0000
 30
0.0000
 40
0.0750
 41
0.0750
 70
0
  0
VERTEX
  8
114
 10
72.3435
 20
33.1782
 30
0.0000
 42
1.0000
  0
VERTEX
  8
114
 10
72.2730
 20
33.2039
 30
0.0000
  0
SEQEND
  8
0
  0
POLYLINE
  8
114
 66
1
 10
0.0000
 20
0.0000
 30
0.0000
 40
0.1500
 41
0.1500
 70
0
  0
VERTEX
  8
114
 10
67.3705
 20
20.3558
 30
0.0000
 42
0.4142
  0
VERTEX
  8
114
 10
67.6909
 20
20.5052
 30
0.0000
  0
SEQEND
  8
0
  0
POLYLINE
  8
114
 66
1
 10
0.0000
 20
0.0000
 30
0.0000
 40
0.0750
 41
0.0750
 70
0
  0
VERTEX
  8
114
 10
67.3833
 20
20.3910
 30
0.0000
 42
1.0000
  0
VERTEX
  8
114
 10
67.3577
 20
20.3205
 30
0.0000
  0
SEQEND
  8
0
  0
POLYLINE
  8
114
 66
1
 10
0.0000
 20
0.0000
 30
0.0000
 40
0.0750
 41
0.0750
 70
0
  0
VERTEX
  8
114
 10
67.7262
 20
20.4924
 30
0.0000
 42
1.0000
  0
VERTEX
  8
114
 10
67.6557
 20
20.5180
 30
0.0000
  0
SEQEND
  8
0
  0
POLYLINE
  8
114
 66
1
 10
0.0000
 20
0.0000
 30
0.0000
 40
0.1500
 41
0.1500
 70
0
  0
VERTEX
  8
114
 10
88.4739
 20
22.7845
 30
0.0000
  0
VERTEX
  8
114
 10
75.7880
 20
27.4017
 30
0.0000
  0
SEQEND
  8
0
  0
POLYLINE
  8
114
 66
1
 10
0.0000
 20
0.0000
 30
0.0000
 40
0.0750
 41
0.0750
 70
0
  0
VERTEX
  8
114
 10
75.8008
 20
27.4370
 30
0.0000
 42
1.0000
  0
VERTEX
  8
114
 10
75.7752
 20
27.3665
 30
0.0000
  0
SEQEND
  8
0
  0
POLYLINE
  8
114
 66
1
 10
0.0000
 20
0.0000
 30
0.0000
 40
0.0750
 41
0.0750
 70
0
  0
VERTEX
  8
114
 10
88.4610
 20
22.7492
 30
0.0000
 42
1.0000
  0
VERTEX
  8
114
 10
88.4867
 20
22.8197
 30
0.0000
  0
SEQEND
  8
0
  0
POLYLINE
  8
114
 66
1
 10
0.0000
 20
0.0000
 30
0.0000
 40
0.1500
 41
0.1500
 70
0
  0
VERTEX
  8
114
 10
75.6386
 20
27.7222
 30
0.0000
 42
0.4142
  0
VERTEX
  8
114
 10
75.7880
 20
27.4017
 30
0.0000
  0
SEQEND
  8
0
  0
POLYLINE
  8
114
 66
1
 10
0.0000
 20
0.0000
 30
0.0000
 40
0.0750
 41
0.0750
 70
0
  0
VERTEX
  8
114
 10
75.6738
 20
27.7093
 30
0.0000
 42
1.0000
  0
VERTEX
  8
114
 10
75.6034
 20
27.7350
 30
0.0000
  0
SEQEND
  8
0
  0
POLYLINE
  8
114
 66
1
 10
0.0000
 20
0.0000
 30
0.0000
 40
0.0750
 41
0.0750
 70
0
  0
VERTEX
  8
114
 10
75.7752
 20
27.3665
 30
0.0000
 42
1.0000
  0
VERTEX
  8
114
 10
75.8008
 20
27.4370
 30
0.0000
  0
SEQEND
  8
0
  0
POLYLINE
  8
114
 66
1
 10
0.0000
 20
0.0000
 30
0.0000
 40
0.1500
 41
0.1500
 70
0
  0
VERTEX
  8
114
 10
75.6386
 20
27.7222
 30
0.0000
  0
VERTEX
  8
114
 10
80.2559
 20
40.4080
 30
0.0000
  0
SEQEND
  8
0
  0
POLYLINE
  8
114
 66
1
 10
0.0000
 20
0.0000
 30
0.0000
 40
0.0750
 41
0.0750
 70
0
  0
VERTEX
  8
114
 10
80.2911
 20
40.3952
 30
0.0000
 42
1.0000
  0
VERTEX
  8
114
 10
80.2206
 20
40.4208
 30
0.0000
  0
SEQEND
  8
0
  0
POLYLINE
  8
114
 66
1
 10
0.0000
 20
0.0000
 30
0.0000
 40
0.0750
 41
0.0750
 70
0
  0
VERTEX
  8
114
 10
75.6034
 20
27.7350
 30
0.0000
 42
1.0000
  0
VERTEX
  8
114
 10
75.6738
 20
27.7093
 30
0.0000
  0
SEQEND
  8
0
  0
POLYLINE
  8
114
 66
1
 10
0.0000
 20
0.0000
 30
0.0000
 40
0.1500
 41
0.1500
 70
0
  0
VERTEX
  8
114
 10
80.5763
 20
40.5574
 30
0.0000
 42
0.4142
  0
VERTEX
  8
114
 10
80.2559
 20
40.4080
 30
0.0000
  0
SEQEND
  8
0
  0
POLYLINE
  8
114
 66
1
 10
0.0000
 20
0.0000
 30
0.0000
 40
0.0750
 41
0.0750
 70
0
  0
VERTEX
  8
114
 10
80.5635
 20
40.5222
 30
0.0000
 42
1.0000
  0
VERTEX
  8
114
 10
80.5891
 20
40.5927
 30
0.0000
  0
SEQEND
  8
0
  0
POLYLINE
  8
114
 66
1
 10
0.0000
 20
0.0000
 30
0.0000
 40
0.0750
 41
0.0750
 70
0
  0
VERTEX
  8
114
 10
80.2206
 20
40.4208
 30
0.0000
 42
1.0000
  0
VERTEX
  8
114
 10
80.2911
 20
40.3952
 30
0.0000
  0
SEQEND
  8
0
  0
POLYLINE
  8
114
 66
1
 10
0.0000
 20
0.0000
 30
0.0000
 40
0.1500
 41
0.1500
 70
0
  0
VERTEX
  8
114
 10
80.5763
 20
40.5574
 30
0.0000
  0
VERTEX
  8
114
 10
93.2622
 20
35.9402
 30
0.0000
  0
SEQEND
  8
0
  0
POLYLINE
  8
114
 66
1
 10
0.0000
 20
0.0000
 30
0.0000
 40
0.0750
 41
0.0750
 70
0
  0
VERTEX
  8
114
 10
93.2493
 20
35.9049
 30
0.0000
 42
1.0000
  0
VERTEX
  8
114
 10
93.2750
 20
35.9754
 30
0.0000
  0
SEQEND
  8
0
  0
POLYLINE
  8
114
 66
1
 10
0.0000
 20
0.0000
 30
0.0000
 40
0.0750
 41
0.0750
 70
0
  0
VERTEX
  8
114
 10
80.5891
 20
40.5927
 30
0.0000
 42
1.0000
  0
VERTEX
  8
114
 10
80.5635
 20
40.5222
 30
0.0000
  0
SEQEND
  8
0
  0
POLYLINE
  8
114
 66
1
 10
0.0000
 20
0.0000
 30
0.0000
 40
0.1500
 41
0.1500
 70
0
  0
VERTEX
  8
114
 10
93.4116
 20
35.6197
 30
0.0000
 42
0.4142
  0
VERTEX
  8
114
 10
93.2622
 20
35.9402
 30
0.0000
  0
SEQEND
  8
0
  0
POLYLINE
  8
114
 66
1
 10
0.0000
 20
0.0000
 30
0.0000
 40
0.0750
 41
0.0750
 70
0
  0
VERTEX
  8
114
 10
93.3763
 20
35.6326
 30
0.0000
 42
1.0000
  0
VERTEX
  8
114
 10
93.4468
 20
35.6069
 30
0.0000
  0
SEQEND
  8
0
  0
POLYLINE
  8
114
 66
1
 10
0.0000
 20
0.0000
 30
0.0000
 40
0.0750
 41
0.0750
 70
0
  0
VERTEX
  8
114
 10
93.2750
 20
35.9754
 30
0.0000
 42
1.0000
  0
VERTEX
  8
114
 10
93.2493
 20
35.9049
 30
0.0000
  0
SEQEND
  8
0
  0
POLYLINE
  8
114
 66
1
 10
0.0000
 20
0.0000
 30
0.0000
 40
0.1500
 41
0.1500
 70
0
  0
VERTEX
  8
114
 10
93.4116
 20
35.6197
 30
0.0000
  0
VERTEX
  8
114
 10
88.7943
 20
22.9339
 30
0.0000
  0
SEQEND
  8
0
  0
POLYLINE
  8
114
 66
1
 10
0.0000
 20
0.0000
 30
0.0000
 40
0.0750
 41
0.0750
 70
0
  0
VERTEX
  8
114
 10
88.7591
 20
22.9467
 30
0.0000
 42
1.0000
  0
VERTEX
  8
114
 10
88.8295
 20
22.9211
 30
0.0000
  0
SEQEND
  8
0
  0
POLYLINE
  8
114
 66
1
 10
0.0000
 20
0.0000
 30
0.0000
 40
0.0750
 41
0.0750
 70
0
  0
VERTEX
  8
114
 10
93.4468
 20
35.6069
 30
0.0000
 42
1.0000
  0
VERTEX
  8
114
 10
93.3763
 20
35.6326
 30
0.0000
  0
SEQEND
  8
0
  0
POLYLINE
  8
114
 66
1
 10
0.0000
 20
0.0000
 30
0.0000
 40
0.1500
 41
0.1500
 70
0
  0
VERTEX
  8
114
 10
88.4739
 20
22.7845
 30
0.0000
 42
0.4142
  0
VERTEX
  8
114
 10
88.7943
 20
22.9339
 30
0.0000
  0
SEQEND
  8
0
  0
POLYLINE
  8
114
 66
1
 10
0.0000
 20
0.0000
 30
0.0000
 40
0.0750
 41
0.0750
 70
0
  0
VERTEX
  8
114
 10
88.4867
 20
22.8197
 30
0.0000
 42
1.0000
  0
VERTEX
  8
114
 10
88.4610
 20
22.7492
 30
0.0000
  0
SEQEND
  8
0
  0
POLYLINE
  8
114
 66
1
 10
0.0000
 20
0.0000
 30
0.0000
 40
0.0750
 41
0.0750
 70
0
  0
VERTEX
  8
114
 10
88.8295
 20
22.9211
 30
0.0000
 42
1.0000
  0
VERTEX
  8
114
 10
88.7591
 20
22.9467
 30
0.0000
  0
SEQEND
  8
0
  0
POLYLINE
  8
114
 66
1
 10
0.0000
 20
0.0000
 30
0.0000
 40
0.1500
 41
0.1500
 70
0
  0
VERTEX
  8
114
 10
81.9755
 20
4.9303
 30
0.0000
  0
VERTEX
  8
114
 10
69.2896
 20
9.5476
 30
0.0000
  0
SEQEND
  8
0
  0
POLYLINE
  8
114
 66
1
 10
0.0000
 20
0.0000
 30
0.0000
 40
0.0750
 41
0.0750
 70
0
  0
VERTEX
  8
114
 10
69.3025
 20
9.5828
 30
0.0000
 42
1.0000
  0
VERTEX
  8
114
 10
69.2768
 20
9.5123
 30
0.0000
  0
SEQEND
  8
0
  0
POLYLINE
  8
114
 66
1
 10
0.0000
 20
0.0000
 30
0.0000
 40
0.0750
 41
0.0750
 70
0
  0
VERTEX
  8
114
 10
81.9627
 20
4.8951
 30
0.0000
 42
1.0000
  0
VERTEX
  8
114
 10
81.9883
 20
4.9655
 30
0.0000
  0
SEQEND
  8
0
  0
POLYLINE
  8
114
 66
1
 10
0.0000
 20
0.0000
 30
0.0000
 40
0.1500
 41
0.1500
 70
0
  0
VERTEX
  8
114
 10
69.1402
 20
9.8680
 30
0.0000
 42
0.4142
  0
VERTEX
  8
114
 10
69.2896
 20
9.5476
 30
0.0000
  0
SEQEND
  8
0
  0
POLYLINE
  8
114
 66
1
 10
0.0000
 20
0.0000
 30
0.0000
 40
0.0750
 41
0.0750
 70
0
  0
VERTEX
  8
114
 10
69.1755
 20
9.8552
 30
0.0000
 42
1.0000
  0
VERTEX
  8
114
 10
69.1050
 20
9.8808
 30
0.0000
  0
SEQEND
  8
0
  0
POLYLINE
  8
114
 66
1
 10
0.0000
 20
0.0000
 30
0.0000
 40
0.0750
 41
0.0750
 70
0
  0
VERTEX
  8
114
 10
69.2768
 20
9.5123
 30
0.0000
 42
1.0000
  0
VERTEX
  8
114
 10
69.3025
 20
9.5828
 30
0.0000
  0
SEQEND
  8
0
  0
POLYLINE
  8
114
 66
1
 10
0.0000
 20
0.0000
 30
0.0000
 40
0.1500
 41
0.1500
 70
0
  0
VERTEX
  8
114
 10
69.1402
 20
9.8680
 30
0.0000
  0
VERTEX
  8
114
 10
73.7575
 20
22.5539
 30
0.0000
  0
SEQEND
  8
0
  0
POLYLINE
  8
114
 66
1
 10
0.0000
 20
0.0000
 30
0.0000
 40
0.0750
 41
0.0750
 70
0
  0
VERTEX
  8
114
 10
73.7927
 20
22.5410
 30
0.0000
 42
1.0000
  0
VERTEX
  8
114
 10
73.7222
 20
22.5667
 30
0.0000
  0
SEQEND
  8
0
  0
POLYLINE
  8
114
 66
1
 10
0.0000
 20
0.0000
 30
0.0000
 40
0.0750
 41
0.0750
 70
0
  0
VERTEX
  8
114
 10
69.1050
 20
9.8808
 30
0.0000
 42
1.0000
  0
VERTEX
  8
114
 10
69.1755
 20
9.8552
 30
0.0000
  0
SEQEND
  8
0
  0
POLYLINE
  8
114
 66
1
 10
0.0000
 20
0.0000
 30
0.0000
 40
0.1500
 41
0.1500
 70
0
  0
VERTEX
  8
114
 10
74.0779
 20
22.7033
 30
0.0000
 42
0.4142
  0
VERTEX
  8
114
 10
73.7575
 20
22.5539
 30
0.0000
  0
SEQEND
  8
0
  0
POLYLINE
  8
114
 66
1
 10
0.0000
 20
0.0000
 30
0.0000
 40
0.0750
 41
0.0750
 70
0
  0
VERTEX
  8
114
 10
74.0651
 20
22.6680
 30
0.0000
 42
1.0000
  0
VERTEX
  8
114
 10
74.0907
 20
22.7385
 30
0.0000
  0
SEQEND
  8
0
  0
POLYLINE
  8
114
 66
1
 10
0.0000
 20
0.0000
 30
0.0000
 40
0.0750
 41
0.0750
 70
0
  0
VERTEX
  8
114
 10
73.7222
 20
22.5667
 30
0.0000
 42
1.0000
  0
VERTEX
  8
114
 10
73.7927
 20
22.5410
 30
0.0000
  0
SEQEND
  8
0
  0
POLYLINE
  8
114
 66
1
 10
0.0000
 20
0.0000
 30
0.0000
 40
0.1500
 41
0.1500
 70
0
  0
VERTEX
  8
114
 10
74.0779
 20
22.7033
 30
0.0000
  0
VERTEX
  8
114
 10
86.7638
 20
18.0860
 30
0.0000
  0
SEQEND
  8
0
  0
POLYLINE
  8
114
 66
1
 10
0.0000
 20
0.0000
 30
0.0000
 40
0.0750
 41
0.0750
 70
0
  0
VERTEX
  8
114
 10
86.7509
 20
18.0508
 30
0.0000
 42
1.0000
  0
VERTEX
  8
114
 10
86.7766
 20
18.1212
 30
0.0000
  0
SEQEND
  8
0
  0
POLYLINE
  8
114
 66
1
 10
0.0000
 20
0.0000
 30
0.0000
 40
0.0750
 41
0.0750
 70
0
  0
VERTEX
  8
114
 10
74.0907
 20
22.7385
 30
0.0000
 42
1.0000
  0
VERTEX
  8
114
 10
74.0651
 20
22.6680
 30
0.0000
  0
SEQEND
  8
0
  0
POLYLINE
  8
114
 66
1
 10
0.0000
 20
0.0000
 30
0.0000
 40
0.1500
 41
0.1500
 70
0
  0
VERTEX
  8
114
 10
86.9132
 20
17.7656
 30
0.0000
 42
0.4142
  0
VERTEX
  8
114
 10
86.7638
 20
18.0860
 30
0.0000
  0
SEQEND
  8
0
  0
POLYLINE
  8
114
 66
1
 10
0.0000
 20
0.0000
 30
0.0000
 40
0.0750
 41
0.0750
 70
0
  0
VERTEX
  8
114
 10
86.8779
 20
17.7784
 30
0.0000
 42
1.0000
  0
VERTEX
  8
114
 10
86.9484
 20
17.7527
 30
0.0000
  0
SEQEND
  8
0
  0
POLYLINE
  8
114
 66
1
 10
0.0000
 20
0.0000
 30
0.0000
 40
0.0750
 41
0.0750
 70
0
  0
VERTEX
  8
114
 10
86.7766
 20
18.1212
 30
0.0000
 42
1.0000
  0
VERTEX
  8
114
 10
86.7509
 20
18.0508
 30
0.0000
  0
SEQEND
  8
0
  0
POLYLINE
  8
114
 66
1
 10
0.0000
 20
0.0000
 30
0.0000
 40
0.1500
 41
0.1500
 70
0
  0
VERTEX
  8
114
 10
86.9132
 20
17.7656
 30
0.0000
  0
VERTEX
  8
114
 10
82.2959
 20
5.0797
 30
0.0000
  0
SEQEND
  8
0
  0
POLYLINE
  8
114
 66
1
 10
0.0000
 20
0.0000
 30
0.0000
 40
0.0750
 41
0.0750
 70
0
  0
VERTEX
  8
114
 10
82.2607
 20
5.0926
 30
0.0000
 42
1.0000
  0
VERTEX
  8
114
 10
82.3311
 20
5.0669
 30
0.0000
  0
SEQEND
  8
0
  0
POLYLINE
  8
114
 66
1
 10
0.0000
 20
0.0000
 30
0.0000
 40
0.0750
 41
0.0750
 70
0
  0
VERTEX
  8
114
 10
86.9484
 20
17.7527
 30
0.0000
 42
1.0000
  0
VERTEX
  8
114
 10
86.8779
 20
17.7784
 30
0.0000
  0
SEQEND
  8
0
  0
POLYLINE
  8
114
 66
1
 10
0.0000
 20
0.0000
 30
0.0000
 40
0.1500
 41
0.1500
 70
0
  0
VERTEX
  8
114
 10
81.9755
 20
4.9303
 30
0.0000
 42
0.4142
  0
VERTEX
  8
114
 10
82.2959
 20
5.0797
 30
0.0000
  0
SEQEND
  8
0
  0
POLYLINE
  8
114
 66
1
 10
0.0000
 20
0.0000
 30
0.0000
 40
0.0750
 41
0.0750
 70
0
  0
VERTEX
  8
114
 10
81.9883
 20
4.9655
 30
0.0000
 42
1.0000
  0
VERTEX
  8
114
 10
81.9627
 20
4.8951
 30
0.0000
  0
SEQEND
  8
0
  0
POLYLINE
  8
114
 66
1
 10
0.0000
 20
0.0000
 30
0.0000
 40
0.0750
 41
0.0750
 70
0
  0
VERTEX
  8
114
 10
82.3311
 20
5.0669
 30
0.0000
 42
1.0000
  0
VERTEX
  8
114
 10
82.2607
 20
5.0926
 30
0.0000
  0
SEQEND
  8
0
  0
POLYLINE
  8
114
 66
1
 10
0.0000
 20
0.0000
 30
0.0000
 40
0.1500
 41
0.1500
 70
0
  0
VERTEX
  8
114
 10
103.0788
 20
7.3590
 30
0.0000
  0
VERTEX
  8
114
 10
90.3930
 20
11.9763
 30
0.0000
  0
SEQEND
  8
0
  0
POLYLINE
  8
114
 66
1
 10
0.0000
 20
0.0000
 30
0.0000
 40
0.0750
 41
0.0750
 70
0
  0
VERTEX
  8
114
 10
90.4058
 20
12.0115
 30
0.0000
 42
1.0000
  0
VERTEX
  8
114
 10
90.3802
 20
11.9410
 30
0.0000
  0
SEQEND
  8
0
  0
POLYLINE
  8
114
 66
1
 10
0.0000
 20
0.0000
 30
0.0000
 40
0.0750
 41
0.0750
 70
0
  0
VERTEX
  8
114
 10
103.0660
 20
7.3238
 30
0.0000
 42
1.0000
  0
VERTEX
  8
114
 10
103.0917
 20
7.3942
 30
0.0000
  0
SEQEND
  8
0
  0
POLYLINE
  8
114
 66
1
 10
0.0000
 20
0.0000
 30
0.0000
 40
0.1500
 41
0.1500
 70
0
  0
VERTEX
  8
114
 10
90.2436
 20
12.2967
 30
0.0000
 42
0.4142
  0
VERTEX
  8
114
 10
90.3930
 20
11.9763
 30
0.0000
  0
SEQEND
  8
0
  0
POLYLINE
  8
114
 66
1
 10
0.0000
 20
0.0000
 30
0.0000
 40
0.0750
 41
0.0750
 70
0
  0
VERTEX
  8
114
 10
90.2788
 20
12.2839
 30
0.0000
 42
1.0000
  0
VERTEX
  8
114
 10
90.2083
 20
12.3095
 30
0.0000
  0
SEQEND
  8
0
  0
POLYLINE
  8
114
 66
1
 10
0.0000
 20
0.0000
 30
0.0000
 40
0.0750
 41
0.0750
 70
0
  0
VERTEX
  8
114
 10
90.3802
 20
11.9410
 30
0.0000
 42
1.0000
  0
VERTEX
  8
114
 10
90.4058
 20
12.0115
 30
0.0000
  0
SEQEND
  8
0
  0
POLYLINE
  8
114
 66
1
 10
0.0000
 20
0.0000
 30
0.0000
 40
0.1500
 41
0.1500
 70
0
  0
VERTEX
  8
114
 10
90.2436
 20
12.2967
 30
0.0000
  0
VERTEX
  8
114
 10
94.8608
 20
24.9826
 30
0.0000
  0
SEQEND
  8
0
  0
POLYLINE
  8
114
 66
1
 10
0.0000
 20
0.0000
 30
0.0000
 40
0.0750
 41
0.0750
 70
0
  0
VERTEX
  8
114
 10
94.8961
 20
24.9697
 30
0.0000
 42
1.0000
  0
VERTEX
  8
114
 10
94.8256
 20
24.9954
 30
0.0000
  0
SEQEND
  8
0
  0
POLYLINE
  8
114
 66
1
 10
0.0000
 20
0.0000
 30
0.0000
 40
0.0750
 41
0.0750
 70
0
  0
VERTEX
  8
114
 10
90.2083
 20
12.3095
 30
0.0000
 42
1.0000
  0
VERTEX
  8
114
 10
90.2788
 20
12.2839
 30
0.0000
  0
SEQEND
  8
0
  0
POLYLINE
  8
114
 66
1
 10
0.0000
 20
0.0000
 30
0.0000
 40
0.1500
 41
0.1500
 70
0
  0
VERTEX
  8
114
 10
95.1813
 20
25.1320
 30
0.0000
 42
0.4142
  0
VERTEX
  8
114
 10
94.8608
 20
24.9826
 30
0.0000
  0
SEQEND
  8
0
  0
POLYLINE
  8
114
 66
1
 10
0.0000
 20
0.0000
 30
0.0000
 40
0.0750
 41
0.0750
 70
0
  0
VERTEX
  8
114
 10
95.1684
 20
25.0967
 30
0.0000
 42
1.0000
  0
VERTEX
  8
114
 10
95.1941
 20
25.1672
 30
0.0000
  0
SEQEND
  8
0
  0
POLYLINE
  8
114
 66
1
 10
0.0000
 20
0.0000
 30
0.0000
 40
0.0750
 41
0.0750
 70
0
  0
VERTEX
  8
114
 10
94.8256
 20
24.9954
 30
0.0000
 42
1.0000
  0
VERTEX
  8
114
 10
94.8961
 20
24.9697
 30
0.0000
  0
SEQEND
  8
0
  0
POLYLINE
  8
114
 66
1
 10
0.0000
 20
0.0000
 30
0.0000
 40
0.1500
 41
0.1500
 70
0
  0
VERTEX
  8
114
 10
95.1813
 20
25.1320
 30
0.0000
  0
VERTEX
  8
114
 10
107.8671
 20
20.5147
 30
0.0000
  0
SEQEND
  8
0
  0
POLYLINE
  8
114
 66
1
 10
0.0000
 20
0.0000
 30
0.0000
 40
0.0750
 41
0.0750
 70
0
  0
VERTEX
  8
114
 10
107.8543
 20
20.4795
 30
0.0000
 42
1.0000
  0
VERTEX
  8
114
 10
107.8799
 20
20.5499
 30
0.0000
  0
SEQEND
  8
0
  0
POLYLINE
  8
114
 66
1
 10
0.0000
 20
0.0000
 30
0.0000
 40
0.0750
 41
0.0750
 70
0
  0
VERTEX
  8
114
 10
95.1941
 20
25.1672
 30
0.0000
 42
1.0000
  0
VERTEX
  8
114
 10
95.1684
 20
25.0967
 30
0.0000
  0
SEQEND
  8
0
  0
POLYLINE
  8
114
 66
1
 10
0.0000
 20
0.0000
 30
0.0000
 40
0.1500
 41
0.1500
 70
0
  0
VERTEX
  8
114
 10
108.0165
 20
20.1943
 30
0.0000
 42
0.4142
  0
VERTEX
  8
114
 10
107.8671
 20
20.5147
 30
0.0000
  0
SEQEND
  8
0
  0
POLYLINE
  8
114
 66
1
 10
0.0000
 20
0.0000
 30
0.0000
 40
0.0750
 41
0.0750
 70
0
  0
VERTEX
  8
114
 10
107.9813
 20
20.2071
 30
0.0000
 42
1.0000
  0
VERTEX
  8
114
 10
108.0518
 20
20.1814
 30
0.0000
  0
SEQEND
  8
0
  0
POLYLINE
  8
114
 66
1
 10
0.0000
 20
0.0000
 30
0.0000
 40
0.0750
 41
0.0750
 70
0
  0
VERTEX
  8
114
 10
107.8799
 20
20.5499
 30
0.0000
 42
1.0000
  0
VERTEX
  8
114
 10
107.8543
 20
20.4795
 30
0.0000
  0
SEQEND
  8
0
  0
POLYLINE
  8
114
 66
1
 10
0.0000
 20
0.0000
 30
0.0000
 40
0.1500
 41
0.1500
 70
0
  0
VERTEX
  8
114
 10
108.0165
 20
20.1943
 30
0.0000
  0
VERTEX
  8
114
 10
103.3993
 20
7.5084
 30
0.0000
  0
SEQEND
  8
0
  0
POLYLINE
  8
114
 66
1
 10
0.0000
 20
0.0000
 30
0.0000
 40
0.0750
 41
0.0750
 70
0
  0
VERTEX
  8
114
 10
103.3640
 20
7.5212
 30
0.0000
 42
1.0000
  0
VERTEX
  8
114
 10
103.4345
 20
7.4956
 30
0.0000
  0
SEQEND
  8
0
  0
POLYLINE
  8
114
 66
1
 10
0.0000
 20
0.0000
 30
0.0000
 40
0.0750
 41
0.0750
 70
0
  0
VERTEX
  8
114
 10
108.0518
 20
20.1814
 30
0.0000
 42
1.0000
  0
VERTEX
  8
114
 10
107.9813
 20
20.2071
 30
0.0000
  0
SEQEND
  8
0
  0
POLYLINE
  8
114
 66
1
 10
0.0000
 20
0.0000
 30
0.0000
 40
0.1500
 41
0.1500
 70
0
  0
VERTEX
  8
114
 10
103.0788
 20
7.3590
 30
0.0000
 42
0.4142
  0
VERTEX
  8
114
 10
103.3993
 20
7.5084
 30
0.0000
  0
SEQEND
  8
0
  0
POLYLINE
  8
114
 66
1
 10
0.0000
 20
0.0000
 30
0.0000
 40
0.0750
 41
0.0750
 70
0
  0
VERTEX
  8
114
 10
103.0917
 20
7.3942
 30
0.0000
 42
1.0000
  0
VERTEX
  8
114
 10
103.0660
 20
7.3238
 30
0.0000
  0
SEQEND
  8
0
  0
POLYLINE
  8
114
 66
1
 10
0.0000
 20
0.0000
 30
0.0000
 40
0.0750
 41
0.0750
 70
0
  0
VERTEX
  8
114
 10
103.4345
 20
7.4956
 30
0.0000
 42
1.0000
  0
VERTEX
  8
114
 10
103.3640
 20
7.5212
 30
0.0000
  0
SEQEND
  8
0
  0
ENDSEC
  0
EOF
