G75*
%MOIN*%
%OFA0B0*%
%FSLAX25Y25*%
%IPPOS*%
%LPD*%
%AMOC8*
5,1,8,0,0,1.08239X$1,22.5*
%
%ADD10C,0.00591*%
%ADD11C,0.09250*%
%ADD12C,0.10450*%
%ADD13C,0.20100*%
%ADD14R,0.02900X0.05400*%
%ADD15R,0.05400X0.02900*%
%ADD16R,0.05912X0.04731*%
%ADD17R,0.02762X0.04731*%
%ADD18R,0.31896X0.31896*%
%ADD19R,0.11030X0.06699*%
%ADD20R,0.06699X0.11030*%
%ADD21R,0.09455X0.04731*%
%ADD22R,0.06400X0.06400*%
%ADD23C,0.06400*%
D10*
X0089883Y0072166D02*
X0089883Y0546576D01*
X0089885Y0546700D01*
X0089891Y0546823D01*
X0089900Y0546947D01*
X0089914Y0547069D01*
X0089931Y0547192D01*
X0089953Y0547314D01*
X0089978Y0547435D01*
X0090007Y0547555D01*
X0090039Y0547674D01*
X0090076Y0547793D01*
X0090116Y0547910D01*
X0090159Y0548025D01*
X0090207Y0548140D01*
X0090258Y0548252D01*
X0090312Y0548363D01*
X0090370Y0548473D01*
X0090431Y0548580D01*
X0090496Y0548686D01*
X0090564Y0548789D01*
X0090635Y0548890D01*
X0090709Y0548989D01*
X0090786Y0549086D01*
X0090867Y0549180D01*
X0090950Y0549271D01*
X0091036Y0549360D01*
X0091125Y0549446D01*
X0091216Y0549529D01*
X0091310Y0549610D01*
X0091407Y0549687D01*
X0091506Y0549761D01*
X0091607Y0549832D01*
X0091710Y0549900D01*
X0091816Y0549965D01*
X0091923Y0550026D01*
X0092033Y0550084D01*
X0092144Y0550138D01*
X0092256Y0550189D01*
X0092371Y0550237D01*
X0092486Y0550280D01*
X0092603Y0550320D01*
X0092722Y0550357D01*
X0092841Y0550389D01*
X0092961Y0550418D01*
X0093082Y0550443D01*
X0093204Y0550465D01*
X0093327Y0550482D01*
X0093449Y0550496D01*
X0093573Y0550505D01*
X0093696Y0550511D01*
X0093820Y0550513D01*
X0164686Y0550513D01*
X0164686Y0565276D01*
X0164688Y0565400D01*
X0164694Y0565523D01*
X0164703Y0565647D01*
X0164717Y0565769D01*
X0164734Y0565892D01*
X0164756Y0566014D01*
X0164781Y0566135D01*
X0164810Y0566255D01*
X0164842Y0566374D01*
X0164879Y0566493D01*
X0164919Y0566610D01*
X0164962Y0566725D01*
X0165010Y0566840D01*
X0165061Y0566952D01*
X0165115Y0567063D01*
X0165173Y0567173D01*
X0165234Y0567280D01*
X0165299Y0567386D01*
X0165367Y0567489D01*
X0165438Y0567590D01*
X0165512Y0567689D01*
X0165589Y0567786D01*
X0165670Y0567880D01*
X0165753Y0567971D01*
X0165839Y0568060D01*
X0165928Y0568146D01*
X0166019Y0568229D01*
X0166113Y0568310D01*
X0166210Y0568387D01*
X0166309Y0568461D01*
X0166410Y0568532D01*
X0166513Y0568600D01*
X0166619Y0568665D01*
X0166726Y0568726D01*
X0166836Y0568784D01*
X0166947Y0568838D01*
X0167059Y0568889D01*
X0167174Y0568937D01*
X0167289Y0568980D01*
X0167406Y0569020D01*
X0167525Y0569057D01*
X0167644Y0569089D01*
X0167764Y0569118D01*
X0167885Y0569143D01*
X0168007Y0569165D01*
X0168130Y0569182D01*
X0168252Y0569196D01*
X0168376Y0569205D01*
X0168499Y0569211D01*
X0168623Y0569213D01*
X0239489Y0569213D01*
X0239489Y0583977D01*
X0239491Y0584101D01*
X0239497Y0584224D01*
X0239506Y0584348D01*
X0239520Y0584470D01*
X0239537Y0584593D01*
X0239559Y0584715D01*
X0239584Y0584836D01*
X0239613Y0584956D01*
X0239645Y0585075D01*
X0239682Y0585194D01*
X0239722Y0585311D01*
X0239765Y0585426D01*
X0239813Y0585541D01*
X0239864Y0585653D01*
X0239918Y0585764D01*
X0239976Y0585874D01*
X0240037Y0585981D01*
X0240102Y0586087D01*
X0240170Y0586190D01*
X0240241Y0586291D01*
X0240315Y0586390D01*
X0240392Y0586487D01*
X0240473Y0586581D01*
X0240556Y0586672D01*
X0240642Y0586761D01*
X0240731Y0586847D01*
X0240822Y0586930D01*
X0240916Y0587011D01*
X0241013Y0587088D01*
X0241112Y0587162D01*
X0241213Y0587233D01*
X0241316Y0587301D01*
X0241422Y0587366D01*
X0241529Y0587427D01*
X0241639Y0587485D01*
X0241750Y0587539D01*
X0241862Y0587590D01*
X0241977Y0587638D01*
X0242092Y0587681D01*
X0242209Y0587721D01*
X0242328Y0587758D01*
X0242447Y0587790D01*
X0242567Y0587819D01*
X0242688Y0587844D01*
X0242810Y0587866D01*
X0242933Y0587883D01*
X0243055Y0587897D01*
X0243179Y0587906D01*
X0243302Y0587912D01*
X0243426Y0587914D01*
X0310355Y0587914D01*
X0310479Y0587912D01*
X0310602Y0587906D01*
X0310726Y0587897D01*
X0310848Y0587883D01*
X0310971Y0587866D01*
X0311093Y0587844D01*
X0311214Y0587819D01*
X0311334Y0587790D01*
X0311453Y0587758D01*
X0311572Y0587721D01*
X0311689Y0587681D01*
X0311804Y0587638D01*
X0311919Y0587590D01*
X0312031Y0587539D01*
X0312142Y0587485D01*
X0312252Y0587427D01*
X0312359Y0587366D01*
X0312465Y0587301D01*
X0312568Y0587233D01*
X0312669Y0587162D01*
X0312768Y0587088D01*
X0312865Y0587011D01*
X0312959Y0586930D01*
X0313050Y0586847D01*
X0313139Y0586761D01*
X0313225Y0586672D01*
X0313308Y0586581D01*
X0313389Y0586487D01*
X0313466Y0586390D01*
X0313540Y0586291D01*
X0313611Y0586190D01*
X0313679Y0586087D01*
X0313744Y0585981D01*
X0313805Y0585874D01*
X0313863Y0585764D01*
X0313917Y0585653D01*
X0313968Y0585541D01*
X0314016Y0585426D01*
X0314059Y0585311D01*
X0314099Y0585194D01*
X0314136Y0585075D01*
X0314168Y0584956D01*
X0314197Y0584836D01*
X0314222Y0584715D01*
X0314244Y0584593D01*
X0314261Y0584470D01*
X0314275Y0584348D01*
X0314284Y0584224D01*
X0314290Y0584101D01*
X0314292Y0583977D01*
X0314292Y0569213D01*
X0385158Y0569213D01*
X0385282Y0569211D01*
X0385405Y0569205D01*
X0385529Y0569196D01*
X0385651Y0569182D01*
X0385774Y0569165D01*
X0385896Y0569143D01*
X0386017Y0569118D01*
X0386137Y0569089D01*
X0386256Y0569057D01*
X0386375Y0569020D01*
X0386492Y0568980D01*
X0386607Y0568937D01*
X0386722Y0568889D01*
X0386834Y0568838D01*
X0386945Y0568784D01*
X0387055Y0568726D01*
X0387162Y0568665D01*
X0387268Y0568600D01*
X0387371Y0568532D01*
X0387472Y0568461D01*
X0387571Y0568387D01*
X0387668Y0568310D01*
X0387762Y0568229D01*
X0387853Y0568146D01*
X0387942Y0568060D01*
X0388028Y0567971D01*
X0388111Y0567880D01*
X0388192Y0567786D01*
X0388269Y0567689D01*
X0388343Y0567590D01*
X0388414Y0567489D01*
X0388482Y0567386D01*
X0388547Y0567280D01*
X0388608Y0567173D01*
X0388666Y0567063D01*
X0388720Y0566952D01*
X0388771Y0566840D01*
X0388819Y0566725D01*
X0388862Y0566610D01*
X0388902Y0566493D01*
X0388939Y0566374D01*
X0388971Y0566255D01*
X0389000Y0566135D01*
X0389025Y0566014D01*
X0389047Y0565892D01*
X0389064Y0565769D01*
X0389078Y0565647D01*
X0389087Y0565523D01*
X0389093Y0565400D01*
X0389095Y0565276D01*
X0389095Y0550513D01*
X0459961Y0550513D01*
X0460085Y0550511D01*
X0460208Y0550505D01*
X0460332Y0550496D01*
X0460454Y0550482D01*
X0460577Y0550465D01*
X0460699Y0550443D01*
X0460820Y0550418D01*
X0460940Y0550389D01*
X0461059Y0550357D01*
X0461178Y0550320D01*
X0461295Y0550280D01*
X0461410Y0550237D01*
X0461525Y0550189D01*
X0461637Y0550138D01*
X0461748Y0550084D01*
X0461858Y0550026D01*
X0461965Y0549965D01*
X0462071Y0549900D01*
X0462174Y0549832D01*
X0462275Y0549761D01*
X0462374Y0549687D01*
X0462471Y0549610D01*
X0462565Y0549529D01*
X0462656Y0549446D01*
X0462745Y0549360D01*
X0462831Y0549271D01*
X0462914Y0549180D01*
X0462995Y0549086D01*
X0463072Y0548989D01*
X0463146Y0548890D01*
X0463217Y0548789D01*
X0463285Y0548686D01*
X0463350Y0548580D01*
X0463411Y0548473D01*
X0463469Y0548363D01*
X0463523Y0548252D01*
X0463574Y0548140D01*
X0463622Y0548025D01*
X0463665Y0547910D01*
X0463705Y0547793D01*
X0463742Y0547674D01*
X0463774Y0547555D01*
X0463803Y0547435D01*
X0463828Y0547314D01*
X0463850Y0547192D01*
X0463867Y0547069D01*
X0463881Y0546947D01*
X0463890Y0546823D01*
X0463896Y0546700D01*
X0463898Y0546576D01*
X0463898Y0414686D01*
X0534765Y0414686D01*
X0534889Y0414684D01*
X0535012Y0414678D01*
X0535136Y0414669D01*
X0535258Y0414655D01*
X0535381Y0414638D01*
X0535503Y0414616D01*
X0535624Y0414591D01*
X0535744Y0414562D01*
X0535863Y0414530D01*
X0535982Y0414493D01*
X0536099Y0414453D01*
X0536214Y0414410D01*
X0536329Y0414362D01*
X0536441Y0414311D01*
X0536552Y0414257D01*
X0536662Y0414199D01*
X0536769Y0414138D01*
X0536875Y0414073D01*
X0536978Y0414005D01*
X0537079Y0413934D01*
X0537178Y0413860D01*
X0537275Y0413783D01*
X0537369Y0413702D01*
X0537460Y0413619D01*
X0537549Y0413533D01*
X0537635Y0413444D01*
X0537718Y0413353D01*
X0537799Y0413259D01*
X0537876Y0413162D01*
X0537950Y0413063D01*
X0538021Y0412962D01*
X0538089Y0412859D01*
X0538154Y0412753D01*
X0538215Y0412646D01*
X0538273Y0412536D01*
X0538327Y0412425D01*
X0538378Y0412313D01*
X0538426Y0412198D01*
X0538469Y0412083D01*
X0538509Y0411966D01*
X0538546Y0411847D01*
X0538578Y0411728D01*
X0538607Y0411608D01*
X0538632Y0411487D01*
X0538654Y0411365D01*
X0538671Y0411242D01*
X0538685Y0411120D01*
X0538694Y0410996D01*
X0538700Y0410873D01*
X0538702Y0410749D01*
X0538702Y0072166D01*
X0538700Y0072042D01*
X0538694Y0071919D01*
X0538685Y0071795D01*
X0538671Y0071673D01*
X0538654Y0071550D01*
X0538632Y0071428D01*
X0538607Y0071307D01*
X0538578Y0071187D01*
X0538546Y0071068D01*
X0538509Y0070949D01*
X0538469Y0070832D01*
X0538426Y0070717D01*
X0538378Y0070602D01*
X0538327Y0070490D01*
X0538273Y0070379D01*
X0538215Y0070269D01*
X0538154Y0070162D01*
X0538089Y0070056D01*
X0538021Y0069953D01*
X0537950Y0069852D01*
X0537876Y0069753D01*
X0537799Y0069656D01*
X0537718Y0069562D01*
X0537635Y0069471D01*
X0537549Y0069382D01*
X0537460Y0069296D01*
X0537369Y0069213D01*
X0537275Y0069132D01*
X0537178Y0069055D01*
X0537079Y0068981D01*
X0536978Y0068910D01*
X0536875Y0068842D01*
X0536769Y0068777D01*
X0536662Y0068716D01*
X0536552Y0068658D01*
X0536441Y0068604D01*
X0536329Y0068553D01*
X0536214Y0068505D01*
X0536099Y0068462D01*
X0535982Y0068422D01*
X0535863Y0068385D01*
X0535744Y0068353D01*
X0535624Y0068324D01*
X0535503Y0068299D01*
X0535381Y0068277D01*
X0535258Y0068260D01*
X0535136Y0068246D01*
X0535012Y0068237D01*
X0534889Y0068231D01*
X0534765Y0068229D01*
X0093820Y0068229D01*
X0093696Y0068231D01*
X0093573Y0068237D01*
X0093449Y0068246D01*
X0093327Y0068260D01*
X0093204Y0068277D01*
X0093082Y0068299D01*
X0092961Y0068324D01*
X0092841Y0068353D01*
X0092722Y0068385D01*
X0092603Y0068422D01*
X0092486Y0068462D01*
X0092371Y0068505D01*
X0092256Y0068553D01*
X0092144Y0068604D01*
X0092033Y0068658D01*
X0091923Y0068716D01*
X0091816Y0068777D01*
X0091710Y0068842D01*
X0091607Y0068910D01*
X0091506Y0068981D01*
X0091407Y0069055D01*
X0091310Y0069132D01*
X0091216Y0069213D01*
X0091125Y0069296D01*
X0091036Y0069382D01*
X0090950Y0069471D01*
X0090867Y0069562D01*
X0090786Y0069656D01*
X0090709Y0069753D01*
X0090635Y0069852D01*
X0090564Y0069953D01*
X0090496Y0070056D01*
X0090431Y0070162D01*
X0090370Y0070269D01*
X0090312Y0070379D01*
X0090258Y0070490D01*
X0090207Y0070602D01*
X0090159Y0070717D01*
X0090116Y0070832D01*
X0090076Y0070949D01*
X0090039Y0071068D01*
X0090007Y0071187D01*
X0089978Y0071307D01*
X0089953Y0071428D01*
X0089931Y0071550D01*
X0089914Y0071673D01*
X0089900Y0071795D01*
X0089891Y0071919D01*
X0089885Y0072042D01*
X0089883Y0072166D01*
D11*
X0112284Y0115631D03*
X0117284Y0125631D03*
X0137284Y0125631D03*
X0142284Y0115631D03*
X0142284Y0190434D03*
X0137284Y0200434D03*
X0117284Y0200434D03*
X0112284Y0190434D03*
X0112284Y0298702D03*
X0117284Y0308702D03*
X0137284Y0308702D03*
X0142284Y0298702D03*
X0187087Y0317402D03*
X0192087Y0327402D03*
X0212087Y0327402D03*
X0217087Y0317402D03*
X0261891Y0336103D03*
X0266891Y0346103D03*
X0286891Y0346103D03*
X0291891Y0336103D03*
X0336694Y0317402D03*
X0341694Y0327402D03*
X0361694Y0327402D03*
X0366694Y0317402D03*
X0411497Y0298702D03*
X0416497Y0308702D03*
X0436497Y0308702D03*
X0441497Y0298702D03*
X0486300Y0280001D03*
X0491300Y0290001D03*
X0511300Y0290001D03*
X0516300Y0280001D03*
X0516300Y0354804D03*
X0511300Y0364804D03*
X0491300Y0364804D03*
X0486300Y0354804D03*
X0441497Y0373505D03*
X0436497Y0383505D03*
X0416497Y0383505D03*
X0411497Y0373505D03*
X0366694Y0392206D03*
X0361694Y0402206D03*
X0341694Y0402206D03*
X0336694Y0392206D03*
X0291891Y0410906D03*
X0286891Y0420906D03*
X0266891Y0420906D03*
X0261891Y0410906D03*
X0217087Y0392206D03*
X0212087Y0402206D03*
X0192087Y0402206D03*
X0187087Y0392206D03*
X0142284Y0373505D03*
X0137284Y0383505D03*
X0117284Y0383505D03*
X0112284Y0373505D03*
X0112284Y0448308D03*
X0117284Y0458308D03*
X0137284Y0458308D03*
X0142284Y0448308D03*
X0187087Y0467009D03*
X0192087Y0477009D03*
X0212087Y0477009D03*
X0217087Y0467009D03*
X0261891Y0485709D03*
X0266891Y0495709D03*
X0286891Y0495709D03*
X0291891Y0485709D03*
X0336694Y0467009D03*
X0341694Y0477009D03*
X0361694Y0477009D03*
X0366694Y0467009D03*
X0411497Y0448308D03*
X0416497Y0458308D03*
X0436497Y0458308D03*
X0441497Y0448308D03*
X0441497Y0523111D03*
X0436497Y0533111D03*
X0416497Y0533111D03*
X0411497Y0523111D03*
X0366694Y0541812D03*
X0361694Y0551812D03*
X0341694Y0551812D03*
X0336694Y0541812D03*
X0291891Y0560513D03*
X0286891Y0570513D03*
X0266891Y0570513D03*
X0261891Y0560513D03*
X0217087Y0541812D03*
X0212087Y0551812D03*
X0192087Y0551812D03*
X0187087Y0541812D03*
X0142284Y0523111D03*
X0137284Y0533111D03*
X0117284Y0533111D03*
X0112284Y0523111D03*
X0413952Y0207445D03*
X0422071Y0215132D03*
X0440864Y0208292D03*
X0442143Y0197185D03*
X0479570Y0154402D03*
X0471452Y0146715D03*
X0498364Y0147561D03*
X0499643Y0136454D03*
X0416559Y0126893D03*
X0415280Y0138000D03*
X0396486Y0144840D03*
X0388368Y0137153D03*
X0359059Y0187623D03*
X0357780Y0198730D03*
X0338987Y0205570D03*
X0330868Y0197883D03*
D12*
X0322749Y0190197D03*
X0360337Y0176516D03*
X0405833Y0199758D03*
X0443421Y0186078D03*
X0463333Y0139028D03*
X0500921Y0125347D03*
X0417837Y0115786D03*
X0380249Y0129466D03*
X0481300Y0270001D03*
X0446497Y0288702D03*
X0406497Y0288702D03*
X0371694Y0307402D03*
X0331694Y0307402D03*
X0296891Y0326103D03*
X0256891Y0326103D03*
X0222087Y0307402D03*
X0182087Y0307402D03*
X0147284Y0288702D03*
X0107284Y0288702D03*
X0107284Y0363505D03*
X0147284Y0363505D03*
X0182087Y0382206D03*
X0222087Y0382206D03*
X0256891Y0400906D03*
X0296891Y0400906D03*
X0331694Y0382206D03*
X0371694Y0382206D03*
X0406497Y0363505D03*
X0446497Y0363505D03*
X0481300Y0344804D03*
X0521300Y0344804D03*
X0521300Y0270001D03*
X0446497Y0438308D03*
X0406497Y0438308D03*
X0371694Y0457009D03*
X0331694Y0457009D03*
X0296891Y0475709D03*
X0256891Y0475709D03*
X0222087Y0457009D03*
X0182087Y0457009D03*
X0147284Y0438308D03*
X0107284Y0438308D03*
X0107284Y0513111D03*
X0147284Y0513111D03*
X0182087Y0531812D03*
X0222087Y0531812D03*
X0256891Y0550513D03*
X0296891Y0550513D03*
X0331694Y0531812D03*
X0371694Y0531812D03*
X0406497Y0513111D03*
X0446497Y0513111D03*
X0147284Y0180434D03*
X0107284Y0180434D03*
X0107284Y0105631D03*
X0147284Y0105631D03*
D13*
X0127284Y0105631D03*
X0127284Y0180434D03*
X0127284Y0288702D03*
X0127284Y0363505D03*
X0127284Y0438308D03*
X0202087Y0457009D03*
X0202087Y0531812D03*
X0127284Y0513111D03*
X0202087Y0382206D03*
X0202087Y0307402D03*
X0276891Y0326103D03*
X0276891Y0400906D03*
X0351694Y0382206D03*
X0351694Y0307402D03*
X0426497Y0288702D03*
X0426497Y0363505D03*
X0426497Y0438308D03*
X0426497Y0513111D03*
X0351694Y0531812D03*
X0351694Y0457009D03*
X0276891Y0475709D03*
X0276891Y0550513D03*
X0501300Y0344804D03*
X0501300Y0270001D03*
X0424627Y0192918D03*
X0482127Y0132188D03*
X0399043Y0122626D03*
X0341543Y0183356D03*
D14*
X0299528Y0284568D03*
X0295198Y0284568D03*
X0290867Y0284568D03*
X0286536Y0284568D03*
X0282206Y0284568D03*
X0277875Y0284568D03*
X0273544Y0284568D03*
X0269213Y0284568D03*
X0264883Y0284568D03*
X0260552Y0284568D03*
X0256221Y0284568D03*
X0251891Y0284568D03*
D15*
X0242245Y0272166D03*
X0242245Y0267835D03*
X0242245Y0263505D03*
X0242245Y0259174D03*
X0242245Y0254843D03*
X0242245Y0250513D03*
X0242245Y0246182D03*
X0242245Y0241851D03*
X0242245Y0237520D03*
X0242245Y0233190D03*
X0242245Y0228859D03*
X0242245Y0224528D03*
X0309174Y0224528D03*
X0309174Y0228859D03*
X0309174Y0233190D03*
X0309174Y0237520D03*
X0309174Y0241851D03*
X0309174Y0246182D03*
X0309174Y0250513D03*
X0309174Y0254843D03*
X0309174Y0259174D03*
X0309174Y0263505D03*
X0309174Y0267835D03*
X0309174Y0272166D03*
D16*
X0495394Y0395001D03*
X0495394Y0401300D03*
X0507206Y0401300D03*
X0507206Y0395001D03*
D17*
X0331024Y0142639D03*
X0323544Y0142639D03*
X0323544Y0131615D03*
X0327284Y0131615D03*
X0331024Y0131615D03*
D18*
X0327284Y0112127D03*
D19*
X0299725Y0137520D03*
X0299725Y0148544D03*
D20*
X0469410Y0389883D03*
X0480434Y0389883D03*
X0480434Y0404450D03*
X0469410Y0404450D03*
D21*
X0493032Y0212914D03*
X0493032Y0199922D03*
X0299725Y0127087D03*
X0299725Y0114095D03*
D22*
X0299331Y0103150D03*
X0504450Y0211654D03*
D23*
X0504450Y0201654D03*
X0299331Y0093150D03*
M02*
