G75*
%MOIN*%
%OFA0B0*%
%FSLAX25Y25*%
%IPPOS*%
%LPD*%
%AMOC8*
5,1,8,0,0,1.08239X$1,22.5*
%
%ADD10C,0.00591*%
%ADD11C,0.00800*%
%ADD12C,0.00500*%
%ADD13C,0.00787*%
D10*
X0089883Y0072166D02*
X0089883Y0546576D01*
X0089885Y0546700D01*
X0089891Y0546823D01*
X0089900Y0546947D01*
X0089914Y0547069D01*
X0089931Y0547192D01*
X0089953Y0547314D01*
X0089978Y0547435D01*
X0090007Y0547555D01*
X0090039Y0547674D01*
X0090076Y0547793D01*
X0090116Y0547910D01*
X0090159Y0548025D01*
X0090207Y0548140D01*
X0090258Y0548252D01*
X0090312Y0548363D01*
X0090370Y0548473D01*
X0090431Y0548580D01*
X0090496Y0548686D01*
X0090564Y0548789D01*
X0090635Y0548890D01*
X0090709Y0548989D01*
X0090786Y0549086D01*
X0090867Y0549180D01*
X0090950Y0549271D01*
X0091036Y0549360D01*
X0091125Y0549446D01*
X0091216Y0549529D01*
X0091310Y0549610D01*
X0091407Y0549687D01*
X0091506Y0549761D01*
X0091607Y0549832D01*
X0091710Y0549900D01*
X0091816Y0549965D01*
X0091923Y0550026D01*
X0092033Y0550084D01*
X0092144Y0550138D01*
X0092256Y0550189D01*
X0092371Y0550237D01*
X0092486Y0550280D01*
X0092603Y0550320D01*
X0092722Y0550357D01*
X0092841Y0550389D01*
X0092961Y0550418D01*
X0093082Y0550443D01*
X0093204Y0550465D01*
X0093327Y0550482D01*
X0093449Y0550496D01*
X0093573Y0550505D01*
X0093696Y0550511D01*
X0093820Y0550513D01*
X0164686Y0550513D01*
X0164686Y0565276D01*
X0164688Y0565400D01*
X0164694Y0565523D01*
X0164703Y0565647D01*
X0164717Y0565769D01*
X0164734Y0565892D01*
X0164756Y0566014D01*
X0164781Y0566135D01*
X0164810Y0566255D01*
X0164842Y0566374D01*
X0164879Y0566493D01*
X0164919Y0566610D01*
X0164962Y0566725D01*
X0165010Y0566840D01*
X0165061Y0566952D01*
X0165115Y0567063D01*
X0165173Y0567173D01*
X0165234Y0567280D01*
X0165299Y0567386D01*
X0165367Y0567489D01*
X0165438Y0567590D01*
X0165512Y0567689D01*
X0165589Y0567786D01*
X0165670Y0567880D01*
X0165753Y0567971D01*
X0165839Y0568060D01*
X0165928Y0568146D01*
X0166019Y0568229D01*
X0166113Y0568310D01*
X0166210Y0568387D01*
X0166309Y0568461D01*
X0166410Y0568532D01*
X0166513Y0568600D01*
X0166619Y0568665D01*
X0166726Y0568726D01*
X0166836Y0568784D01*
X0166947Y0568838D01*
X0167059Y0568889D01*
X0167174Y0568937D01*
X0167289Y0568980D01*
X0167406Y0569020D01*
X0167525Y0569057D01*
X0167644Y0569089D01*
X0167764Y0569118D01*
X0167885Y0569143D01*
X0168007Y0569165D01*
X0168130Y0569182D01*
X0168252Y0569196D01*
X0168376Y0569205D01*
X0168499Y0569211D01*
X0168623Y0569213D01*
X0239489Y0569213D01*
X0239489Y0583977D01*
X0239491Y0584101D01*
X0239497Y0584224D01*
X0239506Y0584348D01*
X0239520Y0584470D01*
X0239537Y0584593D01*
X0239559Y0584715D01*
X0239584Y0584836D01*
X0239613Y0584956D01*
X0239645Y0585075D01*
X0239682Y0585194D01*
X0239722Y0585311D01*
X0239765Y0585426D01*
X0239813Y0585541D01*
X0239864Y0585653D01*
X0239918Y0585764D01*
X0239976Y0585874D01*
X0240037Y0585981D01*
X0240102Y0586087D01*
X0240170Y0586190D01*
X0240241Y0586291D01*
X0240315Y0586390D01*
X0240392Y0586487D01*
X0240473Y0586581D01*
X0240556Y0586672D01*
X0240642Y0586761D01*
X0240731Y0586847D01*
X0240822Y0586930D01*
X0240916Y0587011D01*
X0241013Y0587088D01*
X0241112Y0587162D01*
X0241213Y0587233D01*
X0241316Y0587301D01*
X0241422Y0587366D01*
X0241529Y0587427D01*
X0241639Y0587485D01*
X0241750Y0587539D01*
X0241862Y0587590D01*
X0241977Y0587638D01*
X0242092Y0587681D01*
X0242209Y0587721D01*
X0242328Y0587758D01*
X0242447Y0587790D01*
X0242567Y0587819D01*
X0242688Y0587844D01*
X0242810Y0587866D01*
X0242933Y0587883D01*
X0243055Y0587897D01*
X0243179Y0587906D01*
X0243302Y0587912D01*
X0243426Y0587914D01*
X0310355Y0587914D01*
X0310479Y0587912D01*
X0310602Y0587906D01*
X0310726Y0587897D01*
X0310848Y0587883D01*
X0310971Y0587866D01*
X0311093Y0587844D01*
X0311214Y0587819D01*
X0311334Y0587790D01*
X0311453Y0587758D01*
X0311572Y0587721D01*
X0311689Y0587681D01*
X0311804Y0587638D01*
X0311919Y0587590D01*
X0312031Y0587539D01*
X0312142Y0587485D01*
X0312252Y0587427D01*
X0312359Y0587366D01*
X0312465Y0587301D01*
X0312568Y0587233D01*
X0312669Y0587162D01*
X0312768Y0587088D01*
X0312865Y0587011D01*
X0312959Y0586930D01*
X0313050Y0586847D01*
X0313139Y0586761D01*
X0313225Y0586672D01*
X0313308Y0586581D01*
X0313389Y0586487D01*
X0313466Y0586390D01*
X0313540Y0586291D01*
X0313611Y0586190D01*
X0313679Y0586087D01*
X0313744Y0585981D01*
X0313805Y0585874D01*
X0313863Y0585764D01*
X0313917Y0585653D01*
X0313968Y0585541D01*
X0314016Y0585426D01*
X0314059Y0585311D01*
X0314099Y0585194D01*
X0314136Y0585075D01*
X0314168Y0584956D01*
X0314197Y0584836D01*
X0314222Y0584715D01*
X0314244Y0584593D01*
X0314261Y0584470D01*
X0314275Y0584348D01*
X0314284Y0584224D01*
X0314290Y0584101D01*
X0314292Y0583977D01*
X0314292Y0569213D01*
X0385158Y0569213D01*
X0385282Y0569211D01*
X0385405Y0569205D01*
X0385529Y0569196D01*
X0385651Y0569182D01*
X0385774Y0569165D01*
X0385896Y0569143D01*
X0386017Y0569118D01*
X0386137Y0569089D01*
X0386256Y0569057D01*
X0386375Y0569020D01*
X0386492Y0568980D01*
X0386607Y0568937D01*
X0386722Y0568889D01*
X0386834Y0568838D01*
X0386945Y0568784D01*
X0387055Y0568726D01*
X0387162Y0568665D01*
X0387268Y0568600D01*
X0387371Y0568532D01*
X0387472Y0568461D01*
X0387571Y0568387D01*
X0387668Y0568310D01*
X0387762Y0568229D01*
X0387853Y0568146D01*
X0387942Y0568060D01*
X0388028Y0567971D01*
X0388111Y0567880D01*
X0388192Y0567786D01*
X0388269Y0567689D01*
X0388343Y0567590D01*
X0388414Y0567489D01*
X0388482Y0567386D01*
X0388547Y0567280D01*
X0388608Y0567173D01*
X0388666Y0567063D01*
X0388720Y0566952D01*
X0388771Y0566840D01*
X0388819Y0566725D01*
X0388862Y0566610D01*
X0388902Y0566493D01*
X0388939Y0566374D01*
X0388971Y0566255D01*
X0389000Y0566135D01*
X0389025Y0566014D01*
X0389047Y0565892D01*
X0389064Y0565769D01*
X0389078Y0565647D01*
X0389087Y0565523D01*
X0389093Y0565400D01*
X0389095Y0565276D01*
X0389095Y0550513D01*
X0459961Y0550513D01*
X0460085Y0550511D01*
X0460208Y0550505D01*
X0460332Y0550496D01*
X0460454Y0550482D01*
X0460577Y0550465D01*
X0460699Y0550443D01*
X0460820Y0550418D01*
X0460940Y0550389D01*
X0461059Y0550357D01*
X0461178Y0550320D01*
X0461295Y0550280D01*
X0461410Y0550237D01*
X0461525Y0550189D01*
X0461637Y0550138D01*
X0461748Y0550084D01*
X0461858Y0550026D01*
X0461965Y0549965D01*
X0462071Y0549900D01*
X0462174Y0549832D01*
X0462275Y0549761D01*
X0462374Y0549687D01*
X0462471Y0549610D01*
X0462565Y0549529D01*
X0462656Y0549446D01*
X0462745Y0549360D01*
X0462831Y0549271D01*
X0462914Y0549180D01*
X0462995Y0549086D01*
X0463072Y0548989D01*
X0463146Y0548890D01*
X0463217Y0548789D01*
X0463285Y0548686D01*
X0463350Y0548580D01*
X0463411Y0548473D01*
X0463469Y0548363D01*
X0463523Y0548252D01*
X0463574Y0548140D01*
X0463622Y0548025D01*
X0463665Y0547910D01*
X0463705Y0547793D01*
X0463742Y0547674D01*
X0463774Y0547555D01*
X0463803Y0547435D01*
X0463828Y0547314D01*
X0463850Y0547192D01*
X0463867Y0547069D01*
X0463881Y0546947D01*
X0463890Y0546823D01*
X0463896Y0546700D01*
X0463898Y0546576D01*
X0463898Y0414686D01*
X0534765Y0414686D01*
X0534889Y0414684D01*
X0535012Y0414678D01*
X0535136Y0414669D01*
X0535258Y0414655D01*
X0535381Y0414638D01*
X0535503Y0414616D01*
X0535624Y0414591D01*
X0535744Y0414562D01*
X0535863Y0414530D01*
X0535982Y0414493D01*
X0536099Y0414453D01*
X0536214Y0414410D01*
X0536329Y0414362D01*
X0536441Y0414311D01*
X0536552Y0414257D01*
X0536662Y0414199D01*
X0536769Y0414138D01*
X0536875Y0414073D01*
X0536978Y0414005D01*
X0537079Y0413934D01*
X0537178Y0413860D01*
X0537275Y0413783D01*
X0537369Y0413702D01*
X0537460Y0413619D01*
X0537549Y0413533D01*
X0537635Y0413444D01*
X0537718Y0413353D01*
X0537799Y0413259D01*
X0537876Y0413162D01*
X0537950Y0413063D01*
X0538021Y0412962D01*
X0538089Y0412859D01*
X0538154Y0412753D01*
X0538215Y0412646D01*
X0538273Y0412536D01*
X0538327Y0412425D01*
X0538378Y0412313D01*
X0538426Y0412198D01*
X0538469Y0412083D01*
X0538509Y0411966D01*
X0538546Y0411847D01*
X0538578Y0411728D01*
X0538607Y0411608D01*
X0538632Y0411487D01*
X0538654Y0411365D01*
X0538671Y0411242D01*
X0538685Y0411120D01*
X0538694Y0410996D01*
X0538700Y0410873D01*
X0538702Y0410749D01*
X0538702Y0072166D01*
X0538700Y0072042D01*
X0538694Y0071919D01*
X0538685Y0071795D01*
X0538671Y0071673D01*
X0538654Y0071550D01*
X0538632Y0071428D01*
X0538607Y0071307D01*
X0538578Y0071187D01*
X0538546Y0071068D01*
X0538509Y0070949D01*
X0538469Y0070832D01*
X0538426Y0070717D01*
X0538378Y0070602D01*
X0538327Y0070490D01*
X0538273Y0070379D01*
X0538215Y0070269D01*
X0538154Y0070162D01*
X0538089Y0070056D01*
X0538021Y0069953D01*
X0537950Y0069852D01*
X0537876Y0069753D01*
X0537799Y0069656D01*
X0537718Y0069562D01*
X0537635Y0069471D01*
X0537549Y0069382D01*
X0537460Y0069296D01*
X0537369Y0069213D01*
X0537275Y0069132D01*
X0537178Y0069055D01*
X0537079Y0068981D01*
X0536978Y0068910D01*
X0536875Y0068842D01*
X0536769Y0068777D01*
X0536662Y0068716D01*
X0536552Y0068658D01*
X0536441Y0068604D01*
X0536329Y0068553D01*
X0536214Y0068505D01*
X0536099Y0068462D01*
X0535982Y0068422D01*
X0535863Y0068385D01*
X0535744Y0068353D01*
X0535624Y0068324D01*
X0535503Y0068299D01*
X0535381Y0068277D01*
X0535258Y0068260D01*
X0535136Y0068246D01*
X0535012Y0068237D01*
X0534889Y0068231D01*
X0534765Y0068229D01*
X0093820Y0068229D01*
X0093696Y0068231D01*
X0093573Y0068237D01*
X0093449Y0068246D01*
X0093327Y0068260D01*
X0093204Y0068277D01*
X0093082Y0068299D01*
X0092961Y0068324D01*
X0092841Y0068353D01*
X0092722Y0068385D01*
X0092603Y0068422D01*
X0092486Y0068462D01*
X0092371Y0068505D01*
X0092256Y0068553D01*
X0092144Y0068604D01*
X0092033Y0068658D01*
X0091923Y0068716D01*
X0091816Y0068777D01*
X0091710Y0068842D01*
X0091607Y0068910D01*
X0091506Y0068981D01*
X0091407Y0069055D01*
X0091310Y0069132D01*
X0091216Y0069213D01*
X0091125Y0069296D01*
X0091036Y0069382D01*
X0090950Y0069471D01*
X0090867Y0069562D01*
X0090786Y0069656D01*
X0090709Y0069753D01*
X0090635Y0069852D01*
X0090564Y0069953D01*
X0090496Y0070056D01*
X0090431Y0070162D01*
X0090370Y0070269D01*
X0090312Y0070379D01*
X0090258Y0070490D01*
X0090207Y0070602D01*
X0090159Y0070717D01*
X0090116Y0070832D01*
X0090076Y0070949D01*
X0090039Y0071068D01*
X0090007Y0071187D01*
X0089978Y0071307D01*
X0089953Y0071428D01*
X0089931Y0071550D01*
X0089914Y0071673D01*
X0089900Y0071795D01*
X0089891Y0071919D01*
X0089885Y0072042D01*
X0089883Y0072166D01*
D11*
X0424565Y0076897D02*
X0424565Y0081497D01*
X0424566Y0081497D02*
X0424568Y0081575D01*
X0424574Y0081652D01*
X0424584Y0081729D01*
X0424597Y0081806D01*
X0424615Y0081881D01*
X0424636Y0081956D01*
X0424661Y0082029D01*
X0424690Y0082102D01*
X0424723Y0082172D01*
X0424759Y0082241D01*
X0424798Y0082308D01*
X0424841Y0082373D01*
X0424887Y0082435D01*
X0424936Y0082496D01*
X0424988Y0082553D01*
X0425043Y0082608D01*
X0425100Y0082660D01*
X0425161Y0082709D01*
X0425223Y0082755D01*
X0425288Y0082798D01*
X0425355Y0082837D01*
X0425424Y0082873D01*
X0425494Y0082906D01*
X0425567Y0082935D01*
X0425640Y0082960D01*
X0425715Y0082981D01*
X0425790Y0082999D01*
X0425867Y0083012D01*
X0425944Y0083022D01*
X0426021Y0083028D01*
X0426099Y0083030D01*
X0428654Y0083030D01*
X0428654Y0076897D01*
X0432090Y0076897D02*
X0432090Y0083030D01*
X0431834Y0085586D02*
X0432345Y0085586D01*
X0432345Y0086097D01*
X0431834Y0086097D01*
X0431834Y0085586D01*
X0434973Y0083030D02*
X0438040Y0083030D01*
X0439810Y0083030D02*
X0439810Y0082008D01*
X0439810Y0083030D02*
X0442877Y0083030D01*
X0442877Y0076897D01*
X0446505Y0076897D02*
X0446505Y0081497D01*
X0446505Y0080475D02*
X0448805Y0080475D01*
X0446506Y0081497D02*
X0446508Y0081572D01*
X0446513Y0081647D01*
X0446523Y0081722D01*
X0446535Y0081796D01*
X0446552Y0081869D01*
X0446572Y0081942D01*
X0446596Y0082013D01*
X0446623Y0082084D01*
X0446653Y0082152D01*
X0446687Y0082220D01*
X0446724Y0082285D01*
X0446764Y0082349D01*
X0446808Y0082410D01*
X0446854Y0082470D01*
X0446903Y0082527D01*
X0446955Y0082581D01*
X0447010Y0082633D01*
X0447066Y0082682D01*
X0447126Y0082728D01*
X0447187Y0082772D01*
X0447251Y0082812D01*
X0447316Y0082849D01*
X0447384Y0082883D01*
X0447452Y0082913D01*
X0447523Y0082940D01*
X0447594Y0082964D01*
X0447667Y0082984D01*
X0447740Y0083001D01*
X0447814Y0083013D01*
X0447889Y0083023D01*
X0447964Y0083028D01*
X0448039Y0083030D01*
X0450083Y0083030D01*
X0448805Y0080475D02*
X0448889Y0080473D01*
X0448973Y0080467D01*
X0449056Y0080457D01*
X0449139Y0080444D01*
X0449221Y0080426D01*
X0449302Y0080405D01*
X0449382Y0080379D01*
X0449460Y0080351D01*
X0449538Y0080318D01*
X0449613Y0080282D01*
X0449687Y0080242D01*
X0449759Y0080199D01*
X0449829Y0080153D01*
X0449897Y0080103D01*
X0449962Y0080050D01*
X0450025Y0079995D01*
X0450085Y0079936D01*
X0450142Y0079875D01*
X0450196Y0079811D01*
X0450247Y0079744D01*
X0450295Y0079676D01*
X0450340Y0079605D01*
X0450382Y0079532D01*
X0450419Y0079457D01*
X0450454Y0079380D01*
X0450485Y0079302D01*
X0450512Y0079223D01*
X0450535Y0079142D01*
X0450554Y0079061D01*
X0450570Y0078978D01*
X0450582Y0078895D01*
X0450590Y0078812D01*
X0450594Y0078728D01*
X0450594Y0078644D01*
X0450590Y0078560D01*
X0450582Y0078477D01*
X0450570Y0078394D01*
X0450554Y0078311D01*
X0450535Y0078230D01*
X0450512Y0078149D01*
X0450485Y0078070D01*
X0450454Y0077992D01*
X0450419Y0077915D01*
X0450382Y0077840D01*
X0450340Y0077767D01*
X0450295Y0077696D01*
X0450247Y0077628D01*
X0450196Y0077561D01*
X0450142Y0077497D01*
X0450085Y0077436D01*
X0450025Y0077377D01*
X0449962Y0077322D01*
X0449897Y0077269D01*
X0449829Y0077219D01*
X0449759Y0077173D01*
X0449687Y0077130D01*
X0449613Y0077090D01*
X0449538Y0077054D01*
X0449460Y0077021D01*
X0449382Y0076993D01*
X0449302Y0076967D01*
X0449221Y0076946D01*
X0449139Y0076928D01*
X0449056Y0076915D01*
X0448973Y0076905D01*
X0448889Y0076899D01*
X0448805Y0076897D01*
X0446505Y0076897D01*
X0437018Y0078430D02*
X0437018Y0086097D01*
X0437017Y0078430D02*
X0437015Y0078352D01*
X0437009Y0078275D01*
X0436999Y0078198D01*
X0436986Y0078121D01*
X0436968Y0078046D01*
X0436947Y0077971D01*
X0436922Y0077898D01*
X0436893Y0077825D01*
X0436860Y0077755D01*
X0436824Y0077686D01*
X0436785Y0077619D01*
X0436742Y0077554D01*
X0436696Y0077492D01*
X0436647Y0077431D01*
X0436595Y0077374D01*
X0436540Y0077319D01*
X0436483Y0077267D01*
X0436422Y0077218D01*
X0436360Y0077172D01*
X0436295Y0077129D01*
X0436228Y0077090D01*
X0436159Y0077054D01*
X0436089Y0077021D01*
X0436016Y0076992D01*
X0435943Y0076967D01*
X0435868Y0076946D01*
X0435793Y0076928D01*
X0435716Y0076915D01*
X0435639Y0076905D01*
X0435562Y0076899D01*
X0435484Y0076897D01*
X0435485Y0076897D02*
X0434973Y0076897D01*
X0453957Y0076897D02*
X0453957Y0086097D01*
X0457024Y0080986D01*
X0460090Y0086097D01*
X0460090Y0076897D01*
X0467857Y0076897D02*
X0470413Y0076897D01*
X0470488Y0076899D01*
X0470563Y0076904D01*
X0470638Y0076914D01*
X0470712Y0076926D01*
X0470785Y0076943D01*
X0470858Y0076963D01*
X0470929Y0076987D01*
X0471000Y0077014D01*
X0471068Y0077044D01*
X0471136Y0077078D01*
X0471201Y0077115D01*
X0471265Y0077155D01*
X0471326Y0077199D01*
X0471386Y0077245D01*
X0471443Y0077294D01*
X0471497Y0077346D01*
X0471549Y0077401D01*
X0471598Y0077457D01*
X0471644Y0077517D01*
X0471688Y0077578D01*
X0471728Y0077642D01*
X0471765Y0077707D01*
X0471799Y0077775D01*
X0471829Y0077843D01*
X0471856Y0077914D01*
X0471880Y0077985D01*
X0471900Y0078058D01*
X0471917Y0078131D01*
X0471929Y0078205D01*
X0471939Y0078280D01*
X0471944Y0078355D01*
X0471946Y0078430D01*
X0471946Y0080986D01*
X0471946Y0079964D02*
X0467857Y0079964D01*
X0467857Y0080986D01*
X0467858Y0080986D02*
X0467860Y0081075D01*
X0467866Y0081164D01*
X0467875Y0081253D01*
X0467889Y0081341D01*
X0467906Y0081428D01*
X0467928Y0081515D01*
X0467953Y0081601D01*
X0467981Y0081685D01*
X0468014Y0081768D01*
X0468050Y0081850D01*
X0468089Y0081930D01*
X0468132Y0082008D01*
X0468178Y0082084D01*
X0468228Y0082158D01*
X0468280Y0082230D01*
X0468336Y0082300D01*
X0468395Y0082367D01*
X0468457Y0082431D01*
X0468521Y0082493D01*
X0468588Y0082552D01*
X0468658Y0082608D01*
X0468730Y0082660D01*
X0468804Y0082710D01*
X0468880Y0082756D01*
X0468958Y0082799D01*
X0469038Y0082838D01*
X0469120Y0082874D01*
X0469203Y0082907D01*
X0469287Y0082935D01*
X0469373Y0082960D01*
X0469460Y0082982D01*
X0469547Y0082999D01*
X0469635Y0083013D01*
X0469724Y0083022D01*
X0469813Y0083028D01*
X0469902Y0083030D01*
X0469991Y0083028D01*
X0470080Y0083022D01*
X0470169Y0083013D01*
X0470257Y0082999D01*
X0470344Y0082982D01*
X0470431Y0082960D01*
X0470517Y0082935D01*
X0470601Y0082907D01*
X0470684Y0082874D01*
X0470766Y0082838D01*
X0470846Y0082799D01*
X0470924Y0082756D01*
X0471000Y0082710D01*
X0471074Y0082660D01*
X0471146Y0082608D01*
X0471216Y0082552D01*
X0471283Y0082493D01*
X0471347Y0082431D01*
X0471409Y0082367D01*
X0471468Y0082300D01*
X0471524Y0082230D01*
X0471576Y0082158D01*
X0471626Y0082084D01*
X0471672Y0082008D01*
X0471715Y0081930D01*
X0471754Y0081850D01*
X0471790Y0081768D01*
X0471823Y0081685D01*
X0471851Y0081601D01*
X0471876Y0081515D01*
X0471898Y0081428D01*
X0471915Y0081341D01*
X0471929Y0081253D01*
X0471938Y0081164D01*
X0471944Y0081075D01*
X0471946Y0080986D01*
X0475748Y0079452D02*
X0478303Y0080475D01*
X0478369Y0080503D01*
X0478434Y0080536D01*
X0478497Y0080571D01*
X0478557Y0080610D01*
X0478616Y0080652D01*
X0478672Y0080698D01*
X0478725Y0080746D01*
X0478776Y0080797D01*
X0478824Y0080851D01*
X0478869Y0080907D01*
X0478911Y0080966D01*
X0478949Y0081027D01*
X0478985Y0081090D01*
X0479016Y0081155D01*
X0479044Y0081221D01*
X0479069Y0081289D01*
X0479090Y0081358D01*
X0479107Y0081428D01*
X0479120Y0081499D01*
X0479129Y0081570D01*
X0479135Y0081642D01*
X0479136Y0081714D01*
X0479134Y0081786D01*
X0479127Y0081858D01*
X0479117Y0081929D01*
X0479103Y0082000D01*
X0479085Y0082070D01*
X0479063Y0082139D01*
X0479038Y0082206D01*
X0479009Y0082272D01*
X0478976Y0082336D01*
X0478940Y0082399D01*
X0478900Y0082459D01*
X0478858Y0082517D01*
X0478812Y0082573D01*
X0478763Y0082626D01*
X0478712Y0082677D01*
X0478658Y0082724D01*
X0478601Y0082769D01*
X0478542Y0082810D01*
X0478481Y0082848D01*
X0478418Y0082883D01*
X0478353Y0082914D01*
X0478286Y0082942D01*
X0478218Y0082966D01*
X0478149Y0082986D01*
X0478079Y0083003D01*
X0478008Y0083015D01*
X0477936Y0083024D01*
X0477864Y0083029D01*
X0477792Y0083030D01*
X0479070Y0077408D02*
X0478876Y0077341D01*
X0478681Y0077278D01*
X0478484Y0077220D01*
X0478286Y0077167D01*
X0478087Y0077119D01*
X0477887Y0077075D01*
X0477686Y0077036D01*
X0477483Y0077002D01*
X0477281Y0076972D01*
X0477077Y0076947D01*
X0476873Y0076927D01*
X0476668Y0076912D01*
X0476464Y0076902D01*
X0476259Y0076897D01*
X0476187Y0076898D01*
X0476115Y0076903D01*
X0476043Y0076912D01*
X0475972Y0076924D01*
X0475902Y0076941D01*
X0475833Y0076961D01*
X0475765Y0076985D01*
X0475698Y0077013D01*
X0475633Y0077044D01*
X0475570Y0077079D01*
X0475509Y0077117D01*
X0475450Y0077158D01*
X0475393Y0077203D01*
X0475339Y0077250D01*
X0475288Y0077301D01*
X0475239Y0077354D01*
X0475193Y0077410D01*
X0475151Y0077468D01*
X0475111Y0077528D01*
X0475075Y0077591D01*
X0475042Y0077655D01*
X0475013Y0077721D01*
X0474988Y0077788D01*
X0474966Y0077857D01*
X0474948Y0077927D01*
X0474934Y0077998D01*
X0474924Y0078069D01*
X0474917Y0078141D01*
X0474915Y0078213D01*
X0474916Y0078285D01*
X0474922Y0078357D01*
X0474931Y0078428D01*
X0474944Y0078499D01*
X0474961Y0078569D01*
X0474982Y0078638D01*
X0475007Y0078706D01*
X0475035Y0078772D01*
X0475066Y0078837D01*
X0475102Y0078900D01*
X0475140Y0078961D01*
X0475182Y0079020D01*
X0475227Y0079076D01*
X0475275Y0079130D01*
X0475326Y0079181D01*
X0475379Y0079229D01*
X0475435Y0079275D01*
X0475494Y0079317D01*
X0475554Y0079356D01*
X0475617Y0079391D01*
X0475682Y0079424D01*
X0475748Y0079452D01*
X0475492Y0082519D02*
X0475628Y0082578D01*
X0475766Y0082634D01*
X0475904Y0082686D01*
X0476045Y0082735D01*
X0476186Y0082780D01*
X0476328Y0082821D01*
X0476472Y0082859D01*
X0476616Y0082893D01*
X0476761Y0082923D01*
X0476907Y0082950D01*
X0477053Y0082973D01*
X0477201Y0082992D01*
X0477348Y0083007D01*
X0477496Y0083019D01*
X0477644Y0083026D01*
X0477792Y0083030D01*
X0483383Y0076897D02*
X0483588Y0076902D01*
X0483792Y0076912D01*
X0483997Y0076927D01*
X0484201Y0076947D01*
X0484405Y0076972D01*
X0484607Y0077002D01*
X0484810Y0077036D01*
X0485011Y0077075D01*
X0485211Y0077119D01*
X0485410Y0077167D01*
X0485608Y0077220D01*
X0485805Y0077278D01*
X0486000Y0077341D01*
X0486194Y0077408D01*
X0484916Y0083030D02*
X0484768Y0083026D01*
X0484620Y0083019D01*
X0484472Y0083007D01*
X0484325Y0082992D01*
X0484177Y0082973D01*
X0484031Y0082950D01*
X0483885Y0082923D01*
X0483740Y0082893D01*
X0483596Y0082859D01*
X0483452Y0082821D01*
X0483310Y0082780D01*
X0483169Y0082735D01*
X0483028Y0082686D01*
X0482890Y0082634D01*
X0482752Y0082578D01*
X0482616Y0082519D01*
X0484916Y0083030D02*
X0484988Y0083029D01*
X0485060Y0083024D01*
X0485132Y0083015D01*
X0485203Y0083003D01*
X0485273Y0082986D01*
X0485342Y0082966D01*
X0485410Y0082942D01*
X0485477Y0082914D01*
X0485542Y0082883D01*
X0485605Y0082848D01*
X0485666Y0082810D01*
X0485725Y0082769D01*
X0485782Y0082724D01*
X0485836Y0082677D01*
X0485887Y0082626D01*
X0485936Y0082573D01*
X0485982Y0082517D01*
X0486024Y0082459D01*
X0486064Y0082399D01*
X0486100Y0082336D01*
X0486133Y0082272D01*
X0486162Y0082206D01*
X0486187Y0082139D01*
X0486209Y0082070D01*
X0486227Y0082000D01*
X0486241Y0081929D01*
X0486251Y0081858D01*
X0486258Y0081786D01*
X0486260Y0081714D01*
X0486259Y0081642D01*
X0486253Y0081570D01*
X0486244Y0081499D01*
X0486231Y0081428D01*
X0486214Y0081358D01*
X0486193Y0081289D01*
X0486168Y0081221D01*
X0486140Y0081155D01*
X0486109Y0081090D01*
X0486073Y0081027D01*
X0486035Y0080966D01*
X0485993Y0080907D01*
X0485948Y0080851D01*
X0485900Y0080797D01*
X0485849Y0080746D01*
X0485796Y0080698D01*
X0485740Y0080652D01*
X0485681Y0080610D01*
X0485621Y0080571D01*
X0485558Y0080536D01*
X0485493Y0080503D01*
X0485427Y0080475D01*
X0482872Y0079452D01*
X0482806Y0079424D01*
X0482741Y0079391D01*
X0482678Y0079356D01*
X0482618Y0079317D01*
X0482559Y0079275D01*
X0482503Y0079229D01*
X0482450Y0079181D01*
X0482399Y0079130D01*
X0482351Y0079076D01*
X0482306Y0079020D01*
X0482264Y0078961D01*
X0482226Y0078900D01*
X0482190Y0078837D01*
X0482159Y0078772D01*
X0482131Y0078706D01*
X0482106Y0078638D01*
X0482085Y0078569D01*
X0482068Y0078499D01*
X0482055Y0078428D01*
X0482046Y0078357D01*
X0482040Y0078285D01*
X0482039Y0078213D01*
X0482041Y0078141D01*
X0482048Y0078069D01*
X0482058Y0077998D01*
X0482072Y0077927D01*
X0482090Y0077857D01*
X0482112Y0077788D01*
X0482137Y0077721D01*
X0482166Y0077655D01*
X0482199Y0077591D01*
X0482235Y0077528D01*
X0482275Y0077468D01*
X0482317Y0077410D01*
X0482363Y0077354D01*
X0482412Y0077301D01*
X0482463Y0077250D01*
X0482517Y0077203D01*
X0482574Y0077158D01*
X0482633Y0077117D01*
X0482694Y0077079D01*
X0482757Y0077044D01*
X0482822Y0077013D01*
X0482889Y0076985D01*
X0482957Y0076961D01*
X0483026Y0076941D01*
X0483096Y0076924D01*
X0483167Y0076912D01*
X0483239Y0076903D01*
X0483311Y0076898D01*
X0483383Y0076897D01*
X0489229Y0076897D02*
X0491785Y0076897D01*
X0491860Y0076899D01*
X0491935Y0076904D01*
X0492010Y0076914D01*
X0492084Y0076926D01*
X0492157Y0076943D01*
X0492230Y0076963D01*
X0492301Y0076987D01*
X0492372Y0077014D01*
X0492440Y0077044D01*
X0492508Y0077078D01*
X0492573Y0077115D01*
X0492637Y0077155D01*
X0492698Y0077199D01*
X0492758Y0077245D01*
X0492815Y0077294D01*
X0492869Y0077346D01*
X0492921Y0077401D01*
X0492970Y0077457D01*
X0493016Y0077517D01*
X0493060Y0077578D01*
X0493100Y0077642D01*
X0493137Y0077707D01*
X0493171Y0077775D01*
X0493201Y0077843D01*
X0493228Y0077914D01*
X0493252Y0077985D01*
X0493272Y0078058D01*
X0493289Y0078131D01*
X0493301Y0078205D01*
X0493311Y0078280D01*
X0493316Y0078355D01*
X0493318Y0078430D01*
X0493318Y0080986D01*
X0493318Y0079964D02*
X0489229Y0079964D01*
X0489229Y0080986D01*
X0489230Y0080986D02*
X0489232Y0081075D01*
X0489238Y0081164D01*
X0489247Y0081253D01*
X0489261Y0081341D01*
X0489278Y0081428D01*
X0489300Y0081515D01*
X0489325Y0081601D01*
X0489353Y0081685D01*
X0489386Y0081768D01*
X0489422Y0081850D01*
X0489461Y0081930D01*
X0489504Y0082008D01*
X0489550Y0082084D01*
X0489600Y0082158D01*
X0489652Y0082230D01*
X0489708Y0082300D01*
X0489767Y0082367D01*
X0489829Y0082431D01*
X0489893Y0082493D01*
X0489960Y0082552D01*
X0490030Y0082608D01*
X0490102Y0082660D01*
X0490176Y0082710D01*
X0490252Y0082756D01*
X0490330Y0082799D01*
X0490410Y0082838D01*
X0490492Y0082874D01*
X0490575Y0082907D01*
X0490659Y0082935D01*
X0490745Y0082960D01*
X0490832Y0082982D01*
X0490919Y0082999D01*
X0491007Y0083013D01*
X0491096Y0083022D01*
X0491185Y0083028D01*
X0491274Y0083030D01*
X0491363Y0083028D01*
X0491452Y0083022D01*
X0491541Y0083013D01*
X0491629Y0082999D01*
X0491716Y0082982D01*
X0491803Y0082960D01*
X0491889Y0082935D01*
X0491973Y0082907D01*
X0492056Y0082874D01*
X0492138Y0082838D01*
X0492218Y0082799D01*
X0492296Y0082756D01*
X0492372Y0082710D01*
X0492446Y0082660D01*
X0492518Y0082608D01*
X0492588Y0082552D01*
X0492655Y0082493D01*
X0492719Y0082431D01*
X0492781Y0082367D01*
X0492840Y0082300D01*
X0492896Y0082230D01*
X0492948Y0082158D01*
X0492998Y0082084D01*
X0493044Y0082008D01*
X0493087Y0081930D01*
X0493126Y0081850D01*
X0493162Y0081768D01*
X0493195Y0081685D01*
X0493223Y0081601D01*
X0493248Y0081515D01*
X0493270Y0081428D01*
X0493287Y0081341D01*
X0493301Y0081253D01*
X0493310Y0081164D01*
X0493316Y0081075D01*
X0493318Y0080986D01*
X0496652Y0078941D02*
X0496652Y0086097D01*
X0496653Y0078941D02*
X0496655Y0078852D01*
X0496661Y0078763D01*
X0496670Y0078674D01*
X0496684Y0078586D01*
X0496701Y0078499D01*
X0496723Y0078412D01*
X0496748Y0078326D01*
X0496776Y0078242D01*
X0496809Y0078159D01*
X0496845Y0078077D01*
X0496884Y0077997D01*
X0496927Y0077919D01*
X0496973Y0077843D01*
X0497023Y0077769D01*
X0497075Y0077697D01*
X0497131Y0077627D01*
X0497190Y0077560D01*
X0497252Y0077496D01*
X0497316Y0077434D01*
X0497383Y0077375D01*
X0497453Y0077319D01*
X0497525Y0077267D01*
X0497599Y0077217D01*
X0497675Y0077171D01*
X0497753Y0077128D01*
X0497833Y0077089D01*
X0497915Y0077053D01*
X0497998Y0077020D01*
X0498082Y0076992D01*
X0498168Y0076967D01*
X0498255Y0076945D01*
X0498342Y0076928D01*
X0498430Y0076914D01*
X0498519Y0076905D01*
X0498608Y0076899D01*
X0498697Y0076897D01*
X0499719Y0076897D01*
D12*
X0497560Y0202481D02*
X0497560Y0210355D01*
X0488505Y0210355D02*
X0488505Y0202481D01*
X0332402Y0139883D02*
X0332402Y0134371D01*
X0322166Y0134371D01*
X0322166Y0139883D01*
X0332402Y0139883D01*
X0304253Y0124528D02*
X0304253Y0116654D01*
X0295198Y0116654D02*
X0295198Y0124528D01*
X0309174Y0202481D02*
X0242245Y0202481D01*
X0242245Y0221772D01*
X0242245Y0274922D02*
X0242245Y0284371D01*
X0248938Y0284371D01*
X0302481Y0284371D02*
X0309174Y0284371D01*
X0309174Y0274922D01*
X0309174Y0221772D02*
X0309174Y0202481D01*
X0498800Y0392835D02*
X0503800Y0392835D01*
X0503820Y0400822D02*
X0503820Y0402735D01*
X0503820Y0402743D02*
X0501900Y0402743D01*
X0503820Y0400822D01*
X0503800Y0403465D02*
X0498800Y0403465D01*
D13*
X0333977Y0130434D02*
X0333979Y0130473D01*
X0333985Y0130512D01*
X0333995Y0130550D01*
X0334008Y0130587D01*
X0334025Y0130622D01*
X0334045Y0130656D01*
X0334069Y0130687D01*
X0334096Y0130716D01*
X0334125Y0130742D01*
X0334157Y0130765D01*
X0334191Y0130785D01*
X0334227Y0130801D01*
X0334264Y0130813D01*
X0334303Y0130822D01*
X0334342Y0130827D01*
X0334381Y0130828D01*
X0334420Y0130825D01*
X0334459Y0130818D01*
X0334496Y0130807D01*
X0334533Y0130793D01*
X0334568Y0130775D01*
X0334601Y0130754D01*
X0334632Y0130729D01*
X0334660Y0130702D01*
X0334685Y0130672D01*
X0334707Y0130639D01*
X0334726Y0130605D01*
X0334741Y0130569D01*
X0334753Y0130531D01*
X0334761Y0130493D01*
X0334765Y0130454D01*
X0334765Y0130414D01*
X0334761Y0130375D01*
X0334753Y0130337D01*
X0334741Y0130299D01*
X0334726Y0130263D01*
X0334707Y0130229D01*
X0334685Y0130196D01*
X0334660Y0130166D01*
X0334632Y0130139D01*
X0334601Y0130114D01*
X0334568Y0130093D01*
X0334533Y0130075D01*
X0334496Y0130061D01*
X0334459Y0130050D01*
X0334420Y0130043D01*
X0334381Y0130040D01*
X0334342Y0130041D01*
X0334303Y0130046D01*
X0334264Y0130055D01*
X0334227Y0130067D01*
X0334191Y0130083D01*
X0334157Y0130103D01*
X0334125Y0130126D01*
X0334096Y0130152D01*
X0334069Y0130181D01*
X0334045Y0130212D01*
X0334025Y0130246D01*
X0334008Y0130281D01*
X0333995Y0130318D01*
X0333985Y0130356D01*
X0333979Y0130395D01*
X0333977Y0130434D01*
M02*
