G75*
%MOIN*%
%OFA0B0*%
%FSLAX25Y25*%
%IPPOS*%
%LPD*%
%AMOC8*
5,1,8,0,0,1.08239X$1,22.5*
%
%ADD10C,0.00600*%
%ADD11C,0.00400*%
%ADD12C,0.00500*%
D10*
X0097975Y0074091D02*
X0098686Y0074091D01*
X0098760Y0074093D01*
X0098835Y0074099D01*
X0098908Y0074109D01*
X0098982Y0074122D01*
X0099054Y0074139D01*
X0099125Y0074161D01*
X0099196Y0074185D01*
X0099264Y0074214D01*
X0099332Y0074246D01*
X0099397Y0074282D01*
X0099460Y0074320D01*
X0099522Y0074363D01*
X0099581Y0074408D01*
X0099638Y0074456D01*
X0099692Y0074507D01*
X0099743Y0074561D01*
X0099791Y0074618D01*
X0099836Y0074677D01*
X0099879Y0074739D01*
X0099917Y0074802D01*
X0099953Y0074867D01*
X0099985Y0074935D01*
X0100014Y0075003D01*
X0100038Y0075074D01*
X0100060Y0075145D01*
X0100077Y0075217D01*
X0100090Y0075291D01*
X0100100Y0075364D01*
X0100106Y0075439D01*
X0100108Y0075513D01*
X0100109Y0075513D02*
X0100109Y0080491D01*
X0102836Y0076936D02*
X0102836Y0075158D01*
X0102836Y0076225D02*
X0105681Y0076225D01*
X0105681Y0076936D01*
X0105680Y0076936D02*
X0105678Y0077010D01*
X0105672Y0077085D01*
X0105662Y0077158D01*
X0105649Y0077232D01*
X0105632Y0077304D01*
X0105610Y0077375D01*
X0105586Y0077446D01*
X0105557Y0077514D01*
X0105525Y0077582D01*
X0105489Y0077647D01*
X0105451Y0077710D01*
X0105408Y0077772D01*
X0105363Y0077831D01*
X0105315Y0077888D01*
X0105264Y0077942D01*
X0105210Y0077993D01*
X0105153Y0078041D01*
X0105094Y0078086D01*
X0105032Y0078129D01*
X0104969Y0078167D01*
X0104904Y0078203D01*
X0104836Y0078235D01*
X0104768Y0078264D01*
X0104697Y0078288D01*
X0104626Y0078310D01*
X0104554Y0078327D01*
X0104480Y0078340D01*
X0104407Y0078350D01*
X0104332Y0078356D01*
X0104258Y0078358D01*
X0104184Y0078356D01*
X0104109Y0078350D01*
X0104036Y0078340D01*
X0103962Y0078327D01*
X0103890Y0078310D01*
X0103819Y0078288D01*
X0103748Y0078264D01*
X0103680Y0078235D01*
X0103612Y0078203D01*
X0103547Y0078167D01*
X0103484Y0078129D01*
X0103422Y0078086D01*
X0103363Y0078041D01*
X0103306Y0077993D01*
X0103252Y0077942D01*
X0103201Y0077888D01*
X0103153Y0077831D01*
X0103108Y0077772D01*
X0103065Y0077710D01*
X0103027Y0077647D01*
X0102991Y0077582D01*
X0102959Y0077514D01*
X0102930Y0077446D01*
X0102906Y0077375D01*
X0102884Y0077304D01*
X0102867Y0077232D01*
X0102854Y0077158D01*
X0102844Y0077085D01*
X0102838Y0077010D01*
X0102836Y0076936D01*
X0102836Y0075158D02*
X0102838Y0075094D01*
X0102844Y0075029D01*
X0102853Y0074966D01*
X0102867Y0074903D01*
X0102884Y0074841D01*
X0102905Y0074780D01*
X0102930Y0074720D01*
X0102958Y0074662D01*
X0102990Y0074606D01*
X0103025Y0074552D01*
X0103063Y0074500D01*
X0103104Y0074450D01*
X0103149Y0074404D01*
X0103195Y0074359D01*
X0103245Y0074318D01*
X0103297Y0074280D01*
X0103351Y0074245D01*
X0103407Y0074213D01*
X0103465Y0074185D01*
X0103525Y0074160D01*
X0103586Y0074139D01*
X0103648Y0074122D01*
X0103711Y0074108D01*
X0103774Y0074099D01*
X0103839Y0074093D01*
X0103903Y0074091D01*
X0105681Y0074091D01*
X0109059Y0078359D02*
X0109177Y0078355D01*
X0109294Y0078348D01*
X0109412Y0078338D01*
X0109529Y0078324D01*
X0109645Y0078307D01*
X0109761Y0078287D01*
X0109877Y0078263D01*
X0109992Y0078236D01*
X0110106Y0078205D01*
X0110218Y0078171D01*
X0110330Y0078134D01*
X0110441Y0078093D01*
X0110551Y0078050D01*
X0110659Y0078003D01*
X0109058Y0078358D02*
X0108999Y0078357D01*
X0108939Y0078352D01*
X0108881Y0078343D01*
X0108822Y0078331D01*
X0108765Y0078314D01*
X0108709Y0078295D01*
X0108654Y0078271D01*
X0108601Y0078244D01*
X0108550Y0078214D01*
X0108501Y0078180D01*
X0108454Y0078144D01*
X0108410Y0078104D01*
X0108368Y0078062D01*
X0108329Y0078017D01*
X0108293Y0077969D01*
X0108260Y0077920D01*
X0108231Y0077868D01*
X0108204Y0077815D01*
X0108182Y0077760D01*
X0108163Y0077703D01*
X0108147Y0077646D01*
X0108136Y0077588D01*
X0108128Y0077529D01*
X0108124Y0077469D01*
X0108123Y0077410D01*
X0108127Y0077350D01*
X0108134Y0077291D01*
X0108146Y0077233D01*
X0108161Y0077175D01*
X0108179Y0077119D01*
X0108202Y0077064D01*
X0108227Y0077010D01*
X0108257Y0076958D01*
X0108289Y0076908D01*
X0108325Y0076861D01*
X0108363Y0076815D01*
X0108405Y0076773D01*
X0108449Y0076733D01*
X0108495Y0076696D01*
X0108544Y0076662D01*
X0108595Y0076631D01*
X0108648Y0076604D01*
X0108703Y0076580D01*
X0110481Y0075869D01*
X0110480Y0075869D02*
X0110535Y0075845D01*
X0110588Y0075818D01*
X0110639Y0075787D01*
X0110688Y0075753D01*
X0110734Y0075716D01*
X0110778Y0075676D01*
X0110820Y0075634D01*
X0110858Y0075588D01*
X0110894Y0075541D01*
X0110926Y0075491D01*
X0110956Y0075439D01*
X0110981Y0075385D01*
X0111004Y0075330D01*
X0111022Y0075274D01*
X0111037Y0075216D01*
X0111049Y0075158D01*
X0111056Y0075099D01*
X0111060Y0075039D01*
X0111059Y0074980D01*
X0111055Y0074920D01*
X0111047Y0074861D01*
X0111036Y0074803D01*
X0111020Y0074746D01*
X0111001Y0074689D01*
X0110979Y0074634D01*
X0110952Y0074581D01*
X0110923Y0074529D01*
X0110890Y0074480D01*
X0110854Y0074432D01*
X0110815Y0074387D01*
X0110773Y0074345D01*
X0110729Y0074305D01*
X0110682Y0074269D01*
X0110633Y0074235D01*
X0110582Y0074205D01*
X0110529Y0074178D01*
X0110474Y0074154D01*
X0110418Y0074135D01*
X0110361Y0074118D01*
X0110302Y0074106D01*
X0110244Y0074097D01*
X0110184Y0074092D01*
X0110125Y0074091D01*
X0114392Y0078359D02*
X0114510Y0078355D01*
X0114627Y0078348D01*
X0114745Y0078338D01*
X0114862Y0078324D01*
X0114978Y0078307D01*
X0115094Y0078287D01*
X0115210Y0078263D01*
X0115325Y0078236D01*
X0115439Y0078205D01*
X0115551Y0078171D01*
X0115663Y0078134D01*
X0115774Y0078093D01*
X0115884Y0078050D01*
X0115992Y0078003D01*
X0114392Y0078358D02*
X0114333Y0078357D01*
X0114273Y0078352D01*
X0114215Y0078343D01*
X0114156Y0078331D01*
X0114099Y0078314D01*
X0114043Y0078295D01*
X0113988Y0078271D01*
X0113935Y0078244D01*
X0113884Y0078214D01*
X0113835Y0078180D01*
X0113788Y0078144D01*
X0113744Y0078104D01*
X0113702Y0078062D01*
X0113663Y0078017D01*
X0113627Y0077969D01*
X0113594Y0077920D01*
X0113565Y0077868D01*
X0113538Y0077815D01*
X0113516Y0077760D01*
X0113497Y0077703D01*
X0113481Y0077646D01*
X0113470Y0077588D01*
X0113462Y0077529D01*
X0113458Y0077469D01*
X0113457Y0077410D01*
X0113461Y0077350D01*
X0113468Y0077291D01*
X0113480Y0077233D01*
X0113495Y0077175D01*
X0113513Y0077119D01*
X0113536Y0077064D01*
X0113561Y0077010D01*
X0113591Y0076958D01*
X0113623Y0076908D01*
X0113659Y0076861D01*
X0113697Y0076815D01*
X0113739Y0076773D01*
X0113783Y0076733D01*
X0113829Y0076696D01*
X0113878Y0076662D01*
X0113929Y0076631D01*
X0113982Y0076604D01*
X0114037Y0076580D01*
X0115814Y0075869D01*
X0115869Y0075845D01*
X0115922Y0075818D01*
X0115973Y0075787D01*
X0116022Y0075753D01*
X0116068Y0075716D01*
X0116112Y0075676D01*
X0116154Y0075634D01*
X0116192Y0075588D01*
X0116228Y0075541D01*
X0116260Y0075491D01*
X0116290Y0075439D01*
X0116315Y0075385D01*
X0116338Y0075330D01*
X0116356Y0075274D01*
X0116371Y0075216D01*
X0116383Y0075158D01*
X0116390Y0075099D01*
X0116394Y0075039D01*
X0116393Y0074980D01*
X0116389Y0074920D01*
X0116381Y0074861D01*
X0116370Y0074803D01*
X0116354Y0074746D01*
X0116335Y0074689D01*
X0116313Y0074634D01*
X0116286Y0074581D01*
X0116257Y0074529D01*
X0116224Y0074480D01*
X0116188Y0074432D01*
X0116149Y0074387D01*
X0116107Y0074345D01*
X0116063Y0074305D01*
X0116016Y0074269D01*
X0115967Y0074235D01*
X0115916Y0074205D01*
X0115863Y0074178D01*
X0115808Y0074154D01*
X0115752Y0074135D01*
X0115695Y0074118D01*
X0115636Y0074106D01*
X0115578Y0074097D01*
X0115518Y0074092D01*
X0115459Y0074091D01*
X0118837Y0075158D02*
X0118837Y0076936D01*
X0118837Y0076225D02*
X0121681Y0076225D01*
X0121681Y0076936D01*
X0121679Y0077010D01*
X0121673Y0077085D01*
X0121663Y0077158D01*
X0121650Y0077232D01*
X0121633Y0077304D01*
X0121611Y0077375D01*
X0121587Y0077446D01*
X0121558Y0077514D01*
X0121526Y0077582D01*
X0121490Y0077647D01*
X0121452Y0077710D01*
X0121409Y0077772D01*
X0121364Y0077831D01*
X0121316Y0077888D01*
X0121265Y0077942D01*
X0121211Y0077993D01*
X0121154Y0078041D01*
X0121095Y0078086D01*
X0121033Y0078129D01*
X0120970Y0078167D01*
X0120905Y0078203D01*
X0120837Y0078235D01*
X0120769Y0078264D01*
X0120698Y0078288D01*
X0120627Y0078310D01*
X0120555Y0078327D01*
X0120481Y0078340D01*
X0120408Y0078350D01*
X0120333Y0078356D01*
X0120259Y0078358D01*
X0120185Y0078356D01*
X0120110Y0078350D01*
X0120037Y0078340D01*
X0119963Y0078327D01*
X0119891Y0078310D01*
X0119820Y0078288D01*
X0119749Y0078264D01*
X0119681Y0078235D01*
X0119613Y0078203D01*
X0119548Y0078167D01*
X0119485Y0078129D01*
X0119423Y0078086D01*
X0119364Y0078041D01*
X0119307Y0077993D01*
X0119253Y0077942D01*
X0119202Y0077888D01*
X0119154Y0077831D01*
X0119109Y0077772D01*
X0119066Y0077710D01*
X0119028Y0077647D01*
X0118992Y0077582D01*
X0118960Y0077514D01*
X0118931Y0077446D01*
X0118907Y0077375D01*
X0118885Y0077304D01*
X0118868Y0077232D01*
X0118855Y0077158D01*
X0118845Y0077085D01*
X0118839Y0077010D01*
X0118837Y0076936D01*
X0118836Y0075158D02*
X0118838Y0075094D01*
X0118844Y0075029D01*
X0118853Y0074966D01*
X0118867Y0074903D01*
X0118884Y0074841D01*
X0118905Y0074780D01*
X0118930Y0074720D01*
X0118958Y0074662D01*
X0118990Y0074606D01*
X0119025Y0074552D01*
X0119063Y0074500D01*
X0119104Y0074450D01*
X0119149Y0074404D01*
X0119195Y0074359D01*
X0119245Y0074318D01*
X0119297Y0074280D01*
X0119351Y0074245D01*
X0119407Y0074213D01*
X0119465Y0074185D01*
X0119525Y0074160D01*
X0119586Y0074139D01*
X0119648Y0074122D01*
X0119711Y0074108D01*
X0119774Y0074099D01*
X0119839Y0074093D01*
X0119903Y0074091D01*
X0121681Y0074091D01*
X0127767Y0074091D02*
X0127767Y0080491D01*
X0129900Y0076936D01*
X0132034Y0080491D01*
X0132034Y0074091D01*
X0136053Y0074091D02*
X0137653Y0074091D01*
X0137653Y0077291D01*
X0137653Y0076580D02*
X0136053Y0076580D01*
X0137653Y0077291D02*
X0137651Y0077355D01*
X0137645Y0077420D01*
X0137636Y0077483D01*
X0137622Y0077546D01*
X0137605Y0077608D01*
X0137584Y0077669D01*
X0137559Y0077729D01*
X0137531Y0077787D01*
X0137499Y0077843D01*
X0137464Y0077897D01*
X0137426Y0077949D01*
X0137385Y0077999D01*
X0137340Y0078045D01*
X0137294Y0078090D01*
X0137244Y0078131D01*
X0137192Y0078169D01*
X0137138Y0078204D01*
X0137082Y0078236D01*
X0137024Y0078264D01*
X0136964Y0078289D01*
X0136903Y0078310D01*
X0136841Y0078327D01*
X0136778Y0078341D01*
X0136715Y0078350D01*
X0136650Y0078356D01*
X0136586Y0078358D01*
X0135164Y0078358D01*
X0136053Y0076580D02*
X0135983Y0076578D01*
X0135914Y0076572D01*
X0135845Y0076562D01*
X0135776Y0076549D01*
X0135709Y0076531D01*
X0135642Y0076510D01*
X0135577Y0076485D01*
X0135513Y0076457D01*
X0135451Y0076425D01*
X0135391Y0076389D01*
X0135333Y0076351D01*
X0135277Y0076309D01*
X0135224Y0076264D01*
X0135173Y0076216D01*
X0135125Y0076165D01*
X0135080Y0076112D01*
X0135038Y0076056D01*
X0135000Y0075998D01*
X0134964Y0075938D01*
X0134932Y0075876D01*
X0134904Y0075812D01*
X0134879Y0075747D01*
X0134858Y0075680D01*
X0134840Y0075613D01*
X0134827Y0075544D01*
X0134817Y0075475D01*
X0134811Y0075406D01*
X0134809Y0075336D01*
X0134811Y0075266D01*
X0134817Y0075197D01*
X0134827Y0075128D01*
X0134840Y0075059D01*
X0134858Y0074992D01*
X0134879Y0074925D01*
X0134904Y0074860D01*
X0134932Y0074796D01*
X0134964Y0074734D01*
X0135000Y0074674D01*
X0135038Y0074616D01*
X0135080Y0074560D01*
X0135125Y0074507D01*
X0135173Y0074456D01*
X0135224Y0074408D01*
X0135277Y0074363D01*
X0135333Y0074321D01*
X0135391Y0074283D01*
X0135451Y0074247D01*
X0135513Y0074215D01*
X0135577Y0074187D01*
X0135642Y0074162D01*
X0135709Y0074141D01*
X0135776Y0074123D01*
X0135845Y0074110D01*
X0135914Y0074100D01*
X0135983Y0074094D01*
X0136053Y0074092D01*
X0140614Y0074091D02*
X0140614Y0078358D01*
X0142748Y0078358D01*
X0142748Y0077647D01*
X0144173Y0078358D02*
X0146306Y0078358D01*
X0148567Y0078358D02*
X0148567Y0074091D01*
X0151248Y0074091D02*
X0151248Y0078358D01*
X0153026Y0078358D01*
X0153090Y0078356D01*
X0153155Y0078350D01*
X0153218Y0078341D01*
X0153281Y0078327D01*
X0153343Y0078310D01*
X0153404Y0078289D01*
X0153464Y0078264D01*
X0153522Y0078236D01*
X0153578Y0078204D01*
X0153632Y0078169D01*
X0153684Y0078131D01*
X0153734Y0078090D01*
X0153780Y0078045D01*
X0153825Y0077999D01*
X0153866Y0077949D01*
X0153904Y0077897D01*
X0153939Y0077843D01*
X0153971Y0077787D01*
X0153999Y0077729D01*
X0154024Y0077669D01*
X0154045Y0077608D01*
X0154062Y0077546D01*
X0154076Y0077483D01*
X0154085Y0077420D01*
X0154091Y0077355D01*
X0154093Y0077291D01*
X0154092Y0077291D02*
X0154092Y0074091D01*
X0146306Y0074091D02*
X0145951Y0074091D01*
X0145887Y0074093D01*
X0145822Y0074099D01*
X0145759Y0074108D01*
X0145696Y0074122D01*
X0145634Y0074139D01*
X0145573Y0074160D01*
X0145513Y0074185D01*
X0145455Y0074213D01*
X0145399Y0074245D01*
X0145345Y0074280D01*
X0145293Y0074318D01*
X0145243Y0074359D01*
X0145197Y0074404D01*
X0145152Y0074450D01*
X0145111Y0074500D01*
X0145073Y0074552D01*
X0145038Y0074606D01*
X0145006Y0074662D01*
X0144978Y0074720D01*
X0144953Y0074780D01*
X0144932Y0074841D01*
X0144915Y0074903D01*
X0144901Y0074966D01*
X0144892Y0075029D01*
X0144886Y0075094D01*
X0144884Y0075158D01*
X0144884Y0080491D01*
X0148390Y0080491D02*
X0148745Y0080491D01*
X0148745Y0080136D01*
X0148390Y0080136D01*
X0148390Y0080491D01*
X0115459Y0074092D02*
X0115305Y0074096D01*
X0115152Y0074104D01*
X0114999Y0074116D01*
X0114846Y0074132D01*
X0114694Y0074151D01*
X0114542Y0074175D01*
X0114391Y0074202D01*
X0114241Y0074234D01*
X0114091Y0074269D01*
X0113942Y0074308D01*
X0113795Y0074351D01*
X0113648Y0074397D01*
X0113503Y0074447D01*
X0110125Y0074092D02*
X0109971Y0074096D01*
X0109818Y0074104D01*
X0109665Y0074116D01*
X0109512Y0074132D01*
X0109360Y0074151D01*
X0109208Y0074175D01*
X0109057Y0074202D01*
X0108907Y0074234D01*
X0108757Y0074269D01*
X0108608Y0074308D01*
X0108461Y0074351D01*
X0108314Y0074397D01*
X0108169Y0074447D01*
D11*
X0109337Y0063000D02*
X0106781Y0060189D01*
X0107803Y0061212D02*
X0109337Y0058400D01*
X0111193Y0058400D02*
X0112471Y0058400D01*
X0112526Y0058402D01*
X0112580Y0058408D01*
X0112634Y0058418D01*
X0112687Y0058431D01*
X0112739Y0058448D01*
X0112790Y0058469D01*
X0112839Y0058494D01*
X0112886Y0058522D01*
X0112931Y0058553D01*
X0112973Y0058587D01*
X0113013Y0058625D01*
X0113051Y0058665D01*
X0113085Y0058707D01*
X0113116Y0058752D01*
X0113144Y0058799D01*
X0113169Y0058848D01*
X0113190Y0058899D01*
X0113207Y0058951D01*
X0113220Y0059004D01*
X0113230Y0059058D01*
X0113236Y0059112D01*
X0113238Y0059167D01*
X0113238Y0060700D01*
X0113236Y0060755D01*
X0113230Y0060809D01*
X0113220Y0060863D01*
X0113207Y0060916D01*
X0113190Y0060968D01*
X0113169Y0061019D01*
X0113144Y0061068D01*
X0113116Y0061115D01*
X0113085Y0061160D01*
X0113051Y0061202D01*
X0113013Y0061242D01*
X0112973Y0061280D01*
X0112931Y0061314D01*
X0112886Y0061345D01*
X0112839Y0061373D01*
X0112790Y0061398D01*
X0112739Y0061419D01*
X0112687Y0061436D01*
X0112634Y0061449D01*
X0112580Y0061459D01*
X0112526Y0061465D01*
X0112471Y0061467D01*
X0111193Y0061467D01*
X0111193Y0063000D02*
X0111193Y0058400D01*
X0115047Y0059167D02*
X0115047Y0060700D01*
X0115049Y0060755D01*
X0115055Y0060809D01*
X0115065Y0060863D01*
X0115078Y0060916D01*
X0115095Y0060968D01*
X0115116Y0061019D01*
X0115141Y0061068D01*
X0115169Y0061115D01*
X0115200Y0061160D01*
X0115234Y0061202D01*
X0115272Y0061242D01*
X0115312Y0061280D01*
X0115354Y0061314D01*
X0115399Y0061345D01*
X0115446Y0061373D01*
X0115495Y0061398D01*
X0115546Y0061419D01*
X0115598Y0061436D01*
X0115651Y0061449D01*
X0115705Y0061459D01*
X0115759Y0061465D01*
X0115814Y0061467D01*
X0117091Y0061467D01*
X0117091Y0063000D02*
X0117091Y0058400D01*
X0115814Y0058400D01*
X0115759Y0058402D01*
X0115705Y0058408D01*
X0115651Y0058418D01*
X0115598Y0058431D01*
X0115546Y0058448D01*
X0115495Y0058469D01*
X0115446Y0058494D01*
X0115399Y0058522D01*
X0115354Y0058553D01*
X0115312Y0058587D01*
X0115272Y0058625D01*
X0115234Y0058665D01*
X0115200Y0058707D01*
X0115169Y0058752D01*
X0115141Y0058799D01*
X0115116Y0058848D01*
X0115095Y0058899D01*
X0115078Y0058951D01*
X0115065Y0059004D01*
X0115055Y0059058D01*
X0115049Y0059112D01*
X0115047Y0059167D01*
X0118543Y0051156D02*
X0118666Y0051114D01*
X0118791Y0051075D01*
X0118916Y0051040D01*
X0119043Y0051009D01*
X0119171Y0050982D01*
X0119299Y0050959D01*
X0119428Y0050939D01*
X0119558Y0050924D01*
X0119687Y0050912D01*
X0119818Y0050904D01*
X0119948Y0050900D01*
X0119999Y0050901D01*
X0120049Y0050906D01*
X0120100Y0050916D01*
X0120149Y0050928D01*
X0120197Y0050945D01*
X0120244Y0050966D01*
X0120290Y0050989D01*
X0120333Y0051017D01*
X0120374Y0051047D01*
X0120412Y0051081D01*
X0120448Y0051117D01*
X0120481Y0051157D01*
X0120511Y0051198D01*
X0120537Y0051242D01*
X0120560Y0051287D01*
X0120579Y0051335D01*
X0120595Y0051383D01*
X0120607Y0051433D01*
X0120615Y0051483D01*
X0120619Y0051534D01*
X0120620Y0051585D01*
X0120616Y0051636D01*
X0120608Y0051687D01*
X0120597Y0051737D01*
X0120582Y0051786D01*
X0120563Y0051833D01*
X0120540Y0051879D01*
X0120514Y0051923D01*
X0120485Y0051965D01*
X0120452Y0052004D01*
X0120417Y0052041D01*
X0120378Y0052075D01*
X0120338Y0052106D01*
X0120295Y0052133D01*
X0120250Y0052158D01*
X0120203Y0052179D01*
X0120203Y0052178D02*
X0118926Y0052689D01*
X0118879Y0052710D01*
X0118834Y0052735D01*
X0118791Y0052762D01*
X0118751Y0052793D01*
X0118712Y0052827D01*
X0118677Y0052864D01*
X0118644Y0052903D01*
X0118615Y0052945D01*
X0118589Y0052989D01*
X0118566Y0053035D01*
X0118547Y0053082D01*
X0118532Y0053131D01*
X0118521Y0053181D01*
X0118513Y0053232D01*
X0118509Y0053283D01*
X0118510Y0053334D01*
X0118514Y0053385D01*
X0118522Y0053435D01*
X0118534Y0053485D01*
X0118550Y0053533D01*
X0118569Y0053581D01*
X0118592Y0053626D01*
X0118618Y0053670D01*
X0118648Y0053711D01*
X0118681Y0053751D01*
X0118717Y0053787D01*
X0118755Y0053821D01*
X0118796Y0053851D01*
X0118839Y0053879D01*
X0118885Y0053902D01*
X0118932Y0053923D01*
X0118980Y0053940D01*
X0119029Y0053952D01*
X0119080Y0053962D01*
X0119130Y0053967D01*
X0119181Y0053968D01*
X0117102Y0053967D02*
X0117102Y0053456D01*
X0117102Y0053967D02*
X0115569Y0053967D01*
X0115569Y0050900D01*
X0119181Y0053967D02*
X0119280Y0053964D01*
X0119379Y0053957D01*
X0119477Y0053947D01*
X0119575Y0053934D01*
X0119673Y0053918D01*
X0119770Y0053898D01*
X0119866Y0053875D01*
X0119961Y0053848D01*
X0120055Y0053819D01*
X0120148Y0053786D01*
X0120241Y0053750D01*
X0120331Y0053711D01*
X0122415Y0053967D02*
X0122415Y0050900D01*
X0124242Y0051923D02*
X0124242Y0052945D01*
X0124243Y0052945D02*
X0124245Y0053008D01*
X0124251Y0053071D01*
X0124260Y0053133D01*
X0124274Y0053194D01*
X0124291Y0053255D01*
X0124312Y0053314D01*
X0124337Y0053372D01*
X0124365Y0053429D01*
X0124396Y0053483D01*
X0124431Y0053535D01*
X0124469Y0053586D01*
X0124510Y0053634D01*
X0124554Y0053679D01*
X0124600Y0053721D01*
X0124649Y0053761D01*
X0124700Y0053797D01*
X0124754Y0053830D01*
X0124809Y0053860D01*
X0124867Y0053886D01*
X0124925Y0053909D01*
X0124985Y0053928D01*
X0125046Y0053943D01*
X0125108Y0053955D01*
X0125171Y0053963D01*
X0125234Y0053967D01*
X0125296Y0053967D01*
X0125359Y0053963D01*
X0125422Y0053955D01*
X0125484Y0053943D01*
X0125545Y0053928D01*
X0125605Y0053909D01*
X0125663Y0053886D01*
X0125721Y0053860D01*
X0125776Y0053830D01*
X0125830Y0053797D01*
X0125881Y0053761D01*
X0125930Y0053721D01*
X0125976Y0053679D01*
X0126020Y0053634D01*
X0126061Y0053586D01*
X0126099Y0053535D01*
X0126134Y0053483D01*
X0126165Y0053429D01*
X0126193Y0053372D01*
X0126218Y0053314D01*
X0126239Y0053255D01*
X0126256Y0053194D01*
X0126270Y0053133D01*
X0126279Y0053071D01*
X0126285Y0053008D01*
X0126287Y0052945D01*
X0126287Y0051923D01*
X0126285Y0051860D01*
X0126279Y0051797D01*
X0126270Y0051735D01*
X0126256Y0051674D01*
X0126239Y0051613D01*
X0126218Y0051554D01*
X0126193Y0051496D01*
X0126165Y0051439D01*
X0126134Y0051385D01*
X0126099Y0051333D01*
X0126061Y0051282D01*
X0126020Y0051234D01*
X0125976Y0051189D01*
X0125930Y0051147D01*
X0125881Y0051107D01*
X0125830Y0051071D01*
X0125776Y0051038D01*
X0125721Y0051008D01*
X0125663Y0050982D01*
X0125605Y0050959D01*
X0125545Y0050940D01*
X0125484Y0050925D01*
X0125422Y0050913D01*
X0125359Y0050905D01*
X0125296Y0050901D01*
X0125234Y0050901D01*
X0125171Y0050905D01*
X0125108Y0050913D01*
X0125046Y0050925D01*
X0124985Y0050940D01*
X0124925Y0050959D01*
X0124867Y0050982D01*
X0124809Y0051008D01*
X0124754Y0051038D01*
X0124700Y0051071D01*
X0124649Y0051107D01*
X0124600Y0051147D01*
X0124554Y0051189D01*
X0124510Y0051234D01*
X0124469Y0051282D01*
X0124431Y0051333D01*
X0124396Y0051385D01*
X0124365Y0051439D01*
X0124337Y0051496D01*
X0124312Y0051554D01*
X0124291Y0051613D01*
X0124274Y0051674D01*
X0124260Y0051735D01*
X0124251Y0051797D01*
X0124245Y0051860D01*
X0124243Y0051923D01*
X0128292Y0050900D02*
X0128292Y0053967D01*
X0129570Y0053967D01*
X0129625Y0053965D01*
X0129679Y0053959D01*
X0129733Y0053949D01*
X0129786Y0053936D01*
X0129838Y0053919D01*
X0129889Y0053898D01*
X0129938Y0053873D01*
X0129985Y0053845D01*
X0130030Y0053814D01*
X0130072Y0053780D01*
X0130112Y0053742D01*
X0130150Y0053702D01*
X0130184Y0053660D01*
X0130215Y0053615D01*
X0130243Y0053568D01*
X0130268Y0053519D01*
X0130289Y0053468D01*
X0130306Y0053416D01*
X0130319Y0053363D01*
X0130329Y0053309D01*
X0130335Y0053255D01*
X0130337Y0053200D01*
X0130337Y0050900D01*
X0134787Y0050900D02*
X0137342Y0050900D01*
X0136065Y0050900D02*
X0136065Y0055500D01*
X0134787Y0054478D01*
X0134287Y0058400D02*
X0135565Y0058400D01*
X0134287Y0058400D02*
X0134232Y0058402D01*
X0134178Y0058408D01*
X0134124Y0058418D01*
X0134071Y0058431D01*
X0134019Y0058448D01*
X0133968Y0058469D01*
X0133919Y0058494D01*
X0133872Y0058522D01*
X0133827Y0058553D01*
X0133785Y0058587D01*
X0133745Y0058625D01*
X0133707Y0058665D01*
X0133673Y0058707D01*
X0133642Y0058752D01*
X0133614Y0058799D01*
X0133589Y0058848D01*
X0133568Y0058899D01*
X0133551Y0058951D01*
X0133538Y0059004D01*
X0133528Y0059058D01*
X0133522Y0059112D01*
X0133520Y0059167D01*
X0133520Y0060445D01*
X0133520Y0059934D02*
X0135565Y0059934D01*
X0135565Y0060445D01*
X0135564Y0060445D02*
X0135562Y0060508D01*
X0135556Y0060571D01*
X0135547Y0060633D01*
X0135533Y0060694D01*
X0135516Y0060755D01*
X0135495Y0060814D01*
X0135470Y0060872D01*
X0135442Y0060929D01*
X0135411Y0060983D01*
X0135376Y0061035D01*
X0135338Y0061086D01*
X0135297Y0061134D01*
X0135253Y0061179D01*
X0135207Y0061221D01*
X0135158Y0061261D01*
X0135107Y0061297D01*
X0135053Y0061330D01*
X0134998Y0061360D01*
X0134940Y0061386D01*
X0134882Y0061409D01*
X0134822Y0061428D01*
X0134761Y0061443D01*
X0134699Y0061455D01*
X0134636Y0061463D01*
X0134573Y0061467D01*
X0134511Y0061467D01*
X0134448Y0061463D01*
X0134385Y0061455D01*
X0134323Y0061443D01*
X0134262Y0061428D01*
X0134202Y0061409D01*
X0134144Y0061386D01*
X0134086Y0061360D01*
X0134031Y0061330D01*
X0133977Y0061297D01*
X0133926Y0061261D01*
X0133877Y0061221D01*
X0133831Y0061179D01*
X0133787Y0061134D01*
X0133746Y0061086D01*
X0133708Y0061035D01*
X0133673Y0060983D01*
X0133642Y0060929D01*
X0133614Y0060872D01*
X0133589Y0060814D01*
X0133568Y0060755D01*
X0133551Y0060694D01*
X0133537Y0060633D01*
X0133528Y0060571D01*
X0133522Y0060508D01*
X0133520Y0060445D01*
X0131864Y0061467D02*
X0130842Y0061467D01*
X0130787Y0061465D01*
X0130733Y0061459D01*
X0130679Y0061449D01*
X0130626Y0061436D01*
X0130574Y0061419D01*
X0130523Y0061398D01*
X0130474Y0061373D01*
X0130427Y0061345D01*
X0130382Y0061314D01*
X0130340Y0061280D01*
X0130300Y0061242D01*
X0130262Y0061202D01*
X0130228Y0061160D01*
X0130197Y0061115D01*
X0130169Y0061068D01*
X0130144Y0061019D01*
X0130123Y0060968D01*
X0130106Y0060916D01*
X0130093Y0060863D01*
X0130083Y0060809D01*
X0130077Y0060755D01*
X0130075Y0060700D01*
X0130075Y0059167D01*
X0130077Y0059112D01*
X0130083Y0059058D01*
X0130093Y0059004D01*
X0130106Y0058951D01*
X0130123Y0058899D01*
X0130144Y0058848D01*
X0130169Y0058799D01*
X0130197Y0058752D01*
X0130228Y0058707D01*
X0130262Y0058665D01*
X0130300Y0058625D01*
X0130340Y0058587D01*
X0130382Y0058553D01*
X0130427Y0058522D01*
X0130474Y0058494D01*
X0130523Y0058469D01*
X0130574Y0058448D01*
X0130626Y0058431D01*
X0130679Y0058418D01*
X0130733Y0058408D01*
X0130787Y0058402D01*
X0130842Y0058400D01*
X0131864Y0058400D01*
X0128215Y0058400D02*
X0126937Y0058400D01*
X0126882Y0058402D01*
X0126828Y0058408D01*
X0126774Y0058418D01*
X0126721Y0058431D01*
X0126669Y0058448D01*
X0126618Y0058469D01*
X0126569Y0058494D01*
X0126522Y0058522D01*
X0126477Y0058553D01*
X0126435Y0058587D01*
X0126395Y0058625D01*
X0126357Y0058665D01*
X0126323Y0058707D01*
X0126292Y0058752D01*
X0126264Y0058799D01*
X0126239Y0058848D01*
X0126218Y0058899D01*
X0126201Y0058951D01*
X0126188Y0059004D01*
X0126178Y0059058D01*
X0126172Y0059112D01*
X0126170Y0059167D01*
X0126170Y0060445D01*
X0126170Y0059934D02*
X0128215Y0059934D01*
X0128215Y0060445D01*
X0128214Y0060445D02*
X0128212Y0060508D01*
X0128206Y0060571D01*
X0128197Y0060633D01*
X0128183Y0060694D01*
X0128166Y0060755D01*
X0128145Y0060814D01*
X0128120Y0060872D01*
X0128092Y0060929D01*
X0128061Y0060983D01*
X0128026Y0061035D01*
X0127988Y0061086D01*
X0127947Y0061134D01*
X0127903Y0061179D01*
X0127857Y0061221D01*
X0127808Y0061261D01*
X0127757Y0061297D01*
X0127703Y0061330D01*
X0127648Y0061360D01*
X0127590Y0061386D01*
X0127532Y0061409D01*
X0127472Y0061428D01*
X0127411Y0061443D01*
X0127349Y0061455D01*
X0127286Y0061463D01*
X0127223Y0061467D01*
X0127161Y0061467D01*
X0127098Y0061463D01*
X0127035Y0061455D01*
X0126973Y0061443D01*
X0126912Y0061428D01*
X0126852Y0061409D01*
X0126794Y0061386D01*
X0126736Y0061360D01*
X0126681Y0061330D01*
X0126627Y0061297D01*
X0126576Y0061261D01*
X0126527Y0061221D01*
X0126481Y0061179D01*
X0126437Y0061134D01*
X0126396Y0061086D01*
X0126358Y0061035D01*
X0126323Y0060983D01*
X0126292Y0060929D01*
X0126264Y0060872D01*
X0126239Y0060814D01*
X0126218Y0060755D01*
X0126201Y0060694D01*
X0126187Y0060633D01*
X0126178Y0060571D01*
X0126172Y0060508D01*
X0126170Y0060445D01*
X0124299Y0058400D02*
X0123277Y0060445D01*
X0123021Y0060445D02*
X0121744Y0060445D01*
X0123021Y0060445D02*
X0123091Y0060447D01*
X0123162Y0060453D01*
X0123231Y0060462D01*
X0123300Y0060476D01*
X0123369Y0060493D01*
X0123436Y0060514D01*
X0123502Y0060539D01*
X0123566Y0060567D01*
X0123629Y0060599D01*
X0123690Y0060634D01*
X0123749Y0060673D01*
X0123806Y0060714D01*
X0123860Y0060759D01*
X0123912Y0060807D01*
X0123961Y0060857D01*
X0124008Y0060911D01*
X0124051Y0060966D01*
X0124091Y0061024D01*
X0124128Y0061084D01*
X0124161Y0061146D01*
X0124191Y0061210D01*
X0124218Y0061275D01*
X0124241Y0061341D01*
X0124260Y0061409D01*
X0124275Y0061478D01*
X0124287Y0061547D01*
X0124295Y0061617D01*
X0124299Y0061688D01*
X0124299Y0061758D01*
X0124295Y0061829D01*
X0124287Y0061899D01*
X0124275Y0061968D01*
X0124260Y0062037D01*
X0124241Y0062105D01*
X0124218Y0062171D01*
X0124191Y0062236D01*
X0124161Y0062300D01*
X0124128Y0062362D01*
X0124091Y0062422D01*
X0124051Y0062480D01*
X0124008Y0062535D01*
X0123961Y0062589D01*
X0123912Y0062639D01*
X0123860Y0062687D01*
X0123806Y0062732D01*
X0123749Y0062773D01*
X0123690Y0062812D01*
X0123629Y0062847D01*
X0123566Y0062879D01*
X0123502Y0062907D01*
X0123436Y0062932D01*
X0123369Y0062953D01*
X0123300Y0062970D01*
X0123231Y0062984D01*
X0123162Y0062993D01*
X0123091Y0062999D01*
X0123021Y0063001D01*
X0123021Y0063000D02*
X0121744Y0063000D01*
X0121744Y0058400D01*
X0122287Y0055500D02*
X0122542Y0055500D01*
X0122542Y0055245D01*
X0122287Y0055245D01*
X0122287Y0055500D01*
X0113537Y0052945D02*
X0113537Y0052434D01*
X0111492Y0052434D01*
X0111492Y0052945D02*
X0111492Y0051667D01*
X0111494Y0051612D01*
X0111500Y0051558D01*
X0111510Y0051504D01*
X0111523Y0051451D01*
X0111540Y0051399D01*
X0111561Y0051348D01*
X0111586Y0051299D01*
X0111614Y0051252D01*
X0111645Y0051207D01*
X0111679Y0051165D01*
X0111717Y0051125D01*
X0111757Y0051087D01*
X0111799Y0051053D01*
X0111844Y0051022D01*
X0111891Y0050994D01*
X0111940Y0050969D01*
X0111991Y0050948D01*
X0112043Y0050931D01*
X0112096Y0050918D01*
X0112150Y0050908D01*
X0112204Y0050902D01*
X0112259Y0050900D01*
X0113537Y0050900D01*
X0113537Y0052945D02*
X0113535Y0053008D01*
X0113529Y0053071D01*
X0113520Y0053133D01*
X0113506Y0053194D01*
X0113489Y0053255D01*
X0113468Y0053314D01*
X0113443Y0053372D01*
X0113415Y0053429D01*
X0113384Y0053483D01*
X0113349Y0053535D01*
X0113311Y0053586D01*
X0113270Y0053634D01*
X0113226Y0053679D01*
X0113180Y0053721D01*
X0113131Y0053761D01*
X0113080Y0053797D01*
X0113026Y0053830D01*
X0112971Y0053860D01*
X0112913Y0053886D01*
X0112855Y0053909D01*
X0112795Y0053928D01*
X0112734Y0053943D01*
X0112672Y0053955D01*
X0112609Y0053963D01*
X0112546Y0053967D01*
X0112484Y0053967D01*
X0112421Y0053963D01*
X0112358Y0053955D01*
X0112296Y0053943D01*
X0112235Y0053928D01*
X0112175Y0053909D01*
X0112117Y0053886D01*
X0112059Y0053860D01*
X0112004Y0053830D01*
X0111950Y0053797D01*
X0111899Y0053761D01*
X0111850Y0053721D01*
X0111804Y0053679D01*
X0111760Y0053634D01*
X0111719Y0053586D01*
X0111681Y0053535D01*
X0111646Y0053483D01*
X0111615Y0053429D01*
X0111587Y0053372D01*
X0111562Y0053314D01*
X0111541Y0053255D01*
X0111524Y0053194D01*
X0111510Y0053133D01*
X0111501Y0053071D01*
X0111495Y0053008D01*
X0111493Y0052945D01*
X0109848Y0055500D02*
X0108315Y0050900D01*
X0106781Y0055500D01*
X0106781Y0058400D02*
X0106781Y0063000D01*
X0137265Y0063000D02*
X0137265Y0062745D01*
X0137520Y0062745D01*
X0137520Y0063000D01*
X0137265Y0063000D01*
X0137392Y0061467D02*
X0137392Y0058400D01*
X0140092Y0058400D02*
X0141115Y0061467D01*
X0142820Y0060445D02*
X0142820Y0059167D01*
X0142822Y0059112D01*
X0142828Y0059058D01*
X0142838Y0059004D01*
X0142851Y0058951D01*
X0142868Y0058899D01*
X0142889Y0058848D01*
X0142914Y0058799D01*
X0142942Y0058752D01*
X0142973Y0058707D01*
X0143007Y0058665D01*
X0143045Y0058625D01*
X0143085Y0058587D01*
X0143127Y0058553D01*
X0143172Y0058522D01*
X0143219Y0058494D01*
X0143268Y0058469D01*
X0143319Y0058448D01*
X0143371Y0058431D01*
X0143424Y0058418D01*
X0143478Y0058408D01*
X0143532Y0058402D01*
X0143587Y0058400D01*
X0144865Y0058400D01*
X0146896Y0058400D02*
X0146896Y0061467D01*
X0148430Y0061467D01*
X0148430Y0060956D01*
X0144865Y0060445D02*
X0144865Y0059934D01*
X0142820Y0059934D01*
X0142820Y0060445D02*
X0142822Y0060508D01*
X0142828Y0060571D01*
X0142837Y0060633D01*
X0142851Y0060694D01*
X0142868Y0060755D01*
X0142889Y0060814D01*
X0142914Y0060872D01*
X0142942Y0060929D01*
X0142973Y0060983D01*
X0143008Y0061035D01*
X0143046Y0061086D01*
X0143087Y0061134D01*
X0143131Y0061179D01*
X0143177Y0061221D01*
X0143226Y0061261D01*
X0143277Y0061297D01*
X0143331Y0061330D01*
X0143386Y0061360D01*
X0143444Y0061386D01*
X0143502Y0061409D01*
X0143562Y0061428D01*
X0143623Y0061443D01*
X0143685Y0061455D01*
X0143748Y0061463D01*
X0143811Y0061467D01*
X0143873Y0061467D01*
X0143936Y0061463D01*
X0143999Y0061455D01*
X0144061Y0061443D01*
X0144122Y0061428D01*
X0144182Y0061409D01*
X0144240Y0061386D01*
X0144298Y0061360D01*
X0144353Y0061330D01*
X0144407Y0061297D01*
X0144458Y0061261D01*
X0144507Y0061221D01*
X0144553Y0061179D01*
X0144597Y0061134D01*
X0144638Y0061086D01*
X0144676Y0061035D01*
X0144711Y0060983D01*
X0144742Y0060929D01*
X0144770Y0060872D01*
X0144795Y0060814D01*
X0144816Y0060755D01*
X0144833Y0060694D01*
X0144847Y0060633D01*
X0144856Y0060571D01*
X0144862Y0060508D01*
X0144864Y0060445D01*
X0140092Y0058400D02*
X0139070Y0061467D01*
D12*
X0036193Y0048125D02*
X0036193Y0024503D01*
X0048004Y0024503D01*
X0048004Y0048125D01*
X0036193Y0048125D01*
X0032877Y0051014D02*
X0049806Y0051014D01*
X0049806Y0069518D01*
X0032877Y0069518D01*
X0032877Y0051014D01*
X0021395Y0049662D02*
X0021395Y0044662D01*
X0020673Y0047762D02*
X0018752Y0049682D01*
X0020665Y0049682D01*
X0020673Y0049682D02*
X0020673Y0047762D01*
X0010766Y0049662D02*
X0010766Y0044662D01*
X0063633Y0055775D02*
X0069932Y0055775D01*
X0077568Y0055830D02*
X0083867Y0055830D01*
X0083583Y0046293D02*
X0065079Y0046293D01*
X0065079Y0029364D01*
X0083583Y0029364D01*
X0083583Y0046293D01*
X0083867Y0068429D02*
X0077568Y0068429D01*
X0069932Y0068374D02*
X0063633Y0068374D01*
X0092293Y0072333D02*
X0092293Y0091624D01*
X0159222Y0091624D01*
X0159222Y0072333D01*
X0159222Y0019184D02*
X0159222Y0009735D01*
X0152529Y0009735D01*
X0098986Y0009735D02*
X0092293Y0009735D01*
X0092293Y0019184D01*
M02*
