G75*
%MOIN*%
%OFA0B0*%
%FSLAX25Y25*%
%IPPOS*%
%LPD*%
%AMOC8*
5,1,8,0,0,1.08239X$1,22.5*
%
%ADD10R,0.02500X0.05000*%
%ADD11R,0.05000X0.02500*%
%ADD12R,0.05512X0.04331*%
%ADD13R,0.02362X0.04331*%
%ADD14R,0.10630X0.06299*%
%ADD15R,0.06299X0.10630*%
%ADD16R,0.09055X0.04331*%
D10*
X0253859Y0291457D03*
X0258190Y0291457D03*
X0262520Y0291457D03*
X0266851Y0291457D03*
X0271182Y0291457D03*
X0275513Y0291457D03*
X0279843Y0291457D03*
X0284174Y0291457D03*
X0288505Y0291457D03*
X0292835Y0291457D03*
X0297166Y0291457D03*
X0301497Y0291457D03*
D11*
X0244213Y0231418D03*
X0244213Y0235749D03*
X0244213Y0240080D03*
X0244213Y0244410D03*
X0244213Y0248741D03*
X0244213Y0253072D03*
X0244213Y0257402D03*
X0244213Y0261733D03*
X0244213Y0266064D03*
X0244213Y0270394D03*
X0244213Y0274725D03*
X0244213Y0279056D03*
X0311143Y0279056D03*
X0311143Y0274725D03*
X0311143Y0270394D03*
X0311143Y0266064D03*
X0311143Y0261733D03*
X0311143Y0257402D03*
X0311143Y0253072D03*
X0311143Y0248741D03*
X0311143Y0244410D03*
X0311143Y0240080D03*
X0311143Y0235749D03*
X0311143Y0231418D03*
D12*
X0495394Y0395001D03*
X0495394Y0401300D03*
X0507206Y0401300D03*
X0507206Y0395001D03*
D13*
X0331024Y0142639D03*
X0323544Y0142639D03*
X0323544Y0131615D03*
X0327284Y0131615D03*
X0331024Y0131615D03*
D14*
X0299725Y0137520D03*
X0299725Y0148544D03*
D15*
X0469410Y0389883D03*
X0480434Y0389883D03*
X0480434Y0404450D03*
X0469410Y0404450D03*
D16*
X0504056Y0213111D03*
X0504056Y0200119D03*
X0299725Y0127087D03*
X0299725Y0114095D03*
M02*
