%
M48
M72
T01C0.0100
T02C0.0120
T03C0.0138
T04C0.0197
T05C0.0335
T06C0.0394
T07C0.0590
T08C0.0670
T09C0.1570
%
T01
X33644Y17010
T02
X32728Y14264
X32728Y13595
X36941Y13516
X29067Y21784
X27974Y21990
X27994Y22404
X24904Y22453
X24933Y27099
X22856Y27532
X29530Y27305
X30209Y27512
X47532Y38673
X47453Y39303
X47532Y40445
X50130Y40130
X50130Y39500
T03
X49303Y20799
X33910Y12374
X33910Y11587
X33122Y11587
X33122Y12374
X32335Y12374
X32335Y11587
X31547Y11587
X31547Y12374
X31547Y10799
X31547Y10012
X31547Y9224
X31547Y8437
X31547Y7650
X32335Y7650
X32335Y8437
X33122Y8437
X33122Y7650
X33910Y7650
X33910Y8437
X33910Y9224
X33122Y9224
X32335Y9224
X32335Y10012
X33122Y10012
X33122Y10799
X32335Y10799
X33910Y10799
X33910Y10012
X30248Y14264
X30272Y22439
X30272Y22872
X30272Y23305
X30272Y23738
X30272Y24171
X30272Y25037
X30272Y25471
X30272Y25904
X30272Y26337
X29947Y27809
X29514Y27809
X29081Y27809
X28648Y27809
X28215Y27809
X27782Y27809
X27349Y27809
X26915Y27809
X26482Y27809
X26049Y27809
X25616Y27809
X25183Y27809
X24902Y26358
X24902Y25925
X24902Y25051
X24911Y23752
X24911Y23317
X24911Y22886
T04
X29973Y12256
T05
X29933Y10315
X29933Y9315
X50445Y20165
X50445Y21165
T06
X51453Y21165
X51453Y20165
X51453Y19165
X51453Y18165
T07
X49836Y14756
X49964Y13645
X47957Y15440
X47145Y14671
X44214Y19718
X44086Y20829
X42207Y21513
X41395Y20745
X35906Y18762
X35778Y19873
X33899Y20557
X33087Y19788
X38837Y13715
X39649Y14484
X41528Y13800
X41656Y12689
X48630Y28000
X49130Y29000
X51130Y29000
X51630Y28000
X51630Y35480
X51130Y36480
X49130Y36480
X48630Y35480
X44150Y37350
X43650Y38350
X41650Y38350
X41150Y37350
X36669Y39221
X36169Y40221
X34169Y40221
X33669Y39221
X29189Y41091
X28689Y42091
X26689Y42091
X26189Y41091
X21709Y39221
X21209Y40221
X19209Y40221
X18709Y39221
X14228Y37350
X13728Y38350
X11728Y38350
X11228Y37350
X11728Y30870
X11228Y29870
X13728Y30870
X14228Y29870
X18709Y31740
X19209Y32740
X21209Y32740
X21709Y31740
X26189Y33610
X26689Y34610
X28689Y34610
X29189Y33610
X33669Y31740
X34169Y32740
X36169Y32740
X36669Y31740
X41150Y29870
X41650Y30870
X43650Y30870
X44150Y29870
X44150Y44831
X43650Y45831
X41650Y45831
X41150Y44831
X36669Y46701
X36169Y47701
X34169Y47701
X33669Y46701
X29189Y48571
X28689Y49571
X26689Y49571
X26189Y48571
X21709Y46701
X21209Y47701
X19209Y47701
X18709Y46701
X14228Y44831
X13728Y45831
X11728Y45831
X11228Y44831
X11228Y52311
X11728Y53311
X13728Y53311
X14228Y52311
X18709Y54181
X19209Y55181
X21209Y55181
X21709Y54181
X26189Y56051
X26689Y57051
X28689Y57051
X29189Y56051
X33669Y54181
X34169Y55181
X36169Y55181
X36669Y54181
X41150Y52311
X41650Y53311
X43650Y53311
X44150Y52311
X13728Y20043
X14228Y19043
X11728Y20043
X11228Y19043
X11728Y12563
X11228Y11563
X13728Y12563
X14228Y11563
T08
X10728Y10563
X14728Y10563
X14728Y18043
X10728Y18043
X10728Y28870
X14728Y28870
X18209Y30740
X22209Y30740
X25689Y32610
X29689Y32610
X33169Y30740
X37169Y30740
X40650Y28870
X44650Y28870
X48130Y27000
X52130Y27000
X52130Y34480
X48130Y34480
X44650Y36350
X40650Y36350
X37169Y38221
X33169Y38221
X29689Y40091
X25689Y40091
X22209Y38221
X18209Y38221
X14728Y36350
X10728Y36350
X10728Y43831
X14728Y43831
X18209Y45701
X22209Y45701
X25689Y47571
X29689Y47571
X33169Y45701
X37169Y45701
X40650Y43831
X44650Y43831
X44650Y51311
X40650Y51311
X37169Y53181
X33169Y53181
X29689Y55051
X25689Y55051
X22209Y53181
X18209Y53181
X14728Y51311
X10728Y51311
X40583Y19976
X44342Y18608
X46333Y13903
X50092Y12535
X41784Y11579
X38025Y12947
X36034Y17652
X32275Y19020
T09
X34154Y18336
X39904Y12263
X42463Y19292
X48213Y13219
X50130Y27000
X50130Y34480
X42650Y36350
X42650Y28870
X35169Y30740
X35169Y38221
X27689Y40091
X27689Y32610
X20209Y30740
X20209Y38221
X12728Y36350
X12728Y28870
X12728Y18043
X12728Y10563
X12728Y43831
X20209Y45701
X20209Y53181
X12728Y51311
X27689Y47571
X27689Y55051
X35169Y53181
X35169Y45701
X42650Y43831
X42650Y51311
M30
