G75*
%MOIN*%
%OFA0B0*%
%FSLAX25Y25*%
%IPPOS*%
%LPD*%
%AMOC8*
5,1,8,0,0,1.08239X$1,22.5*
%
%ADD10C,0.00800*%
%ADD11R,0.02756X0.01772*%
%ADD12C,0.02000*%
%ADD13C,0.09250*%
%ADD14C,0.10450*%
%ADD15C,0.20100*%
%ADD16R,0.02900X0.05400*%
%ADD17R,0.05400X0.02900*%
%ADD18R,0.05912X0.04731*%
%ADD19R,0.06337X0.06337*%
%ADD20C,0.06337*%
%ADD21R,0.02762X0.04731*%
%ADD22R,0.11030X0.06699*%
%ADD23R,0.06699X0.11030*%
%ADD24R,0.09455X0.04731*%
%ADD25R,0.06400X0.06400*%
%ADD26C,0.06400*%
%ADD27C,0.09775*%
D10*
X0424535Y0076897D02*
X0425557Y0076897D01*
X0425646Y0076899D01*
X0425735Y0076905D01*
X0425824Y0076914D01*
X0425912Y0076928D01*
X0425999Y0076945D01*
X0426086Y0076967D01*
X0426172Y0076992D01*
X0426256Y0077020D01*
X0426339Y0077053D01*
X0426421Y0077089D01*
X0426501Y0077128D01*
X0426579Y0077171D01*
X0426655Y0077217D01*
X0426729Y0077267D01*
X0426801Y0077319D01*
X0426871Y0077375D01*
X0426938Y0077434D01*
X0427002Y0077496D01*
X0427064Y0077560D01*
X0427123Y0077627D01*
X0427179Y0077697D01*
X0427231Y0077769D01*
X0427281Y0077843D01*
X0427327Y0077919D01*
X0427370Y0077997D01*
X0427409Y0078077D01*
X0427445Y0078159D01*
X0427478Y0078242D01*
X0427506Y0078326D01*
X0427531Y0078412D01*
X0427553Y0078499D01*
X0427570Y0078586D01*
X0427584Y0078674D01*
X0427593Y0078763D01*
X0427599Y0078852D01*
X0427601Y0078941D01*
X0427601Y0086097D01*
X0430936Y0080986D02*
X0430936Y0078430D01*
X0430938Y0078355D01*
X0430943Y0078280D01*
X0430953Y0078205D01*
X0430965Y0078131D01*
X0430982Y0078058D01*
X0431002Y0077985D01*
X0431026Y0077914D01*
X0431053Y0077843D01*
X0431083Y0077775D01*
X0431117Y0077707D01*
X0431154Y0077642D01*
X0431194Y0077578D01*
X0431238Y0077517D01*
X0431284Y0077457D01*
X0431333Y0077401D01*
X0431385Y0077346D01*
X0431440Y0077294D01*
X0431496Y0077245D01*
X0431556Y0077199D01*
X0431617Y0077155D01*
X0431681Y0077115D01*
X0431746Y0077078D01*
X0431814Y0077044D01*
X0431882Y0077014D01*
X0431953Y0076987D01*
X0432024Y0076963D01*
X0432097Y0076943D01*
X0432170Y0076926D01*
X0432244Y0076914D01*
X0432319Y0076904D01*
X0432394Y0076899D01*
X0432469Y0076897D01*
X0435024Y0076897D01*
X0435024Y0079964D02*
X0430936Y0079964D01*
X0430936Y0080986D02*
X0430938Y0081075D01*
X0430944Y0081164D01*
X0430953Y0081253D01*
X0430967Y0081341D01*
X0430984Y0081428D01*
X0431006Y0081515D01*
X0431031Y0081601D01*
X0431059Y0081685D01*
X0431092Y0081768D01*
X0431128Y0081850D01*
X0431167Y0081930D01*
X0431210Y0082008D01*
X0431256Y0082084D01*
X0431306Y0082158D01*
X0431358Y0082230D01*
X0431414Y0082300D01*
X0431473Y0082367D01*
X0431535Y0082431D01*
X0431599Y0082493D01*
X0431666Y0082552D01*
X0431736Y0082608D01*
X0431808Y0082660D01*
X0431882Y0082710D01*
X0431958Y0082756D01*
X0432036Y0082799D01*
X0432116Y0082838D01*
X0432198Y0082874D01*
X0432281Y0082907D01*
X0432365Y0082935D01*
X0432451Y0082960D01*
X0432538Y0082982D01*
X0432625Y0082999D01*
X0432713Y0083013D01*
X0432802Y0083022D01*
X0432891Y0083028D01*
X0432980Y0083030D01*
X0433069Y0083028D01*
X0433158Y0083022D01*
X0433247Y0083013D01*
X0433335Y0082999D01*
X0433422Y0082982D01*
X0433509Y0082960D01*
X0433595Y0082935D01*
X0433679Y0082907D01*
X0433762Y0082874D01*
X0433844Y0082838D01*
X0433924Y0082799D01*
X0434002Y0082756D01*
X0434078Y0082710D01*
X0434152Y0082660D01*
X0434224Y0082608D01*
X0434294Y0082552D01*
X0434361Y0082493D01*
X0434425Y0082431D01*
X0434487Y0082367D01*
X0434546Y0082300D01*
X0434602Y0082230D01*
X0434654Y0082158D01*
X0434704Y0082084D01*
X0434750Y0082008D01*
X0434793Y0081930D01*
X0434832Y0081850D01*
X0434868Y0081768D01*
X0434901Y0081685D01*
X0434929Y0081601D01*
X0434954Y0081515D01*
X0434976Y0081428D01*
X0434993Y0081341D01*
X0435007Y0081253D01*
X0435016Y0081164D01*
X0435022Y0081075D01*
X0435024Y0080986D01*
X0435024Y0079964D01*
X0438826Y0080475D02*
X0441382Y0079452D01*
X0441448Y0079424D01*
X0441513Y0079391D01*
X0441576Y0079356D01*
X0441636Y0079317D01*
X0441695Y0079275D01*
X0441751Y0079229D01*
X0441804Y0079181D01*
X0441855Y0079130D01*
X0441903Y0079076D01*
X0441948Y0079020D01*
X0441990Y0078961D01*
X0442028Y0078900D01*
X0442064Y0078837D01*
X0442095Y0078772D01*
X0442123Y0078706D01*
X0442148Y0078638D01*
X0442169Y0078569D01*
X0442186Y0078499D01*
X0442199Y0078428D01*
X0442208Y0078357D01*
X0442214Y0078285D01*
X0442215Y0078213D01*
X0442213Y0078141D01*
X0442206Y0078069D01*
X0442196Y0077998D01*
X0442182Y0077927D01*
X0442164Y0077857D01*
X0442142Y0077788D01*
X0442117Y0077721D01*
X0442088Y0077655D01*
X0442055Y0077591D01*
X0442019Y0077528D01*
X0441979Y0077468D01*
X0441937Y0077410D01*
X0441891Y0077354D01*
X0441842Y0077301D01*
X0441791Y0077250D01*
X0441737Y0077203D01*
X0441680Y0077158D01*
X0441621Y0077117D01*
X0441560Y0077079D01*
X0441497Y0077044D01*
X0441432Y0077013D01*
X0441365Y0076985D01*
X0441297Y0076961D01*
X0441228Y0076941D01*
X0441158Y0076924D01*
X0441087Y0076912D01*
X0441015Y0076903D01*
X0440943Y0076898D01*
X0440871Y0076897D01*
X0441637Y0082519D02*
X0441501Y0082578D01*
X0441363Y0082634D01*
X0441225Y0082686D01*
X0441084Y0082735D01*
X0440943Y0082780D01*
X0440801Y0082821D01*
X0440657Y0082859D01*
X0440513Y0082893D01*
X0440368Y0082923D01*
X0440222Y0082950D01*
X0440076Y0082973D01*
X0439928Y0082992D01*
X0439781Y0083007D01*
X0439633Y0083019D01*
X0439485Y0083026D01*
X0439337Y0083030D01*
X0439265Y0083029D01*
X0439193Y0083024D01*
X0439121Y0083015D01*
X0439050Y0083003D01*
X0438980Y0082986D01*
X0438911Y0082966D01*
X0438843Y0082942D01*
X0438776Y0082914D01*
X0438711Y0082883D01*
X0438648Y0082848D01*
X0438587Y0082810D01*
X0438528Y0082769D01*
X0438471Y0082724D01*
X0438417Y0082677D01*
X0438366Y0082626D01*
X0438317Y0082573D01*
X0438271Y0082517D01*
X0438229Y0082459D01*
X0438189Y0082399D01*
X0438153Y0082336D01*
X0438120Y0082272D01*
X0438091Y0082206D01*
X0438066Y0082139D01*
X0438044Y0082070D01*
X0438026Y0082000D01*
X0438012Y0081929D01*
X0438002Y0081858D01*
X0437995Y0081786D01*
X0437993Y0081714D01*
X0437994Y0081642D01*
X0438000Y0081570D01*
X0438009Y0081499D01*
X0438022Y0081428D01*
X0438039Y0081358D01*
X0438060Y0081289D01*
X0438085Y0081221D01*
X0438113Y0081155D01*
X0438144Y0081090D01*
X0438180Y0081027D01*
X0438218Y0080966D01*
X0438260Y0080907D01*
X0438305Y0080851D01*
X0438353Y0080797D01*
X0438404Y0080746D01*
X0438457Y0080698D01*
X0438513Y0080652D01*
X0438572Y0080610D01*
X0438632Y0080571D01*
X0438695Y0080536D01*
X0438760Y0080503D01*
X0438826Y0080475D01*
X0438059Y0077408D02*
X0438253Y0077341D01*
X0438448Y0077278D01*
X0438645Y0077220D01*
X0438843Y0077167D01*
X0439042Y0077119D01*
X0439242Y0077075D01*
X0439443Y0077036D01*
X0439646Y0077002D01*
X0439848Y0076972D01*
X0440052Y0076947D01*
X0440256Y0076927D01*
X0440461Y0076912D01*
X0440665Y0076902D01*
X0440870Y0076897D01*
X0446461Y0083030D02*
X0446609Y0083026D01*
X0446757Y0083019D01*
X0446905Y0083007D01*
X0447052Y0082992D01*
X0447200Y0082973D01*
X0447346Y0082950D01*
X0447492Y0082923D01*
X0447637Y0082893D01*
X0447781Y0082859D01*
X0447925Y0082821D01*
X0448067Y0082780D01*
X0448208Y0082735D01*
X0448349Y0082686D01*
X0448487Y0082634D01*
X0448625Y0082578D01*
X0448761Y0082519D01*
X0446461Y0083030D02*
X0446389Y0083029D01*
X0446317Y0083024D01*
X0446245Y0083015D01*
X0446174Y0083003D01*
X0446104Y0082986D01*
X0446035Y0082966D01*
X0445967Y0082942D01*
X0445900Y0082914D01*
X0445835Y0082883D01*
X0445772Y0082848D01*
X0445711Y0082810D01*
X0445652Y0082769D01*
X0445595Y0082724D01*
X0445541Y0082677D01*
X0445490Y0082626D01*
X0445441Y0082573D01*
X0445395Y0082517D01*
X0445353Y0082459D01*
X0445313Y0082399D01*
X0445277Y0082336D01*
X0445244Y0082272D01*
X0445215Y0082206D01*
X0445190Y0082139D01*
X0445168Y0082070D01*
X0445150Y0082000D01*
X0445136Y0081929D01*
X0445126Y0081858D01*
X0445119Y0081786D01*
X0445117Y0081714D01*
X0445118Y0081642D01*
X0445124Y0081570D01*
X0445133Y0081499D01*
X0445146Y0081428D01*
X0445163Y0081358D01*
X0445184Y0081289D01*
X0445209Y0081221D01*
X0445237Y0081155D01*
X0445268Y0081090D01*
X0445304Y0081027D01*
X0445342Y0080966D01*
X0445384Y0080907D01*
X0445429Y0080851D01*
X0445477Y0080797D01*
X0445528Y0080746D01*
X0445581Y0080698D01*
X0445637Y0080652D01*
X0445696Y0080610D01*
X0445756Y0080571D01*
X0445819Y0080536D01*
X0445884Y0080503D01*
X0445950Y0080475D01*
X0448506Y0079452D01*
X0448572Y0079424D01*
X0448637Y0079391D01*
X0448700Y0079356D01*
X0448760Y0079317D01*
X0448819Y0079275D01*
X0448875Y0079229D01*
X0448928Y0079181D01*
X0448979Y0079130D01*
X0449027Y0079076D01*
X0449072Y0079020D01*
X0449114Y0078961D01*
X0449152Y0078900D01*
X0449188Y0078837D01*
X0449219Y0078772D01*
X0449247Y0078706D01*
X0449272Y0078638D01*
X0449293Y0078569D01*
X0449310Y0078499D01*
X0449323Y0078428D01*
X0449332Y0078357D01*
X0449338Y0078285D01*
X0449339Y0078213D01*
X0449337Y0078141D01*
X0449330Y0078069D01*
X0449320Y0077998D01*
X0449306Y0077927D01*
X0449288Y0077857D01*
X0449266Y0077788D01*
X0449241Y0077721D01*
X0449212Y0077655D01*
X0449179Y0077591D01*
X0449143Y0077528D01*
X0449103Y0077468D01*
X0449061Y0077410D01*
X0449015Y0077354D01*
X0448966Y0077301D01*
X0448915Y0077250D01*
X0448861Y0077203D01*
X0448804Y0077158D01*
X0448745Y0077117D01*
X0448684Y0077079D01*
X0448621Y0077044D01*
X0448556Y0077013D01*
X0448489Y0076985D01*
X0448421Y0076961D01*
X0448352Y0076941D01*
X0448282Y0076924D01*
X0448211Y0076912D01*
X0448139Y0076903D01*
X0448067Y0076898D01*
X0447995Y0076897D01*
X0452307Y0078430D02*
X0452307Y0080986D01*
X0452307Y0079964D02*
X0456396Y0079964D01*
X0456396Y0080986D01*
X0456394Y0081075D01*
X0456388Y0081164D01*
X0456379Y0081253D01*
X0456365Y0081341D01*
X0456348Y0081428D01*
X0456326Y0081515D01*
X0456301Y0081601D01*
X0456273Y0081685D01*
X0456240Y0081768D01*
X0456204Y0081850D01*
X0456165Y0081930D01*
X0456122Y0082008D01*
X0456076Y0082084D01*
X0456026Y0082158D01*
X0455974Y0082230D01*
X0455918Y0082300D01*
X0455859Y0082367D01*
X0455797Y0082431D01*
X0455733Y0082493D01*
X0455666Y0082552D01*
X0455596Y0082608D01*
X0455524Y0082660D01*
X0455450Y0082710D01*
X0455374Y0082756D01*
X0455296Y0082799D01*
X0455216Y0082838D01*
X0455134Y0082874D01*
X0455051Y0082907D01*
X0454967Y0082935D01*
X0454881Y0082960D01*
X0454794Y0082982D01*
X0454707Y0082999D01*
X0454619Y0083013D01*
X0454530Y0083022D01*
X0454441Y0083028D01*
X0454352Y0083030D01*
X0454263Y0083028D01*
X0454174Y0083022D01*
X0454085Y0083013D01*
X0453997Y0082999D01*
X0453910Y0082982D01*
X0453823Y0082960D01*
X0453737Y0082935D01*
X0453653Y0082907D01*
X0453570Y0082874D01*
X0453488Y0082838D01*
X0453408Y0082799D01*
X0453330Y0082756D01*
X0453254Y0082710D01*
X0453180Y0082660D01*
X0453108Y0082608D01*
X0453038Y0082552D01*
X0452971Y0082493D01*
X0452907Y0082431D01*
X0452845Y0082367D01*
X0452786Y0082300D01*
X0452730Y0082230D01*
X0452678Y0082158D01*
X0452628Y0082084D01*
X0452582Y0082008D01*
X0452539Y0081930D01*
X0452500Y0081850D01*
X0452464Y0081768D01*
X0452431Y0081685D01*
X0452403Y0081601D01*
X0452378Y0081515D01*
X0452356Y0081428D01*
X0452339Y0081341D01*
X0452325Y0081253D01*
X0452316Y0081164D01*
X0452310Y0081075D01*
X0452308Y0080986D01*
X0452308Y0078430D02*
X0452310Y0078355D01*
X0452315Y0078280D01*
X0452325Y0078205D01*
X0452337Y0078131D01*
X0452354Y0078058D01*
X0452374Y0077985D01*
X0452398Y0077914D01*
X0452425Y0077843D01*
X0452455Y0077775D01*
X0452489Y0077707D01*
X0452526Y0077642D01*
X0452566Y0077578D01*
X0452610Y0077517D01*
X0452656Y0077457D01*
X0452705Y0077401D01*
X0452757Y0077346D01*
X0452812Y0077294D01*
X0452868Y0077245D01*
X0452928Y0077199D01*
X0452989Y0077155D01*
X0453053Y0077115D01*
X0453118Y0077078D01*
X0453186Y0077044D01*
X0453254Y0077014D01*
X0453325Y0076987D01*
X0453396Y0076963D01*
X0453469Y0076943D01*
X0453542Y0076926D01*
X0453616Y0076914D01*
X0453691Y0076904D01*
X0453766Y0076899D01*
X0453841Y0076897D01*
X0456396Y0076897D01*
X0464163Y0076897D02*
X0464163Y0086097D01*
X0467230Y0080986D01*
X0470297Y0086097D01*
X0470297Y0076897D01*
X0475448Y0076897D02*
X0477748Y0076897D01*
X0477748Y0081497D01*
X0477748Y0080475D02*
X0475448Y0080475D01*
X0477748Y0081497D02*
X0477746Y0081572D01*
X0477741Y0081647D01*
X0477731Y0081722D01*
X0477719Y0081796D01*
X0477702Y0081869D01*
X0477682Y0081942D01*
X0477658Y0082013D01*
X0477631Y0082084D01*
X0477601Y0082152D01*
X0477567Y0082220D01*
X0477530Y0082285D01*
X0477490Y0082349D01*
X0477446Y0082410D01*
X0477400Y0082470D01*
X0477351Y0082526D01*
X0477299Y0082581D01*
X0477244Y0082633D01*
X0477188Y0082682D01*
X0477128Y0082728D01*
X0477067Y0082772D01*
X0477003Y0082812D01*
X0476938Y0082849D01*
X0476870Y0082883D01*
X0476802Y0082913D01*
X0476731Y0082940D01*
X0476660Y0082964D01*
X0476587Y0082984D01*
X0476514Y0083001D01*
X0476440Y0083013D01*
X0476365Y0083023D01*
X0476290Y0083028D01*
X0476215Y0083030D01*
X0474170Y0083030D01*
X0475448Y0080475D02*
X0475364Y0080473D01*
X0475280Y0080467D01*
X0475197Y0080457D01*
X0475114Y0080444D01*
X0475032Y0080426D01*
X0474951Y0080405D01*
X0474871Y0080379D01*
X0474793Y0080351D01*
X0474715Y0080318D01*
X0474640Y0080282D01*
X0474566Y0080242D01*
X0474494Y0080199D01*
X0474424Y0080153D01*
X0474356Y0080103D01*
X0474291Y0080050D01*
X0474228Y0079995D01*
X0474168Y0079936D01*
X0474111Y0079875D01*
X0474057Y0079811D01*
X0474006Y0079744D01*
X0473958Y0079676D01*
X0473913Y0079605D01*
X0473871Y0079532D01*
X0473834Y0079457D01*
X0473799Y0079380D01*
X0473768Y0079302D01*
X0473741Y0079223D01*
X0473718Y0079142D01*
X0473699Y0079061D01*
X0473683Y0078978D01*
X0473671Y0078895D01*
X0473663Y0078812D01*
X0473659Y0078728D01*
X0473659Y0078644D01*
X0473663Y0078560D01*
X0473671Y0078477D01*
X0473683Y0078394D01*
X0473699Y0078311D01*
X0473718Y0078230D01*
X0473741Y0078149D01*
X0473768Y0078070D01*
X0473799Y0077992D01*
X0473834Y0077915D01*
X0473871Y0077840D01*
X0473913Y0077767D01*
X0473958Y0077696D01*
X0474006Y0077628D01*
X0474057Y0077561D01*
X0474111Y0077497D01*
X0474168Y0077436D01*
X0474228Y0077377D01*
X0474291Y0077322D01*
X0474356Y0077269D01*
X0474424Y0077219D01*
X0474494Y0077173D01*
X0474566Y0077130D01*
X0474640Y0077090D01*
X0474715Y0077054D01*
X0474793Y0077021D01*
X0474871Y0076993D01*
X0474951Y0076967D01*
X0475032Y0076946D01*
X0475114Y0076928D01*
X0475197Y0076915D01*
X0475280Y0076905D01*
X0475364Y0076899D01*
X0475448Y0076897D01*
X0481377Y0076897D02*
X0481377Y0083030D01*
X0484443Y0083030D01*
X0484443Y0082008D01*
X0486213Y0083030D02*
X0489280Y0083030D01*
X0492164Y0083030D02*
X0492164Y0076897D01*
X0489280Y0076897D02*
X0488769Y0076897D01*
X0488694Y0076899D01*
X0488619Y0076904D01*
X0488544Y0076914D01*
X0488470Y0076926D01*
X0488397Y0076943D01*
X0488324Y0076963D01*
X0488253Y0076987D01*
X0488182Y0077014D01*
X0488114Y0077044D01*
X0488046Y0077078D01*
X0487981Y0077115D01*
X0487917Y0077155D01*
X0487856Y0077199D01*
X0487796Y0077245D01*
X0487740Y0077294D01*
X0487685Y0077346D01*
X0487633Y0077401D01*
X0487584Y0077457D01*
X0487538Y0077517D01*
X0487494Y0077578D01*
X0487454Y0077642D01*
X0487417Y0077707D01*
X0487383Y0077775D01*
X0487353Y0077843D01*
X0487326Y0077914D01*
X0487302Y0077985D01*
X0487282Y0078058D01*
X0487265Y0078131D01*
X0487253Y0078205D01*
X0487243Y0078280D01*
X0487238Y0078355D01*
X0487236Y0078430D01*
X0487236Y0086097D01*
X0491908Y0086097D02*
X0492419Y0086097D01*
X0492419Y0085586D01*
X0491908Y0085586D01*
X0491908Y0086097D01*
X0495599Y0083030D02*
X0498155Y0083030D01*
X0498230Y0083028D01*
X0498305Y0083023D01*
X0498380Y0083013D01*
X0498454Y0083001D01*
X0498527Y0082984D01*
X0498600Y0082964D01*
X0498671Y0082940D01*
X0498742Y0082913D01*
X0498810Y0082883D01*
X0498878Y0082849D01*
X0498943Y0082812D01*
X0499007Y0082772D01*
X0499068Y0082728D01*
X0499128Y0082682D01*
X0499184Y0082633D01*
X0499239Y0082581D01*
X0499291Y0082526D01*
X0499340Y0082470D01*
X0499386Y0082410D01*
X0499430Y0082349D01*
X0499470Y0082285D01*
X0499507Y0082220D01*
X0499541Y0082152D01*
X0499571Y0082084D01*
X0499598Y0082013D01*
X0499622Y0081942D01*
X0499642Y0081869D01*
X0499659Y0081796D01*
X0499671Y0081722D01*
X0499681Y0081647D01*
X0499686Y0081572D01*
X0499688Y0081497D01*
X0499688Y0076897D01*
X0495599Y0076897D02*
X0495599Y0083030D01*
X0447994Y0076897D02*
X0447789Y0076902D01*
X0447585Y0076912D01*
X0447380Y0076927D01*
X0447176Y0076947D01*
X0446972Y0076972D01*
X0446770Y0077002D01*
X0446567Y0077036D01*
X0446366Y0077075D01*
X0446166Y0077119D01*
X0445967Y0077167D01*
X0445769Y0077220D01*
X0445572Y0077278D01*
X0445377Y0077341D01*
X0445183Y0077408D01*
D11*
X0327284Y0128367D03*
D12*
X0312324Y0126891D02*
X0312324Y0089095D01*
X0342245Y0089095D01*
X0342245Y0126891D01*
X0312324Y0126891D01*
X0312324Y0126186D02*
X0342245Y0126186D01*
X0342245Y0124187D02*
X0312324Y0124187D01*
X0312324Y0122189D02*
X0342245Y0122189D01*
X0342245Y0120190D02*
X0312324Y0120190D01*
X0312324Y0118192D02*
X0342245Y0118192D01*
X0342245Y0116193D02*
X0312324Y0116193D01*
X0312324Y0114195D02*
X0342245Y0114195D01*
X0342245Y0112196D02*
X0312324Y0112196D01*
X0312324Y0110198D02*
X0342245Y0110198D01*
X0342245Y0108199D02*
X0312324Y0108199D01*
X0312324Y0106201D02*
X0342245Y0106201D01*
X0342245Y0104202D02*
X0312324Y0104202D01*
X0312324Y0102204D02*
X0342245Y0102204D01*
X0342245Y0100205D02*
X0312324Y0100205D01*
X0312324Y0098207D02*
X0342245Y0098207D01*
X0342245Y0096208D02*
X0312324Y0096208D01*
X0312324Y0094210D02*
X0342245Y0094210D01*
X0342245Y0092211D02*
X0312324Y0092211D01*
X0312324Y0090213D02*
X0342245Y0090213D01*
D13*
X0388368Y0137153D03*
X0396486Y0144840D03*
X0415280Y0138000D03*
X0416559Y0126893D03*
X0471452Y0146715D03*
X0479570Y0154402D03*
X0498364Y0147561D03*
X0499643Y0136454D03*
X0442143Y0197185D03*
X0440864Y0208292D03*
X0422071Y0215132D03*
X0413952Y0207445D03*
X0359059Y0187623D03*
X0357780Y0198730D03*
X0338987Y0205570D03*
X0330868Y0197883D03*
X0411497Y0298702D03*
X0416497Y0308702D03*
X0436497Y0308702D03*
X0441497Y0298702D03*
X0486300Y0280001D03*
X0491300Y0290001D03*
X0511300Y0290001D03*
X0516300Y0280001D03*
X0516300Y0354804D03*
X0511300Y0364804D03*
X0491300Y0364804D03*
X0486300Y0354804D03*
X0441497Y0373505D03*
X0436497Y0383505D03*
X0416497Y0383505D03*
X0411497Y0373505D03*
X0366694Y0392206D03*
X0361694Y0402206D03*
X0341694Y0402206D03*
X0336694Y0392206D03*
X0291891Y0410906D03*
X0286891Y0420906D03*
X0266891Y0420906D03*
X0261891Y0410906D03*
X0217087Y0392206D03*
X0212087Y0402206D03*
X0192087Y0402206D03*
X0187087Y0392206D03*
X0142284Y0373505D03*
X0137284Y0383505D03*
X0117284Y0383505D03*
X0112284Y0373505D03*
X0117284Y0308702D03*
X0112284Y0298702D03*
X0137284Y0308702D03*
X0142284Y0298702D03*
X0187087Y0317402D03*
X0192087Y0327402D03*
X0212087Y0327402D03*
X0217087Y0317402D03*
X0261891Y0336103D03*
X0266891Y0346103D03*
X0286891Y0346103D03*
X0291891Y0336103D03*
X0336694Y0317402D03*
X0341694Y0327402D03*
X0361694Y0327402D03*
X0366694Y0317402D03*
X0411497Y0448308D03*
X0416497Y0458308D03*
X0436497Y0458308D03*
X0441497Y0448308D03*
X0441497Y0523111D03*
X0436497Y0533111D03*
X0416497Y0533111D03*
X0411497Y0523111D03*
X0366694Y0541812D03*
X0361694Y0551812D03*
X0341694Y0551812D03*
X0336694Y0541812D03*
X0291891Y0560513D03*
X0286891Y0570513D03*
X0266891Y0570513D03*
X0261891Y0560513D03*
X0217087Y0541812D03*
X0212087Y0551812D03*
X0192087Y0551812D03*
X0187087Y0541812D03*
X0142284Y0523111D03*
X0137284Y0533111D03*
X0117284Y0533111D03*
X0112284Y0523111D03*
X0117284Y0458308D03*
X0112284Y0448308D03*
X0137284Y0458308D03*
X0142284Y0448308D03*
X0187087Y0467009D03*
X0192087Y0477009D03*
X0212087Y0477009D03*
X0217087Y0467009D03*
X0261891Y0485709D03*
X0266891Y0495709D03*
X0286891Y0495709D03*
X0291891Y0485709D03*
X0336694Y0467009D03*
X0341694Y0477009D03*
X0361694Y0477009D03*
X0366694Y0467009D03*
X0137284Y0200434D03*
X0142284Y0190434D03*
X0117284Y0200434D03*
X0112284Y0190434D03*
X0117284Y0125631D03*
X0112284Y0115631D03*
X0137284Y0125631D03*
X0142284Y0115631D03*
D14*
X0107284Y0105631D03*
X0147284Y0105631D03*
X0147284Y0180434D03*
X0107284Y0180434D03*
X0107284Y0288702D03*
X0147284Y0288702D03*
X0182087Y0307402D03*
X0222087Y0307402D03*
X0256891Y0326103D03*
X0296891Y0326103D03*
X0331694Y0307402D03*
X0371694Y0307402D03*
X0406497Y0288702D03*
X0446497Y0288702D03*
X0481300Y0270001D03*
X0521300Y0270001D03*
X0521300Y0344804D03*
X0481300Y0344804D03*
X0446497Y0363505D03*
X0406497Y0363505D03*
X0371694Y0382206D03*
X0331694Y0382206D03*
X0296891Y0400906D03*
X0256891Y0400906D03*
X0222087Y0382206D03*
X0182087Y0382206D03*
X0147284Y0363505D03*
X0107284Y0363505D03*
X0107284Y0438308D03*
X0147284Y0438308D03*
X0182087Y0457009D03*
X0222087Y0457009D03*
X0256891Y0475709D03*
X0296891Y0475709D03*
X0331694Y0457009D03*
X0371694Y0457009D03*
X0406497Y0438308D03*
X0446497Y0438308D03*
X0446497Y0513111D03*
X0406497Y0513111D03*
X0371694Y0531812D03*
X0331694Y0531812D03*
X0296891Y0550513D03*
X0256891Y0550513D03*
X0222087Y0531812D03*
X0182087Y0531812D03*
X0147284Y0513111D03*
X0107284Y0513111D03*
X0405833Y0199758D03*
X0443421Y0186078D03*
X0463333Y0139028D03*
X0500921Y0125347D03*
X0417837Y0115786D03*
X0380249Y0129466D03*
X0360337Y0176516D03*
X0322749Y0190197D03*
D15*
X0341543Y0183356D03*
X0399043Y0122626D03*
X0424627Y0192918D03*
X0482127Y0132188D03*
X0501300Y0270001D03*
X0501300Y0344804D03*
X0426497Y0363505D03*
X0426497Y0438308D03*
X0426497Y0513111D03*
X0351694Y0531812D03*
X0351694Y0457009D03*
X0276891Y0475709D03*
X0276891Y0550513D03*
X0202087Y0531812D03*
X0202087Y0457009D03*
X0127284Y0438308D03*
X0127284Y0363505D03*
X0127284Y0288702D03*
X0202087Y0307402D03*
X0202087Y0382206D03*
X0276891Y0400906D03*
X0276891Y0326103D03*
X0351694Y0307402D03*
X0351694Y0382206D03*
X0426497Y0288702D03*
X0127284Y0180434D03*
X0127284Y0105631D03*
X0127284Y0513111D03*
D16*
X0251891Y0284568D03*
X0256221Y0284568D03*
X0260552Y0284568D03*
X0264883Y0284568D03*
X0269213Y0284568D03*
X0273544Y0284568D03*
X0277875Y0284568D03*
X0282206Y0284568D03*
X0286536Y0284568D03*
X0290867Y0284568D03*
X0295198Y0284568D03*
X0299528Y0284568D03*
D17*
X0309174Y0272166D03*
X0309174Y0267835D03*
X0309174Y0263505D03*
X0309174Y0259174D03*
X0309174Y0254843D03*
X0309174Y0250513D03*
X0309174Y0246182D03*
X0309174Y0241851D03*
X0309174Y0237520D03*
X0309174Y0233190D03*
X0309174Y0228859D03*
X0309174Y0224528D03*
X0242245Y0224528D03*
X0242245Y0228859D03*
X0242245Y0233190D03*
X0242245Y0237520D03*
X0242245Y0241851D03*
X0242245Y0246182D03*
X0242245Y0250513D03*
X0242245Y0254843D03*
X0242245Y0259174D03*
X0242245Y0263505D03*
X0242245Y0267835D03*
X0242245Y0272166D03*
D18*
X0495394Y0395001D03*
X0495394Y0401300D03*
X0507206Y0401300D03*
X0507206Y0395001D03*
D19*
X0514528Y0211654D03*
D20*
X0514528Y0201654D03*
X0514528Y0191654D03*
X0514528Y0181654D03*
D21*
X0331024Y0142639D03*
X0323544Y0142639D03*
X0323544Y0131615D03*
X0327284Y0131615D03*
X0331024Y0131615D03*
D22*
X0299725Y0137520D03*
X0299725Y0148544D03*
D23*
X0469410Y0389883D03*
X0480434Y0389883D03*
X0480434Y0404450D03*
X0469410Y0404450D03*
D24*
X0504056Y0213111D03*
X0504056Y0200119D03*
X0299725Y0127087D03*
X0299725Y0114095D03*
D25*
X0299331Y0103150D03*
X0493032Y0211654D03*
D26*
X0493032Y0201654D03*
X0299331Y0093150D03*
D27*
X0444213Y0146969D03*
X0456024Y0234568D03*
X0426497Y0475709D03*
X0276891Y0513111D03*
X0127284Y0475709D03*
X0127284Y0234568D03*
X0127284Y0143032D03*
M02*
