G75*
%MOIN*%
%OFA0B0*%
%FSLAX25Y25*%
%IPPOS*%
%LPD*%
%AMOC8*
5,1,8,0,0,1.08239X$1,22.5*
%
%ADD10R,0.02500X0.05000*%
%ADD11R,0.05000X0.02500*%
%ADD12R,0.05512X0.04331*%
%ADD13R,0.02362X0.04331*%
%ADD14R,0.31496X0.55118*%
%ADD15R,0.10630X0.06299*%
%ADD16R,0.06299X0.10630*%
%ADD17R,0.09055X0.04331*%
D10*
X0251891Y0284568D03*
X0256221Y0284568D03*
X0260552Y0284568D03*
X0264883Y0284568D03*
X0269213Y0284568D03*
X0273544Y0284568D03*
X0277875Y0284568D03*
X0282206Y0284568D03*
X0286536Y0284568D03*
X0290867Y0284568D03*
X0295198Y0284568D03*
X0299528Y0284568D03*
D11*
X0242245Y0224528D03*
X0242245Y0228859D03*
X0242245Y0233190D03*
X0242245Y0237520D03*
X0242245Y0241851D03*
X0242245Y0246182D03*
X0242245Y0250513D03*
X0242245Y0254843D03*
X0242245Y0259174D03*
X0242245Y0263505D03*
X0242245Y0267835D03*
X0242245Y0272166D03*
X0309174Y0272166D03*
X0309174Y0267835D03*
X0309174Y0263505D03*
X0309174Y0259174D03*
X0309174Y0254843D03*
X0309174Y0250513D03*
X0309174Y0246182D03*
X0309174Y0241851D03*
X0309174Y0237520D03*
X0309174Y0233190D03*
X0309174Y0228859D03*
X0309174Y0224528D03*
D12*
X0495394Y0395001D03*
X0495394Y0401300D03*
X0507206Y0401300D03*
X0507206Y0395001D03*
D13*
X0331024Y0142639D03*
X0323544Y0142639D03*
X0323544Y0131615D03*
X0327284Y0131615D03*
X0331024Y0131615D03*
D14*
X0327284Y0099725D03*
D15*
X0299725Y0137520D03*
X0299725Y0148544D03*
D16*
X0469410Y0389883D03*
X0480434Y0389883D03*
X0480434Y0404450D03*
X0469410Y0404450D03*
D17*
X0504056Y0213111D03*
X0504056Y0200119D03*
X0299725Y0127087D03*
X0299725Y0114095D03*
M02*
