G75*
%MOIN*%
%OFA0B0*%
%FSLAX25Y25*%
%IPPOS*%
%LPD*%
%AMOC8*
5,1,8,0,0,1.08239X$1,22.5*
%
%ADD10C,0.00800*%
%ADD11R,0.02756X0.01772*%
%ADD12C,0.09250*%
%ADD13C,0.10450*%
%ADD14C,0.20100*%
%ADD15R,0.06337X0.06337*%
%ADD16C,0.06337*%
%ADD17R,0.02900X0.05400*%
%ADD18R,0.05400X0.02900*%
%ADD19R,0.05912X0.04731*%
%ADD20R,0.02762X0.04731*%
%ADD21R,0.31896X0.55518*%
%ADD22R,0.11030X0.06699*%
%ADD23R,0.06699X0.11030*%
%ADD24R,0.09455X0.04731*%
%ADD25R,0.06400X0.06400*%
%ADD26C,0.06400*%
D10*
X0424565Y0076897D02*
X0424565Y0081497D01*
X0424566Y0081497D02*
X0424568Y0081575D01*
X0424574Y0081652D01*
X0424584Y0081729D01*
X0424597Y0081806D01*
X0424615Y0081881D01*
X0424636Y0081956D01*
X0424661Y0082029D01*
X0424690Y0082102D01*
X0424723Y0082172D01*
X0424759Y0082241D01*
X0424798Y0082308D01*
X0424841Y0082373D01*
X0424887Y0082435D01*
X0424936Y0082496D01*
X0424988Y0082553D01*
X0425043Y0082608D01*
X0425100Y0082660D01*
X0425161Y0082709D01*
X0425223Y0082755D01*
X0425288Y0082798D01*
X0425355Y0082837D01*
X0425424Y0082873D01*
X0425494Y0082906D01*
X0425567Y0082935D01*
X0425640Y0082960D01*
X0425715Y0082981D01*
X0425790Y0082999D01*
X0425867Y0083012D01*
X0425944Y0083022D01*
X0426021Y0083028D01*
X0426099Y0083030D01*
X0428654Y0083030D01*
X0428654Y0076897D01*
X0432090Y0076897D02*
X0432090Y0083030D01*
X0431834Y0085586D02*
X0432345Y0085586D01*
X0432345Y0086097D01*
X0431834Y0086097D01*
X0431834Y0085586D01*
X0434973Y0083030D02*
X0438040Y0083030D01*
X0439810Y0083030D02*
X0439810Y0082008D01*
X0439810Y0083030D02*
X0442877Y0083030D01*
X0442877Y0076897D01*
X0446505Y0076897D02*
X0446505Y0081497D01*
X0446505Y0080475D02*
X0448805Y0080475D01*
X0446506Y0081497D02*
X0446508Y0081572D01*
X0446513Y0081647D01*
X0446523Y0081722D01*
X0446535Y0081796D01*
X0446552Y0081869D01*
X0446572Y0081942D01*
X0446596Y0082013D01*
X0446623Y0082084D01*
X0446653Y0082152D01*
X0446687Y0082220D01*
X0446724Y0082285D01*
X0446764Y0082349D01*
X0446808Y0082410D01*
X0446854Y0082470D01*
X0446903Y0082527D01*
X0446955Y0082581D01*
X0447010Y0082633D01*
X0447066Y0082682D01*
X0447126Y0082728D01*
X0447187Y0082772D01*
X0447251Y0082812D01*
X0447316Y0082849D01*
X0447384Y0082883D01*
X0447452Y0082913D01*
X0447523Y0082940D01*
X0447594Y0082964D01*
X0447667Y0082984D01*
X0447740Y0083001D01*
X0447814Y0083013D01*
X0447889Y0083023D01*
X0447964Y0083028D01*
X0448039Y0083030D01*
X0450083Y0083030D01*
X0448805Y0080475D02*
X0448889Y0080473D01*
X0448973Y0080467D01*
X0449056Y0080457D01*
X0449139Y0080444D01*
X0449221Y0080426D01*
X0449302Y0080405D01*
X0449382Y0080379D01*
X0449460Y0080351D01*
X0449538Y0080318D01*
X0449613Y0080282D01*
X0449687Y0080242D01*
X0449759Y0080199D01*
X0449829Y0080153D01*
X0449897Y0080103D01*
X0449962Y0080050D01*
X0450025Y0079995D01*
X0450085Y0079936D01*
X0450142Y0079875D01*
X0450196Y0079811D01*
X0450247Y0079744D01*
X0450295Y0079676D01*
X0450340Y0079605D01*
X0450382Y0079532D01*
X0450419Y0079457D01*
X0450454Y0079380D01*
X0450485Y0079302D01*
X0450512Y0079223D01*
X0450535Y0079142D01*
X0450554Y0079061D01*
X0450570Y0078978D01*
X0450582Y0078895D01*
X0450590Y0078812D01*
X0450594Y0078728D01*
X0450594Y0078644D01*
X0450590Y0078560D01*
X0450582Y0078477D01*
X0450570Y0078394D01*
X0450554Y0078311D01*
X0450535Y0078230D01*
X0450512Y0078149D01*
X0450485Y0078070D01*
X0450454Y0077992D01*
X0450419Y0077915D01*
X0450382Y0077840D01*
X0450340Y0077767D01*
X0450295Y0077696D01*
X0450247Y0077628D01*
X0450196Y0077561D01*
X0450142Y0077497D01*
X0450085Y0077436D01*
X0450025Y0077377D01*
X0449962Y0077322D01*
X0449897Y0077269D01*
X0449829Y0077219D01*
X0449759Y0077173D01*
X0449687Y0077130D01*
X0449613Y0077090D01*
X0449538Y0077054D01*
X0449460Y0077021D01*
X0449382Y0076993D01*
X0449302Y0076967D01*
X0449221Y0076946D01*
X0449139Y0076928D01*
X0449056Y0076915D01*
X0448973Y0076905D01*
X0448889Y0076899D01*
X0448805Y0076897D01*
X0446505Y0076897D01*
X0437018Y0078430D02*
X0437018Y0086097D01*
X0437017Y0078430D02*
X0437015Y0078352D01*
X0437009Y0078275D01*
X0436999Y0078198D01*
X0436986Y0078121D01*
X0436968Y0078046D01*
X0436947Y0077971D01*
X0436922Y0077898D01*
X0436893Y0077825D01*
X0436860Y0077755D01*
X0436824Y0077686D01*
X0436785Y0077619D01*
X0436742Y0077554D01*
X0436696Y0077492D01*
X0436647Y0077431D01*
X0436595Y0077374D01*
X0436540Y0077319D01*
X0436483Y0077267D01*
X0436422Y0077218D01*
X0436360Y0077172D01*
X0436295Y0077129D01*
X0436228Y0077090D01*
X0436159Y0077054D01*
X0436089Y0077021D01*
X0436016Y0076992D01*
X0435943Y0076967D01*
X0435868Y0076946D01*
X0435793Y0076928D01*
X0435716Y0076915D01*
X0435639Y0076905D01*
X0435562Y0076899D01*
X0435484Y0076897D01*
X0435485Y0076897D02*
X0434973Y0076897D01*
X0453957Y0076897D02*
X0453957Y0086097D01*
X0457024Y0080986D01*
X0460090Y0086097D01*
X0460090Y0076897D01*
X0467857Y0076897D02*
X0470413Y0076897D01*
X0470488Y0076899D01*
X0470563Y0076904D01*
X0470638Y0076914D01*
X0470712Y0076926D01*
X0470785Y0076943D01*
X0470858Y0076963D01*
X0470929Y0076987D01*
X0471000Y0077014D01*
X0471068Y0077044D01*
X0471136Y0077078D01*
X0471201Y0077115D01*
X0471265Y0077155D01*
X0471326Y0077199D01*
X0471386Y0077245D01*
X0471443Y0077294D01*
X0471497Y0077346D01*
X0471549Y0077401D01*
X0471598Y0077457D01*
X0471644Y0077517D01*
X0471688Y0077578D01*
X0471728Y0077642D01*
X0471765Y0077707D01*
X0471799Y0077775D01*
X0471829Y0077843D01*
X0471856Y0077914D01*
X0471880Y0077985D01*
X0471900Y0078058D01*
X0471917Y0078131D01*
X0471929Y0078205D01*
X0471939Y0078280D01*
X0471944Y0078355D01*
X0471946Y0078430D01*
X0471946Y0080986D01*
X0471946Y0079964D02*
X0467857Y0079964D01*
X0467857Y0080986D01*
X0467858Y0080986D02*
X0467860Y0081075D01*
X0467866Y0081164D01*
X0467875Y0081253D01*
X0467889Y0081341D01*
X0467906Y0081428D01*
X0467928Y0081515D01*
X0467953Y0081601D01*
X0467981Y0081685D01*
X0468014Y0081768D01*
X0468050Y0081850D01*
X0468089Y0081930D01*
X0468132Y0082008D01*
X0468178Y0082084D01*
X0468228Y0082158D01*
X0468280Y0082230D01*
X0468336Y0082300D01*
X0468395Y0082367D01*
X0468457Y0082431D01*
X0468521Y0082493D01*
X0468588Y0082552D01*
X0468658Y0082608D01*
X0468730Y0082660D01*
X0468804Y0082710D01*
X0468880Y0082756D01*
X0468958Y0082799D01*
X0469038Y0082838D01*
X0469120Y0082874D01*
X0469203Y0082907D01*
X0469287Y0082935D01*
X0469373Y0082960D01*
X0469460Y0082982D01*
X0469547Y0082999D01*
X0469635Y0083013D01*
X0469724Y0083022D01*
X0469813Y0083028D01*
X0469902Y0083030D01*
X0469991Y0083028D01*
X0470080Y0083022D01*
X0470169Y0083013D01*
X0470257Y0082999D01*
X0470344Y0082982D01*
X0470431Y0082960D01*
X0470517Y0082935D01*
X0470601Y0082907D01*
X0470684Y0082874D01*
X0470766Y0082838D01*
X0470846Y0082799D01*
X0470924Y0082756D01*
X0471000Y0082710D01*
X0471074Y0082660D01*
X0471146Y0082608D01*
X0471216Y0082552D01*
X0471283Y0082493D01*
X0471347Y0082431D01*
X0471409Y0082367D01*
X0471468Y0082300D01*
X0471524Y0082230D01*
X0471576Y0082158D01*
X0471626Y0082084D01*
X0471672Y0082008D01*
X0471715Y0081930D01*
X0471754Y0081850D01*
X0471790Y0081768D01*
X0471823Y0081685D01*
X0471851Y0081601D01*
X0471876Y0081515D01*
X0471898Y0081428D01*
X0471915Y0081341D01*
X0471929Y0081253D01*
X0471938Y0081164D01*
X0471944Y0081075D01*
X0471946Y0080986D01*
X0475748Y0079452D02*
X0478303Y0080475D01*
X0478369Y0080503D01*
X0478434Y0080536D01*
X0478497Y0080571D01*
X0478557Y0080610D01*
X0478616Y0080652D01*
X0478672Y0080698D01*
X0478725Y0080746D01*
X0478776Y0080797D01*
X0478824Y0080851D01*
X0478869Y0080907D01*
X0478911Y0080966D01*
X0478949Y0081027D01*
X0478985Y0081090D01*
X0479016Y0081155D01*
X0479044Y0081221D01*
X0479069Y0081289D01*
X0479090Y0081358D01*
X0479107Y0081428D01*
X0479120Y0081499D01*
X0479129Y0081570D01*
X0479135Y0081642D01*
X0479136Y0081714D01*
X0479134Y0081786D01*
X0479127Y0081858D01*
X0479117Y0081929D01*
X0479103Y0082000D01*
X0479085Y0082070D01*
X0479063Y0082139D01*
X0479038Y0082206D01*
X0479009Y0082272D01*
X0478976Y0082336D01*
X0478940Y0082399D01*
X0478900Y0082459D01*
X0478858Y0082517D01*
X0478812Y0082573D01*
X0478763Y0082626D01*
X0478712Y0082677D01*
X0478658Y0082724D01*
X0478601Y0082769D01*
X0478542Y0082810D01*
X0478481Y0082848D01*
X0478418Y0082883D01*
X0478353Y0082914D01*
X0478286Y0082942D01*
X0478218Y0082966D01*
X0478149Y0082986D01*
X0478079Y0083003D01*
X0478008Y0083015D01*
X0477936Y0083024D01*
X0477864Y0083029D01*
X0477792Y0083030D01*
X0479070Y0077408D02*
X0478876Y0077341D01*
X0478681Y0077278D01*
X0478484Y0077220D01*
X0478286Y0077167D01*
X0478087Y0077119D01*
X0477887Y0077075D01*
X0477686Y0077036D01*
X0477483Y0077002D01*
X0477281Y0076972D01*
X0477077Y0076947D01*
X0476873Y0076927D01*
X0476668Y0076912D01*
X0476464Y0076902D01*
X0476259Y0076897D01*
X0476187Y0076898D01*
X0476115Y0076903D01*
X0476043Y0076912D01*
X0475972Y0076924D01*
X0475902Y0076941D01*
X0475833Y0076961D01*
X0475765Y0076985D01*
X0475698Y0077013D01*
X0475633Y0077044D01*
X0475570Y0077079D01*
X0475509Y0077117D01*
X0475450Y0077158D01*
X0475393Y0077203D01*
X0475339Y0077250D01*
X0475288Y0077301D01*
X0475239Y0077354D01*
X0475193Y0077410D01*
X0475151Y0077468D01*
X0475111Y0077528D01*
X0475075Y0077591D01*
X0475042Y0077655D01*
X0475013Y0077721D01*
X0474988Y0077788D01*
X0474966Y0077857D01*
X0474948Y0077927D01*
X0474934Y0077998D01*
X0474924Y0078069D01*
X0474917Y0078141D01*
X0474915Y0078213D01*
X0474916Y0078285D01*
X0474922Y0078357D01*
X0474931Y0078428D01*
X0474944Y0078499D01*
X0474961Y0078569D01*
X0474982Y0078638D01*
X0475007Y0078706D01*
X0475035Y0078772D01*
X0475066Y0078837D01*
X0475102Y0078900D01*
X0475140Y0078961D01*
X0475182Y0079020D01*
X0475227Y0079076D01*
X0475275Y0079130D01*
X0475326Y0079181D01*
X0475379Y0079229D01*
X0475435Y0079275D01*
X0475494Y0079317D01*
X0475554Y0079356D01*
X0475617Y0079391D01*
X0475682Y0079424D01*
X0475748Y0079452D01*
X0475492Y0082519D02*
X0475628Y0082578D01*
X0475766Y0082634D01*
X0475904Y0082686D01*
X0476045Y0082735D01*
X0476186Y0082780D01*
X0476328Y0082821D01*
X0476472Y0082859D01*
X0476616Y0082893D01*
X0476761Y0082923D01*
X0476907Y0082950D01*
X0477053Y0082973D01*
X0477201Y0082992D01*
X0477348Y0083007D01*
X0477496Y0083019D01*
X0477644Y0083026D01*
X0477792Y0083030D01*
X0483383Y0076897D02*
X0483588Y0076902D01*
X0483792Y0076912D01*
X0483997Y0076927D01*
X0484201Y0076947D01*
X0484405Y0076972D01*
X0484607Y0077002D01*
X0484810Y0077036D01*
X0485011Y0077075D01*
X0485211Y0077119D01*
X0485410Y0077167D01*
X0485608Y0077220D01*
X0485805Y0077278D01*
X0486000Y0077341D01*
X0486194Y0077408D01*
X0484916Y0083030D02*
X0484768Y0083026D01*
X0484620Y0083019D01*
X0484472Y0083007D01*
X0484325Y0082992D01*
X0484177Y0082973D01*
X0484031Y0082950D01*
X0483885Y0082923D01*
X0483740Y0082893D01*
X0483596Y0082859D01*
X0483452Y0082821D01*
X0483310Y0082780D01*
X0483169Y0082735D01*
X0483028Y0082686D01*
X0482890Y0082634D01*
X0482752Y0082578D01*
X0482616Y0082519D01*
X0484916Y0083030D02*
X0484988Y0083029D01*
X0485060Y0083024D01*
X0485132Y0083015D01*
X0485203Y0083003D01*
X0485273Y0082986D01*
X0485342Y0082966D01*
X0485410Y0082942D01*
X0485477Y0082914D01*
X0485542Y0082883D01*
X0485605Y0082848D01*
X0485666Y0082810D01*
X0485725Y0082769D01*
X0485782Y0082724D01*
X0485836Y0082677D01*
X0485887Y0082626D01*
X0485936Y0082573D01*
X0485982Y0082517D01*
X0486024Y0082459D01*
X0486064Y0082399D01*
X0486100Y0082336D01*
X0486133Y0082272D01*
X0486162Y0082206D01*
X0486187Y0082139D01*
X0486209Y0082070D01*
X0486227Y0082000D01*
X0486241Y0081929D01*
X0486251Y0081858D01*
X0486258Y0081786D01*
X0486260Y0081714D01*
X0486259Y0081642D01*
X0486253Y0081570D01*
X0486244Y0081499D01*
X0486231Y0081428D01*
X0486214Y0081358D01*
X0486193Y0081289D01*
X0486168Y0081221D01*
X0486140Y0081155D01*
X0486109Y0081090D01*
X0486073Y0081027D01*
X0486035Y0080966D01*
X0485993Y0080907D01*
X0485948Y0080851D01*
X0485900Y0080797D01*
X0485849Y0080746D01*
X0485796Y0080698D01*
X0485740Y0080652D01*
X0485681Y0080610D01*
X0485621Y0080571D01*
X0485558Y0080536D01*
X0485493Y0080503D01*
X0485427Y0080475D01*
X0482872Y0079452D01*
X0482806Y0079424D01*
X0482741Y0079391D01*
X0482678Y0079356D01*
X0482618Y0079317D01*
X0482559Y0079275D01*
X0482503Y0079229D01*
X0482450Y0079181D01*
X0482399Y0079130D01*
X0482351Y0079076D01*
X0482306Y0079020D01*
X0482264Y0078961D01*
X0482226Y0078900D01*
X0482190Y0078837D01*
X0482159Y0078772D01*
X0482131Y0078706D01*
X0482106Y0078638D01*
X0482085Y0078569D01*
X0482068Y0078499D01*
X0482055Y0078428D01*
X0482046Y0078357D01*
X0482040Y0078285D01*
X0482039Y0078213D01*
X0482041Y0078141D01*
X0482048Y0078069D01*
X0482058Y0077998D01*
X0482072Y0077927D01*
X0482090Y0077857D01*
X0482112Y0077788D01*
X0482137Y0077721D01*
X0482166Y0077655D01*
X0482199Y0077591D01*
X0482235Y0077528D01*
X0482275Y0077468D01*
X0482317Y0077410D01*
X0482363Y0077354D01*
X0482412Y0077301D01*
X0482463Y0077250D01*
X0482517Y0077203D01*
X0482574Y0077158D01*
X0482633Y0077117D01*
X0482694Y0077079D01*
X0482757Y0077044D01*
X0482822Y0077013D01*
X0482889Y0076985D01*
X0482957Y0076961D01*
X0483026Y0076941D01*
X0483096Y0076924D01*
X0483167Y0076912D01*
X0483239Y0076903D01*
X0483311Y0076898D01*
X0483383Y0076897D01*
X0489229Y0076897D02*
X0491785Y0076897D01*
X0491860Y0076899D01*
X0491935Y0076904D01*
X0492010Y0076914D01*
X0492084Y0076926D01*
X0492157Y0076943D01*
X0492230Y0076963D01*
X0492301Y0076987D01*
X0492372Y0077014D01*
X0492440Y0077044D01*
X0492508Y0077078D01*
X0492573Y0077115D01*
X0492637Y0077155D01*
X0492698Y0077199D01*
X0492758Y0077245D01*
X0492815Y0077294D01*
X0492869Y0077346D01*
X0492921Y0077401D01*
X0492970Y0077457D01*
X0493016Y0077517D01*
X0493060Y0077578D01*
X0493100Y0077642D01*
X0493137Y0077707D01*
X0493171Y0077775D01*
X0493201Y0077843D01*
X0493228Y0077914D01*
X0493252Y0077985D01*
X0493272Y0078058D01*
X0493289Y0078131D01*
X0493301Y0078205D01*
X0493311Y0078280D01*
X0493316Y0078355D01*
X0493318Y0078430D01*
X0493318Y0080986D01*
X0493318Y0079964D02*
X0489229Y0079964D01*
X0489229Y0080986D01*
X0489230Y0080986D02*
X0489232Y0081075D01*
X0489238Y0081164D01*
X0489247Y0081253D01*
X0489261Y0081341D01*
X0489278Y0081428D01*
X0489300Y0081515D01*
X0489325Y0081601D01*
X0489353Y0081685D01*
X0489386Y0081768D01*
X0489422Y0081850D01*
X0489461Y0081930D01*
X0489504Y0082008D01*
X0489550Y0082084D01*
X0489600Y0082158D01*
X0489652Y0082230D01*
X0489708Y0082300D01*
X0489767Y0082367D01*
X0489829Y0082431D01*
X0489893Y0082493D01*
X0489960Y0082552D01*
X0490030Y0082608D01*
X0490102Y0082660D01*
X0490176Y0082710D01*
X0490252Y0082756D01*
X0490330Y0082799D01*
X0490410Y0082838D01*
X0490492Y0082874D01*
X0490575Y0082907D01*
X0490659Y0082935D01*
X0490745Y0082960D01*
X0490832Y0082982D01*
X0490919Y0082999D01*
X0491007Y0083013D01*
X0491096Y0083022D01*
X0491185Y0083028D01*
X0491274Y0083030D01*
X0491363Y0083028D01*
X0491452Y0083022D01*
X0491541Y0083013D01*
X0491629Y0082999D01*
X0491716Y0082982D01*
X0491803Y0082960D01*
X0491889Y0082935D01*
X0491973Y0082907D01*
X0492056Y0082874D01*
X0492138Y0082838D01*
X0492218Y0082799D01*
X0492296Y0082756D01*
X0492372Y0082710D01*
X0492446Y0082660D01*
X0492518Y0082608D01*
X0492588Y0082552D01*
X0492655Y0082493D01*
X0492719Y0082431D01*
X0492781Y0082367D01*
X0492840Y0082300D01*
X0492896Y0082230D01*
X0492948Y0082158D01*
X0492998Y0082084D01*
X0493044Y0082008D01*
X0493087Y0081930D01*
X0493126Y0081850D01*
X0493162Y0081768D01*
X0493195Y0081685D01*
X0493223Y0081601D01*
X0493248Y0081515D01*
X0493270Y0081428D01*
X0493287Y0081341D01*
X0493301Y0081253D01*
X0493310Y0081164D01*
X0493316Y0081075D01*
X0493318Y0080986D01*
X0496652Y0078941D02*
X0496652Y0086097D01*
X0496653Y0078941D02*
X0496655Y0078852D01*
X0496661Y0078763D01*
X0496670Y0078674D01*
X0496684Y0078586D01*
X0496701Y0078499D01*
X0496723Y0078412D01*
X0496748Y0078326D01*
X0496776Y0078242D01*
X0496809Y0078159D01*
X0496845Y0078077D01*
X0496884Y0077997D01*
X0496927Y0077919D01*
X0496973Y0077843D01*
X0497023Y0077769D01*
X0497075Y0077697D01*
X0497131Y0077627D01*
X0497190Y0077560D01*
X0497252Y0077496D01*
X0497316Y0077434D01*
X0497383Y0077375D01*
X0497453Y0077319D01*
X0497525Y0077267D01*
X0497599Y0077217D01*
X0497675Y0077171D01*
X0497753Y0077128D01*
X0497833Y0077089D01*
X0497915Y0077053D01*
X0497998Y0077020D01*
X0498082Y0076992D01*
X0498168Y0076967D01*
X0498255Y0076945D01*
X0498342Y0076928D01*
X0498430Y0076914D01*
X0498519Y0076905D01*
X0498608Y0076899D01*
X0498697Y0076897D01*
X0499719Y0076897D01*
D11*
X0327284Y0128367D03*
D12*
X0359059Y0187623D03*
X0357780Y0198730D03*
X0338987Y0205570D03*
X0330868Y0197883D03*
X0388368Y0137153D03*
X0396486Y0144840D03*
X0415280Y0138000D03*
X0416559Y0126893D03*
X0471452Y0146715D03*
X0479570Y0154402D03*
X0498364Y0147561D03*
X0499643Y0136454D03*
X0442143Y0197185D03*
X0440864Y0208292D03*
X0422071Y0215132D03*
X0413952Y0207445D03*
X0486300Y0280001D03*
X0491300Y0290001D03*
X0511300Y0290001D03*
X0516300Y0280001D03*
X0516300Y0354804D03*
X0511300Y0364804D03*
X0491300Y0364804D03*
X0486300Y0354804D03*
X0441497Y0373505D03*
X0436497Y0383505D03*
X0416497Y0383505D03*
X0411497Y0373505D03*
X0366694Y0392206D03*
X0361694Y0402206D03*
X0341694Y0402206D03*
X0336694Y0392206D03*
X0291891Y0410906D03*
X0286891Y0420906D03*
X0266891Y0420906D03*
X0261891Y0410906D03*
X0217087Y0392206D03*
X0212087Y0402206D03*
X0192087Y0402206D03*
X0187087Y0392206D03*
X0142284Y0373505D03*
X0137284Y0383505D03*
X0117284Y0383505D03*
X0112284Y0373505D03*
X0117284Y0308702D03*
X0112284Y0298702D03*
X0137284Y0308702D03*
X0142284Y0298702D03*
X0187087Y0317402D03*
X0192087Y0327402D03*
X0212087Y0327402D03*
X0217087Y0317402D03*
X0261891Y0336103D03*
X0266891Y0346103D03*
X0286891Y0346103D03*
X0291891Y0336103D03*
X0336694Y0317402D03*
X0341694Y0327402D03*
X0361694Y0327402D03*
X0366694Y0317402D03*
X0411497Y0298702D03*
X0416497Y0308702D03*
X0436497Y0308702D03*
X0441497Y0298702D03*
X0441497Y0448308D03*
X0436497Y0458308D03*
X0416497Y0458308D03*
X0411497Y0448308D03*
X0366694Y0467009D03*
X0361694Y0477009D03*
X0341694Y0477009D03*
X0336694Y0467009D03*
X0291891Y0485709D03*
X0286891Y0495709D03*
X0266891Y0495709D03*
X0261891Y0485709D03*
X0217087Y0467009D03*
X0212087Y0477009D03*
X0192087Y0477009D03*
X0187087Y0467009D03*
X0142284Y0448308D03*
X0137284Y0458308D03*
X0117284Y0458308D03*
X0112284Y0448308D03*
X0112284Y0523111D03*
X0117284Y0533111D03*
X0137284Y0533111D03*
X0142284Y0523111D03*
X0187087Y0541812D03*
X0192087Y0551812D03*
X0212087Y0551812D03*
X0217087Y0541812D03*
X0261891Y0560513D03*
X0266891Y0570513D03*
X0286891Y0570513D03*
X0291891Y0560513D03*
X0336694Y0541812D03*
X0341694Y0551812D03*
X0361694Y0551812D03*
X0366694Y0541812D03*
X0411497Y0523111D03*
X0416497Y0533111D03*
X0436497Y0533111D03*
X0441497Y0523111D03*
X0137284Y0200434D03*
X0142284Y0190434D03*
X0117284Y0200434D03*
X0112284Y0190434D03*
X0117284Y0125631D03*
X0112284Y0115631D03*
X0137284Y0125631D03*
X0142284Y0115631D03*
D13*
X0107284Y0105631D03*
X0147284Y0105631D03*
X0147284Y0180434D03*
X0107284Y0180434D03*
X0107284Y0288702D03*
X0147284Y0288702D03*
X0182087Y0307402D03*
X0222087Y0307402D03*
X0256891Y0326103D03*
X0296891Y0326103D03*
X0331694Y0307402D03*
X0371694Y0307402D03*
X0406497Y0288702D03*
X0446497Y0288702D03*
X0481300Y0270001D03*
X0521300Y0270001D03*
X0521300Y0344804D03*
X0481300Y0344804D03*
X0446497Y0363505D03*
X0406497Y0363505D03*
X0371694Y0382206D03*
X0331694Y0382206D03*
X0296891Y0400906D03*
X0256891Y0400906D03*
X0222087Y0382206D03*
X0182087Y0382206D03*
X0147284Y0363505D03*
X0107284Y0363505D03*
X0107284Y0438308D03*
X0147284Y0438308D03*
X0182087Y0457009D03*
X0222087Y0457009D03*
X0256891Y0475709D03*
X0296891Y0475709D03*
X0331694Y0457009D03*
X0371694Y0457009D03*
X0406497Y0438308D03*
X0446497Y0438308D03*
X0446497Y0513111D03*
X0406497Y0513111D03*
X0371694Y0531812D03*
X0331694Y0531812D03*
X0296891Y0550513D03*
X0256891Y0550513D03*
X0222087Y0531812D03*
X0182087Y0531812D03*
X0147284Y0513111D03*
X0107284Y0513111D03*
X0405833Y0199758D03*
X0443421Y0186078D03*
X0463333Y0139028D03*
X0500921Y0125347D03*
X0417837Y0115786D03*
X0380249Y0129466D03*
X0360337Y0176516D03*
X0322749Y0190197D03*
D14*
X0341543Y0183356D03*
X0399043Y0122626D03*
X0424627Y0192918D03*
X0482127Y0132188D03*
X0501300Y0270001D03*
X0501300Y0344804D03*
X0426497Y0363505D03*
X0426497Y0438308D03*
X0426497Y0513111D03*
X0351694Y0531812D03*
X0351694Y0457009D03*
X0276891Y0475709D03*
X0276891Y0550513D03*
X0202087Y0531812D03*
X0202087Y0457009D03*
X0127284Y0438308D03*
X0127284Y0363505D03*
X0127284Y0288702D03*
X0202087Y0307402D03*
X0202087Y0382206D03*
X0276891Y0400906D03*
X0276891Y0326103D03*
X0351694Y0307402D03*
X0351694Y0382206D03*
X0426497Y0288702D03*
X0127284Y0180434D03*
X0127284Y0105631D03*
X0127284Y0513111D03*
D15*
X0514528Y0211654D03*
D16*
X0514528Y0201654D03*
X0514528Y0191654D03*
X0514528Y0181654D03*
D17*
X0299528Y0284568D03*
X0295198Y0284568D03*
X0290867Y0284568D03*
X0286536Y0284568D03*
X0282206Y0284568D03*
X0277875Y0284568D03*
X0273544Y0284568D03*
X0269213Y0284568D03*
X0264883Y0284568D03*
X0260552Y0284568D03*
X0256221Y0284568D03*
X0251891Y0284568D03*
D18*
X0242245Y0272166D03*
X0242245Y0267835D03*
X0242245Y0263505D03*
X0242245Y0259174D03*
X0242245Y0254843D03*
X0242245Y0250513D03*
X0242245Y0246182D03*
X0242245Y0241851D03*
X0242245Y0237520D03*
X0242245Y0233190D03*
X0242245Y0228859D03*
X0242245Y0224528D03*
X0309174Y0224528D03*
X0309174Y0228859D03*
X0309174Y0233190D03*
X0309174Y0237520D03*
X0309174Y0241851D03*
X0309174Y0246182D03*
X0309174Y0250513D03*
X0309174Y0254843D03*
X0309174Y0259174D03*
X0309174Y0263505D03*
X0309174Y0267835D03*
X0309174Y0272166D03*
D19*
X0495394Y0395001D03*
X0495394Y0401300D03*
X0507206Y0401300D03*
X0507206Y0395001D03*
D20*
X0331024Y0142639D03*
X0323544Y0142639D03*
X0323544Y0131615D03*
X0327284Y0131615D03*
X0331024Y0131615D03*
D21*
X0327284Y0099725D03*
D22*
X0299725Y0137520D03*
X0299725Y0148544D03*
D23*
X0469410Y0389883D03*
X0480434Y0389883D03*
X0480434Y0404450D03*
X0469410Y0404450D03*
D24*
X0493032Y0212914D03*
X0493032Y0199922D03*
X0299725Y0127087D03*
X0299725Y0114095D03*
D25*
X0299331Y0103150D03*
X0504450Y0211654D03*
D26*
X0504450Y0201654D03*
X0299331Y0093150D03*
M02*
