G75*
%MOIN*%
%OFA0B0*%
%FSLAX25Y25*%
%IPPOS*%
%LPD*%
%AMOC8*
5,1,8,0,0,1.08239X$1,22.5*
%
%ADD10C,0.00800*%
%ADD11C,0.00400*%
%ADD12C,0.00300*%
%ADD13C,0.00500*%
%ADD14C,0.00787*%
D10*
X0424565Y0076897D02*
X0424565Y0081497D01*
X0424566Y0081497D02*
X0424568Y0081575D01*
X0424574Y0081652D01*
X0424584Y0081729D01*
X0424597Y0081806D01*
X0424615Y0081881D01*
X0424636Y0081956D01*
X0424661Y0082029D01*
X0424690Y0082102D01*
X0424723Y0082172D01*
X0424759Y0082241D01*
X0424798Y0082308D01*
X0424841Y0082373D01*
X0424887Y0082435D01*
X0424936Y0082496D01*
X0424988Y0082553D01*
X0425043Y0082608D01*
X0425100Y0082660D01*
X0425161Y0082709D01*
X0425223Y0082755D01*
X0425288Y0082798D01*
X0425355Y0082837D01*
X0425424Y0082873D01*
X0425494Y0082906D01*
X0425567Y0082935D01*
X0425640Y0082960D01*
X0425715Y0082981D01*
X0425790Y0082999D01*
X0425867Y0083012D01*
X0425944Y0083022D01*
X0426021Y0083028D01*
X0426099Y0083030D01*
X0428654Y0083030D01*
X0428654Y0076897D01*
X0432090Y0076897D02*
X0432090Y0083030D01*
X0431834Y0085586D02*
X0432345Y0085586D01*
X0432345Y0086097D01*
X0431834Y0086097D01*
X0431834Y0085586D01*
X0434973Y0083030D02*
X0438040Y0083030D01*
X0439810Y0083030D02*
X0439810Y0082008D01*
X0439810Y0083030D02*
X0442877Y0083030D01*
X0442877Y0076897D01*
X0446505Y0076897D02*
X0446505Y0081497D01*
X0446505Y0080475D02*
X0448805Y0080475D01*
X0446506Y0081497D02*
X0446508Y0081572D01*
X0446513Y0081647D01*
X0446523Y0081722D01*
X0446535Y0081796D01*
X0446552Y0081869D01*
X0446572Y0081942D01*
X0446596Y0082013D01*
X0446623Y0082084D01*
X0446653Y0082152D01*
X0446687Y0082220D01*
X0446724Y0082285D01*
X0446764Y0082349D01*
X0446808Y0082410D01*
X0446854Y0082470D01*
X0446903Y0082527D01*
X0446955Y0082581D01*
X0447010Y0082633D01*
X0447066Y0082682D01*
X0447126Y0082728D01*
X0447187Y0082772D01*
X0447251Y0082812D01*
X0447316Y0082849D01*
X0447384Y0082883D01*
X0447452Y0082913D01*
X0447523Y0082940D01*
X0447594Y0082964D01*
X0447667Y0082984D01*
X0447740Y0083001D01*
X0447814Y0083013D01*
X0447889Y0083023D01*
X0447964Y0083028D01*
X0448039Y0083030D01*
X0450083Y0083030D01*
X0448805Y0080475D02*
X0448889Y0080473D01*
X0448973Y0080467D01*
X0449056Y0080457D01*
X0449139Y0080444D01*
X0449221Y0080426D01*
X0449302Y0080405D01*
X0449382Y0080379D01*
X0449460Y0080351D01*
X0449538Y0080318D01*
X0449613Y0080282D01*
X0449687Y0080242D01*
X0449759Y0080199D01*
X0449829Y0080153D01*
X0449897Y0080103D01*
X0449962Y0080050D01*
X0450025Y0079995D01*
X0450085Y0079936D01*
X0450142Y0079875D01*
X0450196Y0079811D01*
X0450247Y0079744D01*
X0450295Y0079676D01*
X0450340Y0079605D01*
X0450382Y0079532D01*
X0450419Y0079457D01*
X0450454Y0079380D01*
X0450485Y0079302D01*
X0450512Y0079223D01*
X0450535Y0079142D01*
X0450554Y0079061D01*
X0450570Y0078978D01*
X0450582Y0078895D01*
X0450590Y0078812D01*
X0450594Y0078728D01*
X0450594Y0078644D01*
X0450590Y0078560D01*
X0450582Y0078477D01*
X0450570Y0078394D01*
X0450554Y0078311D01*
X0450535Y0078230D01*
X0450512Y0078149D01*
X0450485Y0078070D01*
X0450454Y0077992D01*
X0450419Y0077915D01*
X0450382Y0077840D01*
X0450340Y0077767D01*
X0450295Y0077696D01*
X0450247Y0077628D01*
X0450196Y0077561D01*
X0450142Y0077497D01*
X0450085Y0077436D01*
X0450025Y0077377D01*
X0449962Y0077322D01*
X0449897Y0077269D01*
X0449829Y0077219D01*
X0449759Y0077173D01*
X0449687Y0077130D01*
X0449613Y0077090D01*
X0449538Y0077054D01*
X0449460Y0077021D01*
X0449382Y0076993D01*
X0449302Y0076967D01*
X0449221Y0076946D01*
X0449139Y0076928D01*
X0449056Y0076915D01*
X0448973Y0076905D01*
X0448889Y0076899D01*
X0448805Y0076897D01*
X0446505Y0076897D01*
X0437018Y0078430D02*
X0437018Y0086097D01*
X0437017Y0078430D02*
X0437015Y0078352D01*
X0437009Y0078275D01*
X0436999Y0078198D01*
X0436986Y0078121D01*
X0436968Y0078046D01*
X0436947Y0077971D01*
X0436922Y0077898D01*
X0436893Y0077825D01*
X0436860Y0077755D01*
X0436824Y0077686D01*
X0436785Y0077619D01*
X0436742Y0077554D01*
X0436696Y0077492D01*
X0436647Y0077431D01*
X0436595Y0077374D01*
X0436540Y0077319D01*
X0436483Y0077267D01*
X0436422Y0077218D01*
X0436360Y0077172D01*
X0436295Y0077129D01*
X0436228Y0077090D01*
X0436159Y0077054D01*
X0436089Y0077021D01*
X0436016Y0076992D01*
X0435943Y0076967D01*
X0435868Y0076946D01*
X0435793Y0076928D01*
X0435716Y0076915D01*
X0435639Y0076905D01*
X0435562Y0076899D01*
X0435484Y0076897D01*
X0435485Y0076897D02*
X0434973Y0076897D01*
X0453957Y0076897D02*
X0453957Y0086097D01*
X0457024Y0080986D01*
X0460090Y0086097D01*
X0460090Y0076897D01*
X0467857Y0076897D02*
X0470413Y0076897D01*
X0470488Y0076899D01*
X0470563Y0076904D01*
X0470638Y0076914D01*
X0470712Y0076926D01*
X0470785Y0076943D01*
X0470858Y0076963D01*
X0470929Y0076987D01*
X0471000Y0077014D01*
X0471068Y0077044D01*
X0471136Y0077078D01*
X0471201Y0077115D01*
X0471265Y0077155D01*
X0471326Y0077199D01*
X0471386Y0077245D01*
X0471443Y0077294D01*
X0471497Y0077346D01*
X0471549Y0077401D01*
X0471598Y0077457D01*
X0471644Y0077517D01*
X0471688Y0077578D01*
X0471728Y0077642D01*
X0471765Y0077707D01*
X0471799Y0077775D01*
X0471829Y0077843D01*
X0471856Y0077914D01*
X0471880Y0077985D01*
X0471900Y0078058D01*
X0471917Y0078131D01*
X0471929Y0078205D01*
X0471939Y0078280D01*
X0471944Y0078355D01*
X0471946Y0078430D01*
X0471946Y0080986D01*
X0471946Y0079964D02*
X0467857Y0079964D01*
X0467857Y0080986D01*
X0467858Y0080986D02*
X0467860Y0081075D01*
X0467866Y0081164D01*
X0467875Y0081253D01*
X0467889Y0081341D01*
X0467906Y0081428D01*
X0467928Y0081515D01*
X0467953Y0081601D01*
X0467981Y0081685D01*
X0468014Y0081768D01*
X0468050Y0081850D01*
X0468089Y0081930D01*
X0468132Y0082008D01*
X0468178Y0082084D01*
X0468228Y0082158D01*
X0468280Y0082230D01*
X0468336Y0082300D01*
X0468395Y0082367D01*
X0468457Y0082431D01*
X0468521Y0082493D01*
X0468588Y0082552D01*
X0468658Y0082608D01*
X0468730Y0082660D01*
X0468804Y0082710D01*
X0468880Y0082756D01*
X0468958Y0082799D01*
X0469038Y0082838D01*
X0469120Y0082874D01*
X0469203Y0082907D01*
X0469287Y0082935D01*
X0469373Y0082960D01*
X0469460Y0082982D01*
X0469547Y0082999D01*
X0469635Y0083013D01*
X0469724Y0083022D01*
X0469813Y0083028D01*
X0469902Y0083030D01*
X0469991Y0083028D01*
X0470080Y0083022D01*
X0470169Y0083013D01*
X0470257Y0082999D01*
X0470344Y0082982D01*
X0470431Y0082960D01*
X0470517Y0082935D01*
X0470601Y0082907D01*
X0470684Y0082874D01*
X0470766Y0082838D01*
X0470846Y0082799D01*
X0470924Y0082756D01*
X0471000Y0082710D01*
X0471074Y0082660D01*
X0471146Y0082608D01*
X0471216Y0082552D01*
X0471283Y0082493D01*
X0471347Y0082431D01*
X0471409Y0082367D01*
X0471468Y0082300D01*
X0471524Y0082230D01*
X0471576Y0082158D01*
X0471626Y0082084D01*
X0471672Y0082008D01*
X0471715Y0081930D01*
X0471754Y0081850D01*
X0471790Y0081768D01*
X0471823Y0081685D01*
X0471851Y0081601D01*
X0471876Y0081515D01*
X0471898Y0081428D01*
X0471915Y0081341D01*
X0471929Y0081253D01*
X0471938Y0081164D01*
X0471944Y0081075D01*
X0471946Y0080986D01*
X0475748Y0079452D02*
X0478303Y0080475D01*
X0478369Y0080503D01*
X0478434Y0080536D01*
X0478497Y0080571D01*
X0478557Y0080610D01*
X0478616Y0080652D01*
X0478672Y0080698D01*
X0478725Y0080746D01*
X0478776Y0080797D01*
X0478824Y0080851D01*
X0478869Y0080907D01*
X0478911Y0080966D01*
X0478949Y0081027D01*
X0478985Y0081090D01*
X0479016Y0081155D01*
X0479044Y0081221D01*
X0479069Y0081289D01*
X0479090Y0081358D01*
X0479107Y0081428D01*
X0479120Y0081499D01*
X0479129Y0081570D01*
X0479135Y0081642D01*
X0479136Y0081714D01*
X0479134Y0081786D01*
X0479127Y0081858D01*
X0479117Y0081929D01*
X0479103Y0082000D01*
X0479085Y0082070D01*
X0479063Y0082139D01*
X0479038Y0082206D01*
X0479009Y0082272D01*
X0478976Y0082336D01*
X0478940Y0082399D01*
X0478900Y0082459D01*
X0478858Y0082517D01*
X0478812Y0082573D01*
X0478763Y0082626D01*
X0478712Y0082677D01*
X0478658Y0082724D01*
X0478601Y0082769D01*
X0478542Y0082810D01*
X0478481Y0082848D01*
X0478418Y0082883D01*
X0478353Y0082914D01*
X0478286Y0082942D01*
X0478218Y0082966D01*
X0478149Y0082986D01*
X0478079Y0083003D01*
X0478008Y0083015D01*
X0477936Y0083024D01*
X0477864Y0083029D01*
X0477792Y0083030D01*
X0479070Y0077408D02*
X0478876Y0077341D01*
X0478681Y0077278D01*
X0478484Y0077220D01*
X0478286Y0077167D01*
X0478087Y0077119D01*
X0477887Y0077075D01*
X0477686Y0077036D01*
X0477483Y0077002D01*
X0477281Y0076972D01*
X0477077Y0076947D01*
X0476873Y0076927D01*
X0476668Y0076912D01*
X0476464Y0076902D01*
X0476259Y0076897D01*
X0476187Y0076898D01*
X0476115Y0076903D01*
X0476043Y0076912D01*
X0475972Y0076924D01*
X0475902Y0076941D01*
X0475833Y0076961D01*
X0475765Y0076985D01*
X0475698Y0077013D01*
X0475633Y0077044D01*
X0475570Y0077079D01*
X0475509Y0077117D01*
X0475450Y0077158D01*
X0475393Y0077203D01*
X0475339Y0077250D01*
X0475288Y0077301D01*
X0475239Y0077354D01*
X0475193Y0077410D01*
X0475151Y0077468D01*
X0475111Y0077528D01*
X0475075Y0077591D01*
X0475042Y0077655D01*
X0475013Y0077721D01*
X0474988Y0077788D01*
X0474966Y0077857D01*
X0474948Y0077927D01*
X0474934Y0077998D01*
X0474924Y0078069D01*
X0474917Y0078141D01*
X0474915Y0078213D01*
X0474916Y0078285D01*
X0474922Y0078357D01*
X0474931Y0078428D01*
X0474944Y0078499D01*
X0474961Y0078569D01*
X0474982Y0078638D01*
X0475007Y0078706D01*
X0475035Y0078772D01*
X0475066Y0078837D01*
X0475102Y0078900D01*
X0475140Y0078961D01*
X0475182Y0079020D01*
X0475227Y0079076D01*
X0475275Y0079130D01*
X0475326Y0079181D01*
X0475379Y0079229D01*
X0475435Y0079275D01*
X0475494Y0079317D01*
X0475554Y0079356D01*
X0475617Y0079391D01*
X0475682Y0079424D01*
X0475748Y0079452D01*
X0475492Y0082519D02*
X0475628Y0082578D01*
X0475766Y0082634D01*
X0475904Y0082686D01*
X0476045Y0082735D01*
X0476186Y0082780D01*
X0476328Y0082821D01*
X0476472Y0082859D01*
X0476616Y0082893D01*
X0476761Y0082923D01*
X0476907Y0082950D01*
X0477053Y0082973D01*
X0477201Y0082992D01*
X0477348Y0083007D01*
X0477496Y0083019D01*
X0477644Y0083026D01*
X0477792Y0083030D01*
X0483383Y0076897D02*
X0483588Y0076902D01*
X0483792Y0076912D01*
X0483997Y0076927D01*
X0484201Y0076947D01*
X0484405Y0076972D01*
X0484607Y0077002D01*
X0484810Y0077036D01*
X0485011Y0077075D01*
X0485211Y0077119D01*
X0485410Y0077167D01*
X0485608Y0077220D01*
X0485805Y0077278D01*
X0486000Y0077341D01*
X0486194Y0077408D01*
X0484916Y0083030D02*
X0484768Y0083026D01*
X0484620Y0083019D01*
X0484472Y0083007D01*
X0484325Y0082992D01*
X0484177Y0082973D01*
X0484031Y0082950D01*
X0483885Y0082923D01*
X0483740Y0082893D01*
X0483596Y0082859D01*
X0483452Y0082821D01*
X0483310Y0082780D01*
X0483169Y0082735D01*
X0483028Y0082686D01*
X0482890Y0082634D01*
X0482752Y0082578D01*
X0482616Y0082519D01*
X0484916Y0083030D02*
X0484988Y0083029D01*
X0485060Y0083024D01*
X0485132Y0083015D01*
X0485203Y0083003D01*
X0485273Y0082986D01*
X0485342Y0082966D01*
X0485410Y0082942D01*
X0485477Y0082914D01*
X0485542Y0082883D01*
X0485605Y0082848D01*
X0485666Y0082810D01*
X0485725Y0082769D01*
X0485782Y0082724D01*
X0485836Y0082677D01*
X0485887Y0082626D01*
X0485936Y0082573D01*
X0485982Y0082517D01*
X0486024Y0082459D01*
X0486064Y0082399D01*
X0486100Y0082336D01*
X0486133Y0082272D01*
X0486162Y0082206D01*
X0486187Y0082139D01*
X0486209Y0082070D01*
X0486227Y0082000D01*
X0486241Y0081929D01*
X0486251Y0081858D01*
X0486258Y0081786D01*
X0486260Y0081714D01*
X0486259Y0081642D01*
X0486253Y0081570D01*
X0486244Y0081499D01*
X0486231Y0081428D01*
X0486214Y0081358D01*
X0486193Y0081289D01*
X0486168Y0081221D01*
X0486140Y0081155D01*
X0486109Y0081090D01*
X0486073Y0081027D01*
X0486035Y0080966D01*
X0485993Y0080907D01*
X0485948Y0080851D01*
X0485900Y0080797D01*
X0485849Y0080746D01*
X0485796Y0080698D01*
X0485740Y0080652D01*
X0485681Y0080610D01*
X0485621Y0080571D01*
X0485558Y0080536D01*
X0485493Y0080503D01*
X0485427Y0080475D01*
X0482872Y0079452D01*
X0482806Y0079424D01*
X0482741Y0079391D01*
X0482678Y0079356D01*
X0482618Y0079317D01*
X0482559Y0079275D01*
X0482503Y0079229D01*
X0482450Y0079181D01*
X0482399Y0079130D01*
X0482351Y0079076D01*
X0482306Y0079020D01*
X0482264Y0078961D01*
X0482226Y0078900D01*
X0482190Y0078837D01*
X0482159Y0078772D01*
X0482131Y0078706D01*
X0482106Y0078638D01*
X0482085Y0078569D01*
X0482068Y0078499D01*
X0482055Y0078428D01*
X0482046Y0078357D01*
X0482040Y0078285D01*
X0482039Y0078213D01*
X0482041Y0078141D01*
X0482048Y0078069D01*
X0482058Y0077998D01*
X0482072Y0077927D01*
X0482090Y0077857D01*
X0482112Y0077788D01*
X0482137Y0077721D01*
X0482166Y0077655D01*
X0482199Y0077591D01*
X0482235Y0077528D01*
X0482275Y0077468D01*
X0482317Y0077410D01*
X0482363Y0077354D01*
X0482412Y0077301D01*
X0482463Y0077250D01*
X0482517Y0077203D01*
X0482574Y0077158D01*
X0482633Y0077117D01*
X0482694Y0077079D01*
X0482757Y0077044D01*
X0482822Y0077013D01*
X0482889Y0076985D01*
X0482957Y0076961D01*
X0483026Y0076941D01*
X0483096Y0076924D01*
X0483167Y0076912D01*
X0483239Y0076903D01*
X0483311Y0076898D01*
X0483383Y0076897D01*
X0489229Y0076897D02*
X0491785Y0076897D01*
X0491860Y0076899D01*
X0491935Y0076904D01*
X0492010Y0076914D01*
X0492084Y0076926D01*
X0492157Y0076943D01*
X0492230Y0076963D01*
X0492301Y0076987D01*
X0492372Y0077014D01*
X0492440Y0077044D01*
X0492508Y0077078D01*
X0492573Y0077115D01*
X0492637Y0077155D01*
X0492698Y0077199D01*
X0492758Y0077245D01*
X0492815Y0077294D01*
X0492869Y0077346D01*
X0492921Y0077401D01*
X0492970Y0077457D01*
X0493016Y0077517D01*
X0493060Y0077578D01*
X0493100Y0077642D01*
X0493137Y0077707D01*
X0493171Y0077775D01*
X0493201Y0077843D01*
X0493228Y0077914D01*
X0493252Y0077985D01*
X0493272Y0078058D01*
X0493289Y0078131D01*
X0493301Y0078205D01*
X0493311Y0078280D01*
X0493316Y0078355D01*
X0493318Y0078430D01*
X0493318Y0080986D01*
X0493318Y0079964D02*
X0489229Y0079964D01*
X0489229Y0080986D01*
X0489230Y0080986D02*
X0489232Y0081075D01*
X0489238Y0081164D01*
X0489247Y0081253D01*
X0489261Y0081341D01*
X0489278Y0081428D01*
X0489300Y0081515D01*
X0489325Y0081601D01*
X0489353Y0081685D01*
X0489386Y0081768D01*
X0489422Y0081850D01*
X0489461Y0081930D01*
X0489504Y0082008D01*
X0489550Y0082084D01*
X0489600Y0082158D01*
X0489652Y0082230D01*
X0489708Y0082300D01*
X0489767Y0082367D01*
X0489829Y0082431D01*
X0489893Y0082493D01*
X0489960Y0082552D01*
X0490030Y0082608D01*
X0490102Y0082660D01*
X0490176Y0082710D01*
X0490252Y0082756D01*
X0490330Y0082799D01*
X0490410Y0082838D01*
X0490492Y0082874D01*
X0490575Y0082907D01*
X0490659Y0082935D01*
X0490745Y0082960D01*
X0490832Y0082982D01*
X0490919Y0082999D01*
X0491007Y0083013D01*
X0491096Y0083022D01*
X0491185Y0083028D01*
X0491274Y0083030D01*
X0491363Y0083028D01*
X0491452Y0083022D01*
X0491541Y0083013D01*
X0491629Y0082999D01*
X0491716Y0082982D01*
X0491803Y0082960D01*
X0491889Y0082935D01*
X0491973Y0082907D01*
X0492056Y0082874D01*
X0492138Y0082838D01*
X0492218Y0082799D01*
X0492296Y0082756D01*
X0492372Y0082710D01*
X0492446Y0082660D01*
X0492518Y0082608D01*
X0492588Y0082552D01*
X0492655Y0082493D01*
X0492719Y0082431D01*
X0492781Y0082367D01*
X0492840Y0082300D01*
X0492896Y0082230D01*
X0492948Y0082158D01*
X0492998Y0082084D01*
X0493044Y0082008D01*
X0493087Y0081930D01*
X0493126Y0081850D01*
X0493162Y0081768D01*
X0493195Y0081685D01*
X0493223Y0081601D01*
X0493248Y0081515D01*
X0493270Y0081428D01*
X0493287Y0081341D01*
X0493301Y0081253D01*
X0493310Y0081164D01*
X0493316Y0081075D01*
X0493318Y0080986D01*
X0496652Y0078941D02*
X0496652Y0086097D01*
X0496653Y0078941D02*
X0496655Y0078852D01*
X0496661Y0078763D01*
X0496670Y0078674D01*
X0496684Y0078586D01*
X0496701Y0078499D01*
X0496723Y0078412D01*
X0496748Y0078326D01*
X0496776Y0078242D01*
X0496809Y0078159D01*
X0496845Y0078077D01*
X0496884Y0077997D01*
X0496927Y0077919D01*
X0496973Y0077843D01*
X0497023Y0077769D01*
X0497075Y0077697D01*
X0497131Y0077627D01*
X0497190Y0077560D01*
X0497252Y0077496D01*
X0497316Y0077434D01*
X0497383Y0077375D01*
X0497453Y0077319D01*
X0497525Y0077267D01*
X0497599Y0077217D01*
X0497675Y0077171D01*
X0497753Y0077128D01*
X0497833Y0077089D01*
X0497915Y0077053D01*
X0497998Y0077020D01*
X0498082Y0076992D01*
X0498168Y0076967D01*
X0498255Y0076945D01*
X0498342Y0076928D01*
X0498430Y0076914D01*
X0498519Y0076905D01*
X0498608Y0076899D01*
X0498697Y0076897D01*
X0499719Y0076897D01*
D11*
X0293585Y0092892D02*
X0290118Y0092892D01*
X0291851Y0100959D02*
X0291851Y0104426D01*
X0290118Y0102692D02*
X0293585Y0102692D01*
D12*
X0523891Y0179796D02*
X0525124Y0182058D01*
X0525946Y0181235D02*
X0523891Y0183496D01*
X0525946Y0183496D02*
X0525946Y0179796D01*
X0527467Y0179796D02*
X0529111Y0179796D01*
X0529111Y0183496D01*
X0530604Y0183496D02*
X0531426Y0183496D01*
X0531482Y0183494D01*
X0531538Y0183488D01*
X0531593Y0183479D01*
X0531648Y0183466D01*
X0531701Y0183449D01*
X0531753Y0183428D01*
X0531804Y0183404D01*
X0531853Y0183376D01*
X0531900Y0183346D01*
X0531945Y0183312D01*
X0531987Y0183275D01*
X0532027Y0183235D01*
X0532064Y0183193D01*
X0532098Y0183148D01*
X0532128Y0183101D01*
X0532156Y0183052D01*
X0532180Y0183001D01*
X0532201Y0182949D01*
X0532218Y0182896D01*
X0532231Y0182841D01*
X0532240Y0182786D01*
X0532246Y0182730D01*
X0532248Y0182674D01*
X0532248Y0180619D01*
X0532246Y0180563D01*
X0532240Y0180507D01*
X0532231Y0180452D01*
X0532218Y0180397D01*
X0532201Y0180344D01*
X0532180Y0180292D01*
X0532156Y0180241D01*
X0532128Y0180192D01*
X0532098Y0180145D01*
X0532064Y0180100D01*
X0532027Y0180058D01*
X0531987Y0180018D01*
X0531945Y0179981D01*
X0531900Y0179947D01*
X0531853Y0179917D01*
X0531804Y0179889D01*
X0531753Y0179865D01*
X0531701Y0179844D01*
X0531648Y0179827D01*
X0531593Y0179814D01*
X0531538Y0179805D01*
X0531482Y0179799D01*
X0531426Y0179797D01*
X0531426Y0179796D02*
X0530604Y0179796D01*
X0530799Y0189796D02*
X0531826Y0189796D01*
X0531826Y0193496D01*
X0530799Y0193496D01*
X0530799Y0193497D02*
X0530737Y0193495D01*
X0530675Y0193490D01*
X0530614Y0193480D01*
X0530553Y0193467D01*
X0530493Y0193450D01*
X0530434Y0193430D01*
X0530377Y0193406D01*
X0530321Y0193379D01*
X0530267Y0193349D01*
X0530215Y0193315D01*
X0530165Y0193278D01*
X0530117Y0193238D01*
X0530072Y0193196D01*
X0530030Y0193151D01*
X0529990Y0193103D01*
X0529953Y0193053D01*
X0529919Y0193001D01*
X0529889Y0192947D01*
X0529862Y0192891D01*
X0529838Y0192834D01*
X0529818Y0192775D01*
X0529801Y0192715D01*
X0529788Y0192654D01*
X0529778Y0192593D01*
X0529773Y0192531D01*
X0529771Y0192469D01*
X0529771Y0190824D01*
X0529773Y0190762D01*
X0529778Y0190700D01*
X0529788Y0190639D01*
X0529801Y0190578D01*
X0529818Y0190518D01*
X0529838Y0190459D01*
X0529862Y0190402D01*
X0529889Y0190346D01*
X0529919Y0190292D01*
X0529953Y0190240D01*
X0529990Y0190190D01*
X0530030Y0190142D01*
X0530072Y0190097D01*
X0530117Y0190055D01*
X0530165Y0190015D01*
X0530215Y0189978D01*
X0530267Y0189944D01*
X0530321Y0189914D01*
X0530377Y0189887D01*
X0530434Y0189863D01*
X0530493Y0189843D01*
X0530553Y0189826D01*
X0530614Y0189813D01*
X0530675Y0189803D01*
X0530737Y0189798D01*
X0530799Y0189796D01*
X0528210Y0189796D02*
X0527388Y0189796D01*
X0527799Y0189796D02*
X0527799Y0193496D01*
X0528210Y0193496D02*
X0527388Y0193496D01*
X0525946Y0192469D02*
X0525946Y0190824D01*
X0525947Y0190824D02*
X0525945Y0190761D01*
X0525939Y0190698D01*
X0525929Y0190635D01*
X0525916Y0190573D01*
X0525899Y0190512D01*
X0525878Y0190453D01*
X0525853Y0190394D01*
X0525825Y0190338D01*
X0525793Y0190283D01*
X0525758Y0190230D01*
X0525720Y0190180D01*
X0525679Y0190131D01*
X0525635Y0190086D01*
X0525588Y0190043D01*
X0525539Y0190004D01*
X0525487Y0189967D01*
X0525433Y0189934D01*
X0525377Y0189904D01*
X0525320Y0189877D01*
X0525261Y0189854D01*
X0525200Y0189835D01*
X0525139Y0189820D01*
X0525077Y0189808D01*
X0525014Y0189800D01*
X0524951Y0189796D01*
X0524887Y0189796D01*
X0524824Y0189800D01*
X0524761Y0189808D01*
X0524699Y0189820D01*
X0524638Y0189835D01*
X0524577Y0189854D01*
X0524518Y0189877D01*
X0524461Y0189904D01*
X0524405Y0189934D01*
X0524351Y0189967D01*
X0524299Y0190004D01*
X0524250Y0190043D01*
X0524203Y0190086D01*
X0524159Y0190131D01*
X0524118Y0190180D01*
X0524080Y0190230D01*
X0524045Y0190283D01*
X0524013Y0190338D01*
X0523985Y0190394D01*
X0523960Y0190453D01*
X0523939Y0190512D01*
X0523922Y0190573D01*
X0523909Y0190635D01*
X0523899Y0190698D01*
X0523893Y0190761D01*
X0523891Y0190824D01*
X0523891Y0192469D01*
X0523893Y0192532D01*
X0523899Y0192595D01*
X0523909Y0192658D01*
X0523922Y0192720D01*
X0523939Y0192781D01*
X0523960Y0192840D01*
X0523985Y0192899D01*
X0524013Y0192955D01*
X0524045Y0193010D01*
X0524080Y0193063D01*
X0524118Y0193113D01*
X0524159Y0193162D01*
X0524203Y0193207D01*
X0524250Y0193250D01*
X0524299Y0193289D01*
X0524351Y0193326D01*
X0524405Y0193359D01*
X0524461Y0193389D01*
X0524518Y0193416D01*
X0524577Y0193439D01*
X0524638Y0193458D01*
X0524699Y0193473D01*
X0524761Y0193485D01*
X0524824Y0193493D01*
X0524887Y0193497D01*
X0524951Y0193497D01*
X0525014Y0193493D01*
X0525077Y0193485D01*
X0525139Y0193473D01*
X0525200Y0193458D01*
X0525261Y0193439D01*
X0525320Y0193416D01*
X0525377Y0193389D01*
X0525433Y0193359D01*
X0525487Y0193326D01*
X0525539Y0193289D01*
X0525588Y0193250D01*
X0525635Y0193207D01*
X0525679Y0193162D01*
X0525720Y0193113D01*
X0525758Y0193063D01*
X0525793Y0193010D01*
X0525825Y0192955D01*
X0525853Y0192899D01*
X0525878Y0192840D01*
X0525899Y0192781D01*
X0525916Y0192720D01*
X0525929Y0192658D01*
X0525939Y0192595D01*
X0525945Y0192532D01*
X0525947Y0192469D01*
X0525946Y0199796D02*
X0524919Y0199796D01*
X0525946Y0199796D02*
X0525946Y0203496D01*
X0524919Y0203496D01*
X0524919Y0203497D02*
X0524857Y0203495D01*
X0524795Y0203490D01*
X0524734Y0203480D01*
X0524673Y0203467D01*
X0524613Y0203450D01*
X0524554Y0203430D01*
X0524497Y0203406D01*
X0524441Y0203379D01*
X0524387Y0203349D01*
X0524335Y0203315D01*
X0524285Y0203278D01*
X0524237Y0203238D01*
X0524192Y0203196D01*
X0524150Y0203151D01*
X0524110Y0203103D01*
X0524073Y0203053D01*
X0524039Y0203001D01*
X0524009Y0202947D01*
X0523982Y0202891D01*
X0523958Y0202834D01*
X0523938Y0202775D01*
X0523921Y0202715D01*
X0523908Y0202654D01*
X0523898Y0202593D01*
X0523893Y0202531D01*
X0523891Y0202469D01*
X0523891Y0200824D01*
X0523893Y0200762D01*
X0523898Y0200700D01*
X0523908Y0200639D01*
X0523921Y0200578D01*
X0523938Y0200518D01*
X0523958Y0200459D01*
X0523982Y0200402D01*
X0524009Y0200346D01*
X0524039Y0200292D01*
X0524073Y0200240D01*
X0524110Y0200190D01*
X0524150Y0200142D01*
X0524192Y0200097D01*
X0524237Y0200055D01*
X0524285Y0200015D01*
X0524335Y0199978D01*
X0524387Y0199944D01*
X0524441Y0199914D01*
X0524497Y0199887D01*
X0524554Y0199863D01*
X0524613Y0199843D01*
X0524673Y0199826D01*
X0524734Y0199813D01*
X0524795Y0199803D01*
X0524857Y0199798D01*
X0524919Y0199796D01*
X0527731Y0199796D02*
X0527731Y0203496D01*
X0529786Y0203496D02*
X0527731Y0199796D01*
X0529786Y0199796D02*
X0529786Y0203496D01*
X0531571Y0203496D02*
X0532804Y0203496D01*
X0532860Y0203494D01*
X0532916Y0203488D01*
X0532971Y0203479D01*
X0533026Y0203466D01*
X0533079Y0203449D01*
X0533131Y0203428D01*
X0533182Y0203404D01*
X0533231Y0203376D01*
X0533278Y0203346D01*
X0533323Y0203312D01*
X0533365Y0203275D01*
X0533405Y0203235D01*
X0533442Y0203193D01*
X0533476Y0203148D01*
X0533506Y0203101D01*
X0533534Y0203052D01*
X0533558Y0203001D01*
X0533579Y0202949D01*
X0533596Y0202896D01*
X0533609Y0202841D01*
X0533618Y0202786D01*
X0533624Y0202730D01*
X0533626Y0202674D01*
X0533626Y0200619D01*
X0533624Y0200563D01*
X0533618Y0200507D01*
X0533609Y0200452D01*
X0533596Y0200397D01*
X0533579Y0200344D01*
X0533558Y0200292D01*
X0533534Y0200241D01*
X0533506Y0200192D01*
X0533476Y0200145D01*
X0533442Y0200100D01*
X0533405Y0200058D01*
X0533365Y0200018D01*
X0533323Y0199981D01*
X0533278Y0199947D01*
X0533231Y0199917D01*
X0533182Y0199889D01*
X0533131Y0199865D01*
X0533079Y0199844D01*
X0533026Y0199827D01*
X0532971Y0199814D01*
X0532916Y0199805D01*
X0532860Y0199799D01*
X0532804Y0199797D01*
X0532804Y0199796D02*
X0531571Y0199796D01*
X0531571Y0201852D01*
X0532188Y0201852D01*
X0532359Y0209796D02*
X0533592Y0209796D01*
X0532359Y0209797D02*
X0532303Y0209799D01*
X0532247Y0209805D01*
X0532192Y0209814D01*
X0532137Y0209827D01*
X0532084Y0209844D01*
X0532032Y0209865D01*
X0531981Y0209889D01*
X0531932Y0209917D01*
X0531885Y0209947D01*
X0531840Y0209981D01*
X0531798Y0210018D01*
X0531758Y0210058D01*
X0531721Y0210100D01*
X0531687Y0210145D01*
X0531657Y0210192D01*
X0531629Y0210241D01*
X0531605Y0210292D01*
X0531584Y0210344D01*
X0531567Y0210397D01*
X0531554Y0210452D01*
X0531545Y0210507D01*
X0531539Y0210563D01*
X0531537Y0210619D01*
X0531536Y0210619D02*
X0531536Y0211030D01*
X0531537Y0211030D02*
X0531539Y0211086D01*
X0531545Y0211142D01*
X0531554Y0211197D01*
X0531567Y0211252D01*
X0531584Y0211305D01*
X0531605Y0211357D01*
X0531629Y0211408D01*
X0531657Y0211457D01*
X0531687Y0211504D01*
X0531721Y0211549D01*
X0531758Y0211591D01*
X0531798Y0211631D01*
X0531840Y0211668D01*
X0531885Y0211702D01*
X0531932Y0211732D01*
X0531981Y0211760D01*
X0532032Y0211784D01*
X0532084Y0211805D01*
X0532137Y0211822D01*
X0532192Y0211835D01*
X0532247Y0211844D01*
X0532303Y0211850D01*
X0532359Y0211852D01*
X0533592Y0211852D01*
X0533592Y0213496D01*
X0531536Y0213496D01*
X0530198Y0213496D02*
X0528964Y0209796D01*
X0527731Y0213496D01*
X0526358Y0211235D02*
X0523891Y0211235D01*
X0525124Y0210002D02*
X0525124Y0212469D01*
D13*
X0099734Y0132181D02*
X0099734Y0079081D01*
X0099736Y0079021D01*
X0099741Y0078960D01*
X0099750Y0078901D01*
X0099763Y0078842D01*
X0099779Y0078783D01*
X0099799Y0078726D01*
X0099822Y0078671D01*
X0099849Y0078616D01*
X0099878Y0078564D01*
X0099911Y0078513D01*
X0099947Y0078464D01*
X0099985Y0078418D01*
X0100027Y0078374D01*
X0100071Y0078332D01*
X0100117Y0078294D01*
X0100166Y0078258D01*
X0100217Y0078225D01*
X0100269Y0078196D01*
X0100324Y0078169D01*
X0100379Y0078146D01*
X0100436Y0078126D01*
X0100495Y0078110D01*
X0100554Y0078097D01*
X0100613Y0078088D01*
X0100674Y0078083D01*
X0100734Y0078081D01*
X0153834Y0078081D01*
X0153894Y0078083D01*
X0153955Y0078088D01*
X0154014Y0078097D01*
X0154073Y0078110D01*
X0154132Y0078126D01*
X0154189Y0078146D01*
X0154244Y0078169D01*
X0154299Y0078196D01*
X0154351Y0078225D01*
X0154402Y0078258D01*
X0154451Y0078294D01*
X0154497Y0078332D01*
X0154541Y0078374D01*
X0154583Y0078418D01*
X0154621Y0078464D01*
X0154657Y0078513D01*
X0154690Y0078564D01*
X0154719Y0078616D01*
X0154746Y0078671D01*
X0154769Y0078726D01*
X0154789Y0078783D01*
X0154805Y0078842D01*
X0154818Y0078901D01*
X0154827Y0078960D01*
X0154832Y0079021D01*
X0154834Y0079081D01*
X0154834Y0132181D01*
X0154832Y0132241D01*
X0154827Y0132302D01*
X0154818Y0132361D01*
X0154805Y0132420D01*
X0154789Y0132479D01*
X0154769Y0132536D01*
X0154746Y0132591D01*
X0154719Y0132646D01*
X0154690Y0132698D01*
X0154657Y0132749D01*
X0154621Y0132798D01*
X0154583Y0132844D01*
X0154541Y0132888D01*
X0154497Y0132930D01*
X0154451Y0132968D01*
X0154402Y0133004D01*
X0154351Y0133037D01*
X0154299Y0133066D01*
X0154244Y0133093D01*
X0154189Y0133116D01*
X0154132Y0133136D01*
X0154073Y0133152D01*
X0154014Y0133165D01*
X0153955Y0133174D01*
X0153894Y0133179D01*
X0153834Y0133181D01*
X0100734Y0133181D01*
X0100674Y0133179D01*
X0100613Y0133174D01*
X0100554Y0133165D01*
X0100495Y0133152D01*
X0100436Y0133136D01*
X0100379Y0133116D01*
X0100324Y0133093D01*
X0100269Y0133066D01*
X0100217Y0133037D01*
X0100166Y0133004D01*
X0100117Y0132968D01*
X0100071Y0132930D01*
X0100027Y0132888D01*
X0099985Y0132844D01*
X0099947Y0132798D01*
X0099911Y0132749D01*
X0099878Y0132698D01*
X0099849Y0132646D01*
X0099822Y0132591D01*
X0099799Y0132536D01*
X0099779Y0132479D01*
X0099763Y0132420D01*
X0099750Y0132361D01*
X0099741Y0132302D01*
X0099736Y0132241D01*
X0099734Y0132181D01*
X0100734Y0152884D02*
X0153834Y0152884D01*
X0153894Y0152886D01*
X0153955Y0152891D01*
X0154014Y0152900D01*
X0154073Y0152913D01*
X0154132Y0152929D01*
X0154189Y0152949D01*
X0154244Y0152972D01*
X0154299Y0152999D01*
X0154351Y0153028D01*
X0154402Y0153061D01*
X0154451Y0153097D01*
X0154497Y0153135D01*
X0154541Y0153177D01*
X0154583Y0153221D01*
X0154621Y0153267D01*
X0154657Y0153316D01*
X0154690Y0153367D01*
X0154719Y0153419D01*
X0154746Y0153474D01*
X0154769Y0153529D01*
X0154789Y0153586D01*
X0154805Y0153645D01*
X0154818Y0153704D01*
X0154827Y0153763D01*
X0154832Y0153824D01*
X0154834Y0153884D01*
X0154834Y0206984D01*
X0154832Y0207044D01*
X0154827Y0207105D01*
X0154818Y0207164D01*
X0154805Y0207223D01*
X0154789Y0207282D01*
X0154769Y0207339D01*
X0154746Y0207394D01*
X0154719Y0207449D01*
X0154690Y0207501D01*
X0154657Y0207552D01*
X0154621Y0207601D01*
X0154583Y0207647D01*
X0154541Y0207691D01*
X0154497Y0207733D01*
X0154451Y0207771D01*
X0154402Y0207807D01*
X0154351Y0207840D01*
X0154299Y0207869D01*
X0154244Y0207896D01*
X0154189Y0207919D01*
X0154132Y0207939D01*
X0154073Y0207955D01*
X0154014Y0207968D01*
X0153955Y0207977D01*
X0153894Y0207982D01*
X0153834Y0207984D01*
X0100734Y0207984D01*
X0100674Y0207982D01*
X0100613Y0207977D01*
X0100554Y0207968D01*
X0100495Y0207955D01*
X0100436Y0207939D01*
X0100379Y0207919D01*
X0100324Y0207896D01*
X0100269Y0207869D01*
X0100217Y0207840D01*
X0100166Y0207807D01*
X0100117Y0207771D01*
X0100071Y0207733D01*
X0100027Y0207691D01*
X0099985Y0207647D01*
X0099947Y0207601D01*
X0099911Y0207552D01*
X0099878Y0207501D01*
X0099849Y0207449D01*
X0099822Y0207394D01*
X0099799Y0207339D01*
X0099779Y0207282D01*
X0099763Y0207223D01*
X0099750Y0207164D01*
X0099741Y0207105D01*
X0099736Y0207044D01*
X0099734Y0206984D01*
X0099734Y0153884D01*
X0099736Y0153824D01*
X0099741Y0153763D01*
X0099750Y0153704D01*
X0099763Y0153645D01*
X0099779Y0153586D01*
X0099799Y0153529D01*
X0099822Y0153474D01*
X0099849Y0153419D01*
X0099878Y0153367D01*
X0099911Y0153316D01*
X0099947Y0153267D01*
X0099985Y0153221D01*
X0100027Y0153177D01*
X0100071Y0153135D01*
X0100117Y0153097D01*
X0100166Y0153061D01*
X0100217Y0153028D01*
X0100269Y0152999D01*
X0100324Y0152972D01*
X0100379Y0152949D01*
X0100436Y0152929D01*
X0100495Y0152913D01*
X0100554Y0152900D01*
X0100613Y0152891D01*
X0100674Y0152886D01*
X0100734Y0152884D01*
X0100734Y0261152D02*
X0153834Y0261152D01*
X0153894Y0261154D01*
X0153955Y0261159D01*
X0154014Y0261168D01*
X0154073Y0261181D01*
X0154132Y0261197D01*
X0154189Y0261217D01*
X0154244Y0261240D01*
X0154299Y0261267D01*
X0154351Y0261296D01*
X0154402Y0261329D01*
X0154451Y0261365D01*
X0154497Y0261403D01*
X0154541Y0261445D01*
X0154583Y0261489D01*
X0154621Y0261535D01*
X0154657Y0261584D01*
X0154690Y0261635D01*
X0154719Y0261687D01*
X0154746Y0261742D01*
X0154769Y0261797D01*
X0154789Y0261854D01*
X0154805Y0261913D01*
X0154818Y0261972D01*
X0154827Y0262031D01*
X0154832Y0262092D01*
X0154834Y0262152D01*
X0154834Y0315252D01*
X0154832Y0315312D01*
X0154827Y0315373D01*
X0154818Y0315432D01*
X0154805Y0315491D01*
X0154789Y0315550D01*
X0154769Y0315607D01*
X0154746Y0315662D01*
X0154719Y0315717D01*
X0154690Y0315769D01*
X0154657Y0315820D01*
X0154621Y0315869D01*
X0154583Y0315915D01*
X0154541Y0315959D01*
X0154497Y0316001D01*
X0154451Y0316039D01*
X0154402Y0316075D01*
X0154351Y0316108D01*
X0154299Y0316137D01*
X0154244Y0316164D01*
X0154189Y0316187D01*
X0154132Y0316207D01*
X0154073Y0316223D01*
X0154014Y0316236D01*
X0153955Y0316245D01*
X0153894Y0316250D01*
X0153834Y0316252D01*
X0100734Y0316252D01*
X0100674Y0316250D01*
X0100613Y0316245D01*
X0100554Y0316236D01*
X0100495Y0316223D01*
X0100436Y0316207D01*
X0100379Y0316187D01*
X0100324Y0316164D01*
X0100269Y0316137D01*
X0100217Y0316108D01*
X0100166Y0316075D01*
X0100117Y0316039D01*
X0100071Y0316001D01*
X0100027Y0315959D01*
X0099985Y0315915D01*
X0099947Y0315869D01*
X0099911Y0315820D01*
X0099878Y0315769D01*
X0099849Y0315717D01*
X0099822Y0315662D01*
X0099799Y0315607D01*
X0099779Y0315550D01*
X0099763Y0315491D01*
X0099750Y0315432D01*
X0099741Y0315373D01*
X0099736Y0315312D01*
X0099734Y0315252D01*
X0099734Y0262152D01*
X0099736Y0262092D01*
X0099741Y0262031D01*
X0099750Y0261972D01*
X0099763Y0261913D01*
X0099779Y0261854D01*
X0099799Y0261797D01*
X0099822Y0261742D01*
X0099849Y0261687D01*
X0099878Y0261635D01*
X0099911Y0261584D01*
X0099947Y0261535D01*
X0099985Y0261489D01*
X0100027Y0261445D01*
X0100071Y0261403D01*
X0100117Y0261365D01*
X0100166Y0261329D01*
X0100217Y0261296D01*
X0100269Y0261267D01*
X0100324Y0261240D01*
X0100379Y0261217D01*
X0100436Y0261197D01*
X0100495Y0261181D01*
X0100554Y0261168D01*
X0100613Y0261159D01*
X0100674Y0261154D01*
X0100734Y0261152D01*
X0100734Y0335955D02*
X0153834Y0335955D01*
X0153894Y0335957D01*
X0153955Y0335962D01*
X0154014Y0335971D01*
X0154073Y0335984D01*
X0154132Y0336000D01*
X0154189Y0336020D01*
X0154244Y0336043D01*
X0154299Y0336070D01*
X0154351Y0336099D01*
X0154402Y0336132D01*
X0154451Y0336168D01*
X0154497Y0336206D01*
X0154541Y0336248D01*
X0154583Y0336292D01*
X0154621Y0336338D01*
X0154657Y0336387D01*
X0154690Y0336438D01*
X0154719Y0336490D01*
X0154746Y0336545D01*
X0154769Y0336600D01*
X0154789Y0336657D01*
X0154805Y0336716D01*
X0154818Y0336775D01*
X0154827Y0336834D01*
X0154832Y0336895D01*
X0154834Y0336955D01*
X0154834Y0390055D01*
X0154832Y0390115D01*
X0154827Y0390176D01*
X0154818Y0390235D01*
X0154805Y0390294D01*
X0154789Y0390353D01*
X0154769Y0390410D01*
X0154746Y0390465D01*
X0154719Y0390520D01*
X0154690Y0390572D01*
X0154657Y0390623D01*
X0154621Y0390672D01*
X0154583Y0390718D01*
X0154541Y0390762D01*
X0154497Y0390804D01*
X0154451Y0390842D01*
X0154402Y0390878D01*
X0154351Y0390911D01*
X0154299Y0390940D01*
X0154244Y0390967D01*
X0154189Y0390990D01*
X0154132Y0391010D01*
X0154073Y0391026D01*
X0154014Y0391039D01*
X0153955Y0391048D01*
X0153894Y0391053D01*
X0153834Y0391055D01*
X0100734Y0391055D01*
X0100674Y0391053D01*
X0100613Y0391048D01*
X0100554Y0391039D01*
X0100495Y0391026D01*
X0100436Y0391010D01*
X0100379Y0390990D01*
X0100324Y0390967D01*
X0100269Y0390940D01*
X0100217Y0390911D01*
X0100166Y0390878D01*
X0100117Y0390842D01*
X0100071Y0390804D01*
X0100027Y0390762D01*
X0099985Y0390718D01*
X0099947Y0390672D01*
X0099911Y0390623D01*
X0099878Y0390572D01*
X0099849Y0390520D01*
X0099822Y0390465D01*
X0099799Y0390410D01*
X0099779Y0390353D01*
X0099763Y0390294D01*
X0099750Y0390235D01*
X0099741Y0390176D01*
X0099736Y0390115D01*
X0099734Y0390055D01*
X0099734Y0336955D01*
X0099736Y0336895D01*
X0099741Y0336834D01*
X0099750Y0336775D01*
X0099763Y0336716D01*
X0099779Y0336657D01*
X0099799Y0336600D01*
X0099822Y0336545D01*
X0099849Y0336490D01*
X0099878Y0336438D01*
X0099911Y0336387D01*
X0099947Y0336338D01*
X0099985Y0336292D01*
X0100027Y0336248D01*
X0100071Y0336206D01*
X0100117Y0336168D01*
X0100166Y0336132D01*
X0100217Y0336099D01*
X0100269Y0336070D01*
X0100324Y0336043D01*
X0100379Y0336020D01*
X0100436Y0336000D01*
X0100495Y0335984D01*
X0100554Y0335971D01*
X0100613Y0335962D01*
X0100674Y0335957D01*
X0100734Y0335955D01*
X0100734Y0410758D02*
X0153834Y0410758D01*
X0153894Y0410760D01*
X0153955Y0410765D01*
X0154014Y0410774D01*
X0154073Y0410787D01*
X0154132Y0410803D01*
X0154189Y0410823D01*
X0154244Y0410846D01*
X0154299Y0410873D01*
X0154351Y0410902D01*
X0154402Y0410935D01*
X0154451Y0410971D01*
X0154497Y0411009D01*
X0154541Y0411051D01*
X0154583Y0411095D01*
X0154621Y0411141D01*
X0154657Y0411190D01*
X0154690Y0411241D01*
X0154719Y0411293D01*
X0154746Y0411348D01*
X0154769Y0411403D01*
X0154789Y0411460D01*
X0154805Y0411519D01*
X0154818Y0411578D01*
X0154827Y0411637D01*
X0154832Y0411698D01*
X0154834Y0411758D01*
X0154834Y0464858D01*
X0154832Y0464918D01*
X0154827Y0464979D01*
X0154818Y0465038D01*
X0154805Y0465097D01*
X0154789Y0465156D01*
X0154769Y0465213D01*
X0154746Y0465268D01*
X0154719Y0465323D01*
X0154690Y0465375D01*
X0154657Y0465426D01*
X0154621Y0465475D01*
X0154583Y0465521D01*
X0154541Y0465565D01*
X0154497Y0465607D01*
X0154451Y0465645D01*
X0154402Y0465681D01*
X0154351Y0465714D01*
X0154299Y0465743D01*
X0154244Y0465770D01*
X0154189Y0465793D01*
X0154132Y0465813D01*
X0154073Y0465829D01*
X0154014Y0465842D01*
X0153955Y0465851D01*
X0153894Y0465856D01*
X0153834Y0465858D01*
X0100734Y0465858D01*
X0100674Y0465856D01*
X0100613Y0465851D01*
X0100554Y0465842D01*
X0100495Y0465829D01*
X0100436Y0465813D01*
X0100379Y0465793D01*
X0100324Y0465770D01*
X0100269Y0465743D01*
X0100217Y0465714D01*
X0100166Y0465681D01*
X0100117Y0465645D01*
X0100071Y0465607D01*
X0100027Y0465565D01*
X0099985Y0465521D01*
X0099947Y0465475D01*
X0099911Y0465426D01*
X0099878Y0465375D01*
X0099849Y0465323D01*
X0099822Y0465268D01*
X0099799Y0465213D01*
X0099779Y0465156D01*
X0099763Y0465097D01*
X0099750Y0465038D01*
X0099741Y0464979D01*
X0099736Y0464918D01*
X0099734Y0464858D01*
X0099734Y0411758D01*
X0099736Y0411698D01*
X0099741Y0411637D01*
X0099750Y0411578D01*
X0099763Y0411519D01*
X0099779Y0411460D01*
X0099799Y0411403D01*
X0099822Y0411348D01*
X0099849Y0411293D01*
X0099878Y0411241D01*
X0099911Y0411190D01*
X0099947Y0411141D01*
X0099985Y0411095D01*
X0100027Y0411051D01*
X0100071Y0411009D01*
X0100117Y0410971D01*
X0100166Y0410935D01*
X0100217Y0410902D01*
X0100269Y0410873D01*
X0100324Y0410846D01*
X0100379Y0410823D01*
X0100436Y0410803D01*
X0100495Y0410787D01*
X0100554Y0410774D01*
X0100613Y0410765D01*
X0100674Y0410760D01*
X0100734Y0410758D01*
X0100734Y0485561D02*
X0153834Y0485561D01*
X0153894Y0485563D01*
X0153955Y0485568D01*
X0154014Y0485577D01*
X0154073Y0485590D01*
X0154132Y0485606D01*
X0154189Y0485626D01*
X0154244Y0485649D01*
X0154299Y0485676D01*
X0154351Y0485705D01*
X0154402Y0485738D01*
X0154451Y0485774D01*
X0154497Y0485812D01*
X0154541Y0485854D01*
X0154583Y0485898D01*
X0154621Y0485944D01*
X0154657Y0485993D01*
X0154690Y0486044D01*
X0154719Y0486096D01*
X0154746Y0486151D01*
X0154769Y0486206D01*
X0154789Y0486263D01*
X0154805Y0486322D01*
X0154818Y0486381D01*
X0154827Y0486440D01*
X0154832Y0486501D01*
X0154834Y0486561D01*
X0154834Y0539661D01*
X0154832Y0539721D01*
X0154827Y0539782D01*
X0154818Y0539841D01*
X0154805Y0539900D01*
X0154789Y0539959D01*
X0154769Y0540016D01*
X0154746Y0540071D01*
X0154719Y0540126D01*
X0154690Y0540178D01*
X0154657Y0540229D01*
X0154621Y0540278D01*
X0154583Y0540324D01*
X0154541Y0540368D01*
X0154497Y0540410D01*
X0154451Y0540448D01*
X0154402Y0540484D01*
X0154351Y0540517D01*
X0154299Y0540546D01*
X0154244Y0540573D01*
X0154189Y0540596D01*
X0154132Y0540616D01*
X0154073Y0540632D01*
X0154014Y0540645D01*
X0153955Y0540654D01*
X0153894Y0540659D01*
X0153834Y0540661D01*
X0100734Y0540661D01*
X0100674Y0540659D01*
X0100613Y0540654D01*
X0100554Y0540645D01*
X0100495Y0540632D01*
X0100436Y0540616D01*
X0100379Y0540596D01*
X0100324Y0540573D01*
X0100269Y0540546D01*
X0100217Y0540517D01*
X0100166Y0540484D01*
X0100117Y0540448D01*
X0100071Y0540410D01*
X0100027Y0540368D01*
X0099985Y0540324D01*
X0099947Y0540278D01*
X0099911Y0540229D01*
X0099878Y0540178D01*
X0099849Y0540126D01*
X0099822Y0540071D01*
X0099799Y0540016D01*
X0099779Y0539959D01*
X0099763Y0539900D01*
X0099750Y0539841D01*
X0099741Y0539782D01*
X0099736Y0539721D01*
X0099734Y0539661D01*
X0099734Y0486561D01*
X0099736Y0486501D01*
X0099741Y0486440D01*
X0099750Y0486381D01*
X0099763Y0486322D01*
X0099779Y0486263D01*
X0099799Y0486206D01*
X0099822Y0486151D01*
X0099849Y0486096D01*
X0099878Y0486044D01*
X0099911Y0485993D01*
X0099947Y0485944D01*
X0099985Y0485898D01*
X0100027Y0485854D01*
X0100071Y0485812D01*
X0100117Y0485774D01*
X0100166Y0485738D01*
X0100217Y0485705D01*
X0100269Y0485676D01*
X0100324Y0485649D01*
X0100379Y0485626D01*
X0100436Y0485606D01*
X0100495Y0485590D01*
X0100554Y0485577D01*
X0100613Y0485568D01*
X0100674Y0485563D01*
X0100734Y0485561D01*
X0174537Y0483559D02*
X0174537Y0430459D01*
X0174539Y0430399D01*
X0174544Y0430338D01*
X0174553Y0430279D01*
X0174566Y0430220D01*
X0174582Y0430161D01*
X0174602Y0430104D01*
X0174625Y0430049D01*
X0174652Y0429994D01*
X0174681Y0429942D01*
X0174714Y0429891D01*
X0174750Y0429842D01*
X0174788Y0429796D01*
X0174830Y0429752D01*
X0174874Y0429710D01*
X0174920Y0429672D01*
X0174969Y0429636D01*
X0175020Y0429603D01*
X0175072Y0429574D01*
X0175127Y0429547D01*
X0175182Y0429524D01*
X0175239Y0429504D01*
X0175298Y0429488D01*
X0175357Y0429475D01*
X0175416Y0429466D01*
X0175477Y0429461D01*
X0175537Y0429459D01*
X0228637Y0429459D01*
X0228697Y0429461D01*
X0228758Y0429466D01*
X0228817Y0429475D01*
X0228876Y0429488D01*
X0228935Y0429504D01*
X0228992Y0429524D01*
X0229047Y0429547D01*
X0229102Y0429574D01*
X0229154Y0429603D01*
X0229205Y0429636D01*
X0229254Y0429672D01*
X0229300Y0429710D01*
X0229344Y0429752D01*
X0229386Y0429796D01*
X0229424Y0429842D01*
X0229460Y0429891D01*
X0229493Y0429942D01*
X0229522Y0429994D01*
X0229549Y0430049D01*
X0229572Y0430104D01*
X0229592Y0430161D01*
X0229608Y0430220D01*
X0229621Y0430279D01*
X0229630Y0430338D01*
X0229635Y0430399D01*
X0229637Y0430459D01*
X0229637Y0483559D01*
X0229635Y0483619D01*
X0229630Y0483680D01*
X0229621Y0483739D01*
X0229608Y0483798D01*
X0229592Y0483857D01*
X0229572Y0483914D01*
X0229549Y0483969D01*
X0229522Y0484024D01*
X0229493Y0484076D01*
X0229460Y0484127D01*
X0229424Y0484176D01*
X0229386Y0484222D01*
X0229344Y0484266D01*
X0229300Y0484308D01*
X0229254Y0484346D01*
X0229205Y0484382D01*
X0229154Y0484415D01*
X0229102Y0484444D01*
X0229047Y0484471D01*
X0228992Y0484494D01*
X0228935Y0484514D01*
X0228876Y0484530D01*
X0228817Y0484543D01*
X0228758Y0484552D01*
X0228697Y0484557D01*
X0228637Y0484559D01*
X0175537Y0484559D01*
X0175477Y0484557D01*
X0175416Y0484552D01*
X0175357Y0484543D01*
X0175298Y0484530D01*
X0175239Y0484514D01*
X0175182Y0484494D01*
X0175127Y0484471D01*
X0175072Y0484444D01*
X0175020Y0484415D01*
X0174969Y0484382D01*
X0174920Y0484346D01*
X0174874Y0484308D01*
X0174830Y0484266D01*
X0174788Y0484222D01*
X0174750Y0484176D01*
X0174714Y0484127D01*
X0174681Y0484076D01*
X0174652Y0484024D01*
X0174625Y0483969D01*
X0174602Y0483914D01*
X0174582Y0483857D01*
X0174566Y0483798D01*
X0174553Y0483739D01*
X0174544Y0483680D01*
X0174539Y0483619D01*
X0174537Y0483559D01*
X0175537Y0504262D02*
X0228637Y0504262D01*
X0228697Y0504264D01*
X0228758Y0504269D01*
X0228817Y0504278D01*
X0228876Y0504291D01*
X0228935Y0504307D01*
X0228992Y0504327D01*
X0229047Y0504350D01*
X0229102Y0504377D01*
X0229154Y0504406D01*
X0229205Y0504439D01*
X0229254Y0504475D01*
X0229300Y0504513D01*
X0229344Y0504555D01*
X0229386Y0504599D01*
X0229424Y0504645D01*
X0229460Y0504694D01*
X0229493Y0504745D01*
X0229522Y0504797D01*
X0229549Y0504852D01*
X0229572Y0504907D01*
X0229592Y0504964D01*
X0229608Y0505023D01*
X0229621Y0505082D01*
X0229630Y0505141D01*
X0229635Y0505202D01*
X0229637Y0505262D01*
X0229637Y0558362D01*
X0229635Y0558422D01*
X0229630Y0558483D01*
X0229621Y0558542D01*
X0229608Y0558601D01*
X0229592Y0558660D01*
X0229572Y0558717D01*
X0229549Y0558772D01*
X0229522Y0558827D01*
X0229493Y0558879D01*
X0229460Y0558930D01*
X0229424Y0558979D01*
X0229386Y0559025D01*
X0229344Y0559069D01*
X0229300Y0559111D01*
X0229254Y0559149D01*
X0229205Y0559185D01*
X0229154Y0559218D01*
X0229102Y0559247D01*
X0229047Y0559274D01*
X0228992Y0559297D01*
X0228935Y0559317D01*
X0228876Y0559333D01*
X0228817Y0559346D01*
X0228758Y0559355D01*
X0228697Y0559360D01*
X0228637Y0559362D01*
X0175537Y0559362D01*
X0175477Y0559360D01*
X0175416Y0559355D01*
X0175357Y0559346D01*
X0175298Y0559333D01*
X0175239Y0559317D01*
X0175182Y0559297D01*
X0175127Y0559274D01*
X0175072Y0559247D01*
X0175020Y0559218D01*
X0174969Y0559185D01*
X0174920Y0559149D01*
X0174874Y0559111D01*
X0174830Y0559069D01*
X0174788Y0559025D01*
X0174750Y0558979D01*
X0174714Y0558930D01*
X0174681Y0558879D01*
X0174652Y0558827D01*
X0174625Y0558772D01*
X0174602Y0558717D01*
X0174582Y0558660D01*
X0174566Y0558601D01*
X0174553Y0558542D01*
X0174544Y0558483D01*
X0174539Y0558422D01*
X0174537Y0558362D01*
X0174537Y0505262D01*
X0174539Y0505202D01*
X0174544Y0505141D01*
X0174553Y0505082D01*
X0174566Y0505023D01*
X0174582Y0504964D01*
X0174602Y0504907D01*
X0174625Y0504852D01*
X0174652Y0504797D01*
X0174681Y0504745D01*
X0174714Y0504694D01*
X0174750Y0504645D01*
X0174788Y0504599D01*
X0174830Y0504555D01*
X0174874Y0504513D01*
X0174920Y0504475D01*
X0174969Y0504439D01*
X0175020Y0504406D01*
X0175072Y0504377D01*
X0175127Y0504350D01*
X0175182Y0504327D01*
X0175239Y0504307D01*
X0175298Y0504291D01*
X0175357Y0504278D01*
X0175416Y0504269D01*
X0175477Y0504264D01*
X0175537Y0504262D01*
X0249341Y0502259D02*
X0249341Y0449159D01*
X0249343Y0449099D01*
X0249348Y0449038D01*
X0249357Y0448979D01*
X0249370Y0448920D01*
X0249386Y0448861D01*
X0249406Y0448804D01*
X0249429Y0448749D01*
X0249456Y0448694D01*
X0249485Y0448642D01*
X0249518Y0448591D01*
X0249554Y0448542D01*
X0249592Y0448496D01*
X0249634Y0448452D01*
X0249678Y0448410D01*
X0249724Y0448372D01*
X0249773Y0448336D01*
X0249824Y0448303D01*
X0249876Y0448274D01*
X0249931Y0448247D01*
X0249986Y0448224D01*
X0250043Y0448204D01*
X0250102Y0448188D01*
X0250161Y0448175D01*
X0250220Y0448166D01*
X0250281Y0448161D01*
X0250341Y0448159D01*
X0303441Y0448159D01*
X0303501Y0448161D01*
X0303562Y0448166D01*
X0303621Y0448175D01*
X0303680Y0448188D01*
X0303739Y0448204D01*
X0303796Y0448224D01*
X0303851Y0448247D01*
X0303906Y0448274D01*
X0303958Y0448303D01*
X0304009Y0448336D01*
X0304058Y0448372D01*
X0304104Y0448410D01*
X0304148Y0448452D01*
X0304190Y0448496D01*
X0304228Y0448542D01*
X0304264Y0448591D01*
X0304297Y0448642D01*
X0304326Y0448694D01*
X0304353Y0448749D01*
X0304376Y0448804D01*
X0304396Y0448861D01*
X0304412Y0448920D01*
X0304425Y0448979D01*
X0304434Y0449038D01*
X0304439Y0449099D01*
X0304441Y0449159D01*
X0304441Y0502259D01*
X0304439Y0502319D01*
X0304434Y0502380D01*
X0304425Y0502439D01*
X0304412Y0502498D01*
X0304396Y0502557D01*
X0304376Y0502614D01*
X0304353Y0502669D01*
X0304326Y0502724D01*
X0304297Y0502776D01*
X0304264Y0502827D01*
X0304228Y0502876D01*
X0304190Y0502922D01*
X0304148Y0502966D01*
X0304104Y0503008D01*
X0304058Y0503046D01*
X0304009Y0503082D01*
X0303958Y0503115D01*
X0303906Y0503144D01*
X0303851Y0503171D01*
X0303796Y0503194D01*
X0303739Y0503214D01*
X0303680Y0503230D01*
X0303621Y0503243D01*
X0303562Y0503252D01*
X0303501Y0503257D01*
X0303441Y0503259D01*
X0250341Y0503259D01*
X0250281Y0503257D01*
X0250220Y0503252D01*
X0250161Y0503243D01*
X0250102Y0503230D01*
X0250043Y0503214D01*
X0249986Y0503194D01*
X0249931Y0503171D01*
X0249876Y0503144D01*
X0249824Y0503115D01*
X0249773Y0503082D01*
X0249724Y0503046D01*
X0249678Y0503008D01*
X0249634Y0502966D01*
X0249592Y0502922D01*
X0249554Y0502876D01*
X0249518Y0502827D01*
X0249485Y0502776D01*
X0249456Y0502724D01*
X0249429Y0502669D01*
X0249406Y0502614D01*
X0249386Y0502557D01*
X0249370Y0502498D01*
X0249357Y0502439D01*
X0249348Y0502380D01*
X0249343Y0502319D01*
X0249341Y0502259D01*
X0250341Y0522963D02*
X0303441Y0522963D01*
X0303501Y0522965D01*
X0303562Y0522970D01*
X0303621Y0522979D01*
X0303680Y0522992D01*
X0303739Y0523008D01*
X0303796Y0523028D01*
X0303851Y0523051D01*
X0303906Y0523078D01*
X0303958Y0523107D01*
X0304009Y0523140D01*
X0304058Y0523176D01*
X0304104Y0523214D01*
X0304148Y0523256D01*
X0304190Y0523300D01*
X0304228Y0523346D01*
X0304264Y0523395D01*
X0304297Y0523446D01*
X0304326Y0523498D01*
X0304353Y0523553D01*
X0304376Y0523608D01*
X0304396Y0523665D01*
X0304412Y0523724D01*
X0304425Y0523783D01*
X0304434Y0523842D01*
X0304439Y0523903D01*
X0304441Y0523963D01*
X0304441Y0577063D01*
X0304439Y0577123D01*
X0304434Y0577184D01*
X0304425Y0577243D01*
X0304412Y0577302D01*
X0304396Y0577361D01*
X0304376Y0577418D01*
X0304353Y0577473D01*
X0304326Y0577528D01*
X0304297Y0577580D01*
X0304264Y0577631D01*
X0304228Y0577680D01*
X0304190Y0577726D01*
X0304148Y0577770D01*
X0304104Y0577812D01*
X0304058Y0577850D01*
X0304009Y0577886D01*
X0303958Y0577919D01*
X0303906Y0577948D01*
X0303851Y0577975D01*
X0303796Y0577998D01*
X0303739Y0578018D01*
X0303680Y0578034D01*
X0303621Y0578047D01*
X0303562Y0578056D01*
X0303501Y0578061D01*
X0303441Y0578063D01*
X0250341Y0578063D01*
X0250281Y0578061D01*
X0250220Y0578056D01*
X0250161Y0578047D01*
X0250102Y0578034D01*
X0250043Y0578018D01*
X0249986Y0577998D01*
X0249931Y0577975D01*
X0249876Y0577948D01*
X0249824Y0577919D01*
X0249773Y0577886D01*
X0249724Y0577850D01*
X0249678Y0577812D01*
X0249634Y0577770D01*
X0249592Y0577726D01*
X0249554Y0577680D01*
X0249518Y0577631D01*
X0249485Y0577580D01*
X0249456Y0577528D01*
X0249429Y0577473D01*
X0249406Y0577418D01*
X0249386Y0577361D01*
X0249370Y0577302D01*
X0249357Y0577243D01*
X0249348Y0577184D01*
X0249343Y0577123D01*
X0249341Y0577063D01*
X0249341Y0523963D01*
X0249343Y0523903D01*
X0249348Y0523842D01*
X0249357Y0523783D01*
X0249370Y0523724D01*
X0249386Y0523665D01*
X0249406Y0523608D01*
X0249429Y0523553D01*
X0249456Y0523498D01*
X0249485Y0523446D01*
X0249518Y0523395D01*
X0249554Y0523346D01*
X0249592Y0523300D01*
X0249634Y0523256D01*
X0249678Y0523214D01*
X0249724Y0523176D01*
X0249773Y0523140D01*
X0249824Y0523107D01*
X0249876Y0523078D01*
X0249931Y0523051D01*
X0249986Y0523028D01*
X0250043Y0523008D01*
X0250102Y0522992D01*
X0250161Y0522979D01*
X0250220Y0522970D01*
X0250281Y0522965D01*
X0250341Y0522963D01*
X0324144Y0505262D02*
X0324144Y0558362D01*
X0324146Y0558422D01*
X0324151Y0558483D01*
X0324160Y0558542D01*
X0324173Y0558601D01*
X0324189Y0558660D01*
X0324209Y0558717D01*
X0324232Y0558772D01*
X0324259Y0558827D01*
X0324288Y0558879D01*
X0324321Y0558930D01*
X0324357Y0558979D01*
X0324395Y0559025D01*
X0324437Y0559069D01*
X0324481Y0559111D01*
X0324527Y0559149D01*
X0324576Y0559185D01*
X0324627Y0559218D01*
X0324679Y0559247D01*
X0324734Y0559274D01*
X0324789Y0559297D01*
X0324846Y0559317D01*
X0324905Y0559333D01*
X0324964Y0559346D01*
X0325023Y0559355D01*
X0325084Y0559360D01*
X0325144Y0559362D01*
X0378244Y0559362D01*
X0378304Y0559360D01*
X0378365Y0559355D01*
X0378424Y0559346D01*
X0378483Y0559333D01*
X0378542Y0559317D01*
X0378599Y0559297D01*
X0378654Y0559274D01*
X0378709Y0559247D01*
X0378761Y0559218D01*
X0378812Y0559185D01*
X0378861Y0559149D01*
X0378907Y0559111D01*
X0378951Y0559069D01*
X0378993Y0559025D01*
X0379031Y0558979D01*
X0379067Y0558930D01*
X0379100Y0558879D01*
X0379129Y0558827D01*
X0379156Y0558772D01*
X0379179Y0558717D01*
X0379199Y0558660D01*
X0379215Y0558601D01*
X0379228Y0558542D01*
X0379237Y0558483D01*
X0379242Y0558422D01*
X0379244Y0558362D01*
X0379244Y0505262D01*
X0379242Y0505202D01*
X0379237Y0505141D01*
X0379228Y0505082D01*
X0379215Y0505023D01*
X0379199Y0504964D01*
X0379179Y0504907D01*
X0379156Y0504852D01*
X0379129Y0504797D01*
X0379100Y0504745D01*
X0379067Y0504694D01*
X0379031Y0504645D01*
X0378993Y0504599D01*
X0378951Y0504555D01*
X0378907Y0504513D01*
X0378861Y0504475D01*
X0378812Y0504439D01*
X0378761Y0504406D01*
X0378709Y0504377D01*
X0378654Y0504350D01*
X0378599Y0504327D01*
X0378542Y0504307D01*
X0378483Y0504291D01*
X0378424Y0504278D01*
X0378365Y0504269D01*
X0378304Y0504264D01*
X0378244Y0504262D01*
X0325144Y0504262D01*
X0325084Y0504264D01*
X0325023Y0504269D01*
X0324964Y0504278D01*
X0324905Y0504291D01*
X0324846Y0504307D01*
X0324789Y0504327D01*
X0324734Y0504350D01*
X0324679Y0504377D01*
X0324627Y0504406D01*
X0324576Y0504439D01*
X0324527Y0504475D01*
X0324481Y0504513D01*
X0324437Y0504555D01*
X0324395Y0504599D01*
X0324357Y0504645D01*
X0324321Y0504694D01*
X0324288Y0504745D01*
X0324259Y0504797D01*
X0324232Y0504852D01*
X0324209Y0504907D01*
X0324189Y0504964D01*
X0324173Y0505023D01*
X0324160Y0505082D01*
X0324151Y0505141D01*
X0324146Y0505202D01*
X0324144Y0505262D01*
X0325144Y0484559D02*
X0378244Y0484559D01*
X0378304Y0484557D01*
X0378365Y0484552D01*
X0378424Y0484543D01*
X0378483Y0484530D01*
X0378542Y0484514D01*
X0378599Y0484494D01*
X0378654Y0484471D01*
X0378709Y0484444D01*
X0378761Y0484415D01*
X0378812Y0484382D01*
X0378861Y0484346D01*
X0378907Y0484308D01*
X0378951Y0484266D01*
X0378993Y0484222D01*
X0379031Y0484176D01*
X0379067Y0484127D01*
X0379100Y0484076D01*
X0379129Y0484024D01*
X0379156Y0483969D01*
X0379179Y0483914D01*
X0379199Y0483857D01*
X0379215Y0483798D01*
X0379228Y0483739D01*
X0379237Y0483680D01*
X0379242Y0483619D01*
X0379244Y0483559D01*
X0379244Y0430459D01*
X0379242Y0430399D01*
X0379237Y0430338D01*
X0379228Y0430279D01*
X0379215Y0430220D01*
X0379199Y0430161D01*
X0379179Y0430104D01*
X0379156Y0430049D01*
X0379129Y0429994D01*
X0379100Y0429942D01*
X0379067Y0429891D01*
X0379031Y0429842D01*
X0378993Y0429796D01*
X0378951Y0429752D01*
X0378907Y0429710D01*
X0378861Y0429672D01*
X0378812Y0429636D01*
X0378761Y0429603D01*
X0378709Y0429574D01*
X0378654Y0429547D01*
X0378599Y0429524D01*
X0378542Y0429504D01*
X0378483Y0429488D01*
X0378424Y0429475D01*
X0378365Y0429466D01*
X0378304Y0429461D01*
X0378244Y0429459D01*
X0325144Y0429459D01*
X0325084Y0429461D01*
X0325023Y0429466D01*
X0324964Y0429475D01*
X0324905Y0429488D01*
X0324846Y0429504D01*
X0324789Y0429524D01*
X0324734Y0429547D01*
X0324679Y0429574D01*
X0324627Y0429603D01*
X0324576Y0429636D01*
X0324527Y0429672D01*
X0324481Y0429710D01*
X0324437Y0429752D01*
X0324395Y0429796D01*
X0324357Y0429842D01*
X0324321Y0429891D01*
X0324288Y0429942D01*
X0324259Y0429994D01*
X0324232Y0430049D01*
X0324209Y0430104D01*
X0324189Y0430161D01*
X0324173Y0430220D01*
X0324160Y0430279D01*
X0324151Y0430338D01*
X0324146Y0430399D01*
X0324144Y0430459D01*
X0324144Y0483559D01*
X0324146Y0483619D01*
X0324151Y0483680D01*
X0324160Y0483739D01*
X0324173Y0483798D01*
X0324189Y0483857D01*
X0324209Y0483914D01*
X0324232Y0483969D01*
X0324259Y0484024D01*
X0324288Y0484076D01*
X0324321Y0484127D01*
X0324357Y0484176D01*
X0324395Y0484222D01*
X0324437Y0484266D01*
X0324481Y0484308D01*
X0324527Y0484346D01*
X0324576Y0484382D01*
X0324627Y0484415D01*
X0324679Y0484444D01*
X0324734Y0484471D01*
X0324789Y0484494D01*
X0324846Y0484514D01*
X0324905Y0484530D01*
X0324964Y0484543D01*
X0325023Y0484552D01*
X0325084Y0484557D01*
X0325144Y0484559D01*
X0303441Y0428456D02*
X0250341Y0428456D01*
X0250281Y0428454D01*
X0250220Y0428449D01*
X0250161Y0428440D01*
X0250102Y0428427D01*
X0250043Y0428411D01*
X0249986Y0428391D01*
X0249931Y0428368D01*
X0249876Y0428341D01*
X0249824Y0428312D01*
X0249773Y0428279D01*
X0249724Y0428243D01*
X0249678Y0428205D01*
X0249634Y0428163D01*
X0249592Y0428119D01*
X0249554Y0428073D01*
X0249518Y0428024D01*
X0249485Y0427973D01*
X0249456Y0427921D01*
X0249429Y0427866D01*
X0249406Y0427811D01*
X0249386Y0427754D01*
X0249370Y0427695D01*
X0249357Y0427636D01*
X0249348Y0427577D01*
X0249343Y0427516D01*
X0249341Y0427456D01*
X0249341Y0374356D01*
X0249343Y0374296D01*
X0249348Y0374235D01*
X0249357Y0374176D01*
X0249370Y0374117D01*
X0249386Y0374058D01*
X0249406Y0374001D01*
X0249429Y0373946D01*
X0249456Y0373891D01*
X0249485Y0373839D01*
X0249518Y0373788D01*
X0249554Y0373739D01*
X0249592Y0373693D01*
X0249634Y0373649D01*
X0249678Y0373607D01*
X0249724Y0373569D01*
X0249773Y0373533D01*
X0249824Y0373500D01*
X0249876Y0373471D01*
X0249931Y0373444D01*
X0249986Y0373421D01*
X0250043Y0373401D01*
X0250102Y0373385D01*
X0250161Y0373372D01*
X0250220Y0373363D01*
X0250281Y0373358D01*
X0250341Y0373356D01*
X0303441Y0373356D01*
X0303501Y0373358D01*
X0303562Y0373363D01*
X0303621Y0373372D01*
X0303680Y0373385D01*
X0303739Y0373401D01*
X0303796Y0373421D01*
X0303851Y0373444D01*
X0303906Y0373471D01*
X0303958Y0373500D01*
X0304009Y0373533D01*
X0304058Y0373569D01*
X0304104Y0373607D01*
X0304148Y0373649D01*
X0304190Y0373693D01*
X0304228Y0373739D01*
X0304264Y0373788D01*
X0304297Y0373839D01*
X0304326Y0373891D01*
X0304353Y0373946D01*
X0304376Y0374001D01*
X0304396Y0374058D01*
X0304412Y0374117D01*
X0304425Y0374176D01*
X0304434Y0374235D01*
X0304439Y0374296D01*
X0304441Y0374356D01*
X0304441Y0427456D01*
X0304439Y0427516D01*
X0304434Y0427577D01*
X0304425Y0427636D01*
X0304412Y0427695D01*
X0304396Y0427754D01*
X0304376Y0427811D01*
X0304353Y0427866D01*
X0304326Y0427921D01*
X0304297Y0427973D01*
X0304264Y0428024D01*
X0304228Y0428073D01*
X0304190Y0428119D01*
X0304148Y0428163D01*
X0304104Y0428205D01*
X0304058Y0428243D01*
X0304009Y0428279D01*
X0303958Y0428312D01*
X0303906Y0428341D01*
X0303851Y0428368D01*
X0303796Y0428391D01*
X0303739Y0428411D01*
X0303680Y0428427D01*
X0303621Y0428440D01*
X0303562Y0428449D01*
X0303501Y0428454D01*
X0303441Y0428456D01*
X0324144Y0408756D02*
X0324144Y0355656D01*
X0324146Y0355596D01*
X0324151Y0355535D01*
X0324160Y0355476D01*
X0324173Y0355417D01*
X0324189Y0355358D01*
X0324209Y0355301D01*
X0324232Y0355246D01*
X0324259Y0355191D01*
X0324288Y0355139D01*
X0324321Y0355088D01*
X0324357Y0355039D01*
X0324395Y0354993D01*
X0324437Y0354949D01*
X0324481Y0354907D01*
X0324527Y0354869D01*
X0324576Y0354833D01*
X0324627Y0354800D01*
X0324679Y0354771D01*
X0324734Y0354744D01*
X0324789Y0354721D01*
X0324846Y0354701D01*
X0324905Y0354685D01*
X0324964Y0354672D01*
X0325023Y0354663D01*
X0325084Y0354658D01*
X0325144Y0354656D01*
X0378244Y0354656D01*
X0378304Y0354658D01*
X0378365Y0354663D01*
X0378424Y0354672D01*
X0378483Y0354685D01*
X0378542Y0354701D01*
X0378599Y0354721D01*
X0378654Y0354744D01*
X0378709Y0354771D01*
X0378761Y0354800D01*
X0378812Y0354833D01*
X0378861Y0354869D01*
X0378907Y0354907D01*
X0378951Y0354949D01*
X0378993Y0354993D01*
X0379031Y0355039D01*
X0379067Y0355088D01*
X0379100Y0355139D01*
X0379129Y0355191D01*
X0379156Y0355246D01*
X0379179Y0355301D01*
X0379199Y0355358D01*
X0379215Y0355417D01*
X0379228Y0355476D01*
X0379237Y0355535D01*
X0379242Y0355596D01*
X0379244Y0355656D01*
X0379244Y0408756D01*
X0379242Y0408816D01*
X0379237Y0408877D01*
X0379228Y0408936D01*
X0379215Y0408995D01*
X0379199Y0409054D01*
X0379179Y0409111D01*
X0379156Y0409166D01*
X0379129Y0409221D01*
X0379100Y0409273D01*
X0379067Y0409324D01*
X0379031Y0409373D01*
X0378993Y0409419D01*
X0378951Y0409463D01*
X0378907Y0409505D01*
X0378861Y0409543D01*
X0378812Y0409579D01*
X0378761Y0409612D01*
X0378709Y0409641D01*
X0378654Y0409668D01*
X0378599Y0409691D01*
X0378542Y0409711D01*
X0378483Y0409727D01*
X0378424Y0409740D01*
X0378365Y0409749D01*
X0378304Y0409754D01*
X0378244Y0409756D01*
X0325144Y0409756D01*
X0325084Y0409754D01*
X0325023Y0409749D01*
X0324964Y0409740D01*
X0324905Y0409727D01*
X0324846Y0409711D01*
X0324789Y0409691D01*
X0324734Y0409668D01*
X0324679Y0409641D01*
X0324627Y0409612D01*
X0324576Y0409579D01*
X0324527Y0409543D01*
X0324481Y0409505D01*
X0324437Y0409463D01*
X0324395Y0409419D01*
X0324357Y0409373D01*
X0324321Y0409324D01*
X0324288Y0409273D01*
X0324259Y0409221D01*
X0324232Y0409166D01*
X0324209Y0409111D01*
X0324189Y0409054D01*
X0324173Y0408995D01*
X0324160Y0408936D01*
X0324151Y0408877D01*
X0324146Y0408816D01*
X0324144Y0408756D01*
X0303441Y0353653D02*
X0250341Y0353653D01*
X0250281Y0353651D01*
X0250220Y0353646D01*
X0250161Y0353637D01*
X0250102Y0353624D01*
X0250043Y0353608D01*
X0249986Y0353588D01*
X0249931Y0353565D01*
X0249876Y0353538D01*
X0249824Y0353509D01*
X0249773Y0353476D01*
X0249724Y0353440D01*
X0249678Y0353402D01*
X0249634Y0353360D01*
X0249592Y0353316D01*
X0249554Y0353270D01*
X0249518Y0353221D01*
X0249485Y0353170D01*
X0249456Y0353118D01*
X0249429Y0353063D01*
X0249406Y0353008D01*
X0249386Y0352951D01*
X0249370Y0352892D01*
X0249357Y0352833D01*
X0249348Y0352774D01*
X0249343Y0352713D01*
X0249341Y0352653D01*
X0249341Y0299553D01*
X0249343Y0299493D01*
X0249348Y0299432D01*
X0249357Y0299373D01*
X0249370Y0299314D01*
X0249386Y0299255D01*
X0249406Y0299198D01*
X0249429Y0299143D01*
X0249456Y0299088D01*
X0249485Y0299036D01*
X0249518Y0298985D01*
X0249554Y0298936D01*
X0249592Y0298890D01*
X0249634Y0298846D01*
X0249678Y0298804D01*
X0249724Y0298766D01*
X0249773Y0298730D01*
X0249824Y0298697D01*
X0249876Y0298668D01*
X0249931Y0298641D01*
X0249986Y0298618D01*
X0250043Y0298598D01*
X0250102Y0298582D01*
X0250161Y0298569D01*
X0250220Y0298560D01*
X0250281Y0298555D01*
X0250341Y0298553D01*
X0303441Y0298553D01*
X0303501Y0298555D01*
X0303562Y0298560D01*
X0303621Y0298569D01*
X0303680Y0298582D01*
X0303739Y0298598D01*
X0303796Y0298618D01*
X0303851Y0298641D01*
X0303906Y0298668D01*
X0303958Y0298697D01*
X0304009Y0298730D01*
X0304058Y0298766D01*
X0304104Y0298804D01*
X0304148Y0298846D01*
X0304190Y0298890D01*
X0304228Y0298936D01*
X0304264Y0298985D01*
X0304297Y0299036D01*
X0304326Y0299088D01*
X0304353Y0299143D01*
X0304376Y0299198D01*
X0304396Y0299255D01*
X0304412Y0299314D01*
X0304425Y0299373D01*
X0304434Y0299432D01*
X0304439Y0299493D01*
X0304441Y0299553D01*
X0304441Y0352653D01*
X0304439Y0352713D01*
X0304434Y0352774D01*
X0304425Y0352833D01*
X0304412Y0352892D01*
X0304396Y0352951D01*
X0304376Y0353008D01*
X0304353Y0353063D01*
X0304326Y0353118D01*
X0304297Y0353170D01*
X0304264Y0353221D01*
X0304228Y0353270D01*
X0304190Y0353316D01*
X0304148Y0353360D01*
X0304104Y0353402D01*
X0304058Y0353440D01*
X0304009Y0353476D01*
X0303958Y0353509D01*
X0303906Y0353538D01*
X0303851Y0353565D01*
X0303796Y0353588D01*
X0303739Y0353608D01*
X0303680Y0353624D01*
X0303621Y0353637D01*
X0303562Y0353646D01*
X0303501Y0353651D01*
X0303441Y0353653D01*
X0324144Y0333952D02*
X0324144Y0280852D01*
X0324146Y0280792D01*
X0324151Y0280731D01*
X0324160Y0280672D01*
X0324173Y0280613D01*
X0324189Y0280554D01*
X0324209Y0280497D01*
X0324232Y0280442D01*
X0324259Y0280387D01*
X0324288Y0280335D01*
X0324321Y0280284D01*
X0324357Y0280235D01*
X0324395Y0280189D01*
X0324437Y0280145D01*
X0324481Y0280103D01*
X0324527Y0280065D01*
X0324576Y0280029D01*
X0324627Y0279996D01*
X0324679Y0279967D01*
X0324734Y0279940D01*
X0324789Y0279917D01*
X0324846Y0279897D01*
X0324905Y0279881D01*
X0324964Y0279868D01*
X0325023Y0279859D01*
X0325084Y0279854D01*
X0325144Y0279852D01*
X0378244Y0279852D01*
X0378304Y0279854D01*
X0378365Y0279859D01*
X0378424Y0279868D01*
X0378483Y0279881D01*
X0378542Y0279897D01*
X0378599Y0279917D01*
X0378654Y0279940D01*
X0378709Y0279967D01*
X0378761Y0279996D01*
X0378812Y0280029D01*
X0378861Y0280065D01*
X0378907Y0280103D01*
X0378951Y0280145D01*
X0378993Y0280189D01*
X0379031Y0280235D01*
X0379067Y0280284D01*
X0379100Y0280335D01*
X0379129Y0280387D01*
X0379156Y0280442D01*
X0379179Y0280497D01*
X0379199Y0280554D01*
X0379215Y0280613D01*
X0379228Y0280672D01*
X0379237Y0280731D01*
X0379242Y0280792D01*
X0379244Y0280852D01*
X0379244Y0333952D01*
X0379242Y0334012D01*
X0379237Y0334073D01*
X0379228Y0334132D01*
X0379215Y0334191D01*
X0379199Y0334250D01*
X0379179Y0334307D01*
X0379156Y0334362D01*
X0379129Y0334417D01*
X0379100Y0334469D01*
X0379067Y0334520D01*
X0379031Y0334569D01*
X0378993Y0334615D01*
X0378951Y0334659D01*
X0378907Y0334701D01*
X0378861Y0334739D01*
X0378812Y0334775D01*
X0378761Y0334808D01*
X0378709Y0334837D01*
X0378654Y0334864D01*
X0378599Y0334887D01*
X0378542Y0334907D01*
X0378483Y0334923D01*
X0378424Y0334936D01*
X0378365Y0334945D01*
X0378304Y0334950D01*
X0378244Y0334952D01*
X0325144Y0334952D01*
X0325084Y0334950D01*
X0325023Y0334945D01*
X0324964Y0334936D01*
X0324905Y0334923D01*
X0324846Y0334907D01*
X0324789Y0334887D01*
X0324734Y0334864D01*
X0324679Y0334837D01*
X0324627Y0334808D01*
X0324576Y0334775D01*
X0324527Y0334739D01*
X0324481Y0334701D01*
X0324437Y0334659D01*
X0324395Y0334615D01*
X0324357Y0334569D01*
X0324321Y0334520D01*
X0324288Y0334469D01*
X0324259Y0334417D01*
X0324232Y0334362D01*
X0324209Y0334307D01*
X0324189Y0334250D01*
X0324173Y0334191D01*
X0324160Y0334132D01*
X0324151Y0334073D01*
X0324146Y0334012D01*
X0324144Y0333952D01*
X0309174Y0284371D02*
X0302481Y0284371D01*
X0309174Y0284371D02*
X0309174Y0274922D01*
X0309174Y0221772D02*
X0309174Y0202481D01*
X0242245Y0202481D01*
X0242245Y0221772D01*
X0242245Y0274922D02*
X0242245Y0284371D01*
X0248938Y0284371D01*
X0229637Y0280852D02*
X0229637Y0333952D01*
X0229635Y0334012D01*
X0229630Y0334073D01*
X0229621Y0334132D01*
X0229608Y0334191D01*
X0229592Y0334250D01*
X0229572Y0334307D01*
X0229549Y0334362D01*
X0229522Y0334417D01*
X0229493Y0334469D01*
X0229460Y0334520D01*
X0229424Y0334569D01*
X0229386Y0334615D01*
X0229344Y0334659D01*
X0229300Y0334701D01*
X0229254Y0334739D01*
X0229205Y0334775D01*
X0229154Y0334808D01*
X0229102Y0334837D01*
X0229047Y0334864D01*
X0228992Y0334887D01*
X0228935Y0334907D01*
X0228876Y0334923D01*
X0228817Y0334936D01*
X0228758Y0334945D01*
X0228697Y0334950D01*
X0228637Y0334952D01*
X0175537Y0334952D01*
X0175477Y0334950D01*
X0175416Y0334945D01*
X0175357Y0334936D01*
X0175298Y0334923D01*
X0175239Y0334907D01*
X0175182Y0334887D01*
X0175127Y0334864D01*
X0175072Y0334837D01*
X0175020Y0334808D01*
X0174969Y0334775D01*
X0174920Y0334739D01*
X0174874Y0334701D01*
X0174830Y0334659D01*
X0174788Y0334615D01*
X0174750Y0334569D01*
X0174714Y0334520D01*
X0174681Y0334469D01*
X0174652Y0334417D01*
X0174625Y0334362D01*
X0174602Y0334307D01*
X0174582Y0334250D01*
X0174566Y0334191D01*
X0174553Y0334132D01*
X0174544Y0334073D01*
X0174539Y0334012D01*
X0174537Y0333952D01*
X0174537Y0280852D01*
X0174539Y0280792D01*
X0174544Y0280731D01*
X0174553Y0280672D01*
X0174566Y0280613D01*
X0174582Y0280554D01*
X0174602Y0280497D01*
X0174625Y0280442D01*
X0174652Y0280387D01*
X0174681Y0280335D01*
X0174714Y0280284D01*
X0174750Y0280235D01*
X0174788Y0280189D01*
X0174830Y0280145D01*
X0174874Y0280103D01*
X0174920Y0280065D01*
X0174969Y0280029D01*
X0175020Y0279996D01*
X0175072Y0279967D01*
X0175127Y0279940D01*
X0175182Y0279917D01*
X0175239Y0279897D01*
X0175298Y0279881D01*
X0175357Y0279868D01*
X0175416Y0279859D01*
X0175477Y0279854D01*
X0175537Y0279852D01*
X0228637Y0279852D01*
X0228697Y0279854D01*
X0228758Y0279859D01*
X0228817Y0279868D01*
X0228876Y0279881D01*
X0228935Y0279897D01*
X0228992Y0279917D01*
X0229047Y0279940D01*
X0229102Y0279967D01*
X0229154Y0279996D01*
X0229205Y0280029D01*
X0229254Y0280065D01*
X0229300Y0280103D01*
X0229344Y0280145D01*
X0229386Y0280189D01*
X0229424Y0280235D01*
X0229460Y0280284D01*
X0229493Y0280335D01*
X0229522Y0280387D01*
X0229549Y0280442D01*
X0229572Y0280497D01*
X0229592Y0280554D01*
X0229608Y0280613D01*
X0229621Y0280672D01*
X0229630Y0280731D01*
X0229635Y0280792D01*
X0229637Y0280852D01*
X0228637Y0354656D02*
X0175537Y0354656D01*
X0175477Y0354658D01*
X0175416Y0354663D01*
X0175357Y0354672D01*
X0175298Y0354685D01*
X0175239Y0354701D01*
X0175182Y0354721D01*
X0175127Y0354744D01*
X0175072Y0354771D01*
X0175020Y0354800D01*
X0174969Y0354833D01*
X0174920Y0354869D01*
X0174874Y0354907D01*
X0174830Y0354949D01*
X0174788Y0354993D01*
X0174750Y0355039D01*
X0174714Y0355088D01*
X0174681Y0355139D01*
X0174652Y0355191D01*
X0174625Y0355246D01*
X0174602Y0355301D01*
X0174582Y0355358D01*
X0174566Y0355417D01*
X0174553Y0355476D01*
X0174544Y0355535D01*
X0174539Y0355596D01*
X0174537Y0355656D01*
X0174537Y0408756D01*
X0174539Y0408816D01*
X0174544Y0408877D01*
X0174553Y0408936D01*
X0174566Y0408995D01*
X0174582Y0409054D01*
X0174602Y0409111D01*
X0174625Y0409166D01*
X0174652Y0409221D01*
X0174681Y0409273D01*
X0174714Y0409324D01*
X0174750Y0409373D01*
X0174788Y0409419D01*
X0174830Y0409463D01*
X0174874Y0409505D01*
X0174920Y0409543D01*
X0174969Y0409579D01*
X0175020Y0409612D01*
X0175072Y0409641D01*
X0175127Y0409668D01*
X0175182Y0409691D01*
X0175239Y0409711D01*
X0175298Y0409727D01*
X0175357Y0409740D01*
X0175416Y0409749D01*
X0175477Y0409754D01*
X0175537Y0409756D01*
X0228637Y0409756D01*
X0228697Y0409754D01*
X0228758Y0409749D01*
X0228817Y0409740D01*
X0228876Y0409727D01*
X0228935Y0409711D01*
X0228992Y0409691D01*
X0229047Y0409668D01*
X0229102Y0409641D01*
X0229154Y0409612D01*
X0229205Y0409579D01*
X0229254Y0409543D01*
X0229300Y0409505D01*
X0229344Y0409463D01*
X0229386Y0409419D01*
X0229424Y0409373D01*
X0229460Y0409324D01*
X0229493Y0409273D01*
X0229522Y0409221D01*
X0229549Y0409166D01*
X0229572Y0409111D01*
X0229592Y0409054D01*
X0229608Y0408995D01*
X0229621Y0408936D01*
X0229630Y0408877D01*
X0229635Y0408816D01*
X0229637Y0408756D01*
X0229637Y0355656D01*
X0229635Y0355596D01*
X0229630Y0355535D01*
X0229621Y0355476D01*
X0229608Y0355417D01*
X0229592Y0355358D01*
X0229572Y0355301D01*
X0229549Y0355246D01*
X0229522Y0355191D01*
X0229493Y0355139D01*
X0229460Y0355088D01*
X0229424Y0355039D01*
X0229386Y0354993D01*
X0229344Y0354949D01*
X0229300Y0354907D01*
X0229254Y0354869D01*
X0229205Y0354833D01*
X0229154Y0354800D01*
X0229102Y0354771D01*
X0229047Y0354744D01*
X0228992Y0354721D01*
X0228935Y0354701D01*
X0228876Y0354685D01*
X0228817Y0354672D01*
X0228758Y0354663D01*
X0228697Y0354658D01*
X0228637Y0354656D01*
X0324735Y0217728D02*
X0306574Y0167830D01*
X0306555Y0167773D01*
X0306540Y0167714D01*
X0306528Y0167655D01*
X0306520Y0167595D01*
X0306515Y0167535D01*
X0306514Y0167475D01*
X0306517Y0167414D01*
X0306523Y0167354D01*
X0306533Y0167295D01*
X0306546Y0167236D01*
X0306563Y0167178D01*
X0306584Y0167121D01*
X0306608Y0167065D01*
X0306635Y0167011D01*
X0306665Y0166959D01*
X0306699Y0166909D01*
X0306735Y0166861D01*
X0306774Y0166815D01*
X0306816Y0166771D01*
X0306861Y0166731D01*
X0306908Y0166693D01*
X0306957Y0166657D01*
X0307008Y0166625D01*
X0307061Y0166596D01*
X0307116Y0166571D01*
X0307172Y0166548D01*
X0357069Y0148387D01*
X0357126Y0148368D01*
X0357185Y0148353D01*
X0357244Y0148341D01*
X0357304Y0148333D01*
X0357364Y0148328D01*
X0357424Y0148327D01*
X0357485Y0148330D01*
X0357545Y0148336D01*
X0357604Y0148346D01*
X0357663Y0148359D01*
X0357721Y0148376D01*
X0357778Y0148397D01*
X0357834Y0148421D01*
X0357888Y0148448D01*
X0357940Y0148478D01*
X0357990Y0148512D01*
X0358038Y0148548D01*
X0358084Y0148587D01*
X0358128Y0148629D01*
X0358168Y0148674D01*
X0358206Y0148721D01*
X0358242Y0148770D01*
X0358274Y0148821D01*
X0358303Y0148874D01*
X0358328Y0148929D01*
X0358351Y0148985D01*
X0376512Y0198882D01*
X0376513Y0198882D02*
X0376532Y0198939D01*
X0376547Y0198998D01*
X0376559Y0199057D01*
X0376567Y0199117D01*
X0376572Y0199177D01*
X0376573Y0199237D01*
X0376570Y0199298D01*
X0376564Y0199358D01*
X0376554Y0199417D01*
X0376541Y0199476D01*
X0376524Y0199534D01*
X0376503Y0199591D01*
X0376479Y0199647D01*
X0376452Y0199701D01*
X0376422Y0199753D01*
X0376388Y0199803D01*
X0376352Y0199851D01*
X0376313Y0199897D01*
X0376271Y0199941D01*
X0376226Y0199981D01*
X0376179Y0200019D01*
X0376130Y0200055D01*
X0376079Y0200087D01*
X0376026Y0200116D01*
X0375971Y0200141D01*
X0375915Y0200164D01*
X0326017Y0218325D01*
X0326017Y0218326D02*
X0325960Y0218345D01*
X0325901Y0218360D01*
X0325842Y0218372D01*
X0325782Y0218380D01*
X0325722Y0218385D01*
X0325662Y0218386D01*
X0325601Y0218383D01*
X0325541Y0218377D01*
X0325482Y0218367D01*
X0325423Y0218354D01*
X0325365Y0218337D01*
X0325308Y0218316D01*
X0325252Y0218292D01*
X0325198Y0218265D01*
X0325146Y0218235D01*
X0325096Y0218201D01*
X0325048Y0218165D01*
X0325002Y0218126D01*
X0324958Y0218084D01*
X0324918Y0218039D01*
X0324880Y0217992D01*
X0324844Y0217943D01*
X0324812Y0217892D01*
X0324783Y0217839D01*
X0324758Y0217784D01*
X0324735Y0217728D01*
X0382235Y0156997D02*
X0364074Y0107100D01*
X0364073Y0107100D02*
X0364054Y0107043D01*
X0364039Y0106984D01*
X0364027Y0106925D01*
X0364019Y0106865D01*
X0364014Y0106805D01*
X0364013Y0106745D01*
X0364016Y0106684D01*
X0364022Y0106624D01*
X0364032Y0106565D01*
X0364045Y0106506D01*
X0364062Y0106448D01*
X0364083Y0106391D01*
X0364107Y0106335D01*
X0364134Y0106281D01*
X0364164Y0106229D01*
X0364198Y0106179D01*
X0364234Y0106131D01*
X0364273Y0106085D01*
X0364315Y0106041D01*
X0364360Y0106001D01*
X0364407Y0105963D01*
X0364456Y0105927D01*
X0364507Y0105895D01*
X0364560Y0105866D01*
X0364615Y0105841D01*
X0364671Y0105818D01*
X0414569Y0087657D01*
X0414569Y0087656D02*
X0414626Y0087637D01*
X0414685Y0087622D01*
X0414744Y0087610D01*
X0414804Y0087602D01*
X0414864Y0087597D01*
X0414924Y0087596D01*
X0414985Y0087599D01*
X0415045Y0087605D01*
X0415104Y0087615D01*
X0415163Y0087628D01*
X0415221Y0087645D01*
X0415278Y0087666D01*
X0415334Y0087690D01*
X0415388Y0087717D01*
X0415440Y0087747D01*
X0415490Y0087781D01*
X0415538Y0087817D01*
X0415584Y0087856D01*
X0415628Y0087898D01*
X0415668Y0087943D01*
X0415706Y0087990D01*
X0415742Y0088039D01*
X0415774Y0088090D01*
X0415803Y0088143D01*
X0415828Y0088198D01*
X0415851Y0088254D01*
X0434012Y0138152D01*
X0434031Y0138209D01*
X0434046Y0138268D01*
X0434058Y0138327D01*
X0434066Y0138387D01*
X0434071Y0138447D01*
X0434072Y0138507D01*
X0434069Y0138568D01*
X0434063Y0138628D01*
X0434053Y0138687D01*
X0434040Y0138746D01*
X0434023Y0138804D01*
X0434002Y0138861D01*
X0433978Y0138917D01*
X0433951Y0138971D01*
X0433921Y0139023D01*
X0433887Y0139073D01*
X0433851Y0139121D01*
X0433812Y0139167D01*
X0433770Y0139211D01*
X0433725Y0139251D01*
X0433678Y0139289D01*
X0433629Y0139325D01*
X0433578Y0139357D01*
X0433525Y0139386D01*
X0433470Y0139411D01*
X0433414Y0139434D01*
X0383517Y0157595D01*
X0383460Y0157614D01*
X0383401Y0157629D01*
X0383342Y0157641D01*
X0383282Y0157649D01*
X0383222Y0157654D01*
X0383162Y0157655D01*
X0383101Y0157652D01*
X0383041Y0157646D01*
X0382982Y0157636D01*
X0382923Y0157623D01*
X0382865Y0157606D01*
X0382808Y0157585D01*
X0382752Y0157561D01*
X0382698Y0157534D01*
X0382646Y0157504D01*
X0382596Y0157470D01*
X0382548Y0157434D01*
X0382502Y0157395D01*
X0382458Y0157353D01*
X0382418Y0157308D01*
X0382380Y0157261D01*
X0382344Y0157212D01*
X0382312Y0157161D01*
X0382283Y0157108D01*
X0382258Y0157053D01*
X0382235Y0156997D01*
X0390256Y0176110D02*
X0440153Y0157949D01*
X0440153Y0157948D02*
X0440210Y0157929D01*
X0440269Y0157914D01*
X0440328Y0157902D01*
X0440388Y0157894D01*
X0440448Y0157889D01*
X0440508Y0157888D01*
X0440569Y0157891D01*
X0440629Y0157897D01*
X0440688Y0157907D01*
X0440747Y0157920D01*
X0440805Y0157937D01*
X0440862Y0157958D01*
X0440918Y0157982D01*
X0440972Y0158009D01*
X0441024Y0158039D01*
X0441074Y0158073D01*
X0441122Y0158109D01*
X0441168Y0158148D01*
X0441212Y0158190D01*
X0441252Y0158235D01*
X0441290Y0158282D01*
X0441326Y0158331D01*
X0441358Y0158382D01*
X0441387Y0158435D01*
X0441412Y0158490D01*
X0441435Y0158546D01*
X0459596Y0208444D01*
X0459597Y0208444D02*
X0459616Y0208501D01*
X0459631Y0208560D01*
X0459643Y0208619D01*
X0459651Y0208679D01*
X0459656Y0208739D01*
X0459657Y0208799D01*
X0459654Y0208860D01*
X0459648Y0208920D01*
X0459638Y0208979D01*
X0459625Y0209038D01*
X0459608Y0209096D01*
X0459587Y0209153D01*
X0459563Y0209209D01*
X0459536Y0209263D01*
X0459506Y0209315D01*
X0459472Y0209365D01*
X0459436Y0209413D01*
X0459397Y0209459D01*
X0459355Y0209503D01*
X0459310Y0209543D01*
X0459263Y0209581D01*
X0459214Y0209617D01*
X0459163Y0209649D01*
X0459110Y0209678D01*
X0459055Y0209703D01*
X0458999Y0209726D01*
X0409101Y0227887D01*
X0409044Y0227906D01*
X0408985Y0227921D01*
X0408926Y0227933D01*
X0408866Y0227941D01*
X0408806Y0227946D01*
X0408746Y0227947D01*
X0408685Y0227944D01*
X0408625Y0227938D01*
X0408566Y0227928D01*
X0408507Y0227915D01*
X0408449Y0227898D01*
X0408392Y0227877D01*
X0408336Y0227853D01*
X0408282Y0227826D01*
X0408230Y0227796D01*
X0408180Y0227762D01*
X0408132Y0227726D01*
X0408086Y0227687D01*
X0408042Y0227645D01*
X0408002Y0227600D01*
X0407964Y0227553D01*
X0407928Y0227504D01*
X0407896Y0227453D01*
X0407867Y0227400D01*
X0407842Y0227345D01*
X0407819Y0227289D01*
X0389658Y0177392D01*
X0389639Y0177335D01*
X0389624Y0177276D01*
X0389612Y0177217D01*
X0389604Y0177157D01*
X0389599Y0177097D01*
X0389598Y0177037D01*
X0389601Y0176976D01*
X0389607Y0176916D01*
X0389617Y0176857D01*
X0389630Y0176798D01*
X0389647Y0176740D01*
X0389668Y0176683D01*
X0389692Y0176627D01*
X0389719Y0176573D01*
X0389749Y0176521D01*
X0389783Y0176471D01*
X0389819Y0176423D01*
X0389858Y0176377D01*
X0389900Y0176333D01*
X0389945Y0176293D01*
X0389992Y0176255D01*
X0390041Y0176219D01*
X0390092Y0176187D01*
X0390145Y0176158D01*
X0390200Y0176133D01*
X0390256Y0176110D01*
X0465319Y0166559D02*
X0447158Y0116662D01*
X0447157Y0116662D02*
X0447138Y0116605D01*
X0447123Y0116546D01*
X0447111Y0116487D01*
X0447103Y0116427D01*
X0447098Y0116367D01*
X0447097Y0116307D01*
X0447100Y0116246D01*
X0447106Y0116186D01*
X0447116Y0116127D01*
X0447129Y0116068D01*
X0447146Y0116010D01*
X0447167Y0115953D01*
X0447191Y0115897D01*
X0447218Y0115843D01*
X0447248Y0115791D01*
X0447282Y0115741D01*
X0447318Y0115693D01*
X0447357Y0115647D01*
X0447399Y0115603D01*
X0447444Y0115563D01*
X0447491Y0115525D01*
X0447540Y0115489D01*
X0447591Y0115457D01*
X0447644Y0115428D01*
X0447699Y0115403D01*
X0447755Y0115380D01*
X0497653Y0097219D01*
X0497653Y0097218D02*
X0497710Y0097199D01*
X0497769Y0097184D01*
X0497828Y0097172D01*
X0497888Y0097164D01*
X0497948Y0097159D01*
X0498008Y0097158D01*
X0498069Y0097161D01*
X0498129Y0097167D01*
X0498188Y0097177D01*
X0498247Y0097190D01*
X0498305Y0097207D01*
X0498362Y0097228D01*
X0498418Y0097252D01*
X0498472Y0097279D01*
X0498524Y0097309D01*
X0498574Y0097343D01*
X0498622Y0097379D01*
X0498668Y0097418D01*
X0498712Y0097460D01*
X0498752Y0097505D01*
X0498790Y0097552D01*
X0498826Y0097601D01*
X0498858Y0097652D01*
X0498887Y0097705D01*
X0498912Y0097760D01*
X0498935Y0097816D01*
X0517096Y0147714D01*
X0517115Y0147771D01*
X0517130Y0147830D01*
X0517142Y0147889D01*
X0517150Y0147949D01*
X0517155Y0148009D01*
X0517156Y0148069D01*
X0517153Y0148130D01*
X0517147Y0148190D01*
X0517137Y0148249D01*
X0517124Y0148308D01*
X0517107Y0148366D01*
X0517086Y0148423D01*
X0517062Y0148479D01*
X0517035Y0148533D01*
X0517005Y0148585D01*
X0516971Y0148635D01*
X0516935Y0148683D01*
X0516896Y0148729D01*
X0516854Y0148773D01*
X0516809Y0148813D01*
X0516762Y0148851D01*
X0516713Y0148887D01*
X0516662Y0148919D01*
X0516609Y0148948D01*
X0516554Y0148973D01*
X0516498Y0148996D01*
X0466601Y0167157D01*
X0466544Y0167176D01*
X0466485Y0167191D01*
X0466426Y0167203D01*
X0466366Y0167211D01*
X0466306Y0167216D01*
X0466246Y0167217D01*
X0466185Y0167214D01*
X0466125Y0167208D01*
X0466066Y0167198D01*
X0466007Y0167185D01*
X0465949Y0167168D01*
X0465892Y0167147D01*
X0465836Y0167123D01*
X0465782Y0167096D01*
X0465730Y0167066D01*
X0465680Y0167032D01*
X0465632Y0166996D01*
X0465586Y0166957D01*
X0465542Y0166915D01*
X0465502Y0166870D01*
X0465464Y0166823D01*
X0465428Y0166774D01*
X0465396Y0166723D01*
X0465367Y0166670D01*
X0465342Y0166615D01*
X0465319Y0166559D01*
X0488505Y0202481D02*
X0488505Y0210355D01*
X0497560Y0210355D02*
X0497560Y0202481D01*
X0474750Y0242451D02*
X0527850Y0242451D01*
X0527910Y0242453D01*
X0527971Y0242458D01*
X0528030Y0242467D01*
X0528089Y0242480D01*
X0528148Y0242496D01*
X0528205Y0242516D01*
X0528260Y0242539D01*
X0528315Y0242566D01*
X0528367Y0242595D01*
X0528418Y0242628D01*
X0528467Y0242664D01*
X0528513Y0242702D01*
X0528557Y0242744D01*
X0528599Y0242788D01*
X0528637Y0242834D01*
X0528673Y0242883D01*
X0528706Y0242934D01*
X0528735Y0242986D01*
X0528762Y0243041D01*
X0528785Y0243096D01*
X0528805Y0243153D01*
X0528821Y0243212D01*
X0528834Y0243271D01*
X0528843Y0243330D01*
X0528848Y0243391D01*
X0528850Y0243451D01*
X0528850Y0296551D01*
X0528848Y0296611D01*
X0528843Y0296672D01*
X0528834Y0296731D01*
X0528821Y0296790D01*
X0528805Y0296849D01*
X0528785Y0296906D01*
X0528762Y0296961D01*
X0528735Y0297016D01*
X0528706Y0297068D01*
X0528673Y0297119D01*
X0528637Y0297168D01*
X0528599Y0297214D01*
X0528557Y0297258D01*
X0528513Y0297300D01*
X0528467Y0297338D01*
X0528418Y0297374D01*
X0528367Y0297407D01*
X0528315Y0297436D01*
X0528260Y0297463D01*
X0528205Y0297486D01*
X0528148Y0297506D01*
X0528089Y0297522D01*
X0528030Y0297535D01*
X0527971Y0297544D01*
X0527910Y0297549D01*
X0527850Y0297551D01*
X0474750Y0297551D01*
X0474690Y0297549D01*
X0474629Y0297544D01*
X0474570Y0297535D01*
X0474511Y0297522D01*
X0474452Y0297506D01*
X0474395Y0297486D01*
X0474340Y0297463D01*
X0474285Y0297436D01*
X0474233Y0297407D01*
X0474182Y0297374D01*
X0474133Y0297338D01*
X0474087Y0297300D01*
X0474043Y0297258D01*
X0474001Y0297214D01*
X0473963Y0297168D01*
X0473927Y0297119D01*
X0473894Y0297068D01*
X0473865Y0297016D01*
X0473838Y0296961D01*
X0473815Y0296906D01*
X0473795Y0296849D01*
X0473779Y0296790D01*
X0473766Y0296731D01*
X0473757Y0296672D01*
X0473752Y0296611D01*
X0473750Y0296551D01*
X0473750Y0243451D01*
X0473752Y0243391D01*
X0473757Y0243330D01*
X0473766Y0243271D01*
X0473779Y0243212D01*
X0473795Y0243153D01*
X0473815Y0243096D01*
X0473838Y0243041D01*
X0473865Y0242986D01*
X0473894Y0242934D01*
X0473927Y0242883D01*
X0473963Y0242834D01*
X0474001Y0242788D01*
X0474043Y0242744D01*
X0474087Y0242702D01*
X0474133Y0242664D01*
X0474182Y0242628D01*
X0474233Y0242595D01*
X0474285Y0242566D01*
X0474340Y0242539D01*
X0474395Y0242516D01*
X0474452Y0242496D01*
X0474511Y0242480D01*
X0474570Y0242467D01*
X0474629Y0242458D01*
X0474690Y0242453D01*
X0474750Y0242451D01*
X0454047Y0262152D02*
X0454047Y0315252D01*
X0454045Y0315312D01*
X0454040Y0315373D01*
X0454031Y0315432D01*
X0454018Y0315491D01*
X0454002Y0315550D01*
X0453982Y0315607D01*
X0453959Y0315662D01*
X0453932Y0315717D01*
X0453903Y0315769D01*
X0453870Y0315820D01*
X0453834Y0315869D01*
X0453796Y0315915D01*
X0453754Y0315959D01*
X0453710Y0316001D01*
X0453664Y0316039D01*
X0453615Y0316075D01*
X0453564Y0316108D01*
X0453512Y0316137D01*
X0453457Y0316164D01*
X0453402Y0316187D01*
X0453345Y0316207D01*
X0453286Y0316223D01*
X0453227Y0316236D01*
X0453168Y0316245D01*
X0453107Y0316250D01*
X0453047Y0316252D01*
X0399947Y0316252D01*
X0399887Y0316250D01*
X0399826Y0316245D01*
X0399767Y0316236D01*
X0399708Y0316223D01*
X0399649Y0316207D01*
X0399592Y0316187D01*
X0399537Y0316164D01*
X0399482Y0316137D01*
X0399430Y0316108D01*
X0399379Y0316075D01*
X0399330Y0316039D01*
X0399284Y0316001D01*
X0399240Y0315959D01*
X0399198Y0315915D01*
X0399160Y0315869D01*
X0399124Y0315820D01*
X0399091Y0315769D01*
X0399062Y0315717D01*
X0399035Y0315662D01*
X0399012Y0315607D01*
X0398992Y0315550D01*
X0398976Y0315491D01*
X0398963Y0315432D01*
X0398954Y0315373D01*
X0398949Y0315312D01*
X0398947Y0315252D01*
X0398947Y0262152D01*
X0398949Y0262092D01*
X0398954Y0262031D01*
X0398963Y0261972D01*
X0398976Y0261913D01*
X0398992Y0261854D01*
X0399012Y0261797D01*
X0399035Y0261742D01*
X0399062Y0261687D01*
X0399091Y0261635D01*
X0399124Y0261584D01*
X0399160Y0261535D01*
X0399198Y0261489D01*
X0399240Y0261445D01*
X0399284Y0261403D01*
X0399330Y0261365D01*
X0399379Y0261329D01*
X0399430Y0261296D01*
X0399482Y0261267D01*
X0399537Y0261240D01*
X0399592Y0261217D01*
X0399649Y0261197D01*
X0399708Y0261181D01*
X0399767Y0261168D01*
X0399826Y0261159D01*
X0399887Y0261154D01*
X0399947Y0261152D01*
X0453047Y0261152D01*
X0453107Y0261154D01*
X0453168Y0261159D01*
X0453227Y0261168D01*
X0453286Y0261181D01*
X0453345Y0261197D01*
X0453402Y0261217D01*
X0453457Y0261240D01*
X0453512Y0261267D01*
X0453564Y0261296D01*
X0453615Y0261329D01*
X0453664Y0261365D01*
X0453710Y0261403D01*
X0453754Y0261445D01*
X0453796Y0261489D01*
X0453834Y0261535D01*
X0453870Y0261584D01*
X0453903Y0261635D01*
X0453932Y0261687D01*
X0453959Y0261742D01*
X0453982Y0261797D01*
X0454002Y0261854D01*
X0454018Y0261913D01*
X0454031Y0261972D01*
X0454040Y0262031D01*
X0454045Y0262092D01*
X0454047Y0262152D01*
X0474750Y0317254D02*
X0527850Y0317254D01*
X0527910Y0317256D01*
X0527971Y0317261D01*
X0528030Y0317270D01*
X0528089Y0317283D01*
X0528148Y0317299D01*
X0528205Y0317319D01*
X0528260Y0317342D01*
X0528315Y0317369D01*
X0528367Y0317398D01*
X0528418Y0317431D01*
X0528467Y0317467D01*
X0528513Y0317505D01*
X0528557Y0317547D01*
X0528599Y0317591D01*
X0528637Y0317637D01*
X0528673Y0317686D01*
X0528706Y0317737D01*
X0528735Y0317789D01*
X0528762Y0317844D01*
X0528785Y0317899D01*
X0528805Y0317956D01*
X0528821Y0318015D01*
X0528834Y0318074D01*
X0528843Y0318133D01*
X0528848Y0318194D01*
X0528850Y0318254D01*
X0528850Y0371354D01*
X0528848Y0371414D01*
X0528843Y0371475D01*
X0528834Y0371534D01*
X0528821Y0371593D01*
X0528805Y0371652D01*
X0528785Y0371709D01*
X0528762Y0371764D01*
X0528735Y0371819D01*
X0528706Y0371871D01*
X0528673Y0371922D01*
X0528637Y0371971D01*
X0528599Y0372017D01*
X0528557Y0372061D01*
X0528513Y0372103D01*
X0528467Y0372141D01*
X0528418Y0372177D01*
X0528367Y0372210D01*
X0528315Y0372239D01*
X0528260Y0372266D01*
X0528205Y0372289D01*
X0528148Y0372309D01*
X0528089Y0372325D01*
X0528030Y0372338D01*
X0527971Y0372347D01*
X0527910Y0372352D01*
X0527850Y0372354D01*
X0474750Y0372354D01*
X0474690Y0372352D01*
X0474629Y0372347D01*
X0474570Y0372338D01*
X0474511Y0372325D01*
X0474452Y0372309D01*
X0474395Y0372289D01*
X0474340Y0372266D01*
X0474285Y0372239D01*
X0474233Y0372210D01*
X0474182Y0372177D01*
X0474133Y0372141D01*
X0474087Y0372103D01*
X0474043Y0372061D01*
X0474001Y0372017D01*
X0473963Y0371971D01*
X0473927Y0371922D01*
X0473894Y0371871D01*
X0473865Y0371819D01*
X0473838Y0371764D01*
X0473815Y0371709D01*
X0473795Y0371652D01*
X0473779Y0371593D01*
X0473766Y0371534D01*
X0473757Y0371475D01*
X0473752Y0371414D01*
X0473750Y0371354D01*
X0473750Y0318254D01*
X0473752Y0318194D01*
X0473757Y0318133D01*
X0473766Y0318074D01*
X0473779Y0318015D01*
X0473795Y0317956D01*
X0473815Y0317899D01*
X0473838Y0317844D01*
X0473865Y0317789D01*
X0473894Y0317737D01*
X0473927Y0317686D01*
X0473963Y0317637D01*
X0474001Y0317591D01*
X0474043Y0317547D01*
X0474087Y0317505D01*
X0474133Y0317467D01*
X0474182Y0317431D01*
X0474233Y0317398D01*
X0474285Y0317369D01*
X0474340Y0317342D01*
X0474395Y0317319D01*
X0474452Y0317299D01*
X0474511Y0317283D01*
X0474570Y0317270D01*
X0474629Y0317261D01*
X0474690Y0317256D01*
X0474750Y0317254D01*
X0454047Y0336955D02*
X0454047Y0390055D01*
X0454045Y0390115D01*
X0454040Y0390176D01*
X0454031Y0390235D01*
X0454018Y0390294D01*
X0454002Y0390353D01*
X0453982Y0390410D01*
X0453959Y0390465D01*
X0453932Y0390520D01*
X0453903Y0390572D01*
X0453870Y0390623D01*
X0453834Y0390672D01*
X0453796Y0390718D01*
X0453754Y0390762D01*
X0453710Y0390804D01*
X0453664Y0390842D01*
X0453615Y0390878D01*
X0453564Y0390911D01*
X0453512Y0390940D01*
X0453457Y0390967D01*
X0453402Y0390990D01*
X0453345Y0391010D01*
X0453286Y0391026D01*
X0453227Y0391039D01*
X0453168Y0391048D01*
X0453107Y0391053D01*
X0453047Y0391055D01*
X0399947Y0391055D01*
X0399887Y0391053D01*
X0399826Y0391048D01*
X0399767Y0391039D01*
X0399708Y0391026D01*
X0399649Y0391010D01*
X0399592Y0390990D01*
X0399537Y0390967D01*
X0399482Y0390940D01*
X0399430Y0390911D01*
X0399379Y0390878D01*
X0399330Y0390842D01*
X0399284Y0390804D01*
X0399240Y0390762D01*
X0399198Y0390718D01*
X0399160Y0390672D01*
X0399124Y0390623D01*
X0399091Y0390572D01*
X0399062Y0390520D01*
X0399035Y0390465D01*
X0399012Y0390410D01*
X0398992Y0390353D01*
X0398976Y0390294D01*
X0398963Y0390235D01*
X0398954Y0390176D01*
X0398949Y0390115D01*
X0398947Y0390055D01*
X0398947Y0336955D01*
X0398949Y0336895D01*
X0398954Y0336834D01*
X0398963Y0336775D01*
X0398976Y0336716D01*
X0398992Y0336657D01*
X0399012Y0336600D01*
X0399035Y0336545D01*
X0399062Y0336490D01*
X0399091Y0336438D01*
X0399124Y0336387D01*
X0399160Y0336338D01*
X0399198Y0336292D01*
X0399240Y0336248D01*
X0399284Y0336206D01*
X0399330Y0336168D01*
X0399379Y0336132D01*
X0399430Y0336099D01*
X0399482Y0336070D01*
X0399537Y0336043D01*
X0399592Y0336020D01*
X0399649Y0336000D01*
X0399708Y0335984D01*
X0399767Y0335971D01*
X0399826Y0335962D01*
X0399887Y0335957D01*
X0399947Y0335955D01*
X0453047Y0335955D01*
X0453107Y0335957D01*
X0453168Y0335962D01*
X0453227Y0335971D01*
X0453286Y0335984D01*
X0453345Y0336000D01*
X0453402Y0336020D01*
X0453457Y0336043D01*
X0453512Y0336070D01*
X0453564Y0336099D01*
X0453615Y0336132D01*
X0453664Y0336168D01*
X0453710Y0336206D01*
X0453754Y0336248D01*
X0453796Y0336292D01*
X0453834Y0336338D01*
X0453870Y0336387D01*
X0453903Y0336438D01*
X0453932Y0336490D01*
X0453959Y0336545D01*
X0453982Y0336600D01*
X0454002Y0336657D01*
X0454018Y0336716D01*
X0454031Y0336775D01*
X0454040Y0336834D01*
X0454045Y0336895D01*
X0454047Y0336955D01*
X0498800Y0392835D02*
X0503800Y0392835D01*
X0503820Y0400822D02*
X0503820Y0402735D01*
X0503820Y0402743D02*
X0501900Y0402743D01*
X0503820Y0400822D01*
X0503800Y0403465D02*
X0498800Y0403465D01*
X0454047Y0411758D02*
X0454047Y0464858D01*
X0454045Y0464918D01*
X0454040Y0464979D01*
X0454031Y0465038D01*
X0454018Y0465097D01*
X0454002Y0465156D01*
X0453982Y0465213D01*
X0453959Y0465268D01*
X0453932Y0465323D01*
X0453903Y0465375D01*
X0453870Y0465426D01*
X0453834Y0465475D01*
X0453796Y0465521D01*
X0453754Y0465565D01*
X0453710Y0465607D01*
X0453664Y0465645D01*
X0453615Y0465681D01*
X0453564Y0465714D01*
X0453512Y0465743D01*
X0453457Y0465770D01*
X0453402Y0465793D01*
X0453345Y0465813D01*
X0453286Y0465829D01*
X0453227Y0465842D01*
X0453168Y0465851D01*
X0453107Y0465856D01*
X0453047Y0465858D01*
X0399947Y0465858D01*
X0399887Y0465856D01*
X0399826Y0465851D01*
X0399767Y0465842D01*
X0399708Y0465829D01*
X0399649Y0465813D01*
X0399592Y0465793D01*
X0399537Y0465770D01*
X0399482Y0465743D01*
X0399430Y0465714D01*
X0399379Y0465681D01*
X0399330Y0465645D01*
X0399284Y0465607D01*
X0399240Y0465565D01*
X0399198Y0465521D01*
X0399160Y0465475D01*
X0399124Y0465426D01*
X0399091Y0465375D01*
X0399062Y0465323D01*
X0399035Y0465268D01*
X0399012Y0465213D01*
X0398992Y0465156D01*
X0398976Y0465097D01*
X0398963Y0465038D01*
X0398954Y0464979D01*
X0398949Y0464918D01*
X0398947Y0464858D01*
X0398947Y0411758D01*
X0398949Y0411698D01*
X0398954Y0411637D01*
X0398963Y0411578D01*
X0398976Y0411519D01*
X0398992Y0411460D01*
X0399012Y0411403D01*
X0399035Y0411348D01*
X0399062Y0411293D01*
X0399091Y0411241D01*
X0399124Y0411190D01*
X0399160Y0411141D01*
X0399198Y0411095D01*
X0399240Y0411051D01*
X0399284Y0411009D01*
X0399330Y0410971D01*
X0399379Y0410935D01*
X0399430Y0410902D01*
X0399482Y0410873D01*
X0399537Y0410846D01*
X0399592Y0410823D01*
X0399649Y0410803D01*
X0399708Y0410787D01*
X0399767Y0410774D01*
X0399826Y0410765D01*
X0399887Y0410760D01*
X0399947Y0410758D01*
X0453047Y0410758D01*
X0453107Y0410760D01*
X0453168Y0410765D01*
X0453227Y0410774D01*
X0453286Y0410787D01*
X0453345Y0410803D01*
X0453402Y0410823D01*
X0453457Y0410846D01*
X0453512Y0410873D01*
X0453564Y0410902D01*
X0453615Y0410935D01*
X0453664Y0410971D01*
X0453710Y0411009D01*
X0453754Y0411051D01*
X0453796Y0411095D01*
X0453834Y0411141D01*
X0453870Y0411190D01*
X0453903Y0411241D01*
X0453932Y0411293D01*
X0453959Y0411348D01*
X0453982Y0411403D01*
X0454002Y0411460D01*
X0454018Y0411519D01*
X0454031Y0411578D01*
X0454040Y0411637D01*
X0454045Y0411698D01*
X0454047Y0411758D01*
X0453047Y0485561D02*
X0399947Y0485561D01*
X0399887Y0485563D01*
X0399826Y0485568D01*
X0399767Y0485577D01*
X0399708Y0485590D01*
X0399649Y0485606D01*
X0399592Y0485626D01*
X0399537Y0485649D01*
X0399482Y0485676D01*
X0399430Y0485705D01*
X0399379Y0485738D01*
X0399330Y0485774D01*
X0399284Y0485812D01*
X0399240Y0485854D01*
X0399198Y0485898D01*
X0399160Y0485944D01*
X0399124Y0485993D01*
X0399091Y0486044D01*
X0399062Y0486096D01*
X0399035Y0486151D01*
X0399012Y0486206D01*
X0398992Y0486263D01*
X0398976Y0486322D01*
X0398963Y0486381D01*
X0398954Y0486440D01*
X0398949Y0486501D01*
X0398947Y0486561D01*
X0398947Y0539661D01*
X0398949Y0539721D01*
X0398954Y0539782D01*
X0398963Y0539841D01*
X0398976Y0539900D01*
X0398992Y0539959D01*
X0399012Y0540016D01*
X0399035Y0540071D01*
X0399062Y0540126D01*
X0399091Y0540178D01*
X0399124Y0540229D01*
X0399160Y0540278D01*
X0399198Y0540324D01*
X0399240Y0540368D01*
X0399284Y0540410D01*
X0399330Y0540448D01*
X0399379Y0540484D01*
X0399430Y0540517D01*
X0399482Y0540546D01*
X0399537Y0540573D01*
X0399592Y0540596D01*
X0399649Y0540616D01*
X0399708Y0540632D01*
X0399767Y0540645D01*
X0399826Y0540654D01*
X0399887Y0540659D01*
X0399947Y0540661D01*
X0453047Y0540661D01*
X0453107Y0540659D01*
X0453168Y0540654D01*
X0453227Y0540645D01*
X0453286Y0540632D01*
X0453345Y0540616D01*
X0453402Y0540596D01*
X0453457Y0540573D01*
X0453512Y0540546D01*
X0453564Y0540517D01*
X0453615Y0540484D01*
X0453664Y0540448D01*
X0453710Y0540410D01*
X0453754Y0540368D01*
X0453796Y0540324D01*
X0453834Y0540278D01*
X0453870Y0540229D01*
X0453903Y0540178D01*
X0453932Y0540126D01*
X0453959Y0540071D01*
X0453982Y0540016D01*
X0454002Y0539959D01*
X0454018Y0539900D01*
X0454031Y0539841D01*
X0454040Y0539782D01*
X0454045Y0539721D01*
X0454047Y0539661D01*
X0454047Y0486561D01*
X0454045Y0486501D01*
X0454040Y0486440D01*
X0454031Y0486381D01*
X0454018Y0486322D01*
X0454002Y0486263D01*
X0453982Y0486206D01*
X0453959Y0486151D01*
X0453932Y0486096D01*
X0453903Y0486044D01*
X0453870Y0485993D01*
X0453834Y0485944D01*
X0453796Y0485898D01*
X0453754Y0485854D01*
X0453710Y0485812D01*
X0453664Y0485774D01*
X0453615Y0485738D01*
X0453564Y0485705D01*
X0453512Y0485676D01*
X0453457Y0485649D01*
X0453402Y0485626D01*
X0453345Y0485606D01*
X0453286Y0485590D01*
X0453227Y0485577D01*
X0453168Y0485568D01*
X0453107Y0485563D01*
X0453047Y0485561D01*
X0332402Y0139883D02*
X0322166Y0139883D01*
X0322166Y0134371D01*
X0332402Y0134371D01*
X0332402Y0139883D01*
X0304253Y0124528D02*
X0304253Y0116654D01*
X0295198Y0116654D02*
X0295198Y0124528D01*
D14*
X0333977Y0130434D02*
X0333979Y0130473D01*
X0333985Y0130512D01*
X0333995Y0130550D01*
X0334008Y0130587D01*
X0334025Y0130622D01*
X0334045Y0130656D01*
X0334069Y0130687D01*
X0334096Y0130716D01*
X0334125Y0130742D01*
X0334157Y0130765D01*
X0334191Y0130785D01*
X0334227Y0130801D01*
X0334264Y0130813D01*
X0334303Y0130822D01*
X0334342Y0130827D01*
X0334381Y0130828D01*
X0334420Y0130825D01*
X0334459Y0130818D01*
X0334496Y0130807D01*
X0334533Y0130793D01*
X0334568Y0130775D01*
X0334601Y0130754D01*
X0334632Y0130729D01*
X0334660Y0130702D01*
X0334685Y0130672D01*
X0334707Y0130639D01*
X0334726Y0130605D01*
X0334741Y0130569D01*
X0334753Y0130531D01*
X0334761Y0130493D01*
X0334765Y0130454D01*
X0334765Y0130414D01*
X0334761Y0130375D01*
X0334753Y0130337D01*
X0334741Y0130299D01*
X0334726Y0130263D01*
X0334707Y0130229D01*
X0334685Y0130196D01*
X0334660Y0130166D01*
X0334632Y0130139D01*
X0334601Y0130114D01*
X0334568Y0130093D01*
X0334533Y0130075D01*
X0334496Y0130061D01*
X0334459Y0130050D01*
X0334420Y0130043D01*
X0334381Y0130040D01*
X0334342Y0130041D01*
X0334303Y0130046D01*
X0334264Y0130055D01*
X0334227Y0130067D01*
X0334191Y0130083D01*
X0334157Y0130103D01*
X0334125Y0130126D01*
X0334096Y0130152D01*
X0334069Y0130181D01*
X0334045Y0130212D01*
X0334025Y0130246D01*
X0334008Y0130281D01*
X0333995Y0130318D01*
X0333985Y0130356D01*
X0333979Y0130395D01*
X0333977Y0130434D01*
M02*
