G75*
%MOIN*%
%OFA0B0*%
%FSLAX25Y25*%
%IPPOS*%
%LPD*%
%AMOC8*
5,1,8,0,0,1.08239X$1,22.5*
%
%ADD10C,0.00000*%
%ADD11R,0.04000X0.02000*%
%ADD12R,0.04331X0.05512*%
%ADD13R,0.02500X0.05000*%
%ADD14R,0.05000X0.02500*%
%ADD15R,0.03937X0.06299*%
%ADD16R,0.06299X0.03937*%
%ADD17R,0.08661X0.13780*%
%ADD18R,0.08661X0.04724*%
D10*
X0001757Y0001179D02*
X0001757Y0092320D01*
X0179750Y0092320D01*
X0179750Y0001179D01*
X0001757Y0001179D01*
D11*
X0063633Y0057350D03*
X0063633Y0060500D03*
X0063633Y0063649D03*
X0063633Y0066799D03*
X0069932Y0066799D03*
X0069932Y0063649D03*
X0069932Y0060500D03*
X0069932Y0057350D03*
X0077568Y0057405D03*
X0077568Y0060555D03*
X0077568Y0063704D03*
X0083867Y0063704D03*
X0083867Y0060555D03*
X0083867Y0057405D03*
X0083867Y0066854D03*
X0077568Y0066854D03*
D12*
X0019230Y0053068D03*
X0012931Y0053068D03*
X0012931Y0041257D03*
X0019230Y0041257D03*
D13*
X0101939Y0009538D03*
X0106269Y0009538D03*
X0110600Y0009538D03*
X0114931Y0009538D03*
X0119261Y0009538D03*
X0123592Y0009538D03*
X0127923Y0009538D03*
X0132254Y0009538D03*
X0136584Y0009538D03*
X0140915Y0009538D03*
X0145246Y0009538D03*
X0149576Y0009538D03*
D14*
X0159222Y0021939D03*
X0159222Y0026270D03*
X0159222Y0030601D03*
X0159222Y0034932D03*
X0159222Y0039262D03*
X0159222Y0043593D03*
X0159222Y0047924D03*
X0159222Y0052254D03*
X0159222Y0056585D03*
X0159222Y0060916D03*
X0159222Y0065246D03*
X0159222Y0069577D03*
X0092293Y0069577D03*
X0092293Y0065246D03*
X0092293Y0060916D03*
X0092293Y0056585D03*
X0092293Y0052254D03*
X0092293Y0047924D03*
X0092293Y0043593D03*
X0092293Y0039262D03*
X0092293Y0034932D03*
X0092293Y0030601D03*
X0092293Y0026270D03*
X0092293Y0021939D03*
D15*
X0081615Y0025033D03*
X0066654Y0025033D03*
X0066654Y0050230D03*
X0081615Y0050230D03*
D16*
X0054137Y0052589D03*
X0028940Y0052589D03*
X0028940Y0067549D03*
X0054137Y0067549D03*
D17*
X0054303Y0036314D03*
D18*
X0029894Y0036314D03*
X0029894Y0027259D03*
X0029894Y0045369D03*
M02*
